<?xml version="1.0" standalone="no"?>
<!DOCTYPE svg PUBLIC "-//W3C//DTD SVG 1.1//EN" "http://www.w3.org/Graphics/SVG/1.1/DTD/svg11.dtd" >
<svg xmlns="http://www.w3.org/2000/svg" xmlns:xlink="http://www.w3.org/1999/xlink" version="1.1">
<metadata></metadata>
<defs>
<font id="irnazaninregular" horiz-adv-x="0" >
<font-face units-per-em="2048" ascent="1638" descent="-410" />
<missing-glyph horiz-adv-x="342" />
<glyph unicode="&#xfedf;&#xfee0;&#x651;&#x670;&#xfeea;" horiz-adv-x="1420" arabic-form="isolated" d="M103 208q0 56 27 118q16 34 33 57.5t38 37.5q99 64 209 109l-11 55l93 101q5 -47 15.5 -146t27.5 -255q6 -50 15.5 -81.5t27.5 -50t45 -25.5t67 -7q47 0 91 34q56 42 50 99q-8 124 -19 243.5t-24 238.5l114 118q5 -38 13.5 -193t18.5 -432q0 -24 12 -44t32.5 -34.5 t47.5 -22t59 -7.5q35 0 65 5.5t51 15t33 23t11 29.5q0 4 -3 46t-8 121l-34 496l121 127q7 -165 10 -301.5t3 -250.5v-205q0 -110 -59 -181q-64 -74 -188 -74q-166 0 -224 117q-68 -117 -205 -117q-151 0 -178 195l-85 -76h-82q-210 0 -210 117zM166 279q0 -57 193 -57 q27 0 53 3t50 10l-33 205q-62 -23 -112.5 -47.5t-89.5 -53.5q-61 -43 -61 -60zM663 978q0 71 30 98q22 23 36 14q-17 -23 -17 -65q0 -39 30 -39q37 0 58 56l22 87l37 21q0 -95 48 -95q38 0 38 30q0 80 5 91q11 18 22 29t27 15l-5 -70q-3 -39 -18 -117q-24 -77 -92 -77 q-25 0 -55 13q-41 -82 -96 -82q-70 0 -70 91zM747 1441l64 87q21 -65 32 -120t11 -103q0 -69 -17 -97.5t-49 -28.5q14 20 14 62q0 24 -6 53.5t-17 65.5q-14 55 -32 81z" />
<glyph unicode="&#xfedf;&#xfe82;" horiz-adv-x="1036" arabic-form="isolated" d="M-79 1246q0 16 22 65q24 54 42 54q25 0 74.5 -8.5t74.5 -8.5q110 0 164 15q29 8 38 8q8 0 8 -5q0 -8 -26 -29q-83 -68 -206 -68q-18 0 -54 4.5t-54 4.5q-12 0 -34.5 -28t-31.5 -28q-17 0 -17 24zM45 976q0 30 9.5 70.5t31.5 91.5q245 -246 430 -469q78 -91 125 -156 t67 -103q52 91 78.5 221.5t26.5 303.5q0 50 -2.5 104t-6.5 111l101 95q8 -28 27.5 -83.5t54.5 -140.5q0 -7 -7 -7q-10 0 -23.5 2.5t-30.5 9.5q-13 -240 -57 -409.5t-122 -271.5q29 -62 44.5 -103.5t15.5 -64.5q0 -31 -23 -84q-27 -71 -67 -88q-17 -7 -68 -12.5t-138 -10.5 q-66 -5 -111 -7.5t-68 -2.5q22 64 37.5 102t23.5 51q99 39 263 203q-67 88 -179.5 216.5t-273.5 301.5q-3 -46 -16 -46q-10 0 -75 70q-67 76 -67 106zM526 123l55 -2q17 -2 39 1t51 8q72 15 72 37q0 35 -48 100q-106 -98 -169 -141v-3z" />
<glyph unicode="&#xfee0;&#xfe82;" horiz-adv-x="1202" arabic-form="final" d="M-66 1214q0 16 22 65q24 54 42 54q25 0 74.5 -8.5t74.5 -8.5q110 0 164 15q29 8 38 8q8 0 8 -5q0 -8 -26 -29q-83 -68 -206 -68q-18 0 -54 4.5t-54 4.5q-12 0 -34.5 -28t-31.5 -28q-17 0 -17 24zM71 948q0 82 16 155l84 -63q246 -186 366 -341q146 -190 175 -420 q188 217 175 496l-19 367l105 103l23 -902q2 -116 53 -158q39 -36 134 -36h25q17 0 17 -35v-79q0 -35 -17 -35h-49q-254 0 -254 279q0 139 -3 205h-4q-185 -404 -345 -527q-40 -34 -76 -37q-128 -17 -206 -25.5t-107 -8.5q-36 0 -36 8q0 4 178 95q125 63 214.5 121.5 t144.5 113.5q-24 296 -430 598q0 -47 -9 -47q-7 0 -27.5 14.5t-52.5 43.5q-75 66 -75 115z" />
<glyph unicode="&#xfedf;&#xfe84;" horiz-adv-x="1036" arabic-form="isolated" d="M-60 1220q0 47 60 82q-42 27 -42 81q0 49 50 101q50 50 110 50q81 0 81 -70q0 -8 -3 -14t-8 -12q-33 27 -83 27q-93 0 -93 -46q0 -14 8 -28t20 -24.5t27 -17t29 -6.5q75 0 146 34l-29 -81q-16 -2 -40.5 -7.5t-56.5 -13.5q-65 -17 -106.5 -40t-61.5 -50q-8 18 -8 35z M45 976q0 30 9.5 70.5t31.5 91.5q245 -246 430 -469q78 -91 125 -156t67 -103q52 91 78.5 221.5t26.5 303.5q0 50 -2.5 104t-6.5 111l101 95q8 -28 27.5 -83.5t54.5 -140.5q0 -7 -7 -7q-10 0 -23.5 2.5t-30.5 9.5q-13 -240 -57 -409.5t-122 -271.5q29 -62 44.5 -103.5 t15.5 -64.5q0 -31 -23 -84q-27 -71 -67 -88q-17 -7 -68 -12.5t-138 -10.5q-66 -5 -111 -7.5t-68 -2.5q22 64 37.5 102t23.5 51q99 39 263 203q-67 88 -179.5 216.5t-273.5 301.5q-3 -46 -16 -46q-10 0 -75 70q-67 76 -67 106zM526 123l55 -2q17 -2 39 1t51 8q72 15 72 37 q0 35 -48 100q-106 -98 -169 -141v-3z" />
<glyph unicode="&#xfee0;&#xfe84;" horiz-adv-x="1202" arabic-form="final" d="M-25 1191q0 47 60 82q-42 27 -42 81q0 49 50 101q50 50 110 50q81 0 81 -70q0 -8 -3 -14t-8 -12q-33 27 -83 27q-93 0 -93 -46q0 -14 8 -28t20 -24.5t27 -17t29 -6.5q75 0 146 34l-29 -81q-16 -2 -40.5 -7.5t-56.5 -13.5q-65 -17 -106.5 -40t-61.5 -50q-8 18 -8 35z M71 948q0 82 16 155l84 -63q246 -186 366 -341q146 -190 175 -420q188 217 175 496l-19 367l105 103l23 -902q2 -116 53 -158q39 -36 134 -36h25q17 0 17 -35v-79q0 -35 -17 -35h-49q-254 0 -254 279q0 139 -3 205h-4q-185 -404 -345 -527q-40 -34 -76 -37 q-128 -17 -206 -25.5t-107 -8.5q-36 0 -36 8q0 4 178 95q125 63 214.5 121.5t144.5 113.5q-24 296 -430 598q0 -47 -9 -47q-7 0 -27.5 14.5t-52.5 43.5q-75 66 -75 115z" />
<glyph unicode="&#xfedf;&#xfe88;" horiz-adv-x="1036" arabic-form="isolated" d="M45 976q0 30 9.5 70.5t31.5 91.5q245 -246 430 -469q78 -91 125 -156t67 -103q52 91 78.5 221.5t26.5 303.5q0 50 -2.5 104t-6.5 111l101 95q8 -28 27.5 -83.5t54.5 -140.5q0 -7 -7 -7q-10 0 -23.5 2.5t-30.5 9.5q-13 -240 -57 -409.5t-122 -271.5q29 -62 44.5 -103.5 t15.5 -64.5q0 -31 -23 -84q-27 -71 -67 -88q-17 -7 -68 -12.5t-138 -10.5q-66 -5 -111 -7.5t-68 -2.5q22 64 37.5 102t23.5 51q99 39 263 203q-67 88 -179.5 216.5t-273.5 301.5q-3 -46 -16 -46q-10 0 -75 70q-67 76 -67 106zM215 -439q0 47 60 82q-42 27 -42 81 q0 49 50 101q50 50 110 50q81 0 81 -70q0 -8 -3 -14t-8 -12q-33 27 -83 27q-93 0 -93 -46q0 -14 8 -28t20 -24.5t27 -17t29 -6.5q75 0 146 34l-29 -81q-16 -2 -40.5 -7.5t-56.5 -13.5q-65 -17 -106.5 -40t-61.5 -50q-8 18 -8 35zM526 123l55 -2q17 -2 39 1t51 8q72 15 72 37 q0 35 -48 100q-106 -98 -169 -141v-3z" />
<glyph unicode="&#xfee0;&#xfe88;" horiz-adv-x="1202" arabic-form="final" d="M71 948q0 82 16 155l84 -63q246 -186 366 -341q146 -190 175 -420q188 217 175 496l-19 367l105 103l23 -902q2 -116 53 -158q39 -36 134 -36h25q17 0 17 -35v-79q0 -35 -17 -35h-49q-254 0 -254 279q0 139 -3 205h-4q-185 -404 -345 -527q-40 -34 -76 -37 q-128 -17 -206 -25.5t-107 -8.5q-36 0 -36 8q0 4 178 95q125 63 214.5 121.5t144.5 113.5q-24 296 -430 598q0 -47 -9 -47q-7 0 -27.5 14.5t-52.5 43.5q-75 66 -75 115zM167 -511q0 47 60 82q-42 27 -42 81q0 49 50 101q50 50 110 50q81 0 81 -70q0 -8 -3 -14t-8 -12 q-33 27 -83 27q-93 0 -93 -46q0 -14 8 -28t20 -24.5t27 -17t29 -6.5q75 0 146 34l-29 -81q-16 -2 -40.5 -7.5t-56.5 -13.5q-65 -17 -106.5 -40t-61.5 -50q-8 18 -8 35z" />
<glyph unicode="&#xfedf;&#xfe8e;" horiz-adv-x="1036" arabic-form="isolated" d="M45 976q0 30 9.5 70.5t31.5 91.5q245 -246 430 -469q78 -91 125 -156t67 -103q52 91 78.5 221.5t26.5 303.5q0 50 -2.5 104t-6.5 111l101 95q8 -28 27.5 -83.5t54.5 -140.5q0 -7 -7 -7q-10 0 -23.5 2.5t-30.5 9.5q-13 -240 -57 -409.5t-122 -271.5q29 -62 44.5 -103.5 t15.5 -64.5q0 -31 -23 -84q-27 -71 -67 -88q-17 -7 -68 -12.5t-138 -10.5q-66 -5 -111 -7.5t-68 -2.5q22 64 37.5 102t23.5 51q99 39 263 203q-67 88 -179.5 216.5t-273.5 301.5q-3 -46 -16 -46q-10 0 -75 70q-67 76 -67 106zM526 123l55 -2q17 -2 39 1t51 8q72 15 72 37 q0 35 -48 100q-106 -98 -169 -141v-3z" />
<glyph unicode="&#xfee0;&#xfe8e;" horiz-adv-x="1202" arabic-form="final" d="M71 948q0 82 16 155l84 -63q246 -186 366 -341q146 -190 175 -420q188 217 175 496l-19 367l105 103l23 -902q2 -116 53 -158q39 -36 134 -36h25q17 0 17 -35v-79q0 -35 -17 -35h-49q-254 0 -254 279q0 139 -3 205h-4q-185 -404 -345 -527q-40 -34 -76 -37 q-128 -17 -206 -25.5t-107 -8.5q-36 0 -36 8q0 4 178 95q125 63 214.5 121.5t144.5 113.5q-24 296 -430 598q0 -47 -9 -47q-7 0 -27.5 14.5t-52.5 43.5q-75 66 -75 115z" />
<glyph unicode="&#x672;" horiz-adv-x="487" d="M27.5 1287q1.5 15 5.5 24q15 35 66 41t73 16q-23 1 -53.5 17t-24.5 60q1 35 19.5 63t45 43t59.5 11t64 -33q9 -14 -1.5 -30t-32.5 -34q3 1 -13.5 17.5t-34.5 23.5q-13 3 -38 -10t-32 -39q7 -28 27.5 -40t49.5 -15t59.5 2t54.5 11q11 3 5.5 -11t-17.5 -37 q-47 -34 -151 -41.5t-122 -50.5q-10 -3 -8.5 12zM140 1142l108 103q13 -137 18.5 -378.5t7.5 -587.5q0 -65 65 -102q47 -28 95 -28h60q15 0 15 -35v-79q0 -35 -15 -35h-34q-121 0 -197 62q-40 32 -59 77t-21 105q-3 248 -14 471t-29 427z" />
<glyph unicode="&#x673;" horiz-adv-x="487" d="M140 1142l108 103q13 -137 18.5 -378.5t7.5 -587.5q0 -65 65 -102q47 -28 95 -28h60q15 0 15 -35v-79q0 -35 -15 -35h-34q-121 0 -197 62q-40 32 -59 77t-21 105q-3 248 -14 471t-29 427zM166.5 -443q1.5 15 5.5 24q15 35 66 41t73 16q-23 1 -53.5 17t-24.5 60 q1 35 19.5 63t45 43t59.5 11t64 -33q9 -14 -1.5 -30t-32.5 -34q3 1 -13.5 17.5t-34.5 23.5q-13 3 -38 -10t-32 -39q7 -28 27.5 -40t49.5 -15t59.5 2t54.5 11q11 3 5.5 -11t-17.5 -37q-47 -34 -151 -41.5t-122 -50.5q-10 -3 -8.5 12z" />
<glyph unicode="&#x675;" horiz-adv-x="487" d="M37 1302q0 47 60 82q-42 27 -42 81q0 49 50 101q50 50 110 50q81 0 81 -70q0 -8 -3 -14t-8 -12q-33 27 -83 27q-93 0 -93 -46q0 -14 8 -28t20 -24.5t27 -17t29 -6.5q75 0 146 34l-29 -81q-16 -2 -40.5 -7.5t-56.5 -13.5q-65 -17 -106.5 -40t-61.5 -50q-8 18 -8 35z M140 1142l108 103q13 -137 18.5 -378.5t7.5 -587.5q0 -65 65 -102q47 -28 95 -28h60q15 0 15 -35v-79q0 -35 -15 -35h-34q-121 0 -197 62q-40 32 -59 77t-21 105q-3 248 -14 471t-29 427z" />
<glyph unicode="&#x676;" horiz-adv-x="727" d="M0 -475q0 11 28 18q196 54 335 189q80 75 124 158q33 64 33 99v16q-21 -2 -52.5 -3.5t-74.5 -1.5q-64 0 -109 9t-73 29t-40.5 52t-12.5 77q0 57 14 111t40 108q33 60 71 90.5t84 30.5q95 0 154 -110q55 -97 70 -248h142q16 0 16 -35v-79q0 -35 -16 -35h-144 q0 -142 -112 -328q-35 -57 -64.5 -95t-53.5 -56q-35 -26 -100 -26q-37 0 -77 2.5t-86 6.5q-96 9 -96 21zM204 671q0 47 60 82q-42 27 -42 81q0 49 50 101q50 50 110 50q81 0 81 -70q0 -8 -3 -14t-8 -12q-33 27 -83 27q-93 0 -93 -46q0 -14 8 -28t20 -24.5t27 -17t29 -6.5 q75 0 146 34l-29 -81q-16 -2 -40.5 -7.5t-56.5 -13.5q-65 -17 -106.5 -40t-61.5 -50q-8 18 -8 35zM237 244q0 -95 158 -95h106q-1 35 -13.5 69.5t-34.5 66.5q-48 73 -104 73q-23 0 -43.5 -8.5t-35.5 -24t-24 -36.5t-9 -45z" />
<glyph unicode="&#x677;" horiz-adv-x="818" d="M60 661q21 1 52.5 9t72.5 26q87 34 120 62q-101 47 -101 106q0 46 56 97q29 25 55 38t51 13q66 0 66 -93q0 -38 -9 -67.5t-26 -51.5q34 -21 59 -21q-26 -48 -49 -62l-58 20q-80 -105 -232 -105q-45 0 -57 29zM91 -475q0 11 28 18q196 54 335 189q80 75 124 158 q33 64 33 99v16q-21 -2 -52.5 -3.5t-74.5 -1.5q-64 0 -109 9t-73 29t-40.5 52t-12.5 77q0 57 14 111t40 108q33 60 71 90.5t84 30.5q95 0 154 -110q55 -97 70 -248h142q16 0 16 -35v-79q0 -35 -16 -35h-144q0 -142 -112 -328q-35 -57 -64.5 -95t-53.5 -56q-35 -26 -100 -26 q-37 0 -77 2.5t-86 6.5q-96 9 -96 21zM270 896q0 -40 92 -79q14 21 14 64q0 60 -38 60q-22 0 -42 -13q-13 -7 -19.5 -15t-6.5 -17zM328 244q0 -95 158 -95h106q-1 35 -13.5 69.5t-34.5 66.5q-48 73 -104 73q-23 0 -43.5 -8.5t-35.5 -24t-24 -36.5t-9 -45zM517 661 q0 47 60 82q-42 27 -42 81q0 49 50 101q50 50 110 50q81 0 81 -70q0 -8 -3 -14t-8 -12q-33 27 -83 27q-93 0 -93 -46q0 -14 8 -28t20 -24.5t27 -17t29 -6.5q75 0 146 34l-29 -81q-16 -2 -40.5 -7.5t-56.5 -13.5q-65 -17 -106.5 -40t-61.5 -50q-8 18 -8 35z" />
<glyph unicode="&#x678;" horiz-adv-x="1348" d="M103 -261q0 64 12.5 125.5t39.5 119.5q48 103 83 103q23 0 23 -20q0 3 -35 -76q-34 -78 -34 -162q0 -155 117 -218q100 -59 319 -59q102 0 188 11.5t160 34.5q138 41 135 89q0 21 -105 35q-73 11 -121.5 21.5t-71.5 18.5q-105 31 -105 96q0 83 82 168q80 84 174 102 q48 11 139.5 16t225.5 5h24q17 0 17 -35v-79q0 -35 -17 -35h-125q-430 0 -430 -82q0 -31 186 -56q69 -8 113 -18t62 -23q15 -10 23.5 -30.5t6.5 -51.5q-9 -335 -663 -335q-181 0 -293 76q-130 87 -130 259zM415 215q0 47 60 82q-42 27 -42 81q0 49 50 101q50 50 110 50 q81 0 81 -70q0 -8 -3 -14t-8 -12q-33 27 -83 27q-93 0 -93 -46q0 -14 8 -28t20 -24.5t27 -17t29 -6.5q75 0 146 34l-29 -81q-16 -2 -40.5 -7.5t-56.5 -13.5q-65 -17 -106.5 -40t-61.5 -50q-8 18 -8 35z" />
<glyph unicode="&#x67c;" horiz-adv-x="449" d="M-122 752l101 100l102 -100l-100 -104zM-41 35v79q0 35 36 35h23q284 0 284 69q0 73 -85 179l68 151q95 -135 95 -276q0 -156 -85 -216q-78 -56 -260 -56h-40q-36 0 -36 35zM3 -122q0 86 48 146q40 63 94 63q26 0 49.5 -12t41.5 -32.5t28.5 -49t10.5 -61.5 q0 -34 -13.5 -64t-36 -52t-52 -35t-62.5 -13q-108 0 -108 110zM53 -83q0 -61 78 -61q66 0 98 43q0 43 -36 72q-31 28 -67 28q-15 0 -29 -7t-25 -23q-19 -23 -19 -52zM120 752l101 100l103 -100l-101 -104z" />
<glyph unicode="&#x67c;" horiz-adv-x="621" d="M-41 35v79q0 35 36 35h139q167 0 190 203q0 27 25 27q24 0 24 -27q23 -203 189 -203h64q17 0 17 -35v-79q0 -35 -17 -35h-24q-52 0 -91.5 5.5t-65.5 19.5q-60 26 -95 103q-35 -73 -123 -103q-36 -14 -88 -19.5t-121 -5.5h-23q-36 0 -36 35zM-22 -120q0 86 48 146 q40 63 94 63q26 0 49.5 -12t41.5 -32.5t28.5 -49t10.5 -61.5q0 -34 -13.5 -64t-36 -52t-52 -35t-62.5 -13q-108 0 -108 110zM28 -81q0 -61 78 -61q66 0 98 43q0 43 -36 72q-31 28 -67 28q-15 0 -29 -7t-25 -23q-19 -23 -19 -52zM98 701l101 100l102 -100l-100 -104zM340 701 l101 100l103 -100l-101 -104z" />
<glyph unicode="&#x67c;" horiz-adv-x="1499" d="M112 268q0 41 8.5 81t26.5 78q31 71 54 71q26 0 26 -25q0 -2 -4 -12.5t-15 -33.5q-18 -42 -18 -86q0 -205 416 -205q134 0 246.5 15.5t204.5 45.5q136 48 188 114q68 89 91 89q24 0 24 -25q0 -5 -2.5 -18.5t-7.5 -34.5q-12 -41 -12 -64q0 -109 142 -109h24q17 0 17 -35 v-79q0 -35 -17 -35h-32q-182 0 -213 181q-203 -194 -692 -194q-455 0 -455 281zM479 633l101 100l102 -100l-100 -104zM499 -135q0 86 48 146q40 63 94 63q26 0 49.5 -12t41.5 -32.5t28.5 -49t10.5 -61.5q0 -34 -13.5 -64t-36 -52t-52 -35t-62.5 -13q-108 0 -108 110z M549 -96q0 -61 78 -61q66 0 98 43q0 43 -36 72q-31 28 -67 28q-15 0 -29 -7t-25 -23q-19 -23 -19 -52zM721 633l101 100l103 -100l-101 -104z" />
<glyph unicode="&#x67d;" horiz-adv-x="449" d="M-114 880l105 107l103 -107l-103 -105zM-41 35v79q0 35 36 35h23q284 0 284 69q0 73 -85 179l68 151q95 -135 95 -276q0 -156 -85 -216q-78 -56 -260 -56h-40q-36 0 -36 35zM4 665l104 106l103 -106l-103 -107zM128 880l105 107l103 -107l-103 -105z" />
<glyph unicode="&#x67d;" horiz-adv-x="621" d="M-41 35v79q0 35 36 35h139q167 0 190 203q0 27 25 27q24 0 24 -27q23 -203 189 -203h64q17 0 17 -35v-79q0 -35 -17 -35h-24q-52 0 -91.5 5.5t-65.5 19.5q-60 26 -95 103q-35 -73 -123 -103q-36 -14 -88 -19.5t-121 -5.5h-23q-36 0 -36 35zM113 860l105 107l103 -107 l-103 -105zM231 645l104 106l103 -106l-103 -107zM355 860l105 107l103 -107l-103 -105z" />
<glyph unicode="&#x67d;" horiz-adv-x="1499" d="M112 268q0 41 8.5 81t26.5 78q31 71 54 71q26 0 26 -25q0 -2 -4 -12.5t-15 -33.5q-18 -42 -18 -86q0 -205 416 -205q134 0 246.5 15.5t204.5 45.5q136 48 188 114q68 89 91 89q24 0 24 -25q0 -5 -2.5 -18.5t-7.5 -34.5q-12 -41 -12 -64q0 -109 142 -109h24q17 0 17 -35 v-79q0 -35 -17 -35h-32q-182 0 -213 181q-203 -194 -692 -194q-455 0 -455 281zM480 821l105 107l103 -107l-103 -105zM598 606l104 106l103 -106l-103 -107zM722 821l105 107l103 -107l-103 -105z" />
<glyph unicode="&#x681;" horiz-adv-x="1131" d="M-41 35v79q0 35 36 35h23q78 0 228 27q65 11 176 52.5t273 114.5v9q-307 128 -398 128q-65 0 -110 -44q-24 -20 -37 -31.5t-18 -11.5q-15 0 -15 19q0 60 59 134q63 84 144 84q43 0 138.5 -33t247.5 -99q81 -35 173.5 -54t199.5 -21l-69 -136h-67q-44 0 -80.5 -5.5 t-68.5 -14.5q-38 -14 -104.5 -45t-163.5 -80q-140 -72 -261 -107t-230 -35h-40q-36 0 -36 35zM472 720q0 47 60 82q-42 27 -42 81q0 49 50 101q50 50 110 50q81 0 81 -70q0 -8 -3 -14t-8 -12q-33 27 -83 27q-93 0 -93 -46q0 -14 8 -28t20 -24.5t27 -17t29 -6.5q75 0 146 34 l-29 -81q-16 -2 -40.5 -7.5t-56.5 -13.5q-65 -17 -106.5 -40t-61.5 -50q-8 18 -8 35z" />
<glyph unicode="&#x681;" horiz-adv-x="1137" d="M-41 35v79q0 35 36 35h23q166 0 349 71q55 21 134.5 61t188.5 98v9q-174 47 -275 69.5t-130 22.5q-64 0 -109 -44q-24 -20 -38 -31.5t-17 -11.5q-15 0 -15 19q0 60 58 134q64 84 145 84q38 0 83 -8.5t97 -27.5q82 -28 132.5 -44.5t70.5 -21.5q71 -19 146.5 -27.5 t158.5 -8.5h90l-61 -143q-59 10 -150 -6l-1 -55q-8 -139 204 -139h63q17 0 17 -35v-79q0 -35 -17 -35h-24q-307 0 -307 215q0 72 9 111q-89 -36 -336 -186q-113 -71 -229.5 -105.5t-236.5 -34.5h-23q-36 0 -36 35zM496 749q0 47 60 82q-42 27 -42 81q0 49 50 101 q50 50 110 50q81 0 81 -70q0 -8 -3 -14t-8 -12q-33 27 -83 27q-93 0 -93 -46q0 -14 8 -28t20 -24.5t27 -17t29 -6.5q75 0 146 34l-29 -81q-16 -2 -40.5 -7.5t-56.5 -13.5q-65 -17 -106.5 -40t-61.5 -50q-8 18 -8 35z" />
<glyph unicode="&#x681;" horiz-adv-x="1154" d="M121 -179q3 385 503 572v9q-102 16 -181 23t-134 7q-63 0 -110 -44q-48 -45 -53 -45q-16 0 -16 18q0 63 58 137q65 83 146 83q42 0 108.5 -8t159.5 -25q191 -33 270 -36l194 -3l-61 -142l-161 -8q-1 -15 -2 -29t-1 -26q0 -92 59 -125q28 -16 77 -23t119 -7h63 q17 0 17 -35v-79q0 -35 -17 -35h-80q-85 0 -143 15.5t-93 44.5q-64 52 -64 178q0 24 2.5 52t6.5 60q-114 -28 -207.5 -67t-168.5 -91q-202 -137 -202 -322q0 -311 532 -311q54 0 115 6.5t130 18.5q64 12 95 17.5t29 7.5q6 0 6 -9q0 -38 -114 -101q-144 -84 -329 -84 q-556 0 -553 406zM437 708q0 47 60 82q-42 27 -42 81q0 49 50 101q50 50 110 50q81 0 81 -70q0 -8 -3 -14t-8 -12q-33 27 -83 27q-93 0 -93 -46q0 -14 8 -28t20 -24.5t27 -17t29 -6.5q75 0 146 34l-29 -81q-16 -2 -40.5 -7.5t-56.5 -13.5q-65 -17 -106.5 -40t-61.5 -50 q-8 18 -8 35z" />
<glyph unicode="&#x682;" horiz-adv-x="1131" d="M-41 35v79q0 35 36 35h23q78 0 228 27q65 11 176 52.5t273 114.5v9q-307 128 -398 128q-65 0 -110 -44q-24 -20 -37 -31.5t-18 -11.5q-15 0 -15 19q0 60 59 134q63 84 144 84q43 0 138.5 -33t247.5 -99q81 -35 173.5 -54t199.5 -21l-69 -136h-67q-44 0 -80.5 -5.5 t-68.5 -14.5q-38 -14 -104.5 -45t-163.5 -80q-140 -72 -261 -107t-230 -35h-40q-36 0 -36 35zM448 1038l101 100l102 -100l-100 -105zM449 812l101 100l103 -100l-101 -104z" />
<glyph unicode="&#x682;" horiz-adv-x="1137" d="M-41 35v79q0 35 36 35h23q166 0 349 71q55 21 134.5 61t188.5 98v9q-174 47 -275 69.5t-130 22.5q-64 0 -109 -44q-24 -20 -38 -31.5t-17 -11.5q-15 0 -15 19q0 60 58 134q64 84 145 84q38 0 83 -8.5t97 -27.5q82 -28 132.5 -44.5t70.5 -21.5q71 -19 146.5 -27.5 t158.5 -8.5h90l-61 -143q-59 10 -150 -6l-1 -55q-8 -139 204 -139h63q17 0 17 -35v-79q0 -35 -17 -35h-24q-307 0 -307 215q0 72 9 111q-89 -36 -336 -186q-113 -71 -229.5 -105.5t-236.5 -34.5h-23q-36 0 -36 35zM481 1044l101 100l102 -100l-100 -105zM482 818l101 100 l103 -100l-101 -104z" />
<glyph unicode="&#x682;" horiz-adv-x="1154" d="M121 -179q3 385 503 572v9q-102 16 -181 23t-134 7q-63 0 -110 -44q-48 -45 -53 -45q-16 0 -16 18q0 63 58 137q65 83 146 83q42 0 108.5 -8t159.5 -25q191 -33 270 -36l194 -3l-61 -142l-161 -8q-1 -15 -2 -29t-1 -26q0 -92 59 -125q28 -16 77 -23t119 -7h63 q17 0 17 -35v-79q0 -35 -17 -35h-80q-85 0 -143 15.5t-93 44.5q-64 52 -64 178q0 24 2.5 52t6.5 60q-114 -28 -207.5 -67t-168.5 -91q-202 -137 -202 -322q0 -311 532 -311q54 0 115 6.5t130 18.5q64 12 95 17.5t29 7.5q6 0 6 -9q0 -38 -114 -101q-144 -84 -329 -84 q-556 0 -553 406zM489 1003l101 100l102 -100l-100 -105zM490 777l101 100l103 -100l-101 -104z" />
<glyph unicode="&#x685;" horiz-adv-x="1131" d="M-41 35v79q0 35 36 35h23q78 0 228 27q65 11 176 52.5t273 114.5v9q-307 128 -398 128q-65 0 -110 -44q-24 -20 -37 -31.5t-18 -11.5q-15 0 -15 19q0 60 59 134q63 84 144 84q43 0 138.5 -33t247.5 -99q81 -35 173.5 -54t199.5 -21l-69 -136h-67q-44 0 -80.5 -5.5 t-68.5 -14.5q-38 -14 -104.5 -45t-163.5 -80q-140 -72 -261 -107t-230 -35h-40q-36 0 -36 35zM392 844l105 106l103 -106l-103 -106zM513 1060l105 107l103 -107l-105 -106zM634 844l105 106l103 -106l-103 -106z" />
<glyph unicode="&#x685;" horiz-adv-x="1137" d="M-41 35v79q0 35 36 35h23q166 0 349 71q55 21 134.5 61t188.5 98v9q-174 47 -275 69.5t-130 22.5q-64 0 -109 -44q-24 -20 -38 -31.5t-17 -11.5q-15 0 -15 19q0 60 58 134q64 84 145 84q38 0 83 -8.5t97 -27.5q82 -28 132.5 -44.5t70.5 -21.5q71 -19 146.5 -27.5 t158.5 -8.5h90l-61 -143q-59 10 -150 -6l-1 -55q-8 -139 204 -139h63q17 0 17 -35v-79q0 -35 -17 -35h-24q-307 0 -307 215q0 72 9 111q-89 -36 -336 -186q-113 -71 -229.5 -105.5t-236.5 -34.5h-23q-36 0 -36 35zM395 876l105 106l103 -106l-103 -106zM516 1092l105 107 l103 -107l-105 -106zM637 876l105 106l103 -106l-103 -106z" />
<glyph unicode="&#x685;" horiz-adv-x="1154" d="M121 -179q3 385 503 572v9q-102 16 -181 23t-134 7q-63 0 -110 -44q-48 -45 -53 -45q-16 0 -16 18q0 63 58 137q65 83 146 83q42 0 108.5 -8t159.5 -25q191 -33 270 -36l194 -3l-61 -142l-161 -8q-1 -15 -2 -29t-1 -26q0 -92 59 -125q28 -16 77 -23t119 -7h63 q17 0 17 -35v-79q0 -35 -17 -35h-80q-85 0 -143 15.5t-93 44.5q-64 52 -64 178q0 24 2.5 52t6.5 60q-114 -28 -207.5 -67t-168.5 -91q-202 -137 -202 -322q0 -311 532 -311q54 0 115 6.5t130 18.5q64 12 95 17.5t29 7.5q6 0 6 -9q0 -38 -114 -101q-144 -84 -329 -84 q-556 0 -553 406zM396 834l105 106l103 -106l-103 -106zM517 1050l105 107l103 -107l-105 -106zM638 834l105 106l103 -106l-103 -106z" />
<glyph unicode="&#x689;" horiz-adv-x="956" d="M112 196q0 68 20 117q18 39 35 39q20 0 20 -24q0 -4 -1.5 -12.5t-3 -19t-2.5 -21t-1 -16.5q0 -110 200 -110q295 0 295 114q0 15 -19 71t-61 153q-80 193 -80 210l75 132q29 -88 78 -224.5t119 -325.5q24 -57 54.5 -90t68.5 -40h53q16 0 16 -35v-79q0 -35 -16 -35h-25 q-74 0 -121 35q-44 31 -106 129q-17 -46 -48.5 -79.5t-78.5 -50.5q-74 -34 -224 -34q-247 0 -247 196zM174 -118q0 86 48 146q40 63 94 63q26 0 49.5 -12t41.5 -32.5t28.5 -49t10.5 -61.5q0 -34 -13.5 -64t-36 -52t-52 -35t-62.5 -13q-108 0 -108 110zM224 -79q0 -61 78 -61 q66 0 98 43q0 43 -36 72q-31 28 -67 28q-15 0 -29 -7t-25 -23q-19 -23 -19 -52z" />
<glyph unicode="&#x68a;" horiz-adv-x="956" d="M112 196q0 68 20 117q18 39 35 39q20 0 20 -24q0 -4 -1.5 -12.5t-3 -19t-2.5 -21t-1 -16.5q0 -110 200 -110q295 0 295 114q0 15 -19 71t-61 153q-80 193 -80 210l75 132q29 -88 78 -224.5t119 -325.5q24 -57 54.5 -90t68.5 -40h53q16 0 16 -35v-79q0 -35 -16 -35h-25 q-74 0 -121 35q-44 31 -106 129q-17 -46 -48.5 -79.5t-78.5 -50.5q-74 -34 -224 -34q-247 0 -247 196zM235 -264l105 107l102 -107l-102 -106z" />
<glyph unicode="&#x68b;" horiz-adv-x="956" d="M112 196q0 68 20 117q18 39 35 39q20 0 20 -24q0 -4 -1.5 -12.5t-3 -19t-2.5 -21t-1 -16.5q0 -110 200 -110q295 0 295 114q0 15 -19 71t-61 153q-80 193 -80 210l75 132q29 -88 78 -224.5t119 -325.5q24 -57 54.5 -90t68.5 -40h53q16 0 16 -35v-79q0 -35 -16 -35h-25 q-74 0 -121 35q-44 31 -106 129q-17 -46 -48.5 -79.5t-78.5 -50.5q-74 -34 -224 -34q-247 0 -247 196zM267 -245l105 107l102 -107l-102 -106zM289 997q0 5 4 5q3 0 14 -8q21 -15 72 -15q30 0 46 10q0 12 0.5 30.5t0.5 45.5q0 53 -9 163q-8 104 -9 104q2 6 8 12l33 32 l22 -63q6 -18 6 -21q0 -6 -23 3q0 -3 0.5 -21.5t1.5 -53.5q2 -29 2 -48.5v-28.5q0 -43 -2.5 -76.5t-8.5 -57.5l1 -2q67 66 113 91q43 26 92 26q33 0 54 -20t21 -53q0 -68 -93 -101q-77 -29 -216 -29q-65 0 -102 28q-30 22 -28 48zM453 983q0 -8 22 -8q220 0 220 53 q0 18 -20 32q-22 16 -49 16q-17 0 -36 -6.5t-41 -17.5q-17 -8 -33.5 -19t-33.5 -25q-29 -20 -29 -25z" />
<glyph unicode="&#x68f;" horiz-adv-x="956" d="M112 196q0 68 20 117q18 39 35 39q20 0 20 -24q0 -4 -1.5 -12.5t-3 -19t-2.5 -21t-1 -16.5q0 -110 200 -110q295 0 295 114q0 15 -19 71t-61 153q-80 193 -80 210l75 132q29 -88 78 -224.5t119 -325.5q24 -57 54.5 -90t68.5 -40h53q16 0 16 -35v-79q0 -35 -16 -35h-25 q-74 0 -121 35q-44 31 -106 129q-17 -46 -48.5 -79.5t-78.5 -50.5q-74 -34 -224 -34q-247 0 -247 196zM319 1288l105 107l103 -107l-103 -105zM437 1073l104 106l103 -106l-103 -107zM561 1288l105 107l103 -107l-103 -105z" />
<glyph unicode="&#x690;" horiz-adv-x="956" d="M112 196q0 68 20 117q18 39 35 39q20 0 20 -24q0 -4 -1.5 -12.5t-3 -19t-2.5 -21t-1 -16.5q0 -110 200 -110q295 0 295 114q0 15 -19 71t-61 153q-80 193 -80 210l75 132q29 -88 78 -224.5t119 -325.5q24 -57 54.5 -90t68.5 -40h53q16 0 16 -35v-79q0 -35 -16 -35h-25 q-74 0 -121 35q-44 31 -106 129q-17 -46 -48.5 -79.5t-78.5 -50.5q-74 -34 -224 -34q-247 0 -247 196zM337 1239l104 106l103 -106l-103 -106zM457 1414l105 106l102 -106l-104 -107zM461 1063l105 107l103 -107l-105 -106zM579 1239l104 106l103 -106l-103 -106z" />
<glyph unicode="&#x692;" horiz-adv-x="731" d="M0 -496q0 12 62 26q67 17 137.5 57.5t145.5 104.5q171 150 171 271q0 97 -128 213l69 141q20 -29 42 -53.5t45 -45.5q16 -16 36 -28t44 -23q45 -18 71 -18h41q17 0 17 -35v-79q0 -35 -17 -35h-24q-30 0 -63 7t-68 23q9 -37 6 -86q-3 -147 -114 -311q-103 -154 -175 -154 q-298 0 -298 25zM284 714l94 -7q9 -11 18.5 -25t19.5 -35.5t20 -53t21 -77.5q3 18 8.5 42.5t13.5 51t19 53.5t26 49l92 9q-12 -12 -28 -29t-35 -49t-40.5 -83.5t-43.5 -130.5l-25 -3q-9 43 -25.5 85.5t-37.5 80.5t-45.5 69.5t-51.5 52.5z" />
<glyph unicode="&#x693;" horiz-adv-x="731" d="M0 -496q0 12 62 26q67 17 137.5 57.5t145.5 104.5q171 150 171 271q0 97 -128 213l69 141q20 -29 42 -53.5t45 -45.5q16 -16 36 -28t44 -23q45 -18 71 -18h41q17 0 17 -35v-79q0 -35 -17 -35h-24q-30 0 -63 7t-68 23q9 -37 6 -86q-3 -147 -114 -311q-103 -154 -175 -154 q-298 0 -298 25zM50 -641q0 86 48 146q40 63 94 63q26 0 49.5 -12t41.5 -32.5t28.5 -49t10.5 -61.5q0 -34 -13.5 -64t-36 -52t-52 -35t-62.5 -13q-108 0 -108 110zM100 -602q0 -61 78 -61q66 0 98 43q0 43 -36 72q-31 28 -67 28q-15 0 -29 -7t-25 -23q-19 -23 -19 -52z" />
<glyph unicode="&#x694;" horiz-adv-x="731" d="M0 -496q0 12 62 26q67 17 137.5 57.5t145.5 104.5q171 150 171 271q0 97 -128 213l69 141q20 -29 42 -53.5t45 -45.5q16 -16 36 -28t44 -23q45 -18 71 -18h41q17 0 17 -35v-79q0 -35 -17 -35h-24q-30 0 -63 7t-68 23q9 -37 6 -86q-3 -147 -114 -311q-103 -154 -175 -154 q-298 0 -298 25zM81 -708l105 107l102 -107l-102 -106z" />
<glyph unicode="&#x695;" horiz-adv-x="731" d="M0 -496q0 12 62 26q67 17 137.5 57.5t145.5 104.5q171 150 171 271q0 97 -128 213l69 141q20 -29 42 -53.5t45 -45.5q16 -16 36 -28t44 -23q45 -18 71 -18h41q17 0 17 -35v-79q0 -35 -17 -35h-24q-30 0 -63 7t-68 23q9 -37 6 -86q-3 -147 -114 -311q-103 -154 -175 -154 q-298 0 -298 25zM82 -653l94 -7q9 -11 18.5 -25t19.5 -35.5t20 -53t21 -77.5q3 18 8.5 42.5t13.5 51t19 53.5t26 49l92 9q-12 -12 -28 -29t-35 -49t-40.5 -83.5t-43.5 -130.5l-25 -3q-9 43 -25.5 85.5t-37.5 80.5t-45.5 69.5t-51.5 52.5z" />
<glyph unicode="&#x696;" horiz-adv-x="731" d="M0 -496q0 12 62 26q67 17 137.5 57.5t145.5 104.5q171 150 171 271q0 97 -128 213l69 141q20 -29 42 -53.5t45 -45.5q16 -16 36 -28t44 -23q45 -18 71 -18h41q17 0 17 -35v-79q0 -35 -17 -35h-24q-30 0 -63 7t-68 23q9 -37 6 -86q-3 -147 -114 -311q-103 -154 -175 -154 q-298 0 -298 25zM81 -216l105 107l102 -107l-102 -106zM159 -711l105 107l102 -107l-102 -106z" />
<glyph unicode="&#x697;" horiz-adv-x="731" d="M0 -496q0 12 62 26q67 17 137.5 57.5t145.5 104.5q171 150 171 271q0 97 -128 213l69 141q20 -29 42 -53.5t45 -45.5q16 -16 36 -28t44 -23q45 -18 71 -18h41q17 0 17 -35v-79q0 -35 -17 -35h-24q-30 0 -63 7t-68 23q9 -37 6 -86q-3 -147 -114 -311q-103 -154 -175 -154 q-298 0 -298 25zM179 590l101 100l102 -100l-100 -104zM421 590l101 100l103 -100l-101 -104z" />
<glyph unicode="&#x699;" horiz-adv-x="731" d="M0 -496q0 12 62 26q67 17 137.5 57.5t145.5 104.5q171 150 171 271q0 97 -128 213l69 141q20 -29 42 -53.5t45 -45.5q16 -16 36 -28t44 -23q45 -18 71 -18h41q17 0 17 -35v-79q0 -35 -17 -35h-24q-30 0 -63 7t-68 23q9 -37 6 -86q-3 -147 -114 -311q-103 -154 -175 -154 q-298 0 -298 25zM138 719l104 106l103 -106l-103 -106zM258 894l105 106l102 -106l-104 -107zM262 543l105 107l103 -107l-105 -106zM380 719l104 106l103 -106l-103 -106z" />
<glyph unicode="&#x69a;" horiz-adv-x="1174" d="M-41 35v79q0 35 36 35h50q227 0 227 179q0 26 25 26q23 0 23 -26q0 -179 164 -179q163 0 163 179q0 26 24 26t24 -26q0 -69 28 -116q35 -63 112 -63q38 0 70 5.5t59 16.5q48 24 48 47q0 83 -86 179l70 151q94 -138 94 -276q0 -123 -59 -194q-66 -78 -190 -78 q-114 0 -172 119q-70 -119 -205 -119q-47 0 -87.5 29.5t-78.5 89.5q-89 -119 -280 -119h-23q-36 0 -36 35zM544 -309l105 107l102 -107l-102 -106zM545 657l105 107l102 -107l-102 -106z" />
<glyph unicode="&#x69a;" horiz-adv-x="1238" d="M-41 35v79q0 35 36 35h50q227 0 227 179q0 26 25 26q23 0 23 -26q0 -179 164 -179q163 0 163 179q0 26 24 26t24 -26q0 -69 28 -116q35 -63 112 -63q159 0 159 179q0 26 23 26q25 0 25 -26q0 -179 178 -179h23q16 0 16 -35v-79q0 -35 -16 -35h-25q-136 0 -204 114 q-38 -58 -81.5 -86t-91.5 -28q-114 0 -172 119q-70 -119 -205 -119q-47 0 -87.5 29.5t-78.5 89.5q-89 -119 -282 -119h-21q-36 0 -36 35zM554 -313l105 107l102 -107l-102 -106zM556 641l105 107l102 -107l-102 -106z" />
<glyph unicode="&#x69a;" horiz-adv-x="1924" d="M103 -197q0 64 12.5 125t39.5 118q48 105 83 105q23 0 23 -21q0 3 -35 -76q-34 -77 -34 -162q0 -265 350 -265q73 0 145 14t144 40q183 70 183 187q0 69 -28 132q-31 69 -120 188l77 144q28 -51 53.5 -86t52 -56.5t56 -31t65.5 -9.5q162 0 162 179q0 26 25 26 q24 0 24 -26q0 -69 28 -116q35 -63 112 -63q158 0 158 179q0 26 25 26q23 0 23 -26q0 -179 178 -179h24q17 0 17 -35v-79q0 -35 -17 -35h-24q-137 0 -205 114q-71 -114 -174 -114q-113 0 -171 119q-68 -119 -205 -119q-47 0 -76 13q3 -33 3 -102q0 -252 -229 -366 q-155 -78 -371 -78q-72 0 -134 18t-114 56q-63 47 -94.5 111.5t-31.5 150.5zM1234 652l105 107l102 -107l-102 -106zM1258 -331l105 107l102 -107l-102 -106z" />
<glyph unicode="&#x69b;" horiz-adv-x="1174" d="M-41 35v79q0 35 36 35h50q227 0 227 179q0 26 25 26q23 0 23 -26q0 -179 164 -179q163 0 163 179q0 26 24 26t24 -26q0 -69 28 -116q35 -63 112 -63q38 0 70 5.5t59 16.5q48 24 48 47q0 83 -86 179l70 151q94 -138 94 -276q0 -123 -59 -194q-66 -78 -190 -78 q-114 0 -172 119q-70 -119 -205 -119q-47 0 -87.5 29.5t-78.5 89.5q-89 -119 -280 -119h-23q-36 0 -36 35zM428 -326l105 107l103 -107l-103 -105zM546 -541l104 106l103 -106l-103 -107zM670 -326l105 107l103 -107l-103 -105z" />
<glyph unicode="&#x69b;" horiz-adv-x="1238" d="M-41 35v79q0 35 36 35h50q227 0 227 179q0 26 25 26q23 0 23 -26q0 -179 164 -179q163 0 163 179q0 26 24 26t24 -26q0 -69 28 -116q35 -63 112 -63q159 0 159 179q0 26 23 26q25 0 25 -26q0 -179 178 -179h23q16 0 16 -35v-79q0 -35 -16 -35h-25q-136 0 -204 114 q-38 -58 -81.5 -86t-91.5 -28q-114 0 -172 119q-70 -119 -205 -119q-47 0 -87.5 29.5t-78.5 89.5q-89 -119 -282 -119h-21q-36 0 -36 35zM391 -312l105 107l103 -107l-103 -105zM509 -527l104 106l103 -106l-103 -107zM633 -312l105 107l103 -107l-103 -105z" />
<glyph unicode="&#x69b;" horiz-adv-x="1924" d="M103 -197q0 64 12.5 125t39.5 118q48 105 83 105q23 0 23 -21q0 3 -35 -76q-34 -77 -34 -162q0 -265 350 -265q73 0 145 14t144 40q183 70 183 187q0 69 -28 132q-31 69 -120 188l77 144q28 -51 53.5 -86t52 -56.5t56 -31t65.5 -9.5q162 0 162 179q0 26 25 26 q24 0 24 -26q0 -69 28 -116q35 -63 112 -63q158 0 158 179q0 26 25 26q23 0 23 -26q0 -179 178 -179h24q17 0 17 -35v-79q0 -35 -17 -35h-24q-137 0 -205 114q-71 -114 -174 -114q-113 0 -171 119q-68 -119 -205 -119q-47 0 -76 13q3 -33 3 -102q0 -252 -229 -366 q-155 -78 -371 -78q-72 0 -134 18t-114 56q-63 47 -94.5 111.5t-31.5 150.5zM1174 -326l105 107l103 -107l-103 -105zM1292 -541l104 106l103 -106l-103 -107zM1416 -326l105 107l103 -107l-103 -105z" />
<glyph unicode="&#x69c;" horiz-adv-x="1174" d="M-41 35v79q0 35 36 35h50q227 0 227 179q0 26 25 26q23 0 23 -26q0 -179 164 -179q163 0 163 179q0 26 24 26t24 -26q0 -69 28 -116q35 -63 112 -63q38 0 70 5.5t59 16.5q48 24 48 47q0 83 -86 179l70 151q94 -138 94 -276q0 -123 -59 -194q-66 -78 -190 -78 q-114 0 -172 119q-70 -119 -205 -119q-47 0 -87.5 29.5t-78.5 89.5q-89 -119 -280 -119h-23q-36 0 -36 35zM420 658l105 106l103 -106l-103 -106zM428 -302l105 107l103 -107l-103 -105zM541 874l105 107l103 -107l-105 -106zM546 -517l104 106l103 -106l-103 -107zM662 658 l105 106l103 -106l-103 -106zM670 -302l105 107l103 -107l-103 -105z" />
<glyph unicode="&#x69c;" horiz-adv-x="1238" d="M-41 35v79q0 35 36 35h50q227 0 227 179q0 26 25 26q23 0 23 -26q0 -179 164 -179q163 0 163 179q0 26 24 26t24 -26q0 -69 28 -116q35 -63 112 -63q159 0 159 179q0 26 23 26q25 0 25 -26q0 -179 178 -179h23q16 0 16 -35v-79q0 -35 -16 -35h-25q-136 0 -204 114 q-38 -58 -81.5 -86t-91.5 -28q-114 0 -172 119q-70 -119 -205 -119q-47 0 -87.5 29.5t-78.5 89.5q-89 -119 -282 -119h-21q-36 0 -36 35zM437 648l105 106l103 -106l-103 -106zM439 -302l105 107l103 -107l-103 -105zM557 -517l104 106l103 -106l-103 -107zM558 864l105 107 l103 -107l-105 -106zM679 648l105 106l103 -106l-103 -106zM681 -302l105 107l103 -107l-103 -105z" />
<glyph unicode="&#x69c;" horiz-adv-x="1924" d="M103 -197q0 64 12.5 125t39.5 118q48 105 83 105q23 0 23 -21q0 3 -35 -76q-34 -77 -34 -162q0 -265 350 -265q73 0 145 14t144 40q183 70 183 187q0 69 -28 132q-31 69 -120 188l77 144q28 -51 53.5 -86t52 -56.5t56 -31t65.5 -9.5q162 0 162 179q0 26 25 26 q24 0 24 -26q0 -69 28 -116q35 -63 112 -63q158 0 158 179q0 26 25 26q23 0 23 -26q0 -179 178 -179h24q17 0 17 -35v-79q0 -35 -17 -35h-24q-137 0 -205 114q-71 -114 -174 -114q-113 0 -171 119q-68 -119 -205 -119q-47 0 -76 13q3 -33 3 -102q0 -252 -229 -366 q-155 -78 -371 -78q-72 0 -134 18t-114 56q-63 47 -94.5 111.5t-31.5 150.5zM1151 -309l105 107l103 -107l-103 -105zM1152 670l105 106l103 -106l-103 -106zM1269 -524l104 106l103 -106l-103 -107zM1273 886l105 107l103 -107l-105 -106zM1393 -309l105 107l103 -107 l-103 -105zM1394 670l105 106l103 -106l-103 -106z" />
<glyph unicode="&#x69d;" horiz-adv-x="1336" d="M-41 35v79q0 35 36 35h50q227 0 227 179q0 26 25 26q26 0 23 -26q-3 -73 34 -120q17 -22 38 -34.5t48 -16.5q118 116 204 191.5t140 111.5q132 90 262 90q45 0 83 -14.5t65.5 -41.5t42.5 -64.5t15 -82.5q0 -181 -199 -272q-165 -75 -418 -75q-86 0 -145 5.5t-91 17.5 q-65 24 -101 96q-89 -119 -280 -119h-23q-36 0 -36 35zM286 -312l101 100l102 -100l-100 -104zM528 -312l101 100l103 -100l-101 -104zM546 160q0 -11 67 -11q550 0 550 136q0 49 -58 88q-59 41 -134 41q-115 0 -302 -147q-123 -99 -123 -107z" />
<glyph unicode="&#x69d;" horiz-adv-x="1346" d="M-41 35v79q0 35 36 35h50q227 0 227 179q0 26 25 26q26 0 23 -26q-3 -73 34 -120q17 -22 38 -34.5t48 -16.5q118 116 204 191.5t140 111.5q132 90 262 90q45 0 83 -14.5t65.5 -41.5t42.5 -64.5t15 -82.5q0 -86 -91 -205q35 7 82 7h108q17 0 17 -35v-79q0 -35 -17 -35h-24 q-123 0 -231 21q-44 8 -77 12t-57 4q-5 0 -33 -4t-83 -15q-54 -10 -106.5 -14t-104.5 -4q-86 0 -145 5.5t-91 17.5q-65 24 -101 96q-89 -119 -280 -119h-23q-36 0 -36 35zM318 -327l101 100l102 -100l-100 -104zM546 160q0 -11 67 -11q550 0 550 136q0 49 -58 88 q-59 41 -134 41q-115 0 -302 -147q-123 -99 -123 -107zM560 -327l101 100l103 -100l-101 -104z" />
<glyph unicode="&#x69d;" horiz-adv-x="1977" d="M103 -197q0 64 12.5 125t39.5 118q48 105 83 105q23 0 23 -21q0 3 -35 -76q-34 -77 -34 -162q0 -265 350 -265q73 0 145 14t144 40q183 70 183 187q0 59 -36.5 138t-111.5 182l77 144q53 -85 147 -142q200 197 332 278q68 40 131.5 61t123.5 21q45 0 83.5 -14.5t66 -41.5 t43 -64.5t15.5 -82.5q0 -86 -92 -205q18 4 38.5 5.5t43.5 1.5h108q17 0 17 -35v-79q0 -35 -17 -35h-25q-122 0 -231 21q-43 8 -76.5 12t-57.5 4q-4 0 -32 -4t-83 -15q-54 -10 -106.5 -14t-103.5 -4q-57 0 -105.5 8.5t-88.5 25.5q3 -44 3 -123q0 -252 -229 -366 q-155 -78 -371 -78q-72 0 -134 18t-114 56q-63 47 -94.5 111.5t-31.5 150.5zM1178 160q0 -11 67 -11q550 0 550 136q0 49 -56 88q-59 41 -136 41q-115 0 -302 -147q-123 -98 -123 -107zM1199 -310l101 100l102 -100l-100 -104zM1441 -310l101 100l103 -100l-101 -104z" />
<glyph unicode="&#x69e;" horiz-adv-x="1336" d="M-41 35v79q0 35 36 35h50q227 0 227 179q0 26 25 26q26 0 23 -26q-3 -73 34 -120q17 -22 38 -34.5t48 -16.5q118 116 204 191.5t140 111.5q132 90 262 90q45 0 83 -14.5t65.5 -41.5t42.5 -64.5t15 -82.5q0 -181 -199 -272q-165 -75 -418 -75q-86 0 -145 5.5t-91 17.5 q-65 24 -101 96q-89 -119 -280 -119h-23q-36 0 -36 35zM283 754l105 106l103 -106l-103 -106zM404 970l105 107l103 -107l-105 -106zM525 754l105 106l103 -106l-103 -106zM546 160q0 -11 67 -11q550 0 550 136q0 49 -58 88q-59 41 -134 41q-115 0 -302 -147 q-123 -99 -123 -107z" />
<glyph unicode="&#x69e;" horiz-adv-x="1346" d="M-41 35v79q0 35 36 35h50q227 0 227 179q0 26 25 26q26 0 23 -26q-3 -73 34 -120q17 -22 38 -34.5t48 -16.5q118 116 204 191.5t140 111.5q132 90 262 90q45 0 83 -14.5t65.5 -41.5t42.5 -64.5t15 -82.5q0 -86 -91 -205q35 7 82 7h108q17 0 17 -35v-79q0 -35 -17 -35h-24 q-123 0 -231 21q-44 8 -77 12t-57 4q-5 0 -33 -4t-83 -15q-54 -10 -106.5 -14t-104.5 -4q-86 0 -145 5.5t-91 17.5q-65 24 -101 96q-89 -119 -280 -119h-23q-36 0 -36 35zM285 763l105 106l103 -106l-103 -106zM406 979l105 107l103 -107l-105 -106zM527 763l105 106 l103 -106l-103 -106zM546 160q0 -11 67 -11q550 0 550 136q0 49 -58 88q-59 41 -134 41q-115 0 -302 -147q-123 -99 -123 -107z" />
<glyph unicode="&#x69e;" horiz-adv-x="1977" d="M103 -197q0 64 12.5 125t39.5 118q48 105 83 105q23 0 23 -21q0 3 -35 -76q-34 -77 -34 -162q0 -265 350 -265q73 0 145 14t144 40q183 70 183 187q0 59 -36.5 138t-111.5 182l77 144q53 -85 147 -142q200 197 332 278q68 40 131.5 61t123.5 21q45 0 83.5 -14.5t66 -41.5 t43 -64.5t15.5 -82.5q0 -86 -92 -205q18 4 38.5 5.5t43.5 1.5h108q17 0 17 -35v-79q0 -35 -17 -35h-25q-122 0 -231 21q-43 8 -76.5 12t-57.5 4q-4 0 -32 -4t-83 -15q-54 -10 -106.5 -14t-103.5 -4q-57 0 -105.5 8.5t-88.5 25.5q3 -44 3 -123q0 -252 -229 -366 q-155 -78 -371 -78q-72 0 -134 18t-114 56q-63 47 -94.5 111.5t-31.5 150.5zM967 740l105 106l103 -106l-103 -106zM1088 956l105 107l103 -107l-105 -106zM1178 160q0 -11 67 -11q550 0 550 136q0 49 -56 88q-59 41 -136 41q-115 0 -302 -147q-123 -98 -123 -107zM1209 740 l105 106l103 -106l-103 -106z" />
<glyph unicode="&#x69f;" horiz-adv-x="1400" d="M93 197q0 13 10 13t41 -22q54 -38 199 -41q79 0 125 29q2 32 3.5 83.5t1.5 126.5q0 74 -6.5 186.5t-18.5 266.5q-12 141 -17.5 213t-7.5 74q3 12 22 32l92 87l59 -173q9 -24 13 -39t4 -19q0 -16 -63 7q0 -7 1 -58.5t6 -148.5q3 -81 4 -134t1 -78q0 -120 -8 -212t-23 -159 l4 -4q94 92 171.5 154.5t139.5 97.5q124 71 253 71q45 0 83.5 -14.5t66 -41.5t43 -64.5t15.5 -82.5q0 -86 -92 -205q18 4 39 5.5t43 1.5h108q17 0 17 -35v-79q0 -35 -17 -35h-24q-123 0 -231 21q-91 19 -134 16l-216 -26q-216 -24 -347 -24q-179 0 -282 79q-81 60 -78 131z M546 158q0 -22 60 -22q611 0 611 149q0 49 -56 88q-59 41 -136 41q-90 0 -212 -64q-47 -24 -93.5 -54t-93.5 -67q-80 -61 -80 -71zM714 889l105 106l103 -106l-103 -106zM835 1105l105 107l103 -107l-105 -106zM956 889l105 106l103 -106l-103 -106z" />
<glyph unicode="&#x6a0;" horiz-adv-x="827" d="M-41 35v79q0 35 36 35h23q29 0 81 4.5t128 12.5v10q-108 63 -108 180q0 106 99 216q105 120 239 120q72 0 143 -62q72 -57 72 -121q0 -4 -5 -4l-75 21q-73 22 -141 22q-75 0 -143 -34q-84 -37 -84 -96q0 -62 89 -133q83 -67 144 -67q88 0 318 79l-52 -139 q-464 -158 -705 -158h-23q-36 0 -36 35zM169 927l105 106l103 -106l-103 -106zM290 1143l105 107l103 -107l-105 -106zM411 927l105 106l103 -106l-103 -106z" />
<glyph unicode="&#x6a0;" horiz-adv-x="720" d="M-41 35v79q0 35 36 35h23q90 0 192 24q103 25 103 49q0 40 -117 123q-6 4 -15 8t-23 8q0 71 50 116q61 53 171 53q213 -3 213 -133q0 -36 -59 -104q-60 -68 -60 -75q0 -21 82 -47q38 -11 65 -16.5t42 -5.5h63q17 0 17 -35v-79q0 -35 -17 -35h-24q-186 0 -313 123 q-137 -123 -370 -123h-23q-36 0 -36 35zM129 789l105 106l103 -106l-103 -106zM250 1005l105 107l103 -107l-105 -106zM371 789l105 106l103 -106l-103 -106z" />
<glyph unicode="&#x6a0;" horiz-adv-x="1085" d="M103 -179q0 136 89 255q32 41 73.5 80t93.5 77q91 61 91 60q0 29 -118 111q-8 5 -16.5 9t-20.5 8q-3 62 43 105q57 55 176 55q245 0 245 -130q0 -69 -138 -172q152 -130 423 -130h46q17 0 17 -35v-79q0 -35 -17 -35h-24q-206 0 -335 64q-48 23 -100 65t-110 102 q-329 -155 -329 -361q0 -165 151 -247q122 -64 324 -64q69 0 133 5.5t125 17.5q110 24 110 25q7 0 7 -6q0 -39 -114 -106q-141 -80 -328 -80q-227 0 -352 91q-145 103 -145 315zM287 840l105 106l103 -106l-103 -106zM408 1056l105 107l103 -107l-105 -106zM529 840l105 106 l103 -106l-103 -106z" />
<glyph unicode="&#x6a1;" horiz-adv-x="589" d="M-41 35v79q0 35 36 35h111q384 0 384 141q0 34 -11 53q-43 -26 -181 -26q-186 0 -186 143q0 53 11 104t34 103q58 138 154 138q121 0 185 -142q29 -63 43 -144.5t14 -184.5q0 -183 -123 -258q-123 -76 -412 -76h-23q-36 0 -36 35zM190 555q0 -89 134 -89q87 0 129 21 q-7 56 -53 111q-46 58 -107 58q-21 0 -39.5 -8t-32.5 -22t-22.5 -32t-8.5 -39z" />
<glyph unicode="&#x6a1;" horiz-adv-x="723" d="M-41 35v79q0 35 36 35h23q182 0 233 24q-75 76 -75 145q0 63 17.5 120.5t55.5 109.5q76 103 165 103q82 0 134 -100q43 -81 43 -180q0 -100 -77 -192q23 -16 70.5 -23t119.5 -7h25q16 0 16 -35v-79q0 -35 -16 -35h-25q-90 0 -168.5 22t-147.5 65q-55 -26 -98.5 -43 t-79.5 -26q-38 -10 -86 -14t-106 -4h-23q-36 0 -36 35zM238 349q0 -46 64 -91q58 -46 97 -46q11 0 29 10t42 27q58 43 58 87q0 54 -46 109q-41 56 -89 56q-50 0 -105 -50q-24 -25 -37 -50.5t-13 -51.5z" />
<glyph unicode="&#x6a1;" horiz-adv-x="1512" d="M112 268q0 41 8.5 81t26.5 78q31 71 54 71q26 0 26 -25q0 -2 -4 -12.5t-15 -33.5q-18 -42 -18 -86q0 -205 416 -205q284 0 434 40q-76 72 -76 142q0 63 18 120.5t56 109.5q75 103 164 103q84 0 134 -100q21 -40 32.5 -85.5t11.5 -94.5q0 -51 -19.5 -98.5t-57.5 -93.5 q20 -16 58 -23t92 -7h64q17 0 17 -35v-79q0 -35 -17 -35h-25q-91 0 -169 22t-147 67q-222 -102 -609 -102q-455 0 -455 281zM1026 349q0 -46 64 -91q58 -46 98 -46q9 0 27 10t43 27q58 43 58 87q0 55 -45 109q-42 56 -90 56q-49 0 -104 -50q-51 -51 -51 -102z" />
<glyph unicode="&#x6a2;" horiz-adv-x="589" d="M-41 35v79q0 35 36 35h111q384 0 384 141q0 34 -11 53q-43 -26 -181 -26q-186 0 -186 143q0 53 11 104t34 103q58 138 154 138q121 0 185 -142q29 -63 43 -144.5t14 -184.5q0 -183 -123 -258q-123 -76 -412 -76h-23q-36 0 -36 35zM190 555q0 -89 134 -89q87 0 129 21 q-7 56 -53 111q-46 58 -107 58q-21 0 -39.5 -8t-32.5 -22t-22.5 -32t-8.5 -39zM228 -277l105 107l102 -107l-102 -106z" />
<glyph unicode="&#x6a2;" horiz-adv-x="723" d="M-41 35v79q0 35 36 35h23q182 0 233 24q-75 76 -75 145q0 63 17.5 120.5t55.5 109.5q76 103 165 103q82 0 134 -100q43 -81 43 -180q0 -100 -77 -192q23 -16 70.5 -23t119.5 -7h25q16 0 16 -35v-79q0 -35 -16 -35h-25q-90 0 -168.5 22t-147.5 65q-55 -26 -98.5 -43 t-79.5 -26q-38 -10 -86 -14t-106 -4h-23q-36 0 -36 35zM238 349q0 -46 64 -91q58 -46 97 -46q11 0 29 10t42 27q58 43 58 87q0 54 -46 109q-41 56 -89 56q-50 0 -105 -50q-24 -25 -37 -50.5t-13 -51.5zM276 -279l105 107l102 -107l-102 -106z" />
<glyph unicode="&#x6a2;" horiz-adv-x="1512" d="M112 268q0 41 8.5 81t26.5 78q31 71 54 71q26 0 26 -25q0 -2 -4 -12.5t-15 -33.5q-18 -42 -18 -86q0 -205 416 -205q284 0 434 40q-76 72 -76 142q0 63 18 120.5t56 109.5q75 103 164 103q84 0 134 -100q21 -40 32.5 -85.5t11.5 -94.5q0 -51 -19.5 -98.5t-57.5 -93.5 q20 -16 58 -23t92 -7h64q17 0 17 -35v-79q0 -35 -17 -35h-25q-91 0 -169 22t-147 67q-222 -102 -609 -102q-455 0 -455 281zM1010 -240l105 107l102 -107l-102 -106zM1026 349q0 -46 64 -91q58 -46 98 -46q9 0 27 10t43 27q58 43 58 87q0 55 -45 109q-42 56 -90 56 q-49 0 -104 -50q-51 -51 -51 -102z" />
<glyph unicode="&#x6a3;" horiz-adv-x="589" d="M-41 35v79q0 35 36 35h111q384 0 384 141q0 34 -11 53q-43 -26 -181 -26q-186 0 -186 143q0 53 11 104t34 103q58 138 154 138q121 0 185 -142q29 -63 43 -144.5t14 -184.5q0 -183 -123 -258q-123 -76 -412 -76h-23q-36 0 -36 35zM149 -286l105 107l102 -107l-102 -106z M186 1051l105 107l102 -107l-102 -106zM190 555q0 -89 134 -89q87 0 129 21q-7 56 -53 111q-46 58 -107 58q-21 0 -39.5 -8t-32.5 -22t-22.5 -32t-8.5 -39z" />
<glyph unicode="&#x6a3;" horiz-adv-x="723" d="M-41 35v79q0 35 36 35h23q182 0 233 24q-75 76 -75 145q0 63 17.5 120.5t55.5 109.5q76 103 165 103q82 0 134 -100q43 -81 43 -180q0 -100 -77 -192q23 -16 70.5 -23t119.5 -7h25q16 0 16 -35v-79q0 -35 -16 -35h-25q-90 0 -168.5 22t-147.5 65q-55 -26 -98.5 -43 t-79.5 -26q-38 -10 -86 -14t-106 -4h-23q-36 0 -36 35zM238 349q0 -46 64 -91q58 -46 97 -46q11 0 29 10t42 27q58 43 58 87q0 54 -46 109q-41 56 -89 56q-50 0 -105 -50q-24 -25 -37 -50.5t-13 -51.5zM244 -265l105 107l102 -107l-102 -106zM290 904l105 107l102 -107 l-102 -106z" />
<glyph unicode="&#x6a3;" horiz-adv-x="1512" d="M112 268q0 41 8.5 81t26.5 78q31 71 54 71q26 0 26 -25q0 -2 -4 -12.5t-15 -33.5q-18 -42 -18 -86q0 -205 416 -205q284 0 434 40q-76 72 -76 142q0 63 18 120.5t56 109.5q75 103 164 103q84 0 134 -100q21 -40 32.5 -85.5t11.5 -94.5q0 -51 -19.5 -98.5t-57.5 -93.5 q20 -16 58 -23t92 -7h64q17 0 17 -35v-79q0 -35 -17 -35h-25q-91 0 -169 22t-147 67q-222 -102 -609 -102q-455 0 -455 281zM1026 349q0 -46 64 -91q58 -46 98 -46q9 0 27 10t43 27q58 43 58 87q0 55 -45 109q-42 56 -90 56q-49 0 -104 -50q-51 -51 -51 -102zM1062 888 l105 107l102 -107l-102 -106zM1076 -290l105 107l102 -107l-102 -106z" />
<glyph unicode="&#x6a5;" horiz-adv-x="589" d="M-41 35v79q0 35 36 35h111q384 0 384 141q0 34 -11 53q-43 -26 -181 -26q-186 0 -186 143q0 53 11 104t34 103q58 138 154 138q121 0 185 -142q29 -63 43 -144.5t14 -184.5q0 -183 -123 -258q-123 -76 -412 -76h-23q-36 0 -36 35zM4 -314l105 107l103 -107l-103 -105z M122 -529l104 106l103 -106l-103 -107zM190 555q0 -89 134 -89q87 0 129 21q-7 56 -53 111q-46 58 -107 58q-21 0 -39.5 -8t-32.5 -22t-22.5 -32t-8.5 -39zM246 -314l105 107l103 -107l-103 -105z" />
<glyph unicode="&#x6a5;" horiz-adv-x="723" d="M-41 35v79q0 35 36 35h23q182 0 233 24q-75 76 -75 145q0 63 17.5 120.5t55.5 109.5q76 103 165 103q82 0 134 -100q43 -81 43 -180q0 -100 -77 -192q23 -16 70.5 -23t119.5 -7h25q16 0 16 -35v-79q0 -35 -16 -35h-25q-90 0 -168.5 22t-147.5 65q-55 -26 -98.5 -43 t-79.5 -26q-38 -10 -86 -14t-106 -4h-23q-36 0 -36 35zM124 -312l105 107l103 -107l-103 -105zM238 349q0 -46 64 -91q58 -46 97 -46q11 0 29 10t42 27q58 43 58 87q0 54 -46 109q-41 56 -89 56q-50 0 -105 -50q-24 -25 -37 -50.5t-13 -51.5zM242 -527l104 106l103 -106 l-103 -107zM366 -312l105 107l103 -107l-103 -105z" />
<glyph unicode="&#x6a5;" horiz-adv-x="1512" d="M112 268q0 41 8.5 81t26.5 78q31 71 54 71q26 0 26 -25q0 -2 -4 -12.5t-15 -33.5q-18 -42 -18 -86q0 -205 416 -205q284 0 434 40q-76 72 -76 142q0 63 18 120.5t56 109.5q75 103 164 103q84 0 134 -100q21 -40 32.5 -85.5t11.5 -94.5q0 -51 -19.5 -98.5t-57.5 -93.5 q20 -16 58 -23t92 -7h64q17 0 17 -35v-79q0 -35 -17 -35h-25q-91 0 -169 22t-147 67q-222 -102 -609 -102q-455 0 -455 281zM889 -276l105 107l103 -107l-103 -105zM1007 -491l104 106l103 -106l-103 -107zM1026 349q0 -46 64 -91q58 -46 98 -46q9 0 27 10t43 27 q58 43 58 87q0 55 -45 109q-42 56 -90 56q-49 0 -104 -50q-51 -51 -51 -102zM1131 -276l105 107l103 -107l-103 -105z" />
<glyph unicode="&#x6a7;" horiz-adv-x="1289" d="M103 -197q0 64 12.5 125t39.5 118q48 105 83 105q23 0 23 -21q0 3 -35 -76q-34 -77 -34 -162q0 -265 350 -265q103 0 194 18.5t173 56.5q159 73 159 156q0 93 -19 153q-26 -5 -70 -8t-107 -3q-190 0 -190 142q0 64 14.5 124t43.5 114q32 58 67 87t77 29q104 0 171 -125 q24 -45 41.5 -100.5t27.5 -121.5h171q17 0 17 -35v-79q0 -35 -17 -35h-24l-144 2q2 -19 3 -45t1 -62q0 -182 -144 -294q-85 -68 -212 -101t-298 -33q-72 0 -134 18t-114 56q-63 47 -94.5 111.5t-31.5 150.5zM753 756l105 107l102 -107l-102 -106zM761 240q0 -48 34.5 -69.5 t119.5 -21.5t118 11q-11 55 -53 114q-53 73 -110 73q-21 0 -41 -9.5t-35 -24.5t-24 -34t-9 -39z" />
<glyph unicode="&#x6a8;" horiz-adv-x="1289" d="M103 -197q0 64 12.5 125t39.5 118q48 105 83 105q23 0 23 -21q0 3 -35 -76q-34 -77 -34 -162q0 -265 350 -265q103 0 194 18.5t173 56.5q159 73 159 156q0 93 -19 153q-26 -5 -70 -8t-107 -3q-190 0 -190 142q0 64 14.5 124t43.5 114q32 58 67 87t77 29q104 0 171 -125 q24 -45 41.5 -100.5t27.5 -121.5h171q17 0 17 -35v-79q0 -35 -17 -35h-24l-144 2q2 -19 3 -45t1 -62q0 -182 -144 -294q-85 -68 -212 -101t-298 -33q-72 0 -134 18t-114 56q-63 47 -94.5 111.5t-31.5 150.5zM647 732l105 106l103 -106l-103 -106zM761 240q0 -48 34.5 -69.5 t119.5 -21.5t118 11q-11 55 -53 114q-53 73 -110 73q-21 0 -41 -9.5t-35 -24.5t-24 -34t-9 -39zM768 948l105 107l103 -107l-105 -106zM889 732l105 106l103 -106l-103 -106z" />
<glyph unicode="&#x6aa;" horiz-adv-x="1785" d="M-39.5 76q-1.5 16 5 33t23.5 40h6q1010 16 1643 83q-2 48 -17.5 84.5t-41 60.5t-59 36.5t-70.5 13.5q-39 0 -113.5 -4.5t-170 -10t-204 -11.5t-215 -10.5t-203 -5.5t-167.5 4q-56 4 -94.5 11.5t-62.5 19t-34.5 26.5t-11.5 34q1 50 31.5 99.5t80 96.5t113.5 90.5t132.5 82 t136 71t125 57t99 40t57.5 20.5t20.5 2t0.5 -19t-13.5 -48t-21.5 -85q-63 -23 -134.5 -51t-142 -58.5t-135.5 -61.5t-115 -59t-80 -52t-31 -40q6 -24 50.5 -37t115.5 -18t162.5 -4t191 6t201 11.5t193.5 12.5t167.5 9.5t122.5 2.5q81 -6 134.5 -35.5t79.5 -74.5t24 -102 t-31 -119l-69 -132q-683 -60 -1650 -85q-12 24 -19.5 42t-9 34z" />
<glyph unicode="&#x6aa;" horiz-adv-x="1996" d="M-39.5 76q-1.5 16 5 33t23.5 40h6q1010 16 1643 83q-2 48 -17.5 84.5t-41 60.5t-59 36.5t-70.5 13.5q-39 0 -113.5 -4.5t-170 -10t-204 -11.5t-215 -10.5t-203 -5.5t-167.5 4q-56 4 -94.5 11.5t-62.5 19t-34.5 26.5t-11.5 34q1 50 31.5 99.5t80 96.5t113.5 90.5t132.5 82 t136 71t125 57t99 40t57.5 20.5t20.5 2t0.5 -19t-13.5 -48t-21.5 -85q-63 -23 -134.5 -51t-142 -58.5t-135.5 -61.5t-115 -59t-80 -52t-31 -40q6 -24 50.5 -37t115.5 -18t162.5 -4t191 6t201 11.5t193.5 12.5t167.5 9.5t122.5 2.5q81 -6 134.5 -35.5t79.5 -74.5t24 -102 t-31 -119q-6 -34 32.5 -54t155.5 -14h116q10 -24 15 -41t5 -33.5t-5 -33.5t-15 -41h-102q-113 -2 -164 1.5t-78 25.5t-29 58q-683 -60 -1650 -85q-12 24 -19.5 42t-9 34z" />
<glyph unicode="&#x6aa;" horiz-adv-x="2546" d="M95 280q0 45 10.5 86.5t25 73.5t29.5 51t24 19q11 0 18.5 -6t7.5 -19q0 -7 -6 -18t-12.5 -27.5t-12.5 -38t-6 -48.5q0 -36 17 -71.5t58.5 -63.5t112 -47t177.5 -22h5q1010 16 1644 83q-2 48 -17.5 84.5t-41 60.5t-59.5 36.5t-71 13.5q-39 0 -113.5 -4.5t-170 -10 t-204 -11.5t-215 -10.5t-203 -5.5t-167.5 4q-56 4 -94.5 11.5t-62 19t-34.5 26.5t-11 34q1 50 31.5 99.5t80 96.5t113.5 90.5t132 82t136 71t125 57t99 40t58 20.5t20.5 2t0.5 -19t-13.5 -48t-21.5 -85q-63 -23 -134.5 -51t-142 -58.5t-136 -61.5t-115.5 -59t-80 -52 t-31 -40q6 -24 50.5 -37t115.5 -18t162.5 -4t191 6t201.5 11.5t194 12.5t167.5 9.5t122.5 2.5q81 -6 134.5 -35.5t79.5 -74.5t24 -102t-31 -119q-7 -34 32 -54t156 -14h116q10 -24 15 -41t5 -33.5t-5 -33.5t-15 -41h-102q-113 -2 -164 1.5t-78.5 25.5t-28.5 58 q-669 -59 -1611 -84v-2h-27q-227 0 -341 67t-114 214z" />
<glyph unicode="&#x6ab;" horiz-adv-x="787" d="M-23 35v79q0 35 18 35h23q201 0 302 35.5t101 115.5q0 36 -23 82.5t-58 94t-75.5 89t-76.5 67.5l-9 -29q-17 17 -38.5 39t-41 45.5t-32.5 46.5t-13 42q0 48 6.5 84t17.5 61.5t25 40.5t29 21l701 261l-47 -149l-644 -235q5 -12 32.5 -37.5t65.5 -63t80.5 -86t79 -107 t60.5 -126t24 -141.5q0 -69 -15.5 -115.5t-47.5 -79.5q-31 -33 -72 -54t-90.5 -32t-107.5 -15t-123 -4h-33q-18 0 -18 35zM448 892q0 86 48 146q40 63 94 63q26 0 49.5 -12t41.5 -32.5t28.5 -49t10.5 -61.5q0 -34 -13.5 -64t-36 -52t-52 -35t-62.5 -13q-108 0 -108 110z M498 931q0 -61 78 -61q66 0 98 43q0 43 -36 72q-31 28 -67 28q-15 0 -29 -7t-25 -23q-19 -23 -19 -52z" />
<glyph unicode="&#x6ab;" horiz-adv-x="928" d="M-23 35v79q0 35 18 35h23q71 0 143.5 4.5t131 20.5t95.5 46t37 80q0 41 -27.5 89t-68.5 97.5t-88.5 97.5t-88.5 88t-68.5 69.5t-27.5 42.5q0 16 2 45.5t8.5 60t19.5 56t35 34.5l716 265l-47 -149l-644 -235q4 -4 10.5 -12t24 -29t51.5 -59.5t92 -104t145 -162.5t212 -235 q21 -23 43.5 -43t50.5 -35t63.5 -23.5t80.5 -8.5h15q16 0 16 -35v-79q0 -35 -16 -35h-25q-62 0 -109 14.5t-92.5 49.5t-97 92.5t-121.5 143.5q-3 -89 -33 -146.5t-88.5 -92t-146 -48t-203.5 -13.5h-23q-18 0 -18 35zM502 895q0 86 48 146q40 63 94 63q26 0 49.5 -12 t41.5 -32.5t28.5 -49t10.5 -61.5q0 -34 -13.5 -64t-36 -52t-52 -35t-62.5 -13q-108 0 -108 110zM552 934q0 -61 78 -61q66 0 98 43q0 43 -36 72q-31 28 -67 28q-15 0 -29 -7t-25 -23q-19 -23 -19 -52z" />
<glyph unicode="&#x6ab;" horiz-adv-x="1748" d="M112 268q0 41 8.5 81t26.5 78q31 71 54 71q26 0 26 -25q0 -2 -4 -12.5t-15 -33.5q-18 -42 -18 -86q0 -205 416 -205q186 0 313.5 11t200.5 32q125 36 125 123q0 69 -95 185q-25 29 -69.5 75.5t-109.5 109.5q-95 95 -95 112q0 172 65 196l716 265l-47 -149l-644 -235 q8 -13 141.5 -162t393.5 -440q98 -110 238 -110h15q17 0 17 -35v-79q0 -35 -17 -35h-24q-119 0 -202 64q-34 26 -88.5 85t-130.5 153q-6 -132 -64 -196q-60 -67 -201 -93q-72 -13 -191 -19.5t-286 -6.5q-455 0 -455 281zM1291 896q0 86 48 146q40 63 94 63q26 0 49.5 -12 t41.5 -32.5t28.5 -49t10.5 -61.5q0 -34 -13.5 -64t-36 -52t-52 -35t-62.5 -13q-108 0 -108 110zM1341 935q0 -61 78 -61q66 0 98 43q0 43 -36 72q-31 28 -67 28q-15 0 -29 -7t-25 -23q-19 -23 -19 -52z" />
<glyph unicode="&#x6ae;" horiz-adv-x="787" d="M-23 35v79q0 35 18 35h23q201 0 302 35.5t101 115.5q0 36 -23 82.5t-58 94t-75.5 89t-76.5 67.5l-9 -29q-17 17 -38.5 39t-41 45.5t-32.5 46.5t-13 42q0 48 6.5 84t17.5 61.5t25 40.5t29 21l701 261l-47 -149l-644 -235q5 -12 32.5 -37.5t65.5 -63t80.5 -86t79 -107 t60.5 -126t24 -141.5q0 -69 -15.5 -115.5t-47.5 -79.5q-31 -33 -72 -54t-90.5 -32t-107.5 -15t-123 -4h-33q-18 0 -18 35zM86 -296l105 107l103 -107l-103 -105zM204 -511l104 106l103 -106l-103 -107zM328 -296l105 107l103 -107l-103 -105z" />
<glyph unicode="&#x6ae;" horiz-adv-x="928" d="M-23 35v79q0 35 18 35h23q71 0 143.5 4.5t131 20.5t95.5 46t37 80q0 41 -27.5 89t-68.5 97.5t-88.5 97.5t-88.5 88t-68.5 69.5t-27.5 42.5q0 16 2 45.5t8.5 60t19.5 56t35 34.5l716 265l-47 -149l-644 -235q4 -4 10.5 -12t24 -29t51.5 -59.5t92 -104t145 -162.5t212 -235 q21 -23 43.5 -43t50.5 -35t63.5 -23.5t80.5 -8.5h15q16 0 16 -35v-79q0 -35 -16 -35h-25q-62 0 -109 14.5t-92.5 49.5t-97 92.5t-121.5 143.5q-3 -89 -33 -146.5t-88.5 -92t-146 -48t-203.5 -13.5h-23q-18 0 -18 35zM244 -249l105 107l103 -107l-103 -105zM362 -464l104 106 l103 -106l-103 -107zM486 -249l105 107l103 -107l-103 -105z" />
<glyph unicode="&#x6ae;" horiz-adv-x="1469" d="M112 268q0 41 8.5 81t26.5 78q31 71 54 71q26 0 26 -25q0 -2 -4 -12.5t-15 -33.5q-18 -45 -18 -86q0 -205 416 -205q118 0 226.5 11t205.5 40q29 11 53 20.5t41.5 22.5t27.5 32t10 49v9l-22 822l97 103l21 -957q0 -65 53 -103q49 -36 131 -36h24q17 0 17 -35v-79 q0 -35 -17 -35h-24q-91 0 -152 32.5t-96 101.5q-75 -80 -233.5 -113.5t-401.5 -33.5q-455 0 -455 281zM416 -287l105 107l103 -107l-103 -105zM511 535q-9 9 5 9q49 2 95.5 9t83 17t58.5 22t22 25q0 20 -44 20h-79q-29 0 -48.5 5.5t-30.5 15.5t-15.5 24t-4.5 30 q0 29 11.5 62.5t31.5 62.5q48 65 97 65q18 0 31 -10t22 -24.5t13.5 -29.5t4.5 -24q0 -11 -11 -7q-24 11 -50 11q-20 0 -38.5 -7t-32.5 -16.5t-22 -21t-8 -20.5q0 -22 58 -22h76q45 0 67 -22.5t22 -61.5q0 -41 -16 -72t-40 -51.5t-53 -31t-56 -10.5q-35 0 -70 12t-79 41z M534 -502l104 106l103 -106l-103 -107zM658 -287l105 107l103 -107l-103 -105z" />
<glyph unicode="&#x6b0;" horiz-adv-x="807" d="M-23 35v79q0 35 18 35h23q71 0 143.5 4.5t131.5 20.5t96.5 46t37.5 80q0 22 -12.5 49t-33 55t-46 56t-51 53t-49 44.5t-38.5 31.5l-7 -30q-21 21 -42 42.5t-36 40.5q-29 33 -38.5 46t-9.5 24q0 8 6.5 29t15 43.5t17.5 40t14 19.5q1 1 6 3t16.5 6t32.5 11t55 18l125 41 q80 24 199 62t292 92l-48 -138q-45 -13 -98 -29t-108.5 -33.5t-111.5 -36t-106.5 -35.5t-93 -32t-72.5 -26q51 -45 99.5 -89.5t86.5 -96.5q50 -63 74.5 -123t24.5 -138q0 -89 -30 -146.5t-89.5 -92t-148 -48t-204.5 -13.5h-23q-18 0 -18 35zM134 960l37 108l645 214 l-33 -104q-64 -19 -146 -45t-169.5 -55t-174 -59.5t-159.5 -58.5zM461 728q0 86 48 146q40 63 94 63q26 0 49.5 -12t41.5 -32.5t28.5 -49t10.5 -61.5q0 -34 -13.5 -64t-36 -52t-52 -35t-62.5 -13q-108 0 -108 110zM511 767q0 -61 78 -61q66 0 98 43q0 43 -36 72 q-31 28 -67 28q-15 0 -29 -7t-25 -23q-19 -23 -19 -52z" />
<glyph unicode="&#x6b0;" horiz-adv-x="928" d="M-23 35v79q0 35 18 35h23q71 0 143.5 4.5t131.5 20.5t96.5 46t37.5 80q0 22 -12 48.5t-32.5 55.5t-47 59.5t-56.5 59.5q-35 38 -71.5 71t-66.5 60t-49 48t-19 34q0 7 5 23.5t12.5 34.5t14.5 32.5t12 17.5q1 1 6 3t16.5 6t32.5 11t55 18l125 41q80 24 199 62t292 92 l-48 -138q-45 -13 -98 -29t-108.5 -33.5t-111.5 -36t-106.5 -35.5t-93 -32t-72.5 -26q30 -27 61 -56.5t65.5 -65t74 -77t86.5 -91.5l189 -203q48 -52 105 -78.5t137 -26.5h11q16 0 16 -35v-79q0 -35 -16 -35h-25q-54 0 -98 11t-90 43.5t-100.5 91.5t-130.5 154 q-2 -89 -33 -146.5t-90 -92t-146.5 -48t-202.5 -13.5h-23q-18 0 -18 35zM134 960l37 108l645 214l-33 -104q-64 -19 -146 -45t-169.5 -55t-174 -59.5t-159.5 -58.5zM472 761q0 86 48 146q40 63 94 63q26 0 49.5 -12t41.5 -32.5t28.5 -49t10.5 -61.5q0 -34 -13.5 -64t-36 -52 t-52 -35t-62.5 -13q-108 0 -108 110zM522 800q0 -61 78 -61q66 0 98 43q0 43 -36 72q-31 28 -67 28q-15 0 -29 -7t-25 -23q-19 -23 -19 -52z" />
<glyph unicode="&#x6b0;" horiz-adv-x="1748" d="M112 268q0 45 10.5 86.5t25 73.5t29.5 51t24 19q26 0 26 -25q0 -7 -6 -18t-12.5 -27.5t-12.5 -38t-6 -48.5q0 -39 19 -75.5t66.5 -65.5t127.5 -46.5t203 -17.5q193 0 317.5 10t195.5 30.5t98.5 51.5t27.5 72q0 22 -12 48.5t-32.5 55.5t-47 59.5t-56.5 59.5 q-35 38 -71.5 71t-66.5 60t-49 48t-19 34q0 7 5 24t11.5 35t12.5 32.5t8 16.5q3 1 7 3t15.5 5.5t32 10.5t55.5 19l125 41q79 24 198.5 62t291.5 92l-47 -138q-68 -19 -152 -45t-166.5 -53t-154.5 -52t-117 -42q33 -26 66 -56.5t68 -66.5t74 -77.5t86 -89.5l189 -203 q24 -26 49.5 -45.5t55 -33t64 -20t75.5 -6.5h11q17 0 17 -35v-79q0 -35 -17 -35h-24q-56 0 -100 11t-90 43.5t-100.5 91.5t-130.5 154q-2 -69 -17 -115.5t-47 -79.5q-32 -35 -79 -57.5t-124 -36t-192 -19t-283 -5.5q-226 0 -340.5 67t-114.5 214zM945 960l37 108l645 214 l-34 -104q-63 -19 -145 -45t-169.5 -55t-174 -59.5t-159.5 -58.5zM1280 751q0 86 48 146q40 63 94 63q26 0 49.5 -12t41.5 -32.5t28.5 -49t10.5 -61.5q0 -34 -13.5 -64t-36 -52t-52 -35t-62.5 -13q-108 0 -108 110zM1330 790q0 -61 78 -61q66 0 98 43q0 43 -36 72 q-31 28 -67 28q-15 0 -29 -7t-25 -23q-19 -23 -19 -52z" />
<glyph unicode="&#x6b2;" horiz-adv-x="807" d="M-23 35v79q0 35 18 35h23q71 0 143.5 4.5t131.5 20.5t96.5 46t37.5 80q0 22 -12.5 49t-33 55t-46 56t-51 53t-49 44.5t-38.5 31.5l-7 -30q-21 21 -42 42.5t-36 40.5q-29 33 -38.5 46t-9.5 24q0 8 6.5 29t15 43.5t17.5 40t14 19.5q1 1 6 3t16.5 6t32.5 11t55 18l125 41 q80 24 199 62t292 92l-48 -138q-45 -13 -98 -29t-108.5 -33.5t-111.5 -36t-106.5 -35.5t-93 -32t-72.5 -26q51 -45 99.5 -89.5t86.5 -96.5q50 -63 74.5 -123t24.5 -138q0 -89 -30 -146.5t-89.5 -92t-148 -48t-204.5 -13.5h-23q-18 0 -18 35zM134 960l37 108l645 214 l-33 -104q-64 -19 -146 -45t-169.5 -55t-174 -59.5t-159.5 -58.5zM183 -259l101 100l102 -100l-100 -104zM425 -259l101 100l103 -100l-101 -104z" />
<glyph unicode="&#x6b2;" horiz-adv-x="928" d="M-23 35v79q0 35 18 35h23q71 0 143.5 4.5t131.5 20.5t96.5 46t37.5 80q0 22 -12 48.5t-32.5 55.5t-47 59.5t-56.5 59.5q-35 38 -71.5 71t-66.5 60t-49 48t-19 34q0 7 5 23.5t12.5 34.5t14.5 32.5t12 17.5q1 1 6 3t16.5 6t32.5 11t55 18l125 41q80 24 199 62t292 92 l-48 -138q-45 -13 -98 -29t-108.5 -33.5t-111.5 -36t-106.5 -35.5t-93 -32t-72.5 -26q30 -27 61 -56.5t65.5 -65t74 -77t86.5 -91.5l189 -203q48 -52 105 -78.5t137 -26.5h11q16 0 16 -35v-79q0 -35 -16 -35h-25q-54 0 -98 11t-90 43.5t-100.5 91.5t-130.5 154 q-2 -89 -33 -146.5t-90 -92t-146.5 -48t-202.5 -13.5h-23q-18 0 -18 35zM134 960l37 108l645 214l-33 -104q-64 -19 -146 -45t-169.5 -55t-174 -59.5t-159.5 -58.5zM234 -259l101 100l102 -100l-100 -104zM476 -259l101 100l103 -100l-101 -104z" />
<glyph unicode="&#x6b2;" horiz-adv-x="1748" d="M112 268q0 45 10.5 86.5t25 73.5t29.5 51t24 19q26 0 26 -25q0 -7 -6 -18t-12.5 -27.5t-12.5 -38t-6 -48.5q0 -39 19 -75.5t66.5 -65.5t127.5 -46.5t203 -17.5q193 0 317.5 10t195.5 30.5t98.5 51.5t27.5 72q0 22 -12 48.5t-32.5 55.5t-47 59.5t-56.5 59.5 q-35 38 -71.5 71t-66.5 60t-49 48t-19 34q0 7 5 24t11.5 35t12.5 32.5t8 16.5q3 1 7 3t15.5 5.5t32 10.5t55.5 19l125 41q79 24 198.5 62t291.5 92l-47 -138q-68 -19 -152 -45t-166.5 -53t-154.5 -52t-117 -42q33 -26 66 -56.5t68 -66.5t74 -77.5t86 -89.5l189 -203 q24 -26 49.5 -45.5t55 -33t64 -20t75.5 -6.5h11q17 0 17 -35v-79q0 -35 -17 -35h-24q-56 0 -100 11t-90 43.5t-100.5 91.5t-130.5 154q-2 -69 -17 -115.5t-47 -79.5q-32 -35 -79 -57.5t-124 -36t-192 -19t-283 -5.5q-226 0 -340.5 67t-114.5 214zM411 -309l101 100l102 -100 l-100 -104zM653 -309l101 100l103 -100l-101 -104zM945 960l37 108l645 214l-34 -104q-63 -19 -145 -45t-169.5 -55t-174 -59.5t-159.5 -58.5z" />
<glyph unicode="&#x6b4;" horiz-adv-x="807" d="M-23 35v79q0 35 18 35h23q71 0 143.5 4.5t131.5 20.5t96.5 46t37.5 80q0 22 -12.5 49t-33 55t-46 56t-51 53t-49 44.5t-38.5 31.5l-7 -30q-21 21 -42 42.5t-36 40.5q-29 33 -38.5 46t-9.5 24q0 8 6.5 29t15 43.5t17.5 40t14 19.5q1 1 6 3t16.5 6t32.5 11t55 18l125 41 q80 24 199 62t292 92l-48 -138q-45 -13 -98 -29t-108.5 -33.5t-111.5 -36t-106.5 -35.5t-93 -32t-72.5 -26q51 -45 99.5 -89.5t86.5 -96.5q50 -63 74.5 -123t24.5 -138q0 -89 -30 -146.5t-89.5 -92t-148 -48t-204.5 -13.5h-23q-18 0 -18 35zM134 960l37 108l645 214 l-33 -104q-64 -19 -146 -45t-169.5 -55t-174 -59.5t-159.5 -58.5zM168 1360l105 106l103 -106l-103 -106zM289 1576l105 107l103 -107l-105 -106zM410 1360l105 106l103 -106l-103 -106z" />
<glyph unicode="&#x6b4;" horiz-adv-x="928" d="M-23 35v79q0 35 18 35h23q71 0 143.5 4.5t131.5 20.5t96.5 46t37.5 80q0 22 -12 48.5t-32.5 55.5t-47 59.5t-56.5 59.5q-35 38 -71.5 71t-66.5 60t-49 48t-19 34q0 7 5 23.5t12.5 34.5t14.5 32.5t12 17.5q1 1 6 3t16.5 6t32.5 11t55 18l125 41q80 24 199 62t292 92 l-48 -138q-45 -13 -98 -29t-108.5 -33.5t-111.5 -36t-106.5 -35.5t-93 -32t-72.5 -26q30 -27 61 -56.5t65.5 -65t74 -77t86.5 -91.5l189 -203q48 -52 105 -78.5t137 -26.5h11q16 0 16 -35v-79q0 -35 -16 -35h-25q-54 0 -98 11t-90 43.5t-100.5 91.5t-130.5 154 q-2 -89 -33 -146.5t-90 -92t-146.5 -48t-202.5 -13.5h-23q-18 0 -18 35zM134 960l37 108l645 214l-33 -104q-64 -19 -146 -45t-169.5 -55t-174 -59.5t-159.5 -58.5zM171 1377l105 106l103 -106l-103 -106zM292 1593l105 107l103 -107l-105 -106zM413 1377l105 106l103 -106 l-103 -106z" />
<glyph unicode="&#x6b4;" horiz-adv-x="1748" d="M112 268q0 45 10.5 86.5t25 73.5t29.5 51t24 19q26 0 26 -25q0 -7 -6 -18t-12.5 -27.5t-12.5 -38t-6 -48.5q0 -39 19 -75.5t66.5 -65.5t127.5 -46.5t203 -17.5q193 0 317.5 10t195.5 30.5t98.5 51.5t27.5 72q0 22 -12 48.5t-32.5 55.5t-47 59.5t-56.5 59.5 q-35 38 -71.5 71t-66.5 60t-49 48t-19 34q0 7 5 24t11.5 35t12.5 32.5t8 16.5q3 1 7 3t15.5 5.5t32 10.5t55.5 19l125 41q79 24 198.5 62t291.5 92l-47 -138q-68 -19 -152 -45t-166.5 -53t-154.5 -52t-117 -42q33 -26 66 -56.5t68 -66.5t74 -77.5t86 -89.5l189 -203 q24 -26 49.5 -45.5t55 -33t64 -20t75.5 -6.5h11q17 0 17 -35v-79q0 -35 -17 -35h-24q-56 0 -100 11t-90 43.5t-100.5 91.5t-130.5 154q-2 -69 -17 -115.5t-47 -79.5q-32 -35 -79 -57.5t-124 -36t-192 -19t-283 -5.5q-226 0 -340.5 67t-114.5 214zM945 960l37 108l645 214 l-34 -104q-63 -19 -145 -45t-169.5 -55t-174 -59.5t-159.5 -58.5zM991 1374l105 106l103 -106l-103 -106zM1112 1590l105 107l103 -107l-105 -106zM1233 1374l105 106l103 -106l-103 -106z" />
<glyph unicode="&#x6b5;" horiz-adv-x="421" d="M-41 35v79q0 35 36 35h23q123 0 170 24q43 22 43 78q0 29 -3 85t-8 137l-44 651q0 10 21 34l91 87l61 -173q8 -24 12 -39.5t4 -20.5q0 -13 -63 9l11 -349v-325q0 -199 -78 -280q-65 -67 -217 -67h-23q-36 0 -36 35zM46 1625l94 -7q9 -11 18.5 -25t19.5 -35.5t20 -53 t21 -77.5q3 18 8.5 42.5t13.5 51t19 53.5t26 49l92 9q-12 -12 -28 -29t-35 -49t-40.5 -83.5t-43.5 -130.5l-25 -3q-9 43 -25.5 85.5t-37.5 80.5t-45.5 69.5t-51.5 52.5z" />
<glyph unicode="&#x6b5;" horiz-adv-x="512" d="M-41 35v79q0 35 36 35h23q21 0 45.5 3t53.5 8q101 19 98 160l-23 822l98 103l19 -957q2 -32 15 -58t39 -45q49 -36 131 -36h24q17 0 17 -35v-79q0 -35 -17 -35h-24q-178 0 -248 117q-71 -117 -228 -117h-23q-36 0 -36 35zM71 1601l94 -7q9 -11 18.5 -25t19.5 -35.5 t20 -53t21 -77.5q3 18 8.5 42.5t13.5 51t19 53.5t26 49l92 9q-12 -12 -28 -29t-35 -49t-40.5 -83.5t-43.5 -130.5l-25 -3q-9 43 -25.5 85.5t-37.5 80.5t-45.5 69.5t-51.5 52.5z" />
<glyph unicode="&#x6b5;" horiz-adv-x="1228" d="M103 -199q0 55 8.5 106t26.5 98q36 98 77 98q17 0 20 -23q-2 2 -23 -55q-20 -66 -20 -148q0 -238 309 -238q84 0 159 16t145 48q143 72 143 155q0 186 -15 507.5t-46 776.5l109 103l35 -973q1 -28 14 -51t36.5 -39t56 -24.5t71.5 -8.5h25q16 0 16 -35v-79q0 -35 -16 -35 h-25q-113 0 -188 56v-127q0 -217 -158 -338q-148 -112 -392 -112q-164 0 -259 70q-109 82 -109 252zM737 1625l94 -7q9 -11 18.5 -25t19.5 -35.5t20 -53t21 -77.5q3 18 8.5 42.5t13.5 51t19 53.5t26 49l92 9q-12 -12 -28 -29t-35 -49t-40.5 -83.5t-43.5 -130.5l-25 -3 q-9 43 -25.5 85.5t-37.5 80.5t-45.5 69.5t-51.5 52.5z" />
<glyph unicode="&#x6b6;" horiz-adv-x="421" d="M-41 35v79q0 35 36 35h23q123 0 170 24q43 22 43 78q0 29 -3 85t-8 137l-44 651q0 10 21 34l91 87l61 -173q8 -24 12 -39.5t4 -20.5q0 -13 -63 9l11 -349v-325q0 -199 -78 -280q-65 -67 -217 -67h-23q-36 0 -36 35zM99 1458l105 107l102 -107l-102 -106z" />
<glyph unicode="&#x6b6;" horiz-adv-x="512" d="M-41 35v79q0 35 36 35h23q21 0 45.5 3t53.5 8q101 19 98 160l-23 822l98 103l19 -957q2 -32 15 -58t39 -45q49 -36 131 -36h24q17 0 17 -35v-79q0 -35 -17 -35h-24q-178 0 -248 117q-71 -117 -228 -117h-23q-36 0 -36 35zM111 1458l105 107l102 -107l-102 -106z" />
<glyph unicode="&#x6b6;" horiz-adv-x="1228" d="M103 -199q0 55 8.5 106t26.5 98q36 98 77 98q17 0 20 -23q-2 2 -23 -55q-20 -66 -20 -148q0 -238 309 -238q84 0 159 16t145 48q143 72 143 155q0 186 -15 507.5t-46 776.5l109 103l35 -973q1 -28 14 -51t36.5 -39t56 -24.5t71.5 -8.5h25q16 0 16 -35v-79q0 -35 -16 -35 h-25q-113 0 -188 56v-127q0 -217 -158 -338q-148 -112 -392 -112q-164 0 -259 70q-109 82 -109 252zM825 1440l105 107l102 -107l-102 -106z" />
<glyph unicode="&#x6b7;" horiz-adv-x="421" d="M-41 35v79q0 35 36 35h23q123 0 170 24q43 22 43 78q0 29 -3 85t-8 137l-44 651q0 10 21 34l91 87l61 -173q8 -24 12 -39.5t4 -20.5q0 -13 -63 9l11 -349v-325q0 -199 -78 -280q-65 -67 -217 -67h-23q-36 0 -36 35zM-7 1433l105 106l103 -106l-103 -106zM114 1649 l105 107l103 -107l-105 -106zM235 1433l105 106l103 -106l-103 -106z" />
<glyph unicode="&#x6b7;" horiz-adv-x="512" d="M-41 35v79q0 35 36 35h23q21 0 45.5 3t53.5 8q101 19 98 160l-23 822l98 103l19 -957q2 -32 15 -58t39 -45q49 -36 131 -36h24q17 0 17 -35v-79q0 -35 -17 -35h-24q-178 0 -248 117q-71 -117 -228 -117h-23q-36 0 -36 35zM-6 1441l105 106l103 -106l-103 -106zM115 1657 l105 107l103 -107l-105 -106zM236 1441l105 106l103 -106l-103 -106z" />
<glyph unicode="&#x6b7;" horiz-adv-x="1228" d="M103 -199q0 55 8.5 106t26.5 98q36 98 77 98q17 0 20 -23q-2 2 -23 -55q-20 -66 -20 -148q0 -238 309 -238q84 0 159 16t145 48q143 72 143 155q0 186 -15 507.5t-46 776.5l109 103l35 -973q1 -28 14 -51t36.5 -39t56 -24.5t71.5 -8.5h25q16 0 16 -35v-79q0 -35 -16 -35 h-25q-113 0 -188 56v-127q0 -217 -158 -338q-148 -112 -392 -112q-164 0 -259 70q-109 82 -109 252zM681 1440l105 106l103 -106l-103 -106zM802 1656l105 107l103 -107l-105 -106zM923 1440l105 106l103 -106l-103 -106z" />
<glyph unicode="&#x6b8;" horiz-adv-x="421" d="M-42 -282l105 107l103 -107l-103 -105zM-41 35v79q0 35 36 35h23q123 0 170 24q43 22 43 78q0 29 -3 85t-8 137l-44 651q0 10 21 34l91 87l61 -173q8 -24 12 -39.5t4 -20.5q0 -13 -63 9l11 -349v-325q0 -199 -78 -280q-65 -67 -217 -67h-23q-36 0 -36 35zM76 -497 l104 106l103 -106l-103 -107zM200 -282l105 107l103 -107l-103 -105z" />
<glyph unicode="&#x6b8;" horiz-adv-x="512" d="M-41 35v79q0 35 36 35h23q21 0 45.5 3t53.5 8q101 19 98 160l-23 822l98 103l19 -957q2 -32 15 -58t39 -45q49 -36 131 -36h24q17 0 17 -35v-79q0 -35 -17 -35h-24q-178 0 -248 117q-71 -117 -228 -117h-23q-36 0 -36 35zM13 -274l105 107l103 -107l-103 -105zM131 -489 l104 106l103 -106l-103 -107zM255 -274l105 107l103 -107l-103 -105z" />
<glyph unicode="&#x6b8;" horiz-adv-x="1228" d="M103 -199q0 55 8.5 106t26.5 98q36 98 77 98q17 0 20 -23q-2 2 -23 -55q-20 -66 -20 -148q0 -238 309 -238q84 0 159 16t145 48q143 72 143 155q0 186 -15 507.5t-46 776.5l109 103l35 -973q1 -28 14 -51t36.5 -39t56 -24.5t71.5 -8.5h25q16 0 16 -35v-79q0 -35 -16 -35 h-25q-113 0 -188 56v-127q0 -217 -158 -338q-148 -112 -392 -112q-164 0 -259 70q-109 82 -109 252zM262 -765l105 107l103 -107l-103 -105zM380 -980l104 106l103 -106l-103 -107zM504 -765l105 107l103 -107l-103 -105z" />
<glyph unicode="&#x6b9;" horiz-adv-x="413" d="M-41 35v79q0 35 36 35h23q284 0 284 69q0 73 -85 179l68 151q95 -135 95 -276q0 -156 -85 -216q-78 -56 -260 -56h-40q-36 0 -36 35zM73 -286l105 107l102 -107l-102 -106zM89 770l105 107l102 -107l-102 -106z" />
<glyph unicode="&#x6b9;" horiz-adv-x="621" d="M-41 35v79q0 35 36 35h139q167 0 190 203q0 27 25 27q24 0 24 -27q23 -203 189 -203h64q17 0 17 -35v-79q0 -35 -17 -35h-24q-52 0 -91.5 5.5t-65.5 19.5q-60 26 -95 103q-35 -73 -123 -103q-36 -14 -88 -19.5t-121 -5.5h-23q-36 0 -36 35zM229 -279l105 107l102 -107 l-102 -106zM240 678l105 107l102 -107l-102 -106z" />
<glyph unicode="&#x6b9;" horiz-adv-x="1256" d="M103 -197q0 64 12.5 125t39.5 118q48 105 83 105q23 0 23 -21q0 3 -35 -76q-34 -77 -34 -162q0 -265 350 -265q81 0 154.5 12.5t144.5 36.5q187 67 187 192q0 57 -36 137t-110 183l76 144q28 -51 53.5 -86t52.5 -56.5t56.5 -31t65.5 -9.5h75q18 0 18 -35v-79 q0 -35 -18 -35h-23q-91 0 -161 21q15 -54 15 -137q0 -219 -201 -327q-162 -90 -414 -90q-72 0 -134 18t-114 56q-63 47 -94.5 111.5t-31.5 150.5zM459 448l105 107l102 -107l-102 -106zM470 -786l105 107l102 -107l-102 -106z" />
<glyph unicode="&#x6bc;" horiz-adv-x="413" d="M-41 35v79q0 35 36 35h23q284 0 284 69q0 73 -85 179l68 151q95 -135 95 -276q0 -156 -85 -216q-78 -56 -260 -56h-40q-36 0 -36 35zM26 -128q0 86 48 146q40 63 94 63q26 0 49.5 -12t41.5 -32.5t28.5 -49t10.5 -61.5q0 -34 -13.5 -64t-36 -52t-52 -35t-62.5 -13 q-108 0 -108 110zM63 777l105 107l102 -107l-102 -106zM76 -89q0 -61 78 -61q66 0 98 43q0 43 -36 72q-31 28 -67 28q-15 0 -29 -7t-25 -23q-19 -23 -19 -52z" />
<glyph unicode="&#x6bc;" horiz-adv-x="621" d="M-41 35v79q0 35 36 35h139q167 0 190 203q0 27 25 27q24 0 24 -27q23 -203 189 -203h64q17 0 17 -35v-79q0 -35 -17 -35h-24q-52 0 -91.5 5.5t-65.5 19.5q-60 26 -95 103q-35 -73 -123 -103q-36 -14 -88 -19.5t-121 -5.5h-23q-36 0 -36 35zM17 -120q0 86 48 146 q40 63 94 63q26 0 49.5 -12t41.5 -32.5t28.5 -49t10.5 -61.5q0 -34 -13.5 -64t-36 -52t-52 -35t-62.5 -13q-108 0 -108 110zM67 -81q0 -61 78 -61q66 0 98 43q0 43 -36 72q-31 28 -67 28q-15 0 -29 -7t-25 -23q-19 -23 -19 -52zM224 689l105 107l102 -107l-102 -106z" />
<glyph unicode="&#x6bc;" horiz-adv-x="1256" d="M103 -197q0 64 12.5 125t39.5 118q48 105 83 105q23 0 23 -21q0 3 -35 -76q-34 -77 -34 -162q0 -265 350 -265q81 0 154.5 12.5t144.5 36.5q187 67 187 192q0 57 -36 137t-110 183l76 144q28 -51 53.5 -86t52.5 -56.5t56.5 -31t65.5 -9.5h75q18 0 18 -35v-79 q0 -35 -18 -35h-23q-91 0 -161 21q15 -54 15 -137q0 -219 -201 -327q-162 -90 -414 -90q-72 0 -134 18t-114 56q-63 47 -94.5 111.5t-31.5 150.5zM427 -656q0 86 48 146q40 63 94 63q26 0 49.5 -12t41.5 -32.5t28.5 -49t10.5 -61.5q0 -34 -13.5 -64t-36 -52t-52 -35 t-62.5 -13q-108 0 -108 110zM477 -617q0 -61 78 -61q66 0 98 43q0 43 -36 72q-31 28 -67 28q-15 0 -29 -7t-25 -23q-19 -23 -19 -52zM478 432l105 107l102 -107l-102 -106z" />
<glyph unicode="&#x6bd;" horiz-adv-x="1256" d="M103 -197q0 64 12.5 125t39.5 118q48 105 83 105q23 0 23 -21q0 3 -35 -76q-34 -77 -34 -162q0 -265 350 -265q81 0 154.5 12.5t144.5 36.5q187 67 187 192q0 57 -36 137t-110 183l76 144q28 -51 53.5 -86t52.5 -56.5t56.5 -31t65.5 -9.5h75q18 0 18 -35v-79 q0 -35 -18 -35h-23q-91 0 -161 21q15 -54 15 -137q0 -219 -201 -327q-162 -90 -414 -90q-72 0 -134 18t-114 56q-63 47 -94.5 111.5t-31.5 150.5zM375 531l105 106l103 -106l-103 -106zM496 747l105 107l103 -107l-105 -106zM617 531l105 106l103 -106l-103 -106z" />
<glyph unicode="&#x6bf;" horiz-adv-x="1131" d="M-41 35v79q0 35 36 35h23q78 0 228 27q65 11 176 52.5t273 114.5v9q-307 128 -398 128q-65 0 -110 -44q-24 -20 -37 -31.5t-18 -11.5q-15 0 -15 19q0 60 59 134q63 84 144 84q43 0 138.5 -33t247.5 -99q81 -35 173.5 -54t199.5 -21l-69 -136h-67q-44 0 -80.5 -5.5 t-68.5 -14.5q-38 -14 -104.5 -45t-163.5 -80q-140 -72 -261 -107t-230 -35h-40q-36 0 -36 35zM319 -229l105 107l103 -107l-103 -105zM437 -444l104 106l103 -106l-103 -107zM442 874l105 107l102 -107l-102 -106zM561 -229l105 107l103 -107l-103 -105z" />
<glyph unicode="&#x6bf;" horiz-adv-x="1137" d="M-41 35v79q0 35 36 35h23q166 0 349 71q55 21 134.5 61t188.5 98v9q-174 47 -275 69.5t-130 22.5q-64 0 -109 -44q-24 -20 -38 -31.5t-17 -11.5q-15 0 -15 19q0 60 58 134q64 84 145 84q38 0 83 -8.5t97 -27.5q82 -28 132.5 -44.5t70.5 -21.5q71 -19 146.5 -27.5 t158.5 -8.5h90l-61 -143q-59 10 -150 -6l-1 -55q-8 -139 204 -139h63q17 0 17 -35v-79q0 -35 -17 -35h-24q-307 0 -307 215q0 72 9 111q-89 -36 -336 -186q-113 -71 -229.5 -105.5t-236.5 -34.5h-23q-36 0 -36 35zM328 -239l105 107l103 -107l-103 -105zM446 -454l104 106 l103 -106l-103 -107zM510 865l105 107l102 -107l-102 -106zM570 -239l105 107l103 -107l-103 -105z" />
<glyph unicode="&#x6bf;" horiz-adv-x="1154" d="M121 -179q3 385 503 572v9q-102 16 -181 23t-134 7q-63 0 -110 -44q-48 -45 -53 -45q-16 0 -16 18q0 63 58 137q65 83 146 83q42 0 108.5 -8t159.5 -25q191 -33 270 -36l194 -3l-61 -142l-161 -8q-1 -15 -2 -29t-1 -26q0 -92 59 -125q28 -16 77 -23t119 -7h63 q17 0 17 -35v-79q0 -35 -17 -35h-80q-85 0 -143 15.5t-93 44.5q-64 52 -64 178q0 24 2.5 52t6.5 60q-114 -28 -207.5 -67t-168.5 -91q-202 -137 -202 -322q0 -311 532 -311q54 0 115 6.5t130 18.5q64 12 95 17.5t29 7.5q6 0 6 -9q0 -38 -114 -101q-144 -84 -329 -84 q-556 0 -553 406zM342 -45l105 107l103 -107l-103 -105zM460 -260l104 106l103 -106l-103 -107zM481 846l105 107l102 -107l-102 -106zM584 -45l105 107l103 -107l-103 -105z" />
<glyph unicode="&#x6c4;" horiz-adv-x="727" d="M0 -475q0 11 28 18q196 54 335 189q80 75 124 158q33 64 33 99v16q-21 -2 -52.5 -3.5t-74.5 -1.5q-64 0 -109 9t-73 29t-40.5 52t-12.5 77q0 57 14 111t40 108q33 60 71 90.5t84 30.5q95 0 154 -110q55 -97 70 -248h142q16 0 16 -35v-79q0 -35 -16 -35h-144 q0 -142 -112 -328q-35 -57 -64.5 -95t-53.5 -56q-35 -26 -100 -26q-37 0 -77 2.5t-86 6.5q-96 9 -96 21zM113 -632q0 86 48 146q40 63 94 63q26 0 49.5 -12t41.5 -32.5t28.5 -49t10.5 -61.5q0 -34 -13.5 -64t-36 -52t-52 -35t-62.5 -13q-108 0 -108 110zM163 -593 q0 -61 78 -61q66 0 98 43q0 43 -36 72q-31 28 -67 28q-15 0 -29 -7t-25 -23q-19 -23 -19 -52zM237 244q0 -95 158 -95h106q-1 35 -13.5 69.5t-34.5 66.5q-48 73 -104 73q-23 0 -43.5 -8.5t-35.5 -24t-24 -36.5t-9 -45z" />
<glyph unicode="&#x6ca;" horiz-adv-x="727" d="M0 -507q0 11 28 18q196 54 335 189q80 75 124 158q33 64 33 99v16q-21 -2 -52.5 -3.5t-74.5 -1.5q-64 0 -109 9t-73 29t-40.5 52t-12.5 77q0 57 14 111t40 108q33 60 71 90.5t84 30.5q95 0 154 -110q55 -97 70 -248h142q16 0 16 -35v-79q0 -35 -16 -35h-144 q0 -142 -112 -328q-35 -57 -64.5 -95t-53.5 -56q-35 -26 -100 -26q-37 0 -77 2.5t-86 6.5q-96 9 -96 21zM140 739l101 100l102 -100l-100 -104zM237 212q0 -95 158 -95h106q-1 35 -13.5 69.5t-34.5 66.5q-48 73 -104 73q-23 0 -43.5 -8.5t-35.5 -24t-24 -36.5t-9 -45z M382 739l101 100l103 -100l-101 -104z" />
<glyph unicode="&#x6cd;" horiz-adv-x="1323" d="M-41 -50l14 58l247 73q10 6 18 6q23 0 23 -20q0 3 -35 -76q-34 -78 -34 -162q0 -155 117 -218q100 -59 319 -59q102 0 188 11.5t160 34.5q138 41 135 89q0 21 -105 35q-73 11 -121.5 21.5t-71.5 18.5q-105 31 -105 96q0 83 82 168q80 84 174 102q48 11 139.5 16t225.5 5 h24q17 0 17 -35v-79q0 -35 -17 -35h-125q-430 0 -430 -82q0 -31 186 -56q69 -8 113 -18t62 -23q15 -10 23.5 -30.5t6.5 -51.5q-9 -335 -663 -335q-181 0 -293 76q-130 87 -130 259q0 64 12.5 125.5t39.5 119.5l18 37l-2 -1z" />
<glyph unicode="&#x6ce;" horiz-adv-x="449" d="M-41 35v79q0 35 36 35h23q284 0 284 69q0 73 -85 179l68 151q95 -135 95 -276q0 -156 -85 -216q-78 -56 -260 -56h-40q-36 0 -36 35zM-14 -292l101 100l102 -100l-100 -104zM22 932l94 -7q9 -11 18.5 -25t19.5 -35.5t20 -53t21 -77.5q3 18 8.5 42.5t13.5 51t19 53.5 t26 49l92 9q-12 -12 -28 -29t-35 -49t-40.5 -83.5t-43.5 -130.5l-25 -3q-9 43 -25.5 85.5t-37.5 80.5t-45.5 69.5t-51.5 52.5zM228 -292l101 100l103 -100l-101 -104z" />
<glyph unicode="&#x6ce;" horiz-adv-x="621" d="M-41 35v79q0 35 36 35h139q167 0 190 203q0 27 25 27q24 0 24 -27q23 -203 189 -203h64q17 0 17 -35v-79q0 -35 -17 -35h-24q-52 0 -91.5 5.5t-65.5 19.5q-60 26 -95 103q-35 -73 -123 -103q-36 -14 -88 -19.5t-121 -5.5h-23q-36 0 -36 35zM98 -277l101 100l102 -100 l-100 -104zM182 849l94 -7q9 -11 18.5 -25t19.5 -35.5t20 -53t21 -77.5q3 18 8.5 42.5t13.5 51t19 53.5t26 49l92 9q-12 -12 -28 -29t-35 -49t-40.5 -83.5t-43.5 -130.5l-25 -3q-9 43 -25.5 85.5t-37.5 80.5t-45.5 69.5t-51.5 52.5zM340 -277l101 100l103 -100l-101 -104z " />
<glyph unicode="&#x6ce;" horiz-adv-x="1348" d="M103 -261q0 64 12.5 125.5t39.5 119.5q48 103 83 103q23 0 23 -20q0 3 -35 -76q-34 -78 -34 -162q0 -155 117 -218q100 -59 319 -59q102 0 188 11.5t160 34.5q138 41 135 89q0 21 -105 35q-73 11 -121.5 21.5t-71.5 18.5q-105 31 -105 96q0 83 82 168q80 84 174 102 q48 11 139.5 16t225.5 5h24q17 0 17 -35v-79q0 -35 -17 -35h-125q-430 0 -430 -82q0 -31 186 -56q69 -8 113 -18t62 -23q15 -10 23.5 -30.5t6.5 -51.5q-9 -335 -663 -335q-181 0 -293 76q-130 87 -130 259zM346 573l94 -7q9 -11 18.5 -25t19.5 -35.5t20 -53t21 -77.5 q3 18 8.5 42.5t13.5 51t19 53.5t26 49l92 9q-12 -12 -28 -29t-35 -49t-40.5 -83.5t-43.5 -130.5l-25 -3q-9 43 -25.5 85.5t-37.5 80.5t-45.5 69.5t-51.5 52.5z" />
<glyph unicode="&#x6cf;" horiz-adv-x="727" d="M0 -475q0 11 28 18q196 54 335 189q80 75 124 158q33 64 33 99v16q-21 -2 -52.5 -3.5t-74.5 -1.5q-64 0 -109 9t-73 29t-40.5 52t-12.5 77q0 57 14 111t40 108q33 60 71 90.5t84 30.5q95 0 154 -110q55 -97 70 -248h142q16 0 16 -35v-79q0 -35 -16 -35h-144 q0 -142 -112 -328q-35 -57 -64.5 -95t-53.5 -56q-35 -26 -100 -26q-37 0 -77 2.5t-86 6.5q-96 9 -96 21zM237 244q0 -95 158 -95h106q-1 35 -13.5 69.5t-34.5 66.5q-48 73 -104 73q-23 0 -43.5 -8.5t-35.5 -24t-24 -36.5t-9 -45zM252 768l105 107l102 -107l-102 -106z" />
<glyph unicode="&#x6d1;" horiz-adv-x="1348" d="M103 -261q0 64 12.5 125.5t39.5 119.5q48 103 83 103q23 0 23 -20q0 3 -35 -76q-34 -78 -34 -162q0 -155 117 -218q100 -59 319 -59q102 0 188 11.5t160 34.5q138 41 135 89q0 21 -105 35q-73 11 -121.5 21.5t-71.5 18.5q-105 31 -105 96q0 83 82 168q80 84 174 102 q48 11 139.5 16t225.5 5h24q17 0 17 -35v-79q0 -35 -17 -35h-125q-430 0 -430 -82q0 -31 186 -56q69 -8 113 -18t62 -23q15 -10 23.5 -30.5t6.5 -51.5q-9 -335 -663 -335q-181 0 -293 76q-130 87 -130 259zM341 -807l105 107l103 -107l-103 -105zM459 -1022l104 106 l103 -106l-103 -107zM583 -807l105 107l103 -107l-103 -105z" />
<glyph unicode="&#x6fa;" horiz-adv-x="1174" d="M-41 35v79q0 35 36 35h50q227 0 227 179q0 26 25 26q23 0 23 -26q0 -179 164 -179q163 0 163 179q0 26 24 26t24 -26q0 -69 28 -116q35 -63 112 -63q38 0 70 5.5t59 16.5q48 24 48 47q0 83 -86 179l70 151q94 -138 94 -276q0 -123 -59 -194q-66 -78 -190 -78 q-114 0 -172 119q-70 -119 -205 -119q-47 0 -87.5 29.5t-78.5 89.5q-89 -119 -280 -119h-23q-36 0 -36 35zM396 694l105 106l103 -106l-103 -106zM517 910l105 107l103 -107l-105 -106zM525 -322l105 107l102 -107l-102 -106zM638 694l105 106l103 -106l-103 -106z" />
<glyph unicode="&#x6fa;" horiz-adv-x="1238" d="M-41 35v79q0 35 36 35h50q227 0 227 179q0 26 25 26q23 0 23 -26q0 -179 164 -179q163 0 163 179q0 26 24 26t24 -26q0 -69 28 -116q35 -63 112 -63q159 0 159 179q0 26 23 26q25 0 25 -26q0 -179 178 -179h23q16 0 16 -35v-79q0 -35 -16 -35h-25q-136 0 -204 114 q-38 -58 -81.5 -86t-91.5 -28q-114 0 -172 119q-70 -119 -205 -119q-47 0 -87.5 29.5t-78.5 89.5q-89 -119 -282 -119h-21q-36 0 -36 35zM420 661l105 106l103 -106l-103 -106zM541 877l105 107l103 -107l-105 -106zM548 -314l105 107l102 -107l-102 -106zM662 661l105 106 l103 -106l-103 -106z" />
<glyph unicode="&#x6fa;" horiz-adv-x="1924" d="M103 -197q0 64 12.5 125t39.5 118q48 105 83 105q23 0 23 -21q0 3 -35 -76q-34 -77 -34 -162q0 -265 350 -265q73 0 145 14t144 40q183 70 183 187q0 69 -28 132q-31 69 -120 188l77 144q28 -51 53.5 -86t52 -56.5t56 -31t65.5 -9.5q162 0 162 179q0 26 25 26 q24 0 24 -26q0 -69 28 -116q35 -63 112 -63q158 0 158 179q0 26 25 26q23 0 23 -26q0 -179 178 -179h24q17 0 17 -35v-79q0 -35 -17 -35h-24q-137 0 -205 114q-71 -114 -174 -114q-113 0 -171 119q-68 -119 -205 -119q-47 0 -76 13q3 -33 3 -102q0 -252 -229 -366 q-155 -78 -371 -78q-72 0 -134 18t-114 56q-63 47 -94.5 111.5t-31.5 150.5zM1098 631l105 106l103 -106l-103 -106zM1219 847l105 107l103 -107l-105 -106zM1222 -321l105 107l102 -107l-102 -106zM1340 631l105 106l103 -106l-103 -106z" />
<glyph unicode="&#x6fb;" horiz-adv-x="1336" d="M-41 35v79q0 35 36 35h50q227 0 227 179q0 26 25 26q26 0 23 -26q-3 -73 34 -120q17 -22 38 -34.5t48 -16.5q118 116 204 191.5t140 111.5q132 90 262 90q45 0 83 -14.5t65.5 -41.5t42.5 -64.5t15 -82.5q0 -181 -199 -272q-165 -75 -418 -75q-86 0 -145 5.5t-91 17.5 q-65 24 -101 96q-89 -119 -280 -119h-23q-36 0 -36 35zM449 -318l105 107l102 -107l-102 -106zM449 755l105 107l102 -107l-102 -106zM546 160q0 -11 67 -11q550 0 550 136q0 49 -58 88q-59 41 -134 41q-115 0 -302 -147q-123 -99 -123 -107z" />
<glyph unicode="&#x6fb;" horiz-adv-x="1346" d="M-41 35v79q0 35 36 35h50q227 0 227 179q0 26 25 26q26 0 23 -26q-3 -73 34 -120q17 -22 38 -34.5t48 -16.5q118 116 204 191.5t140 111.5q132 90 262 90q45 0 83 -14.5t65.5 -41.5t42.5 -64.5t15 -82.5q0 -86 -91 -205q35 7 82 7h108q17 0 17 -35v-79q0 -35 -17 -35h-24 q-123 0 -231 21q-44 8 -77 12t-57 4q-5 0 -33 -4t-83 -15q-54 -10 -106.5 -14t-104.5 -4q-86 0 -145 5.5t-91 17.5q-65 24 -101 96q-89 -119 -280 -119h-23q-36 0 -36 35zM447 -294l105 107l102 -107l-102 -106zM467 723l105 107l102 -107l-102 -106zM546 160q0 -11 67 -11 q550 0 550 136q0 49 -58 88q-59 41 -134 41q-115 0 -302 -147q-123 -99 -123 -107z" />
<glyph unicode="&#x6fb;" horiz-adv-x="1977" d="M103 -197q0 64 12.5 125t39.5 118q48 105 83 105q23 0 23 -21q0 3 -35 -76q-34 -77 -34 -162q0 -265 350 -265q73 0 145 14t144 40q183 70 183 187q0 59 -36.5 138t-111.5 182l77 144q53 -85 147 -142q200 197 332 278q68 40 131.5 61t123.5 21q45 0 83.5 -14.5t66 -41.5 t43 -64.5t15.5 -82.5q0 -86 -92 -205q18 4 38.5 5.5t43.5 1.5h108q17 0 17 -35v-79q0 -35 -17 -35h-25q-122 0 -231 21q-43 8 -76.5 12t-57.5 4q-4 0 -32 -4t-83 -15q-54 -10 -106.5 -14t-103.5 -4q-57 0 -105.5 8.5t-88.5 25.5q3 -44 3 -123q0 -252 -229 -366 q-155 -78 -371 -78q-72 0 -134 18t-114 56q-63 47 -94.5 111.5t-31.5 150.5zM1178 160q0 -11 67 -11q550 0 550 136q0 49 -56 88q-59 41 -136 41q-115 0 -302 -147q-123 -98 -123 -107zM1205 751l105 107l102 -107l-102 -106zM1218 -344l105 107l102 -107l-102 -106z" />
<glyph unicode="&#x6fc;" horiz-adv-x="827" d="M-41 35v79q0 35 36 35h23q29 0 81 4.5t128 12.5v10q-108 63 -108 180q0 106 99 216q105 120 239 120q72 0 143 -62q72 -57 72 -121q0 -4 -5 -4l-75 21q-73 22 -141 22q-75 0 -143 -34q-84 -37 -84 -96q0 -62 89 -133q83 -67 144 -67q88 0 318 79l-52 -139 q-464 -158 -705 -158h-23q-36 0 -36 35zM288 952l105 107l102 -107l-102 -106zM292 -280l105 107l102 -107l-102 -106z" />
<glyph unicode="&#x6fc;" horiz-adv-x="720" d="M-41 35v79q0 35 36 35h23q90 0 192 24q103 25 103 49q0 40 -117 123q-6 4 -15 8t-23 8q0 71 50 116q61 53 171 53q213 -3 213 -133q0 -36 -59 -104q-60 -68 -60 -75q0 -21 82 -47q38 -11 65 -16.5t42 -5.5h63q17 0 17 -35v-79q0 -35 -17 -35h-24q-186 0 -313 123 q-137 -123 -370 -123h-23q-36 0 -36 35zM266 -274l105 107l102 -107l-102 -106zM267 787l105 107l102 -107l-102 -106z" />
<glyph unicode="&#x6fc;" horiz-adv-x="1085" d="M103 -179q0 136 89 255q32 41 73.5 80t93.5 77q91 61 91 60q0 29 -118 111q-8 5 -16.5 9t-20.5 8q-3 62 43 105q57 55 176 55q245 0 245 -130q0 -69 -138 -172q152 -130 423 -130h46q17 0 17 -35v-79q0 -35 -17 -35h-24q-206 0 -335 64q-48 23 -100 65t-110 102 q-329 -155 -329 -361q0 -165 151 -247q122 -64 324 -64q69 0 133 5.5t125 17.5q110 24 110 25q7 0 7 -6q0 -39 -114 -106q-141 -80 -328 -80q-227 0 -352 91q-145 103 -145 315zM429 851l105 107l102 -107l-102 -106zM435 -143l105 107l102 -107l-102 -106z" />
<glyph unicode="&#x671;" horiz-adv-x="487" arabic-form="final" d="M33 1344q0 18 7 36.5t18 33.5t24.5 24t27.5 8l29 -2q106 133 170 133q69 0 69 -69q0 -56 -39 -102q-23 -26 -50.5 -40t-61.5 -14q-11 0 -26 2.5t-35 5.5q-38 9 -54 9q-20 0 -40 -15t-25 -34q-14 7 -14 24zM140 1142l108 103q13 -137 18.5 -378.5t7.5 -587.5 q0 -65 65 -102q47 -28 95 -28h60q15 0 15 -35v-79q0 -35 -15 -35h-34q-121 0 -197 62q-40 32 -59 77t-21 105q-3 248 -14 471t-29 427zM173 1439q31 -13 71 -13t66 14t26 31q0 6 -5 13.5t-13 14t-17.5 10.5t-18.5 4q-13 0 -28 -6.5t-30 -17t-28.5 -24t-22.5 -26.5z" />
<glyph unicode="&#x67b;" horiz-adv-x="1499" arabic-form="final" d="M112 268q0 41 8.5 81t26.5 78q31 71 54 71q26 0 26 -25q0 -2 -4 -12.5t-15 -33.5q-18 -42 -18 -86q0 -205 416 -205q134 0 246.5 15.5t204.5 45.5q136 48 188 114q68 89 91 89q24 0 24 -25q0 -5 -2.5 -18.5t-7.5 -34.5q-12 -41 -12 -64q0 -109 142 -109h24q17 0 17 -35 v-79q0 -35 -17 -35h-32q-182 0 -213 181q-203 -194 -692 -194q-455 0 -455 281zM516 -289l101 100l102 -100l-100 -105zM517 -515l101 100l103 -100l-101 -104z" />
<glyph unicode="&#x67b;" horiz-adv-x="376" arabic-form="initial" d="M-41 35v79q0 35 36 35h23q284 0 284 69q0 73 -85 179l68 151q95 -135 95 -276q0 -156 -85 -216q-78 -56 -260 -56h-40q-36 0 -36 35zM115 -200l101 100l102 -100l-100 -105zM116 -426l101 100l103 -100l-101 -104z" />
<glyph unicode="&#x67b;" horiz-adv-x="565" arabic-form="medial" d="M-41 35v79q0 35 36 35h139q167 0 190 203q0 27 25 27q24 0 24 -27q23 -203 189 -203h64q17 0 17 -35v-79q0 -35 -17 -35h-24q-52 0 -91.5 5.5t-65.5 19.5q-60 26 -95 103q-35 -73 -123 -103q-36 -14 -88 -19.5t-121 -5.5h-23q-36 0 -36 35zM189 -209l101 100l102 -100 l-100 -105zM190 -435l101 100l103 -100l-101 -104z" />
<glyph unicode="&#x67e;" horiz-adv-x="1499" arabic-form="final" d="M112 268q0 41 8.5 81t26.5 78q31 71 54 71q26 0 26 -25q0 -2 -4 -12.5t-15 -33.5q-18 -42 -18 -86q0 -205 416 -205q134 0 246.5 15.5t204.5 45.5q136 48 188 114q68 89 91 89q24 0 24 -25q0 -5 -2.5 -18.5t-7.5 -34.5q-12 -41 -12 -64q0 -109 142 -109h24q17 0 17 -35 v-79q0 -35 -17 -35h-32q-182 0 -213 181q-203 -194 -692 -194q-455 0 -455 281zM476 -307l105 107l103 -107l-103 -105zM594 -522l104 106l103 -106l-103 -107zM718 -307l105 107l103 -107l-103 -105z" />
<glyph unicode="&#x67e;" horiz-adv-x="449" arabic-form="initial" d="M-41 35v79q0 35 36 35h23q284 0 284 69q0 73 -85 179l68 151q95 -135 95 -276q0 -156 -85 -216q-78 -56 -260 -56h-40q-36 0 -36 35zM-13 -266l105 107l103 -107l-103 -105zM105 -481l104 106l103 -106l-103 -107zM229 -266l105 107l103 -107l-103 -105z" />
<glyph unicode="&#x67e;" horiz-adv-x="621" arabic-form="medial" d="M-41 35v79q0 35 36 35h139q167 0 190 203q0 27 25 27q24 0 24 -27q23 -203 189 -203h64q17 0 17 -35v-79q0 -35 -17 -35h-24q-52 0 -91.5 5.5t-65.5 19.5q-60 26 -95 103q-35 -73 -123 -103q-36 -14 -88 -19.5t-121 -5.5h-23q-36 0 -36 35zM81 -280l105 107l103 -107 l-103 -105zM199 -495l104 106l103 -106l-103 -107zM323 -280l105 107l103 -107l-103 -105z" />
<glyph unicode="&#x680;" horiz-adv-x="1499" arabic-form="final" d="M112 268q0 41 8.5 81t26.5 78q31 71 54 71q26 0 26 -25q0 -2 -4 -12.5t-15 -33.5q-18 -42 -18 -86q0 -205 416 -205q134 0 246.5 15.5t204.5 45.5q136 48 188 114q68 89 91 89q24 0 24 -25q0 -5 -2.5 -18.5t-7.5 -34.5q-12 -41 -12 -64q0 -109 142 -109h24q17 0 17 -35 v-79q0 -35 -17 -35h-32q-182 0 -213 181q-203 -194 -692 -194q-455 0 -455 281zM429 -437l104 106l103 -106l-103 -106zM549 -262l105 106l102 -106l-104 -107zM553 -613l105 107l103 -107l-105 -106zM671 -437l104 106l103 -106l-103 -106z" />
<glyph unicode="&#x680;" horiz-adv-x="449" arabic-form="initial" d="M-41 35v79q0 35 36 35h23q284 0 284 69q0 73 -85 179l68 151q95 -135 95 -276q0 -156 -85 -216q-78 -56 -260 -56h-40q-36 0 -36 35zM-2 -377l98 99l96 -99l-96 -99zM111 -213l98 99l96 -99l-98 -100zM114 -542l99 101l97 -101l-99 -99zM225 -377l98 99l96 -99l-96 -99z " />
<glyph unicode="&#x680;" horiz-adv-x="621" arabic-form="medial" d="M-41 35v79q0 35 36 35h139q167 0 190 203q0 27 25 27q24 0 24 -27q23 -203 189 -203h64q17 0 17 -35v-79q0 -35 -17 -35h-24q-52 0 -91.5 5.5t-65.5 19.5q-60 26 -95 103q-35 -73 -123 -103q-36 -14 -88 -19.5t-121 -5.5h-23q-36 0 -36 35zM91 -365l99 100l97 -100 l-97 -100zM205 -199l99 100l97 -100l-98 -102zM209 -532l99 102l98 -102l-100 -100zM321 -365l98 100l98 -100l-98 -100z" />
<glyph unicode="&#x67a;" horiz-adv-x="1499" arabic-form="final" d="M112 268q0 41 8.5 81t26.5 78q31 71 54 71q26 0 26 -25q0 -2 -4 -12.5t-15 -33.5q-18 -42 -18 -86q0 -205 416 -205q134 0 246.5 15.5t204.5 45.5q136 48 188 114q68 89 91 89q24 0 24 -25q0 -5 -2.5 -18.5t-7.5 -34.5q-12 -41 -12 -64q0 -109 142 -109h24q17 0 17 -35 v-79q0 -35 -17 -35h-32q-182 0 -213 181q-203 -194 -692 -194q-455 0 -455 281zM632 910l101 100l102 -100l-100 -105zM633 684l101 100l103 -100l-101 -104z" />
<glyph unicode="&#x67a;" horiz-adv-x="413" arabic-form="initial" d="M-41 35v79q0 35 36 35h23q284 0 284 69q0 73 -85 179l68 151q95 -135 95 -276q0 -156 -85 -216q-78 -56 -260 -56h-40q-36 0 -36 35zM52 914l101 100l102 -100l-100 -105zM53 688l101 100l103 -100l-101 -104z" />
<glyph unicode="&#x67a;" horiz-adv-x="621" arabic-form="medial" d="M-41 35v79q0 35 36 35h139q167 0 190 203q0 27 25 27q24 0 24 -27q23 -203 189 -203h64q17 0 17 -35v-79q0 -35 -17 -35h-24q-52 0 -91.5 5.5t-65.5 19.5q-60 26 -95 103q-35 -73 -123 -103q-36 -14 -88 -19.5t-121 -5.5h-23q-36 0 -36 35zM223 900l101 100l102 -100 l-100 -105zM224 674l101 100l103 -100l-101 -104z" />
<glyph unicode="&#x67f;" horiz-adv-x="1499" arabic-form="final" d="M112 268q0 41 8.5 81t26.5 78q31 71 54 71q26 0 26 -25q0 -2 -4 -12.5t-15 -33.5q-18 -42 -18 -86q0 -205 416 -205q134 0 246.5 15.5t204.5 45.5q136 48 188 114q68 89 91 89q24 0 24 -25q0 -5 -2.5 -18.5t-7.5 -34.5q-12 -41 -12 -64q0 -109 142 -109h24q17 0 17 -35 v-79q0 -35 -17 -35h-32q-182 0 -213 181q-203 -194 -692 -194q-455 0 -455 281zM502 853l104 106l103 -106l-103 -106zM622 1028l105 106l102 -106l-104 -107zM626 677l105 107l103 -107l-105 -106zM744 853l104 106l103 -106l-103 -106z" />
<glyph unicode="&#x67f;" horiz-adv-x="449" arabic-form="initial" d="M-48 874l104 106l103 -106l-103 -106zM-41 35v79q0 35 36 35h23q284 0 284 69q0 73 -85 179l68 151q95 -135 95 -276q0 -156 -85 -216q-78 -56 -260 -56h-40q-36 0 -36 35zM72 1049l105 106l102 -106l-104 -107zM76 698l105 107l103 -107l-105 -106zM194 874l104 106 l103 -106l-103 -106z" />
<glyph unicode="&#x67f;" horiz-adv-x="621" arabic-form="medial" d="M-41 35v79q0 35 36 35h139q167 0 190 203q0 27 25 27q24 0 24 -27q23 -203 189 -203h64q17 0 17 -35v-79q0 -35 -17 -35h-24q-52 0 -91.5 5.5t-65.5 19.5q-60 26 -95 103q-35 -73 -123 -103q-36 -14 -88 -19.5t-121 -5.5h-23q-36 0 -36 35zM119 796l104 106l103 -106 l-103 -106zM239 971l105 106l102 -106l-104 -107zM243 620l105 107l103 -107l-105 -106zM361 796l104 106l103 -106l-103 -106z" />
<glyph unicode="&#x679;" horiz-adv-x="1499" arabic-form="final" d="M112 268q0 41 8.5 81t26.5 78q31 71 54 71q26 0 26 -25q0 -2 -4 -12.5t-15 -33.5q-18 -42 -18 -86q0 -205 416 -205q134 0 246.5 15.5t204.5 45.5q136 48 188 114q68 89 91 89q24 0 24 -25q0 -5 -2.5 -18.5t-7.5 -34.5q-12 -41 -12 -64q0 -109 142 -109h24q17 0 17 -35 v-79q0 -35 -17 -35h-32q-182 0 -213 181q-203 -194 -692 -194q-455 0 -455 281zM517 707q0 5 4 5q3 0 14 -8q21 -15 72 -15q30 0 46 10q0 12 0.5 30.5t0.5 45.5q0 53 -9 163q-8 104 -9 104q2 6 8 12l33 32l22 -63q6 -18 6 -21q0 -6 -23 3q0 -3 0.5 -21.5t1.5 -53.5 q2 -29 2 -48.5v-28.5q0 -43 -2.5 -76.5t-8.5 -57.5l1 -2q67 66 113 91q43 26 92 26q33 0 54 -20t21 -53q0 -68 -93 -101q-77 -29 -216 -29q-65 0 -102 28q-30 22 -28 48zM681 693q0 -8 22 -8q220 0 220 53q0 18 -20 32q-22 16 -49 16q-17 0 -36 -6.5t-41 -17.5 q-17 -8 -33.5 -19t-33.5 -25q-29 -20 -29 -25z" />
<glyph unicode="&#x679;" horiz-adv-x="409" arabic-form="initial" d="M-41 35v79q0 35 36 35h23q284 0 284 69q0 73 -85 179l68 151q95 -135 95 -276q0 -156 -85 -216q-78 -56 -260 -56h-40q-36 0 -36 35zM-20 706q0 5 4 5q3 0 14 -8q21 -15 72 -15q30 0 46 10q0 12 0.5 30.5t0.5 45.5q0 53 -9 163q-8 104 -9 104q2 6 8 12l33 32l22 -63 q6 -18 6 -21q0 -6 -23 3q0 -3 0.5 -21.5t1.5 -53.5q2 -29 2 -48.5v-28.5q0 -43 -2.5 -76.5t-8.5 -57.5l1 -2q67 66 113 91q43 26 92 26q33 0 54 -20t21 -53q0 -68 -93 -101q-77 -29 -216 -29q-65 0 -102 28q-30 22 -28 48zM144 692q0 -8 22 -8q220 0 220 53q0 18 -20 32 q-22 16 -49 16q-17 0 -36 -6.5t-41 -17.5q-17 -8 -33.5 -19t-33.5 -25q-29 -20 -29 -25z" />
<glyph unicode="&#x679;" horiz-adv-x="565" arabic-form="medial" d="M-41 35v79q0 35 36 35h139q167 0 190 203q0 27 25 27q24 0 24 -27q23 -203 189 -203h64q17 0 17 -35v-79q0 -35 -17 -35h-24q-52 0 -91.5 5.5t-65.5 19.5q-60 26 -95 103q-35 -73 -123 -103q-36 -14 -88 -19.5t-121 -5.5h-23q-36 0 -36 35zM93 620q0 5 4 5q3 0 14 -8 q21 -15 72 -15q30 0 46 10q0 12 0.5 30.5t0.5 45.5q0 53 -9 163q-8 104 -9 104q2 6 8 12l33 32l22 -63q6 -18 6 -21q0 -6 -23 3q0 -3 0.5 -21.5t1.5 -53.5q2 -29 2 -48.5v-28.5q0 -43 -2.5 -76.5t-8.5 -57.5l1 -2q67 66 113 91q43 26 92 26q33 0 54 -20t21 -53 q0 -68 -93 -101q-77 -29 -216 -29q-65 0 -102 28q-30 22 -28 48zM257 606q0 -8 22 -8q220 0 220 53q0 18 -20 32q-22 16 -49 16q-17 0 -36 -6.5t-41 -17.5q-17 -8 -33.5 -19t-33.5 -25q-29 -20 -29 -25z" />
<glyph unicode="&#x6a4;" horiz-adv-x="1512" arabic-form="final" d="M112 268q0 41 8.5 81t26.5 78q31 71 54 71q26 0 26 -25q0 -2 -4 -12.5t-15 -33.5q-18 -42 -18 -86q0 -205 416 -205q284 0 434 40q-76 72 -76 142q0 63 18 120.5t56 109.5q75 103 164 103q84 0 134 -100q21 -40 32.5 -85.5t11.5 -94.5q0 -51 -19.5 -98.5t-57.5 -93.5 q20 -16 58 -23t92 -7h64q17 0 17 -35v-79q0 -35 -17 -35h-25q-91 0 -169 22t-147 67q-222 -102 -609 -102q-455 0 -455 281zM948 908l105 106l103 -106l-103 -106zM1026 349q0 -46 64 -91q58 -46 98 -46q9 0 27 10t43 27q58 43 58 87q0 55 -45 109q-42 56 -90 56 q-49 0 -104 -50q-51 -51 -51 -102zM1069 1124l105 107l103 -107l-105 -106zM1190 908l105 106l103 -106l-103 -106z" />
<glyph unicode="&#x6a4;" horiz-adv-x="589" arabic-form="initial" d="M-41 35v79q0 35 36 35h111q384 0 384 141q0 34 -11 53q-43 -26 -181 -26q-186 0 -186 143q0 53 11 104t34 103q58 138 154 138q121 0 185 -142q29 -63 43 -144.5t14 -184.5q0 -183 -123 -258q-123 -76 -412 -76h-23q-36 0 -36 35zM64 1011l105 106l103 -106l-103 -106z M185 1227l105 107l103 -107l-105 -106zM190 555q0 -89 134 -89q87 0 129 21q-7 56 -53 111q-46 58 -107 58q-21 0 -39.5 -8t-32.5 -22t-22.5 -32t-8.5 -39zM306 1011l105 106l103 -106l-103 -106z" />
<glyph unicode="&#x6a4;" horiz-adv-x="723" arabic-form="medial" d="M-41 35v79q0 35 36 35h23q182 0 233 24q-75 76 -75 145q0 63 17.5 120.5t55.5 109.5q76 103 165 103q82 0 134 -100q43 -81 43 -180q0 -100 -77 -192q23 -16 70.5 -23t119.5 -7h25q16 0 16 -35v-79q0 -35 -16 -35h-25q-90 0 -168.5 22t-147.5 65q-55 -26 -98.5 -43 t-79.5 -26q-38 -10 -86 -14t-106 -4h-23q-36 0 -36 35zM172 913l105 106l103 -106l-103 -106zM238 349q0 -46 64 -91q58 -46 97 -46q11 0 29 10t42 27q58 43 58 87q0 54 -46 109q-41 56 -89 56q-50 0 -105 -50q-24 -25 -37 -50.5t-13 -51.5zM293 1129l105 107l103 -107 l-105 -106zM414 913l105 106l103 -106l-103 -106z" />
<glyph unicode="&#x6a6;" horiz-adv-x="1512" arabic-form="final" d="M112 268q0 41 8.5 81t26.5 78q31 71 54 71q26 0 26 -25q0 -2 -4 -12.5t-15 -33.5q-18 -42 -18 -86q0 -205 416 -205q284 0 434 40q-76 72 -76 142q0 63 18 120.5t56 109.5q75 103 164 103q84 0 134 -100q21 -40 32.5 -85.5t11.5 -94.5q0 -51 -19.5 -98.5t-57.5 -93.5 q20 -16 58 -23t92 -7h64q17 0 17 -35v-79q0 -35 -17 -35h-25q-91 0 -169 22t-147 67q-222 -102 -609 -102q-455 0 -455 281zM948 1055l104 106l103 -106l-103 -106zM1026 349q0 -46 64 -91q58 -46 98 -46q9 0 27 10t43 27q58 43 58 87q0 55 -45 109q-42 56 -90 56 q-49 0 -104 -50q-51 -51 -51 -102zM1068 1230l105 106l102 -106l-104 -107zM1072 879l105 107l103 -107l-105 -106zM1190 1055l104 106l103 -106l-103 -106z" />
<glyph unicode="&#x6a6;" horiz-adv-x="589" arabic-form="initial" d="M-41 35v79q0 35 36 35h111q384 0 384 141q0 34 -11 53q-43 -26 -181 -26q-186 0 -186 143q0 53 11 104t34 103q58 138 154 138q121 0 185 -142q29 -63 43 -144.5t14 -184.5q0 -183 -123 -258q-123 -76 -412 -76h-23q-36 0 -36 35zM69 1156l104 106l103 -106l-103 -106z M189 1331l105 106l102 -106l-104 -107zM190 555q0 -89 134 -89q87 0 129 21q-7 56 -53 111q-46 58 -107 58q-21 0 -39.5 -8t-32.5 -22t-22.5 -32t-8.5 -39zM193 980l105 107l103 -107l-105 -106zM311 1156l104 106l103 -106l-103 -106z" />
<glyph unicode="&#x6a6;" horiz-adv-x="723" arabic-form="medial" d="M-41 35v79q0 35 36 35h23q182 0 233 24q-75 76 -75 145q0 63 17.5 120.5t55.5 109.5q76 103 165 103q82 0 134 -100q43 -81 43 -180q0 -100 -77 -192q23 -16 70.5 -23t119.5 -7h25q16 0 16 -35v-79q0 -35 -16 -35h-25q-90 0 -168.5 22t-147.5 65q-55 -26 -98.5 -43 t-79.5 -26q-38 -10 -86 -14t-106 -4h-23q-36 0 -36 35zM156 1021l104 106l103 -106l-103 -106zM238 349q0 -46 64 -91q58 -46 97 -46q11 0 29 10t42 27q58 43 58 87q0 54 -46 109q-41 56 -89 56q-50 0 -105 -50q-24 -25 -37 -50.5t-13 -51.5zM276 1196l105 106l102 -106 l-104 -107zM280 845l105 107l103 -107l-105 -106zM398 1021l104 106l103 -106l-103 -106z" />
<glyph unicode="&#x684;" horiz-adv-x="1154" arabic-form="final" d="M121 -179q3 385 503 572v9q-102 16 -181 23t-134 7q-63 0 -110 -44q-48 -45 -53 -45q-16 0 -16 18q0 63 58 137q65 83 146 83q42 0 108.5 -8t159.5 -25q191 -33 270 -36l194 -3l-61 -142l-161 -8q-1 -15 -2 -29t-1 -26q0 -92 59 -125q28 -16 77 -23t119 -7h63 q17 0 17 -35v-79q0 -35 -17 -35h-80q-85 0 -143 15.5t-93 44.5q-64 52 -64 178q0 24 2.5 52t6.5 60q-114 -28 -207.5 -67t-168.5 -91q-202 -137 -202 -322q0 -311 532 -311q54 0 115 6.5t130 18.5q64 12 95 17.5t29 7.5q6 0 6 -9q0 -38 -114 -101q-144 -84 -329 -84 q-556 0 -553 406zM501 -25l101 100l102 -100l-100 -105zM502 -251l101 100l103 -100l-101 -104z" />
<glyph unicode="&#x684;" horiz-adv-x="1131" arabic-form="initial" d="M-41 35v79q0 35 36 35h23q78 0 228 27q65 11 176 52.5t273 114.5v9q-307 128 -398 128q-65 0 -110 -44q-24 -20 -37 -31.5t-18 -11.5q-15 0 -15 19q0 60 59 134q63 84 144 84q43 0 138.5 -33t247.5 -99q81 -35 173.5 -54t199.5 -21l-69 -136h-67q-44 0 -80.5 -5.5 t-68.5 -14.5q-38 -14 -104.5 -45t-163.5 -80q-140 -72 -261 -107t-230 -35h-40q-36 0 -36 35zM514 -172l101 100l102 -100l-100 -105zM515 -398l101 100l103 -100l-101 -104z" />
<glyph unicode="&#x684;" horiz-adv-x="1137" arabic-form="medial" d="M-41 35v79q0 35 36 35h23q166 0 349 71q55 21 134.5 61t188.5 98v9q-174 47 -275 69.5t-130 22.5q-64 0 -109 -44q-24 -20 -38 -31.5t-17 -11.5q-15 0 -15 19q0 60 58 134q64 84 145 84q38 0 83 -8.5t97 -27.5q82 -28 132.5 -44.5t70.5 -21.5q71 -19 146.5 -27.5 t158.5 -8.5h90l-61 -143q-59 10 -150 -6l-1 -55q-8 -139 204 -139h63q17 0 17 -35v-79q0 -35 -17 -35h-24q-307 0 -307 215q0 72 9 111q-89 -36 -336 -186q-113 -71 -229.5 -105.5t-236.5 -34.5h-23q-36 0 -36 35zM471 -213l101 100l102 -100l-100 -105zM472 -439l101 100 l103 -100l-101 -104z" />
<glyph unicode="&#x683;" horiz-adv-x="1154" arabic-form="final" d="M121 -179q3 385 503 572v9q-102 16 -181 23t-134 7q-63 0 -110 -44q-48 -45 -53 -45q-16 0 -16 18q0 63 58 137q65 83 146 83q42 0 108.5 -8t159.5 -25q191 -33 270 -36l194 -3l-61 -142l-161 -8q-1 -15 -2 -29t-1 -26q0 -92 59 -125q28 -16 77 -23t119 -7h63 q17 0 17 -35v-79q0 -35 -17 -35h-80q-85 0 -143 15.5t-93 44.5q-64 52 -64 178q0 24 2.5 52t6.5 60q-114 -28 -207.5 -67t-168.5 -91q-202 -137 -202 -322q0 -311 532 -311q54 0 115 6.5t130 18.5q64 12 95 17.5t29 7.5q6 0 6 -9q0 -38 -114 -101q-144 -84 -329 -84 q-556 0 -553 406zM404 -133l101 100l102 -100l-100 -104zM646 -133l101 100l103 -100l-101 -104z" />
<glyph unicode="&#x683;" horiz-adv-x="1131" arabic-form="initial" d="M-41 35v79q0 35 36 35h23q78 0 228 27q65 11 176 52.5t273 114.5v9q-307 128 -398 128q-65 0 -110 -44q-24 -20 -37 -31.5t-18 -11.5q-15 0 -15 19q0 60 59 134q63 84 144 84q43 0 138.5 -33t247.5 -99q81 -35 173.5 -54t199.5 -21l-69 -136h-67q-44 0 -80.5 -5.5 t-68.5 -14.5q-38 -14 -104.5 -45t-163.5 -80q-140 -72 -261 -107t-230 -35h-40q-36 0 -36 35zM234 -280l101 100l102 -100l-100 -104zM476 -280l101 100l103 -100l-101 -104z" />
<glyph unicode="&#x683;" horiz-adv-x="1137" arabic-form="medial" d="M-41 35v79q0 35 36 35h23q166 0 349 71q55 21 134.5 61t188.5 98v9q-174 47 -275 69.5t-130 22.5q-64 0 -109 -44q-24 -20 -38 -31.5t-17 -11.5q-15 0 -15 19q0 60 58 134q64 84 145 84q38 0 83 -8.5t97 -27.5q82 -28 132.5 -44.5t70.5 -21.5q71 -19 146.5 -27.5 t158.5 -8.5h90l-61 -143q-59 10 -150 -6l-1 -55q-8 -139 204 -139h63q17 0 17 -35v-79q0 -35 -17 -35h-24q-307 0 -307 215q0 72 9 111q-89 -36 -336 -186q-113 -71 -229.5 -105.5t-236.5 -34.5h-23q-36 0 -36 35zM304 -264l101 100l102 -100l-100 -104zM546 -264l101 100 l103 -100l-101 -104z" />
<glyph unicode="&#x686;" horiz-adv-x="1154" arabic-form="final" d="M121 -179q3 385 503 572v9q-102 16 -181 23t-134 7q-63 0 -110 -44q-48 -45 -53 -45q-16 0 -16 18q0 63 58 137q65 83 146 83q42 0 108.5 -8t159.5 -25q191 -33 270 -36l194 -3l-61 -142l-161 -8q-1 -15 -2 -29t-1 -26q0 -92 59 -125q28 -16 77 -23t119 -7h63 q17 0 17 -35v-79q0 -35 -17 -35h-80q-85 0 -143 15.5t-93 44.5q-64 52 -64 178q0 24 2.5 52t6.5 60q-114 -28 -207.5 -67t-168.5 -91q-202 -137 -202 -322q0 -311 532 -311q54 0 115 6.5t130 18.5q64 12 95 17.5t29 7.5q6 0 6 -9q0 -38 -114 -101q-144 -84 -329 -84 q-556 0 -553 406zM365 -46l105 107l103 -107l-103 -105zM483 -261l104 106l103 -106l-103 -107zM607 -46l105 107l103 -107l-103 -105z" />
<glyph unicode="&#x686;" horiz-adv-x="1131" arabic-form="initial" d="M-41 35v79q0 35 36 35h23q78 0 228 27q65 11 176 52.5t273 114.5v9q-307 128 -398 128q-65 0 -110 -44q-24 -20 -37 -31.5t-18 -11.5q-15 0 -15 19q0 60 59 134q63 84 144 84q43 0 138.5 -33t247.5 -99q81 -35 173.5 -54t199.5 -21l-69 -136h-67q-44 0 -80.5 -5.5 t-68.5 -14.5q-38 -14 -104.5 -45t-163.5 -80q-140 -72 -261 -107t-230 -35h-40q-36 0 -36 35zM353 -210l105 107l103 -107l-103 -105zM471 -425l104 106l103 -106l-103 -107zM595 -210l105 107l103 -107l-103 -105z" />
<glyph unicode="&#x686;" horiz-adv-x="1137" arabic-form="medial" d="M-41 35v79q0 35 36 35h23q166 0 349 71q55 21 134.5 61t188.5 98v9q-174 47 -275 69.5t-130 22.5q-64 0 -109 -44q-24 -20 -38 -31.5t-17 -11.5q-15 0 -15 19q0 60 58 134q64 84 145 84q38 0 83 -8.5t97 -27.5q82 -28 132.5 -44.5t70.5 -21.5q71 -19 146.5 -27.5 t158.5 -8.5h90l-61 -143q-59 10 -150 -6l-1 -55q-8 -139 204 -139h63q17 0 17 -35v-79q0 -35 -17 -35h-24q-307 0 -307 215q0 72 9 111q-89 -36 -336 -186q-113 -71 -229.5 -105.5t-236.5 -34.5h-23q-36 0 -36 35zM307 -224l105 107l103 -107l-103 -105zM425 -439l104 106 l103 -106l-103 -107zM549 -224l105 107l103 -107l-103 -105z" />
<glyph unicode="&#x687;" horiz-adv-x="1154" arabic-form="final" d="M121 -179q3 385 503 572v9q-102 16 -181 23t-134 7q-63 0 -110 -44q-48 -45 -53 -45q-16 0 -16 18q0 63 58 137q65 83 146 83q42 0 108.5 -8t159.5 -25q191 -33 270 -36l194 -3l-61 -142l-161 -8q-1 -15 -2 -29t-1 -26q0 -92 59 -125q28 -16 77 -23t119 -7h63 q17 0 17 -35v-79q0 -35 -17 -35h-80q-85 0 -143 15.5t-93 44.5q-64 52 -64 178q0 24 2.5 52t6.5 60q-114 -28 -207.5 -67t-168.5 -91q-202 -137 -202 -322q0 -311 532 -311q54 0 115 6.5t130 18.5q64 12 95 17.5t29 7.5q6 0 6 -9q0 -38 -114 -101q-144 -84 -329 -84 q-556 0 -553 406zM385 -114l104 106l103 -106l-103 -106zM505 61l105 106l102 -106l-104 -107zM509 -290l105 107l103 -107l-105 -106zM627 -114l104 106l103 -106l-103 -106z" />
<glyph unicode="&#x687;" horiz-adv-x="1131" arabic-form="initial" d="M-41 35v79q0 35 36 35h23q78 0 228 27q65 11 176 52.5t273 114.5v9q-307 128 -398 128q-65 0 -110 -44q-24 -20 -37 -31.5t-18 -11.5q-15 0 -15 19q0 60 59 134q63 84 144 84q43 0 138.5 -33t247.5 -99q81 -35 173.5 -54t199.5 -21l-69 -136h-67q-44 0 -80.5 -5.5 t-68.5 -14.5q-38 -14 -104.5 -45t-163.5 -80q-140 -72 -261 -107t-230 -35h-40q-36 0 -36 35zM394 -291l104 106l103 -106l-103 -106zM514 -116l105 106l102 -106l-104 -107zM518 -467l105 107l103 -107l-105 -106zM636 -291l104 106l103 -106l-103 -106z" />
<glyph unicode="&#x687;" horiz-adv-x="1137" arabic-form="medial" d="M-41 35v79q0 35 36 35h23q166 0 349 71q55 21 134.5 61t188.5 98v9q-174 47 -275 69.5t-130 22.5q-64 0 -109 -44q-24 -20 -38 -31.5t-17 -11.5q-15 0 -15 19q0 60 58 134q64 84 145 84q38 0 83 -8.5t97 -27.5q82 -28 132.5 -44.5t70.5 -21.5q71 -19 146.5 -27.5 t158.5 -8.5h90l-61 -143q-59 10 -150 -6l-1 -55q-8 -139 204 -139h63q17 0 17 -35v-79q0 -35 -17 -35h-24q-307 0 -307 215q0 72 9 111q-89 -36 -336 -186q-113 -71 -229.5 -105.5t-236.5 -34.5h-23q-36 0 -36 35zM339 -367l104 106l103 -106l-103 -106zM459 -192l105 106 l102 -106l-104 -107zM463 -543l105 107l103 -107l-105 -106zM581 -367l104 106l103 -106l-103 -106z" />
<glyph unicode="&#x68d;" horiz-adv-x="956" arabic-form="final" d="M112 196q0 68 20 117q18 39 35 39q20 0 20 -24q0 -4 -1.5 -12.5t-3 -19t-2.5 -21t-1 -16.5q0 -110 200 -110q295 0 295 114q0 15 -19 71t-61 153q-80 193 -80 210l75 132q29 -88 78 -224.5t119 -325.5q24 -57 54.5 -90t68.5 -40h53q16 0 16 -35v-79q0 -35 -16 -35h-25 q-74 0 -121 35q-44 31 -106 129q-17 -46 -48.5 -79.5t-78.5 -50.5q-74 -34 -224 -34q-247 0 -247 196zM175 -262l101 100l102 -100l-100 -104zM417 -262l101 100l103 -100l-101 -104z" />
<glyph unicode="&#x68c;" horiz-adv-x="956" arabic-form="final" d="M112 196q0 68 20 117q18 39 35 39q20 0 20 -24q0 -4 -1.5 -12.5t-3 -19t-2.5 -21t-1 -16.5q0 -110 200 -110q295 0 295 114q0 15 -19 71t-61 153q-80 193 -80 210l75 132q29 -88 78 -224.5t119 -325.5q24 -57 54.5 -90t68.5 -40h53q16 0 16 -35v-79q0 -35 -16 -35h-25 q-74 0 -121 35q-44 31 -106 129q-17 -46 -48.5 -79.5t-78.5 -50.5q-74 -34 -224 -34q-247 0 -247 196zM326 1099l101 100l102 -100l-100 -104zM568 1099l101 100l103 -100l-101 -104z" />
<glyph unicode="&#x68e;" horiz-adv-x="956" arabic-form="final" d="M112 196q0 68 20 117q18 39 35 39q20 0 20 -24q0 -4 -1.5 -12.5t-3 -19t-2.5 -21t-1 -16.5q0 -110 200 -110q295 0 295 114q0 15 -19 71t-61 153q-80 193 -80 210l75 132q29 -88 78 -224.5t119 -325.5q24 -57 54.5 -90t68.5 -40h53q16 0 16 -35v-79q0 -35 -16 -35h-25 q-74 0 -121 35q-44 31 -106 129q-17 -46 -48.5 -79.5t-78.5 -50.5q-74 -34 -224 -34q-247 0 -247 196zM327 1054l105 106l103 -106l-103 -106zM448 1270l105 107l103 -107l-105 -106zM569 1054l105 106l103 -106l-103 -106z" />
<glyph unicode="&#x688;" horiz-adv-x="956" arabic-form="final" d="M112 196q0 68 20 117q18 39 35 39q20 0 20 -24q0 -4 -1.5 -12.5t-3 -19t-2.5 -21t-1 -16.5q0 -110 200 -110q295 0 295 114q0 15 -19 71t-61 153q-80 193 -80 210l75 132q29 -88 78 -224.5t119 -325.5q24 -57 54.5 -90t68.5 -40h53q16 0 16 -35v-79q0 -35 -16 -35h-25 q-74 0 -121 35q-44 31 -106 129q-17 -46 -48.5 -79.5t-78.5 -50.5q-74 -34 -224 -34q-247 0 -247 196zM348 1022q0 5 4 5q3 0 14 -8q21 -15 72 -15q30 0 46 10q0 12 0.5 30.5t0.5 45.5q0 53 -9 163q-8 104 -9 104q2 6 8 12l33 32l22 -63q6 -18 6 -21q0 -6 -23 3 q0 -3 0.5 -21.5t1.5 -53.5q2 -29 2 -48.5v-28.5q0 -43 -2.5 -76.5t-8.5 -57.5l1 -2q67 66 113 91q43 26 92 26q33 0 54 -20t21 -53q0 -68 -93 -101q-77 -29 -216 -29q-65 0 -102 28q-30 22 -28 48zM512 1008q0 -8 22 -8q220 0 220 53q0 18 -20 32q-22 16 -49 16 q-17 0 -36 -6.5t-41 -17.5q-17 -8 -33.5 -19t-33.5 -25q-29 -20 -29 -25z" />
<glyph unicode="&#x698;" horiz-adv-x="731" arabic-form="final" d="M0 -496q0 12 62 26q67 17 137.5 57.5t145.5 104.5q171 150 171 271q0 97 -128 213l69 141q20 -29 42 -53.5t45 -45.5q16 -16 36 -28t44 -23q45 -18 71 -18h41q17 0 17 -35v-79q0 -35 -17 -35h-24q-30 0 -63 7t-68 23q9 -37 6 -86q-3 -147 -114 -311q-103 -154 -175 -154 q-298 0 -298 25zM168 604l105 106l103 -106l-103 -106zM289 820l105 107l103 -107l-105 -106zM410 604l105 106l103 -106l-103 -106z" />
<glyph unicode="&#x691;" horiz-adv-x="803" arabic-form="final" d="M0 -496q0 12 62 26q67 17 137.5 57.5t145.5 104.5q171 150 171 271q0 97 -128 213l69 141q20 -29 42 -53.5t45 -45.5q16 -16 36 -28t44 -23q45 -18 71 -18h41q17 0 17 -35v-79q0 -35 -17 -35h-24q-30 0 -63 7t-68 23q9 -37 6 -86q-3 -147 -114 -311q-103 -154 -175 -154 q-298 0 -298 25zM236 604q0 5 4 5q3 0 14 -8q21 -15 72 -15q30 0 46 10q0 12 0.5 30.5t0.5 45.5q0 53 -9 163q-8 104 -9 104q2 6 8 12l33 32l22 -63q6 -18 6 -21q0 -6 -23 3q0 -3 0.5 -21.5t1.5 -53.5q2 -29 2 -48.5v-28.5q0 -43 -2.5 -76.5t-8.5 -57.5l1 -2q67 66 113 91 q43 26 92 26q33 0 54 -20t21 -53q0 -68 -93 -101q-77 -29 -216 -29q-65 0 -102 28q-30 22 -28 48zM400 590q0 -8 22 -8q220 0 220 53q0 18 -20 32q-22 16 -49 16q-17 0 -36 -6.5t-41 -17.5q-17 -8 -33.5 -19t-33.5 -25q-29 -20 -29 -25z" />
<glyph unicode="&#x6a9;" horiz-adv-x="1748" arabic-form="final" d="M112 268q0 41 8.5 81t26.5 78q31 71 54 71q26 0 26 -25q0 -2 -4 -12.5t-15 -33.5q-18 -42 -18 -86q0 -205 416 -205q186 0 313.5 11t200.5 32q125 36 125 123q0 69 -95 185q-25 29 -69.5 75.5t-109.5 109.5q-95 95 -95 112q0 172 65 196l716 265l-47 -149l-644 -235 q8 -13 141.5 -162t393.5 -440q98 -110 238 -110h15q17 0 17 -35v-79q0 -35 -17 -35h-24q-119 0 -202 64q-34 26 -88.5 85t-130.5 153q-6 -132 -64 -196q-60 -67 -201 -93q-72 -13 -191 -19.5t-286 -6.5q-455 0 -455 281z" />
<glyph unicode="&#x6a9;" horiz-adv-x="787" arabic-form="initial" d="M-23 35v79q0 35 18 35h23q201 0 302 35.5t101 115.5q0 36 -23 82.5t-58 94t-75.5 89t-76.5 67.5l-9 -29q-17 17 -38.5 39t-41 45.5t-32.5 46.5t-13 42q0 48 6.5 84t17.5 61.5t25 40.5t29 21l701 261l-47 -149l-644 -235q5 -12 32.5 -37.5t65.5 -63t80.5 -86t79 -107 t60.5 -126t24 -141.5q0 -69 -15.5 -115.5t-47.5 -79.5q-31 -33 -72 -54t-90.5 -32t-107.5 -15t-123 -4h-33q-18 0 -18 35z" />
<glyph unicode="&#x6a9;" horiz-adv-x="928" arabic-form="medial" d="M-23 35v79q0 35 18 35h23q71 0 143.5 4.5t131 20.5t95.5 46t37 80q0 41 -27.5 89t-68.5 97.5t-88.5 97.5t-88.5 88t-68.5 69.5t-27.5 42.5q0 16 2 45.5t8.5 60t19.5 56t35 34.5l716 265l-47 -149l-644 -235q4 -4 10.5 -12t24 -29t51.5 -59.5t92 -104t145 -162.5t212 -235 q21 -23 43.5 -43t50.5 -35t63.5 -23.5t80.5 -8.5h15q16 0 16 -35v-79q0 -35 -16 -35h-25q-62 0 -109 14.5t-92.5 49.5t-97 92.5t-121.5 143.5q-3 -89 -33 -146.5t-88.5 -92t-146 -48t-203.5 -13.5h-23q-18 0 -18 35z" />
<glyph unicode="&#x6af;" horiz-adv-x="1748" arabic-form="final" d="M112 268q0 45 10.5 86.5t25 73.5t29.5 51t24 19q26 0 26 -25q0 -7 -6 -18t-12.5 -27.5t-12.5 -38t-6 -48.5q0 -39 19 -75.5t66.5 -65.5t127.5 -46.5t203 -17.5q193 0 317.5 10t195.5 30.5t98.5 51.5t27.5 72q0 22 -12 48.5t-32.5 55.5t-47 59.5t-56.5 59.5 q-35 38 -71.5 71t-66.5 60t-49 48t-19 34q0 7 5 24t11.5 35t12.5 32.5t8 16.5q3 1 7 3t15.5 5.5t32 10.5t55.5 19l125 41q79 24 198.5 62t291.5 92l-47 -138q-68 -19 -152 -45t-166.5 -53t-154.5 -52t-117 -42q33 -26 66 -56.5t68 -66.5t74 -77.5t86 -89.5l189 -203 q24 -26 49.5 -45.5t55 -33t64 -20t75.5 -6.5h11q17 0 17 -35v-79q0 -35 -17 -35h-24q-56 0 -100 11t-90 43.5t-100.5 91.5t-130.5 154q-2 -69 -17 -115.5t-47 -79.5q-32 -35 -79 -57.5t-124 -36t-192 -19t-283 -5.5q-226 0 -340.5 67t-114.5 214zM945 960l37 108l645 214 l-34 -104q-63 -19 -145 -45t-169.5 -55t-174 -59.5t-159.5 -58.5z" />
<glyph unicode="&#x6af;" horiz-adv-x="807" arabic-form="initial" d="M-23 35v79q0 35 18 35h23q71 0 143.5 4.5t131.5 20.5t96.5 46t37.5 80q0 22 -12.5 49t-33 55t-46 56t-51 53t-49 44.5t-38.5 31.5l-7 -30q-21 21 -42 42.5t-36 40.5q-29 33 -38.5 46t-9.5 24q0 8 6.5 29t15 43.5t17.5 40t14 19.5q1 1 6 3t16.5 6t32.5 11t55 18l125 41 q80 24 199 62t292 92l-48 -138q-45 -13 -98 -29t-108.5 -33.5t-111.5 -36t-106.5 -35.5t-93 -32t-72.5 -26q51 -45 99.5 -89.5t86.5 -96.5q50 -63 74.5 -123t24.5 -138q0 -89 -30 -146.5t-89.5 -92t-148 -48t-204.5 -13.5h-23q-18 0 -18 35zM134 960l37 108l645 214 l-33 -104q-64 -19 -146 -45t-169.5 -55t-174 -59.5t-159.5 -58.5z" />
<glyph unicode="&#x6af;" horiz-adv-x="928" arabic-form="medial" d="M-23 35v79q0 35 18 35h23q71 0 143.5 4.5t131.5 20.5t96.5 46t37.5 80q0 22 -12 48.5t-32.5 55.5t-47 59.5t-56.5 59.5q-35 38 -71.5 71t-66.5 60t-49 48t-19 34q0 7 5 23.5t12.5 34.5t14.5 32.5t12 17.5q1 1 6 3t16.5 6t32.5 11t55 18l125 41q80 24 199 62t292 92 l-48 -138q-45 -13 -98 -29t-108.5 -33.5t-111.5 -36t-106.5 -35.5t-93 -32t-72.5 -26q30 -27 61 -56.5t65.5 -65t74 -77t86.5 -91.5l189 -203q48 -52 105 -78.5t137 -26.5h11q16 0 16 -35v-79q0 -35 -16 -35h-25q-54 0 -98 11t-90 43.5t-100.5 91.5t-130.5 154 q-2 -89 -33 -146.5t-90 -92t-146.5 -48t-202.5 -13.5h-23q-18 0 -18 35zM134 960l37 108l645 214l-33 -104q-64 -19 -146 -45t-169.5 -55t-174 -59.5t-159.5 -58.5z" />
<glyph unicode="&#x6b3;" horiz-adv-x="1748" arabic-form="final" d="M112 268q0 45 10.5 86.5t25 73.5t29.5 51t24 19q26 0 26 -25q0 -7 -6 -18t-12.5 -27.5t-12.5 -38t-6 -48.5q0 -39 19 -75.5t66.5 -65.5t127.5 -46.5t203 -17.5q193 0 317.5 10t195.5 30.5t98.5 51.5t27.5 72q0 22 -12 48.5t-32.5 55.5t-47 59.5t-56.5 59.5 q-35 38 -71.5 71t-66.5 60t-49 48t-19 34q0 7 5 24t11.5 35t12.5 32.5t8 16.5q3 1 7 3t15.5 5.5t32 10.5t55.5 19l125 41q79 24 198.5 62t291.5 92l-47 -138q-68 -19 -152 -45t-166.5 -53t-154.5 -52t-117 -42q33 -26 66 -56.5t68 -66.5t74 -77.5t86 -89.5l189 -203 q24 -26 49.5 -45.5t55 -33t64 -20t75.5 -6.5h11q17 0 17 -35v-79q0 -35 -17 -35h-24q-56 0 -100 11t-90 43.5t-100.5 91.5t-130.5 154q-2 -69 -17 -115.5t-47 -79.5q-32 -35 -79 -57.5t-124 -36t-192 -19t-283 -5.5q-226 0 -340.5 67t-114.5 214zM582 -295l101 100l102 -100 l-100 -105zM583 -521l101 100l103 -100l-101 -104zM945 960l37 108l645 214l-34 -104q-63 -19 -145 -45t-169.5 -55t-174 -59.5t-159.5 -58.5z" />
<glyph unicode="&#x6b3;" horiz-adv-x="876" arabic-form="initial" d="M-23 35v79q0 35 18 35h23q71 0 143.5 4.5t131.5 20.5t96.5 46t37.5 80q0 22 -12.5 49t-33 55t-46 56t-51 53t-49 44.5t-38.5 31.5l-7 -30q-21 21 -42 42.5t-36 40.5q-29 33 -38.5 46t-9.5 24q0 8 6.5 29t15 43.5t17.5 40t14 19.5q1 1 6 3t16.5 6t32.5 11t55 18l125 41 q80 24 199 62t292 92l-48 -138q-45 -13 -98 -29t-108.5 -33.5t-111.5 -36t-106.5 -35.5t-93 -32t-72.5 -26q51 -45 99.5 -89.5t86.5 -96.5q50 -63 74.5 -123t24.5 -138q0 -89 -30 -146.5t-89.5 -92t-148 -48t-204.5 -13.5h-23q-18 0 -18 35zM134 960l37 108l645 214 l-33 -104q-64 -19 -146 -45t-169.5 -55t-174 -59.5t-159.5 -58.5zM290 -267l101 100l102 -100l-100 -105zM291 -493l101 100l103 -100l-101 -104z" />
<glyph unicode="&#x6b3;" horiz-adv-x="928" arabic-form="medial" d="M-23 35v79q0 35 18 35h23q71 0 143.5 4.5t131.5 20.5t96.5 46t37.5 80q0 22 -12 48.5t-32.5 55.5t-47 59.5t-56.5 59.5q-35 38 -71.5 71t-66.5 60t-49 48t-19 34q0 7 5 23.5t12.5 34.5t14.5 32.5t12 17.5q1 1 6 3t16.5 6t32.5 11t55 18l125 41q80 24 199 62t292 92 l-48 -138q-45 -13 -98 -29t-108.5 -33.5t-111.5 -36t-106.5 -35.5t-93 -32t-72.5 -26q30 -27 61 -56.5t65.5 -65t74 -77t86.5 -91.5l189 -203q48 -52 105 -78.5t137 -26.5h11q16 0 16 -35v-79q0 -35 -16 -35h-25q-54 0 -98 11t-90 43.5t-100.5 91.5t-130.5 154 q-2 -89 -33 -146.5t-90 -92t-146.5 -48t-202.5 -13.5h-23q-18 0 -18 35zM134 960l37 108l645 214l-33 -104q-64 -19 -146 -45t-169.5 -55t-174 -59.5t-159.5 -58.5zM363 -205l101 100l102 -100l-100 -105zM364 -431l101 100l103 -100l-101 -104z" />
<glyph unicode="&#x6b1;" horiz-adv-x="1748" arabic-form="final" d="M112 268q0 45 10.5 86.5t25 73.5t29.5 51t24 19q26 0 26 -25q0 -7 -6 -18t-12.5 -27.5t-12.5 -38t-6 -48.5q0 -39 19 -75.5t66.5 -65.5t127.5 -46.5t203 -17.5q193 0 317.5 10t195.5 30.5t98.5 51.5t27.5 72q0 22 -12 48.5t-32.5 55.5t-47 59.5t-56.5 59.5 q-35 38 -71.5 71t-66.5 60t-49 48t-19 34q0 7 5 24t11.5 35t12.5 32.5t8 16.5q3 1 7 3t15.5 5.5t32 10.5t55.5 19l125 41q79 24 198.5 62t291.5 92l-47 -138q-68 -19 -152 -45t-166.5 -53t-154.5 -52t-117 -42q33 -26 66 -56.5t68 -66.5t74 -77.5t86 -89.5l189 -203 q24 -26 49.5 -45.5t55 -33t64 -20t75.5 -6.5h11q17 0 17 -35v-79q0 -35 -17 -35h-24q-56 0 -100 11t-90 43.5t-100.5 91.5t-130.5 154q-2 -69 -17 -115.5t-47 -79.5q-32 -35 -79 -57.5t-124 -36t-192 -19t-283 -5.5q-226 0 -340.5 67t-114.5 214zM945 960l37 108l645 214 l-34 -104q-63 -19 -145 -45t-169.5 -55t-174 -59.5t-159.5 -58.5zM968 1351l101 100l102 -100l-100 -104zM1210 1351l101 100l103 -100l-101 -104z" />
<glyph unicode="&#x6b1;" horiz-adv-x="876" arabic-form="initial" d="M-23 35v79q0 35 18 35h23q71 0 143.5 4.5t131.5 20.5t96.5 46t37.5 80q0 22 -12.5 49t-33 55t-46 56t-51 53t-49 44.5t-38.5 31.5l-7 -30q-21 21 -42 42.5t-36 40.5q-29 33 -38.5 46t-9.5 24q0 8 6.5 29t15 43.5t17.5 40t14 19.5q1 1 6 3t16.5 6t32.5 11t55 18l125 41 q80 24 199 62t292 92l-48 -138q-45 -13 -98 -29t-108.5 -33.5t-111.5 -36t-106.5 -35.5t-93 -32t-72.5 -26q51 -45 99.5 -89.5t86.5 -96.5q50 -63 74.5 -123t24.5 -138q0 -89 -30 -146.5t-89.5 -92t-148 -48t-204.5 -13.5h-23q-18 0 -18 35zM134 960l37 108l645 214 l-33 -104q-64 -19 -146 -45t-169.5 -55t-174 -59.5t-159.5 -58.5zM135 1350l101 100l102 -100l-100 -104zM377 1350l101 100l103 -100l-101 -104z" />
<glyph unicode="&#x6b1;" horiz-adv-x="928" arabic-form="medial" d="M-23 35v79q0 35 18 35h23q71 0 143.5 4.5t131.5 20.5t96.5 46t37.5 80q0 22 -12 48.5t-32.5 55.5t-47 59.5t-56.5 59.5q-35 38 -71.5 71t-66.5 60t-49 48t-19 34q0 7 5 23.5t12.5 34.5t14.5 32.5t12 17.5q1 1 6 3t16.5 6t32.5 11t55 18l125 41q80 24 199 62t292 92 l-48 -138q-45 -13 -98 -29t-108.5 -33.5t-111.5 -36t-106.5 -35.5t-93 -32t-72.5 -26q30 -27 61 -56.5t65.5 -65t74 -77t86.5 -91.5l189 -203q48 -52 105 -78.5t137 -26.5h11q16 0 16 -35v-79q0 -35 -16 -35h-25q-54 0 -98 11t-90 43.5t-100.5 91.5t-130.5 154 q-2 -89 -33 -146.5t-90 -92t-146.5 -48t-202.5 -13.5h-23q-18 0 -18 35zM134 960l37 108l645 214l-33 -104q-64 -19 -146 -45t-169.5 -55t-174 -59.5t-159.5 -58.5zM181 1362l101 100l102 -100l-100 -104zM423 1362l101 100l103 -100l-101 -104z" />
<glyph unicode="&#x6ba;" horiz-adv-x="1256" arabic-form="final" d="M103 -197q0 64 12.5 125t39.5 118q48 105 83 105q23 0 23 -21q0 3 -35 -76q-34 -77 -34 -162q0 -265 350 -265q81 0 154.5 12.5t144.5 36.5q187 67 187 192q0 57 -36 137t-110 183l76 144q28 -51 53.5 -86t52.5 -56.5t56.5 -31t65.5 -9.5h75q18 0 18 -35v-79 q0 -35 -18 -35h-23q-91 0 -161 21q15 -54 15 -137q0 -219 -201 -327q-162 -90 -414 -90q-72 0 -134 18t-114 56q-63 47 -94.5 111.5t-31.5 150.5z" />
<glyph unicode="&#x6bb;" horiz-adv-x="1256" arabic-form="final" d="M103 -197q0 64 12.5 125t39.5 118q48 105 83 105q23 0 23 -21q0 3 -35 -76q-34 -77 -34 -162q0 -265 350 -265q81 0 154.5 12.5t144.5 36.5q187 67 187 192q0 57 -36 137t-110 183l76 144q28 -51 53.5 -86t52.5 -56.5t56.5 -31t65.5 -9.5h75q18 0 18 -35v-79 q0 -35 -18 -35h-23q-91 0 -161 21q15 -54 15 -137q0 -219 -201 -327q-162 -90 -414 -90q-72 0 -134 18t-114 56q-63 47 -94.5 111.5t-31.5 150.5zM357 445q0 5 4 5q3 0 14 -8q21 -15 72 -15q30 0 46 10q0 12 0.5 30.5t0.5 45.5q0 53 -9 163q-8 104 -9 104q2 6 8 12l33 32 l22 -63q6 -18 6 -21q0 -6 -23 3q0 -3 0.5 -21.5t1.5 -53.5q2 -29 2 -48.5v-28.5q0 -43 -2.5 -76.5t-8.5 -57.5l1 -2q67 66 113 91q43 26 92 26q33 0 54 -20t21 -53q0 -68 -93 -101q-77 -29 -216 -29q-65 0 -102 28q-30 22 -28 48zM521 431q0 -8 22 -8q220 0 220 53 q0 18 -20 32q-22 16 -49 16q-17 0 -36 -6.5t-41 -17.5q-17 -8 -33.5 -19t-33.5 -25q-29 -20 -29 -25z" />
<glyph unicode="&#x6c0;" horiz-adv-x="753" arabic-form="isolated" d="M196 173q0 219 227 435q153 -92 212 -178q53 -74 53 -167q0 -127 -82 -203q-79 -73 -206 -73q-93 0 -144 47q-60 51 -60 139zM284 772q0 6 12 6q52 0 114 5.5t80 22.5q-5 21 -57.5 36.5t-69.5 27t-17 31.5q1 20 14.5 43t32.5 42.5t42.5 33.5t41.5 15q34 0 38.5 -26.5 t-8.5 -53.5q-12 -7 -18 3.5t-13 11.5q-57 -4 -88 -47q-1 -12 38.5 -22.5t62.5 -20.5t31 -34t-1 -48t-28.5 -38.5t-44.5 -20.5t-64 -5.5t-74 11.5q-24 21 -24 27zM285 246q0 -49 40 -79.5t107 -30.5q27 0 56.5 7t62.5 19q73 31 73 60q0 52 -93 139q-92 86 -151 99 q-95 -121 -95 -214z" />
<glyph unicode="&#x6c0;" horiz-adv-x="775" arabic-form="final" d="M103 215q0 27 7 58t22 65q31 69 75 100q52 38 114 73t134 70l-28 122l82 95l103 -487q9 -48 22 -80t28 -50q30 -32 83 -32h36q17 0 17 -35v-79q0 -35 -17 -35h-25q-108 0 -156 54q-40 43 -61 156l-110 -98q-22 -2 -48 -3t-57 -1q-221 0 -221 107zM171 885q0 6 12 6 q52 0 114 5.5t80 22.5q-5 21 -57 36.5t-69.5 27t-17.5 31.5q1 20 14.5 43t32.5 42.5t42.5 33.5t41.5 15q35 0 39 -26.5t-9 -53.5q-12 -7 -18 3.5t-13 11.5q-56 -4 -88 -47q-1 -12 38.5 -22.5t62.5 -20.5t31 -34t-0.5 -48t-28 -38.5t-45 -20.5t-64.5 -5.5t-73 11.5 q-25 21 -25 27zM181 309q0 -65 216 -65q81 0 129 12l-51 219q-66 -19 -120.5 -44t-100.5 -54q-73 -48 -73 -68z" />
<glyph unicode="&#x6c1;" horiz-adv-x="753" arabic-form="isolated" d="M196 173q0 219 227 435q153 -92 212 -178q53 -74 53 -167q0 -127 -82 -203q-79 -73 -206 -73q-93 0 -144 47q-60 51 -60 139zM285 246q0 -49 40 -79.5t107 -30.5q27 0 56.5 7t62.5 19q73 31 73 60q0 52 -93 139q-92 86 -151 99q-95 -121 -95 -214z" />
<glyph unicode="&#x6c1;" horiz-adv-x="464" arabic-form="initial" d="M-23 35v79q0 35 18 35h23q25 0 56 1t62 3.5t61 7t53.5 12t37.5 18.5t14 27q0 41 -22 84t-63 95l68 151q46 -66 70.5 -133.5t24.5 -142.5q0 -79 -21.5 -132t-64.5 -84t-108 -43.5t-151 -12.5h-40q-18 0 -18 35zM108 -271q0 49 14 86t33 63q15 21 33.5 36.5t31.5 15.5 q10 0 14 -5t4 -10q0 -4 -5 -9q-20 -22 -31.5 -42t-17 -38t-6.5 -33.5t-1 -27.5q0 -16 3.5 -33t11.5 -29q37 25 56 25q20 0 35.5 -7.5t27 -20t18 -29t6.5 -35.5q0 -40 -26 -63.5t-67 -23.5q-33 0 -58 14t-41.5 38.5t-25.5 57.5t-9 70z" />
<glyph unicode="&#x6c1;" horiz-adv-x="822" arabic-form="medial" d="M-23 35v79q0 35 18 35h10q77 0 126.5 9t84.5 28t60 47.5t52 67.5q13 20 30 20q8 0 12.5 -5.5t4.5 -20.5q0 -7 -9.5 -35.5t-20.5 -67t-20.5 -82.5t-9.5 -82q0 -98 44.5 -175.5t138.5 -134.5l2 4q-14 19 -22 48t-8 75q0 58 21 112.5t59.5 97t90.5 68.5t114 26h72 q17 0 17 -35v-79q0 -35 -17 -35h-55q-39 0 -80 -6t-75.5 -21t-56 -41t-21.5 -66q0 -64 37.5 -120t106.5 -108l-52 -142q-93 37 -166 83.5t-123.5 104.5t-77 128.5t-26.5 155.5q0 25 2.5 51.5t7.5 51.5q-53 -44 -110 -57.5t-120 -13.5h-23q-18 0 -18 35z" />
<glyph unicode="&#x6be;" horiz-adv-x="946" arabic-form="final" d="M33 130l253 15q10 168 60 304.5t141 242.5q171 -242 171 -416q0 -125 -69.5 -190.5t-209.5 -76.5q8 -43 28 -84t55 -80q32 -38 70.5 -65.5t82.5 -47.5q-12 45 -12 71q0 155 90 253q82 93 189 93h73q17 0 17 -35v-79q0 -35 -17 -35h-55q-50 0 -89 -7t-70 -23 q-74 -35 -74 -104q0 -130 149 -216l-51 -142q-408 138 -471 496q-13 0 -39 -2t-68 -2h-23q-26 0 -53 20.5t-47.5 44.5t-30 44.5t-0.5 20.5zM350 152q42 3 71 6.5t49 7t34.5 8t27.5 9.5q62 20 62 48q0 86 -127 270q-117 -143 -117 -307v-42z" />
<glyph unicode="&#x6be;" horiz-adv-x="909" arabic-form="initial" d="M-41 35v79q0 35 36 35h23q61 0 122 7t121 21q-92 59 -92 149q0 160 183 261q-29 16 -54.5 27.5t-46.5 18.5l114 120l161 -90q81 -46 145 -93t110 -97q95 -101 95 -186q0 -94 -52 -173q-55 -88 -121 -88q-46 0 -118.5 21t-172.5 65q-38 -26 -88 -46.5t-116 -37.5 q-106 -28 -190 -28h-23q-36 0 -36 35zM259 375q0 -20 6.5 -35t23.5 -29t46.5 -29t76.5 -34q116 53 116 141q0 72 -51 134q-109 -3 -166 -50q-52 -37 -52 -98zM520 210q65 -23 112.5 -35.5t79.5 -12.5q101 0 101 65q0 110 -207 228v-51q0 -39 -28 -106q-13 -30 -27.5 -52.5 t-30.5 -35.5z" />
<glyph unicode="&#x6be;" horiz-adv-x="812" arabic-form="medial" d="M-41 35v79q0 35 36 35h163q19 331 201 543q171 -242 171 -416q0 -125 -69.5 -190.5t-209.5 -76.5q8 -43 28 -84t55 -80q32 -38 70.5 -65.5t82.5 -47.5q-12 45 -12 71q0 155 90 253q82 93 189 93h73q17 0 17 -35v-79q0 -35 -17 -35h-55q-50 0 -89 -7t-70 -23 q-74 -35 -74 -104q0 -130 149 -216l-51 -142q-408 138 -471 496q-6 0 -22.5 -0.5t-37.5 -1.5t-44 -1.5t-44 -0.5h-23q-36 0 -36 35zM222 157l73 3q59 3 109 23q62 20 62 48q0 86 -127 270q-117 -143 -117 -307v-37z" />
<glyph unicode="&#x6d2;" horiz-adv-x="1151" arabic-form="final" d="M66 -183q0 47 21.5 102.5t66.5 105.5q30 30 61 53t69.5 39t88.5 24t117 8h667q17 0 17 -35v-79q0 -35 -17 -35h-640q-62 0 -110 -4.5t-85.5 -14t-66 -23.5t-51.5 -32q-31 -27 -45 -52t-14 -49q0 -54 79 -83q34 -11 108.5 -14t173.5 -3q77 0 140 -1t115 0.5t93.5 3.5 t77.5 6q47 4 80.5 12.5t54.5 17t32.5 14.5t15.5 6q8 0 8 -12q0 -6 -6 -18t-17.5 -27.5t-27 -33.5t-34.5 -35q-35 -32 -82.5 -45.5t-104.5 -21.5q-68 -7 -127 -9t-127 -2h-154q-57 0 -104.5 2t-85.5 9.5t-69 22.5t-57 39q-29 29 -45 68.5t-16 95.5z" />
<glyph unicode="&#x6d3;" horiz-adv-x="1151" arabic-form="final" d="M66 -183q0 47 21.5 102.5t66.5 105.5q30 30 61 53t69.5 39t88.5 24t117 8h667q17 0 17 -35v-79q0 -35 -17 -35h-640q-62 0 -110 -4.5t-85.5 -14t-66 -23.5t-51.5 -32q-31 -27 -45 -52t-14 -49q0 -54 79 -83q34 -11 108.5 -14t173.5 -3q77 0 140 -1t115 0.5t93.5 3.5 t77.5 6q47 4 80.5 12.5t54.5 17t32.5 14.5t15.5 6q8 0 8 -12q0 -6 -6 -18t-17.5 -27.5t-27 -33.5t-34.5 -35q-35 -32 -82.5 -45.5t-104.5 -21.5q-68 -7 -127 -9t-127 -2h-154q-57 0 -104.5 2t-85.5 9.5t-69 22.5t-57 39q-29 29 -45 68.5t-16 95.5zM233 305q0 47 60 82 q-42 27 -42 81q0 49 50 101q50 50 110 50q81 0 81 -70q0 -8 -3 -14t-8 -12q-33 27 -83 27q-93 0 -93 -46q0 -14 8 -28t20 -24.5t27 -17t29 -6.5q75 0 146 34l-29 -81q-16 -2 -40.5 -7.5t-56.5 -13.5q-65 -17 -106.5 -40t-61.5 -50q-8 18 -8 35z" />
<glyph unicode="&#x6ad;" horiz-adv-x="1469" arabic-form="final" d="M112 268q0 41 8.5 81t26.5 78q31 71 54 71q26 0 26 -25q0 -2 -4 -12.5t-15 -33.5q-18 -45 -18 -86q0 -205 416 -205q118 0 226.5 11t205.5 40q29 11 53 20.5t41.5 22.5t27.5 32t10 49v9l-22 822l97 103l21 -957q0 -65 53 -103q49 -36 131 -36h24q17 0 17 -35v-79 q0 -35 -17 -35h-24q-91 0 -152 32.5t-96 101.5q-75 -80 -233.5 -113.5t-401.5 -33.5q-455 0 -455 281zM438 1110l105 106l103 -106l-103 -106zM511 535q-9 9 5 9q49 2 95.5 9t83 17t58.5 22t22 25q0 20 -44 20h-79q-29 0 -48.5 5.5t-30.5 15.5t-15.5 24t-4.5 30 q0 29 11.5 62.5t31.5 62.5q48 65 97 65q18 0 31 -10t22 -24.5t13.5 -29.5t4.5 -24q0 -11 -11 -7q-24 11 -50 11q-20 0 -38.5 -7t-32.5 -16.5t-22 -21t-8 -20.5q0 -22 58 -22h76q45 0 67 -22.5t22 -61.5q0 -41 -16 -72t-40 -51.5t-53 -31t-56 -10.5q-35 0 -70 12t-79 41z M559 1326l105 107l103 -107l-105 -106zM680 1110l105 106l103 -106l-103 -106z" />
<glyph unicode="&#x6ad;" horiz-adv-x="787" arabic-form="initial" d="M-23 35v79q0 35 18 35h23q201 0 302 35.5t101 115.5q0 36 -23 82.5t-58 94t-75.5 89t-76.5 67.5l-9 -29q-17 17 -38.5 39t-41 45.5t-32.5 46.5t-13 42q0 48 6.5 84t17.5 61.5t25 40.5t29 21l701 261l-47 -149l-644 -235q5 -12 32.5 -37.5t65.5 -63t80.5 -86t79 -107 t60.5 -126t24 -141.5q0 -69 -15.5 -115.5t-47.5 -79.5q-31 -33 -72 -54t-90.5 -32t-107.5 -15t-123 -4h-33q-18 0 -18 35zM104 1295l105 106l103 -106l-103 -106zM225 1511l105 107l103 -107l-105 -106zM346 1295l105 106l103 -106l-103 -106z" />
<glyph unicode="&#x6ad;" horiz-adv-x="928" arabic-form="medial" d="M-23 35v79q0 35 18 35h23q71 0 143.5 4.5t131 20.5t95.5 46t37 80q0 41 -27.5 89t-68.5 97.5t-88.5 97.5t-88.5 88t-68.5 69.5t-27.5 42.5q0 16 2 45.5t8.5 60t19.5 56t35 34.5l716 265l-47 -149l-644 -235q4 -4 10.5 -12t24 -29t51.5 -59.5t92 -104t145 -162.5t212 -235 q21 -23 43.5 -43t50.5 -35t63.5 -23.5t80.5 -8.5h15q16 0 16 -35v-79q0 -35 -16 -35h-25q-62 0 -109 14.5t-92.5 49.5t-97 92.5t-121.5 143.5q-3 -89 -33 -146.5t-88.5 -92t-146 -48t-203.5 -13.5h-23q-18 0 -18 35zM164 1324l105 106l103 -106l-103 -106zM285 1540l105 107 l103 -107l-105 -106zM406 1324l105 106l103 -106l-103 -106z" />
<glyph unicode="&#x6c7;" horiz-adv-x="727" arabic-form="final" d="M0 -475q0 11 28 18q196 54 335 189q80 75 124 158q33 64 33 99v16q-21 -2 -52.5 -3.5t-74.5 -1.5q-64 0 -109 9t-73 29t-40.5 52t-12.5 77q0 57 14 111t40 108q33 60 71 90.5t84 30.5q95 0 154 -110q55 -97 70 -248h142q16 0 16 -35v-79q0 -35 -16 -35h-144 q0 -142 -112 -328q-35 -57 -64.5 -95t-53.5 -56q-35 -26 -100 -26q-37 0 -77 2.5t-86 6.5q-96 9 -96 21zM145 634q23 1 56.5 9.5t78.5 27.5q93 37 128 67q-108 50 -108 114q0 49 60 104q31 26 59 40t55 14q71 0 71 -99q0 -41 -10 -72.5t-28 -55.5q37 -23 63 -23 q-27 -51 -52 -66l-62 21q-86 -112 -249 -112q-49 0 -62 31zM237 244q0 -95 158 -95h106q-1 35 -13.5 69.5t-34.5 66.5q-48 73 -104 73q-23 0 -43.5 -8.5t-35.5 -24t-24 -36.5t-9 -45zM371 886q0 -43 99 -85q15 23 15 69q0 64 -41 64q-24 0 -45 -14q-14 -7 -21 -16t-7 -18z " />
<glyph unicode="&#x6c6;" horiz-adv-x="727" arabic-form="final" d="M0 -475q0 11 28 18q196 54 335 189q80 75 124 158q33 64 33 99v16q-21 -2 -52.5 -3.5t-74.5 -1.5q-64 0 -109 9t-73 29t-40.5 52t-12.5 77q0 57 14 111t40 108q33 60 71 90.5t84 30.5q95 0 154 -110q55 -97 70 -248h142q16 0 16 -35v-79q0 -35 -16 -35h-144 q0 -142 -112 -328q-35 -57 -64.5 -95t-53.5 -56q-35 -26 -100 -26q-37 0 -77 2.5t-86 6.5q-96 9 -96 21zM191 896l94 -7q9 -11 18.5 -25t19.5 -35.5t20 -53t21 -77.5q3 18 8.5 42.5t13.5 51t19 53.5t26 49l92 9q-12 -12 -28 -29t-35 -49t-40.5 -83.5t-43.5 -130.5l-25 -3 q-9 43 -25.5 85.5t-37.5 80.5t-45.5 69.5t-51.5 52.5zM237 244q0 -95 158 -95h106q-1 35 -13.5 69.5t-34.5 66.5q-48 73 -104 73q-23 0 -43.5 -8.5t-35.5 -24t-24 -36.5t-9 -45z" />
<glyph unicode="&#x6c8;" horiz-adv-x="727" arabic-form="final" d="M0 -475q0 11 28 18q196 54 335 189q80 75 124 158q33 64 33 99v16q-21 -2 -52.5 -3.5t-74.5 -1.5q-64 0 -109 9t-73 29t-40.5 52t-12.5 77q0 57 14 111t40 108q33 60 71 90.5t84 30.5q95 0 154 -110q55 -97 70 -248h142q16 0 16 -35v-79q0 -35 -16 -35h-144 q0 -142 -112 -328q-35 -57 -64.5 -95t-53.5 -56q-35 -26 -100 -26q-37 0 -77 2.5t-86 6.5q-96 9 -96 21zM237 244q0 -95 158 -95h106q-1 35 -13.5 69.5t-34.5 66.5q-48 73 -104 73q-23 0 -43.5 -8.5t-35.5 -24t-24 -36.5t-9 -45zM275 944l48 85q31 -51 51 -118t20 -117 q0 -46 -17 -89q-7 -19 -15.5 -30.5t-14.5 -11.5q-7 0 -7 9q0 5 2 17q2 16 2 38q0 43 -20 105t-49 112z" />
<glyph unicode="&#x6cb;" horiz-adv-x="727" arabic-form="final" d="M0 -475q0 11 28 18q196 54 335 189q80 75 124 158q33 64 33 99v16q-21 -2 -52.5 -3.5t-74.5 -1.5q-64 0 -109 9t-73 29t-40.5 52t-12.5 77q0 57 14 111t40 108q33 60 71 90.5t84 30.5q95 0 154 -110q55 -97 70 -248h142q16 0 16 -35v-79q0 -35 -16 -35h-144 q0 -142 -112 -328q-35 -57 -64.5 -95t-53.5 -56q-35 -26 -100 -26q-37 0 -77 2.5t-86 6.5q-96 9 -96 21zM106 750l105 106l103 -106l-103 -106zM227 966l105 107l103 -107l-105 -106zM237 244q0 -95 158 -95h106q-1 35 -13.5 69.5t-34.5 66.5q-48 73 -104 73 q-23 0 -43.5 -8.5t-35.5 -24t-24 -36.5t-9 -45zM348 750l105 106l103 -106l-103 -106z" />
<glyph unicode="&#x6c5;" horiz-adv-x="730" arabic-form="final" d="M0 -475q0 11 28 18q196 54 335 189q7 7 13.5 13t12.5 13l-245 -2l40 63l258 2q14 17 24.5 34t20.5 35q33 64 33 99v16q-21 -2 -52.5 -3.5t-74.5 -1.5q-64 0 -109 9t-73 29t-40.5 52t-12.5 77q0 57 14 111t40 108q33 60 71 90.5t84 30.5q95 0 154 -110q55 -97 70 -248h142 q16 0 16 -35v-79q0 -35 -16 -35h-144q0 -142 -112 -328q-35 -57 -64.5 -95t-53.5 -56q-35 -26 -100 -26q-37 0 -77 2.5t-86 6.5q-96 9 -96 21zM237 244q0 -95 158 -95h106q-1 35 -13.5 69.5t-34.5 66.5q-48 73 -104 73q-23 0 -43.5 -8.5t-35.5 -24t-24 -36.5t-9 -45z" />
<glyph unicode="&#x6c9;" horiz-adv-x="727" arabic-form="final" d="M0 -475q0 11 28 18q196 54 335 189q80 75 124 158q33 64 33 99v16q-21 -2 -52.5 -3.5t-74.5 -1.5q-64 0 -109 9t-73 29t-40.5 52t-12.5 77q0 57 14 111t40 108q33 60 71 90.5t84 30.5q95 0 154 -110q55 -97 70 -248h142q16 0 16 -35v-79q0 -35 -16 -35h-144 q0 -142 -112 -328q-35 -57 -64.5 -95t-53.5 -56q-35 -26 -100 -26q-37 0 -77 2.5t-86 6.5q-96 9 -96 21zM208 662q27 21 51.5 52.5t45.5 69.5t37.5 80t25.5 85l25 -3q22 -80 43.5 -131t40.5 -83t35 -49t28 -29l-92 9q-15 22 -26 49t-19 54t-13.5 51.5t-8.5 42.5 q-11 -46 -21 -77.5t-20 -53.5t-19.5 -36t-18.5 -24zM237 244q0 -95 158 -95h106q-1 35 -13.5 69.5t-34.5 66.5q-48 73 -104 73q-23 0 -43.5 -8.5t-35.5 -24t-24 -36.5t-9 -45z" />
<glyph unicode="&#x6d0;" horiz-adv-x="1348" arabic-form="final" d="M103 -261q0 64 12.5 125.5t39.5 119.5q48 103 83 103q23 0 23 -20q0 3 -35 -76q-34 -78 -34 -162q0 -155 117 -218q100 -59 319 -59q102 0 188 11.5t160 34.5q138 41 135 89q0 21 -105 35q-73 11 -121.5 21.5t-71.5 18.5q-105 31 -105 96q0 83 82 168q80 84 174 102 q48 11 139.5 16t225.5 5h24q17 0 17 -35v-79q0 -35 -17 -35h-125q-430 0 -430 -82q0 -31 186 -56q69 -8 113 -18t62 -23q15 -10 23.5 -30.5t6.5 -51.5q-9 -335 -663 -335q-181 0 -293 76q-130 87 -130 259zM443 -822l101 100l102 -100l-100 -105zM444 -1048l101 100 l103 -100l-101 -104z" />
<glyph unicode="&#x6cc;" horiz-adv-x="1348" arabic-form="final" d="M103 -261q0 64 12.5 125.5t39.5 119.5q48 103 83 103q23 0 23 -20q0 3 -35 -76q-34 -78 -34 -162q0 -155 117 -218q100 -59 319 -59q102 0 188 11.5t160 34.5q138 41 135 89q0 21 -105 35q-73 11 -121.5 21.5t-71.5 18.5q-105 31 -105 96q0 83 82 168q80 84 174 102 q48 11 139.5 16t225.5 5h24q17 0 17 -35v-79q0 -35 -17 -35h-125q-430 0 -430 -82q0 -31 186 -56q69 -8 113 -18t62 -23q15 -10 23.5 -30.5t6.5 -51.5q-9 -335 -663 -335q-181 0 -293 76q-130 87 -130 259z" />
<glyph unicode="&#x6cc;" horiz-adv-x="449" arabic-form="initial" d="M-41 35v79q0 35 36 35h23q284 0 284 69q0 73 -85 179l68 151q95 -135 95 -276q0 -156 -85 -216q-78 -56 -260 -56h-40q-36 0 -36 35zM-28 -313l101 100l102 -100l-100 -104zM214 -313l101 100l103 -100l-101 -104z" />
<glyph unicode="&#x6cc;" horiz-adv-x="621" arabic-form="medial" d="M-41 35v79q0 35 36 35h139q167 0 190 203q0 27 25 27q24 0 24 -27q23 -203 189 -203h64q17 0 17 -35v-79q0 -35 -17 -35h-24q-52 0 -91.5 5.5t-65.5 19.5q-60 26 -95 103q-35 -73 -123 -103q-36 -14 -88 -19.5t-121 -5.5h-23q-36 0 -36 35zM76 -289l101 100l102 -100 l-100 -104zM318 -289l101 100l103 -100l-101 -104z" />
<glyph unicode="&#xfc5d;" horiz-adv-x="1364" arabic-form="isolated" d="M103 -151q0 -198 130 -297q112 -85 300 -85q221 0 451 90q229 88 229 337q0 49 -24 72q-26 27 -97 41l-177 38q-125 25 -125 80q0 74 103 170q116 104 229 104q29 0 58.5 -7t58.5 -19q30 -13 44 -18.5t12 -5.5q15 0 15 20q0 64 -49 121q-26 30 -59.5 44t-72.5 14 q-156 0 -300 -198q-128 -174 -128 -305q0 -62 28 -86q10 -10 32 -19t57 -16l228 -49q47 -10 61 -17q28 -13 28 -50q0 -67 -203 -125q-194 -56 -363 -56q-377 0 -377 311q0 85 34 163q35 79 35 76q0 20 -21 20q-34 0 -82 -94q-55 -111 -55 -254zM428 746l47 85 q32 -51 52 -118t20 -117q0 -45 -17 -88q-8 -19 -16.5 -31t-13.5 -12q-8 0 -8 9q0 6 2 17q3 17 3 39q0 42 -20 104t-49 112z" />
<glyph unicode="&#xfc5e;" arabic-form="isolated" d="M-322 419q0 55 43 89q18 14 36.5 21t39.5 7q71 0 71 -85q0 -35 -4 -60t-13 -40q13 -2 35 2t51 15q67 25 98 69q-40 4 -70 30q-36 27 -36 64q0 53 51 107q51 56 104 56q14 0 26 -9t20.5 -23t13.5 -32t5 -37q0 -38 -5 -63t-15 -41q19 -9 56 -9q-11 -27 -21 -42.5t-20 -23.5 l-58 8q-80 -137 -293 -153q13 29 20 60t7 65q0 54 -57 54q-31 0 -85 -29zM-180 105q0 68 27 97q23 23 36 15q-7 -13 -11 -29t-4 -36q0 -39 30 -39q37 0 56 55l24 80l37 21q0 -88 49 -88q37 0 37 30q0 70 7 87q7 16 18.5 24.5t26.5 13.5l-6 -70q-1 -17 -4 -44t-10 -63 q-26 -76 -96 -76q-32 0 -44 11q-58 -80 -107 -80q-66 0 -66 91zM-11 569q0 -42 99 -72q7 10 11 22t4 28q0 71 -47 71q-13 0 -25 -4.5t-21.5 -11.5t-15 -16t-5.5 -17z" />
<glyph unicode="&#xfc5f;" arabic-form="isolated" d="M-162 443q0 35 7 59t21 38q25 23 38 14q-17 -25 -17 -64q0 -40 29 -40q38 0 59 56q4 21 9 42.5t12 44.5l38 21q0 -94 49 -94q37 0 37 29q0 77 6 92q16 36 48 44l-6 -71q-1 -20 -5 -49t-12 -68q-25 -77 -93 -77q-12 0 -25.5 3t-27.5 10q-44 -82 -100 -82q-67 0 -67 92z M-158 -4l19 79l348 176l-19 -77zM-157 134l20 78l348 177l-19 -78z" />
<glyph unicode="&#xfc60;" arabic-form="isolated" d="M-187 273l20 86l349 178l-21 -87zM-177 88q0 36 7 60t21 38q22 24 35 14q-14 -25 -14 -64q0 -40 30 -40q35 0 55 56l25 87l37 21q0 -95 48 -95q38 0 38 30q0 79 5 92q8 17 19.5 28.5t27.5 15.5l-6 -71q-2 -20 -4.5 -49t-10.5 -68q-26 -77 -95 -77q-26 0 -52 13 q-46 -82 -99 -82q-67 0 -67 91z" />
<glyph unicode="&#xfc61;" arabic-form="isolated" d="M-239 298q100 23 165.5 50t94.5 59q-14 2 -29 10.5t-32 22.5q-21 19 -32 36t-11 35q0 52 54 109q55 55 110 55q34 0 55 -26.5t21 -69.5q0 -58 -37 -125q24 -15 67 -15l-48 -70q-11 0 -27.5 4.5t-39.5 11.5q-16 -23 -39 -42t-55 -35q-74 -37 -160 -37q-39 0 -57 27z M-167 99q0 36 7 59.5t21 38.5q22 23 35 14q-14 -25 -14 -64q0 -40 30 -40q35 0 55 56l25 87l37 21q0 -95 48 -95q38 0 38 30q0 79 5 92q8 17 20 28.5t27 15.5l-6 -71q-2 -20 -4.5 -49t-9.5 -68q-28 -77 -96 -77q-26 0 -52 13q-46 -82 -99 -82q-67 0 -67 91zM-12 551 q0 -49 93 -82q16 16 16 65q0 65 -48 65q-9 0 -19.5 -4t-20 -11t-15.5 -15.5t-6 -17.5z" />
<glyph unicode="&#xfc62;" arabic-form="isolated" d="M-172 294q0 69 30 99q22 22 37 13q-17 -26 -17 -63q0 -39 28 -39q40 0 60 54q5 21 10 43t12 44l36 23q0 -98 50 -98q37 0 37 30q0 79 6 94q16 36 49 45l-6 -71q-2 -20 -6 -49.5t-11 -68.5q-26 -76 -93 -76q-24 0 -55 11q-44 -82 -98 -82q-69 0 -69 91zM-167 -2l20 80 l348 175l-19 -76z" />
<glyph unicode="&#xfc63;" arabic-form="isolated" d="M-158 122q0 68 27 97q21 24 35 15q-7 -13 -10.5 -28.5t-3.5 -36.5q0 -39 30 -39q37 0 55 56l25 87l37 21q0 -96 49 -96q37 0 37 30q0 40 1.5 62t3.5 30q16 36 47 45l-6 -71q-2 -20 -4.5 -49.5t-9.5 -67.5q-27 -77 -96 -77q-26 0 -52 13q-46 -82 -99 -82q-66 0 -66 91z M-76 584l62 88q23 -65 34.5 -120t11.5 -103q0 -69 -18.5 -97t-47.5 -28q11 18 11 61q0 24 -5 53.5t-15 65.5q-9 27 -17 47.5t-16 32.5z" />
<glyph unicode="&#xfcf2;" horiz-adv-x="425" arabic-form="medial" d="M-41 35v79q0 35 36 35h434q19 0 19 -35v-79q0 -35 -19 -35h-434q-36 0 -36 35zM41 509l21 77l348 177l-21 -78zM56 349q0 36 7 60t21 38q22 24 35 14q-14 -25 -14 -64t30 -39q36 0 55 55l25 87l37 21q0 -95 48 -95q38 0 38 30q0 79 5 92q8 17 19.5 28.5t26.5 15.5l-5 -71 q-2 -20 -4.5 -49t-10.5 -68q-26 -76 -95 -76q-12 0 -25 2.5t-27 9.5q-46 -82 -99 -82q-67 0 -67 91z" />
<glyph unicode="&#xfcf3;" horiz-adv-x="425" arabic-form="medial" d="M-41 35v79q0 35 36 35h434q19 0 19 -35v-79q0 -35 -19 -35h-434q-36 0 -36 35zM-24 551q202 45 261 109q-28 4 -61 33q-43 37 -43 71q0 52 54 109q55 55 110 55q33 0 54.5 -26.5t21.5 -69.5q0 -56 -37 -125q24 -15 67 -15l-48 -70q-12 0 -28 4.5t-39 11.5 q-16 -23 -39 -42.5t-55 -34.5q-74 -37 -160 -37q-39 0 -58 27zM49 352q0 68 27 98q23 23 36 14q-7 -12 -11 -28t-4 -37q0 -39 30 -39q36 0 56 56l24 87l38 21q0 -95 48 -95q37 0 37 30q0 77 6 92q8 17 19.5 28.5t26.5 15.5l-5 -71q-2 -20 -5 -49t-10 -68q-26 -77 -95 -77 q-26 0 -52 13q-46 -82 -99 -82q-67 0 -67 91zM204 804q0 -49 93 -82q16 16 16 65q0 65 -48 65q-9 0 -19.5 -4t-20 -11t-15.5 -15.5t-6 -17.5z" />
<glyph unicode="&#xfcf4;" horiz-adv-x="425" arabic-form="medial" d="M-41 35v79q0 35 36 35h434q19 0 19 -35v-79q0 -35 -19 -35h-434q-36 0 -36 35zM32 537q0 69 30 99q11 11 20.5 14t16.5 -1q-17 -26 -17 -63q0 -39 28 -39q40 0 60 54q5 21 10 43t12 44l35 23q0 -98 51 -98q37 0 37 30q0 79 6 94q16 35 48 45l-5 -71q-2 -20 -6 -49.5 t-11 -68.5q-26 -76 -93 -76q-25 0 -55 11q-44 -82 -98 -82q-69 0 -69 91zM37 250l19 71l349 175l-19 -66z" />
<glyph unicode="&#xfe71;" horiz-adv-x="425" arabic-form="medial" d="M-41 35v79q0 35 36 35h434q19 0 19 -35v-79q0 -35 -19 -35h-434q-36 0 -36 35zM26 247l19 78l349 176l-19 -77zM28 384l19 78l349 178l-19 -79z" />
<glyph unicode="&#xfe77;" horiz-adv-x="425" arabic-form="medial" d="M-41 35v79q0 35 36 35h434q19 0 19 -35v-79q0 -35 -19 -35h-434q-36 0 -36 35zM17 237l21 77l349 177l-21 -78z" />
<glyph unicode="&#xfe79;" horiz-adv-x="425" arabic-form="medial" d="M-41 35v79q0 35 36 35h434q19 0 19 -35v-79q0 -35 -19 -35h-434q-36 0 -36 35zM-15 300q101 23 166.5 50t94.5 59q-26 6 -61 34q-21 19 -32 36t-11 35q0 52 54 108q55 56 110 56q33 0 54.5 -26.5t21.5 -70.5q0 -56 -37 -124q26 -16 67 -16l-48 -69q-11 0 -27.5 4.5 t-39.5 11.5q-16 -23 -39 -42.5t-55 -34.5q-74 -37 -160 -37q-38 0 -58 26zM213 553q0 -48 93 -82q16 16 16 66q0 65 -48 65q-9 0 -19.5 -4t-20 -11t-15.5 -16t-6 -18z" />
<glyph unicode="&#xfe7b;" horiz-adv-x="425" arabic-form="medial" d="M-41 35v79q0 35 36 35h434q19 0 19 -35v-79q0 -35 -19 -35h-434q-36 0 -36 35zM25 -337l20 78l349 177l-21 -78z" />
<glyph unicode="&#xfe7d;" horiz-adv-x="425" arabic-form="medial" d="M-41 35v79q0 35 36 35h434q19 0 19 -35v-79q0 -35 -19 -35h-434q-36 0 -36 35zM42 346q0 69 30 99q11 11 20.5 14t16.5 -1q-17 -26 -17 -63q0 -39 28 -39q40 0 60 53l10 44t12 44l36 23q0 -98 50 -98q37 0 37 30q0 79 6 94q16 35 48 45l-5 -71q-2 -20 -6 -49.5t-11 -68.5 q-26 -76 -93 -76q-13 0 -27 2.5t-28 8.5q-44 -82 -98 -82q-69 0 -69 91z" />
<glyph unicode="&#xfe7f;" horiz-adv-x="425" arabic-form="medial" d="M-41 35v79q0 35 36 35h434q19 0 19 -35v-79q0 -35 -19 -35h-434q-36 0 -36 35zM65 412q0 86 48 146q38 63 94 63q26 0 49.5 -12t41.5 -32.5t28.5 -49t10.5 -61.5q0 -34 -13.5 -64t-36 -52t-52 -35t-62.5 -13q-108 0 -108 110zM115 451q0 -61 78 -61q65 0 97 43 q0 43 -35 72q-31 28 -68 28q-15 0 -28.5 -7t-24.5 -23q-19 -23 -19 -52z" />
<glyph unicode="&#x621;" horiz-adv-x="621" arabic-form="isolated" d="M91 64q0 58 94 121q-68 47 -68 105q0 88 75 166.5t164 78.5q62 0 96 -34q30 -29 30 -72q0 -29 -20 -43q-40 46 -121 46q-64 0 -105 -23q-37 -20 -37 -50q0 -32 39 -71q44 -42 100 -42q110 0 208 52l-41 -122q-113 -22 -208 -51q-136 -41 -201 -109q-5 23 -5 48z" />
<glyph unicode="&#x622;" horiz-adv-x="487" arabic-form="final" d="M-10 1310q0 16 22 65q24 54 42 54q25 0 74.5 -8.5t74.5 -8.5q110 0 164 15q29 8 38 8q8 0 8 -5q0 -8 -26 -29q-83 -68 -206 -68q-18 0 -54 4.5t-54 4.5q-12 0 -34.5 -28t-31.5 -28q-17 0 -17 24zM140 1142l108 103q13 -137 18.5 -378.5t7.5 -587.5q0 -65 65 -102 q47 -28 95 -28h60q15 0 15 -35v-79q0 -35 -15 -35h-34q-121 0 -197 62q-40 32 -59 77t-21 105q-3 248 -14 471t-29 427z" />
<glyph unicode="&#x623;" horiz-adv-x="438" arabic-form="final" d="M48 1284q0 47 60 82q-42 27 -42 81q0 49 50 101q50 50 110 50q81 0 81 -70q0 -8 -3 -14t-8 -12q-33 27 -83 27q-93 0 -93 -46q0 -14 8 -28t20 -24.5t27 -17t29 -6.5q75 0 146 34l-29 -81q-16 -2 -40.5 -7.5t-56.5 -13.5q-65 -17 -106.5 -40t-61.5 -50q-8 18 -8 35z M140 1142l108 103q13 -137 18.5 -378.5t7.5 -587.5q0 -65 65 -102q47 -28 95 -28h60q15 0 15 -35v-79q0 -35 -15 -35h-34q-121 0 -197 62q-40 32 -59 77t-21 105q-3 248 -14 471t-29 427z" />
<glyph unicode="&#x624;" horiz-adv-x="727" arabic-form="final" d="M0 -475q0 11 28 18q196 54 335 189q80 75 124 158q33 64 33 99v16q-21 -2 -52.5 -3.5t-74.5 -1.5q-64 0 -109 9t-73 29t-40.5 52t-12.5 77q0 57 14 111t40 108q33 60 71 90.5t84 30.5q95 0 154 -110q55 -97 70 -248h142q16 0 16 -35v-79q0 -35 -16 -35h-144 q0 -142 -112 -328q-35 -57 -64.5 -95t-53.5 -56q-35 -26 -100 -26q-37 0 -77 2.5t-86 6.5q-96 9 -96 21zM205 648q0 47 60 82q-42 27 -42 81q0 49 50 101q50 50 110 50q81 0 81 -70q0 -8 -3 -14t-8 -12q-33 27 -83 27q-93 0 -93 -46q0 -14 8 -28t20 -24.5t27 -17t29 -6.5 q75 0 146 34l-29 -81q-16 -2 -40.5 -7.5t-56.5 -13.5q-65 -17 -106.5 -40t-61.5 -50q-8 18 -8 35zM237 244q0 -95 158 -95h106q-1 35 -13.5 69.5t-34.5 66.5q-48 73 -104 73q-23 0 -43.5 -8.5t-35.5 -24t-24 -36.5t-9 -45z" />
<glyph unicode="&#x625;" horiz-adv-x="487" arabic-form="final" d="M140 1142l108 103q13 -137 18.5 -378.5t7.5 -587.5q0 -65 65 -102q47 -28 95 -28h60q15 0 15 -35v-79q0 -35 -15 -35h-34q-121 0 -197 62q-40 32 -59 77t-21 105q-3 248 -14 471t-29 427zM172 -499q0 47 60 82q-42 27 -42 81q0 49 50 101q50 50 110 50q81 0 81 -70 q0 -8 -3 -14t-8 -12q-33 27 -83 27q-93 0 -93 -46q0 -14 8 -28t20 -24.5t27 -17t29 -6.5q75 0 146 34l-29 -81q-16 -2 -40.5 -7.5t-56.5 -13.5q-65 -17 -106.5 -40t-61.5 -50q-8 18 -8 35z" />
<glyph unicode="&#x626;" horiz-adv-x="1348" arabic-form="final" d="M103 -261q0 64 12.5 125.5t39.5 119.5q48 103 83 103q23 0 23 -20q0 3 -35 -76q-34 -78 -34 -162q0 -155 117 -218q100 -59 319 -59q102 0 188 11.5t160 34.5q138 41 135 89q0 21 -105 35q-73 11 -121.5 21.5t-71.5 18.5q-105 31 -105 96q0 83 82 168q80 84 174 102 q48 11 139.5 16t225.5 5h24q17 0 17 -35v-79q0 -35 -17 -35h-125q-430 0 -430 -82q0 -31 186 -56q69 -8 113 -18t62 -23q15 -10 23.5 -30.5t6.5 -51.5q-9 -335 -663 -335q-181 0 -293 76q-130 87 -130 259zM385 236q0 47 60 82q-42 27 -42 81q0 49 50 101q50 50 110 50 q81 0 81 -70q0 -8 -3 -14t-8 -12q-33 27 -83 27q-93 0 -93 -46q0 -14 8 -28t20 -24.5t27 -17t29 -6.5q75 0 146 34l-29 -81q-16 -2 -40.5 -7.5t-56.5 -13.5q-65 -17 -106.5 -40t-61.5 -50q-8 18 -8 35z" />
<glyph unicode="&#x626;" horiz-adv-x="413" arabic-form="initial" d="M-41 35v79q0 35 36 35h23q284 0 284 69q0 73 -85 179l68 151q95 -135 95 -276q0 -156 -85 -216q-78 -56 -260 -56h-40q-36 0 -36 35zM44 671q0 47 60 82q-42 27 -42 81q0 49 50 101q50 50 110 50q81 0 81 -70q0 -8 -3 -14t-8 -12q-33 27 -83 27q-93 0 -93 -46 q0 -14 8 -28t20 -24.5t27 -17t29 -6.5q75 0 146 34l-29 -81q-16 -2 -40.5 -7.5t-56.5 -13.5q-65 -17 -106.5 -40t-61.5 -50q-8 18 -8 35z" />
<glyph unicode="&#x626;" horiz-adv-x="621" arabic-form="medial" d="M-41 35v79q0 35 36 35h139q167 0 190 203q0 27 25 27q24 0 24 -27q23 -203 189 -203h64q17 0 17 -35v-79q0 -35 -17 -35h-24q-52 0 -91.5 5.5t-65.5 19.5q-60 26 -95 103q-35 -73 -123 -103q-36 -14 -88 -19.5t-121 -5.5h-23q-36 0 -36 35zM181 550q0 47 60 82 q-42 27 -42 81q0 49 50 101q50 50 110 50q81 0 81 -70q0 -8 -3 -14t-8 -12q-33 27 -83 27q-93 0 -93 -46q0 -14 8 -28t20 -24.5t27 -17t29 -6.5q75 0 146 34l-29 -81q-16 -2 -40.5 -7.5t-56.5 -13.5q-65 -17 -106.5 -40t-61.5 -50q-8 18 -8 35z" />
<glyph unicode="&#x627;" horiz-adv-x="414" arabic-form="isolated" d="M140 1124l125 121l20 -1023q2 -44 -5 -88.5t-21 -92.5q-26 -82 -41 -82q-7 0 -19 187z" />
<glyph unicode="&#x627;" horiz-adv-x="487" arabic-form="final" d="M140 1142l108 103q13 -137 18.5 -378.5t7.5 -587.5q0 -65 65 -102q47 -28 95 -28h60q15 0 15 -35v-79q0 -35 -15 -35h-34q-121 0 -197 62q-40 32 -59 77t-21 105q-3 248 -14 471t-29 427z" />
<glyph unicode="&#x628;" horiz-adv-x="1499" arabic-form="final" d="M112 268q0 41 8.5 81t26.5 78q31 71 54 71q26 0 26 -25q0 -2 -4 -12.5t-15 -33.5q-18 -42 -18 -86q0 -205 416 -205q134 0 246.5 15.5t204.5 45.5q136 48 188 114q68 89 91 89q24 0 24 -25q0 -5 -2.5 -18.5t-7.5 -34.5q-12 -41 -12 -64q0 -109 142 -109h24q17 0 17 -35 v-79q0 -35 -17 -35h-32q-182 0 -213 181q-203 -194 -692 -194q-455 0 -455 281zM530 -292l105 107l102 -107l-102 -106z" />
<glyph unicode="&#x628;" horiz-adv-x="413" arabic-form="initial" d="M-41 35v79q0 35 36 35h23q284 0 284 69q0 73 -85 179l68 151q95 -135 95 -276q0 -156 -85 -216q-78 -56 -260 -56h-40q-36 0 -36 35zM65 -270l105 107l102 -107l-102 -106z" />
<glyph unicode="&#x628;" horiz-adv-x="621" arabic-form="medial" d="M-41 35v79q0 35 36 35h139q167 0 190 203q0 27 25 27q24 0 24 -27q23 -203 189 -203h64q17 0 17 -35v-79q0 -35 -17 -35h-24q-52 0 -91.5 5.5t-65.5 19.5q-60 26 -95 103q-35 -73 -123 -103q-36 -14 -88 -19.5t-121 -5.5h-23q-36 0 -36 35zM218 -281l105 107l102 -107 l-102 -106z" />
<glyph unicode="&#x629;" horiz-adv-x="775" arabic-form="final" d="M97 960l101 100l102 -100l-100 -104zM103 215q0 27 7 58t22 65q31 69 75 100q52 38 114 73t134 70l-28 122l82 95l103 -487q9 -48 22 -80t28 -50q30 -32 83 -32h36q17 0 17 -35v-79q0 -35 -17 -35h-25q-108 0 -156 54q-40 43 -61 156l-110 -98q-22 -2 -48 -3t-57 -1 q-221 0 -221 107zM181 309q0 -65 216 -65q81 0 129 12l-51 219q-66 -19 -120.5 -44t-100.5 -54q-73 -48 -73 -68zM339 960l101 100l103 -100l-101 -104z" />
<glyph unicode="&#x62a;" horiz-adv-x="1499" arabic-form="final" d="M112 268q0 41 8.5 81t26.5 78q31 71 54 71q26 0 26 -25q0 -2 -4 -12.5t-15 -33.5q-18 -42 -18 -86q0 -205 416 -205q134 0 246.5 15.5t204.5 45.5q136 48 188 114q68 89 91 89q24 0 24 -25q0 -5 -2.5 -18.5t-7.5 -34.5q-12 -41 -12 -64q0 -109 142 -109h24q17 0 17 -35 v-79q0 -35 -17 -35h-32q-182 0 -213 181q-203 -194 -692 -194q-455 0 -455 281zM498 743l101 100l102 -100l-100 -104zM740 743l101 100l103 -100l-101 -104z" />
<glyph unicode="&#x62a;" horiz-adv-x="449" arabic-form="initial" d="M-41 35v79q0 35 36 35h23q284 0 284 69q0 73 -85 179l68 151q95 -135 95 -276q0 -156 -85 -216q-78 -56 -260 -56h-40q-36 0 -36 35zM-33 796l101 100l102 -100l-100 -104zM209 796l101 100l103 -100l-101 -104z" />
<glyph unicode="&#x62a;" horiz-adv-x="621" arabic-form="medial" d="M-41 35v79q0 35 36 35h139q167 0 190 203q0 27 25 27q24 0 24 -27q23 -203 189 -203h64q17 0 17 -35v-79q0 -35 -17 -35h-24q-52 0 -91.5 5.5t-65.5 19.5q-60 26 -95 103q-35 -73 -123 -103q-36 -14 -88 -19.5t-121 -5.5h-23q-36 0 -36 35zM100 697l101 100l102 -100 l-100 -104zM342 697l101 100l103 -100l-101 -104z" />
<glyph unicode="&#x62b;" horiz-adv-x="1499" arabic-form="final" d="M112 268q0 41 8.5 81t26.5 78q31 71 54 71q26 0 26 -25q0 -2 -4 -12.5t-15 -33.5q-18 -42 -18 -86q0 -205 416 -205q134 0 246.5 15.5t204.5 45.5q136 48 188 114q68 89 91 89q24 0 24 -25q0 -5 -2.5 -18.5t-7.5 -34.5q-12 -41 -12 -64q0 -109 142 -109h24q17 0 17 -35 v-79q0 -35 -17 -35h-32q-182 0 -213 181q-203 -194 -692 -194q-455 0 -455 281zM501 752l105 106l103 -106l-103 -106zM622 968l105 107l103 -107l-105 -106zM743 752l105 106l103 -106l-103 -106z" />
<glyph unicode="&#x62b;" horiz-adv-x="413" arabic-form="initial" d="M-46 812l105 106l103 -106l-103 -106zM-41 35v79q0 35 36 35h23q284 0 284 69q0 73 -85 179l68 151q95 -135 95 -276q0 -156 -85 -216q-78 -56 -260 -56h-40q-36 0 -36 35zM75 1028l105 107l103 -107l-105 -106zM196 812l105 106l103 -106l-103 -106z" />
<glyph unicode="&#x62b;" horiz-adv-x="621" arabic-form="medial" d="M-41 35v79q0 35 36 35h139q167 0 190 203q0 27 25 27q24 0 24 -27q23 -203 189 -203h64q17 0 17 -35v-79q0 -35 -17 -35h-24q-52 0 -91.5 5.5t-65.5 19.5q-60 26 -95 103q-35 -73 -123 -103q-36 -14 -88 -19.5t-121 -5.5h-23q-36 0 -36 35zM106 683l105 106l103 -106 l-103 -106zM227 899l105 107l103 -107l-105 -106zM348 683l105 106l103 -106l-103 -106z" />
<glyph unicode="&#x62c;" horiz-adv-x="1154" arabic-form="final" d="M121 -179q3 385 503 572v9q-102 16 -181 23t-134 7q-63 0 -110 -44q-48 -45 -53 -45q-16 0 -16 18q0 63 58 137q65 83 146 83q42 0 108.5 -8t159.5 -25q191 -33 270 -36l194 -3l-61 -142l-161 -8q-1 -15 -2 -29t-1 -26q0 -92 59 -125q28 -16 77 -23t119 -7h63 q17 0 17 -35v-79q0 -35 -17 -35h-80q-85 0 -143 15.5t-93 44.5q-64 52 -64 178q0 24 2.5 52t6.5 60q-114 -28 -207.5 -67t-168.5 -91q-202 -137 -202 -322q0 -311 532 -311q54 0 115 6.5t130 18.5q64 12 95 17.5t29 7.5q6 0 6 -9q0 -38 -114 -101q-144 -84 -329 -84 q-556 0 -553 406zM475 -98l105 107l102 -107l-102 -106z" />
<glyph unicode="&#x62c;" horiz-adv-x="1131" arabic-form="initial" d="M-41 35v79q0 35 36 35h23q78 0 228 27q65 11 176 52.5t273 114.5v9q-307 128 -398 128q-65 0 -110 -44q-24 -20 -37 -31.5t-18 -11.5q-15 0 -15 19q0 60 59 134q63 84 144 84q43 0 138.5 -33t247.5 -99q81 -35 173.5 -54t199.5 -21l-69 -136h-67q-44 0 -80.5 -5.5 t-68.5 -14.5q-38 -14 -104.5 -45t-163.5 -80q-140 -72 -261 -107t-230 -35h-40q-36 0 -36 35zM379 -234l105 107l102 -107l-102 -106z" />
<glyph unicode="&#x62c;" horiz-adv-x="1137" arabic-form="medial" d="M-41 35v79q0 35 36 35h23q166 0 349 71q55 21 134.5 61t188.5 98v9q-174 47 -275 69.5t-130 22.5q-64 0 -109 -44q-24 -20 -38 -31.5t-17 -11.5q-15 0 -15 19q0 60 58 134q64 84 145 84q38 0 83 -8.5t97 -27.5q82 -28 132.5 -44.5t70.5 -21.5q71 -19 146.5 -27.5 t158.5 -8.5h90l-61 -143q-59 10 -150 -6l-1 -55q-8 -139 204 -139h63q17 0 17 -35v-79q0 -35 -17 -35h-24q-307 0 -307 215q0 72 9 111q-89 -36 -336 -186q-113 -71 -229.5 -105.5t-236.5 -34.5h-23q-36 0 -36 35zM456 -256l105 107l102 -107l-102 -106z" />
<glyph unicode="&#x62d;" horiz-adv-x="1154" arabic-form="final" d="M121 -179q3 385 503 572v9q-102 16 -181 23t-134 7q-63 0 -110 -44q-48 -45 -53 -45q-16 0 -16 18q0 63 58 137q65 83 146 83q42 0 108.5 -8t159.5 -25q191 -33 270 -36l194 -3l-61 -142l-161 -8q-1 -15 -2 -29t-1 -26q0 -92 59 -125q28 -16 77 -23t119 -7h63 q17 0 17 -35v-79q0 -35 -17 -35h-80q-85 0 -143 15.5t-93 44.5q-64 52 -64 178q0 24 2.5 52t6.5 60q-114 -28 -207.5 -67t-168.5 -91q-202 -137 -202 -322q0 -311 532 -311q54 0 115 6.5t130 18.5q64 12 95 17.5t29 7.5q6 0 6 -9q0 -38 -114 -101q-144 -84 -329 -84 q-556 0 -553 406z" />
<glyph unicode="&#x62d;" horiz-adv-x="1131" arabic-form="initial" d="M-41 35v79q0 35 36 35h23q78 0 228 27q65 11 176 52.5t273 114.5v9q-307 128 -398 128q-65 0 -110 -44q-24 -20 -37 -31.5t-18 -11.5q-15 0 -15 19q0 60 59 134q63 84 144 84q43 0 138.5 -33t247.5 -99q81 -35 173.5 -54t199.5 -21l-69 -136h-67q-44 0 -80.5 -5.5 t-68.5 -14.5q-38 -14 -104.5 -45t-163.5 -80q-140 -72 -261 -107t-230 -35h-40q-36 0 -36 35z" />
<glyph unicode="&#x62d;" horiz-adv-x="1137" arabic-form="medial" d="M-41 35v79q0 35 36 35h23q166 0 349 71q55 21 134.5 61t188.5 98v9q-174 47 -275 69.5t-130 22.5q-64 0 -109 -44q-24 -20 -38 -31.5t-17 -11.5q-15 0 -15 19q0 60 58 134q64 84 145 84q38 0 83 -8.5t97 -27.5q82 -28 132.5 -44.5t70.5 -21.5q71 -19 146.5 -27.5 t158.5 -8.5h90l-61 -143q-59 10 -150 -6l-1 -55q-8 -139 204 -139h63q17 0 17 -35v-79q0 -35 -17 -35h-24q-307 0 -307 215q0 72 9 111q-89 -36 -336 -186q-113 -71 -229.5 -105.5t-236.5 -34.5h-23q-36 0 -36 35z" />
<glyph unicode="&#x62e;" horiz-adv-x="1154" arabic-form="final" d="M121 -179q3 385 503 572v9q-102 16 -181 23t-134 7q-63 0 -110 -44q-48 -45 -53 -45q-16 0 -16 18q0 63 58 137q65 83 146 83q42 0 108.5 -8t159.5 -25q191 -33 270 -36l194 -3l-61 -142l-161 -8q-1 -15 -2 -29t-1 -26q0 -92 59 -125q28 -16 77 -23t119 -7h63 q17 0 17 -35v-79q0 -35 -17 -35h-80q-85 0 -143 15.5t-93 44.5q-64 52 -64 178q0 24 2.5 52t6.5 60q-114 -28 -207.5 -67t-168.5 -91q-202 -137 -202 -322q0 -311 532 -311q54 0 115 6.5t130 18.5q64 12 95 17.5t29 7.5q6 0 6 -9q0 -38 -114 -101q-144 -84 -329 -84 q-556 0 -553 406zM480 855l105 107l102 -107l-102 -106z" />
<glyph unicode="&#x62e;" horiz-adv-x="1131" arabic-form="initial" d="M-41 35v79q0 35 36 35h23q78 0 228 27q65 11 176 52.5t273 114.5v9q-307 128 -398 128q-65 0 -110 -44q-24 -20 -37 -31.5t-18 -11.5q-15 0 -15 19q0 60 59 134q63 84 144 84q43 0 138.5 -33t247.5 -99q81 -35 173.5 -54t199.5 -21l-69 -136h-67q-44 0 -80.5 -5.5 t-68.5 -14.5q-38 -14 -104.5 -45t-163.5 -80q-140 -72 -261 -107t-230 -35h-40q-36 0 -36 35zM464 855l105 107l102 -107l-102 -106z" />
<glyph unicode="&#x62e;" horiz-adv-x="1137" arabic-form="medial" d="M-41 35v79q0 35 36 35h23q166 0 349 71q55 21 134.5 61t188.5 98v9q-174 47 -275 69.5t-130 22.5q-64 0 -109 -44q-24 -20 -38 -31.5t-17 -11.5q-15 0 -15 19q0 60 58 134q64 84 145 84q38 0 83 -8.5t97 -27.5q82 -28 132.5 -44.5t70.5 -21.5q71 -19 146.5 -27.5 t158.5 -8.5h90l-61 -143q-59 10 -150 -6l-1 -55q-8 -139 204 -139h63q17 0 17 -35v-79q0 -35 -17 -35h-24q-307 0 -307 215q0 72 9 111q-89 -36 -336 -186q-113 -71 -229.5 -105.5t-236.5 -34.5h-23q-36 0 -36 35zM441 901l105 107l102 -107l-102 -106z" />
<glyph unicode="&#x62f;" horiz-adv-x="956" arabic-form="final" d="M112 196q0 68 20 117q18 39 35 39q20 0 20 -24q0 -4 -1.5 -12.5t-3 -19t-2.5 -21t-1 -16.5q0 -110 200 -110q295 0 295 114q0 15 -19 71t-61 153q-80 193 -80 210l75 132q29 -88 78 -224.5t119 -325.5q24 -57 54.5 -90t68.5 -40h53q16 0 16 -35v-79q0 -35 -16 -35h-25 q-74 0 -121 35q-44 31 -106 129q-17 -46 -48.5 -79.5t-78.5 -50.5q-74 -34 -224 -34q-247 0 -247 196z" />
<glyph unicode="&#x630;" horiz-adv-x="956" arabic-form="final" d="M112 196q0 68 20 117q18 39 35 39q20 0 20 -24q0 -4 -1.5 -12.5t-3 -19t-2.5 -21t-1 -16.5q0 -110 200 -110q295 0 295 114q0 15 -19 71t-61 153q-80 193 -80 210l75 132q29 -88 78 -224.5t119 -325.5q24 -57 54.5 -90t68.5 -40h53q16 0 16 -35v-79q0 -35 -16 -35h-25 q-74 0 -121 35q-44 31 -106 129q-17 -46 -48.5 -79.5t-78.5 -50.5q-74 -34 -224 -34q-247 0 -247 196zM417 1058l105 107l102 -107l-102 -106z" />
<glyph unicode="&#x631;" horiz-adv-x="731" arabic-form="final" d="M0 -496q0 12 62 26q67 17 137.5 57.5t145.5 104.5q171 150 171 271q0 97 -128 213l69 141q20 -29 42 -53.5t45 -45.5q16 -16 36 -28t44 -23q45 -18 71 -18h41q17 0 17 -35v-79q0 -35 -17 -35h-24q-30 0 -63 7t-68 23q9 -37 6 -86q-3 -147 -114 -311q-103 -154 -175 -154 q-298 0 -298 25z" />
<glyph unicode="&#x632;" horiz-adv-x="731" arabic-form="final" d="M0 -496q0 12 62 26q67 17 137.5 57.5t145.5 104.5q171 150 171 271q0 97 -128 213l69 141q20 -29 42 -53.5t45 -45.5q16 -16 36 -28t44 -23q45 -18 71 -18h41q17 0 17 -35v-79q0 -35 -17 -35h-24q-30 0 -63 7t-68 23q9 -37 6 -86q-3 -147 -114 -311q-103 -154 -175 -154 q-298 0 -298 25zM308 616l105 107l102 -107l-102 -106z" />
<glyph unicode="&#x633;" horiz-adv-x="1924" arabic-form="final" d="M103 -197q0 64 12.5 125t39.5 118q48 105 83 105q23 0 23 -21q0 3 -35 -76q-34 -77 -34 -162q0 -265 350 -265q73 0 145 14t144 40q183 70 183 187q0 69 -28 132q-31 69 -120 188l77 144q28 -51 53.5 -86t52 -56.5t56 -31t65.5 -9.5q162 0 162 179q0 26 25 26 q24 0 24 -26q0 -69 28 -116q35 -63 112 -63q158 0 158 179q0 26 25 26q23 0 23 -26q0 -179 178 -179h24q17 0 17 -35v-79q0 -35 -17 -35h-24q-137 0 -205 114q-71 -114 -174 -114q-113 0 -171 119q-68 -119 -205 -119q-47 0 -76 13q3 -33 3 -102q0 -252 -229 -366 q-155 -78 -371 -78q-72 0 -134 18t-114 56q-63 47 -94.5 111.5t-31.5 150.5z" />
<glyph unicode="&#x633;" horiz-adv-x="1136" arabic-form="initial" d="M-41 35v79q0 35 36 35h50q227 0 227 179q0 26 25 26q23 0 23 -26q0 -179 164 -179q163 0 163 179q0 26 24 26t24 -26q0 -69 28 -116q35 -63 112 -63q38 0 70 5.5t59 16.5q48 24 48 47q0 83 -86 179l70 151q94 -138 94 -276q0 -123 -59 -194q-66 -78 -190 -78 q-114 0 -172 119q-70 -119 -205 -119q-47 0 -87.5 29.5t-78.5 89.5q-89 -119 -280 -119h-23q-36 0 -36 35z" />
<glyph unicode="&#x633;" horiz-adv-x="1238" arabic-form="medial" d="M-41 35v79q0 35 36 35h50q227 0 227 179q0 26 25 26q23 0 23 -26q0 -179 164 -179q163 0 163 179q0 26 24 26t24 -26q0 -69 28 -116q35 -63 112 -63q159 0 159 179q0 26 23 26q25 0 25 -26q0 -179 178 -179h23q16 0 16 -35v-79q0 -35 -16 -35h-25q-136 0 -204 114 q-38 -58 -81.5 -86t-91.5 -28q-114 0 -172 119q-70 -119 -205 -119q-47 0 -87.5 29.5t-78.5 89.5q-89 -119 -282 -119h-21q-36 0 -36 35z" />
<glyph unicode="&#x634;" horiz-adv-x="1924" arabic-form="final" d="M103 -197q0 64 12.5 125t39.5 118q48 105 83 105q23 0 23 -21q0 3 -35 -76q-34 -77 -34 -162q0 -265 350 -265q73 0 145 14t144 40q183 70 183 187q0 69 -28 132q-31 69 -120 188l77 144q28 -51 53.5 -86t52 -56.5t56 -31t65.5 -9.5q162 0 162 179q0 26 25 26 q24 0 24 -26q0 -69 28 -116q35 -63 112 -63q158 0 158 179q0 26 25 26q23 0 23 -26q0 -179 178 -179h24q17 0 17 -35v-79q0 -35 -17 -35h-24q-137 0 -205 114q-71 -114 -174 -114q-113 0 -171 119q-68 -119 -205 -119q-47 0 -76 13q3 -33 3 -102q0 -252 -229 -366 q-155 -78 -371 -78q-72 0 -134 18t-114 56q-63 47 -94.5 111.5t-31.5 150.5zM1119 697l105 106l103 -106l-103 -106zM1240 913l105 107l103 -107l-105 -106zM1361 697l105 106l103 -106l-103 -106z" />
<glyph unicode="&#x634;" horiz-adv-x="1136" arabic-form="initial" d="M-41 35v79q0 35 36 35h50q227 0 227 179q0 26 25 26q23 0 23 -26q0 -179 164 -179q163 0 163 179q0 26 24 26t24 -26q0 -69 28 -116q35 -63 112 -63q38 0 70 5.5t59 16.5q48 24 48 47q0 83 -86 179l70 151q94 -138 94 -276q0 -123 -59 -194q-66 -78 -190 -78 q-114 0 -172 119q-70 -119 -205 -119q-47 0 -87.5 29.5t-78.5 89.5q-89 -119 -280 -119h-23q-36 0 -36 35zM395 710l99 103l97 -103l-97 -102zM509 920l99 103l96 -103l-98 -103zM623 710l98 103l97 -103l-97 -102z" />
<glyph unicode="&#x634;" horiz-adv-x="1238" arabic-form="medial" d="M-41 35v79q0 35 36 35h50q227 0 227 179q0 26 25 26q23 0 23 -26q0 -179 164 -179q163 0 163 179q0 26 24 26t24 -26q0 -69 28 -116q35 -63 112 -63q159 0 159 179q0 26 23 26q25 0 25 -26q0 -179 178 -179h23q16 0 16 -35v-79q0 -35 -16 -35h-25q-136 0 -204 114 q-38 -58 -81.5 -86t-91.5 -28q-114 0 -172 119q-70 -119 -205 -119q-47 0 -87.5 29.5t-78.5 89.5q-89 -119 -282 -119h-21q-36 0 -36 35zM431 739l105 106l103 -106l-103 -106zM552 955l105 107l103 -107l-105 -106zM673 739l105 106l103 -106l-103 -106z" />
<glyph unicode="&#x635;" horiz-adv-x="1977" arabic-form="final" d="M103 -197q0 64 12.5 125t39.5 118q48 105 83 105q23 0 23 -21q0 3 -35 -76q-34 -77 -34 -162q0 -265 350 -265q73 0 145 14t144 40q183 70 183 187q0 59 -36.5 138t-111.5 182l77 144q53 -85 147 -142q200 197 332 278q68 40 131.5 61t123.5 21q45 0 83.5 -14.5t66 -41.5 t43 -64.5t15.5 -82.5q0 -86 -92 -205q18 4 38.5 5.5t43.5 1.5h108q17 0 17 -35v-79q0 -35 -17 -35h-25q-122 0 -231 21q-43 8 -76.5 12t-57.5 4q-4 0 -32 -4t-83 -15q-54 -10 -106.5 -14t-103.5 -4q-57 0 -105.5 8.5t-88.5 25.5q3 -44 3 -123q0 -252 -229 -366 q-155 -78 -371 -78q-72 0 -134 18t-114 56q-63 47 -94.5 111.5t-31.5 150.5zM1178 160q0 -11 67 -11q550 0 550 136q0 49 -56 88q-59 41 -136 41q-115 0 -302 -147q-123 -98 -123 -107z" />
<glyph unicode="&#x635;" horiz-adv-x="1300" arabic-form="initial" d="M-41 35v79q0 35 36 35h50q227 0 227 179q0 26 25 26q26 0 23 -26q-3 -73 34 -120q17 -22 38 -34.5t48 -16.5q118 116 204 191.5t140 111.5q132 90 262 90q45 0 83 -14.5t65.5 -41.5t42.5 -64.5t15 -82.5q0 -181 -199 -272q-165 -75 -418 -75q-86 0 -145 5.5t-91 17.5 q-65 24 -101 96q-89 -119 -280 -119h-23q-36 0 -36 35zM546 160q0 -11 67 -11q550 0 550 136q0 49 -58 88q-59 41 -134 41q-115 0 -302 -147q-123 -99 -123 -107z" />
<glyph unicode="&#x635;" horiz-adv-x="1346" arabic-form="medial" d="M-41 35v79q0 35 36 35h50q227 0 227 179q0 26 25 26q26 0 23 -26q-3 -73 34 -120q17 -22 38 -34.5t48 -16.5q118 116 204 191.5t140 111.5q132 90 262 90q45 0 83 -14.5t65.5 -41.5t42.5 -64.5t15 -82.5q0 -86 -91 -205q35 7 82 7h108q17 0 17 -35v-79q0 -35 -17 -35h-24 q-123 0 -231 21q-44 8 -77 12t-57 4q-5 0 -33 -4t-83 -15q-54 -10 -106.5 -14t-104.5 -4q-86 0 -145 5.5t-91 17.5q-65 24 -101 96q-89 -119 -280 -119h-23q-36 0 -36 35zM546 160q0 -11 67 -11q550 0 550 136q0 49 -58 88q-59 41 -134 41q-115 0 -302 -147 q-123 -99 -123 -107z" />
<glyph unicode="&#x636;" horiz-adv-x="1977" arabic-form="final" d="M103 -197q0 64 12.5 125t39.5 118q48 105 83 105q23 0 23 -21q0 3 -35 -76q-34 -77 -34 -162q0 -265 350 -265q73 0 145 14t144 40q183 70 183 187q0 59 -36.5 138t-111.5 182l77 144q53 -85 147 -142q200 197 332 278q68 40 131.5 61t123.5 21q45 0 83.5 -14.5t66 -41.5 t43 -64.5t15.5 -82.5q0 -86 -92 -205q18 4 38.5 5.5t43.5 1.5h108q17 0 17 -35v-79q0 -35 -17 -35h-25q-122 0 -231 21q-43 8 -76.5 12t-57.5 4q-4 0 -32 -4t-83 -15q-54 -10 -106.5 -14t-103.5 -4q-57 0 -105.5 8.5t-88.5 25.5q3 -44 3 -123q0 -252 -229 -366 q-155 -78 -371 -78q-72 0 -134 18t-114 56q-63 47 -94.5 111.5t-31.5 150.5zM1080 774l105 107l102 -107l-102 -106zM1178 160q0 -11 67 -11q550 0 550 136q0 49 -56 88q-59 41 -136 41q-115 0 -302 -147q-123 -98 -123 -107z" />
<glyph unicode="&#x636;" horiz-adv-x="1336" arabic-form="initial" d="M-41 35v79q0 35 36 35h50q227 0 227 179q0 26 25 26q26 0 23 -26q-3 -73 34 -120q17 -22 38 -34.5t48 -16.5q118 116 204 191.5t140 111.5q132 90 262 90q45 0 83 -14.5t65.5 -41.5t42.5 -64.5t15 -82.5q0 -181 -199 -272q-165 -75 -418 -75q-86 0 -145 5.5t-91 17.5 q-65 24 -101 96q-89 -119 -280 -119h-23q-36 0 -36 35zM438 806l105 107l102 -107l-102 -106zM546 160q0 -11 67 -11q550 0 550 136q0 49 -58 88q-59 41 -134 41q-115 0 -302 -147q-123 -99 -123 -107z" />
<glyph unicode="&#x636;" horiz-adv-x="1346" arabic-form="medial" d="M-41 35v79q0 35 36 35h50q227 0 227 179q0 26 25 26q26 0 23 -26q-3 -73 34 -120q17 -22 38 -34.5t48 -16.5q118 116 204 191.5t140 111.5q132 90 262 90q45 0 83 -14.5t65.5 -41.5t42.5 -64.5t15 -82.5q0 -86 -91 -205q35 7 82 7h108q17 0 17 -35v-79q0 -35 -17 -35h-24 q-123 0 -231 21q-44 8 -77 12t-57 4q-5 0 -33 -4t-83 -15q-54 -10 -106.5 -14t-104.5 -4q-86 0 -145 5.5t-91 17.5q-65 24 -101 96q-89 -119 -280 -119h-23q-36 0 -36 35zM438 798l105 107l102 -107l-102 -106zM546 160q0 -11 67 -11q550 0 550 136q0 49 -58 88 q-59 41 -134 41q-115 0 -302 -147q-123 -99 -123 -107z" />
<glyph unicode="&#x637;" horiz-adv-x="1400" arabic-form="final" d="M93 197q0 13 10 13t41 -22q54 -38 199 -41q79 0 125 29q2 32 3.5 83.5t1.5 126.5q0 74 -6.5 186.5t-18.5 266.5q-12 141 -17.5 213t-7.5 74q3 12 22 32l92 87l59 -173q9 -24 13 -39t4 -19q0 -16 -63 7q0 -7 1 -58.5t6 -148.5q3 -81 4 -134t1 -78q0 -120 -8 -212t-23 -159 l4 -4q94 92 171.5 154.5t139.5 97.5q124 71 253 71q45 0 83.5 -14.5t66 -41.5t43 -64.5t15.5 -82.5q0 -86 -92 -205q18 4 39 5.5t43 1.5h108q17 0 17 -35v-79q0 -35 -17 -35h-24q-123 0 -231 21q-91 19 -134 16l-216 -26q-216 -24 -347 -24q-179 0 -282 79q-81 60 -78 131z M546 158q0 -22 60 -22q611 0 611 149q0 49 -56 88q-59 41 -136 41q-90 0 -212 -64q-47 -24 -93.5 -54t-93.5 -67q-80 -61 -80 -71z" />
<glyph unicode="&#x637;" horiz-adv-x="1111" arabic-form="initial" d="M-41 35v79q0 35 36 35h139q62 0 62 45l-2 192q-2 74 -7.5 186.5t-19.5 266.5q-21 287 -23 287q3 12 22 32l92 87l59 -173q17 -49 17 -58q0 -15 -64 7q0 -7 1.5 -58.5t6.5 -148.5q2 -81 3.5 -134t1.5 -78q0 -120 -8 -212t-24 -159l5 -4q94 92 171 154.5t140 97.5 q124 71 253 71q45 0 83 -14.5t65.5 -41.5t42.5 -64.5t15 -82.5q0 -150 -163 -246q-166 -101 -420 -101h-448q-36 0 -36 35zM267 158q0 -22 59 -22q611 0 611 149q0 49 -55 88q-29 20 -64 30.5t-73 10.5q-90 0 -212 -64q-95 -49 -186 -121q-80 -61 -80 -71z" />
<glyph unicode="&#x637;" horiz-adv-x="1120" arabic-form="medial" d="M-41 35v79q0 35 36 35h139q62 0 62 45l-2 192q-2 74 -7.5 186.5t-19.5 266.5q-21 287 -23 287q3 12 22 32l92 87l59 -173q17 -49 17 -58q0 -15 -64 7q0 -7 1.5 -58.5t6.5 -148.5q2 -81 3.5 -134t1.5 -78q0 -120 -8 -212t-24 -159l5 -4q94 92 171 154.5t140 97.5 q124 71 253 71q45 0 83 -14.5t65.5 -41.5t42.5 -64.5t15 -82.5t-22 -95t-69 -110q35 7 82 7h109q16 0 16 -35v-79q0 -35 -16 -35h-25q-122 0 -231 21q-43 8 -76 12t-56 4q3 0 -56 -4t-181 -15q-128 -10 -248.5 -14t-234.5 -4h-23q-36 0 -36 35zM267 158q0 -22 59 -22 q611 0 611 149q0 49 -55 88q-29 20 -64 30.5t-73 10.5q-90 0 -212 -64q-95 -49 -186 -121q-80 -61 -80 -71z" />
<glyph unicode="&#x638;" horiz-adv-x="1400" arabic-form="final" d="M93 197q0 13 10 13t41 -22q54 -38 199 -41q79 0 125 29q2 32 3.5 83.5t1.5 126.5q0 74 -6.5 186.5t-18.5 266.5q-12 141 -17.5 213t-7.5 74q3 12 22 32l92 87l59 -173q9 -24 13 -39t4 -19q0 -16 -63 7q0 -7 1 -58.5t6 -148.5q3 -81 4 -134t1 -78q0 -120 -8 -212t-23 -159 l4 -4q94 92 171.5 154.5t139.5 97.5q124 71 253 71q45 0 83.5 -14.5t66 -41.5t43 -64.5t15.5 -82.5q0 -86 -92 -205q18 4 39 5.5t43 1.5h108q17 0 17 -35v-79q0 -35 -17 -35h-24q-123 0 -231 21q-91 19 -134 16l-216 -26q-216 -24 -347 -24q-179 0 -282 79q-81 60 -78 131z M546 158q0 -22 60 -22q611 0 611 149q0 49 -56 88q-59 41 -136 41q-90 0 -212 -64q-47 -24 -93.5 -54t-93.5 -67q-80 -61 -80 -71zM819 925l105 107l102 -107l-102 -106z" />
<glyph unicode="&#x638;" horiz-adv-x="1111" arabic-form="initial" d="M-41 35v79q0 35 36 35h139q62 0 62 45l-2 192q-2 74 -7.5 186.5t-19.5 266.5q-21 287 -23 287q3 12 22 32l92 87l59 -173q17 -49 17 -58q0 -15 -64 7q0 -7 1.5 -58.5t6.5 -148.5q2 -81 3.5 -134t1.5 -78q0 -120 -8 -212t-24 -159l5 -4q94 92 171 154.5t140 97.5 q124 71 253 71q45 0 83 -14.5t65.5 -41.5t42.5 -64.5t15 -82.5q0 -150 -163 -246q-166 -101 -420 -101h-448q-36 0 -36 35zM267 158q0 -22 59 -22q611 0 611 149q0 49 -55 88q-29 20 -64 30.5t-73 10.5q-90 0 -212 -64q-95 -49 -186 -121q-80 -61 -80 -71zM520 899l105 107 l102 -107l-102 -106z" />
<glyph unicode="&#x638;" horiz-adv-x="1120" arabic-form="medial" d="M-41 35v79q0 35 36 35h139q62 0 62 45l-2 192q-2 74 -7.5 186.5t-19.5 266.5q-21 287 -23 287q3 12 22 32l92 87l59 -173q17 -49 17 -58q0 -15 -64 7q0 -7 1.5 -58.5t6.5 -148.5q2 -81 3.5 -134t1.5 -78q0 -120 -8 -212t-24 -159l5 -4q94 92 171 154.5t140 97.5 q124 71 253 71q45 0 83 -14.5t65.5 -41.5t42.5 -64.5t15 -82.5t-22 -95t-69 -110q35 7 82 7h109q16 0 16 -35v-79q0 -35 -16 -35h-25q-122 0 -231 21q-43 8 -76 12t-56 4q3 0 -56 -4t-181 -15q-128 -10 -248.5 -14t-234.5 -4h-23q-36 0 -36 35zM267 158q0 -22 59 -22 q611 0 611 149q0 49 -55 88q-29 20 -64 30.5t-73 10.5q-90 0 -212 -64q-95 -49 -186 -121q-80 -61 -80 -71zM558 963l105 107l102 -107l-102 -106z" />
<glyph unicode="&#x639;" horiz-adv-x="1085" arabic-form="final" d="M103 -179q0 136 89 255q32 41 73.5 80t93.5 77q91 61 91 60q0 29 -118 111q-8 5 -16.5 9t-20.5 8q-3 62 43 105q57 55 176 55q245 0 245 -130q0 -69 -138 -172q152 -130 423 -130h46q17 0 17 -35v-79q0 -35 -17 -35h-24q-206 0 -335 64q-48 23 -100 65t-110 102 q-329 -155 -329 -361q0 -165 151 -247q122 -64 324 -64q69 0 133 5.5t125 17.5q110 24 110 25q7 0 7 -6q0 -39 -114 -106q-141 -80 -328 -80q-227 0 -352 91q-145 103 -145 315z" />
<glyph unicode="&#x639;" horiz-adv-x="827" arabic-form="initial" d="M-41 35v79q0 35 36 35h23q29 0 81 4.5t128 12.5v10q-108 63 -108 180q0 106 99 216q105 120 239 120q72 0 143 -62q72 -57 72 -121q0 -4 -5 -4l-75 21q-73 22 -141 22q-75 0 -143 -34q-84 -37 -84 -96q0 -62 89 -133q83 -67 144 -67q88 0 318 79l-52 -139 q-464 -158 -705 -158h-23q-36 0 -36 35z" />
<glyph unicode="&#x639;" horiz-adv-x="720" arabic-form="medial" d="M-41 35v79q0 35 36 35h23q90 0 192 24q103 25 103 49q0 40 -117 123q-6 4 -15 8t-23 8q0 71 50 116q61 53 171 53q213 -3 213 -133q0 -36 -59 -104q-60 -68 -60 -75q0 -21 82 -47q38 -11 65 -16.5t42 -5.5h63q17 0 17 -35v-79q0 -35 -17 -35h-24q-186 0 -313 123 q-137 -123 -370 -123h-23q-36 0 -36 35z" />
<glyph unicode="&#x63a;" horiz-adv-x="1085" arabic-form="final" d="M103 -179q0 136 89 255q32 41 73.5 80t93.5 77q91 61 91 60q0 29 -118 111q-8 5 -16.5 9t-20.5 8q-3 62 43 105q57 55 176 55q245 0 245 -130q0 -69 -138 -172q152 -130 423 -130h46q17 0 17 -35v-79q0 -35 -17 -35h-24q-206 0 -335 64q-48 23 -100 65t-110 102 q-329 -155 -329 -361q0 -165 151 -247q122 -64 324 -64q69 0 133 5.5t125 17.5q110 24 110 25q7 0 7 -6q0 -39 -114 -106q-141 -80 -328 -80q-227 0 -352 91q-145 103 -145 315zM406 871l105 107l102 -107l-102 -106z" />
<glyph unicode="&#x63a;" horiz-adv-x="827" arabic-form="initial" d="M-41 35v79q0 35 36 35h23q29 0 81 4.5t128 12.5v10q-108 63 -108 180q0 106 99 216q105 120 239 120q72 0 143 -62q72 -57 72 -121q0 -4 -5 -4l-75 21q-73 22 -141 22q-75 0 -143 -34q-84 -37 -84 -96q0 -62 89 -133q83 -67 144 -67q88 0 318 79l-52 -139 q-464 -158 -705 -158h-23q-36 0 -36 35zM280 950l105 107l102 -107l-102 -106z" />
<glyph unicode="&#x63a;" horiz-adv-x="720" arabic-form="medial" d="M-41 35v79q0 35 36 35h23q90 0 192 24q103 25 103 49q0 40 -117 123q-6 4 -15 8t-23 8q0 71 50 116q61 53 171 53q213 -3 213 -133q0 -36 -59 -104q-60 -68 -60 -75q0 -21 82 -47q38 -11 65 -16.5t42 -5.5h63q17 0 17 -35v-79q0 -35 -17 -35h-24q-186 0 -313 123 q-137 -123 -370 -123h-23q-36 0 -36 35zM280 798l105 107l102 -107l-102 -106z" />
<glyph unicode="&#x641;" horiz-adv-x="1512" arabic-form="final" d="M112 268q0 41 8.5 81t26.5 78q31 71 54 71q26 0 26 -25q0 -2 -4 -12.5t-15 -33.5q-18 -42 -18 -86q0 -205 416 -205q284 0 434 40q-76 72 -76 142q0 63 18 120.5t56 109.5q75 103 164 103q84 0 134 -100q21 -40 32.5 -85.5t11.5 -94.5q0 -51 -19.5 -98.5t-57.5 -93.5 q20 -16 58 -23t92 -7h64q17 0 17 -35v-79q0 -35 -17 -35h-25q-91 0 -169 22t-147 67q-222 -102 -609 -102q-455 0 -455 281zM1026 349q0 -46 64 -91q58 -46 98 -46q9 0 27 10t43 27q58 43 58 87q0 55 -45 109q-42 56 -90 56q-49 0 -104 -50q-51 -51 -51 -102zM1086 907 l105 107l102 -107l-102 -106z" />
<glyph unicode="&#x641;" horiz-adv-x="589" arabic-form="initial" d="M-41 35v79q0 35 36 35h111q384 0 384 141q0 34 -11 53q-43 -26 -181 -26q-186 0 -186 143q0 53 11 104t34 103q58 138 154 138q121 0 185 -142q29 -63 43 -144.5t14 -184.5q0 -183 -123 -258q-123 -76 -412 -76h-23q-36 0 -36 35zM181 1057l105 107l102 -107l-102 -106z M190 555q0 -89 134 -89q87 0 129 21q-7 56 -53 111q-46 58 -107 58q-21 0 -39.5 -8t-32.5 -22t-22.5 -32t-8.5 -39z" />
<glyph unicode="&#x641;" horiz-adv-x="723" arabic-form="medial" d="M-41 35v79q0 35 36 35h23q182 0 233 24q-75 76 -75 145q0 63 17.5 120.5t55.5 109.5q76 103 165 103q82 0 134 -100q43 -81 43 -180q0 -100 -77 -192q23 -16 70.5 -23t119.5 -7h25q16 0 16 -35v-79q0 -35 -16 -35h-25q-90 0 -168.5 22t-147.5 65q-55 -26 -98.5 -43 t-79.5 -26q-38 -10 -86 -14t-106 -4h-23q-36 0 -36 35zM238 349q0 -46 64 -91q58 -46 97 -46q11 0 29 10t42 27q58 43 58 87q0 54 -46 109q-41 56 -89 56q-50 0 -105 -50q-24 -25 -37 -50.5t-13 -51.5zM288 922l105 107l102 -107l-102 -106z" />
<glyph unicode="&#x642;" horiz-adv-x="1289" arabic-form="final" d="M103 -197q0 64 12.5 125t39.5 118q48 105 83 105q23 0 23 -21q0 3 -35 -76q-34 -77 -34 -162q0 -265 350 -265q103 0 194 18.5t173 56.5q159 73 159 156q0 93 -19 153q-26 -5 -70 -8t-107 -3q-190 0 -190 142q0 64 14.5 124t43.5 114q32 58 67 87t77 29q104 0 171 -125 q24 -45 41.5 -100.5t27.5 -121.5h171q17 0 17 -35v-79q0 -35 -17 -35h-24l-144 2q2 -19 3 -45t1 -62q0 -182 -144 -294q-85 -68 -212 -101t-298 -33q-72 0 -134 18t-114 56q-63 47 -94.5 111.5t-31.5 150.5zM639 717l101 100l102 -100l-100 -104zM761 240q0 -48 34.5 -69.5 t119.5 -21.5t118 11q-11 55 -53 114q-53 73 -110 73q-21 0 -41 -9.5t-35 -24.5t-24 -34t-9 -39zM881 717l101 100l103 -100l-101 -104z" />
<glyph unicode="&#x642;" horiz-adv-x="647" arabic-form="initial" d="M-41 35v79q0 35 36 35h111q384 0 384 141q0 34 -11 53q-43 -26 -181 -26q-186 0 -186 143q0 53 11 104t34 103q58 138 154 138q121 0 185 -142q29 -63 43 -144.5t14 -184.5q0 -183 -123 -258q-123 -76 -412 -76h-23q-36 0 -36 35zM74 1002l101 100l102 -100l-100 -104z M190 555q0 -89 134 -89q87 0 129 21q-7 56 -53 111q-46 58 -107 58q-21 0 -39.5 -8t-32.5 -22t-22.5 -32t-8.5 -39zM316 1002l101 100l103 -100l-101 -104z" />
<glyph unicode="&#x642;" horiz-adv-x="723" arabic-form="medial" d="M-41 35v79q0 35 36 35h23q182 0 233 24q-75 76 -75 145q0 63 17.5 120.5t55.5 109.5q76 103 165 103q82 0 134 -100q43 -81 43 -180q0 -100 -77 -192q23 -16 70.5 -23t119.5 -7h25q16 0 16 -35v-79q0 -35 -16 -35h-25q-90 0 -168.5 22t-147.5 65q-55 -26 -98.5 -43 t-79.5 -26q-38 -10 -86 -14t-106 -4h-23q-36 0 -36 35zM181 889l101 100l102 -100l-100 -104zM238 349q0 -46 64 -91q58 -46 97 -46q11 0 29 10t42 27q58 43 58 87q0 54 -46 109q-41 56 -89 56q-50 0 -105 -50q-24 -25 -37 -50.5t-13 -51.5zM423 889l101 100l103 -100 l-101 -104z" />
<glyph unicode="&#x643;" horiz-adv-x="1469" arabic-form="final" d="M112 268q0 41 8.5 81t26.5 78q31 71 54 71q26 0 26 -25q0 -2 -4 -12.5t-15 -33.5q-18 -45 -18 -86q0 -205 416 -205q118 0 226.5 11t205.5 40q29 11 53 20.5t41.5 22.5t27.5 32t10 49v9l-22 822l97 103l21 -957q0 -65 53 -103q49 -36 131 -36h24q17 0 17 -35v-79 q0 -35 -17 -35h-24q-91 0 -152 32.5t-96 101.5q-75 -80 -233.5 -113.5t-401.5 -33.5q-455 0 -455 281zM511 535q-9 9 5 9q49 2 95.5 9t83 17t58.5 22t22 25q0 20 -44 20h-79q-29 0 -48.5 5.5t-30.5 15.5t-15.5 24t-4.5 30q0 29 11.5 62.5t31.5 62.5q48 65 97 65q18 0 31 -10 t22 -24.5t13.5 -29.5t4.5 -24q0 -11 -11 -7q-24 11 -50 11q-20 0 -38.5 -7t-32.5 -16.5t-22 -21t-8 -20.5q0 -22 58 -22h76q45 0 67 -22.5t22 -61.5q0 -41 -16 -72t-40 -51.5t-53 -31t-56 -10.5q-35 0 -70 12t-79 41z" />
<glyph unicode="&#x643;" horiz-adv-x="876" arabic-form="initial" d="M-23 35v79q0 35 18 35h23q201 0 302 35.5t101 115.5q0 36 -23 82.5t-58 94t-75.5 89t-76.5 67.5l-9 -29q-17 17 -38.5 39t-41 45.5t-32.5 46.5t-13 42q0 48 6.5 84t17.5 61.5t25 40.5t29 21l701 261l-47 -149l-644 -235q5 -12 32.5 -37.5t65.5 -63t80.5 -86t79 -107 t60.5 -126t24 -141.5q0 -69 -15.5 -115.5t-47.5 -79.5q-31 -33 -72 -54t-90.5 -32t-107.5 -15t-123 -4h-33q-18 0 -18 35z" />
<glyph unicode="&#x643;" horiz-adv-x="928" arabic-form="medial" d="M-23 35v79q0 35 18 35h23q71 0 143.5 4.5t131 20.5t95.5 46t37 80q0 41 -27.5 89t-68.5 97.5t-88.5 97.5t-88.5 88t-68.5 69.5t-27.5 42.5q0 16 2 45.5t8.5 60t19.5 56t35 34.5l716 265l-47 -149l-644 -235q4 -4 10.5 -12t24 -29t51.5 -59.5t92 -104t145 -162.5t212 -235 q21 -23 43.5 -43t50.5 -35t63.5 -23.5t80.5 -8.5h15q16 0 16 -35v-79q0 -35 -16 -35h-25q-62 0 -109 14.5t-92.5 49.5t-97 92.5t-121.5 143.5q-3 -89 -33 -146.5t-88.5 -92t-146 -48t-203.5 -13.5h-23q-18 0 -18 35z" />
<glyph unicode="&#x644;" horiz-adv-x="1228" arabic-form="final" d="M103 -199q0 55 8.5 106t26.5 98q36 98 77 98q17 0 20 -23q-2 2 -23 -55q-20 -66 -20 -148q0 -238 309 -238q84 0 159 16t145 48q143 72 143 155q0 186 -15 507.5t-46 776.5l109 103l35 -973q1 -28 14 -51t36.5 -39t56 -24.5t71.5 -8.5h25q16 0 16 -35v-79q0 -35 -16 -35 h-25q-113 0 -188 56v-127q0 -217 -158 -338q-148 -112 -392 -112q-164 0 -259 70q-109 82 -109 252z" />
<glyph unicode="&#x644;" horiz-adv-x="421" arabic-form="initial" d="M-41 35v79q0 35 36 35h23q123 0 170 24q43 22 43 78q0 29 -3 85t-8 137l-44 651q0 10 21 34l91 87l61 -173q8 -24 12 -39.5t4 -20.5q0 -13 -63 9l11 -349v-325q0 -199 -78 -280q-65 -67 -217 -67h-23q-36 0 -36 35z" />
<glyph unicode="&#x644;" horiz-adv-x="512" arabic-form="medial" d="M-41 35v79q0 35 36 35h23q21 0 45.5 3t53.5 8q101 19 98 160l-23 822l98 103l19 -957q2 -32 15 -58t39 -45q49 -36 131 -36h24q17 0 17 -35v-79q0 -35 -17 -35h-24q-178 0 -248 117q-71 -117 -228 -117h-23q-36 0 -36 35z" />
<glyph unicode="&#x645;" horiz-adv-x="971" arabic-form="final" d="M103 25q0 48 15 95t44 90q75 110 209 110h74l34 125q85 -88 168 -153t166 -107q35 -19 69.5 -27.5t70.5 -8.5h23q18 0 18 -35v-79q0 -35 -18 -35h-23q-38 0 -77 12.5t-81 39.5q7 -28 7 -63q0 -220 -153 -220q-117 0 -185 149q-55 125 -46 253h-45q-50 0 -103 -14 q-58 -16 -71 -45q0 -29 4.5 -93t14.5 -163q10 -95 14.5 -156.5t4.5 -90.5q0 -50 -19 -123q-19 -82 -39 -82q-19 0 -24 155q-2 23 -8.5 83.5t-20.5 158.5q-12 97 -17.5 152.5t-5.5 71.5zM500 164q0 -79 33 -149q42 -86 112 -86q93 0 93 78q0 82 -238 252v-95z" />
<glyph unicode="&#x645;" horiz-adv-x="707" arabic-form="initial" d="M-41 35v79q0 35 36 35h23q118 0 174 82q59 85 99.5 139t64.5 78q59 59 128 59q77 0 129 -91q24 -43 36.5 -89.5t12.5 -99.5q0 -109 -41 -170q-37 -57 -95 -57q-44 0 -117 35q-89 41 -167 101q-77 -74 -100 -91q-62 -45 -124 -45h-23q-36 0 -36 35zM302 244 q169 -108 253 -108q43 0 43 33q0 24 -12.5 55t-35.5 69q-55 87 -112 87q-72 0 -136 -136z" />
<glyph unicode="&#x645;" horiz-adv-x="926" arabic-form="medial" d="M-41 35v79q0 35 36 35h23q146 0 199 68q184 238 272 238q50 0 94 -32.5t82 -98.5q103 -175 242 -175h25q16 0 16 -35v-79q0 -35 -16 -35h-25q-108 0 -223 125q0 -49 -35 -104q-40 -62 -80 -62q-103 0 -315 155q-32 -29 -57 -50t-46 -32q-59 -32 -133 -32h-23 q-36 0 -36 35zM320 217q0 -15 114 -73q115 -58 146 -58q41 0 41 35t-11 70t-34 67q-52 70 -116 70q-37 0 -91 -49q-25 -23 -38 -38t-11 -24z" />
<glyph unicode="&#x646;" horiz-adv-x="1256" arabic-form="final" d="M103 -197q0 64 12.5 125t39.5 118q48 105 83 105q23 0 23 -21q0 3 -35 -76q-34 -77 -34 -162q0 -265 350 -265q81 0 154.5 12.5t144.5 36.5q187 67 187 192q0 57 -36 137t-110 183l76 144q28 -51 53.5 -86t52.5 -56.5t56.5 -31t65.5 -9.5h75q18 0 18 -35v-79 q0 -35 -18 -35h-23q-91 0 -161 21q15 -54 15 -137q0 -219 -201 -327q-162 -90 -414 -90q-72 0 -134 18t-114 56q-63 47 -94.5 111.5t-31.5 150.5zM493 454l105 107l102 -107l-102 -106z" />
<glyph unicode="&#x646;" horiz-adv-x="413" arabic-form="initial" d="M-41 35v79q0 35 36 35h23q284 0 284 69q0 73 -85 179l68 151q95 -135 95 -276q0 -156 -85 -216q-78 -56 -260 -56h-40q-36 0 -36 35zM68 819l105 107l102 -107l-102 -106z" />
<glyph unicode="&#x646;" horiz-adv-x="621" arabic-form="medial" d="M-41 35v79q0 35 36 35h139q167 0 190 203q0 27 25 27q24 0 24 -27q23 -203 189 -203h64q17 0 17 -35v-79q0 -35 -17 -35h-24q-52 0 -91.5 5.5t-65.5 19.5q-60 26 -95 103q-35 -73 -123 -103q-36 -14 -88 -19.5t-121 -5.5h-23q-36 0 -36 35zM204 720l105 107l102 -107 l-102 -106z" />
<glyph unicode="&#x647;" horiz-adv-x="753" arabic-form="isolated" d="M196 173q0 219 227 435q153 -92 212 -178q53 -74 53 -167q0 -127 -82 -203q-79 -73 -206 -73q-93 0 -144 47q-60 51 -60 139zM285 246q0 -49 40 -79.5t107 -30.5q27 0 56.5 7t62.5 19q73 31 73 60q0 52 -93 139q-92 86 -151 99q-95 -121 -95 -214z" />
<glyph unicode="&#x647;" horiz-adv-x="775" arabic-form="final" d="M103 215q0 27 7 58t22 65q31 69 75 100q52 38 114 73t134 70l-28 122l82 95l103 -487q9 -48 22 -80t28 -50q30 -32 83 -32h36q17 0 17 -35v-79q0 -35 -17 -35h-25q-108 0 -156 54q-40 43 -61 156l-110 -98q-22 -2 -48 -3t-57 -1q-221 0 -221 107zM181 309q0 -65 216 -65 q81 0 129 12l-51 219q-66 -19 -120.5 -44t-100.5 -54q-73 -48 -73 -68z" />
<glyph unicode="&#x647;" horiz-adv-x="925" arabic-form="initial" d="M-41 35v79q0 35 36 35h23q61 0 122 7t121 21q-92 59 -92 149q0 160 183 261q-29 16 -54.5 27.5t-46.5 18.5l114 120l161 -90q81 -46 145 -93t110 -97q95 -101 95 -186q0 -94 -52 -173q-55 -88 -121 -88q-46 0 -118.5 21t-172.5 65q-38 -26 -88 -46.5t-116 -37.5 q-106 -28 -190 -28h-23q-36 0 -36 35zM259 375q0 -20 6.5 -35t23.5 -29t46.5 -29t76.5 -34q116 53 116 141q0 72 -51 134q-109 -3 -166 -50q-52 -37 -52 -98zM520 210q65 -23 112.5 -35.5t79.5 -12.5q101 0 101 65q0 110 -207 228v-51q0 -39 -28 -106q-13 -30 -27.5 -52.5 t-30.5 -35.5z" />
<glyph unicode="&#x647;" horiz-adv-x="822" arabic-form="medial" d="M-41 35v79q0 35 36 35h163q19 331 201 543q171 -242 171 -416q0 -125 -69.5 -190.5t-209.5 -76.5q8 -43 28 -84t55 -80q32 -38 70.5 -65.5t82.5 -47.5q-12 45 -12 71q0 155 90 253q82 93 189 93h73q17 0 17 -35v-79q0 -35 -17 -35h-55q-50 0 -89 -7t-70 -23 q-74 -35 -74 -104q0 -130 149 -216l-51 -142q-408 138 -471 496q-6 0 -22.5 -0.5t-37.5 -1.5t-44 -1.5t-44 -0.5h-23q-36 0 -36 35zM222 157l73 3q59 3 109 23q62 20 62 48q0 86 -127 270q-117 -143 -117 -307v-37z" />
<glyph unicode="&#x648;" horiz-adv-x="727" arabic-form="final" d="M0 -475q0 11 28 18q196 54 335 189q80 75 124 158q33 64 33 99v16q-21 -2 -52.5 -3.5t-74.5 -1.5q-64 0 -109 9t-73 29t-40.5 52t-12.5 77q0 57 14 111t40 108q33 60 71 90.5t84 30.5q95 0 154 -110q55 -97 70 -248h142q16 0 16 -35v-79q0 -35 -16 -35h-144 q0 -142 -112 -328q-35 -57 -64.5 -95t-53.5 -56q-35 -26 -100 -26q-37 0 -77 2.5t-86 6.5q-96 9 -96 21zM237 244q0 -95 158 -95h106q-1 35 -13.5 69.5t-34.5 66.5q-48 73 -104 73q-23 0 -43.5 -8.5t-35.5 -24t-24 -36.5t-9 -45z" />
<glyph unicode="&#x649;" horiz-adv-x="1348" arabic-form="final" d="M103 -261q0 64 12.5 125.5t39.5 119.5q48 103 83 103q23 0 23 -20q0 3 -35 -76q-34 -78 -34 -162q0 -155 117 -218q100 -59 319 -59q102 0 188 11.5t160 34.5q138 41 135 89q0 21 -105 35q-73 11 -121.5 21.5t-71.5 18.5q-105 31 -105 96q0 83 82 168q80 84 174 102 q48 11 139.5 16t225.5 5h24q17 0 17 -35v-79q0 -35 -17 -35h-125q-430 0 -430 -82q0 -31 186 -56q69 -8 113 -18t62 -23q15 -10 23.5 -30.5t6.5 -51.5q-9 -335 -663 -335q-181 0 -293 76q-130 87 -130 259z" />
<glyph unicode="&#x64a;" horiz-adv-x="1348" arabic-form="final" d="M103 -261q0 64 12.5 125.5t39.5 119.5q48 103 83 103q23 0 23 -20q0 3 -35 -76q-34 -78 -34 -162q0 -155 117 -218q100 -59 319 -59q102 0 188 11.5t160 34.5q138 41 135 89q0 21 -105 35q-73 11 -121.5 21.5t-71.5 18.5q-105 31 -105 96q0 83 82 168q80 84 174 102 q48 11 139.5 16t225.5 5h24q17 0 17 -35v-79q0 -35 -17 -35h-125q-430 0 -430 -82q0 -31 186 -56q69 -8 113 -18t62 -23q15 -10 23.5 -30.5t6.5 -51.5q-9 -335 -663 -335q-181 0 -293 76q-130 87 -130 259zM349 -814l101 100l102 -100l-100 -104zM591 -814l101 100l103 -100 l-101 -104z" />
<glyph unicode="&#x64a;" horiz-adv-x="354" arabic-form="initial" d="M-61 -290l101 100l102 -100l-100 -104zM-41 35v79q0 35 36 35h23q284 0 284 69q0 73 -85 179l68 151q95 -135 95 -276q0 -156 -85 -216q-78 -56 -260 -56h-40q-36 0 -36 35zM181 -290l101 100l103 -100l-101 -104z" />
<glyph unicode=" "  horiz-adv-x="342" />
<glyph unicode="&#x09;" horiz-adv-x="342" />
<glyph unicode="&#xa0;" horiz-adv-x="342" />
<glyph unicode="!" horiz-adv-x="591" d="M188 945q0 214 102 214q103 0 103 -214q0 -52 -39 -283q-39 -233 -39 -406h-48q0 176 -40 406q-39 231 -39 283zM199 80q0 17 7.5 33.5t20.5 29t29.5 20.5t33.5 8q19 0 36 -7t30 -19.5t20.5 -29t7.5 -35.5t-7.5 -36t-20.5 -29.5t-30 -20t-36 -7.5q-17 0 -33.5 7.5 t-29.5 20t-20.5 29.5t-7.5 36z" />
<glyph unicode="&#x22;" horiz-adv-x="608" d="M84 1088v9q0 11 6 22.5t16 20.5t22.5 15t26.5 6t27 -6t23 -15t16 -20.5t6 -22.5v-9l-56 -318h-31zM382 1088v9q0 11 6 22.5t15.5 20.5t22.5 15t27 6q13 0 25.5 -6t22 -15t15 -20.5t5.5 -22.5v-9l-53 -318h-32z" />
<glyph unicode="#" horiz-adv-x="1264" d="M121 357v115h248l78 319h-228v114h258l89 357h109l-89 -357h229l89 357h109l-89 -357h219v-114h-248l-79 -319h228v-115h-257l-90 -357h-109l89 357h-229l-89 -357h-109l89 357h-218zM476 470h232l80 322h-233z" />
<glyph unicode="$" horiz-adv-x="948" d="M90 72v172h13q67 -51 150.5 -82.5t182.5 -39.5v367q-22 5 -52 12t-51 14q-127 34 -182.5 104.5t-55.5 173.5q0 121 94.5 210t246.5 103v231h96v-229q77 -3 160 -22.5t136 -41.5v-168h-13q-59 41 -130 71t-153 38v-365q29 -6 52.5 -12.5t41.5 -10.5q116 -27 179 -94 t63 -181q0 -125 -95.5 -214t-240.5 -107v-307h-96v303q-92 1 -184.5 21t-161.5 54zM257 815q0 -75 37.5 -116.5t141.5 -65.5v351q-77 -7 -128 -50t-51 -119zM532 124q87 10 131.5 52t44.5 124q0 79 -41 117.5t-135 58.5v-352z" />
<glyph unicode="%" horiz-adv-x="1447" d="M60 863q0 89 34 164t93 112.5t120 37.5q115 0 178 -95.5t63 -218.5q0 -148 -71 -228.5t-171 -80.5q-68 0 -123.5 37.5t-89 110t-33.5 161.5zM195 864q0 -118 18 -179q15 -47 46 -72q18 -16 43 -16q41 0 70 44q42 65 42 218q0 161 -41 226q-27 44 -68 44q-43 0 -76.5 -51 t-33.5 -214zM266 -48l837 1225h77l-839 -1225h-75zM898 261q0 89 33.5 163t91.5 110t118 36t119.5 -38t92 -110.5t32.5 -160.5q0 -150 -72 -229.5t-170 -79.5q-62 0 -120 38.5t-91.5 109.5t-33.5 161zM1032 255q0 -151 40 -212q29 -43 71 -43q38 0 68 47q41 61 41 213 q0 159 -41 222q-28 44 -69 44q-42 0 -71 -46q-39 -59 -39 -225z" />
<glyph unicode="&#x26;" horiz-adv-x="1350" d="M64 227q0 102 73.5 204t276.5 211q-39 89 -53.5 145.5t-14.5 108.5q0 145 107 221q83 60 189 60q101 0 164.5 -60t63.5 -148q0 -89 -61.5 -157t-217.5 -148q108 -192 225 -352q149 178 149 301q0 38 -26 69q-18 23 -53 27v31h356v-31q-74 -6 -109 -32.5t-109.5 -162 t-168.5 -251.5q76 -88 135 -123.5t120 -35.5q58 0 99 31.5t58 94.5l31 -23q-31 -120 -100.5 -177t-161.5 -57q-70 0 -141.5 38t-156.5 128q-105 -93 -189.5 -129.5t-180.5 -36.5q-140 0 -222 75t-82 179zM240 304q0 -90 58 -159t158 -69q53 0 102.5 21.5t134.5 91.5 q-111 152 -154.5 222t-95.5 175q-102 -58 -152.5 -128.5t-50.5 -153.5zM491 962q0 -41 14 -92.5t57 -150.5q106 49 158 113t52 141q0 62 -38 101.5t-94 39.5q-74 0 -111.5 -51.5t-37.5 -100.5z" />
<glyph unicode="'" horiz-adv-x="349" d="M129 1206h92l-20 -293h-61z" />
<glyph unicode="(" horiz-adv-x="621" d="M93 471q0 384 396 681l41 -37q-64 -66 -115 -139t-93 -156q-43 -91 -65 -177.5t-22 -167.5q0 -159 80 -328q38 -77 87 -149t112 -138l-43 -37q-378 294 -378 648z" />
<glyph unicode=")" horiz-adv-x="621" d="M91 1115l41 37q396 -297 396 -681q0 -178 -95 -339.5t-284 -308.5l-43 37q63 66 112.5 138t87.5 149q40 86 60 167t20 161q0 161 -88 345q-41 83 -92 156t-115 139z" />
<glyph unicode="*" horiz-adv-x="704" d="M52 756v46q0 9 11.5 17t23.5 8h123l-89 92q-13 11 -14 24t9 26l33 28q9 9 20.5 8.5t22.5 -13.5l98 -96v142q0 11 9.5 21.5t17.5 10.5h46q14 0 21 -10.5t7 -21.5v-136l98 95q11 13 21.5 14t28.5 -6l23 -36q10 -7 10 -18.5t-11 -25.5l-95 -98h142q9 0 20 -8t11 -17v-46 q0 -14 -11 -22.5t-20 -8.5h-149l102 -93q17 -24 0 -52l-28 -29q-21 -16 -44 6l-98 92v-131q0 -13 -7 -22t-21 -9h-46q-8 0 -17.5 9t-9.5 22v131l-89 -92q-25 -16 -52 0l-28 30q-16 21 5 45l92 93h-131q-12 0 -23.5 8.5t-11.5 22.5z" />
<glyph unicode="+" horiz-adv-x="786" d="M69 352v121h260v260h121v-260h262v-121h-262v-261h-121v261h-260z" />
<glyph unicode="," horiz-adv-x="435" d="M93 69q0 41 32 71t77 30q57 0 100.5 -49t43.5 -129q0 -87 -60.5 -162.5t-192.5 -118.5v37q87 29 135.5 89.5t48.5 128.5q0 16 -8 28q-6 7 -12 7q-9 0 -41 -17q-15 -7 -32 -7q-42 0 -66.5 24t-24.5 68z" />
<glyph unicode="-" horiz-adv-x="779" d="M87 352v121h606v-121h-606z" />
<glyph unicode="." horiz-adv-x="536" d="M237 114q0 22 8.5 41t23 33t33.5 22.5t41 8.5t41.5 -8.5t33.5 -22.5t22.5 -33t8.5 -41t-8.5 -41.5t-22.5 -34t-33.5 -23t-41.5 -8.5t-41 8.5t-33.5 23t-23 34t-8.5 41.5z" />
<glyph unicode="/" horiz-adv-x="790" d="M115 -156l401 1237h122l-401 -1237h-122z" />
<glyph unicode="0" horiz-adv-x="868" d="M63 568q0 197 59 339t158 211q76 55 158 55q132 0 237 -134q132 -168 132 -453q0 -200 -58 -340t-147.5 -203t-172.5 -63q-164 0 -274 194q-92 163 -92 394zM229 547q0 -237 58 -388q49 -126 144 -126q46 0 95.5 41.5t74.5 137.5q39 146 39 411q0 197 -40 329 q-31 97 -80 138q-35 27 -83 27q-58 0 -103 -51q-61 -71 -83 -222t-22 -297z" />
<glyph unicode="1" horiz-adv-x="868" d="M204 1037l279 136h28v-971q0 -96 8.5 -120t34 -36.5t102.5 -13.5v-32h-432v32q81 1 105 13t33 33.5t9 123.5v622q0 125 -8 161q-6 26 -22 39t-38 13q-31 0 -87 -26z" />
<glyph unicode="2" horiz-adv-x="868" d="M37 0v32q300 272 422 445.5t122 316.5q0 109 -67 179.5t-160 70.5q-85 0 -152.5 -50t-99.5 -145h-32q21 157 109 240.5t220 83.5q139 0 233 -89.5t94 -212.5q0 -87 -41 -174q-63 -137 -204 -291q-211 -230 -263 -278h300q91 0 128.5 7t67 27.5t51.5 59.5h31l-81 -222 h-678z" />
<glyph unicode="3" horiz-adv-x="868" d="M70 70q0 25 20 43.5t48 18.5q21 0 43 -7q15 -4 66 -30.5t70 -31.5q32 -10 67 -10q87 0 151 67.5t64 158.5q0 67 -30 130q-22 48 -49 72q-36 34 -99.5 61.5t-130.5 27.5h-26v26q67 8 134 48.5t98 96t31 122.5q0 88 -54.5 141.5t-136.5 53.5q-131 0 -219 -140l-29 13 q50 116 124.5 179t187.5 63q137 0 212 -90q56 -66 56 -143q0 -125 -158 -259q106 -42 160 -119t54 -181q0 -150 -94 -259q-124 -142 -360 -142q-115 0 -157.5 28.5t-42.5 61.5z" />
<glyph unicode="4" horiz-adv-x="868" d="M28 303v109l533 761h93v-749h154v-121h-154v-303h-140v303h-486zM110 424h404v570z" />
<glyph unicode="5" horiz-adv-x="868" d="M83 92q0 25 19.5 43t49.5 18q22 0 38.5 -7t56.5 -35q64 -44 128 -44q100 0 175 75t75 182q0 105 -67 195t-185 140q-92 38 -252 44l220 447h413l-66 -144h-347l-75 -155q225 -33 356 -166q114 -116 114 -272q0 -91 -37.5 -168.5t-93.5 -131.5t-124 -87q-97 -46 -200 -46 q-104 0 -151 35t-47 77z" />
<glyph unicode="6" horiz-adv-x="868" d="M74 452q0 153 62 292.5t177 247t220 144.5t196 37h49v-30q-111 -12 -182 -45.5t-140 -102.5t-114.5 -153t-76.5 -200q123 84 246 84q118 0 204 -95t86 -244q0 -144 -87 -263q-106 -144 -278 -144q-118 0 -201 77q-161 153 -161 395zM235 395q0 -81 30.5 -176.5 t89.5 -151.5q44 -39 105 -39q74 0 132.5 69t58.5 198q0 145 -58 251t-164 106q-33 0 -69.5 -13.5t-108.5 -58.5q-16 -115 -16 -185z" />
<glyph unicode="7" horiz-adv-x="868" d="M65 878l110 272h616v-33l-383 -1140h-95l343 1034h-316q-96 0 -136 -22q-72 -39 -115 -121z" />
<glyph unicode="8" horiz-adv-x="868" d="M105 262q0 76 51.5 151.5t176.5 165.5q-136 112 -175.5 180t-39.5 141q0 111 86 192t231 81q138 0 223 -75t85 -172q0 -64 -46 -131.5t-190 -157.5q148 -115 197 -181q64 -87 64 -183q0 -121 -92.5 -207t-241.5 -86q-165 0 -256 103q-73 81 -73 179zM235 266 q0 -109 59.5 -175t152.5 -66q91 0 146.5 52t55.5 125q0 62 -32 110q-61 90 -244 235q-70 -59 -104 -129t-34 -152zM241 957q0 -43 22.5 -87.5t64.5 -84.5l138 -115q102 91 129 144t27 121q0 89 -49.5 139.5t-136.5 50.5q-86 0 -140.5 -50.5t-54.5 -117.5z" />
<glyph unicode="9" horiz-adv-x="868" d="M69 761q0 152 86 269q105 143 272 143q142 0 243 -116q124 -145 124 -358q0 -192 -94.5 -357.5t-261.5 -275.5q-137 -89 -298 -89h-49v30q110 3 205.5 52t184 173t123.5 273q-133 -86 -241 -86q-121 0 -207.5 93.5t-86.5 248.5zM219 849q0 -179 76 -280q55 -73 135 -73 q40 0 93.5 18.5t93.5 52.5q16 110 16 177q0 82 -28 177.5t-79.5 146t-116.5 50.5q-76 0 -133 -67.5t-57 -201.5z" />
<glyph unicode=":" horiz-adv-x="684" d="M364 114q0 22 8.5 41t23 33t33.5 22.5t41 8.5t41.5 -8.5t34 -22.5t22.5 -33t8 -41t-8 -41.5t-22.5 -34t-34 -23t-41.5 -8.5t-41 8.5t-33.5 23t-23 34t-8.5 41.5zM364 703q0 22 8.5 41t23 33.5t33.5 23t41 8.5t41.5 -8.5t34 -23t22.5 -33.5t8 -41q0 -23 -8 -42 t-22.5 -33.5t-34 -22.5t-41.5 -8t-41 8t-33.5 22.5t-23 33.5t-8.5 42z" />
<glyph unicode=";" horiz-adv-x="482" d="M121 69q0 41 31.5 71t77.5 30q56 0 99.5 -49t43.5 -129q0 -87 -60.5 -162.5t-191.5 -118.5v37q87 29 134.5 89.5t47.5 128.5q0 16 -7 28q-6 7 -12 7q-9 0 -40 -17q-16 -7 -33 -7q-41 0 -65.5 24t-24.5 68zM145 708q0 39 27.5 66t67.5 27q38 0 65.5 -27t27.5 -66 t-27.5 -66.5t-65.5 -27.5q-40 0 -67.5 27.5t-27.5 66.5z" />
<glyph unicode="&#x3c;" horiz-adv-x="1117" d="M150 444v90l805 384v-134l-624 -295l624 -297v-134z" />
<glyph unicode="=" horiz-adv-x="1117" d="M144 271v120h829v-120h-829zM144 586v120h829v-120h-829z" />
<glyph unicode="&#x3e;" horiz-adv-x="1117" d="M160 58v134l626 297l-626 295v134l806 -384v-90z" />
<glyph unicode="?" horiz-adv-x="771" d="M78 933q0 95 82.5 169.5t223.5 74.5q174 0 256 -102q62 -75 62 -166q0 -62 -27.5 -127t-105.5 -153q-123 -139 -150.5 -197.5t-33.5 -160.5h-35q6 107 26.5 177t86.5 194q51 97 66.5 148.5t15.5 103.5q0 108 -57.5 171.5t-140.5 63.5q-74 0 -116 -35t-42 -75 q0 -32 25.5 -77.5t25.5 -70.5q0 -29 -20 -50.5t-48 -21.5q-35 0 -64.5 35.5t-29.5 98.5zM279 71q0 40 27.5 67.5t66.5 27.5q40 0 68 -27.5t28 -67.5q0 -39 -28.5 -66.5t-67.5 -27.5t-66.5 27.5t-27.5 66.5z" />
<glyph unicode="@" horiz-adv-x="1600" d="M83 376q0 224 105 418t294.5 303t401.5 109q176 0 317 -72.5t215 -212t74 -296.5q0 -155 -69.5 -307.5t-176 -222t-222.5 -69.5q-65 0 -97 30.5t-32 85.5q0 48 14 125q-125 -151 -200.5 -196.5t-133.5 -45.5q-60 0 -106.5 54.5t-46.5 143.5q0 123 80 275.5t212 248.5 q98 70 175 70q56 0 94.5 -29t50.5 -87l29 93l133 18l-99 -338q-55 -190 -67.5 -241t-12.5 -81q0 -27 19 -46t45 -19q63 0 149.5 62t148.5 201.5t62 289.5q0 145 -69.5 268t-197.5 189t-283 66q-196 0 -363.5 -104t-265.5 -299t-98 -406q0 -195 86 -354t242.5 -241t335.5 -82 q223 0 403.5 119.5t277.5 349.5h50q-76 -233 -277 -377t-459 -144q-201 0 -374.5 95.5t-268.5 270.5t-95 385zM553 248q0 -53 30.5 -86.5t67.5 -33.5q50 0 104 37t113 115t87 156q48 134 48 219q0 56 -31.5 89.5t-74.5 33.5q-64 0 -130 -68q-95 -97 -163 -265 q-51 -122 -51 -197z" />
<glyph unicode="A" horiz-adv-x="1254" d="M14 0v32q72 13 93 33q44 40 95 165l405 947h30l400 -958q48 -115 87.5 -149t110.5 -38v-32h-454v32q69 3 93 22.5t24 47.5q0 37 -34 117l-69 166h-445l-79 -181q-28 -67 -28 -100q0 -27 25 -47t107 -25v-32h-361zM375 447h396l-195 466z" />
<glyph unicode="B" horiz-adv-x="1159" d="M29 0v32h43q72 0 104 45q19 30 19 127v743q0 107 -24 134q-33 37 -99 37h-43v32h497q139 0 222 -20q128 -31 195 -109t67 -178q0 -86 -52.5 -154.5t-155.5 -101.5q120 -25 180 -81q81 -79 81 -191q0 -86 -54 -164.5t-149 -114.5t-289 -36h-542zM358 83q98 -23 194 -23 q154 0 234.5 69t80.5 171q0 67 -36.5 129t-118.5 97.5t-204 35.5q-52 0 -89.5 -1.5t-60.5 -6.5v-471zM358 633q31 -7 71.5 -9.5t88.5 -2.5q124 0 186 26.5t95.5 81.5t33.5 121q0 101 -82.5 172t-239.5 71q-85 0 -153 -18v-442z" />
<glyph unicode="C" horiz-adv-x="1159" d="M63 558q0 171 77 315.5t212.5 224t295.5 79.5q125 0 246 -62q36 -19 50 -19q24 0 41 17q22 22 30 64h30l27 -392h-27q-52 175 -149.5 252.5t-234.5 77.5q-114 0 -206 -58t-145 -185.5t-53 -316.5q0 -155 49.5 -269.5t150.5 -175.5t229 -61q112 0 197.5 47.5t188.5 189.5 l26 -17q-87 -152 -202 -224t-274 -72q-285 0 -442 212q-117 158 -117 373z" />
<glyph unicode="D" horiz-adv-x="1254" d="M30 0v32h43q73 0 103 46q19 28 19 126v743q0 107 -23 134q-34 37 -99 37h-43v32h468q258 0 392 -59t216 -195t82 -315q0 -240 -146 -401q-163 -180 -498 -180h-514zM358 83q107 -24 180 -24q198 0 327 138.5t129 374.5q0 239 -129 376t-333 137q-76 0 -174 -24v-978z" />
<glyph unicode="E" horiz-adv-x="1061" d="M36 0v32h40q41 0 78 19q26 14 36 41t10 110v748q0 109 -22 134q-31 34 -102 34h-40v32h886l13 -252h-34q-17 91 -38.5 125t-64.5 52q-34 13 -120 13h-315v-455h253q98 0 131 29q44 40 49 137h32v-399h-32q-12 83 -23 107q-16 29 -50.5 46t-106.5 17h-253v-378 q0 -76 6.5 -92.5t23.5 -26.5t65 -10h195q97 0 141 13.5t86 52.5q52 53 107 159h34l-99 -288h-886z" />
<glyph unicode="F" horiz-adv-x="966" d="M28 0v32h41q71 0 103 41q21 27 21 131v743q0 86 -12 115q-8 21 -35 36q-36 20 -77 20h-41v32h856l11 -253h-30q-22 80 -51.5 118.5t-72 55.5t-133.5 17h-253v-453h210q72 0 105.5 32t43.5 126h32v-389h-32q0 67 -16.5 98t-46 47t-86.5 16h-210v-361q0 -87 12 -116 q8 -21 35 -36q37 -20 78 -20h42v-32h-494z" />
<glyph unicode="G" horiz-adv-x="1254" d="M61 558q0 151 73 290q86 165 237 254q127 75 299 75q62 0 113.5 -11t146.5 -45q47 -18 63 -18t27.5 15t14.5 59h31l30 -364h-30q-45 136 -116 205q-103 99 -264 99q-220 0 -334 -174q-95 -147 -95 -349q0 -165 63.5 -300.5t166 -198.5t210.5 -63q64 0 123.5 16t114.5 47 v332q0 87 -13 113.5t-40.5 41t-97.5 14.5v32h446v-32h-22q-65 0 -91 -45q-17 -32 -17 -124v-352q-97 -52 -192 -77t-211 -25q-333 0 -506 215q-130 160 -130 370z" />
<glyph unicode="H" horiz-adv-x="1254" d="M30 0v32h40q72 0 104 41q20 27 20 131v742q0 89 -11 116q-9 21 -35 36q-37 20 -78 20h-40v32h493v-32h-42q-40 0 -77 -19q-27 -14 -37 -41q-10 -28 -10 -112v-329h534v329q0 89 -11 116q-9 21 -35 36q-37 20 -78 20h-40v32h492v-32h-41q-40 0 -78 -19q-26 -15 -37 -41 q-9 -29 -9 -112v-742q0 -88 11 -116q10 -22 35 -36q36 -20 78 -20h41v-32h-492v32h40q71 0 103 41q21 27 21 131v349h-534v-349q0 -88 11 -116q8 -21 36 -36q36 -20 77 -20h42v-32h-493z" />
<glyph unicode="I" horiz-adv-x="579" d="M43 0v32h41q71 0 104 41q20 27 20 131v743q0 86 -11 115q-8 21 -35 36q-37 20 -78 20h-41v32h493v-32h-42q-70 0 -102 -41q-21 -28 -21 -130v-743q0 -87 11 -116q8 -21 36 -36q36 -20 76 -20h42v-32h-493z" />
<glyph unicode="J" horiz-adv-x="676" d="M36 104q0 41 21 62q28 27 65 27q27 0 49 -18t55 -96q19 -45 50 -45q23 0 42.5 28t19.5 99v786q0 86 -10 115q-9 21 -37 36q-36 20 -77 20h-41v32h493v-32h-42q-71 0 -102 -41q-21 -28 -21 -130v-563q0 -130 -28.5 -210.5t-98 -140.5t-167.5 -60q-80 0 -125.5 40t-45.5 91 z" />
<glyph unicode="K" horiz-adv-x="1254" d="M29 0v32h41q71 0 103 41q20 27 20 131v743q0 86 -11 115q-8 21 -35 36q-37 20 -77 20h-41v32h490v-32h-39q-40 0 -77 -19q-27 -14 -37 -41t-10 -111v-352q17 16 117 107q251 231 304 308q22 34 22 60q0 19 -17.5 33.5t-59.5 14.5h-27v32h422v-32q-37 -1 -67 -10 t-74.5 -36t-108.5 -86q-19 -17 -173 -174l-175 -174l424 -422q104 -104 178 -142t148 -42v-32h-547v32q49 0 70.5 16.5t21.5 36.5t-8 36.5t-53 59.5l-397 394v-371q0 -87 11 -116q8 -21 36 -36q36 -20 77 -20h39v-32h-490z" />
<glyph unicode="L" horiz-adv-x="1061" d="M35 0v32h43q73 0 104 46q18 28 18 127v742q0 107 -24 134q-33 37 -98 37h-43v32h520v-32h-9q-84 0 -119 -17q-37 -18 -50.5 -45t-13.5 -130v-721q0 -71 13 -97q11 -18 32 -26.5t133 -8.5h83q133 0 186 19.5t97.5 69t87.5 156.5l29 -6l-99 -312h-890z" />
<glyph unicode="M" horiz-adv-x="1544" d="M29 0v32h41q72 0 103 43q19 28 19 124v752q0 76 -17 110q-12 24 -43.5 40.5t-102.5 16.5v32h325l418 -900l410 900h325v-32h-39q-74 0 -105 -43q-18 -28 -18 -124v-752q0 -106 23 -132q32 -35 100 -35h39v-32h-487v32h40q74 0 104 43q18 28 18 124v769l-443 -968h-29 l-444 968v-769q0 -106 23 -132q31 -35 99 -35h41v-32h-400z" />
<glyph unicode="N" horiz-adv-x="1254" d="M-23 1118v32h312l703 -863v664q0 106 -23 132q-32 35 -100 35h-40v32h401v-32h-41q-73 0 -104 -43q-19 -28 -19 -124v-970h-29l-759 926v-708q0 -106 23 -132q32 -35 100 -35h40v-32h-401v32h41q74 0 103 43q20 28 20 124v800q-50 59 -76 77.5t-76 34.5q-24 7 -75 7z" />
<glyph unicode="O" horiz-adv-x="1254" d="M61 579q0 274 187 447q161 151 387 151q224 0 388 -170.5t164 -424.5q0 -262 -165.5 -435.5t-400.5 -173.5q-237 0 -398.5 169.5t-161.5 436.5zM255 583q0 -282 120 -434q94 -115 245 -115q162 0 267.5 126t105.5 399q0 295 -116 440q-94 115 -258 115q-155 0 -248 -114 q-116 -142 -116 -417z" />
<glyph unicode="P" horiz-adv-x="966" d="M29 0v32h43q73 0 104 46q17 27 17 126v743q0 108 -22 134q-33 37 -99 37h-43v32h421q154 0 243 -32t150.5 -107.5t61.5 -178.5q0 -141 -93 -229t-263 -88q-41 0 -89.5 6t-103.5 17v-334q0 -109 23 -135q33 -37 98 -37h45v-32h-493zM356 587q45 -8 80 -12.5t59 -4.5 q88 0 152 68t64 177q0 74 -30 138.5t-86.5 96t-127.5 31.5q-43 0 -111 -16v-478z" />
<glyph unicode="Q" horiz-adv-x="1254" d="M61 578q0 257 167 428t405 171q226 0 390.5 -171.5t164.5 -430.5q0 -212 -117.5 -371t-305.5 -217q86 -149 187 -219.5t229 -80.5v-27q-118 4 -251 47t-252 118.5t-205 161.5q-123 49 -194 104q-103 83 -160.5 202.5t-57.5 284.5zM255 578q0 -279 120 -431 q94 -115 247 -115q160 0 258 115q114 138 114 406q0 206 -63 347q-48 108 -128 159.5t-181 51.5q-153 0 -248 -110q-119 -138 -119 -423z" />
<glyph unicode="R" horiz-adv-x="1159" d="M30 0v32h43q73 0 104 46q18 27 18 126v743q0 108 -23 134q-34 37 -99 37h-43v32h418q184 0 271 -27t147 -98.5t60 -170.5q0 -106 -68.5 -184.5t-214.5 -109.5l238 -330q81 -113 139.5 -151t152.5 -47v-32h-306l-390 537q-42 -1 -70 -1h-23.5t-26.5 1v-333q0 -109 24 -135 q32 -37 96 -37h46v-32h-493zM357 591q16 0 27.5 -0.5t20.5 -0.5q164 0 247.5 71t83.5 182q0 108 -67.5 175t-178.5 67q-49 0 -133 -15v-479z" />
<glyph unicode="S" horiz-adv-x="966" d="M108 873q0 124 95.5 214t241.5 90q91 0 194 -46q48 -21 67 -21q22 0 36.5 13t22.5 54h31v-399h-31q-16 115 -55 182.5t-112 108t-151 40.5q-89 0 -146 -54t-57 -123q0 -52 36 -96q53 -63 250 -169q161 -87 220 -133t90.5 -108.5t31.5 -131.5q0 -131 -101 -226t-260 -95 q-51 0 -94 8q-27 4 -109.5 31t-105.5 27q-21 0 -33 -12.5t-18 -53.5h-31v395h31q22 -124 59.5 -185.5t114 -102t168.5 -40.5q106 0 167.5 56t61.5 132q0 42 -23.5 85.5t-73.5 80.5q-32 26 -179.5 108.5t-210 132t-95 108.5t-32.5 130z" />
<glyph unicode="T" horiz-adv-x="1061" d="M53 880l13 270h939l13 -270h-32q-10 72 -26 102q-26 49 -70 72.5t-115 23.5h-162v-879q0 -106 23 -132q32 -35 100 -35h39v-32h-488v32h42q72 0 102 43q19 28 19 124v879h-138q-81 0 -115 -12q-43 -17 -74.5 -62.5t-37.5 -123.5h-32z" />
<glyph unicode="U" horiz-adv-x="1254" d="M10 1118v32h497v-32h-45q-71 0 -102 -44q-21 -31 -21 -127v-502q0 -67 12.5 -153t44.5 -135t92.5 -80t149.5 -31q112 0 201.5 49t122 126t32.5 260v466q0 107 -24 134q-33 37 -99 37h-42v32h407v-32h-44q-67 0 -104 -56q-17 -26 -17 -123v-466q0 -173 -34.5 -268.5 t-135.5 -164t-273 -68.5q-189 0 -286.5 66t-137.5 176q-28 75 -28 283v450q0 106 -29 138.5t-94 32.5h-43z" />
<glyph unicode="V" horiz-adv-x="1254" d="M15 1118v32h470v-32q-80 -7 -103.5 -26.5t-23.5 -50.5q0 -42 38 -132l293 -674l271 666q41 98 41 136q0 25 -24.5 47.5t-83.5 31.5q-5 1 -14 2v32h354v-32q-61 -10 -92 -39q-45 -41 -80 -127l-402 -979h-30l-432 992q-33 76 -46 93q-22 26 -52.5 41t-83.5 19z" />
<glyph unicode="W" horiz-adv-x="1639" d="M23 1118v32h425v-32h-20q-44 0 -68 -20t-24 -49t37 -136l227 -646l191 549l-34 97l-28 77q-18 42 -40 74q-11 16 -27 28q-21 15 -42 21q-16 5 -51 5v32h448v-32h-31q-47 0 -69 -20t-22 -55q0 -43 38 -150l220 -626l219 634q38 105 38 145q0 20 -13 37t-31 24 q-33 11 -83 11v32h343v-32q-46 0 -74 -16t-53 -60q-17 -30 -53 -141l-320 -928h-34l-263 736l-260 -736h-31l-341 956q-38 107 -49 126q-17 33 -46 48t-79 15z" />
<glyph unicode="X" horiz-adv-x="1254" d="M13 0v32q43 4 74 17q53 22 100.5 59.5t108.5 114.5l271 343l-226 331q-93 135 -157 177t-148 44v32h531v-32q-68 -2 -93 -21.5t-25 -42.5q0 -32 41 -93l177 -264l204 259q35 47 43 64t8 34q0 18 -9 31q-13 18 -32.5 25t-81.5 8v32h408v-32q-47 -2 -78 -15 q-46 -20 -84 -52.5t-108 -121.5l-228 -292l247 -368q102 -152 152 -192.5t126 -44.5v-32h-494v32q50 0 73 9q18 8 29.5 24t11.5 31q0 21 -8 40q-5 15 -47 74l-195 296l-240 -309q-39 -50 -46 -66.5t-7 -34.5q0 -26 22.5 -44t87.5 -20v-32h-408z" />
<glyph unicode="Y" horiz-adv-x="1254" d="M16 1118v32h492v-32h-26q-39 0 -73 -18.5t-34 -55.5q0 -31 52 -110l241 -371l225 355q50 79 50 119q0 23 -12 41.5t-35 29t-68 10.5v32h401v-32h-23q-21 0 -63.5 -19.5t-77.5 -55.5t-86 -119l-277 -436v-289q0 -106 24 -132q32 -35 102 -35h37v-32h-489v32h42 q72 0 102 43q20 28 20 124v273l-316 481q-57 85 -76.5 106t-81.5 51q-17 8 -50 8z" />
<glyph unicode="Z" horiz-adv-x="1061" d="M22 0v32l738 1049h-368q-92 0 -133 -20t-62.5 -57.5t-39.5 -140.5h-32l23 287h851l-755 -1080h470q110 0 167.5 47t103.5 193l27 -6l-54 -304h-936z" />
<glyph unicode="[" horiz-adv-x="649" d="M191 -233v1926h373v-98h-233v-1732h233v-96h-373z" />
<glyph unicode="\" horiz-adv-x="609" d="M57 938h122l406 -1317h-120z" />
<glyph unicode="]" horiz-adv-x="649" d="M212 -137h233v1732h-233v98h373v-1926h-373v96z" />
<glyph unicode="^" horiz-adv-x="986" d="M87 452l365 532h82l363 -531h-131l-273 412l-275 -413h-131z" />
<glyph unicode="_" horiz-adv-x="924" d="M-13 -141h950v-107h-950v107z" />
<glyph unicode="`" horiz-adv-x="225" d="M49 1112q-3 39 78 -50q37 -85 60 -160q7 -55 -5 -49q-23 34 -73.5 129.5t-59.5 129.5z" />
<glyph unicode="a" horiz-adv-x="771" d="M61 184q0 57 26 98q35 58 121.5 109t285.5 124v30q0 116 -36.5 159.5t-107.5 43.5q-53 0 -85 -29t-32 -66l2 -49q0 -39 -20 -60t-52 -21t-52 21.5t-20 59.5q0 73 75 134t209 61q104 0 170 -34q51 -26 74 -82q15 -36 15 -150v-264q0 -110 4 -135.5t14 -34t23 -8.5 q14 0 24 7q18 10 68 61v-47q-95 -127 -181 -127q-41 0 -66 28.5t-26 98.5q-119 -93 -150 -107q-45 -21 -97 -21q-81 0 -133.5 55t-52.5 145zM205 224q0 -61 36.5 -101t82.5 -40q65 0 170 84v296q-127 -51 -165 -72q-67 -37 -95.5 -78t-28.5 -89z" />
<glyph unicode="b" horiz-adv-x="868" d="M-4 1111l233 95h38v-564q112 157 244 157q119 0 208 -101.5t89 -279.5q0 -207 -137 -333q-118 -108 -263 -108q-68 0 -138 24t-143 73v806q0 131 -6.5 162t-20 42t-33.5 11q-24 0 -60 -14zM267 124q44 -42 90 -64t95 -22q76 0 142.5 85t66.5 247q0 149 -66.5 229 t-151.5 80q-44 0 -89 -23q-34 -17 -87 -68v-464z" />
<glyph unicode="c" horiz-adv-x="771" d="M59 388q0 182 109.5 296.5t261.5 114.5q115 0 188.5 -60.5t73.5 -125.5q0 -32 -20.5 -52t-58.5 -20q-50 0 -76 32q-13 18 -18 68t-35 77q-29 25 -82 25q-85 0 -137 -62q-68 -84 -68 -221q0 -139 68 -245.5t184 -106.5q83 0 150 57q47 40 90 142l25 -12 q-31 -153 -123 -235.5t-203 -82.5q-131 0 -230 110.5t-99 300.5z" />
<glyph unicode="d" horiz-adv-x="868" d="M57 356q0 168 105.5 306t271.5 138q102 0 169 -64v143q0 132 -6.5 163t-20 42t-33.5 11q-23 0 -59 -14l-11 30l232 95h38v-899q0 -135 6.5 -165.5t20 -42.5t32.5 -12q23 0 61 15l9 -30l-230 -95h-39v110q-57 -59 -111 -84.5t-117 -25.5q-127 0 -222.5 106t-95.5 273z M213 423q0 -171 75 -262t166 -91q77 0 149 76v401q-5 57 -30.5 105t-67.5 72t-82 24q-74 0 -133 -67q-77 -88 -77 -258z" />
<glyph unicode="e" horiz-adv-x="771" d="M65 378q0 200 102 311t256 111q130 0 214.5 -85.5t84.5 -230.5h-538q0 -172 85 -271t200 -99q76 0 132 42t94 144l27 -17q-18 -116 -104 -211t-214 -95q-140 0 -239.5 108.5t-99.5 292.5zM184 533h361q-4 75 -18 105q-21 48 -63 75t-89 27q-70 0 -125.5 -54.5 t-65.5 -152.5z" />
<glyph unicode="f" horiz-adv-x="579" d="M67 715v62h151v51q0 115 37.5 196t114 130.5t172.5 49.5q89 0 164 -57q49 -38 49 -86q0 -25 -22.5 -48t-47.5 -23q-19 0 -41 14.5t-53 60.5t-58 62q-26 16 -58 16q-39 0 -66 -21t-39 -64.5t-12 -224.5v-56h200v-62h-200v-509q0 -110 24 -138q31 -37 83 -37h71v-31h-464 v31h35q34 0 62 17t38.5 45.5t10.5 112.5v509h-151z" />
<glyph unicode="g" horiz-adv-x="868" d="M52 -213q0 20 9 41q14 31 60 87q5 8 86 91q-44 27 -62.5 47.5t-18.5 47.5q0 29 24.5 69t111.5 113q-71 35 -109.5 97.5t-38.5 137.5q0 116 87 198.5t223 82.5q111 0 193 -54h164q36 0 42 -2t9 -7q5 -8 5 -27q0 -22 -4 -31q-3 -4 -9.5 -6.5t-42.5 -2.5h-100 q46 -61 46 -156q0 -108 -82.5 -185.5t-222.5 -77.5q-58 0 -119 17q-37 -32 -50 -56t-13 -41q0 -15 14 -28.5t54 -19.5q25 -3 119 -5q175 -5 227 -13q78 -11 125.5 -58.5t47.5 -116.5q0 -96 -90 -180q-133 -124 -345 -124q-164 0 -276 74q-64 42 -64 88zM173 -149 q0 -41 50 -71q84 -53 244 -53q153 0 225.5 54t72.5 115q0 44 -43 63q-45 18 -175 22q-191 4 -294 19q-39 -43 -59.5 -80.5t-20.5 -68.5zM262 555q0 -133 58 -207q44 -57 111 -57q65 0 106.5 48.5t41.5 152.5q0 134 -59 211q-43 56 -111 56q-62 0 -104.5 -50t-42.5 -154z" />
<glyph unicode="h" horiz-adv-x="868" d="M11 1111l233 95h38v-568q94 103 149.5 132t110.5 29q66 0 113.5 -36t70.5 -114q16 -54 16 -199v-274q0 -74 12 -102q8 -20 28.5 -31.5t75.5 -11.5v-31h-382v31h18q54 0 75 16.5t30 47.5q2 14 2 81v274q0 128 -13 167.5t-42 59.5t-69 20q-42 0 -86.5 -22t-108.5 -89v-410 q0 -81 9 -100t33.5 -32t83.5 -13v-31h-385v31q51 0 81 16q17 8 27.5 32t10.5 97v703q0 132 -6.5 163t-19.5 42t-35 11q-18 0 -58 -14z" />
<glyph unicode="i" horiz-adv-x="482" d="M51 705l234 94h37v-623q0 -73 10.5 -97.5t31.5 -36t76 -11.5v-31h-377v31q57 0 76.5 11t30.5 36.5t11 97.5v299q0 126 -7 163q-7 28 -19.5 38.5t-33.5 10.5q-25 0 -58 -13zM165 1120q0 35 25 60.5t62 25.5q35 0 60 -25.5t25 -60.5q0 -36 -25 -61.5t-60 -25.5 q-36 0 -61.5 25.5t-25.5 61.5z" />
<glyph unicode="j" horiz-adv-x="482" d="M-134 -289q0 29 21.5 50.5t48.5 21.5q23 0 45 -11q15 -6 56 -42.5t69 -36.5q20 0 39.5 15t29 52.5t9.5 159.5v553q0 128 -8 165q-5 28 -18 38.5t-35 10.5q-23 0 -57 -13l-13 31l234 94h37v-781q0 -199 -84.5 -296t-220.5 -97q-77 0 -115 28t-38 58zM164 1119 q0 36 25.5 61.5t61.5 25.5t61.5 -25.5t25.5 -61.5t-25.5 -61.5t-61.5 -25.5t-61.5 25.5t-25.5 61.5z" />
<glyph unicode="k" horiz-adv-x="868" d="M15 0v31q59 0 89 14q17 9 26 29q13 28 13 97v707q0 134 -6 164.5t-19.5 42t-34.5 11.5q-18 0 -54 -15l-14 30l230 95h39v-774l197 181q64 58 73 73q8 10 8 20q0 17 -14.5 29.5t-46.5 13.5v28h337v-28q-68 -1 -115 -20.5t-102 -69.5l-199 -184l199 -252q84 -104 113 -132 q40 -40 71 -52q21 -8 74 -8v-31h-378v31q32 1 43.5 9.5t11.5 25.5q0 19 -33 62l-239 304v-257q0 -75 10.5 -99t30 -34t84.5 -11v-31h-394z" />
<glyph unicode="l" horiz-adv-x="482" d="M52 1111l231 95h38v-1030q0 -73 10.5 -97t33 -36t82.5 -12v-31h-381v31q54 0 73.5 11t30 36.5t10.5 97.5v705q0 131 -5.5 161.5t-19 41.5t-33.5 11q-22 0 -56 -14z" />
<glyph unicode="m" horiz-adv-x="1350" d="M15 705l233 94h37v-165q85 85 100 97q38 33 82 50.5t87 17.5q74 0 126 -42.5t70 -122.5q87 102 147.5 133.5t124.5 31.5q61 0 109.5 -31.5t75.5 -103.5q19 -49 19 -154v-334q0 -73 11 -101q8 -18 31 -31t75 -13v-31h-383v31h16q50 0 78 19q20 14 28 43q3 15 3 83v334 q0 94 -23 133q-33 54 -106 54q-44 0 -90 -22t-109 -84l-2 -8l2 -37v-370q0 -81 8.5 -100t33.5 -32t84 -13v-31h-393v31q64 0 88.5 15t34.5 45q4 15 4 85v334q0 94 -29 137q-37 54 -104 54q-45 0 -91 -25q-70 -38 -108 -85v-415q0 -76 10.5 -99.5t31.5 -34.5t84 -11v-31h-383 v31q53 0 74 11t32 36.5t11 97.5v297q0 127 -7 165q-7 28 -19.5 38.5t-34.5 10.5q-24 0 -56 -13z" />
<glyph unicode="n" horiz-adv-x="868" d="M11 705l233 94h37v-164q137 164 260 164q63 0 109 -31.5t73 -103.5q19 -51 19 -157v-331q0 -74 12 -101q9 -21 30 -32.5t77 -11.5v-31h-384v31h16q54 0 75.5 16.5t30.5 47.5q3 13 3 81v318q0 106 -27.5 153.5t-93.5 47.5q-100 0 -200 -110v-409q0 -80 9 -98 q12 -25 32.5 -36t84.5 -11v-31h-384v31h17q60 0 80.5 30t20.5 115v288q0 140 -6.5 170.5t-19.5 41.5t-36 11t-56 -13z" />
<glyph unicode="o" horiz-adv-x="868" d="M58 381q0 107 53 212.5t139.5 155.5t184.5 50q176 0 283 -133q90 -115 90 -263q0 -104 -50 -211t-138 -161t-195 -54q-176 0 -279 140q-88 117 -88 264zM216 452q0 -170 67.5 -293t177.5 -123q83 0 136.5 68t53.5 233q0 208 -89 327q-61 80 -154 80q-45 0 -90.5 -26.5 t-73.5 -93t-28 -172.5z" />
<glyph unicode="p" horiz-adv-x="868" d="M-6 -340h21h5q43 0 75 18q16 9 25 30t9 105v735q0 75 -6.5 95.5t-21.5 31t-41 10.5q-20 0 -52 -13l-10 28l239 96h32v-181q61 103 122 143.5t127 40.5q117 0 195 -91q96 -112 96 -291q0 -202 -116 -333q-94 -107 -238 -107q-63 0 -109 17q-34 12 -77 51v-237 q0 -79 10 -101t34 -34.5t88 -12.5v-31h-407v31zM269 275q0 -95 9 -124q11 -49 57.5 -86t116.5 -37q84 0 137 65q69 87 69 244q0 178 -78 274q-54 65 -128 65q-42 0 -81 -20q-31 -15 -102 -91v-290z" />
</font>
</defs>
</svg>
