<?xml version="1.0" standalone="no"?>
<!DOCTYPE svg PUBLIC "-//W3C//DTD SVG 1.1//EN" "http://www.w3.org/Graphics/SVG/1.1/DTD/svg11.dtd" >
<svg xmlns="http://www.w3.org/2000/svg" xmlns:xlink="http://www.w3.org/1999/xlink" version="1.1">
<metadata></metadata>
<defs>
<font id="irtitrregular" horiz-adv-x="0" >
<font-face units-per-em="2048" ascent="1638" descent="-410" />
<missing-glyph horiz-adv-x="400" />
<glyph unicode="&#xfedf;&#xfee0;&#x651;&#x670;&#xfeea;" horiz-adv-x="2022" arabic-form="isolated" d="M177 354q0 98 79 208q22 31 143 102q106 61 163 84l-19 78l191 197q17 17 27 17q15 0 21 -35l73 -395q29 -155 148 -155q109 0 109 132q0 5 -0.5 11t-0.5 13l-32 479v4q0 14 10 22l272 176q8 5 13 5q11 0 11 -22v-529q0 -160 34 -235t119 -75q48 0 79.5 29.5t31.5 77.5 q0 249 -99 599l201 221q34 29 45 29q12 0 32 -44l153 -339q12 -27 12 -43q0 -22 -29 -22q-25 0 -82 17l25 -486v-8.5t0.5 -15t0.5 -15.5v-9q0 -102 -24 -182t-70.5 -135.5t-114.5 -85t-156 -29.5q-200 0 -305 155q-38 -44 -69 -72.5t-60 -45.5t-58.5 -24t-63.5 -7 q-225 0 -301 240q-7 -16 -23 -34.5t-36 -34t-40 -26t-35 -10.5q-94 0 -214 49q-161 65 -161 169zM411 496q0 -44 232 -51l-43 162q-189 -68 -189 -111zM1008 1393q0 43 15 108l85 13q-18 -47 -18 -77q0 -38 29 -38q56 0 69 145l90 27l-5 -61q1 -40 31 -40q35 0 43 27 q2 8 4 30t3 58l81 24q0 -257 -131 -257q-46 0 -74 36q-36 -107 -122 -107q-100 0 -100 112zM1157 1831l85 104q21 -69 21 -167q0 -170 -76 -170q0 60 -7 118t-23 115z" />
<glyph unicode="&#xfedf;&#xfe82;" horiz-adv-x="1173" arabic-form="isolated" d="M-141 1595q2 48 65 161q54 84 99 107q37 10 142.5 -21.5t175.5 -41.5t105 -9q73 -1 179 25q83 28 98 28q36 0 36 -38q0 -72 -132 -146q-160 -86 -334 -86q-17 0 -43.5 3.5t-56 8.5t-59.5 10.5t-55.5 10.5t-43 8.5t-21.5 3.5q-30 0 -59 -50q-30 -48 -54 -48q-47 0 -42 74z M72 1096q0 13 4 24l95 298q15 49 48 49q21 0 53 -26t72.5 -72t87 -107.5t95.5 -132.5q78 -114 136.5 -212.5t100.5 -185.5q28 60 28 132q0 109 -28.5 208t-78.5 184l252 235q29 26 38 26q13 0 24 -30l129 -349q16 -42 16 -63q0 -24 -23 -24t-70 19q0 -11 0.5 -21.5 t0.5 -21.5q0 -185 -61 -336q-46 -114 -112 -177q39 -70 60 -131t21 -113q0 -6 -3.5 -25t-9.5 -45.5t-14 -56t-17 -55t-19 -44t-20 -22.5q-62 -26 -153.5 -37t-216.5 -12h-62t-69 2t-56 8t-23 17q0 15 16 50q27 62 48 235q216 115 276 221q-75 112 -156.5 204t-170.5 167 l-38 -63l-191 255q-9 12 -9 28zM562 247q42 -6 81 -6q19 0 43 1.5t45 6t35.5 12t14.5 19.5q0 6 -1 9q-11 38 -46 77q-57 -64 -172 -119z" />
<glyph unicode="&#xfee0;&#xfe82;" horiz-adv-x="1283" arabic-form="final" d="M-135 1688q2 48 65 161q54 84 99 107q37 10 142.5 -21.5t175.5 -41.5t105 -9q73 -1 179 25q83 28 98 28q36 0 36 -38q0 -72 -132 -146q-160 -86 -334 -86q-17 0 -43.5 3.5t-56 8.5t-59.5 10.5t-55.5 10.5t-43 8.5t-21.5 3.5q-30 0 -59 -50q-30 -48 -54 -48q-47 0 -42 74z M74 1195q0 10 3 22l83 267q16 55 54 55q26 0 61 -26q192 -143 329 -449q110 -249 122 -418q98 150 328 811q21 61 69 61q26 0 39.5 -14.5t19 -39t6 -55.5t0.5 -64q0 -55 -4 -137t-12 -193q-8 -110 -11.5 -192t-3.5 -137q0 -231 77 -231h49v-454h-83q-166 0 -225 122 q-51 105 -51 374q-20 -56 -50 -122.5t-72 -145.5q-74 -142 -123 -208q-14 -20 -276 -42q-81 -7 -136.5 -10.5t-87.5 -3.5q-52 0 -52 55q0 37 36 58q267 157 408 378q9 13 9 41q0 90 -80 252q-86 170 -160 201l-35 -50l-215 252q-16 19 -16 43z" />
<glyph unicode="&#xfedf;&#xfe84;" horiz-adv-x="1173" arabic-form="isolated" d="M23 1492l6 100q29 24 52.5 41.5t41.5 27.5q-14 1 -27.5 8t-23.5 19.5t-16.5 28t-6.5 31.5q0 71 46 140q49 79 121 79q21 0 47.5 -8.5t48.5 -24t37 -36t15 -42.5q0 -18 -20 -18q-5 0 -15 1.5t-20.5 4t-20.5 4.5t-15 2q-24 0 -45.5 -5t-38 -14t-26 -21t-9.5 -26 q0 -44 86 -44q18 0 70 18l98 35l-21 -131q-197 -57 -364 -170zM72 1096q0 13 4 24l95 298q15 49 48 49q21 0 53 -26t72.5 -72t87 -107.5t95.5 -132.5q78 -114 136.5 -212.5t100.5 -185.5q28 60 28 132q0 109 -28.5 208t-78.5 184l252 235q29 26 38 26q13 0 24 -30l129 -349 q16 -42 16 -63q0 -24 -23 -24t-70 19q0 -11 0.5 -21.5t0.5 -21.5q0 -185 -61 -336q-46 -114 -112 -177q39 -70 60 -131t21 -113q0 -6 -3.5 -25t-9.5 -45.5t-14 -56t-17 -55t-19 -44t-20 -22.5q-62 -26 -153.5 -37t-216.5 -12h-62t-69 2t-56 8t-23 17q0 15 16 50 q27 62 48 235q216 115 276 221q-75 112 -156.5 204t-170.5 167l-38 -63l-191 255q-9 12 -9 28zM562 247q42 -6 81 -6q19 0 43 1.5t45 6t35.5 12t14.5 19.5q0 6 -1 9q-11 38 -46 77q-57 -64 -172 -119z" />
<glyph unicode="&#xfee0;&#xfe84;" horiz-adv-x="1283" arabic-form="final" d="M53 1579l6 100q29 24 52.5 41.5t41.5 27.5q-14 1 -27.5 8t-23.5 19.5t-16.5 28t-6.5 31.5q0 71 46 140q49 79 121 79q21 0 47.5 -8.5t48.5 -24t37 -36t15 -42.5q0 -18 -20 -18q-5 0 -15 1.5t-20.5 4t-20.5 4.5t-15 2q-24 0 -45.5 -5t-38 -14t-26 -21t-9.5 -26 q0 -44 86 -44q18 0 70 18l98 35l-21 -131q-197 -57 -364 -170zM74 1195q0 10 3 22l83 267q16 55 54 55q26 0 61 -26q192 -143 329 -449q110 -249 122 -418q98 150 328 811q21 61 69 61q26 0 39.5 -14.5t19 -39t6 -55.5t0.5 -64q0 -55 -4 -137t-12 -193q-8 -110 -11.5 -192 t-3.5 -137q0 -231 77 -231h49v-454h-83q-166 0 -225 122q-51 105 -51 374q-20 -56 -50 -122.5t-72 -145.5q-74 -142 -123 -208q-14 -20 -276 -42q-81 -7 -136.5 -10.5t-87.5 -3.5q-52 0 -52 55q0 37 36 58q267 157 408 378q9 13 9 41q0 90 -80 252q-86 170 -160 201l-35 -50 l-215 252q-16 19 -16 43z" />
<glyph unicode="&#xfedf;&#xfe88;" horiz-adv-x="1173" arabic-form="isolated" d="M72 1096q0 13 4 24l95 298q15 49 48 49q21 0 53 -26t72.5 -72t87 -107.5t95.5 -132.5q78 -114 136.5 -212.5t100.5 -185.5q28 60 28 132q0 109 -28.5 208t-78.5 184l252 235q29 26 38 26q13 0 24 -30l129 -349q16 -42 16 -63q0 -24 -23 -24t-70 19q0 -11 0.5 -21.5 t0.5 -21.5q0 -185 -61 -336q-46 -114 -112 -177q39 -70 60 -131t21 -113q0 -6 -3.5 -25t-9.5 -45.5t-14 -56t-17 -55t-19 -44t-20 -22.5q-62 -26 -153.5 -37t-216.5 -12h-62t-69 2t-56 8t-23 17q0 15 16 50q27 62 48 235q216 115 276 221q-75 112 -156.5 204t-170.5 167 l-38 -63l-191 255q-9 12 -9 28zM240 -612l6 100q29 24 52.5 41.5t41.5 27.5q-14 1 -27.5 8t-23.5 19.5t-16.5 28t-6.5 31.5q0 71 46 140q49 79 121 79q21 0 47.5 -8.5t48.5 -24t37 -36t15 -42.5q0 -18 -20 -18q-5 0 -15 1.5t-20.5 4t-20.5 4.5t-15 2q-24 0 -45.5 -5t-38 -14 t-26 -21t-9.5 -26q0 -44 86 -44q18 0 70 18l98 35l-21 -131q-197 -57 -364 -170zM562 247q42 -6 81 -6q19 0 43 1.5t45 6t35.5 12t14.5 19.5q0 6 -1 9q-11 38 -46 77q-57 -64 -172 -119z" />
<glyph unicode="&#xfee0;&#xfe88;" horiz-adv-x="1283" arabic-form="final" d="M74 1195q0 10 3 22l83 267q16 55 54 55q26 0 61 -26q192 -143 329 -449q110 -249 122 -418q98 150 328 811q21 61 69 61q26 0 39.5 -14.5t19 -39t6 -55.5t0.5 -64q0 -55 -4 -137t-12 -193q-8 -110 -11.5 -192t-3.5 -137q0 -231 77 -231h49v-454h-83q-166 0 -225 122 q-51 105 -51 374q-20 -56 -50 -122.5t-72 -145.5q-74 -142 -123 -208q-14 -20 -276 -42q-81 -7 -136.5 -10.5t-87.5 -3.5q-52 0 -52 55q0 37 36 58q267 157 408 378q9 13 9 41q0 90 -80 252q-86 170 -160 201l-35 -50l-215 252q-16 19 -16 43zM148 -631l6 100 q29 24 52.5 41.5t41.5 27.5q-14 1 -27.5 8t-23.5 19.5t-16.5 28t-6.5 31.5q0 71 46 140q49 79 121 79q21 0 47.5 -8.5t48.5 -24t37 -36t15 -42.5q0 -18 -20 -18q-5 0 -15 1.5t-20.5 4t-20.5 4.5t-15 2q-24 0 -45.5 -5t-38 -14t-26 -21t-9.5 -26q0 -44 86 -44q18 0 70 18 l98 35l-21 -131q-197 -57 -364 -170z" />
<glyph unicode="&#xfedf;&#xfe8e;" horiz-adv-x="1173" arabic-form="isolated" d="M72 1096q0 13 4 24l95 298q15 49 48 49q21 0 53 -26t72.5 -72t87 -107.5t95.5 -132.5q78 -114 136.5 -212.5t100.5 -185.5q28 60 28 132q0 109 -28.5 208t-78.5 184l252 235q29 26 38 26q13 0 24 -30l129 -349q16 -42 16 -63q0 -24 -23 -24t-70 19q0 -11 0.5 -21.5 t0.5 -21.5q0 -185 -61 -336q-46 -114 -112 -177q39 -70 60 -131t21 -113q0 -6 -3.5 -25t-9.5 -45.5t-14 -56t-17 -55t-19 -44t-20 -22.5q-62 -26 -153.5 -37t-216.5 -12h-62t-69 2t-56 8t-23 17q0 15 16 50q27 62 48 235q216 115 276 221q-75 112 -156.5 204t-170.5 167 l-38 -63l-191 255q-9 12 -9 28zM562 247q42 -6 81 -6q19 0 43 1.5t45 6t35.5 12t14.5 19.5q0 6 -1 9q-11 38 -46 77q-57 -64 -172 -119z" />
<glyph unicode="&#xfee0;&#xfe8e;" horiz-adv-x="1283" arabic-form="final" d="M74 1195q0 10 3 22l83 267q16 55 54 55q26 0 61 -26q192 -143 329 -449q110 -249 122 -418q98 150 328 811q21 61 69 61q26 0 39.5 -14.5t19 -39t6 -55.5t0.5 -64q0 -55 -4 -137t-12 -193q-8 -110 -11.5 -192t-3.5 -137q0 -231 77 -231h49v-454h-83q-166 0 -225 122 q-51 105 -51 374q-20 -56 -50 -122.5t-72 -145.5q-74 -142 -123 -208q-14 -20 -276 -42q-81 -7 -136.5 -10.5t-87.5 -3.5q-52 0 -52 55q0 37 36 58q267 157 408 378q9 13 9 41q0 90 -80 252q-86 170 -160 201l-35 -50l-215 252q-16 19 -16 43z" />
<glyph unicode="&#x672;" horiz-adv-x="616" d="M77.5 1489q2.5 21 7.5 34q21 51 90.5 59.5t99.5 22.5q-31 2 -72.5 24.5t-34.5 86.5q2 49 27 88.5t61 61t81 16.5t87 -47q13 -21 -1.5 -43.5t-45.5 -48.5q5 2 -17 25.5t-48 32.5q-18 5 -51.5 -13.5t-42.5 -55.5q9 -40 37 -57.5t67 -21.5t80.5 3.5t74.5 16.5 q15 4 7.5 -16.5t-23.5 -52.5q-64 -49 -205.5 -59.5t-166.5 -71.5q-14 -5 -11.5 16zM121 1233q0 31 18 46l291 205q30 21 41 21q13 0 13 -24v-881q0 -146 129 -146h3v-452h-79q-195 0 -285 96t-90 296q0 163 -12 439q-14 290 -27 380q-1 5 -1.5 10t-0.5 10z" />
<glyph unicode="&#x673;" horiz-adv-x="616" d="M121 1233q0 31 18 46l291 205q30 21 41 21q13 0 13 -24v-881q0 -146 129 -146h3v-452h-79q-195 0 -285 96t-90 296q0 163 -12 439q-14 290 -27 380q-1 5 -1.5 10t-0.5 10zM165.5 -524q2.5 21 7.5 34q21 51 90.5 59.5t99.5 22.5q-31 2 -72.5 24.5t-34.5 86.5q2 49 27 88.5 t61 61t81 16.5t87 -47q13 -21 -1.5 -43.5t-45.5 -48.5q5 2 -17 25.5t-48 32.5q-18 5 -51.5 -13.5t-42.5 -55.5q9 -40 37 -57.5t67 -21.5t80.5 3.5t74.5 16.5q15 4 7.5 -16.5t-23.5 -52.5q-64 -49 -205.5 -59.5t-166.5 -71.5q-14 -5 -11.5 16z" />
<glyph unicode="&#x675;" horiz-adv-x="616" d="M104 1489l6 100q29 24 52.5 41.5t41.5 27.5q-14 1 -27.5 8t-23.5 19.5t-16.5 28t-6.5 31.5q0 71 46 140q49 79 121 79q21 0 47.5 -8.5t48.5 -24t37 -36t15 -42.5q0 -18 -20 -18q-5 0 -15 1.5t-20.5 4t-20.5 4.5t-15 2q-24 0 -45.5 -5t-38 -14t-26 -21t-9.5 -26 q0 -44 86 -44q18 0 70 18l98 35l-21 -131q-197 -57 -364 -170zM121 1233q0 31 18 46l291 205q30 21 41 21q13 0 13 -24v-881q0 -146 129 -146h3v-452h-79q-195 0 -285 96t-90 296q0 163 -12 439q-14 290 -27 380q-1 5 -1.5 10t-0.5 10z" />
<glyph unicode="&#x676;" horiz-adv-x="949" d="M80 -453q0 37 36 54q65 31 142.5 74.5t168.5 100.5q246 154 250 215q-203 0 -264 24q-134 53 -134 244q0 175 58 327q79 211 236 211q218 0 286 -342h90v-454h-79q-25 -333 -178 -498q-23 -24 -60 -24h-469q-83 0 -83 68zM374 945l6 100q29 24 52.5 41.5t41.5 27.5 q-14 1 -27.5 8t-23.5 19.5t-16.5 28t-6.5 31.5q0 71 46 140q49 79 121 79q21 0 47.5 -8.5t48.5 -24t37 -36t15 -42.5q0 -18 -20 -18q-5 0 -15 1.5t-20.5 4t-20.5 4.5t-15 2q-24 0 -45.5 -5t-38 -14t-26 -21t-9.5 -26q0 -44 86 -44q18 0 70 18l98 35l-21 -131 q-197 -57 -364 -170zM448 389q0 -38 113 -38q103 0 103 19q0 15 -13 31t-32 28.5t-40.5 20.5t-38.5 8q-92 0 -92 -69z" />
<glyph unicode="&#x677;" horiz-adv-x="949" d="M80 -453q0 37 36 54q65 31 142.5 74.5t168.5 100.5q246 154 250 215q-203 0 -264 24q-134 53 -134 244q0 175 58 327q79 211 236 211q218 0 286 -342h90v-454h-79q-25 -333 -178 -498q-23 -24 -60 -24h-469q-83 0 -83 68zM121 967q137 40 187 90q-61 33 -61 105 q0 34 9.5 60.5t26.5 44.5t40 27.5t49 9.5q29 0 51 -9.5t37 -27t22.5 -40t7.5 -49.5q0 -127 -190 -223q-113 -57 -169 -59zM325 1171q0 -44 49 -44q40 0 40 43q0 24 -11.5 35t-34.5 11q-21 0 -32 -12t-11 -33zM448 389q0 -38 113 -38q103 0 103 19q0 15 -13 31t-32 28.5 t-40.5 20.5t-38.5 8q-92 0 -92 -69zM545 931l5 89q26 22 47 37.5t37 24.5q-13 1 -25 7t-21 17.5t-14.5 25t-5.5 28.5q0 63 41 125q44 71 108 71q19 0 42.5 -8t43 -21.5t33 -32t13.5 -38.5q0 -16 -18 -16q-4 0 -13 1.5t-18.5 3.5t-18.5 4t-13 2q-21 0 -40.5 -4.5t-34 -12.5 t-23 -19t-8.5 -23q0 -39 76 -39q17 0 63 16l88 31l-19 -117q-176 -51 -325 -152z" />
<glyph unicode="&#x678;" horiz-adv-x="1608" d="M121 -17q0 135 56 286q58 159 122 159q79 0 79 -89q0 -12 -3 -37t-6.5 -53t-6.5 -53.5t-3 -38.5q0 -284 492 -284q83 0 164.5 3.5t146 11t104.5 18.5t40 25q0 10 -25 15.5t-61.5 8t-78 3t-74.5 0.5q-149 0 -206 19q-97 31 -97 130q0 205 294 292q189 56 455 56h95v-454 h-32q-32 0 -72 48q-53 62 -108 89q-96 48 -263 48q-36 0 -71 -4t-62.5 -10.5t-44.5 -15.5t-17 -18q0 -24 113 -24q182 0 251 -20q137 -41 137 -178q0 -429 -696 -429q-158 0 -275 28.5t-194 88.5t-115 154t-38 225zM568 699l6 100q29 24 52.5 41.5t41.5 27.5q-14 1 -27.5 8 t-23.5 19.5t-16.5 28t-6.5 31.5q0 71 46 140q49 79 121 79q21 0 47.5 -8.5t48.5 -24t37 -36t15 -42.5q0 -18 -20 -18q-5 0 -15 1.5t-20.5 4t-20.5 4.5t-15 2q-24 0 -45.5 -5t-38 -14t-26 -21t-9.5 -26q0 -44 86 -44q18 0 70 18l98 35l-21 -131q-197 -57 -364 -170z" />
<glyph unicode="&#x67c;" horiz-adv-x="603" d="M-166 1304q0 9 10 19l109 111q8 8 16 8q6 0 16 -8l111 -107l106 107q7 7 15 7t16 -7l121 -117q7 -7 7 -12q0 -7 -8 -13l-119 -117q-7 -7 -13 -7q-7 0 -13 7l-112 110l-110 -110q-7 -7 -13 -7q-7 0 -13 7l-119 116q-7 6 -7 13zM-17 1v454h291q59 0 59 33q0 16 -17 39 q-63 81 -160 167q-8 6 -8 16q0 7 8 20l186 270q15 22 22 22q8 0 25 -20q156 -192 156 -476q0 -279 -79 -392q-91 -133 -340 -133h-143zM32 -118q0 62 32 143q40 99 97 99q33 0 65 -14t57.5 -38.5t41 -57.5t15.5 -70q0 -89 -43.5 -142t-119.5 -53q-31 0 -57.5 10t-46 28 t-30.5 42t-11 53zM105 -60q0 -59 88 -59q74 0 74 36q0 16 -11.5 33t-28.5 30t-36.5 21.5t-35.5 8.5q-50 0 -50 -70z" />
<glyph unicode="&#x67c;" horiz-adv-x="585" d="M32 1003q0 9 10 19l109 111q8 8 16 8q6 0 16 -8l111 -107l106 107q7 7 15 7t16 -7l121 -117q7 -7 7 -12q0 -7 -8 -13l-119 -117q-7 -7 -13 -7q-7 0 -13 7l-112 110l-110 -110q-7 -7 -13 -7q-7 0 -13 7l-119 116q-7 6 -7 13zM76 -107q0 62 32 143q40 99 97 99q33 0 65 -14 t57.5 -38.5t41 -57.5t15.5 -70q0 -89 -43.5 -142t-119.5 -53q-31 0 -57.5 10t-46 28t-30.5 42t-11 53zM89 1v454h105q107 0 149 64q10 14 40 117q19 64 69 64q47 0 62 -64q11 -50 19.5 -79t13.5 -38q37 -64 142 -64h47v-454h-47q-144 0 -223 133q-78 -133 -237 -133h-140z M149 -49q0 -59 88 -59q74 0 74 36q0 16 -11.5 33t-28.5 30t-36.5 21.5t-35.5 8.5q-50 0 -50 -70z" />
<glyph unicode="&#x67c;" horiz-adv-x="1658" d="M123 420q0 101 29 209q34 130 92 130q62 0 68 -98q6 -128 59 -183q95 -98 376 -98q300 0 488 79q122 51 213 148q73 79 93 79q53 0 53 -66q0 -9 -5 -28.5t-12.5 -41.5t-15.5 -41.5t-13 -27.5q21 -26 76 -26h34v-454h-37q-164 0 -248 173q-241 -232 -719 -232 q-138 0 -238.5 28.5t-165.5 87.5t-96 149t-31 213zM553 -205q0 62 32 143q40 99 97 99q33 0 65 -14t57.5 -38.5t41 -57.5t15.5 -70q0 -89 -43.5 -142t-119.5 -53q-31 0 -57.5 10t-46 28t-30.5 42t-11 53zM553 984q0 9 10 19l109 111q8 8 16 8q6 0 16 -8l111 -107l106 107 q7 7 15 7t16 -7l121 -117q7 -7 7 -12q0 -7 -8 -13l-119 -117q-7 -7 -13 -7q-7 0 -13 7l-112 110l-110 -110q-7 -7 -13 -7q-7 0 -13 7l-119 116q-7 6 -7 13zM626 -147q0 -59 88 -59q74 0 74 36q0 16 -11.5 33t-28.5 30t-36.5 21.5t-35.5 8.5q-50 0 -50 -70z" />
<glyph unicode="&#x67d;" horiz-adv-x="603" d="M-135 1393q0 8 8 16l111 113q7 7 14 7q5 0 14 -7l118 -113l109 113q7 7 14 7q6 0 15 -7l121 -117q5 -7 5 -11q0 -6 -6 -12l-118 -117q-6 -6 -12 -6t-12 6l-116 114l-116 -114q-6 -6 -12 -6t-12 6l-119 116q-6 6 -6 12zM-17 1v454h291q59 0 59 33q0 16 -17 39 q-63 81 -160 167q-8 6 -8 16q0 7 8 20l186 270q15 22 22 22q8 0 25 -20q156 -192 156 -476q0 -279 -79 -392q-91 -133 -340 -133h-143zM-6 1165q0 8 9 17l108 111q7 7 14 7q6 0 15 -7l121 -116q6 -6 6 -11q0 -6 -6 -12l-118 -117q-6 -6 -12 -6t-12 6l-120 117q-5 4 -5 11z " />
<glyph unicode="&#x67d;" horiz-adv-x="577" d="M-70 1v454h105q107 0 149 64q10 14 40 117q19 64 69 64q47 0 62 -64q11 -50 19.5 -79t13.5 -38q37 -64 142 -64h47v-454h-47q-144 0 -223 133q-78 -133 -237 -133h-140zM13 1212q0 8 8 16l111 113q7 7 14 7q5 0 14 -7l118 -113l109 113q7 7 14 7q6 0 15 -7l121 -117 q5 -7 5 -11q0 -6 -6 -12l-118 -117q-6 -6 -12 -6t-12 6l-116 114l-116 -114q-6 -6 -12 -6t-12 6l-119 116q-6 6 -6 12zM142 984q0 8 9 17l108 111q7 7 14 7q6 0 15 -7l121 -116q6 -6 6 -11q0 -6 -6 -12l-118 -117q-6 -6 -12 -6t-12 6l-120 117q-5 4 -5 11z" />
<glyph unicode="&#x67d;" horiz-adv-x="1658" d="M123 420q0 101 29 209q34 130 92 130q62 0 68 -98q6 -128 59 -183q95 -98 376 -98q300 0 488 79q122 51 213 148q73 79 93 79q53 0 53 -66q0 -9 -5 -28.5t-12.5 -41.5t-15.5 -41.5t-13 -27.5q21 -26 76 -26h34v-454h-37q-164 0 -248 173q-241 -232 -719 -232 q-138 0 -238.5 28.5t-165.5 87.5t-96 149t-31 213zM543 1137q0 8 8 16l111 113q7 7 14 7q5 0 14 -7l118 -113l109 113q7 7 14 7q6 0 15 -7l121 -117q5 -7 5 -11q0 -6 -6 -12l-118 -117q-6 -6 -12 -6t-12 6l-116 114l-116 -114q-6 -6 -12 -6t-12 6l-119 116q-6 6 -6 12z M672 909q0 8 9 17l108 111q7 7 14 7q6 0 15 -7l121 -116q6 -6 6 -11q0 -6 -6 -12l-118 -117q-6 -6 -12 -6t-12 6l-120 117q-5 4 -5 11z" />
<glyph unicode="&#x681;" horiz-adv-x="1240" d="M-70 1v454h269q307 0 457 56l-199 83q-104 43 -151 43q-46 0 -106 -42q-59 -42 -76 -42q-57 0 -57 66q0 72 96 206q120 166 264 166q100 0 252 -95q98 -62 166.5 -99.5t108.5 -51.5q34 -12 90 -27t136 -32q31 -7 31 -25q0 -11 -11 -38l-114 -269h-20q-149 0 -237 -42 q-61 -29 -177 -122q-57 -46 -102.5 -77t-80.5 -47q-144 -65 -316 -65h-223zM585 1115l6 100q29 24 52.5 41.5t41.5 27.5q-14 1 -27.5 8t-23.5 19.5t-16.5 28t-6.5 31.5q0 71 46 140q49 79 121 79q21 0 47.5 -8.5t48.5 -24t37 -36t15 -42.5q0 -18 -20 -18q-5 0 -15 1.5 t-20.5 4t-20.5 4.5t-15 2q-24 0 -45.5 -5t-38 -14t-26 -21t-9.5 -26q0 -44 86 -44q18 0 70 18l98 35l-21 -131q-197 -57 -364 -170z" />
<glyph unicode="&#x681;" horiz-adv-x="1244" d="M-70 1v454h213q289 0 508 104q-260 78 -328 78q-63 0 -116 -53t-87 -53q-57 0 -57 82q0 89 77 226q99 175 241 175q76 0 302 -77q228 -77 357 -77h115q36 0 36 -15q0 -7 -8 -34l-97 -306h-186q47 -50 189 -50h155v-454h-166q-269 0 -352 308q-108 -144 -292 -229 q-174 -79 -364 -79h-140zM566 1135l6 100q29 24 52.5 41.5t41.5 27.5q-14 1 -27.5 8t-23.5 19.5t-16.5 28t-6.5 31.5q0 71 46 140q49 79 121 79q21 0 47.5 -8.5t48.5 -24t37 -36t15 -42.5q0 -18 -20 -18q-5 0 -15 1.5t-20.5 4t-20.5 4.5t-15 2q-24 0 -45.5 -5t-38 -14 t-26 -21t-9.5 -26q0 -44 86 -44q18 0 70 18l98 35l-21 -131q-197 -57 -364 -170z" />
<glyph unicode="&#x681;" horiz-adv-x="1353" d="M122 31q0 215 200 364q130 96 401 190q-118 11 -188 16.5t-93 5.5q-83 0 -148 -61t-79 -61q-54 0 -54 91q0 88 77 225q101 179 248 179q95 0 295 -42q202 -41 304 -41h188q44 0 44 -22q0 -13 -11 -46l-99 -284h-102q27 -90 186 -90h62v-454h-58q-69 0 -126 29.5t-97.5 81 t-63 122.5t-22.5 155q0 80 19 159q-210 -52 -317 -138q-146 -119 -146 -326q0 -247 228 -329q117 -42 373 -42q133 0 133 -61q0 -33 -37.5 -58.5t-97 -43.5t-133.5 -27t-147 -9q-173 0 -310 34.5t-232 100.5t-146 162.5t-51 219.5zM581 1147l6 100q29 24 52.5 41.5 t41.5 27.5q-14 1 -27.5 8t-23.5 19.5t-16.5 28t-6.5 31.5q0 71 46 140q49 79 121 79q21 0 47.5 -8.5t48.5 -24t37 -36t15 -42.5q0 -18 -20 -18q-5 0 -15 1.5t-20.5 4t-20.5 4.5t-15 2q-24 0 -45.5 -5t-38 -14t-26 -21t-9.5 -26q0 -44 86 -44q18 0 70 18l98 35l-21 -131 q-197 -57 -364 -170z" />
<glyph unicode="&#x682;" horiz-adv-x="1240" d="M-70 1v454h269q307 0 457 56l-199 83q-104 43 -151 43q-46 0 -106 -42q-59 -42 -76 -42q-57 0 -57 66q0 72 96 206q120 166 264 166q100 0 252 -95q98 -62 166.5 -99.5t108.5 -51.5q34 -12 90 -27t136 -32q31 -7 31 -25q0 -11 -11 -38l-114 -269h-20q-149 0 -237 -42 q-61 -29 -177 -122q-57 -46 -102.5 -77t-80.5 -47q-144 -65 -316 -65h-223zM636 1221q0 6 8 16l107 111l-107 106q-7 7 -7 15t7 16l117 121q7 7 12 7q7 0 13 -8l117 -119q7 -7 7 -13q0 -7 -7 -13l-110 -112l110 -110q7 -7 7 -13q0 -7 -7 -13l-116 -119q-6 -7 -13 -7 q-9 0 -19 10l-111 109q-8 8 -8 16z" />
<glyph unicode="&#x682;" horiz-adv-x="1244" d="M-70 1v454h213q289 0 508 104q-260 78 -328 78q-63 0 -116 -53t-87 -53q-57 0 -57 82q0 89 77 226q99 175 241 175q76 0 302 -77q228 -77 357 -77h115q36 0 36 -15q0 -7 -8 -34l-97 -306h-186q47 -50 189 -50h155v-454h-166q-269 0 -352 308q-108 -144 -292 -229 q-174 -79 -364 -79h-140zM448 1333q0 6 8 16l107 111l-107 106q-7 7 -7 15t7 16l117 121q7 7 12 7q7 0 13 -8l117 -119q7 -7 7 -13q0 -7 -7 -13l-110 -112l110 -110q7 -7 7 -13q0 -7 -7 -13l-116 -119q-6 -7 -13 -7q-9 0 -19 10l-111 109q-8 8 -8 16z" />
<glyph unicode="&#x682;" horiz-adv-x="1353" d="M122 31q0 215 200 364q130 96 401 190q-118 11 -188 16.5t-93 5.5q-83 0 -148 -61t-79 -61q-54 0 -54 91q0 88 77 225q101 179 248 179q95 0 295 -42q202 -41 304 -41h188q44 0 44 -22q0 -13 -11 -46l-99 -284h-102q27 -90 186 -90h62v-454h-58q-69 0 -126 29.5t-97.5 81 t-63 122.5t-22.5 155q0 80 19 159q-210 -52 -317 -138q-146 -119 -146 -326q0 -247 228 -329q117 -42 373 -42q133 0 133 -61q0 -33 -37.5 -58.5t-97 -43.5t-133.5 -27t-147 -9q-173 0 -310 34.5t-232 100.5t-146 162.5t-51 219.5zM641 1256q0 6 8 16l107 111l-107 106 q-7 7 -7 15t7 16l117 121q7 7 12 7q7 0 13 -8l117 -119q7 -7 7 -13q0 -7 -7 -13l-110 -112l110 -110q7 -7 7 -13q0 -7 -7 -13l-116 -119q-6 -7 -13 -7q-9 0 -19 10l-111 109q-8 8 -8 16z" />
<glyph unicode="&#x685;" horiz-adv-x="1240" d="M-70 1v454h269q307 0 457 56l-199 83q-104 43 -151 43q-46 0 -106 -42q-59 -42 -76 -42q-57 0 -57 66q0 72 96 206q120 166 264 166q100 0 252 -95q98 -62 166.5 -99.5t108.5 -51.5q34 -12 90 -27t136 -32q31 -7 31 -25q0 -11 -11 -38l-114 -269h-20q-149 0 -237 -42 q-61 -29 -177 -122q-57 -46 -102.5 -77t-80.5 -47q-144 -65 -316 -65h-223zM455 1264q0 6 6 12l118 118q7 5 13 5q5 0 12 -5l115 -115l116 115q5 5 11 5q5 0 13 -5l119 -117q6 -6 6 -13t-8 -15l-110 -112q-8 -8 -14 -10q-7 2 -15 10l-118 112l-109 -112q-7 -7 -14 -7 q-8 0 -15 7l-121 116q-5 7 -5 11zM583 1492q0 6 6 12l117 118q7 6 13 6t12 -6l119 -117q5 -7 5 -11q0 -8 -9 -17l-108 -111q-8 -8 -14 -8q-8 0 -16 8l-120 115q-5 4 -5 11z" />
<glyph unicode="&#x685;" horiz-adv-x="1244" d="M-70 1v454h213q289 0 508 104q-260 78 -328 78q-63 0 -116 -53t-87 -53q-57 0 -57 82q0 89 77 226q99 175 241 175q76 0 302 -77q228 -77 357 -77h115q36 0 36 -15q0 -7 -8 -34l-97 -306h-186q47 -50 189 -50h155v-454h-166q-269 0 -352 308q-108 -144 -292 -229 q-174 -79 -364 -79h-140zM474 1275q0 6 6 12l118 118q7 5 13 5q5 0 12 -5l115 -115l116 115q5 5 11 5q5 0 13 -5l119 -117q6 -6 6 -13t-8 -15l-110 -112q-8 -8 -14 -10q-7 2 -15 10l-118 112l-109 -112q-7 -7 -14 -7q-8 0 -15 7l-121 116q-5 7 -5 11zM602 1503q0 6 6 12 l117 118q7 6 13 6t12 -6l119 -117q5 -7 5 -11q0 -8 -9 -17l-108 -111q-8 -8 -14 -8q-8 0 -16 8l-120 115q-5 4 -5 11z" />
<glyph unicode="&#x685;" horiz-adv-x="1353" d="M122 31q0 215 200 364q130 96 401 190q-118 11 -188 16.5t-93 5.5q-83 0 -148 -61t-79 -61q-54 0 -54 91q0 88 77 225q101 179 248 179q95 0 295 -42q202 -41 304 -41h188q44 0 44 -22q0 -13 -11 -46l-99 -284h-102q27 -90 186 -90h62v-454h-58q-69 0 -126 29.5t-97.5 81 t-63 122.5t-22.5 155q0 80 19 159q-210 -52 -317 -138q-146 -119 -146 -326q0 -247 228 -329q117 -42 373 -42q133 0 133 -61q0 -33 -37.5 -58.5t-97 -43.5t-133.5 -27t-147 -9q-173 0 -310 34.5t-232 100.5t-146 162.5t-51 219.5zM495 1265q0 6 6 12l118 118q7 5 13 5 q5 0 12 -5l115 -115l116 115q5 5 11 5q5 0 13 -5l119 -117q6 -6 6 -13t-8 -15l-110 -112q-8 -8 -14 -10q-7 2 -15 10l-118 112l-109 -112q-7 -7 -14 -7q-8 0 -15 7l-121 116q-5 7 -5 11zM623 1493q0 6 6 12l117 118q7 6 13 6t12 -6l119 -117q5 -7 5 -11q0 -8 -9 -17 l-108 -111q-8 -8 -14 -8q-8 0 -16 8l-120 115q-5 4 -5 11z" />
<glyph unicode="&#x689;" horiz-adv-x="1182" d="M123 326q0 77 22 164q30 121 83 121q56 0 72 -55q28 -92 36 -102q40 -55 146 -55q39 0 79.5 7t73 18t53.5 26t21 32q0 5 -3 13l-166 397l222 224q16 16 24 16q7 0 16 -24l188 -517q49 -136 146 -136h46v-454h-58q-191 0 -313 248q-43 -76 -82 -129t-76 -82 q-89 -71 -224 -71q-306 0 -306 359zM272 -177q0 62 32 143q40 99 97 99q33 0 65 -14t57.5 -38.5t41 -57.5t15.5 -70q0 -89 -43.5 -142t-119.5 -53q-31 0 -57.5 10t-46 28t-30.5 42t-11 53zM345 -119q0 -59 88 -59q74 0 74 36q0 16 -11.5 33t-28.5 30t-36.5 21.5t-35.5 8.5 q-50 0 -50 -70z" />
<glyph unicode="&#x68a;" horiz-adv-x="1182" d="M123 326q0 77 22 164q30 121 83 121q56 0 72 -55q28 -92 36 -102q40 -55 146 -55q39 0 79.5 7t73 18t53.5 26t21 32q0 5 -3 13l-166 397l222 224q16 16 24 16q7 0 16 -24l188 -517q49 -136 146 -136h46v-454h-58q-191 0 -313 248q-43 -76 -82 -129t-76 -82 q-89 -71 -224 -71q-306 0 -306 359zM287 -314q0 10 10 20l125 126q8 8 17 8q8 0 18 -8l138 -132q7 -9 7 -13q0 -7 -8 -15l-134 -134q-7 -7 -14 -7q-8 0 -15 7l-136 132q-8 8 -8 16z" />
<glyph unicode="&#x68b;" horiz-adv-x="1182" d="M123 326q0 77 22 164q30 121 83 121q56 0 72 -55q28 -92 36 -102q40 -55 146 -55q39 0 79.5 7t73 18t53.5 26t21 32q0 5 -3 13l-166 397l222 224q16 16 24 16q7 0 16 -24l188 -517q49 -136 146 -136h46v-454h-58q-191 0 -313 248q-43 -76 -82 -129t-76 -82 q-89 -71 -224 -71q-306 0 -306 359zM243 -373q0 10 10 20l125 126q8 8 17 8q8 0 18 -8l138 -132q7 -9 7 -13q0 -7 -8 -15l-134 -134q-7 -7 -14 -7q-8 0 -15 7l-136 132q-8 8 -8 16zM412 1420q0 5 1.5 8.5t5.5 5.5t11.5 2.5t19.5 0.5h6t11.5 -0.5t25 -0.5t45.5 -1 q0 86 -19 167q-7 30 -14.5 54.5t-16.5 43.5l82 72q11 9 15 9t10 -14l49 -108q5 -13 5 -16q0 -4 -6 -4q-8 0 -23 5q2 -17 2 -35q0 -70 -28 -138q115 129 197 129q17 0 31 -6t24.5 -17.5t16 -26.5t5.5 -33q0 -39 -26 -86q-36 -65 -99 -100q-61 -34 -138 -34q-47 0 -96 28 q-38 22 -70 57q-27 29 -27 38zM619 1438q7 -1 14 -1h14q26 0 49 2.5t40 7t26.5 10t9.5 10.5q0 17 -12 27t-31 10q-44 0 -110 -66z" />
<glyph unicode="&#x68f;" horiz-adv-x="1182" d="M123 326q0 77 22 164q30 121 83 121q56 0 72 -55q28 -92 36 -102q40 -55 146 -55q39 0 79.5 7t73 18t53.5 26t21 32q0 5 -3 13l-166 397l222 224q16 16 24 16q7 0 16 -24l188 -517q49 -136 146 -136h46v-454h-58q-191 0 -313 248q-43 -76 -82 -129t-76 -82 q-89 -71 -224 -71q-306 0 -306 359zM367 1637q0 8 8 16l111 113q7 7 14 7q5 0 14 -7l118 -113l109 113q7 7 14 7q6 0 15 -7l121 -117q5 -7 5 -11q0 -6 -6 -12l-118 -117q-6 -6 -12 -6t-12 6l-116 114l-116 -114q-6 -6 -12 -6t-12 6l-119 116q-6 6 -6 12zM496 1409q0 8 9 17 l108 111q7 7 14 7q6 0 15 -7l121 -116q6 -6 6 -11q0 -6 -6 -12l-118 -117q-6 -6 -12 -6t-12 6l-120 117q-5 4 -5 11z" />
<glyph unicode="&#x690;" horiz-adv-x="1182" d="M123 326q0 77 22 164q30 121 83 121q56 0 72 -55q28 -92 36 -102q40 -55 146 -55q39 0 79.5 7t73 18t53.5 26t21 32q0 5 -3 13l-166 397l222 224q16 16 24 16q7 0 16 -24l188 -517q49 -136 146 -136h46v-454h-58q-191 0 -313 248q-43 -76 -82 -129t-76 -82 q-89 -71 -224 -71q-306 0 -306 359zM404 1559q0 6 5 11l108 108q7 5 12 5t11 -5l106 -105l106 105q4 5 10 5q4 0 12 -5l109 -107q5 -5 5 -12q0 -6 -7 -14l-101 -102q-7 -7 -13 -9q-6 2 -13 9l-108 102l-100 -102q-7 -6 -13 -6q-7 0 -14 6l-110 106q-5 6 -5 10zM516 1350 q0 5 5 11l107 108q7 5 12 5q6 0 11 -5l109 -108q4 -6 4 -10q0 -7 -8 -15l-99 -102q-7 -7 -12 -7q-8 0 -15 7l-110 106q-4 3 -4 10zM521 1768q0 5 6 11l107 108q6 5 12 5q5 0 11 -5l108 -107q5 -7 5 -10q0 -8 -8 -16l-99 -102q-7 -7 -13 -7q-7 0 -15 7l-109 106q-5 3 -5 10z " />
<glyph unicode="&#x692;" horiz-adv-x="974" d="M85 -453q0 37 35 54q64 31 145 79.5t181 116.5q252 172 252 245q0 60 -225 270l160 330q8 17 19 17q6 0 18 -10q48 -51 81 -82.5t51 -45.5q84 -66 166 -66h6v-455h-25q-41 0 -74 24v-88q0 -111 -61 -246q-53 -119 -116 -187q-23 -24 -61 -24h-469q-83 0 -83 68zM324 1087 l132 -8q10 -12 20.5 -27t21.5 -39t22 -58.5t23 -85.5q3 19 9 46.5t15 57t21 59t28 53.5l132 10q-13 -13 -30.5 -32t-38.5 -54t-44.5 -91.5t-47.5 -143.5l-87 -3q-10 47 -28 93.5t-41 88.5t-50.5 76.5t-56.5 57.5z" />
<glyph unicode="&#x693;" horiz-adv-x="974" d="M85 -453q0 37 35 54q64 31 145 79.5t181 116.5q252 172 252 245q0 60 -225 270l160 330q8 17 19 17q6 0 18 -10q48 -51 81 -82.5t51 -45.5q84 -66 166 -66h6v-455h-25q-41 0 -74 24v-88q0 -111 -61 -246q-53 -119 -116 -187q-23 -24 -61 -24h-469q-83 0 -83 68zM242 -657 q0 62 32 143q40 99 97 99q33 0 65 -14t57.5 -38.5t41 -57.5t15.5 -70q0 -89 -43.5 -142t-119.5 -53q-31 0 -57.5 10t-46 28t-30.5 42t-11 53zM315 -599q0 -59 88 -59q74 0 74 36q0 16 -11.5 33t-28.5 30t-36.5 21.5t-35.5 8.5q-50 0 -50 -70z" />
<glyph unicode="&#x694;" horiz-adv-x="974" d="M85 -453q0 37 35 54q64 31 145 79.5t181 116.5q252 172 252 245q0 60 -225 270l160 330q8 17 19 17q6 0 18 -10q48 -51 81 -82.5t51 -45.5q84 -66 166 -66h6v-455h-25q-41 0 -74 24v-88q0 -111 -61 -246q-53 -119 -116 -187q-23 -24 -61 -24h-469q-83 0 -83 68zM298 -779 q0 10 10 20l125 126q8 8 17 8q8 0 18 -8l138 -132q7 -9 7 -13q0 -7 -8 -15l-134 -134q-7 -7 -14 -7q-8 0 -15 7l-136 132q-8 8 -8 16z" />
<glyph unicode="&#x695;" horiz-adv-x="974" d="M85 -453q0 37 35 54q64 31 145 79.5t181 116.5q252 172 252 245q0 60 -225 270l160 330q8 17 19 17q6 0 18 -10q48 -51 81 -82.5t51 -45.5q84 -66 166 -66h6v-455h-25q-41 0 -74 24v-88q0 -111 -61 -246q-53 -119 -116 -187q-23 -24 -61 -24h-469q-83 0 -83 68zM252 -653 l132 -8q10 -12 20.5 -27t21.5 -39t22 -58.5t23 -85.5q3 19 9 46.5t15 57t21 59t28 53.5l132 10q-13 -13 -30.5 -32t-38.5 -54t-44.5 -91.5t-47.5 -143.5l-87 -3q-10 47 -28 93.5t-41 88.5t-50.5 76.5t-56.5 57.5z" />
<glyph unicode="&#x696;" horiz-adv-x="974" d="M85 -453q0 37 35 54q64 31 145 79.5t181 116.5q252 172 252 245q0 60 -225 270l160 330q8 17 19 17q6 0 18 -10q48 -51 81 -82.5t51 -45.5q84 -66 166 -66h6v-455h-25q-41 0 -74 24v-88q0 -111 -61 -246q-53 -119 -116 -187q-23 -24 -61 -24h-469q-83 0 -83 68zM112 -23 q0 10 10 20l125 126q8 8 17 8q8 0 18 -8l138 -132q7 -9 7 -13q0 -7 -8 -15l-134 -134q-7 -7 -14 -7q-8 0 -15 7l-136 132q-8 8 -8 16zM223 -748q0 10 10 20l125 126q8 8 17 8q8 0 18 -8l138 -132q7 -9 7 -13q0 -7 -8 -15l-134 -134q-7 -7 -14 -7q-8 0 -15 7l-136 132 q-8 8 -8 16z" />
<glyph unicode="&#x697;" horiz-adv-x="974" d="M85 -453q0 37 35 54q64 31 145 79.5t181 116.5q252 172 252 245q0 60 -225 270l160 330q8 17 19 17q6 0 18 -10q48 -51 81 -82.5t51 -45.5q84 -66 166 -66h6v-455h-25q-41 0 -74 24v-88q0 -111 -61 -246q-53 -119 -116 -187q-23 -24 -61 -24h-469q-83 0 -83 68zM372 899 q0 9 10 19l109 111q8 8 16 8q6 0 16 -8l111 -107l106 107q7 7 15 7t16 -7l121 -117q7 -7 7 -12q0 -7 -8 -13l-119 -117q-7 -7 -13 -7q-7 0 -13 7l-112 110l-110 -110q-7 -7 -13 -7q-7 0 -13 7l-119 116q-7 6 -7 13z" />
<glyph unicode="&#x699;" horiz-adv-x="974" d="M85 -453q0 37 35 54q64 31 145 79.5t181 116.5q252 172 252 245q0 60 -225 270l160 330q8 17 19 17q6 0 18 -10q48 -51 81 -82.5t51 -45.5q84 -66 166 -66h6v-455h-25q-41 0 -74 24v-88q0 -111 -61 -246q-53 -119 -116 -187q-23 -24 -61 -24h-469q-83 0 -83 68zM341 1047 q0 6 5 11l108 108q7 5 12 5t11 -5l106 -105l106 105q4 5 10 5q4 0 12 -5l109 -107q5 -5 5 -12q0 -6 -7 -14l-101 -102q-7 -7 -13 -9q-6 2 -13 9l-108 102l-100 -102q-7 -6 -13 -6q-7 0 -14 6l-110 106q-5 6 -5 10zM453 838q0 5 5 11l107 108q7 5 12 5q6 0 11 -5l109 -108 q4 -6 4 -10q0 -7 -8 -15l-99 -102q-7 -7 -12 -7q-8 0 -15 7l-110 106q-4 3 -4 10zM458 1256q0 5 6 11l107 108q6 5 12 5q5 0 11 -5l108 -107q5 -7 5 -10q0 -8 -8 -16l-99 -102q-7 -7 -13 -7q-7 0 -15 7l-109 106q-5 3 -5 10z" />
<glyph unicode="&#x69a;" horiz-adv-x="1071" d="M-70 -1v451h116q69 0 98 56q8 25 15 49t14 49q25 63 65 63q47 0 62 -56l29 -105q29 -56 106 -56q58 0 78 57q4 17 9 43.5t14 61.5q13 57 66 57q46 0 60 -60l26 -111q28 -60 105 -60q93 0 93 67q0 19 -2.5 33.5t-8 31t-15 37.5t-22.5 52l129 142q9 10 17 10t14 -13 q53 -133 53 -269q0 -174 -53 -324q-73 -205 -216 -205q-120 0 -199 132q-58 -130 -162 -130q-146 0 -195 133q-61 -136 -178 -136h-118zM417 -325q0 10 10 20l125 126q8 8 17 8q8 0 18 -8l138 -132q7 -9 7 -13q0 -7 -8 -15l-134 -134q-7 -7 -14 -7q-8 0 -15 7l-136 132 q-8 8 -8 16zM434 1013q0 10 10 20l125 126q8 8 17 8q8 0 18 -8l138 -132q7 -9 7 -13q0 -7 -8 -15l-134 -134q-7 -7 -14 -7q-8 0 -15 7l-136 132q-8 8 -8 16z" />
<glyph unicode="&#x69a;" horiz-adv-x="1168" d="M-70 -1v451h116q75 0 105 61q9 33 17.5 64t19 55.5t25 39.5t36.5 15q50 0 66 -61q2 -7 8.5 -34.5t19.5 -78.5q24 -61 92 -61q27 0 42.5 9t26 29t18.5 53t21 80q16 60 66 60q23 0 35.5 -9.5t20.5 -29.5t14.5 -52.5t16.5 -77.5q21 -59 79 -59q59 0 80 58q4 18 9.5 45 t14.5 64q13 58 68 58q46 0 62 -58q1 -4 8 -31t20 -78q25 -58 89 -58h42v-451h-43q-99 0 -189 130q-96 -130 -175 -130q-24 0 -49.5 10.5t-49 29t-43 43t-31.5 51.5q-92 -134 -167 -134q-113 0 -178 134q-90 -137 -195 -137h-118zM410 -322q0 10 10 20l125 126q8 8 17 8 q8 0 18 -8l138 -132q7 -9 7 -13q0 -7 -8 -15l-134 -134q-7 -7 -14 -7q-8 0 -15 7l-136 132q-8 8 -8 16zM443 1008q0 10 10 20l125 126q8 8 17 8q8 0 18 -8l138 -132q7 -9 7 -13q0 -7 -8 -15l-134 -134q-7 -7 -14 -7q-8 0 -15 7l-136 132q-8 8 -8 16z" />
<glyph unicode="&#x69a;" horiz-adv-x="2097" d="M123 -60q0 112 49 271q55 184 123 184q17 0 28.5 -4.5t18.5 -16.5t10 -33t3 -55q0 -9 -4 -31t-8.5 -47t-8 -48t-3.5 -35q0 -197 397 -197q119 0 223 27q157 40 157 126q0 72 -201 234l156 304q9 17 16 17q6 0 23 -17q98 -98 143 -129q66 -45 135 -45q65 0 89 55l10 42.5 t16 60.5q15 55 67 55q45 0 56 -56q1 -12 18 -103q20 -56 83 -56q59 0 82 56q6 30 12.5 58.5t15.5 51t22.5 36.5t33.5 14t32 -13.5t20.5 -35t14 -49t11.5 -55.5q23 -53 87 -53h47v-451h-48q-102 0 -188 110q-24 -29 -38 -46t-19 -21q-41 -35 -92 -35q-115 0 -170 96 q-52 -94 -122 -94q-79 0 -128 33q0 -550 -606 -550q-275 0 -419 113t-144 332zM1389 988q0 10 10 20l125 126q8 8 17 8q8 0 18 -8l138 -132q7 -9 7 -13q0 -7 -8 -15l-134 -134q-7 -7 -14 -7q-8 0 -15 7l-136 132q-8 8 -8 16zM1399 -365q0 10 10 20l125 126q8 8 17 8 q8 0 18 -8l138 -132q7 -9 7 -13q0 -7 -8 -15l-134 -134q-7 -7 -14 -7q-8 0 -15 7l-136 132q-8 8 -8 16z" />
<glyph unicode="&#x69b;" horiz-adv-x="1071" d="M-70 -1v451h116q69 0 98 56q8 25 15 49t14 49q25 63 65 63q47 0 62 -56l29 -105q29 -56 106 -56q58 0 78 57q4 17 9 43.5t14 61.5q13 57 66 57q46 0 60 -60l26 -111q28 -60 105 -60q93 0 93 67q0 19 -2.5 33.5t-8 31t-15 37.5t-22.5 52l129 142q9 10 17 10t14 -13 q53 -133 53 -269q0 -174 -53 -324q-73 -205 -216 -205q-120 0 -199 132q-58 -130 -162 -130q-146 0 -195 133q-61 -136 -178 -136h-118zM226 -298q0 8 8 16l111 113q7 7 14 7q5 0 14 -7l118 -113l109 113q7 7 14 7q6 0 15 -7l121 -117q5 -7 5 -11q0 -6 -6 -12l-118 -117 q-6 -6 -12 -6t-12 6l-116 114l-116 -114q-6 -6 -12 -6t-12 6l-119 116q-6 6 -6 12zM355 -526q0 8 9 17l108 111q7 7 14 7q6 0 15 -7l121 -116q6 -6 6 -11q0 -6 -6 -12l-118 -117q-6 -6 -12 -6t-12 6l-120 117q-5 4 -5 11z" />
<glyph unicode="&#x69b;" horiz-adv-x="1168" d="M-70 -1v451h116q75 0 105 61q9 33 17.5 64t19 55.5t25 39.5t36.5 15q50 0 66 -61q2 -7 8.5 -34.5t19.5 -78.5q24 -61 92 -61q27 0 42.5 9t26 29t18.5 53t21 80q16 60 66 60q23 0 35.5 -9.5t20.5 -29.5t14.5 -52.5t16.5 -77.5q21 -59 79 -59q59 0 80 58q4 18 9.5 45 t14.5 64q13 58 68 58q46 0 62 -58q1 -4 8 -31t20 -78q25 -58 89 -58h42v-451h-43q-99 0 -189 130q-96 -130 -175 -130q-24 0 -49.5 10.5t-49 29t-43 43t-31.5 51.5q-92 -134 -167 -134q-113 0 -178 134q-90 -137 -195 -137h-118zM281 -269q0 8 8 16l111 113q7 7 14 7 q5 0 14 -7l118 -113l109 113q7 7 14 7q6 0 15 -7l121 -117q5 -7 5 -11q0 -6 -6 -12l-118 -117q-6 -6 -12 -6t-12 6l-116 114l-116 -114q-6 -6 -12 -6t-12 6l-119 116q-6 6 -6 12zM410 -497q0 8 9 17l108 111q7 7 14 7q6 0 15 -7l121 -116q6 -6 6 -11q0 -6 -6 -12l-118 -117 q-6 -6 -12 -6t-12 6l-120 117q-5 4 -5 11z" />
<glyph unicode="&#x69b;" horiz-adv-x="2097" d="M123 -60q0 112 49 271q55 184 123 184q17 0 28.5 -4.5t18.5 -16.5t10 -33t3 -55q0 -9 -4 -31t-8.5 -47t-8 -48t-3.5 -35q0 -197 397 -197q119 0 223 27q157 40 157 126q0 72 -201 234l156 304q9 17 16 17q6 0 23 -17q98 -98 143 -129q66 -45 135 -45q65 0 89 55l10 42.5 t16 60.5q15 55 67 55q45 0 56 -56q1 -12 18 -103q20 -56 83 -56q59 0 82 56q6 30 12.5 58.5t15.5 51t22.5 36.5t33.5 14t32 -13.5t20.5 -35t14 -49t11.5 -55.5q23 -53 87 -53h47v-451h-48q-102 0 -188 110q-24 -29 -38 -46t-19 -21q-41 -35 -92 -35q-115 0 -170 96 q-52 -94 -122 -94q-79 0 -128 33q0 -550 -606 -550q-275 0 -419 113t-144 332zM1416 -327q0 8 8 16l111 113q7 7 14 7q5 0 14 -7l118 -113l109 113q7 7 14 7q6 0 15 -7l121 -117q5 -7 5 -11q0 -6 -6 -12l-118 -117q-6 -6 -12 -6t-12 6l-116 114l-116 -114q-6 -6 -12 -6 t-12 6l-119 116q-6 6 -6 12zM1545 -555q0 8 9 17l108 111q7 7 14 7q6 0 15 -7l121 -116q6 -6 6 -11q0 -6 -6 -12l-118 -117q-6 -6 -12 -6t-12 6l-120 117q-5 4 -5 11z" />
<glyph unicode="&#x69c;" horiz-adv-x="1071" d="M-70 -1v451h116q69 0 98 56q8 25 15 49t14 49q25 63 65 63q47 0 62 -56l29 -105q29 -56 106 -56q58 0 78 57q4 17 9 43.5t14 61.5q13 57 66 57q46 0 60 -60l26 -111q28 -60 105 -60q93 0 93 67q0 19 -2.5 33.5t-8 31t-15 37.5t-22.5 52l129 142q9 10 17 10t14 -13 q53 -133 53 -269q0 -174 -53 -324q-73 -205 -216 -205q-120 0 -199 132q-58 -130 -162 -130q-146 0 -195 133q-61 -136 -178 -136h-118zM225 -296q0 8 8 16l111 113q7 7 14 7q5 0 14 -7l118 -113l109 113q7 7 14 7q6 0 15 -7l121 -117q5 -7 5 -11q0 -6 -6 -12l-118 -117 q-6 -6 -12 -6t-12 6l-116 114l-116 -114q-6 -6 -12 -6t-12 6l-119 116q-6 6 -6 12zM290 936q0 6 6 12l118 118q7 5 13 5q5 0 12 -5l115 -115l116 115q5 5 11 5q5 0 13 -5l119 -117q6 -6 6 -13t-8 -15l-110 -112q-8 -8 -14 -10q-7 2 -15 10l-118 112l-109 -112q-7 -7 -14 -7 q-8 0 -15 7l-121 116q-5 7 -5 11zM354 -524q0 8 9 17l108 111q7 7 14 7q6 0 15 -7l121 -116q6 -6 6 -11q0 -6 -6 -12l-118 -117q-6 -6 -12 -6t-12 6l-120 117q-5 4 -5 11zM418 1164q0 6 6 12l117 118q7 6 13 6t12 -6l119 -117q5 -7 5 -11q0 -8 -9 -17l-108 -111 q-8 -8 -14 -8q-8 0 -16 8l-120 115q-5 4 -5 11z" />
<glyph unicode="&#x69c;" horiz-adv-x="1168" d="M-70 -1v451h116q75 0 105 61q9 33 17.5 64t19 55.5t25 39.5t36.5 15q50 0 66 -61q2 -7 8.5 -34.5t19.5 -78.5q24 -61 92 -61q27 0 42.5 9t26 29t18.5 53t21 80q16 60 66 60q23 0 35.5 -9.5t20.5 -29.5t14.5 -52.5t16.5 -77.5q21 -59 79 -59q59 0 80 58q4 18 9.5 45 t14.5 64q13 58 68 58q46 0 62 -58q1 -4 8 -31t20 -78q25 -58 89 -58h42v-451h-43q-99 0 -189 130q-96 -130 -175 -130q-24 0 -49.5 10.5t-49 29t-43 43t-31.5 51.5q-92 -134 -167 -134q-113 0 -178 134q-90 -137 -195 -137h-118zM268 -299q0 8 8 16l111 113q7 7 14 7 q5 0 14 -7l118 -113l109 113q7 7 14 7q6 0 15 -7l121 -117q5 -7 5 -11q0 -6 -6 -12l-118 -117q-6 -6 -12 -6t-12 6l-116 114l-116 -114q-6 -6 -12 -6t-12 6l-119 116q-6 6 -6 12zM334 970q0 6 6 12l118 118q7 5 13 5q5 0 12 -5l115 -115l116 115q5 5 11 5q5 0 13 -5 l119 -117q6 -6 6 -13t-8 -15l-110 -112q-8 -8 -14 -10q-7 2 -15 10l-118 112l-109 -112q-7 -7 -14 -7q-8 0 -15 7l-121 116q-5 7 -5 11zM397 -527q0 8 9 17l108 111q7 7 14 7q6 0 15 -7l121 -116q6 -6 6 -11q0 -6 -6 -12l-118 -117q-6 -6 -12 -6t-12 6l-120 117q-5 4 -5 11z M462 1198q0 6 6 12l117 118q7 6 13 6t12 -6l119 -117q5 -7 5 -11q0 -8 -9 -17l-108 -111q-8 -8 -14 -8q-8 0 -16 8l-120 115q-5 4 -5 11z" />
<glyph unicode="&#x69c;" horiz-adv-x="2097" d="M123 -60q0 112 49 271q55 184 123 184q17 0 28.5 -4.5t18.5 -16.5t10 -33t3 -55q0 -9 -4 -31t-8.5 -47t-8 -48t-3.5 -35q0 -197 397 -197q119 0 223 27q157 40 157 126q0 72 -201 234l156 304q9 17 16 17q6 0 23 -17q98 -98 143 -129q66 -45 135 -45q65 0 89 55l10 42.5 t16 60.5q15 55 67 55q45 0 56 -56q1 -12 18 -103q20 -56 83 -56q59 0 82 56q6 30 12.5 58.5t15.5 51t22.5 36.5t33.5 14t32 -13.5t20.5 -35t14 -49t11.5 -55.5q23 -53 87 -53h47v-451h-48q-102 0 -188 110q-24 -29 -38 -46t-19 -21q-41 -35 -92 -35q-115 0 -170 96 q-52 -94 -122 -94q-79 0 -128 33q0 -550 -606 -550q-275 0 -419 113t-144 332zM1317 923q0 6 6 12l118 118q7 5 13 5q5 0 12 -5l115 -115l116 115q5 5 11 5q5 0 13 -5l119 -117q6 -6 6 -13t-8 -15l-110 -112q-8 -8 -14 -10q-7 2 -15 10l-118 112l-109 -112q-7 -7 -14 -7 q-8 0 -15 7l-121 116q-5 7 -5 11zM1350 -308q0 8 8 16l111 113q7 7 14 7q5 0 14 -7l118 -113l109 113q7 7 14 7q6 0 15 -7l121 -117q5 -7 5 -11q0 -6 -6 -12l-118 -117q-6 -6 -12 -6t-12 6l-116 114l-116 -114q-6 -6 -12 -6t-12 6l-119 116q-6 6 -6 12zM1445 1151q0 6 6 12 l117 118q7 6 13 6t12 -6l119 -117q5 -7 5 -11q0 -8 -9 -17l-108 -111q-8 -8 -14 -8q-8 0 -16 8l-120 115q-5 4 -5 11zM1479 -536q0 8 9 17l108 111q7 7 14 7q6 0 15 -7l121 -116q6 -6 6 -11q0 -6 -6 -12l-118 -117q-6 -6 -12 -6t-12 6l-120 117q-5 4 -5 11z" />
<glyph unicode="&#x69d;" horiz-adv-x="1279" d="M-70 1v454h114q64 0 96 60q6 10 39 113q19 60 52 60q44 0 71 -112q25 -112 80 -112q8 0 107 120q60 72 113.5 127t104.5 95q151 120 284 120q58 0 107 -22t83.5 -59t54 -86t19.5 -103q0 -217 -151 -410q-188 -240 -500 -240q-50 0 -104 9.5t-103.5 26t-90 39t-62.5 48.5 q-81 -128 -188 -128h-126zM233 -324q0 9 10 19l109 111q8 8 16 8q6 0 16 -8l111 -107l106 107q7 7 15 7t16 -7l121 -117q7 -7 7 -12q0 -7 -8 -13l-119 -117q-7 -7 -13 -7q-7 0 -13 7l-112 110l-110 -110q-7 -7 -13 -7q-7 0 -13 7l-119 116q-7 6 -7 13zM514 415 q23 -1 45.5 -1.5t44.5 -0.5q81 0 152.5 8t124.5 21.5t84 30.5t31 35q0 115 -137 115q-134 0 -345 -208z" />
<glyph unicode="&#x69d;" horiz-adv-x="1323" d="M-70 1v454h114q64 0 96 60q6 10 39 113q19 60 52 60q44 0 71 -111q26 -110 80 -110q8 0 107 119q120 144 218 221q152 119 287 119q56 0 103.5 -21t82.5 -58t55 -87.5t20 -108.5q0 -97 -39 -173q12 -23 53 -23h54v-454h-60q-147 0 -229 175q-128 -170 -430 -170 q-50 0 -104 9.5t-103.5 26t-90 39t-62.5 48.5q-81 -128 -188 -128h-126zM295 -297q0 9 10 19l109 111q8 8 16 8q6 0 16 -8l111 -107l106 107q7 7 15 7t16 -7l121 -117q7 -7 7 -12q0 -7 -8 -13l-119 -117q-7 -7 -13 -7q-7 0 -13 7l-112 110l-110 -110q-7 -7 -13 -7 q-7 0 -13 7l-119 116q-7 6 -7 13zM514 415q23 -1 45.5 -1.5t44.5 -0.5q81 0 152.5 8t124.5 21.5t84 30.5t31 35q0 115 -137 115q-134 0 -345 -208z" />
<glyph unicode="&#x69d;" horiz-adv-x="2219" d="M123 -60q0 115 47 271q55 184 125 184q17 0 28.5 -4.5t18.5 -17t10 -33.5t3 -54q0 -9 -4 -31t-8.5 -46.5t-8 -47.5t-3.5 -35q0 -198 397 -198q119 0 223 27q157 40 157 126q0 72 -201 234l156 304q9 17 17 17t22 -17q138 -162 166 -162q7 0 107 121q116 140 222 223 q154 121 290 121q55 0 101.5 -21t80.5 -57t53.5 -84.5t19.5 -102.5q0 -117 -28 -179q8 -23 52 -23h53v-454h-49q-151 0 -238 173q-143 -173 -426 -173q-112 0 -214 44q0 -550 -606 -550q-275 0 -419 113t-144 332zM1404 409q22 -1 43 -1.5t42 -0.5q82 0 154.5 8t126.5 21.5 t85 30.5t31 36q0 115 -137 115q-133 0 -345 -209zM1407 -332q0 9 10 19l109 111q8 8 16 8q6 0 16 -8l111 -107l106 107q7 7 15 7t16 -7l121 -117q7 -7 7 -12q0 -7 -8 -13l-119 -117q-7 -7 -13 -7q-7 0 -13 7l-112 110l-110 -110q-7 -7 -13 -7q-7 0 -13 7l-119 116 q-7 6 -7 13z" />
<glyph unicode="&#x69e;" horiz-adv-x="1279" d="M-70 1v454h114q64 0 96 60q6 10 39 113q19 60 52 60q44 0 71 -112q25 -112 80 -112q8 0 107 120q60 72 113.5 127t104.5 95q151 120 284 120q58 0 107 -22t83.5 -59t54 -86t19.5 -103q0 -217 -151 -410q-188 -240 -500 -240q-50 0 -104 9.5t-103.5 26t-90 39t-62.5 48.5 q-81 -128 -188 -128h-126zM88 1073q0 6 6 12l118 118q7 5 13 5q5 0 12 -5l115 -115l116 115q5 5 11 5q5 0 13 -5l119 -117q6 -6 6 -13t-8 -15l-110 -112q-8 -8 -14 -10q-7 2 -15 10l-118 112l-109 -112q-7 -7 -14 -7q-8 0 -15 7l-121 116q-5 7 -5 11zM216 1301q0 6 6 12 l117 118q7 6 13 6t12 -6l119 -117q5 -7 5 -11q0 -8 -9 -17l-108 -111q-8 -8 -14 -8q-8 0 -16 8l-120 115q-5 4 -5 11zM514 415q23 -1 45.5 -1.5t44.5 -0.5q81 0 152.5 8t124.5 21.5t84 30.5t31 35q0 115 -137 115q-134 0 -345 -208z" />
<glyph unicode="&#x69e;" horiz-adv-x="1323" d="M-70 1v454h114q64 0 96 60q6 10 39 113q19 60 52 60q44 0 71 -111q26 -110 80 -110q8 0 107 119q120 144 218 221q152 119 287 119q56 0 103.5 -21t82.5 -58t55 -87.5t20 -108.5q0 -97 -39 -173q12 -23 53 -23h54v-454h-60q-147 0 -229 175q-128 -170 -430 -170 q-50 0 -104 9.5t-103.5 26t-90 39t-62.5 48.5q-81 -128 -188 -128h-126zM223 1122q0 6 6 12l118 118q7 5 13 5q5 0 12 -5l115 -115l116 115q5 5 11 5q5 0 13 -5l119 -117q6 -6 6 -13t-8 -15l-110 -112q-8 -8 -14 -10q-7 2 -15 10l-118 112l-109 -112q-7 -7 -14 -7 q-8 0 -15 7l-121 116q-5 7 -5 11zM351 1350q0 6 6 12l117 118q7 6 13 6t12 -6l119 -117q5 -7 5 -11q0 -8 -9 -17l-108 -111q-8 -8 -14 -8q-8 0 -16 8l-120 115q-5 4 -5 11zM514 415q23 -1 45.5 -1.5t44.5 -0.5q81 0 152.5 8t124.5 21.5t84 30.5t31 35q0 115 -137 115 q-134 0 -345 -208z" />
<glyph unicode="&#x69e;" horiz-adv-x="2219" d="M123 -60q0 115 47 271q55 184 125 184q17 0 28.5 -4.5t18.5 -17t10 -33.5t3 -54q0 -9 -4 -31t-8.5 -46.5t-8 -47.5t-3.5 -35q0 -198 397 -198q119 0 223 27q157 40 157 126q0 72 -201 234l156 304q9 17 17 17t22 -17q138 -162 166 -162q7 0 107 121q116 140 222 223 q154 121 290 121q55 0 101.5 -21t80.5 -57t53.5 -84.5t19.5 -102.5q0 -117 -28 -179q8 -23 52 -23h53v-454h-49q-151 0 -238 173q-143 -173 -426 -173q-112 0 -214 44q0 -550 -606 -550q-275 0 -419 113t-144 332zM1102 1120q0 6 6 12l118 118q7 5 13 5q5 0 12 -5l115 -115 l116 115q5 5 11 5q5 0 13 -5l119 -117q6 -6 6 -13t-8 -15l-110 -112q-8 -8 -14 -10q-7 2 -15 10l-118 112l-109 -112q-7 -7 -14 -7q-8 0 -15 7l-121 116q-5 7 -5 11zM1230 1348q0 6 6 12l117 118q7 6 13 6t12 -6l119 -117q5 -7 5 -11q0 -8 -9 -17l-108 -111q-8 -8 -14 -8 q-8 0 -16 8l-120 115q-5 4 -5 11zM1404 409q22 -1 43 -1.5t42 -0.5q82 0 154.5 8t126.5 21.5t85 30.5t31 36q0 115 -137 115q-133 0 -345 -209z" />
<glyph unicode="&#x69f;" horiz-adv-x="1632" d="M122 390q0 16 4.5 26.5t17.5 16.5t36.5 8.5t60.5 2.5q9 0 19 -0.5t36.5 -1.5t77.5 -2t142 -2q0 270 -58 524q-22 94 -46 170t-52 136l258 225q34 30 46 30t33 -46l152 -338q17 -39 17 -51t-21 -12q-23 0 -72 15q6 -53 6 -108q0 -219 -86 -432q361 403 616 403 q54 0 98.5 -19.5t76.5 -54t49.5 -82.5t17.5 -105q0 -135 -47 -212q15 -26 85 -26h43v-454h-30q-200 0 -296 214q-232 -211 -578 -211q-147 0 -302 89q-118 67 -219 176q-85 91 -85 121zM770 445q23 -1 45.5 -1.5t44.5 -0.5q81 0 152.5 8t124.5 21.5t84 30.5t31 35 q0 53 -38.5 84t-98.5 31q-137 0 -345 -208zM973 1260q0 6 6 12l118 118q7 5 13 5q5 0 12 -5l115 -115l116 115q5 5 11 5q5 0 13 -5l119 -117q6 -6 6 -13t-8 -15l-110 -112q-8 -8 -14 -10q-7 2 -15 10l-118 112l-109 -112q-7 -7 -14 -7q-8 0 -15 7l-121 116q-5 7 -5 11z M1101 1488q0 6 6 12l117 118q7 6 13 6t12 -6l119 -117q5 -7 5 -11q0 -8 -9 -17l-108 -111q-8 -8 -14 -8q-8 0 -16 8l-120 115q-5 4 -5 11z" />
<glyph unicode="&#x6a0;" horiz-adv-x="901" d="M-70 1v454h112q56 0 78 22q-70 67 -70 116q0 175 132 321q135 150 309 150q56 0 109.5 -21t98.5 -58.5t79.5 -88t53.5 -108.5q7 -21 7 -44q0 -60 -34 -60q-12 0 -45.5 6.5t-73.5 14.5t-79.5 14.5t-63.5 6.5q-48 0 -99 -8.5t-92 -23.5t-67.5 -35.5t-26.5 -45.5 q0 -22 19.5 -39.5t55 -30t85 -19.5t109.5 -7q66 0 143.5 7.5t168.5 23.5q5 1 10 1.5t10 0.5q21 0 21 -13q0 -6 -8 -40l-48 -189q-24 -96 -41 -143.5t-23 -48.5q-28 -5 -76 -6.5t-115 -1.5q-48 0 -81.5 2t-55.5 6q-55 -47 -190 -83q-123 -32 -200 -32h-112zM208 1296 q0 6 6 12l118 118q7 5 13 5q5 0 12 -5l115 -115l116 115q5 5 11 5q5 0 13 -5l119 -117q6 -6 6 -13t-8 -15l-110 -112q-8 -8 -14 -10q-7 2 -15 10l-118 112l-109 -112q-7 -7 -14 -7q-8 0 -15 7l-121 116q-5 7 -5 11zM336 1524q0 6 6 12l117 118q7 6 13 6t12 -6l119 -117 q5 -7 5 -11q0 -8 -9 -17l-108 -111q-8 -8 -14 -8q-8 0 -16 8l-120 115q-5 4 -5 11z" />
<glyph unicode="&#x6a0;" horiz-adv-x="821" d="M-70 1v454h173q144 0 169 23q-27 35 -48 59t-42 42t-44.5 32.5t-54.5 31.5q-16 9 -16 48q0 92 95 175q108 93 269 93q62 0 118.5 -17t99 -48t68 -73.5t25.5 -94.5q0 -66 -64 -145q-17 -20 -102 -108q33 -18 153 -18h92v-454h-64q-275 0 -339 159q-25 -43 -53.5 -73.5 t-64 -49.5t-80.5 -27.5t-103 -8.5h-187zM145 1193q0 6 6 12l118 118q7 5 13 5q5 0 12 -5l115 -115l116 115q5 5 11 5q5 0 13 -5l119 -117q6 -6 6 -13t-8 -15l-110 -112q-8 -8 -14 -10q-7 2 -15 10l-118 112l-109 -112q-7 -7 -14 -7q-8 0 -15 7l-121 116q-5 7 -5 11z M273 1421q0 6 6 12l117 118q7 6 13 6t12 -6l119 -117q5 -7 5 -11q0 -8 -9 -17l-108 -111q-8 -8 -14 -8q-8 0 -16 8l-120 115q-5 4 -5 11z" />
<glyph unicode="&#x6a0;" horiz-adv-x="1261" d="M122 -51q0 187 114 313q92 103 243 160q37 14 93.5 32t132.5 45q-73 96 -132 127q-7 4 -70 22q-20 6 -20 43q0 94 94 175q108 93 270 93q62 0 118.5 -17t99 -48t68 -73.5t25.5 -94.5q0 -69 -67 -140q-5 -5 -31.5 -31t-74.5 -74q50 -26 140 -26h136v-454h-88 q-71 0 -132.5 27t-109.5 75.5t-80.5 116t-44.5 147.5q-54 -25 -99.5 -65t-78.5 -89t-51.5 -104.5t-18.5 -111.5q0 -78 31.5 -139.5t90 -104t142.5 -65t189 -22.5q7 0 20.5 0.5t29 1t29.5 1t21 0.5q139 0 139 -65q0 -128 -468 -128q-660 0 -660 473zM568 1213q0 6 6 12 l118 118q7 5 13 5q5 0 12 -5l115 -115l116 115q5 5 11 5q5 0 13 -5l119 -117q6 -6 6 -13t-8 -15l-110 -112q-8 -8 -14 -10q-7 2 -15 10l-118 112l-109 -112q-7 -7 -14 -7q-8 0 -15 7l-121 116q-5 7 -5 11zM696 1441q0 6 6 12l117 118q7 6 13 6t12 -6l119 -117q5 -7 5 -11 q0 -8 -9 -17l-108 -111q-8 -8 -14 -8q-8 0 -16 8l-120 115q-5 4 -5 11z" />
<glyph unicode="&#x6a1;" horiz-adv-x="734" d="M-70 1v454h165q118 0 195.5 4t123.5 13t64 22.5t18 33.5q0 27 -28 27q-10 0 -18 -4q-35 -15 -157 -15q-257 0 -257 207q0 138 69 275q82 162 207 162q184 0 283 -224q75 -170 75 -368q0 -587 -573 -587h-167zM221 828q0 -37 111 -37q103 0 105 20q0 15 -13 30.5t-32 27.5 t-40.5 20t-38.5 8q-19 0 -35.5 -5.5t-29 -14.5t-20 -21.5t-7.5 -27.5z" />
<glyph unicode="&#x6a1;" horiz-adv-x="686" d="M-70 1v454h182q-32 35 -32 135q0 126 93 260q106 154 249 154q51 0 93 -24t72 -65t46.5 -96t16.5 -116q0 -164 -66 -248h102v-454h-52q-33 0 -71.5 12t-76 31.5t-70.5 44.5t-55 51q-164 -139 -322 -139h-109zM237 605q0 -14 14 -30.5t34 -30.5t41 -23.5t35 -9.5 q19 0 41.5 8t41.5 21t32 29.5t13 34.5q0 16 -12 30.5t-30 26t-39.5 18.5t-40.5 7q-23 0 -46.5 -7t-42 -18t-30 -25.5t-11.5 -30.5z" />
<glyph unicode="&#x6a1;" horiz-adv-x="1671" d="M122 418q0 116 37 227q40 126 98 126q31 0 44 -26t13 -80q0 -117 58 -172q51 -48 150 -70.5t248 -22.5q228 0 347 27q-50 50 -50 163q0 126 92 260q106 154 249 154q116 0 179 -110q50 -88 50 -191q0 -155 -66 -248h100v-454h-50q-32 0 -69 11.5t-72.5 31t-68 45 t-55.5 54.5q-205 -181 -601 -181q-295 0 -440 80q-193 106 -193 376zM1224 605q0 -14 14 -30.5t34 -30.5t41 -23.5t35 -9.5q19 0 41.5 8t42 21.5t32 30t12.5 33.5q0 16 -12 30.5t-30 26t-39.5 18.5t-40.5 7q-21 0 -44 -6.5t-42 -17.5t-31.5 -26t-12.5 -31z" />
<glyph unicode="&#x6a2;" horiz-adv-x="734" d="M-70 1v454h165q118 0 195.5 4t123.5 13t64 22.5t18 33.5q0 27 -28 27q-10 0 -18 -4q-35 -15 -157 -15q-257 0 -257 207q0 138 69 275q82 162 207 162q184 0 283 -224q75 -170 75 -368q0 -587 -573 -587h-167zM157 -310q0 10 10 20l125 126q8 8 17 8q8 0 18 -8l138 -132 q7 -9 7 -13q0 -7 -8 -15l-134 -134q-7 -7 -14 -7q-8 0 -15 7l-136 132q-8 8 -8 16zM221 828q0 -37 111 -37q103 0 105 20q0 15 -13 30.5t-32 27.5t-40.5 20t-38.5 8q-19 0 -35.5 -5.5t-29 -14.5t-20 -21.5t-7.5 -27.5z" />
<glyph unicode="&#x6a2;" horiz-adv-x="686" d="M-70 1v454h182q-32 35 -32 135q0 126 93 260q106 154 249 154q51 0 93 -24t72 -65t46.5 -96t16.5 -116q0 -164 -66 -248h102v-454h-52q-33 0 -71.5 12t-76 31.5t-70.5 44.5t-55 51q-164 -139 -322 -139h-109zM170 -267q0 10 10 20l125 126q8 8 17 8q8 0 18 -8l138 -132 q7 -9 7 -13q0 -7 -8 -15l-134 -134q-7 -7 -14 -7q-8 0 -15 7l-136 132q-8 8 -8 16zM237 605q0 -14 14 -30.5t34 -30.5t41 -23.5t35 -9.5q19 0 41.5 8t41.5 21t32 29.5t13 34.5q0 16 -12 30.5t-30 26t-39.5 18.5t-40.5 7q-23 0 -46.5 -7t-42 -18t-30 -25.5t-11.5 -30.5z" />
<glyph unicode="&#x6a2;" horiz-adv-x="1671" d="M122 418q0 116 37 227q40 126 98 126q31 0 44 -26t13 -80q0 -117 58 -172q51 -48 150 -70.5t248 -22.5q228 0 347 27q-50 50 -50 163q0 126 92 260q106 154 249 154q116 0 179 -110q50 -88 50 -191q0 -155 -66 -248h100v-454h-50q-32 0 -69 11.5t-72.5 31t-68 45 t-55.5 54.5q-205 -181 -601 -181q-295 0 -440 80q-193 106 -193 376zM1189 -288q0 10 10 20l125 126q8 8 17 8q8 0 18 -8l138 -132q7 -9 7 -13q0 -7 -8 -15l-134 -134q-7 -7 -14 -7q-8 0 -15 7l-136 132q-8 8 -8 16zM1224 605q0 -14 14 -30.5t34 -30.5t41 -23.5t35 -9.5 q19 0 41.5 8t42 21.5t32 30t12.5 33.5q0 16 -12 30.5t-30 26t-39.5 18.5t-40.5 7q-21 0 -44 -6.5t-42 -17.5t-31.5 -26t-12.5 -31z" />
<glyph unicode="&#x6a3;" horiz-adv-x="734" d="M-70 1v454h165q118 0 195.5 4t123.5 13t64 22.5t18 33.5q0 27 -28 27q-10 0 -18 -4q-35 -15 -157 -15q-257 0 -257 207q0 138 69 275q82 162 207 162q184 0 283 -224q75 -170 75 -368q0 -587 -573 -587h-167zM128 -323q0 10 10 20l125 126q8 8 17 8q8 0 18 -8l138 -132 q7 -9 7 -13q0 -7 -8 -15l-134 -134q-7 -7 -14 -7q-8 0 -15 7l-136 132q-8 8 -8 16zM152 1481q0 10 10 20l125 126q8 8 17 8q8 0 18 -8l138 -132q7 -9 7 -13q0 -7 -8 -15l-134 -134q-7 -7 -14 -7q-8 0 -15 7l-136 132q-8 8 -8 16zM221 828q0 -37 111 -37q103 0 105 20 q0 15 -13 30.5t-32 27.5t-40.5 20t-38.5 8q-19 0 -35.5 -5.5t-29 -14.5t-20 -21.5t-7.5 -27.5z" />
<glyph unicode="&#x6a3;" horiz-adv-x="686" d="M-70 1v454h182q-32 35 -32 135q0 126 93 260q106 154 249 154q51 0 93 -24t72 -65t46.5 -96t16.5 -116q0 -164 -66 -248h102v-454h-52q-33 0 -71.5 12t-76 31.5t-70.5 44.5t-55 51q-164 -139 -322 -139h-109zM186 -254q0 10 10 20l125 126q8 8 17 8q8 0 18 -8l138 -132 q7 -9 7 -13q0 -7 -8 -15l-134 -134q-7 -7 -14 -7q-8 0 -15 7l-136 132q-8 8 -8 16zM214 1303q0 10 10 20l125 126q8 8 17 8q8 0 18 -8l138 -132q7 -9 7 -13q0 -7 -8 -15l-134 -134q-7 -7 -14 -7q-8 0 -15 7l-136 132q-8 8 -8 16zM237 605q0 -14 14 -30.5t34 -30.5t41 -23.5 t35 -9.5q19 0 41.5 8t41.5 21t32 29.5t13 34.5q0 16 -12 30.5t-30 26t-39.5 18.5t-40.5 7q-23 0 -46.5 -7t-42 -18t-30 -25.5t-11.5 -30.5z" />
<glyph unicode="&#x6a3;" horiz-adv-x="1671" d="M122 418q0 116 37 227q40 126 98 126q31 0 44 -26t13 -80q0 -117 58 -172q51 -48 150 -70.5t248 -22.5q228 0 347 27q-50 50 -50 163q0 126 92 260q106 154 249 154q116 0 179 -110q50 -88 50 -191q0 -155 -66 -248h100v-454h-50q-32 0 -69 11.5t-72.5 31t-68 45 t-55.5 54.5q-205 -181 -601 -181q-295 0 -440 80q-193 106 -193 376zM1179 -276q0 10 10 20l125 126q8 8 17 8q8 0 18 -8l138 -132q7 -9 7 -13q0 -7 -8 -15l-134 -134q-7 -7 -14 -7q-8 0 -15 7l-136 132q-8 8 -8 16zM1202 1276q0 10 10 20l125 126q8 8 17 8q8 0 18 -8 l138 -132q7 -9 7 -13q0 -7 -8 -15l-134 -134q-7 -7 -14 -7q-8 0 -15 7l-136 132q-8 8 -8 16zM1224 605q0 -14 14 -30.5t34 -30.5t41 -23.5t35 -9.5q19 0 41.5 8t42 21.5t32 30t12.5 33.5q0 16 -12 30.5t-30 26t-39.5 18.5t-40.5 7q-21 0 -44 -6.5t-42 -17.5t-31.5 -26 t-12.5 -31z" />
<glyph unicode="&#x6a5;" horiz-adv-x="734" d="M-70 1v454h165q118 0 195.5 4t123.5 13t64 22.5t18 33.5q0 27 -28 27q-10 0 -18 -4q-35 -15 -157 -15q-257 0 -257 207q0 138 69 275q82 162 207 162q184 0 283 -224q75 -170 75 -368q0 -587 -573 -587h-167zM37 -274q0 8 8 16l111 113q7 7 14 7q5 0 14 -7l118 -113 l109 113q7 7 14 7q6 0 15 -7l121 -117q5 -7 5 -11q0 -6 -6 -12l-118 -117q-6 -6 -12 -6t-12 6l-116 114l-116 -114q-6 -6 -12 -6t-12 6l-119 116q-6 6 -6 12zM166 -502q0 8 9 17l108 111q7 7 14 7q6 0 15 -7l121 -116q6 -6 6 -11q0 -6 -6 -12l-118 -117q-6 -6 -12 -6t-12 6 l-120 117q-5 4 -5 11zM221 828q0 -37 111 -37q103 0 105 20q0 15 -13 30.5t-32 27.5t-40.5 20t-38.5 8q-19 0 -35.5 -5.5t-29 -14.5t-20 -21.5t-7.5 -27.5z" />
<glyph unicode="&#x6a5;" horiz-adv-x="686" d="M-70 1v454h182q-32 35 -32 135q0 126 93 260q106 154 249 154q51 0 93 -24t72 -65t46.5 -96t16.5 -116q0 -164 -66 -248h102v-454h-52q-33 0 -71.5 12t-76 31.5t-70.5 44.5t-55 51q-164 -139 -322 -139h-109zM60 -222q0 8 8 16l111 113q7 7 14 7q5 0 14 -7l118 -113 l109 113q7 7 14 7q6 0 15 -7l121 -117q5 -7 5 -11q0 -6 -6 -12l-118 -117q-6 -6 -12 -6t-12 6l-116 114l-116 -114q-6 -6 -12 -6t-12 6l-119 116q-6 6 -6 12zM189 -450q0 8 9 17l108 111q7 7 14 7q6 0 15 -7l121 -116q6 -6 6 -11q0 -6 -6 -12l-118 -117q-6 -6 -12 -6t-12 6 l-120 117q-5 4 -5 11zM237 605q0 -14 14 -30.5t34 -30.5t41 -23.5t35 -9.5q19 0 41.5 8t41.5 21t32 29.5t13 34.5q0 16 -12 30.5t-30 26t-39.5 18.5t-40.5 7q-23 0 -46.5 -7t-42 -18t-30 -25.5t-11.5 -30.5z" />
<glyph unicode="&#x6a5;" horiz-adv-x="1671" d="M122 418q0 116 37 227q40 126 98 126q31 0 44 -26t13 -80q0 -117 58 -172q51 -48 150 -70.5t248 -22.5q228 0 347 27q-50 50 -50 163q0 126 92 260q106 154 249 154q116 0 179 -110q50 -88 50 -191q0 -155 -66 -248h100v-454h-50q-32 0 -69 11.5t-72.5 31t-68 45 t-55.5 54.5q-205 -181 -601 -181q-295 0 -440 80q-193 106 -193 376zM1051 -243q0 8 8 16l111 113q7 7 14 7q5 0 14 -7l118 -113l109 113q7 7 14 7q6 0 15 -7l121 -117q5 -7 5 -11q0 -6 -6 -12l-118 -117q-6 -6 -12 -6t-12 6l-116 114l-116 -114q-6 -6 -12 -6t-12 6 l-119 116q-6 6 -6 12zM1180 -471q0 8 9 17l108 111q7 7 14 7q6 0 15 -7l121 -116q6 -6 6 -11q0 -6 -6 -12l-118 -117q-6 -6 -12 -6t-12 6l-120 117q-5 4 -5 11zM1224 605q0 -14 14 -30.5t34 -30.5t41 -23.5t35 -9.5q19 0 41.5 8t42 21.5t32 30t12.5 33.5q0 16 -12 30.5 t-30 26t-39.5 18.5t-40.5 7q-21 0 -44 -6.5t-42 -17.5t-31.5 -26t-12.5 -31z" />
<glyph unicode="&#x6a7;" horiz-adv-x="1352" d="M123 -60q0 115 47 271q55 184 125 184q17 0 28.5 -4.5t18.5 -17t10 -33.5t3 -54q0 -9 -4 -31t-8.5 -46.5t-8 -47.5t-3.5 -35q0 -198 397 -198q308 0 374 54q29 24 29 34q0 16 -104 16q-161 0 -231 35q-99 49 -99 194q0 195 79 357q88 181 215 181q230 0 266 -344h95v-454 h-83q0 -251 -148 -378.5t-424 -127.5q-137 0 -243.5 29t-180 85t-112 139.5t-38.5 191.5zM841 1063q0 10 10 20l125 126q8 8 17 8q8 0 18 -8l138 -132q7 -9 7 -13q0 -7 -8 -15l-134 -134q-7 -7 -14 -7q-8 0 -15 7l-136 132q-8 8 -8 16zM866 435q0 -38 113 -38q104 0 104 20 q0 15 -13 30.5t-32 28t-40.5 20.5t-38.5 8q-93 0 -93 -69z" />
<glyph unicode="&#x6a8;" horiz-adv-x="1352" d="M123 -60q0 115 47 271q55 184 125 184q17 0 28.5 -4.5t18.5 -17t10 -33.5t3 -54q0 -9 -4 -31t-8.5 -46.5t-8 -47.5t-3.5 -35q0 -198 397 -198q308 0 374 54q29 24 29 34q0 16 -104 16q-161 0 -231 35q-99 49 -99 194q0 195 79 357q88 181 215 181q230 0 266 -344h95v-454 h-83q0 -251 -148 -378.5t-424 -127.5q-137 0 -243.5 29t-180 85t-112 139.5t-38.5 191.5zM690 1021q0 6 6 12l118 118q7 5 13 5q5 0 12 -5l115 -115l116 115q5 5 11 5q5 0 13 -5l119 -117q6 -6 6 -13t-8 -15l-110 -112q-8 -8 -14 -10q-7 2 -15 10l-118 112l-109 -112 q-7 -7 -14 -7q-8 0 -15 7l-121 116q-5 7 -5 11zM818 1249q0 6 6 12l117 118q7 6 13 6t12 -6l119 -117q5 -7 5 -11q0 -8 -9 -17l-108 -111q-8 -8 -14 -8q-8 0 -16 8l-120 115q-5 4 -5 11zM866 435q0 -38 113 -38q104 0 104 20q0 15 -13 30.5t-32 28t-40.5 20.5t-38.5 8 q-93 0 -93 -69z" />
<glyph unicode="&#x6aa;" horiz-adv-x="1823" d="M-39 228.5q-1 49.5 1.5 94t10 80t19.5 52.5h6q1007 7 1508 67q-2 53 -31.5 81.5t-72.5 41t-92 14.5t-90 3q-42 -2 -111 -7t-153 -10.5t-178.5 -11t-188.5 -8t-181.5 -0.5t-158.5 11q-38 5 -64.5 19t-44 33.5t-26 41.5t-9.5 43q-10 63 23.5 122t95.5 112t146 100.5 t174.5 87.5t181.5 73t167 57.5t130 40t72 20.5t15 -17t-16.5 -62.5t-32 -94.5t-31.5 -112q-26 -5 -71.5 -14t-102 -20t-120.5 -24.5t-126.5 -28t-120 -30t-101.5 -31t-70.5 -30.5t-27.5 -28q6 -20 46 -30t103.5 -13.5t146 -1.5t172.5 7t183.5 11.5t180 11.5t161 8.5 t126.5 1.5q103 -1 178.5 -27.5t121 -73t59.5 -111.5t-7 -144l-124 -414q-710 -89 -1645 -119q-8 18 -15 54t-11 80.5t-5 94z" />
<glyph unicode="&#x6aa;" horiz-adv-x="1907" d="M-39 228.5q-1 49.5 1.5 94t10 80t19.5 52.5h6q1007 7 1508 67q-2 53 -31.5 81.5t-72.5 41t-92 14.5t-90 3q-42 -2 -111 -7t-153 -10.5t-178.5 -11t-188.5 -8t-181.5 -0.5t-158.5 11q-38 5 -64.5 19t-44 33.5t-26 41.5t-9.5 43q-10 63 23.5 122t95.5 112t146 100.5 t174.5 87.5t181.5 73t167 57.5t130 40t72 20.5t15 -17t-16.5 -62.5t-32 -94.5t-31.5 -112q-26 -5 -71.5 -14t-102 -20t-120.5 -24.5t-126.5 -28t-120 -30t-101.5 -31t-70.5 -30.5t-27.5 -28q6 -20 46 -30t103.5 -13.5t146 -1.5t172.5 7t183.5 11.5t180 11.5t161 8.5 t126.5 1.5q76 -4 132.5 -25t97 -53.5t66 -74t39 -88.5t16.5 -96.5t-2 -96.5h167q7 -17 12 -52.5t7.5 -80.5t2.5 -94.5t-2 -94.5t-7.5 -80.5t-12.5 -52.5h-112q-124 -2 -184 7.5t-90 31.5q-23 16 -25 65q-667 -77 -1522 -104q-8 18 -15 54t-11 80.5t-5 94z" />
<glyph unicode="&#x6aa;" horiz-adv-x="2645" d="M152 495q0 99 29 199q34 130 92 130q62 0 68 -98q6 -120 59 -176q106 -125 406 -121q765 -15 1439 85q-2 53 -31.5 82.5t-72.5 44t-92 17.5t-90 4q-43 -2 -111.5 -7t-152.5 -10.5t-178.5 -11t-188.5 -8t-181.5 -0.5t-158.5 11q-38 5 -64.5 19t-44 33.5t-26 41.5t-9.5 43 q-10 63 23.5 122t95.5 112t146 100.5t174.5 87.5t181.5 73t167 57.5t130 40t72 20.5t15 -17t-16.5 -62.5t-32 -94.5t-31.5 -112q-26 -5 -71.5 -14t-102 -20t-120.5 -24.5t-126.5 -28t-120 -30t-101.5 -31t-70.5 -30.5t-27.5 -28q6 -20 46 -30t103.5 -13.5t146 -1.5t172.5 7 t183.5 11.5t180 11.5t161 8.5t126.5 1.5q103 -1 178.5 -27.5t121 -73t59.5 -111.5t-7 -144l-24 -78h195q7 -17 12 -52.5t7.5 -80.5t2.5 -94.5t-2 -94.5t-7.5 -80.5t-12.5 -52.5h-112q-124 -2 -184 7.5t-90 31.5q-23 16 -25 64q-696 -90 -1490 -100q-224 5 -325 34.5t-166 92 t-96 152.5t-31 213z" />
<glyph unicode="&#x6ab;" horiz-adv-x="924" d="M-70 1v454h134q209 0 278 19q31 7 31 34q0 15 -15 38t-38.5 50t-52.5 55t-57 54q-59 52 -177 159l56 322q3 21 21 28l775 256q7 3 13 3q3 0 3 -13v-10l-35 -329q-1 -12 -2 -18.5t-4 -9.5t-7 -4.5t-11 -3.5l-412 -128q102 -121 143 -207q58 -120 58 -272 q0 -113 -31 -201.5t-92 -149.5t-150 -93.5t-206 -32.5h-222zM569 893q0 62 32 143q40 99 97 99q33 0 65 -14t57.5 -38.5t41 -57.5t15.5 -70q0 -89 -43.5 -142t-119.5 -53q-31 0 -57.5 10t-46 28t-30.5 42t-11 53zM642 951q0 -59 88 -59q74 0 74 36q0 16 -11.5 33t-28.5 30 t-36.5 21.5t-35.5 8.5q-50 0 -50 -70z" />
<glyph unicode="&#x6ab;" horiz-adv-x="1004" d="M-70 1v454h170q113 0 178 8.5t65 30.5q0 7 -14 25.5t-50.5 59t-100 106.5t-161.5 168l55 322q3 23 22 29l774 256q9 3 13 3t4 -10v-12l-34 -330q-1 -11 -2.5 -17t-4 -9.5t-7 -5t-11.5 -4.5l-454 -155q136 -157 211 -242t91 -100q130 -123 256 -123h74v-454h-47 q-94 0 -209 74q-96 62 -168 151q-66 -135 -198 -186q-101 -39 -287 -39h-165zM548 898q0 62 32 143q40 99 97 99q33 0 65 -14t57.5 -38.5t41 -57.5t15.5 -70q0 -89 -43.5 -142t-119.5 -53q-31 0 -57.5 10t-46 28t-30.5 42t-11 53zM621 956q0 -59 88 -59q74 0 74 36 q0 16 -11.5 33t-28.5 30t-36.5 21.5t-35.5 8.5q-50 0 -50 -70z" />
<glyph unicode="&#x6ab;" horiz-adv-x="1906" d="M121 428q0 61 11 124t30 114t43.5 83.5t51.5 32.5q30 0 43 -27t13 -81q0 -114 58 -166q98 -88 399 -88q104 0 193 3t153.5 10t101 18t36.5 26q0 10 -24 40.5t-67.5 78.5t-105.5 113t-138 144l55 322q3 23 22 29l774 256q7 3 12 3q4 0 4 -10v-12l-33 -330q-1 -11 -2.5 -17 t-4 -9.5t-7 -5t-11.5 -4.5l-455 -155q140 -161 215 -246t87 -96q129 -123 257 -123h74v-454h-47q-94 0 -209 74q-96 62 -168 151q-77 -156 -261 -215q-123 -40 -339 -40q-63 0 -128 1q-295 0 -440 80q-193 106 -193 376zM1426 876q0 62 32 143q40 99 97 99q33 0 65 -14 t57.5 -38.5t41 -57.5t15.5 -70q0 -89 -43.5 -142t-119.5 -53q-31 0 -57.5 10t-46 28t-30.5 42t-11 53zM1499 934q0 -59 88 -59q74 0 74 36q0 16 -11.5 33t-28.5 30t-36.5 21.5t-35.5 8.5q-50 0 -50 -70z" />
<glyph unicode="&#x6ae;" horiz-adv-x="924" d="M-70 1v454h134q209 0 278 19q31 7 31 34q0 15 -15 38t-38.5 50t-52.5 55t-57 54q-59 52 -177 159l56 322q3 21 21 28l775 256q7 3 13 3q3 0 3 -13v-10l-35 -329q-1 -12 -2 -18.5t-4 -9.5t-7 -4.5t-11 -3.5l-412 -128q102 -121 143 -207q58 -120 58 -272 q0 -113 -31 -201.5t-92 -149.5t-150 -93.5t-206 -32.5h-222zM136 -280q0 8 8 16l111 113q7 7 14 7q5 0 14 -7l118 -113l109 113q7 7 14 7q6 0 15 -7l121 -117q5 -7 5 -11q0 -6 -6 -12l-118 -117q-6 -6 -12 -6t-12 6l-116 114l-116 -114q-6 -6 -12 -6t-12 6l-119 116 q-6 6 -6 12zM265 -508q0 8 9 17l108 111q7 7 14 7q6 0 15 -7l121 -116q6 -6 6 -11q0 -6 -6 -12l-118 -117q-6 -6 -12 -6t-12 6l-120 117q-5 4 -5 11z" />
<glyph unicode="&#x6ae;" horiz-adv-x="1004" d="M-70 1v454h170q113 0 178 8.5t65 30.5q0 7 -14 25.5t-50.5 59t-100 106.5t-161.5 168l55 322q3 23 22 29l774 256q9 3 13 3t4 -10v-12l-34 -330q-1 -11 -2.5 -17t-4 -9.5t-7 -5t-11.5 -4.5l-454 -155q136 -157 211 -242t91 -100q130 -123 256 -123h74v-454h-47 q-94 0 -209 74q-96 62 -168 151q-66 -135 -198 -186q-101 -39 -287 -39h-165zM280 -233q0 8 8 16l111 113q7 7 14 7q5 0 14 -7l118 -113l109 113q7 7 14 7q6 0 15 -7l121 -117q5 -7 5 -11q0 -6 -6 -12l-118 -117q-6 -6 -12 -6t-12 6l-116 114l-116 -114q-6 -6 -12 -6t-12 6 l-119 116q-6 6 -6 12zM409 -461q0 8 9 17l108 111q7 7 14 7q6 0 15 -7l121 -116q6 -6 6 -11q0 -6 -6 -12l-118 -117q-6 -6 -12 -6t-12 6l-120 117q-5 4 -5 11z" />
<glyph unicode="&#x6ae;" horiz-adv-x="1713" d="M121 428q0 61 11 124t30 114t43.5 83.5t51.5 32.5q30 0 43 -27t13 -81q0 -114 58 -166q98 -88 399 -88q347 0 458 34q79 23 78 140v17l-32 670v4q0 14 10 22l305 196q10 7 15 7q4 0 5 -4.5t1 -19.5v-904q0 -25 7 -48t19.5 -40.5t30.5 -28t40 -10.5h6v-454h-17 q-33 0 -66.5 11.5t-64.5 32t-57.5 47.5t-44.5 58q-88 -127 -300 -154q-57 -13 -126.5 -19t-154.5 -6q-61 0 -128 1q-295 0 -440 80q-193 106 -193 376zM595 -293q0 8 8 16l111 113q7 7 14 7q5 0 14 -7l118 -113l109 113q7 7 14 7q6 0 15 -7l121 -117q5 -7 5 -11q0 -6 -6 -12 l-118 -117q-6 -6 -12 -6t-12 6l-116 114l-116 -114q-6 -6 -12 -6t-12 6l-119 116q-6 6 -6 12zM604 706l6 111q62 50 106 76q-16 1 -31 9t-26 21.5t-18 31t-7 35.5q0 79 49 155q55 87 135 87q24 0 52.5 -10t53.5 -27t41.5 -39.5t16.5 -47.5q0 -19 -22 -19q-6 0 -16.5 2 t-22.5 4.5t-22.5 4.5t-16.5 2q-26 0 -50 -5t-42 -15t-29 -23.5t-11 -29.5q0 -49 95 -49q8 0 25 4.5t38 11t43 14t40 14t39 14.5l-21 -144q-111 -32 -211.5 -78.5t-193.5 -109.5zM724 -521q0 8 9 17l108 111q7 7 14 7q6 0 15 -7l121 -116q6 -6 6 -11q0 -6 -6 -12l-118 -117 q-6 -6 -12 -6t-12 6l-120 117q-5 4 -5 11z" />
<glyph unicode="&#x6b0;" horiz-adv-x="894" d="M-70 1v454h134q48 0 93 1.5t79.5 6t55.5 13.5t21 25q0 22 -72 94t-204 193l47 251q0 5 8 15l749 240q5 2 7.5 2h4.5q5 0 5 -13v-9l-21 -273q-1 -12 -2.5 -18.5t-4 -10t-7 -5t-11.5 -3.5l-394 -108q153 -182 153 -379q0 -111 -30 -199.5t-86.5 -150t-138 -94t-184.5 -32.5 h-202zM94 1116l19 108l761 234l-11 -93zM564 787q0 62 32 143q40 99 97 99q33 0 65 -14t57.5 -38.5t41 -57.5t15.5 -70q0 -89 -43.5 -142t-119.5 -53q-31 0 -57.5 10t-46 28t-30.5 42t-11 53zM637 845q0 -59 88 -59q74 0 74 36q0 16 -11.5 33t-28.5 30t-36.5 21.5t-35.5 8.5 q-50 0 -50 -70z" />
<glyph unicode="&#x6b0;" horiz-adv-x="949" d="M-70 1v454h146q101 0 161 10t60 32q0 12 -16 31q-43 51 -100.5 116t-132.5 144l46 251q0 6 9 15l749 240q9 3 12 3t3 -13v-10l-20 -273q-1 -9 -1.5 -15t-2.5 -10t-6.5 -6.5t-13.5 -5.5l-419 -128l251 -296q91 -85 220 -85h74v-454h-47q-94 0 -209 74q-96 62 -168 151 q-111 -225 -406 -225h-189zM104 1116l19 108l760 234l-10 -93zM538 775q0 62 32 143q40 99 97 99q33 0 65 -14t57.5 -38.5t41 -57.5t15.5 -70q0 -89 -43.5 -142t-119.5 -53q-31 0 -57.5 10t-46 28t-30.5 42t-11 53zM611 833q0 -59 88 -59q74 0 74 36q0 16 -11.5 33t-28.5 30 t-36.5 21.5t-35.5 8.5q-50 0 -50 -70z" />
<glyph unicode="&#x6b0;" horiz-adv-x="1906" d="M121 428q0 61 11 124t30 114t43.5 83.5t51.5 32.5q30 0 43 -27t13 -81q0 -114 58 -166q98 -88 399 -88q104 0 193 3t153.5 10t101 18t36.5 26q0 11 -16 31q-37 48 -95 117.5t-139 162.5l47 251q0 5 8 15l750 240q9 3 12 3t3 -13v-10l-20 -273q-1 -9 -1.5 -15t-2.5 -10 t-6.5 -6.5t-13.5 -5.5l-419 -128l251 -296q91 -85 220 -85h74v-454h-47q-94 0 -209 74q-96 62 -168 151q-77 -156 -261 -215q-123 -40 -339 -40q-63 0 -128 1q-295 0 -440 80q-193 106 -193 376zM1061 1116l19 108l760 234l-10 -93zM1499 771q0 62 32 143q40 99 97 99 q33 0 65 -14t57.5 -38.5t41 -57.5t15.5 -70q0 -89 -43.5 -142t-119.5 -53q-31 0 -57.5 10t-46 28t-30.5 42t-11 53zM1572 829q0 -59 88 -59q74 0 74 36q0 16 -11.5 33t-28.5 30t-36.5 21.5t-35.5 8.5q-50 0 -50 -70z" />
<glyph unicode="&#x6b2;" horiz-adv-x="894" d="M-70 1v454h134q48 0 93 1.5t79.5 6t55.5 13.5t21 25q0 22 -72 94t-204 193l47 251q0 5 8 15l749 240q5 2 7.5 2h4.5q5 0 5 -13v-9l-21 -273q-1 -12 -2.5 -18.5t-4 -10t-7 -5t-11.5 -3.5l-394 -108q153 -182 153 -379q0 -111 -30 -199.5t-86.5 -150t-138 -94t-184.5 -32.5 h-202zM94 1116l19 108l761 234l-11 -93zM155 -248q0 9 10 19l109 111q8 8 16 8q6 0 16 -8l111 -107l106 107q7 7 15 7t16 -7l121 -117q7 -7 7 -12q0 -7 -8 -13l-119 -117q-7 -7 -13 -7q-7 0 -13 7l-112 110l-110 -110q-7 -7 -13 -7q-7 0 -13 7l-119 116q-7 6 -7 13z" />
<glyph unicode="&#x6b2;" horiz-adv-x="949" d="M-70 1v454h146q101 0 161 10t60 32q0 12 -16 31q-43 51 -100.5 116t-132.5 144l46 251q0 6 9 15l749 240q9 3 12 3t3 -13v-10l-20 -273q-1 -9 -1.5 -15t-2.5 -10t-6.5 -6.5t-13.5 -5.5l-419 -128l251 -296q91 -85 220 -85h74v-454h-47q-94 0 -209 74q-96 62 -168 151 q-111 -225 -406 -225h-189zM104 1116l19 108l760 234l-10 -93zM187 -251q0 9 10 19l109 111q8 8 16 8q6 0 16 -8l111 -107l106 107q7 7 15 7t16 -7l121 -117q7 -7 7 -12q0 -7 -8 -13l-119 -117q-7 -7 -13 -7q-7 0 -13 7l-112 110l-110 -110q-7 -7 -13 -7q-7 0 -13 7 l-119 116q-7 6 -7 13z" />
<glyph unicode="&#x6b2;" horiz-adv-x="1906" d="M121 428q0 61 11 124t30 114t43.5 83.5t51.5 32.5q30 0 43 -27t13 -81q0 -114 58 -166q98 -88 399 -88q104 0 193 3t153.5 10t101 18t36.5 26q0 11 -16 31q-37 48 -95 117.5t-139 162.5l47 251q0 5 8 15l750 240q9 3 12 3t3 -13v-10l-20 -273q-1 -9 -1.5 -15t-2.5 -10 t-6.5 -6.5t-13.5 -5.5l-419 -128l251 -296q91 -85 220 -85h74v-454h-47q-94 0 -209 74q-96 62 -168 151q-77 -156 -261 -215q-123 -40 -339 -40q-63 0 -128 1q-295 0 -440 80q-193 106 -193 376zM606 -289q0 9 10 19l109 111q8 8 16 8q6 0 16 -8l111 -107l106 107q7 7 15 7 t16 -7l121 -117q7 -7 7 -12q0 -7 -8 -13l-119 -117q-7 -7 -13 -7q-7 0 -13 7l-112 110l-110 -110q-7 -7 -13 -7q-7 0 -13 7l-119 116q-7 6 -7 13zM1061 1116l19 108l760 234l-10 -93z" />
<glyph unicode="&#x6b4;" horiz-adv-x="894" d="M-70 1v454h134q48 0 93 1.5t79.5 6t55.5 13.5t21 25q0 22 -72 94t-204 193l47 251q0 5 8 15l749 240q5 2 7.5 2h4.5q5 0 5 -13v-9l-21 -273q-1 -12 -2.5 -18.5t-4 -10t-7 -5t-11.5 -3.5l-394 -108q153 -182 153 -379q0 -111 -30 -199.5t-86.5 -150t-138 -94t-184.5 -32.5 h-202zM94 1116l19 108l761 234l-11 -93zM146 1582q0 6 6 12l118 118q7 5 13 5q5 0 12 -5l115 -115l116 115q5 5 11 5q5 0 13 -5l119 -117q6 -6 6 -13t-8 -15l-110 -112q-8 -8 -14 -10q-7 2 -15 10l-118 112l-109 -112q-7 -7 -14 -7q-8 0 -15 7l-121 116q-5 7 -5 11z M274 1810q0 6 6 12l117 118q7 6 13 6t12 -6l119 -117q5 -7 5 -11q0 -8 -9 -17l-108 -111q-8 -8 -14 -8q-8 0 -16 8l-120 115q-5 4 -5 11z" />
<glyph unicode="&#x6b4;" horiz-adv-x="949" d="M-70 1v454h146q101 0 161 10t60 32q0 12 -16 31q-43 51 -100.5 116t-132.5 144l46 251q0 6 9 15l749 240q9 3 12 3t3 -13v-10l-20 -273q-1 -9 -1.5 -15t-2.5 -10t-6.5 -6.5t-13.5 -5.5l-419 -128l251 -296q91 -85 220 -85h74v-454h-47q-94 0 -209 74q-96 62 -168 151 q-111 -225 -406 -225h-189zM104 1116l19 108l760 234l-10 -93zM136 1584q0 6 6 12l118 118q7 5 13 5q5 0 12 -5l115 -115l116 115q5 5 11 5q5 0 13 -5l119 -117q6 -6 6 -13t-8 -15l-110 -112q-8 -8 -14 -10q-7 2 -15 10l-118 112l-109 -112q-7 -7 -14 -7q-8 0 -15 7 l-121 116q-5 7 -5 11zM264 1812q0 6 6 12l117 118q7 6 13 6t12 -6l119 -117q5 -7 5 -11q0 -8 -9 -17l-108 -111q-8 -8 -14 -8q-8 0 -16 8l-120 115q-5 4 -5 11z" />
<glyph unicode="&#x6b4;" horiz-adv-x="1906" d="M121 428q0 61 11 124t30 114t43.5 83.5t51.5 32.5q30 0 43 -27t13 -81q0 -114 58 -166q98 -88 399 -88q104 0 193 3t153.5 10t101 18t36.5 26q0 11 -16 31q-37 48 -95 117.5t-139 162.5l47 251q0 5 8 15l750 240q9 3 12 3t3 -13v-10l-20 -273q-1 -9 -1.5 -15t-2.5 -10 t-6.5 -6.5t-13.5 -5.5l-419 -128l251 -296q91 -85 220 -85h74v-454h-47q-94 0 -209 74q-96 62 -168 151q-77 -156 -261 -215q-123 -40 -339 -40q-63 0 -128 1q-295 0 -440 80q-193 106 -193 376zM1061 1116l19 108l760 234l-10 -93zM1096 1571q0 6 6 12l118 118q7 5 13 5 q5 0 12 -5l115 -115l116 115q5 5 11 5q5 0 13 -5l119 -117q6 -6 6 -13t-8 -15l-110 -112q-8 -8 -14 -10q-7 2 -15 10l-118 112l-109 -112q-7 -7 -14 -7q-8 0 -15 7l-121 116q-5 7 -5 11zM1224 1799q0 6 6 12l117 118q7 6 13 6t12 -6l119 -117q5 -7 5 -11q0 -8 -9 -17 l-108 -111q-8 -8 -14 -8q-8 0 -16 8l-120 115q-5 4 -5 11z" />
<glyph unicode="&#x6b5;" horiz-adv-x="590" d="M-70 1v454h98q46 0 76 4t47.5 13.5t24.5 24.5t7 37q0 80 -42 307q-23 121 -47.5 228t-50.5 202l251 222q34 30 45 30q12 0 33 -46l152 -338q12 -27 12 -43q0 -22 -29 -22q-24 0 -81 17l24 -616q0 -11 0.5 -22.5t0.5 -22.5q0 -101 -21.5 -180.5t-61.5 -135t-97 -84.5 t-127 -29h-214zM-50 1878l132 -8q10 -12 20.5 -27t21.5 -39t22 -58.5t23 -85.5q3 19 9 46.5t15 57t21 59t28 53.5l132 10q-13 -13 -30.5 -32t-38.5 -54t-44.5 -91.5t-47.5 -143.5l-87 -3q-10 47 -28 93.5t-41 88.5t-50.5 76.5t-56.5 57.5z" />
<glyph unicode="&#x6b5;" horiz-adv-x="562" d="M-70 1v454h98q108 0 108 137v19l-32 670v4q0 14 10 22l305 196q10 7 15 7q4 0 5 -4.5t1 -19.5v-904q0 -25 7 -48t19.5 -40.5t30.5 -28t40 -10.5h25v-454h-36q-33 0 -66.5 11.5t-64.5 32t-57.5 47.5t-44.5 58q-105 -149 -250 -149h-113zM34 1864l132 -8q10 -12 20.5 -27 t21.5 -39t22 -58.5t23 -85.5q3 19 9 46.5t15 57t21 59t28 53.5l132 10q-13 -13 -30.5 -32t-38.5 -54t-44.5 -91.5t-47.5 -143.5l-87 -3q-10 47 -28 93.5t-41 88.5t-50.5 76.5t-56.5 57.5z" />
<glyph unicode="&#x6b5;" horiz-adv-x="1358" d="M123 -21q0 116 45 272q52 184 121 184q62 0 62 -109q0 -9 -2.5 -28.5t-5 -41.5t-5 -42t-2.5 -30q0 -216 372 -216q281 0 281 200v15t-1 14l-78 1084v3q0 15 11 23l305 196q10 7 15 7q3 0 4 -5t1 -19v-924q0 -107 98 -107h14v-454h-46q-69 0 -135 71q0 -179 -81 -320 q-131 -227 -430 -227q-128 0 -229 30t-170.5 88t-106.5 142.5t-37 193.5zM773 1849l132 -8q10 -12 20.5 -27t21.5 -39t22 -58.5t23 -85.5q3 19 9 46.5t15 57t21 59t28 53.5l132 10q-13 -13 -30.5 -32t-38.5 -54t-44.5 -91.5t-47.5 -143.5l-87 -3q-10 47 -28 93.5t-41 88.5 t-50.5 76.5t-56.5 57.5z" />
<glyph unicode="&#x6b6;" horiz-adv-x="590" d="M-70 1v454h98q46 0 76 4t47.5 13.5t24.5 24.5t7 37q0 80 -42 307q-23 121 -47.5 228t-50.5 202l251 222q34 30 45 30q12 0 33 -46l152 -338q12 -27 12 -43q0 -22 -29 -22q-24 0 -81 17l24 -616q0 -11 0.5 -22.5t0.5 -22.5q0 -101 -21.5 -180.5t-61.5 -135t-97 -84.5 t-127 -29h-214zM-27 1712q0 10 10 20l125 126q8 8 17 8q8 0 18 -8l138 -132q7 -9 7 -13q0 -7 -8 -15l-134 -134q-7 -7 -14 -7q-8 0 -15 7l-136 132q-8 8 -8 16z" />
<glyph unicode="&#x6b6;" horiz-adv-x="562" d="M-70 1v454h98q108 0 108 137v19l-32 670v4q0 14 10 22l305 196q10 7 15 7q4 0 5 -4.5t1 -19.5v-904q0 -25 7 -48t19.5 -40.5t30.5 -28t40 -10.5h25v-454h-36q-33 0 -66.5 11.5t-64.5 32t-57.5 47.5t-44.5 58q-105 -149 -250 -149h-113zM55 1708q0 10 10 20l125 126 q8 8 17 8q8 0 18 -8l138 -132q7 -9 7 -13q0 -7 -8 -15l-134 -134q-7 -7 -14 -7q-8 0 -15 7l-136 132q-8 8 -8 16z" />
<glyph unicode="&#x6b6;" horiz-adv-x="1358" d="M123 -21q0 116 45 272q52 184 121 184q62 0 62 -109q0 -9 -2.5 -28.5t-5 -41.5t-5 -42t-2.5 -30q0 -216 372 -216q281 0 281 200v15t-1 14l-78 1084v3q0 15 11 23l305 196q10 7 15 7q3 0 4 -5t1 -19v-924q0 -107 98 -107h14v-454h-46q-69 0 -135 71q0 -179 -81 -320 q-131 -227 -430 -227q-128 0 -229 30t-170.5 88t-106.5 142.5t-37 193.5zM822 1700q0 10 10 20l125 126q8 8 17 8q8 0 18 -8l138 -132q7 -9 7 -13q0 -7 -8 -15l-134 -134q-7 -7 -14 -7q-8 0 -15 7l-136 132q-8 8 -8 16z" />
<glyph unicode="&#x6b7;" horiz-adv-x="590" d="M-92 1741q0 6 6 12l118 118q7 5 13 5q5 0 12 -5l115 -115l116 115q5 5 11 5q5 0 13 -5l119 -117q6 -6 6 -13t-8 -15l-110 -112q-8 -8 -14 -10q-7 2 -15 10l-118 112l-109 -112q-7 -7 -14 -7q-8 0 -15 7l-121 116q-5 7 -5 11zM-70 1v454h98q46 0 76 4t47.5 13.5t24.5 24.5 t7 37q0 80 -42 307q-23 121 -47.5 228t-50.5 202l251 222q34 30 45 30q12 0 33 -46l152 -338q12 -27 12 -43q0 -22 -29 -22q-24 0 -81 17l24 -616q0 -11 0.5 -22.5t0.5 -22.5q0 -101 -21.5 -180.5t-61.5 -135t-97 -84.5t-127 -29h-214zM36 1969q0 6 6 12l117 118q7 6 13 6 t12 -6l119 -117q5 -7 5 -11q0 -8 -9 -17l-108 -111q-8 -8 -14 -8q-8 0 -16 8l-120 115q-5 4 -5 11z" />
<glyph unicode="&#x6b7;" horiz-adv-x="562" d="M-70 1v454h98q108 0 108 137v19l-32 670v4q0 14 10 22l305 196q10 7 15 7q4 0 5 -4.5t1 -19.5v-904q0 -25 7 -48t19.5 -40.5t30.5 -28t40 -10.5h25v-454h-36q-33 0 -66.5 11.5t-64.5 32t-57.5 47.5t-44.5 58q-105 -149 -250 -149h-113zM-16 1738q0 6 6 12l118 118 q7 5 13 5q5 0 12 -5l115 -115l116 115q5 5 11 5q5 0 13 -5l119 -117q6 -6 6 -13t-8 -15l-110 -112q-8 -8 -14 -10q-7 2 -15 10l-118 112l-109 -112q-7 -7 -14 -7q-8 0 -15 7l-121 116q-5 7 -5 11zM112 1966q0 6 6 12l117 118q7 6 13 6t12 -6l119 -117q5 -7 5 -11 q0 -8 -9 -17l-108 -111q-8 -8 -14 -8q-8 0 -16 8l-120 115q-5 4 -5 11z" />
<glyph unicode="&#x6b7;" horiz-adv-x="1358" d="M123 -21q0 116 45 272q52 184 121 184q62 0 62 -109q0 -9 -2.5 -28.5t-5 -41.5t-5 -42t-2.5 -30q0 -216 372 -216q281 0 281 200v15t-1 14l-78 1084v3q0 15 11 23l305 196q10 7 15 7q3 0 4 -5t1 -19v-924q0 -107 98 -107h14v-454h-46q-69 0 -135 71q0 -179 -81 -320 q-131 -227 -430 -227q-128 0 -229 30t-170.5 88t-106.5 142.5t-37 193.5zM704 1701q0 6 6 12l118 118q7 5 13 5q5 0 12 -5l115 -115l116 115q5 5 11 5q5 0 13 -5l119 -117q6 -6 6 -13t-8 -15l-110 -112q-8 -8 -14 -10q-7 2 -15 10l-118 112l-109 -112q-7 -7 -14 -7 q-8 0 -15 7l-121 116q-5 7 -5 11zM832 1929q0 6 6 12l117 118q7 6 13 6t12 -6l119 -117q5 -7 5 -11q0 -8 -9 -17l-108 -111q-8 -8 -14 -8q-8 0 -16 8l-120 115q-5 4 -5 11z" />
<glyph unicode="&#x6b8;" horiz-adv-x="590" d="M-70 1v454h98q46 0 76 4t47.5 13.5t24.5 24.5t7 37q0 80 -42 307q-23 121 -47.5 228t-50.5 202l251 222q34 30 45 30q12 0 33 -46l152 -338q12 -27 12 -43q0 -22 -29 -22q-24 0 -81 17l24 -616q0 -11 0.5 -22.5t0.5 -22.5q0 -101 -21.5 -180.5t-61.5 -135t-97 -84.5 t-127 -29h-214zM-7 -292q0 8 8 16l111 113q7 7 14 7q5 0 14 -7l118 -113l109 113q7 7 14 7q6 0 15 -7l121 -117q5 -7 5 -11q0 -6 -6 -12l-118 -117q-6 -6 -12 -6t-12 6l-116 114l-116 -114q-6 -6 -12 -6t-12 6l-119 116q-6 6 -6 12zM122 -520q0 8 9 17l108 111q7 7 14 7 q6 0 15 -7l121 -116q6 -6 6 -11q0 -6 -6 -12l-118 -117q-6 -6 -12 -6t-12 6l-120 117q-5 4 -5 11z" />
<glyph unicode="&#x6b8;" horiz-adv-x="562" d="M-70 1v454h98q108 0 108 137v19l-32 670v4q0 14 10 22l305 196q10 7 15 7q4 0 5 -4.5t1 -19.5v-904q0 -25 7 -48t19.5 -40.5t30.5 -28t40 -10.5h25v-454h-36q-33 0 -66.5 11.5t-64.5 32t-57.5 47.5t-44.5 58q-105 -149 -250 -149h-113zM13 -277q0 8 8 16l111 113 q7 7 14 7q5 0 14 -7l118 -113l109 113q7 7 14 7q6 0 15 -7l121 -117q5 -7 5 -11q0 -6 -6 -12l-118 -117q-6 -6 -12 -6t-12 6l-116 114l-116 -114q-6 -6 -12 -6t-12 6l-119 116q-6 6 -6 12zM142 -505q0 8 9 17l108 111q7 7 14 7q6 0 15 -7l121 -116q6 -6 6 -11q0 -6 -6 -12 l-118 -117q-6 -6 -12 -6t-12 6l-120 117q-5 4 -5 11z" />
<glyph unicode="&#x6b8;" horiz-adv-x="1358" d="M123 -21q0 116 45 272q52 184 121 184q62 0 62 -109q0 -9 -2.5 -28.5t-5 -41.5t-5 -42t-2.5 -30q0 -216 372 -216q281 0 281 200v15t-1 14l-78 1084v3q0 15 11 23l305 196q10 7 15 7q3 0 4 -5t1 -19v-924q0 -107 98 -107h14v-454h-46q-69 0 -135 71q0 -179 -81 -320 q-131 -227 -430 -227q-128 0 -229 30t-170.5 88t-106.5 142.5t-37 193.5zM425 -725q0 8 8 16l111 113q7 7 14 7q5 0 14 -7l118 -113l109 113q7 7 14 7q6 0 15 -7l121 -117q5 -7 5 -11q0 -6 -6 -12l-118 -117q-6 -6 -12 -6t-12 6l-116 114l-116 -114q-6 -6 -12 -6t-12 6 l-119 116q-6 6 -6 12zM554 -953q0 8 9 17l108 111q7 7 14 7q6 0 15 -7l121 -116q6 -6 6 -11q0 -6 -6 -12l-118 -117q-6 -6 -12 -6t-12 6l-120 117q-5 4 -5 11z" />
<glyph unicode="&#x6b9;" horiz-adv-x="603" d="M-17 1v454h291q59 0 59 33q0 16 -17 39q-63 81 -160 167q-8 6 -8 16q0 7 8 20l186 270q15 22 22 22q8 0 25 -20q156 -192 156 -476q0 -279 -79 -392q-91 -133 -340 -133h-143zM43 1271q0 10 10 20l125 126q8 8 17 8q8 0 18 -8l138 -132q7 -9 7 -13q0 -7 -8 -15l-134 -134 q-7 -7 -14 -7q-8 0 -15 7l-136 132q-8 8 -8 16zM97 -307q0 10 10 20l125 126q8 8 17 8q8 0 18 -8l138 -132q7 -9 7 -13q0 -7 -8 -15l-134 -134q-7 -7 -14 -7q-8 0 -15 7l-136 132q-8 8 -8 16z" />
<glyph unicode="&#x6b9;" horiz-adv-x="577" d="M-70 1v454h105q107 0 149 64q10 14 40 117q19 64 69 64q47 0 62 -64q11 -50 19.5 -79t13.5 -38q37 -64 142 -64h47v-454h-47q-144 0 -223 133q-78 -133 -237 -133h-140zM137 998q0 10 10 20l125 126q8 8 17 8q8 0 18 -8l138 -132q7 -9 7 -13q0 -7 -8 -15l-134 -134 q-7 -7 -14 -7q-8 0 -15 7l-136 132q-8 8 -8 16zM138 -254q0 10 10 20l125 126q8 8 17 8q8 0 18 -8l138 -132q7 -9 7 -13q0 -7 -8 -15l-134 -134q-7 -7 -14 -7q-8 0 -15 7l-136 132q-8 8 -8 16z" />
<glyph unicode="&#x6b9;" horiz-adv-x="1400" d="M123 -60q0 115 47 271q55 184 125 184q17 0 28.5 -4.5t18.5 -17t10 -33.5t3 -54q0 -9 -4 -31t-8.5 -47.5t-8 -49t-3.5 -34.5q0 -196 397 -196q119 0 223 27q157 40 157 126q0 72 -201 234l156 304q9 17 16 17q6 0 23 -17q158 -164 244 -164h54v-454h-26q-53 0 -82 44 q0 -550 -606 -550q-275 0 -419 113t-144 332zM508 747q0 10 10 20l125 126q8 8 17 8q8 0 18 -8l138 -132q7 -9 7 -13q0 -7 -8 -15l-134 -134q-7 -7 -14 -7q-8 0 -15 7l-136 132q-8 8 -8 16zM526 -759q0 10 10 20l125 126q8 8 17 8q8 0 18 -8l138 -132q7 -9 7 -13 q0 -7 -8 -15l-134 -134q-7 -7 -14 -7q-8 0 -15 7l-136 132q-8 8 -8 16z" />
<glyph unicode="&#x6bc;" horiz-adv-x="603" d="M-17 1v454h291q59 0 59 33q0 16 -17 39q-63 81 -160 167q-8 6 -8 16q0 7 8 20l186 270q15 22 22 22q8 0 25 -20q156 -192 156 -476q0 -279 -79 -392q-91 -133 -340 -133h-143zM6 1164q0 10 10 20l125 126q8 8 17 8q8 0 18 -8l138 -132q7 -9 7 -13q0 -7 -8 -15l-134 -134 q-7 -7 -14 -7q-8 0 -15 7l-136 132q-8 8 -8 16zM116 -126q0 62 32 143q40 99 97 99q33 0 65 -14t57.5 -38.5t41 -57.5t15.5 -70q0 -89 -43.5 -142t-119.5 -53q-31 0 -57.5 10t-46 28t-30.5 42t-11 53zM189 -68q0 -59 88 -59q74 0 74 36q0 16 -11.5 33t-28.5 30t-36.5 21.5 t-35.5 8.5q-50 0 -50 -70z" />
<glyph unicode="&#x6bc;" horiz-adv-x="577" d="M-70 1v454h105q107 0 149 64q10 14 40 117q19 64 69 64q47 0 62 -64q11 -50 19.5 -79t13.5 -38q37 -64 142 -64h47v-454h-47q-144 0 -223 133q-78 -133 -237 -133h-140zM-11 -130q0 62 32 143q40 99 97 99q33 0 65 -14t57.5 -38.5t41 -57.5t15.5 -70q0 -89 -43.5 -142 t-119.5 -53q-31 0 -57.5 10t-46 28t-30.5 42t-11 53zM62 -72q0 -59 88 -59q74 0 74 36q0 16 -11.5 33t-28.5 30t-36.5 21.5t-35.5 8.5q-50 0 -50 -70zM115 958q0 10 10 20l125 126q8 8 17 8q8 0 18 -8l138 -132q7 -9 7 -13q0 -7 -8 -15l-134 -134q-7 -7 -14 -7q-8 0 -15 7 l-136 132q-8 8 -8 16z" />
<glyph unicode="&#x6bc;" horiz-adv-x="1400" d="M123 -60q0 115 47 271q55 184 125 184q17 0 28.5 -4.5t18.5 -17t10 -33.5t3 -54q0 -9 -4 -31t-8.5 -47.5t-8 -49t-3.5 -34.5q0 -196 397 -196q119 0 223 27q157 40 157 126q0 72 -201 234l156 304q9 17 16 17q6 0 23 -17q158 -164 244 -164h54v-454h-26q-53 0 -82 44 q0 -550 -606 -550q-275 0 -419 113t-144 332zM549 751q0 10 10 20l125 126q8 8 17 8q8 0 18 -8l138 -132q7 -9 7 -13q0 -7 -8 -15l-134 -134q-7 -7 -14 -7q-8 0 -15 7l-136 132q-8 8 -8 16zM585 -630q0 62 32 143q40 99 97 99q33 0 65 -14t57.5 -38.5t41 -57.5t15.5 -70 q0 -89 -43.5 -142t-119.5 -53q-31 0 -57.5 10t-46 28t-30.5 42t-11 53zM658 -572q0 -59 88 -59q74 0 74 36q0 16 -11.5 33t-28.5 30t-36.5 21.5t-35.5 8.5q-50 0 -50 -70z" />
<glyph unicode="&#x6bd;" horiz-adv-x="1400" d="M123 -60q0 115 47 271q55 184 125 184q17 0 28.5 -4.5t18.5 -17t10 -33.5t3 -54q0 -9 -4 -31t-8.5 -47.5t-8 -49t-3.5 -34.5q0 -196 397 -196q119 0 223 27q157 40 157 126q0 72 -201 234l156 304q9 17 16 17q6 0 23 -17q158 -164 244 -164h54v-454h-26q-53 0 -82 44 q0 -550 -606 -550q-275 0 -419 113t-144 332zM382 696q0 6 6 12l118 118q7 5 13 5q5 0 12 -5l115 -115l116 115q5 5 11 5q5 0 13 -5l119 -117q6 -6 6 -13t-8 -15l-110 -112q-8 -8 -14 -10q-7 2 -15 10l-118 112l-109 -112q-7 -7 -14 -7q-8 0 -15 7l-121 116q-5 7 -5 11z M510 924q0 6 6 12l117 118q7 6 13 6t12 -6l119 -117q5 -7 5 -11q0 -8 -9 -17l-108 -111q-8 -8 -14 -8q-8 0 -16 8l-120 115q-5 4 -5 11z" />
<glyph unicode="&#x6bf;" horiz-adv-x="1240" d="M-70 1v454h269q307 0 457 56l-199 83q-104 43 -151 43q-46 0 -106 -42q-59 -42 -76 -42q-57 0 -57 66q0 72 96 206q120 166 264 166q100 0 252 -95q98 -62 166.5 -99.5t108.5 -51.5q34 -12 90 -27t136 -32q31 -7 31 -25q0 -11 -11 -38l-114 -269h-20q-149 0 -237 -42 q-61 -29 -177 -122q-57 -46 -102.5 -77t-80.5 -47q-144 -65 -316 -65h-223zM332 -234q0 8 8 16l111 113q7 7 14 7q5 0 14 -7l118 -113l109 113q7 7 14 7q6 0 15 -7l121 -117q5 -7 5 -11q0 -6 -6 -12l-118 -117q-6 -6 -12 -6t-12 6l-116 114l-116 -114q-6 -6 -12 -6t-12 6 l-119 116q-6 6 -6 12zM352 1251q0 10 10 20l125 126q8 8 17 8q8 0 18 -8l138 -132q7 -9 7 -13q0 -7 -8 -15l-134 -134q-7 -7 -14 -7q-8 0 -15 7l-136 132q-8 8 -8 16zM461 -462q0 8 9 17l108 111q7 7 14 7q6 0 15 -7l121 -116q6 -6 6 -11q0 -6 -6 -12l-118 -117 q-6 -6 -12 -6t-12 6l-120 117q-5 4 -5 11z" />
<glyph unicode="&#x6bf;" horiz-adv-x="1244" d="M-70 1v454h213q289 0 508 104q-260 78 -328 78q-63 0 -116 -53t-87 -53q-57 0 -57 82q0 89 77 226q99 175 241 175q76 0 302 -77q228 -77 357 -77h115q36 0 36 -15q0 -7 -8 -34l-97 -306h-186q47 -50 189 -50h155v-454h-166q-269 0 -352 308q-108 -144 -292 -229 q-174 -79 -364 -79h-140zM380 -201q0 8 8 16l111 113q7 7 14 7q5 0 14 -7l118 -113l109 113q7 7 14 7q6 0 15 -7l121 -117q5 -7 5 -11q0 -6 -6 -12l-118 -117q-6 -6 -12 -6t-12 6l-116 114l-116 -114q-6 -6 -12 -6t-12 6l-119 116q-6 6 -6 12zM472 1271q0 10 10 20l125 126 q8 8 17 8q8 0 18 -8l138 -132q7 -9 7 -13q0 -7 -8 -15l-134 -134q-7 -7 -14 -7q-8 0 -15 7l-136 132q-8 8 -8 16zM509 -429q0 8 9 17l108 111q7 7 14 7q6 0 15 -7l121 -116q6 -6 6 -11q0 -6 -6 -12l-118 -117q-6 -6 -12 -6t-12 6l-120 117q-5 4 -5 11z" />
<glyph unicode="&#x6bf;" horiz-adv-x="1353" d="M122 31q0 215 200 364q130 96 401 190q-118 11 -188 16.5t-93 5.5q-83 0 -148 -61t-79 -61q-54 0 -54 91q0 88 77 225q101 179 248 179q95 0 295 -42q202 -41 304 -41h188q44 0 44 -22q0 -13 -11 -46l-99 -284h-102q27 -90 186 -90h62v-454h-58q-69 0 -126 29.5t-97.5 81 t-63 122.5t-22.5 155q0 80 19 159q-210 -52 -317 -138q-146 -119 -146 -326q0 -247 228 -329q117 -42 373 -42q133 0 133 -61q0 -33 -37.5 -58.5t-97 -43.5t-133.5 -27t-147 -9q-173 0 -310 34.5t-232 100.5t-146 162.5t-51 219.5zM589 138q0 7 7 13l89 92q6 5 12 5 q4 0 11 -5l95 -92l88 92q6 5 11 5t12 -5l98 -95q4 -6 4 -9q0 -5 -5 -10l-95 -94q-5 -5 -10 -5q-4 0 -9 5l-94 92l-94 -92q-4 -5 -9 -5t-10 5l-96 94q-5 5 -5 9zM621 1237q0 10 10 20l125 126q8 8 17 8q8 0 18 -8l138 -132q7 -9 7 -13q0 -7 -8 -15l-134 -134q-7 -7 -14 -7 q-8 0 -15 7l-136 132q-8 8 -8 16zM693 -46q0 7 8 14l87 90q5 5 11 5q5 0 12 -5l98 -94q5 -5 5 -9q0 -5 -5 -10l-95 -94q-5 -5 -10 -5t-10 5l-97 94q-4 4 -4 9z" />
<glyph unicode="&#x6c4;" horiz-adv-x="949" d="M80 -453q0 37 36 54q65 31 142.5 74.5t168.5 100.5q246 154 250 215q-203 0 -264 24q-134 53 -134 244q0 175 58 327q79 211 236 211q218 0 286 -342h90v-454h-79q-25 -333 -178 -498q-23 -24 -60 -24h-469q-83 0 -83 68zM244 -648q0 62 32 143q40 99 97 99q33 0 65 -14 t57.5 -38.5t41 -57.5t15.5 -70q0 -89 -43.5 -142t-119.5 -53q-31 0 -57.5 10t-46 28t-30.5 42t-11 53zM317 -590q0 -59 88 -59q74 0 74 36q0 16 -11.5 33t-28.5 30t-36.5 21.5t-35.5 8.5q-50 0 -50 -70zM448 389q0 -38 113 -38q103 0 103 19q0 15 -13 31t-32 28.5 t-40.5 20.5t-38.5 8q-92 0 -92 -69z" />
<glyph unicode="&#x6ca;" horiz-adv-x="949" d="M80 -453q0 37 36 54q65 31 142.5 74.5t168.5 100.5q246 154 250 215q-203 0 -264 24q-134 53 -134 244q0 175 58 327q79 211 236 211q218 0 286 -342h90v-454h-79q-25 -333 -178 -498q-23 -24 -60 -24h-469q-83 0 -83 68zM284 1027q0 9 10 19l109 111q8 8 16 8q6 0 16 -8 l111 -107l106 107q7 7 15 7t16 -7l121 -117q7 -7 7 -12q0 -7 -8 -13l-119 -117q-7 -7 -13 -7q-7 0 -13 7l-112 110l-110 -110q-7 -7 -13 -7q-7 0 -13 7l-119 116q-7 6 -7 13zM448 389q0 -38 113 -38q103 0 103 19q0 15 -13 31t-32 28.5t-40.5 20.5t-38.5 8q-92 0 -92 -69z " />
<glyph unicode="&#x6cd;" horiz-adv-x="1745" d="M64 209l32 141l330 72q12 5 24 6q2 0 3.5 0.5t4.5 0.5v-1q72 -4 72 -89q0 -12 -3 -37t-6.5 -53t-6.5 -54q-3 -25 -3 -38q0 -284 492 -284q83 0 164.5 3.5t146 11t104.5 18.5t40 25q0 10 -25 15.5t-61.5 8t-78.5 3.5h-74q-149 0 -206 19q-97 31 -97 130q0 205 294 292 q189 56 455 56h95v-454h-32q-32 0 -72 48q-53 62 -108 89q-96 48 -263 48q-36 0 -71 -4t-62.5 -10.5t-44.5 -15.5t-17 -18q0 -24 113 -24q182 0 251 -20q137 -41 137 -178q0 -429 -696 -429q-158 0 -275 28.5t-194 88.5t-115 154t-38 225q0 135 56 286q5 15 11 28z" />
<glyph unicode="&#x6ce;" horiz-adv-x="603" d="M-17 1v454h291q59 0 59 33q0 16 -17 39q-63 81 -160 167q-8 6 -8 16q0 7 8 20l186 270q15 22 22 22q8 0 25 -20q156 -192 156 -476q0 -279 -79 -392q-91 -133 -340 -133h-143zM0 1389l132 -8q10 -12 20.5 -27t21.5 -39t22 -58.5t23 -85.5q3 19 9 46.5t15 57t21 59 t28 53.5l132 10q-13 -13 -30.5 -32t-38.5 -54t-44.5 -91.5t-47.5 -143.5l-87 -3q-10 47 -28 93.5t-41 88.5t-50.5 76.5t-56.5 57.5zM16 -301q0 9 10 19l109 111q8 8 16 8q6 0 16 -8l111 -107l106 107q7 7 15 7t16 -7l121 -117q7 -7 7 -12q0 -7 -8 -13l-119 -117 q-7 -7 -13 -7q-7 0 -13 7l-112 110l-110 -110q-7 -7 -13 -7q-7 0 -13 7l-119 116q-7 6 -7 13z" />
<glyph unicode="&#x6ce;" horiz-adv-x="577" d="M-70 1v454h105q107 0 149 64q10 14 40 117q19 64 69 64q47 0 62 -64q11 -50 19.5 -79t13.5 -38q37 -64 142 -64h47v-454h-47q-144 0 -223 133q-78 -133 -237 -133h-140zM-13 -411q0 9 10 19l109 111q8 8 16 8q6 0 16 -8l111 -107l106 107q7 7 15 7t16 -7l121 -117 q7 -7 7 -12q0 -7 -8 -13l-119 -117q-7 -7 -13 -7q-7 0 -13 7l-112 110l-110 -110q-7 -7 -13 -7q-7 0 -13 7l-119 116q-7 6 -7 13zM54 1200l132 -8q10 -12 20.5 -27t21.5 -39t22 -58.5t23 -85.5q3 19 9 46.5t15 57t21 59t28 53.5l132 10q-13 -13 -30.5 -32t-38.5 -54 t-44.5 -91.5t-47.5 -143.5l-87 -3q-10 47 -28 93.5t-41 88.5t-50.5 76.5t-56.5 57.5z" />
<glyph unicode="&#x6ce;" horiz-adv-x="1608" d="M121 -17q0 135 56 286q58 159 122 159q79 0 79 -89q0 -12 -3 -37t-6.5 -53t-6.5 -53.5t-3 -38.5q0 -284 492 -284q83 0 164.5 3.5t146 11t104.5 18.5t40 25q0 10 -25 15.5t-61.5 8t-78 3t-74.5 0.5q-149 0 -206 19q-97 31 -97 130q0 205 294 292q189 56 455 56h95v-454 h-32q-32 0 -72 48q-53 62 -108 89q-96 48 -263 48q-36 0 -71 -4t-62.5 -10.5t-44.5 -15.5t-17 -18q0 -24 113 -24q182 0 251 -20q137 -41 137 -178q0 -429 -696 -429q-158 0 -275 28.5t-194 88.5t-115 154t-38 225zM457 879l132 -8q10 -12 20.5 -27t21.5 -39t22 -58.5 t23 -85.5q3 19 9 46.5t15 57t21 59t28 53.5l132 10q-13 -13 -30.5 -32t-38.5 -54t-44.5 -91.5t-47.5 -143.5l-87 -3q-10 47 -28 93.5t-41 88.5t-50.5 76.5t-56.5 57.5z" />
<glyph unicode="&#x6cf;" horiz-adv-x="949" d="M80 -453q0 37 36 54q65 31 142.5 74.5t168.5 100.5q246 154 250 215q-203 0 -264 24q-134 53 -134 244q0 175 58 327q79 211 236 211q218 0 286 -342h90v-454h-79q-25 -333 -178 -498q-23 -24 -60 -24h-469q-83 0 -83 68zM356 1081q0 10 10 20l125 126q8 8 17 8 q8 0 18 -8l138 -132q7 -9 7 -13q0 -7 -8 -15l-134 -134q-7 -7 -14 -7q-8 0 -15 7l-136 132q-8 8 -8 16zM448 389q0 -38 113 -38q103 0 103 19q0 15 -13 31t-32 28.5t-40.5 20.5t-38.5 8q-92 0 -92 -69z" />
<glyph unicode="&#x6d1;" horiz-adv-x="1608" d="M121 -17q0 135 56 286q58 159 122 159q79 0 79 -89q0 -12 -3 -37t-6.5 -53t-6.5 -53.5t-3 -38.5q0 -284 492 -284q83 0 164.5 3.5t146 11t104.5 18.5t40 25q0 10 -25 15.5t-61.5 8t-78 3t-74.5 0.5q-149 0 -206 19q-97 31 -97 130q0 205 294 292q189 56 455 56h95v-454 h-32q-32 0 -72 48q-53 62 -108 89q-96 48 -263 48q-36 0 -71 -4t-62.5 -10.5t-44.5 -15.5t-17 -18q0 -24 113 -24q182 0 251 -20q137 -41 137 -178q0 -429 -696 -429q-158 0 -275 28.5t-194 88.5t-115 154t-38 225zM436 -832q0 8 8 16l111 113q7 7 14 7q5 0 14 -7l118 -113 l109 113q7 7 14 7q6 0 15 -7l121 -117q5 -7 5 -11q0 -6 -6 -12l-118 -117q-6 -6 -12 -6t-12 6l-116 114l-116 -114q-6 -6 -12 -6t-12 6l-119 116q-6 6 -6 12zM565 -1060q0 8 9 17l108 111q7 7 14 7q6 0 15 -7l121 -116q6 -6 6 -11q0 -6 -6 -12l-118 -117q-6 -6 -12 -6t-12 6 l-120 117q-5 4 -5 11z" />
<glyph unicode="&#x6fa;" horiz-adv-x="1071" d="M-70 -1v451h116q69 0 98 56q8 25 15 49t14 49q25 63 65 63q47 0 62 -56l29 -105q29 -56 106 -56q58 0 78 57q4 17 9 43.5t14 61.5q13 57 66 57q46 0 60 -60l26 -111q28 -60 105 -60q93 0 93 67q0 19 -2.5 33.5t-8 31t-15 37.5t-22.5 52l129 142q9 10 17 10t14 -13 q53 -133 53 -269q0 -174 -53 -324q-73 -205 -216 -205q-120 0 -199 132q-58 -130 -162 -130q-146 0 -195 133q-61 -136 -178 -136h-118zM306 1034q0 6 6 12l118 118q7 5 13 5q5 0 12 -5l115 -115l116 115q5 5 11 5q5 0 13 -5l119 -117q6 -6 6 -13t-8 -15l-110 -112 q-8 -8 -14 -10q-7 2 -15 10l-118 112l-109 -112q-7 -7 -14 -7q-8 0 -15 7l-121 116q-5 7 -5 11zM407 -415q0 10 10 20l125 126q8 8 17 8q8 0 18 -8l138 -132q7 -9 7 -13q0 -7 -8 -15l-134 -134q-7 -7 -14 -7q-8 0 -15 7l-136 132q-8 8 -8 16zM434 1262q0 6 6 12l117 118 q7 6 13 6t12 -6l119 -117q5 -7 5 -11q0 -8 -9 -17l-108 -111q-8 -8 -14 -8q-8 0 -16 8l-120 115q-5 4 -5 11z" />
<glyph unicode="&#x6fa;" horiz-adv-x="1168" d="M-70 -1v451h116q75 0 105 61q9 33 17.5 64t19 55.5t25 39.5t36.5 15q50 0 66 -61q2 -7 8.5 -34.5t19.5 -78.5q24 -61 92 -61q27 0 42.5 9t26 29t18.5 53t21 80q16 60 66 60q23 0 35.5 -9.5t20.5 -29.5t14.5 -52.5t16.5 -77.5q21 -59 79 -59q59 0 80 58q4 18 9.5 45 t14.5 64q13 58 68 58q46 0 62 -58q1 -4 8 -31t20 -78q25 -58 89 -58h42v-451h-43q-99 0 -189 130q-96 -130 -175 -130q-24 0 -49.5 10.5t-49 29t-43 43t-31.5 51.5q-92 -134 -167 -134q-113 0 -178 134q-90 -137 -195 -137h-118zM322 1019q0 6 6 12l118 118q7 5 13 5 q5 0 12 -5l115 -115l116 115q5 5 11 5q5 0 13 -5l119 -117q6 -6 6 -13t-8 -15l-110 -112q-8 -8 -14 -10q-7 2 -15 10l-118 112l-109 -112q-7 -7 -14 -7q-8 0 -15 7l-121 116q-5 7 -5 11zM450 -396q0 10 10 20l125 126q8 8 17 8q8 0 18 -8l138 -132q7 -9 7 -13q0 -7 -8 -15 l-134 -134q-7 -7 -14 -7q-8 0 -15 7l-136 132q-8 8 -8 16zM450 1247q0 6 6 12l117 118q7 6 13 6t12 -6l119 -117q5 -7 5 -11q0 -8 -9 -17l-108 -111q-8 -8 -14 -8q-8 0 -16 8l-120 115q-5 4 -5 11z" />
<glyph unicode="&#x6fa;" horiz-adv-x="2097" d="M123 -60q0 112 49 271q55 184 123 184q17 0 28.5 -4.5t18.5 -16.5t10 -33t3 -55q0 -9 -4 -31t-8.5 -47t-8 -48t-3.5 -35q0 -197 397 -197q119 0 223 27q157 40 157 126q0 72 -201 234l156 304q9 17 16 17q6 0 23 -17q98 -98 143 -129q66 -45 135 -45q65 0 89 55l10 42.5 t16 60.5q15 55 67 55q45 0 56 -56q1 -12 18 -103q20 -56 83 -56q59 0 82 56q6 30 12.5 58.5t15.5 51t22.5 36.5t33.5 14t32 -13.5t20.5 -35t14 -49t11.5 -55.5q23 -53 87 -53h47v-451h-48q-102 0 -188 110q-24 -29 -38 -46t-19 -21q-41 -35 -92 -35q-115 0 -170 96 q-52 -94 -122 -94q-79 0 -128 33q0 -550 -606 -550q-275 0 -419 113t-144 332zM1263 983q0 6 6 12l118 118q7 5 13 5q5 0 12 -5l115 -115l116 115q5 5 11 5q5 0 13 -5l119 -117q6 -6 6 -13t-8 -15l-110 -112q-8 -8 -14 -10q-7 2 -15 10l-118 112l-109 -112q-7 -7 -14 -7 q-8 0 -15 7l-121 116q-5 7 -5 11zM1391 1211q0 6 6 12l117 118q7 6 13 6t12 -6l119 -117q5 -7 5 -11q0 -8 -9 -17l-108 -111q-8 -8 -14 -8q-8 0 -16 8l-120 115q-5 4 -5 11zM1397 -387q0 10 10 20l125 126q8 8 17 8q8 0 18 -8l138 -132q7 -9 7 -13q0 -7 -8 -15l-134 -134 q-7 -7 -14 -7q-8 0 -15 7l-136 132q-8 8 -8 16z" />
<glyph unicode="&#x6fb;" horiz-adv-x="1279" d="M-70 1v454h114q64 0 96 60q6 10 39 113q19 60 52 60q44 0 71 -112q25 -112 80 -112q8 0 107 120q60 72 113.5 127t104.5 95q151 120 284 120q58 0 107 -22t83.5 -59t54 -86t19.5 -103q0 -217 -151 -410q-188 -240 -500 -240q-50 0 -104 9.5t-103.5 26t-90 39t-62.5 48.5 q-81 -128 -188 -128h-126zM249 -309q0 10 10 20l125 126q8 8 17 8q8 0 18 -8l138 -132q7 -9 7 -13q0 -7 -8 -15l-134 -134q-7 -7 -14 -7q-8 0 -15 7l-136 132q-8 8 -8 16zM280 1098q0 10 10 20l125 126q8 8 17 8q8 0 18 -8l138 -132q7 -9 7 -13q0 -7 -8 -15l-134 -134 q-7 -7 -14 -7q-8 0 -15 7l-136 132q-8 8 -8 16zM514 415q23 -1 45.5 -1.5t44.5 -0.5q81 0 152.5 8t124.5 21.5t84 30.5t31 35q0 115 -137 115q-134 0 -345 -208z" />
<glyph unicode="&#x6fb;" horiz-adv-x="1323" d="M-70 1v454h114q64 0 96 60q6 10 39 113q19 60 52 60q44 0 71 -111q26 -110 80 -110q8 0 107 119q120 144 218 221q152 119 287 119q56 0 103.5 -21t82.5 -58t55 -87.5t20 -108.5q0 -97 -39 -173q12 -23 53 -23h54v-454h-60q-147 0 -229 175q-128 -170 -430 -170 q-50 0 -104 9.5t-103.5 26t-90 39t-62.5 48.5q-81 -128 -188 -128h-126zM321 1104q0 10 10 20l125 126q8 8 17 8q8 0 18 -8l138 -132q7 -9 7 -13q0 -7 -8 -15l-134 -134q-7 -7 -14 -7q-8 0 -15 7l-136 132q-8 8 -8 16zM353 -324q0 10 10 20l125 126q8 8 17 8q8 0 18 -8 l138 -132q7 -9 7 -13q0 -7 -8 -15l-134 -134q-7 -7 -14 -7q-8 0 -15 7l-136 132q-8 8 -8 16zM514 415q23 -1 45.5 -1.5t44.5 -0.5q81 0 152.5 8t124.5 21.5t84 30.5t31 35q0 115 -137 115q-134 0 -345 -208z" />
<glyph unicode="&#x6fb;" horiz-adv-x="2219" d="M123 -60q0 115 47 271q55 184 125 184q17 0 28.5 -4.5t18.5 -17t10 -33.5t3 -54q0 -9 -4 -31t-8.5 -46.5t-8 -47.5t-3.5 -35q0 -198 397 -198q119 0 223 27q157 40 157 126q0 72 -201 234l156 304q9 17 17 17t22 -17q138 -162 166 -162q7 0 107 121q116 140 222 223 q154 121 290 121q55 0 101.5 -21t80.5 -57t53.5 -84.5t19.5 -102.5q0 -117 -28 -179q8 -23 52 -23h53v-454h-49q-151 0 -238 173q-143 -173 -426 -173q-112 0 -214 44q0 -550 -606 -550q-275 0 -419 113t-144 332zM1209 1070q0 10 10 20l125 126q8 8 17 8q8 0 18 -8 l138 -132q7 -9 7 -13q0 -7 -8 -15l-134 -134q-7 -7 -14 -7q-8 0 -15 7l-136 132q-8 8 -8 16zM1337 -428q0 10 10 20l125 126q8 8 17 8q8 0 18 -8l138 -132q7 -9 7 -13q0 -7 -8 -15l-134 -134q-7 -7 -14 -7q-8 0 -15 7l-136 132q-8 8 -8 16zM1404 409q22 -1 43 -1.5t42 -0.5 q82 0 154.5 8t126.5 21.5t85 30.5t31 36q0 115 -137 115q-133 0 -345 -209z" />
<glyph unicode="&#x6fc;" horiz-adv-x="901" d="M-70 1v454h112q56 0 78 22q-70 67 -70 116q0 175 132 321q135 150 309 150q56 0 109.5 -21t98.5 -58.5t79.5 -88t53.5 -108.5q7 -21 7 -44q0 -60 -34 -60q-12 0 -45.5 6.5t-73.5 14.5t-79.5 14.5t-63.5 6.5q-48 0 -99 -8.5t-92 -23.5t-67.5 -35.5t-26.5 -45.5 q0 -22 19.5 -39.5t55 -30t85 -19.5t109.5 -7q66 0 143.5 7.5t168.5 23.5q5 1 10 1.5t10 0.5q21 0 21 -13q0 -6 -8 -40l-48 -189q-24 -96 -41 -143.5t-23 -48.5q-28 -5 -76 -6.5t-115 -1.5q-48 0 -81.5 2t-55.5 6q-55 -47 -190 -83q-123 -32 -200 -32h-112zM307 1357 q0 10 10 20l125 126q8 8 17 8q8 0 18 -8l138 -132q7 -9 7 -13q0 -7 -8 -15l-134 -134q-7 -7 -14 -7q-8 0 -15 7l-136 132q-8 8 -8 16zM315 -237q0 10 10 20l125 126q8 8 17 8q8 0 18 -8l138 -132q7 -9 7 -13q0 -7 -8 -15l-134 -134q-7 -7 -14 -7q-8 0 -15 7l-136 132 q-8 8 -8 16z" />
<glyph unicode="&#x6fc;" horiz-adv-x="821" d="M-70 1v454h173q144 0 169 23q-27 35 -48 59t-42 42t-44.5 32.5t-54.5 31.5q-16 9 -16 48q0 92 95 175q108 93 269 93q62 0 118.5 -17t99 -48t68 -73.5t25.5 -94.5q0 -66 -64 -145q-17 -20 -102 -108q33 -18 153 -18h92v-454h-64q-275 0 -339 159q-25 -43 -53.5 -73.5 t-64 -49.5t-80.5 -27.5t-103 -8.5h-187zM245 -389q0 10 10 20l125 126q8 8 17 8q8 0 18 -8l138 -132q7 -9 7 -13q0 -7 -8 -15l-134 -134q-7 -7 -14 -7q-8 0 -15 7l-136 132q-8 8 -8 16zM260 1312q0 10 10 20l125 126q8 8 17 8q8 0 18 -8l138 -132q7 -9 7 -13q0 -7 -8 -15 l-134 -134q-7 -7 -14 -7q-8 0 -15 7l-136 132q-8 8 -8 16z" />
<glyph unicode="&#x6fc;" horiz-adv-x="1261" d="M122 -51q0 187 114 313q92 103 243 160q37 14 93.5 32t132.5 45q-73 96 -132 127q-7 4 -70 22q-20 6 -20 43q0 94 94 175q108 93 270 93q62 0 118.5 -17t99 -48t68 -73.5t25.5 -94.5q0 -69 -67 -140q-5 -5 -31.5 -31t-74.5 -74q50 -26 140 -26h136v-454h-88 q-71 0 -132.5 27t-109.5 75.5t-80.5 116t-44.5 147.5q-54 -25 -99.5 -65t-78.5 -89t-51.5 -104.5t-18.5 -111.5q0 -78 31.5 -139.5t90 -104t142.5 -65t189 -22.5q7 0 20.5 0.5t29 1t29.5 1t21 0.5q139 0 139 -65q0 -128 -468 -128q-660 0 -660 473zM665 1307q0 10 10 20 l125 126q8 8 17 8q8 0 18 -8l138 -132q7 -9 7 -13q0 -7 -8 -15l-134 -134q-7 -7 -14 -7q-8 0 -15 7l-136 132q-8 8 -8 16zM685 -87q0 10 10 20l125 126q8 8 17 8q8 0 18 -8l138 -132q7 -9 7 -13q0 -7 -8 -15l-134 -134q-7 -7 -14 -7q-8 0 -15 7l-136 132q-8 8 -8 16z" />
<glyph unicode="&#x671;" horiz-adv-x="616" arabic-form="final" d="M-81 1621q0 21 14 46t35 46.5t45.5 36t45.5 14.5q9 0 24 -4t31.5 -8.5t32 -8.5t24.5 -4q5 4 17 15t30 31q123 133 240 133q31 0 58 -8.5t47 -24.5t31.5 -37.5t11.5 -47.5q0 -48 -24.5 -86.5t-67 -66.5t-100.5 -43t-125 -15q-51 0 -130 25t-105 25q-20 0 -37.5 -7 t-31.5 -15.5t-23.5 -15.5t-12.5 -7q-30 0 -30 27zM121 1233q0 31 18 46l291 205q30 21 41 21q13 0 13 -24v-881q0 -146 129 -146h3v-452h-79q-195 0 -285 96t-90 296q0 163 -12 439q-14 290 -27 380q-1 5 -1.5 10t-0.5 10zM236 1718q29 -16 86 -16q24 0 50 5t48 13.5 t36.5 19.5t14.5 24q0 40 -73 40q-76 0 -162 -86z" />
<glyph unicode="&#x67b;" horiz-adv-x="1658" arabic-form="final" d="M123 420q0 101 29 209q34 130 92 130q62 0 68 -98q6 -128 59 -183q95 -98 376 -98q300 0 488 79q122 51 213 148q73 79 93 79q53 0 53 -66q0 -9 -5 -28.5t-12.5 -41.5t-15.5 -41.5t-13 -27.5q21 -26 76 -26h34v-454h-37q-164 0 -248 173q-241 -232 -719 -232 q-138 0 -238.5 28.5t-165.5 87.5t-96 149t-31 213zM557 -599q0 6 8 16l107 111l-107 106q-7 7 -7 15t7 16l117 121q7 7 12 7q7 0 13 -8l117 -119q7 -7 7 -13q0 -7 -7 -13l-110 -112l110 -110q7 -7 7 -13q0 -7 -7 -13l-116 -119q-6 -7 -13 -7q-9 0 -19 10l-111 109 q-8 8 -8 16z" />
<glyph unicode="&#x67b;" horiz-adv-x="603" arabic-form="initial" d="M-17 1v454h291q59 0 59 33q0 16 -17 39q-63 81 -160 167q-8 6 -8 16q0 7 8 20l186 270q15 22 22 22q8 0 25 -20q156 -192 156 -476q0 -279 -79 -392q-91 -133 -340 -133h-143zM128 -528q0 6 8 16l107 111l-107 106q-7 7 -7 15t7 16l117 121q7 7 12 7q7 0 13 -8l117 -119 q7 -7 7 -13q0 -7 -7 -13l-110 -112l110 -110q7 -7 7 -13q0 -7 -7 -13l-116 -119q-6 -7 -13 -7q-9 0 -19 10l-111 109q-8 8 -8 16z" />
<glyph unicode="&#x67b;" horiz-adv-x="577" arabic-form="medial" d="M-70 1v454h105q107 0 149 64q10 14 40 117q19 64 69 64q47 0 62 -64q11 -50 19.5 -79t13.5 -38q37 -64 142 -64h47v-454h-47q-144 0 -223 133q-78 -133 -237 -133h-140zM140 -534q0 6 8 16l107 111l-107 106q-7 7 -7 15t7 16l117 121q7 7 12 7q7 0 13 -8l117 -119 q7 -7 7 -13q0 -7 -7 -13l-110 -112l110 -110q7 -7 7 -13q0 -7 -7 -13l-116 -119q-6 -7 -13 -7q-9 0 -19 10l-111 109q-8 8 -8 16z" />
<glyph unicode="&#x67e;" horiz-adv-x="1658" arabic-form="final" d="M123 420q0 101 29 209q34 130 92 130q62 0 68 -98q6 -128 59 -183q95 -98 376 -98q300 0 488 79q122 51 213 148q73 79 93 79q53 0 53 -66q0 -9 -5 -28.5t-12.5 -41.5t-15.5 -41.5t-13 -27.5q21 -26 76 -26h34v-454h-37q-164 0 -248 173q-241 -232 -719 -232 q-138 0 -238.5 28.5t-165.5 87.5t-96 149t-31 213zM512 -316q0 8 8 16l111 113q7 7 14 7q5 0 14 -7l118 -113l109 113q7 7 14 7q6 0 15 -7l121 -117q5 -7 5 -11q0 -6 -6 -12l-118 -117q-6 -6 -12 -6t-12 6l-116 114l-116 -114q-6 -6 -12 -6t-12 6l-119 116q-6 6 -6 12z M641 -544q0 8 9 17l108 111q7 7 14 7q6 0 15 -7l121 -116q6 -6 6 -11q0 -6 -6 -12l-118 -117q-6 -6 -12 -6t-12 6l-120 117q-5 4 -5 11z" />
<glyph unicode="&#x67e;" horiz-adv-x="603" arabic-form="initial" d="M-17 1v454h291q59 0 59 33q0 16 -17 39q-63 81 -160 167q-8 6 -8 16q0 7 8 20l186 270q15 22 22 22q8 0 25 -20q156 -192 156 -476q0 -279 -79 -392q-91 -133 -340 -133h-143zM36 -288q0 8 8 16l111 113q7 7 14 7q5 0 14 -7l118 -113l109 113q7 7 14 7q6 0 15 -7 l121 -117q5 -7 5 -11q0 -6 -6 -12l-118 -117q-6 -6 -12 -6t-12 6l-116 114l-116 -114q-6 -6 -12 -6t-12 6l-119 116q-6 6 -6 12zM165 -516q0 8 9 17l108 111q7 7 14 7q6 0 15 -7l121 -116q6 -6 6 -11q0 -6 -6 -12l-118 -117q-6 -6 -12 -6t-12 6l-120 117q-5 4 -5 11z" />
<glyph unicode="&#x67e;" horiz-adv-x="577" arabic-form="medial" d="M-70 1v454h105q107 0 149 64q10 14 40 117q19 64 69 64q47 0 62 -64q11 -50 19.5 -79t13.5 -38q37 -64 142 -64h47v-454h-47q-144 0 -223 133q-78 -133 -237 -133h-140zM13 -283q0 8 8 16l111 113q7 7 14 7q5 0 14 -7l118 -113l109 113q7 7 14 7q6 0 15 -7l121 -117 q5 -7 5 -11q0 -6 -6 -12l-118 -117q-6 -6 -12 -6t-12 6l-116 114l-116 -114q-6 -6 -12 -6t-12 6l-119 116q-6 6 -6 12zM142 -511q0 8 9 17l108 111q7 7 14 7q6 0 15 -7l121 -116q6 -6 6 -11q0 -6 -6 -12l-118 -117q-6 -6 -12 -6t-12 6l-120 117q-5 4 -5 11z" />
<glyph unicode="&#x680;" horiz-adv-x="1658" arabic-form="final" d="M123 420q0 101 29 209q34 130 92 130q62 0 68 -98q6 -128 59 -183q95 -98 376 -98q300 0 488 79q122 51 213 148q73 79 93 79q53 0 53 -66q0 -9 -5 -28.5t-12.5 -41.5t-15.5 -41.5t-13 -27.5q21 -26 76 -26h34v-454h-37q-164 0 -248 173q-241 -232 -719 -232 q-138 0 -238.5 28.5t-165.5 87.5t-96 149t-31 213zM515 -560q0 6 5 11l108 108q7 5 12 5t11 -5l106 -105l106 105q4 5 10 5q4 0 12 -5l109 -107q5 -5 5 -12q0 -6 -7 -14l-101 -102q-7 -7 -13 -9q-6 2 -13 9l-108 102l-100 -102q-7 -6 -13 -6q-7 0 -14 6l-110 106q-5 6 -5 10 zM627 -769q0 5 5 11l107 108q7 5 12 5q6 0 11 -5l109 -108q4 -6 4 -10q0 -7 -8 -15l-99 -102q-7 -7 -12 -7q-8 0 -15 7l-110 106q-4 3 -4 10zM632 -351q0 5 6 11l107 108q6 5 12 5q5 0 11 -5l108 -107q5 -7 5 -10q0 -8 -8 -16l-99 -102q-7 -7 -13 -7q-7 0 -15 7l-109 106 q-5 3 -5 10z" />
<glyph unicode="&#x680;" horiz-adv-x="603" arabic-form="initial" d="M-17 1v454h291q59 0 59 33q0 16 -17 39q-63 81 -160 167q-8 6 -8 16q0 7 8 20l186 270q15 22 22 22q8 0 25 -20q156 -192 156 -476q0 -279 -79 -392q-91 -133 -340 -133h-143zM40 -514q0 6 5 10l101 101q7 5 12 5q4 0 10 -5l99 -98l100 98q3 5 9 5q4 0 11 -5l103 -100 q4 -4 4 -11q0 -6 -6 -13l-95 -96q-7 -6 -12 -8q-6 2 -12 8l-102 96l-94 -96q-6 -5 -12 -5t-13 5l-103 100q-5 5 -5 9zM145 -710q0 5 5 10l100 102q7 4 12 4t10 -4l102 -102q4 -5 4 -9q0 -6 -8 -14l-92 -96q-7 -6 -12 -6q-7 0 -14 6l-103 100q-4 3 -4 9zM150 -318q0 4 6 10 l100 101q6 5 11 5t11 -5l101 -100q5 -7 5 -9q0 -8 -8 -15l-93 -96q-6 -6 -12 -6q-7 0 -14 6l-102 99q-5 3 -5 10z" />
<glyph unicode="&#x680;" horiz-adv-x="577" arabic-form="medial" d="M-70 1v454h105q107 0 149 64q10 14 40 117q19 64 69 64q47 0 62 -64q11 -50 19.5 -79t13.5 -38q37 -64 142 -64h47v-454h-47q-144 0 -223 133q-78 -133 -237 -133h-140zM50 -488q0 6 4 11l103 102q6 5 11 5t11 -5l100 -100l100 100q4 5 10 5q4 0 11 -5l104 -101 q4 -5 4 -12q0 -5 -6 -13l-96 -97q-7 -6 -12 -8q-6 2 -13 8l-102 97l-95 -97q-6 -5 -12 -5q-7 0 -13 5l-105 101q-4 5 -4 9zM156 -686q0 5 5 11l101 102q7 5 11 5q6 0 11 -5l103 -102q4 -6 4 -10q0 -6 -8 -14l-94 -96q-6 -7 -11 -7q-8 0 -14 7l-104 100q-4 3 -4 9zM161 -290 q0 5 5 10l102 103q5 4 11 4q5 0 10 -4l103 -102q4 -6 4 -9q0 -8 -7 -15l-94 -97q-7 -6 -12 -6q-7 0 -14 6l-104 101q-4 2 -4 9z" />
<glyph unicode="&#x67a;" horiz-adv-x="1658" arabic-form="final" d="M123 420q0 101 29 209q34 130 92 130q62 0 68 -98q6 -128 59 -183q95 -98 376 -98q300 0 488 79q122 51 213 148q73 79 93 79q53 0 53 -66q0 -9 -5 -28.5t-12.5 -41.5t-15.5 -41.5t-13 -27.5q21 -26 76 -26h34v-454h-37q-164 0 -248 173q-241 -232 -719 -232 q-138 0 -238.5 28.5t-165.5 87.5t-96 149t-31 213zM693 895q0 6 8 16l107 111l-107 106q-7 7 -7 15t7 16l117 121q7 7 12 7q7 0 13 -8l117 -119q7 -7 7 -13q0 -7 -7 -13l-110 -112l110 -110q7 -7 7 -13q0 -7 -7 -13l-116 -119q-6 -7 -13 -7q-9 0 -19 10l-111 109q-8 8 -8 16 z" />
<glyph unicode="&#x67a;" horiz-adv-x="603" arabic-form="initial" d="M-17 1v454h291q59 0 59 33q0 16 -17 39q-63 81 -160 167q-8 6 -8 16q0 7 8 20l186 270q15 22 22 22q8 0 25 -20q156 -192 156 -476q0 -279 -79 -392q-91 -133 -340 -133h-143zM26 1068q0 6 8 16l107 111l-107 106q-7 7 -7 15t7 16l117 121q7 7 12 7q7 0 13 -8l117 -119 q7 -7 7 -13q0 -7 -7 -13l-110 -112l110 -110q7 -7 7 -13q0 -7 -7 -13l-116 -119q-6 -7 -13 -7q-9 0 -19 10l-111 109q-8 8 -8 16z" />
<glyph unicode="&#x67a;" horiz-adv-x="577" arabic-form="medial" d="M-70 1v454h105q107 0 149 64q10 14 40 117q19 64 69 64q47 0 62 -64q11 -50 19.5 -79t13.5 -38q37 -64 142 -64h47v-454h-47q-144 0 -223 133q-78 -133 -237 -133h-140zM152 995q0 6 8 16l107 111l-107 106q-7 7 -7 15t7 16l117 121q7 7 12 7q7 0 13 -8l117 -119 q7 -7 7 -13q0 -7 -7 -13l-110 -112l110 -110q7 -7 7 -13q0 -7 -7 -13l-116 -119q-6 -7 -13 -7q-9 0 -19 10l-111 109q-8 8 -8 16z" />
<glyph unicode="&#x67f;" horiz-adv-x="1658" arabic-form="final" d="M123 420q0 101 29 209q34 130 92 130q62 0 68 -98q6 -128 59 -183q95 -98 376 -98q300 0 488 79q122 51 213 148q73 79 93 79q53 0 53 -66q0 -9 -5 -28.5t-12.5 -41.5t-15.5 -41.5t-13 -27.5q21 -26 76 -26h34v-454h-37q-164 0 -248 173q-241 -232 -719 -232 q-138 0 -238.5 28.5t-165.5 87.5t-96 149t-31 213zM597 1020q0 6 5 11l108 108q7 5 12 5t11 -5l106 -105l106 105q4 5 10 5q4 0 12 -5l109 -107q5 -5 5 -12q0 -6 -7 -14l-101 -102q-7 -7 -13 -9q-6 2 -13 9l-108 102l-100 -102q-7 -6 -13 -6q-7 0 -14 6l-110 106q-5 6 -5 10 zM709 811q0 5 5 11l107 108q7 5 12 5q6 0 11 -5l109 -108q4 -6 4 -10q0 -7 -8 -15l-99 -102q-7 -7 -12 -7q-8 0 -15 7l-110 106q-4 3 -4 10zM714 1229q0 5 6 11l107 108q6 5 12 5q5 0 11 -5l108 -107q5 -7 5 -10q0 -8 -8 -16l-99 -102q-7 -7 -13 -7q-7 0 -15 7l-109 106 q-5 3 -5 10z" />
<glyph unicode="&#x67f;" horiz-adv-x="603" arabic-form="initial" d="M-49 1261q0 5 4 10l97 96q6 5 11 5q4 0 9 -5l95 -94l95 94q4 5 9 5q4 0 11 -5l98 -96q4 -4 4 -10t-6 -13l-91 -91q-6 -7 -11 -8q-6 1 -12 8l-97 91l-89 -91q-7 -6 -12 -6q-6 0 -12 6l-99 95q-4 5 -4 9zM-17 1v454h291q59 0 59 33q0 16 -17 39q-63 81 -160 167q-8 6 -8 16 q0 7 8 20l186 270q15 22 22 22q8 0 25 -20q156 -192 156 -476q0 -279 -79 -392q-91 -133 -340 -133h-143zM51 1073q0 5 4 10l96 97q7 4 11 4q5 0 10 -4l98 -97q3 -5 3 -9q0 -6 -7 -13l-89 -92q-6 -6 -11 -6q-7 0 -13 6l-99 95q-3 3 -3 9zM55 1448q0 5 6 10l96 97q5 4 10 4 t10 -4l97 -96q4 -6 4 -9q0 -7 -7 -14l-88 -92q-7 -6 -12 -6q-6 0 -13 6l-98 95q-5 3 -5 9z" />
<glyph unicode="&#x67f;" horiz-adv-x="577" arabic-form="medial" d="M-70 1v454h105q107 0 149 64q10 14 40 117q19 64 69 64q47 0 62 -64q11 -50 19.5 -79t13.5 -38q37 -64 142 -64h47v-454h-47q-144 0 -223 133q-78 -133 -237 -133h-140zM65 1091q0 5 5 10l93 93q6 5 11 5q4 0 9 -5l92 -91l92 91q4 5 9 5q3 0 10 -5l95 -93q4 -4 4 -10 q0 -5 -6 -12l-87 -89q-7 -6 -12 -7q-5 1 -11 7l-94 89l-86 -89q-7 -5 -12 -5q-6 0 -12 5l-95 92q-5 6 -5 9zM162 910q0 4 5 9l93 94q6 4 10 4q5 0 10 -4l94 -94q4 -5 4 -9q0 -6 -7 -13l-86 -88q-6 -6 -11 -6q-7 0 -13 6l-95 92q-4 3 -4 9zM167 1272q0 5 5 10l93 94q5 4 10 4 t10 -4l94 -93q4 -6 4 -9q0 -7 -7 -14l-86 -88q-6 -6 -11 -6q-6 0 -13 6l-95 92q-4 2 -4 8z" />
<glyph unicode="&#x679;" horiz-adv-x="1658" arabic-form="final" d="M123 420q0 101 29 209q34 130 92 130q62 0 68 -98q6 -128 59 -183q95 -98 376 -98q300 0 488 79q122 51 213 148q73 79 93 79q53 0 53 -66q0 -9 -5 -28.5t-12.5 -41.5t-15.5 -41.5t-13 -27.5q21 -26 76 -26h34v-454h-37q-164 0 -248 173q-241 -232 -719 -232 q-138 0 -238.5 28.5t-165.5 87.5t-96 149t-31 213zM595 919q0 5 1.5 8.5t5.5 5.5t11.5 2.5t19.5 0.5h6t11.5 -0.5t25 -0.5t45.5 -1q0 86 -19 167q-7 30 -14.5 54.5t-16.5 43.5l82 72q11 9 15 9t10 -14l49 -108q5 -13 5 -16q0 -4 -6 -4q-8 0 -23 5q2 -17 2 -35 q0 -70 -28 -138q115 129 197 129q17 0 31 -6t24.5 -17.5t16 -26.5t5.5 -33q0 -39 -26 -86q-36 -65 -99 -100q-61 -34 -138 -34q-47 0 -96 28q-38 22 -70 57q-27 29 -27 38zM802 937q7 -1 14 -1h14q26 0 49 2.5t40 7t26.5 10t9.5 10.5q0 17 -12 27t-31 10q-44 0 -110 -66z " />
<glyph unicode="&#x679;" horiz-adv-x="603" arabic-form="initial" d="M-17 1v454h291q59 0 59 33q0 16 -17 39q-63 81 -160 167q-8 6 -8 16q0 7 8 20l186 270q15 22 22 22q8 0 25 -20q156 -192 156 -476q0 -279 -79 -392q-91 -133 -340 -133h-143zM2 1204q0 5 1.5 8.5t5.5 5.5t11.5 2.5t19.5 0.5h6t11.5 -0.5t25 -0.5t45.5 -1q0 86 -19 167 q-7 30 -14.5 54.5t-16.5 43.5l82 72q11 9 15 9t10 -14l49 -108q5 -13 5 -16q0 -4 -6 -4q-8 0 -23 5q2 -17 2 -35q0 -70 -28 -138q115 129 197 129q17 0 31 -6t24.5 -17.5t16 -26.5t5.5 -33q0 -39 -26 -86q-36 -65 -99 -100q-61 -34 -138 -34q-47 0 -96 28q-38 22 -70 57 q-27 29 -27 38zM209 1222q7 -1 14 -1h14q26 0 49 2.5t40 7t26.5 10t9.5 10.5q0 17 -12 27t-31 10q-44 0 -110 -66z" />
<glyph unicode="&#x679;" horiz-adv-x="577" arabic-form="medial" d="M-70 1v454h105q107 0 149 64q10 14 40 117q19 64 69 64q47 0 62 -64q11 -50 19.5 -79t13.5 -38q37 -64 142 -64h47v-454h-47q-144 0 -223 133q-78 -133 -237 -133h-140zM38 970q0 5 1.5 8.5t5.5 5.5t11.5 2.5t19.5 0.5h6t11.5 -0.5t25 -0.5t45.5 -1q0 86 -19 167 q-7 30 -14.5 54.5t-16.5 43.5l82 72q11 9 15 9t10 -14l49 -108q5 -13 5 -16q0 -4 -6 -4q-8 0 -23 5q2 -17 2 -35q0 -70 -28 -138q115 129 197 129q17 0 31 -6t24.5 -17.5t16 -26.5t5.5 -33q0 -39 -26 -86q-36 -65 -99 -100q-61 -34 -138 -34q-47 0 -96 28q-38 22 -70 57 q-27 29 -27 38zM245 988q7 -1 14 -1h14q26 0 49 2.5t40 7t26.5 10t9.5 10.5q0 17 -12 27t-31 10q-44 0 -110 -66z" />
<glyph unicode="&#x6a4;" horiz-adv-x="1671" arabic-form="final" d="M122 418q0 116 37 227q40 126 98 126q31 0 44 -26t13 -80q0 -117 58 -172q51 -48 150 -70.5t248 -22.5q228 0 347 27q-50 50 -50 163q0 126 92 260q106 154 249 154q116 0 179 -110q50 -88 50 -191q0 -155 -66 -248h100v-454h-50q-32 0 -69 11.5t-72.5 31t-68 45 t-55.5 54.5q-205 -181 -601 -181q-295 0 -440 80q-193 106 -193 376zM1092 1236q0 6 6 12l118 118q7 5 13 5q5 0 12 -5l115 -115l116 115q5 5 11 5q5 0 13 -5l119 -117q6 -6 6 -13t-8 -15l-110 -112q-8 -8 -14 -10q-7 2 -15 10l-118 112l-109 -112q-7 -7 -14 -7q-8 0 -15 7 l-121 116q-5 7 -5 11zM1220 1464q0 6 6 12l117 118q7 6 13 6t12 -6l119 -117q5 -7 5 -11q0 -8 -9 -17l-108 -111q-8 -8 -14 -8q-8 0 -16 8l-120 115q-5 4 -5 11zM1224 605q0 -14 14 -30.5t34 -30.5t41 -23.5t35 -9.5q19 0 41.5 8t42 21.5t32 30t12.5 33.5q0 16 -12 30.5 t-30 26t-39.5 18.5t-40.5 7q-21 0 -44 -6.5t-42 -17.5t-31.5 -26t-12.5 -31z" />
<glyph unicode="&#x6a4;" horiz-adv-x="734" arabic-form="initial" d="M-70 1v454h165q118 0 195.5 4t123.5 13t64 22.5t18 33.5q0 27 -28 27q-10 0 -18 -4q-35 -15 -157 -15q-257 0 -257 207q0 138 69 275q82 162 207 162q184 0 283 -224q75 -170 75 -368q0 -587 -573 -587h-167zM53 1406q0 6 6 12l118 118q7 5 13 5q5 0 12 -5l115 -115 l116 115q5 5 11 5q5 0 13 -5l119 -117q6 -6 6 -13t-8 -15l-110 -112q-8 -8 -14 -10q-7 2 -15 10l-118 112l-109 -112q-7 -7 -14 -7q-8 0 -15 7l-121 116q-5 7 -5 11zM181 1634q0 6 6 12l117 118q7 6 13 6t12 -6l119 -117q5 -7 5 -11q0 -8 -9 -17l-108 -111q-8 -8 -14 -8 q-8 0 -16 8l-120 115q-5 4 -5 11zM221 828q0 -37 111 -37q103 0 105 20q0 15 -13 30.5t-32 27.5t-40.5 20t-38.5 8q-19 0 -35.5 -5.5t-29 -14.5t-20 -21.5t-7.5 -27.5z" />
<glyph unicode="&#x6a4;" horiz-adv-x="686" arabic-form="medial" d="M-70 1v454h182q-32 35 -32 135q0 126 93 260q106 154 249 154q51 0 93 -24t72 -65t46.5 -96t16.5 -116q0 -164 -66 -248h102v-454h-52q-33 0 -71.5 12t-76 31.5t-70.5 44.5t-55 51q-164 -139 -322 -139h-109zM106 1237q0 6 6 12l118 118q7 5 13 5q5 0 12 -5l115 -115 l116 115q5 5 11 5q5 0 13 -5l119 -117q6 -6 6 -13t-8 -15l-110 -112q-8 -8 -14 -10q-7 2 -15 10l-118 112l-109 -112q-7 -7 -14 -7q-8 0 -15 7l-121 116q-5 7 -5 11zM234 1465q0 6 6 12l117 118q7 6 13 6t12 -6l119 -117q5 -7 5 -11q0 -8 -9 -17l-108 -111q-8 -8 -14 -8 q-8 0 -16 8l-120 115q-5 4 -5 11zM237 605q0 -14 14 -30.5t34 -30.5t41 -23.5t35 -9.5q19 0 41.5 8t41.5 21t32 29.5t13 34.5q0 16 -12 30.5t-30 26t-39.5 18.5t-40.5 7q-23 0 -46.5 -7t-42 -18t-30 -25.5t-11.5 -30.5z" />
<glyph unicode="&#x6a6;" horiz-adv-x="1671" arabic-form="final" d="M122 418q0 116 37 227q40 126 98 126q31 0 44 -26t13 -80q0 -117 58 -172q51 -48 150 -70.5t248 -22.5q228 0 347 27q-50 50 -50 163q0 126 92 260q106 154 249 154q116 0 179 -110q50 -88 50 -191q0 -155 -66 -248h100v-454h-50q-32 0 -69 11.5t-72.5 31t-68 45 t-55.5 54.5q-205 -181 -601 -181q-295 0 -440 80q-193 106 -193 376zM1077 1449q0 6 5 11l108 108q7 5 12 5t11 -5l106 -105l106 105q4 5 10 5q4 0 12 -5l109 -107q5 -5 5 -12q0 -6 -7 -14l-101 -102q-7 -7 -13 -9q-6 2 -13 9l-108 102l-100 -102q-7 -6 -13 -6q-7 0 -14 6 l-110 106q-5 6 -5 10zM1189 1240q0 5 5 11l107 108q7 5 12 5q6 0 11 -5l109 -108q4 -6 4 -10q0 -7 -8 -15l-99 -102q-7 -7 -12 -7q-8 0 -15 7l-110 106q-4 3 -4 10zM1194 1658q0 5 6 11l107 108q6 5 12 5q5 0 11 -5l108 -107q5 -7 5 -10q0 -8 -8 -16l-99 -102q-7 -7 -13 -7 q-7 0 -15 7l-109 106q-5 3 -5 10zM1224 605q0 -14 14 -30.5t34 -30.5t41 -23.5t35 -9.5q19 0 41.5 8t42 21.5t32 30t12.5 33.5q0 16 -12 30.5t-30 26t-39.5 18.5t-40.5 7q-21 0 -44 -6.5t-42 -17.5t-31.5 -26t-12.5 -31z" />
<glyph unicode="&#x6a6;" horiz-adv-x="734" arabic-form="initial" d="M-70 1v454h165q118 0 195.5 4t123.5 13t64 22.5t18 33.5q0 27 -28 27q-10 0 -18 -4q-35 -15 -157 -15q-257 0 -257 207q0 138 69 275q82 162 207 162q184 0 283 -224q75 -170 75 -368q0 -587 -573 -587h-167zM60 1591q0 6 5 11l108 108q7 5 12 5t11 -5l106 -105l106 105 q4 5 10 5q4 0 12 -5l109 -107q5 -5 5 -12q0 -6 -7 -14l-101 -102q-7 -7 -13 -9q-6 2 -13 9l-108 102l-100 -102q-7 -6 -13 -6q-7 0 -14 6l-110 106q-5 6 -5 10zM172 1382q0 5 5 11l107 108q7 5 12 5q6 0 11 -5l109 -108q4 -6 4 -10q0 -7 -8 -15l-99 -102q-7 -7 -12 -7 q-8 0 -15 7l-110 106q-4 3 -4 10zM177 1800q0 5 6 11l107 108q6 5 12 5q5 0 11 -5l108 -107q5 -7 5 -10q0 -8 -8 -16l-99 -102q-7 -7 -13 -7q-7 0 -15 7l-109 106q-5 3 -5 10zM221 828q0 -37 111 -37q103 0 105 20q0 15 -13 30.5t-32 27.5t-40.5 20t-38.5 8 q-19 0 -35.5 -5.5t-29 -14.5t-20 -21.5t-7.5 -27.5z" />
<glyph unicode="&#x6a6;" horiz-adv-x="686" arabic-form="medial" d="M-70 1v454h182q-32 35 -32 135q0 126 93 260q106 154 249 154q51 0 93 -24t72 -65t46.5 -96t16.5 -116q0 -164 -66 -248h102v-454h-52q-33 0 -71.5 12t-76 31.5t-70.5 44.5t-55 51q-164 -139 -322 -139h-109zM138 1416q0 6 5 11l108 108q7 5 12 5t11 -5l106 -105l106 105 q4 5 10 5q4 0 12 -5l109 -107q5 -5 5 -12q0 -6 -7 -14l-101 -102q-7 -7 -13 -9q-6 2 -13 9l-108 102l-100 -102q-7 -6 -13 -6q-7 0 -14 6l-110 106q-5 6 -5 10zM237 605q0 -14 14 -30.5t34 -30.5t41 -23.5t35 -9.5q19 0 41.5 8t41.5 21t32 29.5t13 34.5q0 16 -12 30.5 t-30 26t-39.5 18.5t-40.5 7q-23 0 -46.5 -7t-42 -18t-30 -25.5t-11.5 -30.5zM250 1207q0 5 5 11l107 108q7 5 12 5q6 0 11 -5l109 -108q4 -6 4 -10q0 -7 -8 -15l-99 -102q-7 -7 -12 -7q-8 0 -15 7l-110 106q-4 3 -4 10zM255 1625q0 5 6 11l107 108q6 5 12 5q5 0 11 -5 l108 -107q5 -7 5 -10q0 -8 -8 -16l-99 -102q-7 -7 -13 -7q-7 0 -15 7l-109 106q-5 3 -5 10z" />
<glyph unicode="&#x684;" horiz-adv-x="1353" arabic-form="final" d="M122 31q0 215 200 364q130 96 401 190q-118 11 -188 16.5t-93 5.5q-83 0 -148 -61t-79 -61q-54 0 -54 91q0 88 77 225q101 179 248 179q95 0 295 -42q202 -41 304 -41h188q44 0 44 -22q0 -13 -11 -46l-99 -284h-102q27 -90 186 -90h62v-454h-58q-69 0 -126 29.5t-97.5 81 t-63 122.5t-22.5 155q0 80 19 159q-210 -52 -317 -138q-146 -119 -146 -326q0 -247 228 -329q117 -42 373 -42q133 0 133 -61q0 -33 -37.5 -58.5t-97 -43.5t-133.5 -27t-147 -9q-173 0 -310 34.5t-232 100.5t-146 162.5t-51 219.5zM701 -74q0 6 8 16l107 111l-107 106 q-7 7 -7 15t7 16l117 121q7 7 12 7q7 0 13 -8l117 -119q7 -7 7 -13q0 -7 -7 -13l-110 -112l110 -110q7 -7 7 -13q0 -7 -7 -13l-116 -119q-6 -7 -13 -7q-9 0 -19 10l-111 109q-8 8 -8 16z" />
<glyph unicode="&#x684;" horiz-adv-x="1240" arabic-form="initial" d="M-70 1v454h269q307 0 457 56l-199 83q-104 43 -151 43q-46 0 -106 -42q-59 -42 -76 -42q-57 0 -57 66q0 72 96 206q120 166 264 166q100 0 252 -95q98 -62 166.5 -99.5t108.5 -51.5q34 -12 90 -27t136 -32q31 -7 31 -25q0 -11 -11 -38l-114 -269h-20q-149 0 -237 -42 q-61 -29 -177 -122q-57 -46 -102.5 -77t-80.5 -47q-144 -65 -316 -65h-223zM563 -455q0 6 8 16l107 111l-107 106q-7 7 -7 15t7 16l117 121q7 7 12 7q7 0 13 -8l117 -119q7 -7 7 -13q0 -7 -7 -13l-110 -112l110 -110q7 -7 7 -13q0 -7 -7 -13l-116 -119q-6 -7 -13 -7 q-9 0 -19 10l-111 109q-8 8 -8 16z" />
<glyph unicode="&#x684;" horiz-adv-x="1244" arabic-form="medial" d="M-70 1v454h213q289 0 508 104q-260 78 -328 78q-63 0 -116 -53t-87 -53q-57 0 -57 82q0 89 77 226q99 175 241 175q76 0 302 -77q228 -77 357 -77h115q36 0 36 -15q0 -7 -8 -34l-97 -306h-186q47 -50 189 -50h155v-454h-166q-269 0 -352 308q-108 -144 -292 -229 q-174 -79 -364 -79h-140zM470 -466q0 6 8 16l107 111l-107 106q-7 7 -7 15t7 16l117 121q7 7 12 7q7 0 13 -8l117 -119q7 -7 7 -13q0 -7 -7 -13l-110 -112l110 -110q7 -7 7 -13q0 -7 -7 -13l-116 -119q-6 -7 -13 -7q-9 0 -19 10l-111 109q-8 8 -8 16z" />
<glyph unicode="&#x683;" horiz-adv-x="1353" arabic-form="final" d="M122 31q0 215 200 364q130 96 401 190q-118 11 -188 16.5t-93 5.5q-83 0 -148 -61t-79 -61q-54 0 -54 91q0 88 77 225q101 179 248 179q95 0 295 -42q202 -41 304 -41h188q44 0 44 -22q0 -13 -11 -46l-99 -284h-102q27 -90 186 -90h62v-454h-58q-69 0 -126 29.5t-97.5 81 t-63 122.5t-22.5 155q0 80 19 159q-210 -52 -317 -138q-146 -119 -146 -326q0 -247 228 -329q117 -42 373 -42q133 0 133 -61q0 -33 -37.5 -58.5t-97 -43.5t-133.5 -27t-147 -9q-173 0 -310 34.5t-232 100.5t-146 162.5t-51 219.5zM606 57q0 7 8 15l85 86q6 7 13 7 q4 0 12 -7l87 -83l83 83q5 6 11 6q7 0 13 -6l95 -91q5 -5 5 -9q0 -6 -6 -10l-93 -92q-6 -5 -10 -5q-6 0 -11 5l-87 86l-86 -86q-6 -5 -10 -5q-6 0 -10 5l-94 91q-5 4 -5 10z" />
<glyph unicode="&#x683;" horiz-adv-x="1240" arabic-form="initial" d="M-70 1v454h269q307 0 457 56l-199 83q-104 43 -151 43q-46 0 -106 -42q-59 -42 -76 -42q-57 0 -57 66q0 72 96 206q120 166 264 166q100 0 252 -95q98 -62 166.5 -99.5t108.5 -51.5q34 -12 90 -27t136 -32q31 -7 31 -25q0 -11 -11 -38l-114 -269h-20q-149 0 -237 -42 q-61 -29 -177 -122q-57 -46 -102.5 -77t-80.5 -47q-144 -65 -316 -65h-223zM423 -179q0 9 10 19l109 111q8 8 16 8q6 0 16 -8l111 -107l106 107q7 7 15 7t16 -7l121 -117q7 -7 7 -12q0 -7 -8 -13l-119 -117q-7 -7 -13 -7q-7 0 -13 7l-112 110l-110 -110q-7 -7 -13 -7 q-7 0 -13 7l-119 116q-7 6 -7 13z" />
<glyph unicode="&#x683;" horiz-adv-x="1244" arabic-form="medial" d="M-70 1v454h213q289 0 508 104q-260 78 -328 78q-63 0 -116 -53t-87 -53q-57 0 -57 82q0 89 77 226q99 175 241 175q76 0 302 -77q228 -77 357 -77h115q36 0 36 -15q0 -7 -8 -34l-97 -306h-186q47 -50 189 -50h155v-454h-166q-269 0 -352 308q-108 -144 -292 -229 q-174 -79 -364 -79h-140zM296 -256q0 9 10 19l109 111q8 8 16 8q6 0 16 -8l111 -107l106 107q7 7 15 7t16 -7l121 -117q7 -7 7 -12q0 -7 -8 -13l-119 -117q-7 -7 -13 -7q-7 0 -13 7l-112 110l-110 -110q-7 -7 -13 -7q-7 0 -13 7l-119 116q-7 6 -7 13z" />
<glyph unicode="&#x686;" horiz-adv-x="1353" arabic-form="final" d="M122 31q0 215 200 364q130 96 401 190q-118 11 -188 16.5t-93 5.5q-83 0 -148 -61t-79 -61q-54 0 -54 91q0 88 77 225q101 179 248 179q95 0 295 -42q202 -41 304 -41h188q44 0 44 -22q0 -13 -11 -46l-99 -284h-102q27 -90 186 -90h62v-454h-58q-69 0 -126 29.5t-97.5 81 t-63 122.5t-22.5 155q0 80 19 159q-210 -52 -317 -138q-146 -119 -146 -326q0 -247 228 -329q117 -42 373 -42q133 0 133 -61q0 -33 -37.5 -58.5t-97 -43.5t-133.5 -27t-147 -9q-173 0 -310 34.5t-232 100.5t-146 162.5t-51 219.5zM601 128q0 6 6 12l83 84q5 6 10 6 q4 0 10 -6l89 -84l81 84q5 6 10 6t12 -6l90 -87q4 -5 4 -8q0 -5 -5 -9l-88 -88q-4 -4 -9 -4q-4 0 -9 4l-86 85l-87 -85q-5 -4 -9 -4q-5 0 -9 4l-89 87q-4 4 -4 9zM697 -42q0 6 7 12l80 83q6 5 11 5q4 0 11 -5l90 -86q5 -5 5 -9t-5 -9l-88 -87q-4 -4 -9 -4q-4 0 -9 4l-89 87 q-4 3 -4 9z" />
<glyph unicode="&#x686;" horiz-adv-x="1240" arabic-form="initial" d="M-70 1v454h269q307 0 457 56l-199 83q-104 43 -151 43q-46 0 -106 -42q-59 -42 -76 -42q-57 0 -57 66q0 72 96 206q120 166 264 166q100 0 252 -95q98 -62 166.5 -99.5t108.5 -51.5q34 -12 90 -27t136 -32q31 -7 31 -25q0 -11 -11 -38l-114 -269h-20q-149 0 -237 -42 q-61 -29 -177 -122q-57 -46 -102.5 -77t-80.5 -47q-144 -65 -316 -65h-223zM464 -202q0 8 8 16l111 113q7 7 14 7q5 0 14 -7l118 -113l109 113q7 7 14 7q6 0 15 -7l121 -117q5 -7 5 -11q0 -6 -6 -12l-118 -117q-6 -6 -12 -6t-12 6l-116 114l-116 -114q-6 -6 -12 -6t-12 6 l-119 116q-6 6 -6 12zM593 -430q0 8 9 17l108 111q7 7 14 7q6 0 15 -7l121 -116q6 -6 6 -11q0 -6 -6 -12l-118 -117q-6 -6 -12 -6t-12 6l-120 117q-5 4 -5 11z" />
<glyph unicode="&#x686;" horiz-adv-x="1244" arabic-form="medial" d="M-70 1v454h213q289 0 508 104q-260 78 -328 78q-63 0 -116 -53t-87 -53q-57 0 -57 82q0 89 77 226q99 175 241 175q76 0 302 -77q228 -77 357 -77h115q36 0 36 -15q0 -7 -8 -34l-97 -306h-186q47 -50 189 -50h155v-454h-166q-269 0 -352 308q-108 -144 -292 -229 q-174 -79 -364 -79h-140zM350 -251q0 8 8 16l111 113q7 7 14 7q5 0 14 -7l118 -113l109 113q7 7 14 7q6 0 15 -7l121 -117q5 -7 5 -11q0 -6 -6 -12l-118 -117q-6 -6 -12 -6t-12 6l-116 114l-116 -114q-6 -6 -12 -6t-12 6l-119 116q-6 6 -6 12zM479 -479q0 8 9 17l108 111 q7 7 14 7q6 0 15 -7l121 -116q6 -6 6 -11q0 -6 -6 -12l-118 -117q-6 -6 -12 -6t-12 6l-120 117q-5 4 -5 11z" />
<glyph unicode="&#x687;" horiz-adv-x="1353" arabic-form="final" d="M122 31q0 215 200 364q130 96 401 190q-118 11 -188 16.5t-93 5.5q-83 0 -148 -61t-79 -61q-54 0 -54 91q0 88 77 225q101 179 248 179q95 0 295 -42q202 -41 304 -41h188q44 0 44 -22q0 -13 -11 -46l-99 -284h-102q27 -90 186 -90h62v-454h-58q-69 0 -126 29.5t-97.5 81 t-63 122.5t-22.5 155q0 80 19 159q-210 -52 -317 -138q-146 -119 -146 -326q0 -247 228 -329q117 -42 373 -42q133 0 133 -61q0 -33 -37.5 -58.5t-97 -43.5t-133.5 -27t-147 -9q-173 0 -310 34.5t-232 100.5t-146 162.5t-51 219.5zM621 50q0 5 4 8l80 81q5 4 9 4t8 -4 l79 -78l79 78q3 4 8 4q3 0 9 -4l81 -80q4 -4 4 -9q0 -4 -6 -10l-75 -76q-5 -5 -10 -7q-4 2 -9 7l-81 76l-74 -76q-5 -5 -10 -5t-10 5l-82 79q-4 4 -4 7zM704 -106q0 4 4 9l80 80q5 4 9 4t8 -4l81 -80q3 -5 3 -8q0 -5 -6 -11l-74 -76q-5 -5 -8 -5q-6 0 -12 5l-82 79 q-3 2 -3 7zM708 206q0 4 5 8l79 81q5 4 9 4t8 -4l81 -80q4 -5 4 -7q0 -6 -6 -12l-74 -76q-5 -6 -10 -6t-11 6l-81 79q-4 2 -4 7z" />
<glyph unicode="&#x687;" horiz-adv-x="1240" arabic-form="initial" d="M-70 1v454h269q307 0 457 56l-199 83q-104 43 -151 43q-46 0 -106 -42q-59 -42 -76 -42q-57 0 -57 66q0 72 96 206q120 166 264 166q100 0 252 -95q98 -62 166.5 -99.5t108.5 -51.5q34 -12 90 -27t136 -32q31 -7 31 -25q0 -11 -11 -38l-114 -269h-20q-149 0 -237 -42 q-61 -29 -177 -122q-57 -46 -102.5 -77t-80.5 -47q-144 -65 -316 -65h-223zM510 -291q0 6 5 11l108 108q7 5 12 5t11 -5l106 -105l106 105q4 5 10 5q4 0 12 -5l109 -107q5 -5 5 -12q0 -6 -7 -14l-101 -102q-7 -7 -13 -9q-6 2 -13 9l-108 102l-100 -102q-7 -6 -13 -6 q-7 0 -14 6l-110 106q-5 6 -5 10zM622 -500q0 5 5 11l107 108q7 5 12 5q6 0 11 -5l109 -108q4 -6 4 -10q0 -7 -8 -15l-99 -102q-7 -7 -12 -7q-8 0 -15 7l-110 106q-4 3 -4 10zM627 -82q0 5 6 11l107 108q6 5 12 5q5 0 11 -5l108 -107q5 -7 5 -10q0 -8 -8 -16l-99 -102 q-7 -7 -13 -7q-7 0 -15 7l-109 106q-5 3 -5 10z" />
<glyph unicode="&#x687;" horiz-adv-x="1244" arabic-form="medial" d="M-70 1v454h213q289 0 508 104q-260 78 -328 78q-63 0 -116 -53t-87 -53q-57 0 -57 82q0 89 77 226q99 175 241 175q76 0 302 -77q228 -77 357 -77h115q36 0 36 -15q0 -7 -8 -34l-97 -306h-186q47 -50 189 -50h155v-454h-166q-269 0 -352 308q-108 -144 -292 -229 q-174 -79 -364 -79h-140zM374 -325q0 6 5 11l108 108q7 5 12 5t11 -5l106 -105l106 105q4 5 10 5q4 0 12 -5l109 -107q5 -5 5 -12q0 -6 -7 -14l-101 -102q-7 -7 -13 -9q-6 2 -13 9l-108 102l-100 -102q-7 -6 -13 -6q-7 0 -14 6l-110 106q-5 6 -5 10zM486 -534q0 5 5 11 l107 108q7 5 12 5q6 0 11 -5l109 -108q4 -6 4 -10q0 -7 -8 -15l-99 -102q-7 -7 -12 -7q-8 0 -15 7l-110 106q-4 3 -4 10zM491 -116q0 5 6 11l107 108q6 5 12 5q5 0 11 -5l108 -107q5 -7 5 -10q0 -8 -8 -16l-99 -102q-7 -7 -13 -7q-7 0 -15 7l-109 106q-5 3 -5 10z" />
<glyph unicode="&#x68d;" horiz-adv-x="1182" arabic-form="final" d="M123 326q0 77 22 164q30 121 83 121q56 0 72 -55q28 -92 36 -102q40 -55 146 -55q39 0 79.5 7t73 18t53.5 26t21 32q0 5 -3 13l-166 397l222 224q16 16 24 16q7 0 16 -24l188 -517q49 -136 146 -136h46v-454h-58q-191 0 -313 248q-43 -76 -82 -129t-76 -82 q-89 -71 -224 -71q-306 0 -306 359zM201 -310q0 9 10 19l109 111q8 8 16 8q6 0 16 -8l111 -107l106 107q7 7 15 7t16 -7l121 -117q7 -7 7 -12q0 -7 -8 -13l-119 -117q-7 -7 -13 -7q-7 0 -13 7l-112 110l-110 -110q-7 -7 -13 -7q-7 0 -13 7l-119 116q-7 6 -7 13z" />
<glyph unicode="&#x68c;" horiz-adv-x="1182" arabic-form="final" d="M123 326q0 77 22 164q30 121 83 121q56 0 72 -55q28 -92 36 -102q40 -55 146 -55q39 0 79.5 7t73 18t53.5 26t21 32q0 5 -3 13l-166 397l222 224q16 16 24 16q7 0 16 -24l188 -517q49 -136 146 -136h46v-454h-58q-191 0 -313 248q-43 -76 -82 -129t-76 -82 q-89 -71 -224 -71q-306 0 -306 359zM325 1361q0 9 10 19l109 111q8 8 16 8q6 0 16 -8l111 -107l106 107q7 7 15 7t16 -7l121 -117q7 -7 7 -12q0 -7 -8 -13l-119 -117q-7 -7 -13 -7q-7 0 -13 7l-112 110l-110 -110q-7 -7 -13 -7q-7 0 -13 7l-119 116q-7 6 -7 13z" />
<glyph unicode="&#x68e;" horiz-adv-x="1182" arabic-form="final" d="M123 326q0 77 22 164q30 121 83 121q56 0 72 -55q28 -92 36 -102q40 -55 146 -55q39 0 79.5 7t73 18t53.5 26t21 32q0 5 -3 13l-166 397l222 224q16 16 24 16q7 0 16 -24l188 -517q49 -136 146 -136h46v-454h-58q-191 0 -313 248q-43 -76 -82 -129t-76 -82 q-89 -71 -224 -71q-306 0 -306 359zM307 1344q0 6 6 12l118 118q7 5 13 5q5 0 12 -5l115 -115l116 115q5 5 11 5q5 0 13 -5l119 -117q6 -6 6 -13t-8 -15l-110 -112q-8 -8 -14 -10q-7 2 -15 10l-118 112l-109 -112q-7 -7 -14 -7q-8 0 -15 7l-121 116q-5 7 -5 11zM435 1572 q0 6 6 12l117 118q7 6 13 6t12 -6l119 -117q5 -7 5 -11q0 -8 -9 -17l-108 -111q-8 -8 -14 -8q-8 0 -16 8l-120 115q-5 4 -5 11z" />
<glyph unicode="&#x688;" horiz-adv-x="1182" arabic-form="final" d="M123 326q0 77 22 164q30 121 83 121q56 0 72 -55q28 -92 36 -102q40 -55 146 -55q39 0 79.5 7t73 18t53.5 26t21 32q0 5 -3 13l-166 397l222 224q16 16 24 16q7 0 16 -24l188 -517q49 -136 146 -136h46v-454h-58q-191 0 -313 248q-43 -76 -82 -129t-76 -82 q-89 -71 -224 -71q-306 0 -306 359zM405 1324q0 5 1.5 8.5t5.5 5.5t11.5 2.5t19.5 0.5h6t11.5 -0.5t25 -0.5t45.5 -1q0 86 -19 167q-7 30 -14.5 54.5t-16.5 43.5l82 72q11 9 15 9t10 -14l49 -108q5 -13 5 -16q0 -4 -6 -4q-8 0 -23 5q2 -17 2 -35q0 -70 -28 -138 q115 129 197 129q17 0 31 -6t24.5 -17.5t16 -26.5t5.5 -33q0 -39 -26 -86q-36 -65 -99 -100q-61 -34 -138 -34q-47 0 -96 28q-38 22 -70 57q-27 29 -27 38zM612 1342q7 -1 14 -1h14q26 0 49 2.5t40 7t26.5 10t9.5 10.5q0 17 -12 27t-31 10q-44 0 -110 -66z" />
<glyph unicode="&#x698;" horiz-adv-x="974" arabic-form="final" d="M85 -453q0 37 35 54q64 31 145 79.5t181 116.5q252 172 252 245q0 60 -225 270l160 330q8 17 19 17q6 0 18 -10q48 -51 81 -82.5t51 -45.5q84 -66 166 -66h6v-455h-25q-41 0 -74 24v-88q0 -111 -61 -246q-53 -119 -116 -187q-23 -24 -61 -24h-469q-83 0 -83 68zM291 925 q0 6 6 12l118 118q7 5 13 5q5 0 12 -5l115 -115l116 115q5 5 11 5q5 0 13 -5l119 -117q6 -6 6 -13t-8 -15l-110 -112q-8 -8 -14 -10q-7 2 -15 10l-118 112l-109 -112q-7 -7 -14 -7q-8 0 -15 7l-121 116q-5 7 -5 11zM419 1153q0 6 6 12l117 118q7 6 13 6t12 -6l119 -117 q5 -7 5 -11q0 -8 -9 -17l-108 -111q-8 -8 -14 -8q-8 0 -16 8l-120 115q-5 4 -5 11z" />
<glyph unicode="&#x691;" horiz-adv-x="974" arabic-form="final" d="M85 -453q0 37 35 54q64 31 145 79.5t181 116.5q252 172 252 245q0 60 -225 270l160 330q8 17 19 17q6 0 18 -10q48 -51 81 -82.5t51 -45.5q84 -66 166 -66h6v-455h-25q-41 0 -74 24v-88q0 -111 -61 -246q-53 -119 -116 -187q-23 -24 -61 -24h-469q-83 0 -83 68zM365 882 q0 5 1.5 8.5t5.5 5.5t11.5 2.5t19.5 0.5h6t11.5 -0.5t25 -0.5t45.5 -1q0 86 -19 167q-7 30 -14.5 54.5t-16.5 43.5l82 72q11 9 15 9t10 -14l49 -108q5 -13 5 -16q0 -4 -6 -4q-8 0 -23 5q2 -17 2 -35q0 -70 -28 -138q115 129 197 129q17 0 31 -6t24.5 -17.5t16 -26.5t5.5 -33 q0 -39 -26 -86q-36 -65 -99 -100q-61 -34 -138 -34q-47 0 -96 28q-38 22 -70 57q-27 29 -27 38zM572 900q7 -1 14 -1h14q26 0 49 2.5t40 7t26.5 10t9.5 10.5q0 17 -12 27t-31 10q-44 0 -110 -66z" />
<glyph unicode="&#x6a9;" horiz-adv-x="1906" arabic-form="final" d="M121 428q0 61 11 124t30 114t43.5 83.5t51.5 32.5q30 0 43 -27t13 -81q0 -114 58 -166q98 -88 399 -88q104 0 193 3t153.5 10t101 18t36.5 26q0 10 -24 40.5t-67.5 78.5t-105.5 113t-138 144l55 322q3 23 22 29l774 256q7 3 12 3q4 0 4 -10v-12l-33 -330q-1 -11 -2.5 -17 t-4 -9.5t-7 -5t-11.5 -4.5l-455 -155q140 -161 215 -246t87 -96q129 -123 257 -123h74v-454h-47q-94 0 -209 74q-96 62 -168 151q-77 -156 -261 -215q-123 -40 -339 -40q-63 0 -128 1q-295 0 -440 80q-193 106 -193 376z" />
<glyph unicode="&#x6a9;" horiz-adv-x="924" arabic-form="initial" d="M-70 1v454h134q209 0 278 19q31 7 31 34q0 15 -15 38t-38.5 50t-52.5 55t-57 54q-59 52 -177 159l56 322q3 21 21 28l775 256q7 3 13 3q3 0 3 -13v-10l-35 -329q-1 -12 -2 -18.5t-4 -9.5t-7 -4.5t-11 -3.5l-412 -128q102 -121 143 -207q58 -120 58 -272 q0 -113 -31 -201.5t-92 -149.5t-150 -93.5t-206 -32.5h-222z" />
<glyph unicode="&#x6a9;" horiz-adv-x="1004" arabic-form="medial" d="M-70 1v454h170q113 0 178 8.5t65 30.5q0 7 -14 25.5t-50.5 59t-100 106.5t-161.5 168l55 322q3 23 22 29l774 256q9 3 13 3t4 -10v-12l-34 -330q-1 -11 -2.5 -17t-4 -9.5t-7 -5t-11.5 -4.5l-454 -155q136 -157 211 -242t91 -100q130 -123 256 -123h74v-454h-47 q-94 0 -209 74q-96 62 -168 151q-66 -135 -198 -186q-101 -39 -287 -39h-165z" />
<glyph unicode="&#x6af;" horiz-adv-x="1906" arabic-form="final" d="M121 428q0 61 11 124t30 114t43.5 83.5t51.5 32.5q30 0 43 -27t13 -81q0 -114 58 -166q98 -88 399 -88q104 0 193 3t153.5 10t101 18t36.5 26q0 11 -16 31q-37 48 -95 117.5t-139 162.5l47 251q0 5 8 15l750 240q9 3 12 3t3 -13v-10l-20 -273q-1 -9 -1.5 -15t-2.5 -10 t-6.5 -6.5t-13.5 -5.5l-419 -128l251 -296q91 -85 220 -85h74v-454h-47q-94 0 -209 74q-96 62 -168 151q-77 -156 -261 -215q-123 -40 -339 -40q-63 0 -128 1q-295 0 -440 80q-193 106 -193 376zM1061 1116l19 108l760 234l-10 -93z" />
<glyph unicode="&#x6af;" horiz-adv-x="894" arabic-form="initial" d="M-70 1v454h134q48 0 93 1.5t79.5 6t55.5 13.5t21 25q0 22 -72 94t-204 193l47 251q0 5 8 15l749 240q5 2 7.5 2h4.5q5 0 5 -13v-9l-21 -273q-1 -12 -2.5 -18.5t-4 -10t-7 -5t-11.5 -3.5l-394 -108q153 -182 153 -379q0 -111 -30 -199.5t-86.5 -150t-138 -94t-184.5 -32.5 h-202zM94 1116l19 108l761 234l-11 -93z" />
<glyph unicode="&#x6af;" horiz-adv-x="949" arabic-form="medial" d="M-70 1v454h146q101 0 161 10t60 32q0 12 -16 31q-43 51 -100.5 116t-132.5 144l46 251q0 6 9 15l749 240q9 3 12 3t3 -13v-10l-20 -273q-1 -9 -1.5 -15t-2.5 -10t-6.5 -6.5t-13.5 -5.5l-419 -128l251 -296q91 -85 220 -85h74v-454h-47q-94 0 -209 74q-96 62 -168 151 q-111 -225 -406 -225h-189zM104 1116l19 108l760 234l-10 -93z" />
<glyph unicode="&#x6b3;" horiz-adv-x="1906" arabic-form="final" d="M121 428q0 61 11 124t30 114t43.5 83.5t51.5 32.5q30 0 43 -27t13 -81q0 -114 58 -166q98 -88 399 -88q104 0 193 3t153.5 10t101 18t36.5 26q0 11 -16 31q-37 48 -95 117.5t-139 162.5l47 251q0 5 8 15l750 240q9 3 12 3t3 -13v-10l-20 -273q-1 -9 -1.5 -15t-2.5 -10 t-6.5 -6.5t-13.5 -5.5l-419 -128l251 -296q91 -85 220 -85h74v-454h-47q-94 0 -209 74q-96 62 -168 151q-77 -156 -261 -215q-123 -40 -339 -40q-63 0 -128 1q-295 0 -440 80q-193 106 -193 376zM633 -545q0 6 8 16l107 111l-107 106q-7 7 -7 15t7 16l117 121q7 7 12 7 q7 0 13 -8l117 -119q7 -7 7 -13q0 -7 -7 -13l-110 -112l110 -110q7 -7 7 -13q0 -7 -7 -13l-116 -119q-6 -7 -13 -7q-9 0 -19 10l-111 109q-8 8 -8 16zM1061 1116l19 108l760 234l-10 -93z" />
<glyph unicode="&#x6b3;" horiz-adv-x="894" arabic-form="initial" d="M-70 1v454h134q48 0 93 1.5t79.5 6t55.5 13.5t21 25q0 22 -72 94t-204 193l47 251q0 5 8 15l749 240q5 2 7.5 2h4.5q5 0 5 -13v-9l-21 -273q-1 -12 -2.5 -18.5t-4 -10t-7 -5t-11.5 -3.5l-394 -108q153 -182 153 -379q0 -111 -30 -199.5t-86.5 -150t-138 -94t-184.5 -32.5 h-202zM94 1116l19 108l761 234l-11 -93zM199 -542q0 6 8 16l107 111l-107 106q-7 7 -7 15t7 16l117 121q7 7 12 7q7 0 13 -8l117 -119q7 -7 7 -13q0 -7 -7 -13l-110 -112l110 -110q7 -7 7 -13q0 -7 -7 -13l-116 -119q-6 -7 -13 -7q-9 0 -19 10l-111 109q-8 8 -8 16z" />
<glyph unicode="&#x6b3;" horiz-adv-x="949" arabic-form="medial" d="M-70 1v454h146q101 0 161 10t60 32q0 12 -16 31q-43 51 -100.5 116t-132.5 144l46 251q0 6 9 15l749 240q9 3 12 3t3 -13v-10l-20 -273q-1 -9 -1.5 -15t-2.5 -10t-6.5 -6.5t-13.5 -5.5l-419 -128l251 -296q91 -85 220 -85h74v-454h-47q-94 0 -209 74q-96 62 -168 151 q-111 -225 -406 -225h-189zM104 1116l19 108l760 234l-10 -93zM384 -464q0 6 8 16l107 111l-107 106q-7 7 -7 15t7 16l117 121q7 7 12 7q7 0 13 -8l117 -119q7 -7 7 -13q0 -7 -7 -13l-110 -112l110 -110q7 -7 7 -13q0 -7 -7 -13l-116 -119q-6 -7 -13 -7q-9 0 -19 10 l-111 109q-8 8 -8 16z" />
<glyph unicode="&#x6b1;" horiz-adv-x="1906" arabic-form="final" d="M121 428q0 61 11 124t30 114t43.5 83.5t51.5 32.5q30 0 43 -27t13 -81q0 -114 58 -166q98 -88 399 -88q104 0 193 3t153.5 10t101 18t36.5 26q0 11 -16 31q-37 48 -95 117.5t-139 162.5l47 251q0 5 8 15l750 240q9 3 12 3t3 -13v-10l-20 -273q-1 -9 -1.5 -15t-2.5 -10 t-6.5 -6.5t-13.5 -5.5l-419 -128l251 -296q91 -85 220 -85h74v-454h-47q-94 0 -209 74q-96 62 -168 151q-77 -156 -261 -215q-123 -40 -339 -40q-63 0 -128 1q-295 0 -440 80q-193 106 -193 376zM1061 1116l19 108l760 234l-10 -93zM1096 1620q0 9 10 19l109 111q8 8 16 8 q6 0 16 -8l111 -107l106 107q7 7 15 7t16 -7l121 -117q7 -7 7 -12q0 -7 -8 -13l-119 -117q-7 -7 -13 -7q-7 0 -13 7l-112 110l-110 -110q-7 -7 -13 -7q-7 0 -13 7l-119 116q-7 6 -7 13z" />
<glyph unicode="&#x6b1;" horiz-adv-x="894" arabic-form="initial" d="M-70 1v454h134q48 0 93 1.5t79.5 6t55.5 13.5t21 25q0 22 -72 94t-204 193l47 251q0 5 8 15l749 240q5 2 7.5 2h4.5q5 0 5 -13v-9l-21 -273q-1 -12 -2.5 -18.5t-4 -10t-7 -5t-11.5 -3.5l-394 -108q153 -182 153 -379q0 -111 -30 -199.5t-86.5 -150t-138 -94t-184.5 -32.5 h-202zM94 1116l19 108l761 234l-11 -93zM131 1605q0 9 10 19l109 111q8 8 16 8q6 0 16 -8l111 -107l106 107q7 7 15 7t16 -7l121 -117q7 -7 7 -12q0 -7 -8 -13l-119 -117q-7 -7 -13 -7q-7 0 -13 7l-112 110l-110 -110q-7 -7 -13 -7q-7 0 -13 7l-119 116q-7 6 -7 13z" />
<glyph unicode="&#x6b1;" horiz-adv-x="949" arabic-form="medial" d="M-70 1v454h146q101 0 161 10t60 32q0 12 -16 31q-43 51 -100.5 116t-132.5 144l46 251q0 6 9 15l749 240q9 3 12 3t3 -13v-10l-20 -273q-1 -9 -1.5 -15t-2.5 -10t-6.5 -6.5t-13.5 -5.5l-419 -128l251 -296q91 -85 220 -85h74v-454h-47q-94 0 -209 74q-96 62 -168 151 q-111 -225 -406 -225h-189zM104 1116l19 108l760 234l-10 -93zM144 1609q0 9 10 19l109 111q8 8 16 8q6 0 16 -8l111 -107l106 107q7 7 15 7t16 -7l121 -117q7 -7 7 -12q0 -7 -8 -13l-119 -117q-7 -7 -13 -7q-7 0 -13 7l-112 110l-110 -110q-7 -7 -13 -7q-7 0 -13 7 l-119 116q-7 6 -7 13z" />
<glyph unicode="&#x6ba;" horiz-adv-x="1400" arabic-form="final" d="M123 -60q0 115 47 271q55 184 125 184q17 0 28.5 -4.5t18.5 -17t10 -33.5t3 -54q0 -9 -4 -31t-8.5 -47.5t-8 -49t-3.5 -34.5q0 -196 397 -196q119 0 223 27q157 40 157 126q0 72 -201 234l156 304q9 17 16 17q6 0 23 -17q158 -164 244 -164h54v-454h-26q-53 0 -82 44 q0 -550 -606 -550q-275 0 -419 113t-144 332z" />
<glyph unicode="&#x6bb;" horiz-adv-x="1400" arabic-form="final" d="M123 -60q0 115 47 271q55 184 125 184q17 0 28.5 -4.5t18.5 -17t10 -33.5t3 -54q0 -9 -4 -31t-8.5 -47.5t-8 -49t-3.5 -34.5q0 -196 397 -196q119 0 223 27q157 40 157 126q0 72 -201 234l156 304q9 17 16 17q6 0 23 -17q158 -164 244 -164h54v-454h-26q-53 0 -82 44 q0 -550 -606 -550q-275 0 -419 113t-144 332zM461 815q0 5 1.5 8.5t5.5 5.5t11.5 2.5t19.5 0.5h6t11.5 -0.5t25 -0.5t45.5 -1q0 86 -19 167q-7 30 -14.5 54.5t-16.5 43.5l82 72q11 9 15 9t10 -14l49 -108q5 -13 5 -16q0 -4 -6 -4q-8 0 -23 5q2 -17 2 -35q0 -70 -28 -138 q115 129 197 129q17 0 31 -6t24.5 -17.5t16 -26.5t5.5 -33q0 -39 -26 -86q-36 -65 -99 -100q-61 -34 -138 -34q-47 0 -96 28q-38 22 -70 57q-27 29 -27 38zM668 833q7 -1 14 -1h14q26 0 49 2.5t40 7t26.5 10t9.5 10.5q0 17 -12 27t-31 10q-44 0 -110 -66z" />
<glyph unicode="&#x6c0;" horiz-adv-x="917" arabic-form="isolated" d="M121 332q0 118 74 349q87 270 178 270q159 0 314 -110q193 -136 193 -357q0 -108 -28 -196.5t-80.5 -152t-127.5 -98t-169 -34.5q-354 0 -354 329zM227 1118.5q0 18.5 17 18.5q75 -9 155.5 -6.5t105.5 27.5q-6 30 -72.5 44t-105.5 31t-39 46q2 29 29.5 70t60.5 73 t67 51.5t61 22.5q50 0 56 -50t-13 -88q-17 -10 -25.5 5t-19.5 16q-81 10 -127 -53q-2 -17 55.5 -30.5t91 -28t44.5 -51t-1.5 -70.5t-40.5 -55.5t-64.5 -30t-93 -7.5t-106.5 16q-35 31 -35 49.5zM345 481q0 -86 181 -86q153 0 153 62q0 39 -113 89q-104 45 -155 45 q-14 0 -26 -10t-21 -26t-14 -35.5t-5 -38.5z" />
<glyph unicode="&#x6c0;" horiz-adv-x="945" arabic-form="final" d="M122 354q0 114 82 229q4 5 65 59t181 159l-19 86l233 235q14 14 23 14q11 0 16 -26l95 -515q26 -140 110 -140h37v-454h-73q-220 0 -282 236q-44 -101 -93 -101q-94 0 -214 49q-161 65 -161 169zM212 1147.5q0 18.5 17 18.5q75 -9 155.5 -6.5t105.5 27.5q-6 30 -72.5 44 t-105.5 31t-39 46q2 29 29.5 70t60.5 73t67 51.5t61 22.5q50 0 56 -50t-13 -88q-17 -10 -25.5 5t-19.5 16q-81 10 -127 -53q-2 -17 55.5 -30.5t91 -28t44.5 -51t-1.5 -70.5t-40.5 -55.5t-64.5 -30t-93 -7.5t-106.5 16q-35 31 -35 49.5zM353 503q0 -48 195 -58l-56 204 q-139 -103 -139 -146z" />
<glyph unicode="&#x6c1;" horiz-adv-x="917" arabic-form="isolated" d="M121 332q0 118 74 349q87 270 178 270q159 0 314 -110q193 -136 193 -357q0 -108 -28 -196.5t-80.5 -152t-127.5 -98t-169 -34.5q-354 0 -354 329zM345 481q0 -86 181 -86q153 0 153 62q0 39 -113 89q-104 45 -155 45q-14 0 -26 -10t-21 -26t-14 -35.5t-5 -38.5z" />
<glyph unicode="&#x6c1;" horiz-adv-x="603" arabic-form="initial" d="M-17 1v454h291q59 0 59 33q0 16 -17 39q-63 81 -160 167q-8 6 -8 16q0 7 8 20l186 270q15 22 22 22q8 0 25 -20q156 -192 156 -476q0 -279 -79 -392q-91 -133 -340 -133h-143zM137 -489q0 78 50 183q13 26 29 52.5t33.5 51.5t35 47t33 38.5t28.5 26.5t21 10q45 0 45 -40 q0 -17 -49 -89q-56 -76 -76 -155q62 0 97 -40t35 -108q0 -29 -10.5 -54.5t-29.5 -45.5t-43.5 -31t-55.5 -11q-32 0 -58.5 13t-45 35t-29 52t-10.5 65z" />
<glyph unicode="&#x6c1;" horiz-adv-x="1081" arabic-form="medial" d="M-45 228.5q-1 49.5 1 94t7.5 80t16.5 52.5q155 0 237.5 110.5t148.5 397.5l295 -96q-258 -421 -166 -603q32 123 109.5 217.5t189.5 96.5q81 0 152 -61.5t140 -61.5q13 -18 19 -53.5t7.5 -80t-0.5 -94t-6.5 -94t-9.5 -80.5t-10 -53q-83 0 -173 79.5t-154 82.5 q-98 3 -104.5 -73.5t147.5 -229.5l-356 -91q-80 106 -126 401q-77 -103 -155 -136t-152 -33h-33q-6 18 -11.5 54t-9 80.5t-4.5 94z" />
<glyph unicode="&#x6be;" horiz-adv-x="1062" arabic-form="final" d="M59 391l357 26q17 160 130 290q131 149 272 149q37 0 70 -14.5t58 -39.5t39.5 -57.5t14.5 -69.5q0 -108 -74 -220h141v-454h-134q52 -108 52 -167q0 -93 -51 -147t-144 -54q-157 0 -274 139q-92 110 -112 228q-68 -1 -118 17t-87 48.5t-61.5 70.5t-40.5 84t-24.5 88 t-13.5 83zM552 12q81 -144 166 -144q84 0 84 57q0 16 -7 32t-18.5 28t-27 19.5t-31.5 7.5h-166zM559 430l167 13q17 0 32 7t26.5 19t18.5 27.5t7 32.5q0 59 -84 59q-86 0 -167 -158z" />
<glyph unicode="&#x6be;" horiz-adv-x="1043" arabic-form="initial" d="M-25 1v454h157q-22 37 -22 89q0 132 97 177l-59 38l134 303q23 50 48 50q13 0 60 -26q137 -76 237.5 -147.5t169.5 -138.5q202 -199 202 -426q0 -101 -65 -223q-81 -151 -198 -151q-84 0 -278 131q-142 -130 -263 -130h-220zM284 543q0 -13 14.5 -28.5t35 -28.5t42.5 -22 t37 -9t32 7t32 18t25 25.5t10 29.5q0 17 -10 33t-25.5 29t-34 20.5t-34.5 7.5q-20 0 -42 -7t-40 -18.5t-30 -26t-12 -30.5zM596 347q15 -12 38.5 -26t48 -26.5t45.5 -21t32 -8.5q46 0 46 70q0 68 -145 168q1 -5 1.5 -10t0.5 -10q0 -99 -67 -136z" />
<glyph unicode="&#x6be;" horiz-adv-x="774" arabic-form="medial" d="M-62 1v454h187q17 122 130 252q131 149 272 149q37 0 70 -14.5t58 -39.5t39.5 -57.5t14.5 -69.5q0 -108 -74 -220h141v-454h-134q52 -108 52 -167q0 -93 -51 -147t-144 -54q-157 0 -274 139q-92 110 -112 229h-175zM261 12q81 -144 166 -144q84 0 84 57q0 16 -7 32 t-18.5 28t-27 19.5t-31.5 7.5h-166zM268 443h167q17 0 32 7t26.5 19t18.5 27.5t7 32.5q0 59 -84 59q-86 0 -167 -145z" />
<glyph unicode="&#x6d2;" horiz-adv-x="1353" arabic-form="final" d="M134 -125q-13 62 2 154q70 426 736 426h515l1 -455h-380q-59 -5 -124.5 9t-133 32.5t-134.5 35t-129 16.5t-118 -22.5t-100 -82.5v-3q9 -37 92 -41.5t286 -6t368 -44t165 -187.5l-75 -254q-5 38 -33 84.5t-311 50t-408.5 16t-163.5 95t-55 177.5z" />
<glyph unicode="&#x6d3;" horiz-adv-x="1353" arabic-form="final" d="M134 -125q-13 62 2 154q70 426 736 426h515l1 -455h-380q-59 -5 -124.5 9t-133 32.5t-134.5 35t-129 16.5t-118 -22.5t-100 -82.5v-3q9 -37 92 -41.5t286 -6t368 -44t165 -187.5l-75 -254q-5 38 -33 84.5t-311 50t-408.5 16t-163.5 95t-55 177.5zM300 498l6 100 q29 24 52.5 41.5t41.5 27.5q-14 1 -27.5 8t-23.5 19.5t-16.5 28t-6.5 31.5q0 71 46 140q49 79 121 79q21 0 47.5 -8.5t48.5 -24t37 -36t15 -42.5q0 -18 -20 -18q-5 0 -15 1.5t-20.5 4t-20.5 4.5t-15 2q-24 0 -45.5 -5t-38 -14t-26 -21t-9.5 -26q0 -44 86 -44q18 0 70 18 l98 35l-21 -131q-197 -57 -364 -170z" />
<glyph unicode="&#x6ad;" horiz-adv-x="1713" arabic-form="final" d="M121 428q0 61 11 124t30 114t43.5 83.5t51.5 32.5q30 0 43 -27t13 -81q0 -114 58 -166q98 -88 399 -88q347 0 458 34q79 23 78 140v17l-32 670v4q0 14 10 22l305 196q10 7 15 7q4 0 5 -4.5t1 -19.5v-904q0 -25 7 -48t19.5 -40.5t30.5 -28t40 -10.5h6v-454h-17 q-33 0 -66.5 11.5t-64.5 32t-57.5 47.5t-44.5 58q-88 -127 -300 -154q-57 -13 -126.5 -19t-154.5 -6q-61 0 -128 1q-295 0 -440 80q-193 106 -193 376zM508 1481q0 6 6 12l118 118q7 5 13 5q5 0 12 -5l115 -115l116 115q5 5 11 5q5 0 13 -5l119 -117q6 -6 6 -13t-8 -15 l-110 -112q-8 -8 -14 -10q-7 2 -15 10l-118 112l-109 -112q-7 -7 -14 -7q-8 0 -15 7l-121 116q-5 7 -5 11zM604 706l6 111q62 50 106 76q-16 1 -31 9t-26 21.5t-18 31t-7 35.5q0 79 49 155q55 87 135 87q24 0 52.5 -10t53.5 -27t41.5 -39.5t16.5 -47.5q0 -19 -22 -19 q-6 0 -16.5 2t-22.5 4.5t-22.5 4.5t-16.5 2q-26 0 -50 -5t-42 -15t-29 -23.5t-11 -29.5q0 -49 95 -49q8 0 25 4.5t38 11t43 14t40 14t39 14.5l-21 -144q-111 -32 -211.5 -78.5t-193.5 -109.5zM636 1709q0 6 6 12l117 118q7 6 13 6t12 -6l119 -117q5 -7 5 -11q0 -8 -9 -17 l-108 -111q-8 -8 -14 -8q-8 0 -16 8l-120 115q-5 4 -5 11z" />
<glyph unicode="&#x6ad;" horiz-adv-x="924" arabic-form="initial" d="M-70 1v454h134q209 0 278 19q31 7 31 34q0 15 -15 38t-38.5 50t-52.5 55t-57 54q-59 52 -177 159l56 322q3 21 21 28l775 256q7 3 13 3q3 0 3 -13v-10l-35 -329q-1 -12 -2 -18.5t-4 -9.5t-7 -4.5t-11 -3.5l-412 -128q102 -121 143 -207q58 -120 58 -272 q0 -113 -31 -201.5t-92 -149.5t-150 -93.5t-206 -32.5h-222zM83 1651q0 6 6 12l118 118q7 5 13 5q5 0 12 -5l115 -115l116 115q5 5 11 5q5 0 13 -5l119 -117q6 -6 6 -13t-8 -15l-110 -112q-8 -8 -14 -10q-7 2 -15 10l-118 112l-109 -112q-7 -7 -14 -7q-8 0 -15 7l-121 116 q-5 7 -5 11zM211 1879q0 6 6 12l117 118q7 6 13 6t12 -6l119 -117q5 -7 5 -11q0 -8 -9 -17l-108 -111q-8 -8 -14 -8q-8 0 -16 8l-120 115q-5 4 -5 11z" />
<glyph unicode="&#x6ad;" horiz-adv-x="1004" arabic-form="medial" d="M-70 1v454h170q113 0 178 8.5t65 30.5q0 7 -14 25.5t-50.5 59t-100 106.5t-161.5 168l55 322q3 23 22 29l774 256q9 3 13 3t4 -10v-12l-34 -330q-1 -11 -2.5 -17t-4 -9.5t-7 -5t-11.5 -4.5l-454 -155q136 -157 211 -242t91 -100q130 -123 256 -123h74v-454h-47 q-94 0 -209 74q-96 62 -168 151q-66 -135 -198 -186q-101 -39 -287 -39h-165zM60 1599q0 6 6 12l118 118q7 5 13 5q5 0 12 -5l115 -115l116 115q5 5 11 5q5 0 13 -5l119 -117q6 -6 6 -13t-8 -15l-110 -112q-8 -8 -14 -10q-7 2 -15 10l-118 112l-109 -112q-7 -7 -14 -7 q-8 0 -15 7l-121 116q-5 7 -5 11zM188 1827q0 6 6 12l117 118q7 6 13 6t12 -6l119 -117q5 -7 5 -11q0 -8 -9 -17l-108 -111q-8 -8 -14 -8q-8 0 -16 8l-120 115q-5 4 -5 11z" />
<glyph unicode="&#x6c7;" horiz-adv-x="949" arabic-form="final" d="M80 -453q0 37 36 54q65 31 142.5 74.5t168.5 100.5q246 154 250 215q-203 0 -264 24q-134 53 -134 244q0 175 58 327q79 211 236 211q218 0 286 -342h90v-454h-79q-25 -333 -178 -498q-23 -24 -60 -24h-469q-83 0 -83 68zM356 937q151 44 206 99q-67 36 -67 116 q0 37 10.5 66t29 49t44 30.5t54.5 10.5q32 0 56 -10.5t40.5 -29.5t25 -44t8.5 -55q0 -140 -210 -246q-124 -63 -186 -65zM448 389q0 -38 113 -38q103 0 103 19q0 15 -13 31t-32 28.5t-40.5 20.5t-38.5 8q-92 0 -92 -69zM581 1162q0 -49 54 -49q44 0 44 47q0 27 -12.5 39 t-38.5 12q-23 0 -35 -13t-12 -36z" />
<glyph unicode="&#x6c6;" horiz-adv-x="949" arabic-form="final" d="M80 -453q0 37 36 54q65 31 142.5 74.5t168.5 100.5q246 154 250 215q-203 0 -264 24q-134 53 -134 244q0 175 58 327q79 211 236 211q218 0 286 -342h90v-454h-79q-25 -333 -178 -498q-23 -24 -60 -24h-469q-83 0 -83 68zM352 1277l132 -8q10 -12 20.5 -27t21.5 -39 t22 -58.5t23 -85.5q3 19 9 46.5t15 57t21 59t28 53.5l132 10q-13 -13 -30.5 -32t-38.5 -54t-44.5 -91.5t-47.5 -143.5l-87 -3q-10 47 -28 93.5t-41 88.5t-50.5 76.5t-56.5 57.5zM448 389q0 -38 113 -38q103 0 103 19q0 15 -13 31t-32 28.5t-40.5 20.5t-38.5 8q-92 0 -92 -69 z" />
<glyph unicode="&#x6c8;" horiz-adv-x="949" arabic-form="final" d="M80 -453q0 37 36 54q65 31 142.5 74.5t168.5 100.5q246 154 250 215q-203 0 -264 24q-134 53 -134 244q0 175 58 327q79 211 236 211q218 0 286 -342h90v-454h-79q-25 -333 -178 -498q-23 -24 -60 -24h-469q-83 0 -83 68zM415 1210l78 93q35 -56 57 -129.5t22 -128.5 q0 -50 -19 -97q-8 -21 -17.5 -32.5t-15.5 -14.5q-34 -12 -34 10q0 6 2 19q3 18 3 42q0 47 -22 115t-54 123zM448 389q0 -38 113 -38q103 0 103 19q0 15 -13 31t-32 28.5t-40.5 20.5t-38.5 8q-92 0 -92 -69z" />
<glyph unicode="&#x6cb;" horiz-adv-x="949" arabic-form="final" d="M80 -453q0 37 36 54q65 31 142.5 74.5t168.5 100.5q246 154 250 215q-203 0 -264 24q-134 53 -134 244q0 175 58 327q79 211 236 211q218 0 286 -342h90v-454h-79q-25 -333 -178 -498q-23 -24 -60 -24h-469q-83 0 -83 68zM257 1026q0 6 6 12l118 118q7 5 13 5q5 0 12 -5 l115 -115l116 115q5 5 11 5q5 0 13 -5l119 -117q6 -6 6 -13t-8 -15l-110 -112q-8 -8 -14 -10q-7 2 -15 10l-118 112l-109 -112q-7 -7 -14 -7q-8 0 -15 7l-121 116q-5 7 -5 11zM385 1254q0 6 6 12l117 118q7 6 13 6t12 -6l119 -117q5 -7 5 -11q0 -8 -9 -17l-108 -111 q-8 -8 -14 -8q-8 0 -16 8l-120 115q-5 4 -5 11zM448 389q0 -38 113 -38q103 0 103 19q0 15 -13 31t-32 28.5t-40.5 20.5t-38.5 8q-92 0 -92 -69z" />
<glyph unicode="&#x6c5;" horiz-adv-x="941" arabic-form="final" d="M86 -453q0 37 36 54q65 31 142 75q63 35 134 79l-216 -3l23 79l345 23q130 93 133 137q-203 0 -264 24q-134 53 -134 244q0 175 58 327q79 211 236 211q218 0 286 -342h90v-454h-79q-25 -333 -178 -498q-23 -24 -60 -24h-469q-83 0 -83 68zM454 389q0 -38 113 -38 q103 0 103 19q0 15 -13 31t-32 28.5t-40.5 20.5t-38.5 8q-92 0 -92 -69z" />
<glyph unicode="&#x6c9;" horiz-adv-x="949" arabic-form="final" d="M80 -453q0 37 36 54q65 31 142.5 74.5t168.5 100.5q246 154 250 215q-203 0 -264 24q-134 53 -134 244q0 175 58 327q79 211 236 211q218 0 286 -342h90v-454h-79q-25 -333 -178 -498q-23 -24 -60 -24h-469q-83 0 -83 68zM358 949q29 23 56.5 57.5t50.5 76.5t41 88.5 t28 93.5l87 -3q24 -87 47.5 -143.5t44.5 -91.5t38.5 -54t30.5 -32l-132 10q-16 24 -28 53.5t-21 59t-15 56.5t-9 47q-12 -51 -23 -85.5t-22 -58.5t-21.5 -39t-20.5 -27zM448 389q0 -38 113 -38q103 0 103 19q0 15 -13 31t-32 28.5t-40.5 20.5t-38.5 8q-92 0 -92 -69z" />
<glyph unicode="&#x6d0;" horiz-adv-x="1608" arabic-form="final" d="M121 -17q0 135 56 286q58 159 122 159q79 0 79 -89q0 -12 -3 -37t-6.5 -53t-6.5 -53.5t-3 -38.5q0 -284 492 -284q83 0 164.5 3.5t146 11t104.5 18.5t40 25q0 10 -25 15.5t-61.5 8t-78 3t-74.5 0.5q-149 0 -206 19q-97 31 -97 130q0 205 294 292q189 56 455 56h95v-454 h-32q-32 0 -72 48q-53 62 -108 89q-96 48 -263 48q-36 0 -71 -4t-62.5 -10.5t-44.5 -15.5t-17 -18q0 -24 113 -24q182 0 251 -20q137 -41 137 -178q0 -429 -696 -429q-158 0 -275 28.5t-194 88.5t-115 154t-38 225zM601 -1061q0 6 8 16l107 111l-107 106q-7 7 -7 15t7 16 l117 121q7 7 12 7q7 0 13 -8l117 -119q7 -7 7 -13q0 -7 -7 -13l-110 -112l110 -110q7 -7 7 -13q0 -7 -7 -13l-116 -119q-6 -7 -13 -7q-9 0 -19 10l-111 109q-8 8 -8 16z" />
<glyph unicode="&#x6cc;" horiz-adv-x="1608" arabic-form="final" d="M121 -17q0 135 56 286q58 159 122 159q79 0 79 -89q0 -12 -3 -37t-6.5 -53t-6.5 -53.5t-3 -38.5q0 -284 492 -284q83 0 164.5 3.5t146 11t104.5 18.5t40 25q0 10 -25 15.5t-61.5 8t-78 3t-74.5 0.5q-149 0 -206 19q-97 31 -97 130q0 205 294 292q189 56 455 56h95v-454 h-32q-32 0 -72 48q-53 62 -108 89q-96 48 -263 48q-36 0 -71 -4t-62.5 -10.5t-44.5 -15.5t-17 -18q0 -24 113 -24q182 0 251 -20q137 -41 137 -178q0 -429 -696 -429q-158 0 -275 28.5t-194 88.5t-115 154t-38 225z" />
<glyph unicode="&#x6cc;" horiz-adv-x="603" arabic-form="initial" d="M-17 1v454h291q59 0 59 33q0 16 -17 39q-63 81 -160 167q-8 6 -8 16q0 7 8 20l186 270q15 22 22 22q8 0 25 -20q156 -192 156 -476q0 -279 -79 -392q-91 -133 -340 -133h-143zM25 -315q0 9 10 19l109 111q8 8 16 8q6 0 16 -8l111 -107l106 107q7 7 15 7t16 -7l121 -117 q7 -7 7 -12q0 -7 -8 -13l-119 -117q-7 -7 -13 -7q-7 0 -13 7l-112 110l-110 -110q-7 -7 -13 -7q-7 0 -13 7l-119 116q-7 6 -7 13z" />
<glyph unicode="&#x6cc;" horiz-adv-x="577" arabic-form="medial" d="M-70 1v454h105q107 0 149 64q10 14 40 117q19 64 69 64q47 0 62 -64q11 -50 19.5 -79t13.5 -38q37 -64 142 -64h47v-454h-47q-144 0 -223 133q-78 -133 -237 -133h-140zM11 -295q0 9 10 19l109 111q8 8 16 8q6 0 16 -8l111 -107l106 107q7 7 15 7t16 -7l121 -117 q7 -7 7 -12q0 -7 -8 -13l-119 -117q-7 -7 -13 -7q-7 0 -13 7l-112 110l-110 -110q-7 -7 -13 -7q-7 0 -13 7l-119 116q-7 6 -7 13z" />
<glyph unicode="&#xfc5d;" horiz-adv-x="1533" arabic-form="isolated" d="M121 -4q0 103 43 274q54 217 125 217q83 0 83 -99q0 -13 -3.5 -39t-7 -54.5t-7 -54.5t-3.5 -39q0 -278 481 -278q247 0 460 74q37 13 37 31q0 20 -52 26q-56 5 -138.5 14t-193.5 20q-206 41 -206 185q0 162 115 373q142 264 342 264q127 0 217 -125q74 -103 74 -183 q0 -99 -31 -99q-5 0 -97 31q-94 32 -169 32q-104 0 -174 -52q-58 -42 -58 -76q0 -23 137 -41q211 -27 236 -33q156 -35 156 -244q0 -632 -771 -632q-595 0 -595 508zM447 1097l89 107q41 -64 66 -148.5t25 -147.5q0 -57 -22 -111q-9 -24 -20 -37.5t-18 -16.5q-39 -14 -39 11 q0 7 3 22q3 21 3 48q0 54 -25 132t-62 141z" />
<glyph unicode="&#xfc5e;" arabic-form="isolated" d="M-223 560q0 14 9.5 30t23.5 29.5t30 22t30 8.5q84 0 84 -95q0 -17 -3 -36q51 22 71 42q-69 36 -69 111q0 30 13 65q33 91 123 91q32 0 56 -11t40.5 -29.5t25 -44t8.5 -54.5q0 -138 -206 -242q-95 -48 -190 -71l-13 81q11 5 26.5 12t37.5 18q2 5 3 10.5t1 11.5 q0 37 -26 37q-4 0 -12.5 -2t-18 -4t-17.5 -4t-11 -2q-16 0 -16 26zM-217 150q0 53 15 118l97 15q-22 -65 -22 -106t25 -41q48 0 65 174l100 31q-3 -36 -3 -63q0 -70 23 -70q34 0 41 40q2 5 6 103l89 27q0 -299 -136 -299q-44 0 -71 31q-44 -102 -124 -102q-105 0 -105 142z M36 683q0 -48 54 -48q44 0 44 47q0 28 -12.5 40t-38.5 12q-23 0 -35 -13.5t-12 -37.5z" />
<glyph unicode="&#xfc5f;" arabic-form="isolated" d="M-201 574q0 53 15 118l97 15q-22 -65 -22 -106t25 -41q48 0 65 174l100 30q-3 -36 -3 -63q0 -70 23 -70q33 0 41 41q2 5 6 104l89 27q0 -300 -136 -300q-43 0 -71 31q-44 -102 -124 -102q-105 0 -105 142zM-187 0v110l399 201v-111zM-187 180v110l401 201v-110z" />
<glyph unicode="&#xfc60;" arabic-form="isolated" d="M-220 139q0 53 15 118l97 15q-22 -65 -22 -106t25 -41q48 0 65 174l100 31q-3 -36 -3 -63q0 -70 23 -70q34 0 41 40q2 5 6 103l89 27q0 -299 -136 -299q-44 0 -71 31q-44 -102 -124 -102q-105 0 -105 142zM-203 317v110l401 201v-111z" />
<glyph unicode="&#xfc61;" arabic-form="isolated" d="M-240 126q0 53 15 118l97 15q-22 -65 -22 -106t25 -41q48 0 65 174l100 31q-3 -36 -3 -63q0 -70 23 -70q34 0 41 40q2 5 6 103l89 27q0 -299 -136 -299q-44 0 -71 31q-44 -102 -124 -102q-105 0 -105 142zM-217 418q144 37 206 99q-68 35 -68 115q0 37 11 66t29.5 49 t44 31t54.5 11q32 0 56 -11t40.5 -30t24.5 -44.5t8 -53.5q0 -30 -11 -61q-37 -102 -199 -185q-128 -65 -186 -65zM6 643q0 -49 55 -49q43 0 43 47q0 27 -12 39t-37 12t-37 -13t-12 -36z" />
<glyph unicode="&#xfc62;" arabic-form="isolated" d="M-244 403q0 53 15 119l97 14q-22 -65 -22 -106t25 -41q48 0 65 174l100 30q-3 -36 -3 -63q0 -70 23 -70q33 0 41 41q2 5 6 104l89 27q0 -301 -136 -301q-42 0 -71 32q-43 -103 -124 -103q-105 0 -105 143zM-227 9v110l401 201v-111z" />
<glyph unicode="&#xfc63;" arabic-form="isolated" d="M-222 137q0 53 15 119l97 14q-22 -65 -22 -106t25 -41q48 0 65 174l100 30q-3 -36 -3 -63q0 -70 23 -70q33 0 41 41q2 5 6 104l89 27q0 -301 -136 -301q-42 0 -71 32q-43 -103 -124 -103q-105 0 -105 143zM-52 630q34 82 51 82q18 0 39 -53q12 -29 18.5 -57.5t6.5 -57.5 q0 -28 -6.5 -54t-18.5 -52q-17 -45 -35 -45t-18 20q0 3 1 12t2.5 21t3 25.5t1.5 25.5q0 39 -20 80z" />
<glyph unicode="&#xfcf2;" horiz-adv-x="743" arabic-form="medial" d="M-29 1v454h790v-454h-790zM166 665q0 53 15 118l97 15q-22 -65 -22 -106t25 -41q48 0 65 174l100 31q-3 -36 -3 -63q0 -70 23 -70q34 0 41 40q2 5 6 103l89 27q0 -299 -136 -299q-44 0 -71 31q-44 -102 -124 -102q-105 0 -105 142zM183 843v110l401 201v-111z" />
<glyph unicode="&#xfcf3;" horiz-adv-x="743" arabic-form="medial" d="M-29 1v454h790v-454h-790zM146 671q0 53 15 118l97 15q-22 -65 -22 -106t25 -41q48 0 65 174l100 31q-3 -36 -3 -63q0 -70 23 -70q34 0 41 40q2 5 6 103l89 27q0 -299 -136 -299q-44 0 -71 31q-44 -102 -124 -102q-105 0 -105 142zM169 963q144 37 206 99q-68 35 -68 115 q0 37 11 66t29.5 49t44 31t54.5 11q32 0 56 -11t40.5 -30t24.5 -44.5t8 -53.5q0 -30 -11 -61q-37 -102 -199 -185q-128 -65 -186 -65zM392 1188q0 -49 55 -49q43 0 43 47q0 27 -12 39t-37 12t-37 -13t-12 -36z" />
<glyph unicode="&#xfcf4;" horiz-adv-x="743" arabic-form="medial" d="M-29 1v454h790v-454h-790zM154 932q0 53 15 119l97 14q-22 -65 -22 -106t25 -41q48 0 65 174l100 30q-3 -36 -3 -63q0 -70 23 -70q33 0 41 41q2 5 6 104l89 27q0 -301 -136 -301q-42 0 -71 32q-43 -103 -124 -103q-105 0 -105 143zM171 538v110l401 201v-111z" />
<glyph unicode="&#xfe71;" horiz-adv-x="743" arabic-form="medial" d="M-29 1v454h790v-454h-790zM201 526v110l399 201v-111zM201 706v110l401 201v-110z" />
<glyph unicode="&#xfe77;" horiz-adv-x="743" arabic-form="medial" d="M-29 1v454h790v-454h-790zM192 570v110l399 201v-111z" />
<glyph unicode="&#xfe79;" horiz-adv-x="743" arabic-form="medial" d="M-29 1v454h790v-454h-790zM189 638q151 44 206 99q-67 36 -67 116q0 37 10.5 66t29 49t44 30.5t54.5 10.5q32 0 56 -10.5t40.5 -29.5t25 -44t8.5 -55q0 -140 -210 -246q-124 -63 -186 -65zM414 863q0 -49 54 -49q44 0 44 47q0 27 -12.5 39t-38.5 12q-23 0 -35 -13 t-12 -36z" />
<glyph unicode="&#xfe7b;" horiz-adv-x="743" arabic-form="medial" d="M-29 1v454h790v-454h-790zM103 -331l399 201v-111l-399 -200v110z" />
<glyph unicode="&#xfe7d;" horiz-adv-x="743" arabic-form="medial" d="M-29 1v454h790v-454h-790zM148 707q0 53 15 118l97 15q-22 -65 -22 -106t25 -41q48 0 65 174l100 31q-3 -36 -3 -63q0 -70 23 -70q34 0 41 40q2 5 6 103l89 27q0 -299 -136 -299q-44 0 -71 31q-44 -102 -124 -102q-105 0 -105 142z" />
<glyph unicode="&#xfe7f;" horiz-adv-x="743" arabic-form="medial" d="M-29 1v454h790v-454h-790zM215 677q0 62 32 143q40 99 97 99q33 0 65 -14t57.5 -38.5t41 -57.5t15.5 -70q0 -89 -43.5 -142t-119.5 -53q-31 0 -57.5 10t-46 28t-30.5 42t-11 53zM288 735q0 -59 88 -59q74 0 74 36q0 16 -11.5 33t-28.5 30t-36.5 21.5t-35.5 8.5 q-50 0 -50 -70z" />
<glyph unicode="&#x621;" horiz-adv-x="1135" arabic-form="isolated" d="M290.5 -77.5q-12.5 33.5 2 76.5t63.5 75t67.5 42t49.5 35q-144 0 -144 213q0 147 91 276q90 138 239 138q98 0 193 -66q114 -72 114 -160q0 -35 -45 -35q-24 0 -72.5 11.5t-76.5 11.5q-84 0 -148 -29q-96 -41 -96 -114q0 -86 188 -86q68 0 170 41l164 69l-47 -270 q-272 -78 -563 -262q-59 -25 -98 -12.5t-51.5 46z" />
<glyph unicode="&#x622;" horiz-adv-x="689" arabic-form="final" d="M-84 1601q2 48 65 161q54 84 99 107q37 10 142.5 -21.5t175.5 -41.5t105 -9q73 -1 179 25q83 28 98 28q36 0 36 -38q0 -72 -132 -146q-160 -86 -334 -86q-17 0 -43.5 3.5t-56 8.5t-59.5 10.5t-55.5 10.5t-43 8.5t-21.5 3.5q-30 0 -59 -50q-30 -48 -54 -48q-47 0 -42 74z M194 1233q0 31 18 46l291 205q30 21 41 21q13 0 13 -24v-881q0 -146 129 -146h3v-452h-79q-195 0 -285 96t-90 296q0 163 -12 439q-14 290 -27 380q-1 5 -1.5 10t-0.5 10z" />
<glyph unicode="&#x623;" horiz-adv-x="616" arabic-form="final" d="M101 1470l6 100q29 24 52.5 41.5t41.5 27.5q-14 1 -27.5 8t-23.5 19.5t-16.5 28t-6.5 31.5q0 71 46 140q49 79 121 79q21 0 47.5 -8.5t48.5 -24t37 -36t15 -42.5q0 -18 -20 -18q-5 0 -15 1.5t-20.5 4t-20.5 4.5t-15 2q-24 0 -45.5 -5t-38 -14t-26 -21t-9.5 -26 q0 -44 86 -44q18 0 70 18l98 35l-21 -131q-197 -57 -364 -170zM121 1233q0 31 18 46l291 205q30 21 41 21q13 0 13 -24v-881q0 -146 129 -146h3v-452h-79q-195 0 -285 96t-90 296q0 163 -12 439q-14 290 -27 380q-1 5 -1.5 10t-0.5 10z" />
<glyph unicode="&#x624;" horiz-adv-x="949" arabic-form="final" d="M80 -453q0 37 36 54q65 31 142.5 74.5t168.5 100.5q246 154 250 215q-203 0 -264 24q-134 53 -134 244q0 175 58 327q79 211 236 211q218 0 286 -342h90v-454h-79q-25 -333 -178 -498q-23 -24 -60 -24h-469q-83 0 -83 68zM368 918l6 100q29 24 52.5 41.5t41.5 27.5 q-14 1 -27.5 8t-23.5 19.5t-16.5 28t-6.5 31.5q0 71 46 140q49 79 121 79q21 0 47.5 -8.5t48.5 -24t37 -36t15 -42.5q0 -18 -20 -18q-5 0 -15 1.5t-20.5 4t-20.5 4.5t-15 2q-24 0 -45.5 -5t-38 -14t-26 -21t-9.5 -26q0 -44 86 -44q18 0 70 18l98 35l-21 -131 q-197 -57 -364 -170zM448 389q0 -38 113 -38q103 0 103 19q0 15 -13 31t-32 28.5t-40.5 20.5t-38.5 8q-92 0 -92 -69z" />
<glyph unicode="&#x625;" horiz-adv-x="616" arabic-form="final" d="M121 1233q0 31 18 46l291 205q30 21 41 21q13 0 13 -24v-881q0 -146 129 -146h3v-452h-79q-195 0 -285 96t-90 296q0 163 -12 439q-14 290 -27 380q-1 5 -1.5 10t-0.5 10zM133 -580l6 100q29 24 52.5 41.5t41.5 27.5q-14 1 -27.5 8t-23.5 19.5t-16.5 28t-6.5 31.5 q0 71 46 140q49 79 121 79q21 0 47.5 -8.5t48.5 -24t37 -36t15 -42.5q0 -18 -20 -18q-5 0 -15 1.5t-20.5 4t-20.5 4.5t-15 2q-24 0 -45.5 -5t-38 -14t-26 -21t-9.5 -26q0 -44 86 -44q18 0 70 18l98 35l-21 -131q-197 -57 -364 -170z" />
<glyph unicode="&#x626;" horiz-adv-x="1608" arabic-form="final" d="M121 -17q0 135 56 286q58 159 122 159q79 0 79 -89q0 -12 -3 -37t-6.5 -53t-6.5 -53.5t-3 -38.5q0 -284 492 -284q83 0 164.5 3.5t146 11t104.5 18.5t40 25q0 10 -25 15.5t-61.5 8t-78 3t-74.5 0.5q-149 0 -206 19q-97 31 -97 130q0 205 294 292q189 56 455 56h95v-454 h-32q-32 0 -72 48q-53 62 -108 89q-96 48 -263 48q-36 0 -71 -4t-62.5 -10.5t-44.5 -15.5t-17 -18q0 -24 113 -24q182 0 251 -20q137 -41 137 -178q0 -429 -696 -429q-158 0 -275 28.5t-194 88.5t-115 154t-38 225zM502 578l6 100q29 24 52.5 41.5t41.5 27.5q-14 1 -27.5 8 t-23.5 19.5t-16.5 28t-6.5 31.5q0 71 46 140q49 79 121 79q21 0 47.5 -8.5t48.5 -24t37 -36t15 -42.5q0 -18 -20 -18q-5 0 -15 1.5t-20.5 4t-20.5 4.5t-15 2q-24 0 -45.5 -5t-38 -14t-26 -21t-9.5 -26q0 -44 86 -44q18 0 70 18l98 35l-21 -131q-197 -57 -364 -170z" />
<glyph unicode="&#x626;" horiz-adv-x="603" arabic-form="initial" d="M-17 1v454h291q59 0 59 33q0 16 -17 39q-63 81 -160 167q-8 6 -8 16q0 7 8 20l186 270q15 22 22 22q8 0 25 -20q156 -192 156 -476q0 -279 -79 -392q-91 -133 -340 -133h-143zM40 1028l6 100q29 24 52.5 41.5t41.5 27.5q-14 1 -27.5 8t-23.5 19.5t-16.5 28t-6.5 31.5 q0 71 46 140q49 79 121 79q21 0 47.5 -8.5t48.5 -24t37 -36t15 -42.5q0 -18 -20 -18q-5 0 -15 1.5t-20.5 4t-20.5 4.5t-15 2q-24 0 -45.5 -5t-38 -14t-26 -21t-9.5 -26q0 -44 86 -44q18 0 70 18l98 35l-21 -131q-197 -57 -364 -170z" />
<glyph unicode="&#x626;" horiz-adv-x="577" arabic-form="medial" d="M-70 1v454h105q107 0 149 64q10 14 40 117q19 64 69 64q47 0 62 -64q11 -50 19.5 -79t13.5 -38q37 -64 142 -64h47v-454h-47q-144 0 -223 133q-78 -133 -237 -133h-140zM78 805l6 100q29 24 52.5 41.5t41.5 27.5q-14 1 -27.5 8t-23.5 19.5t-16.5 28t-6.5 31.5 q0 71 46 140q49 79 121 79q21 0 47.5 -8.5t48.5 -24t37 -36t15 -42.5q0 -18 -20 -18q-5 0 -15 1.5t-20.5 4t-20.5 4.5t-15 2q-24 0 -45.5 -5t-38 -14t-26 -21t-9.5 -26q0 -44 86 -44q18 0 70 18l98 35l-21 -131q-197 -57 -364 -170z" />
<glyph unicode="&#x627;" horiz-adv-x="606" arabic-form="isolated" d="M120 1144l302 329q28 31 38 31q8 0 14 -28q33 -135 53 -404t4 -550q0 -27 -4 -64t-10.5 -79t-15 -85t-18.5 -83t-20.5 -73t-20.5 -54q-42 -88 -79 -88q-40 0 -69 107q-41 151 -174 1041z" />
<glyph unicode="&#x627;" horiz-adv-x="616" arabic-form="final" d="M121 1233q0 31 18 46l291 205q30 21 41 21q13 0 13 -24v-881q0 -146 129 -146h3v-452h-79q-195 0 -285 96t-90 296q0 163 -12 439q-14 290 -27 380q-1 5 -1.5 10t-0.5 10z" />
<glyph unicode="&#x628;" horiz-adv-x="1658" arabic-form="final" d="M123 420q0 101 29 209q34 130 92 130q62 0 68 -98q6 -128 59 -183q95 -98 376 -98q300 0 488 79q122 51 213 148q73 79 93 79q53 0 53 -66q0 -9 -5 -28.5t-12.5 -41.5t-15.5 -41.5t-13 -27.5q21 -26 76 -26h34v-454h-37q-164 0 -248 173q-241 -232 -719 -232 q-138 0 -238.5 28.5t-165.5 87.5t-96 149t-31 213zM584 -352q0 10 10 20l125 126q8 8 17 8q8 0 18 -8l138 -132q7 -9 7 -13q0 -7 -8 -15l-134 -134q-7 -7 -14 -7q-8 0 -15 7l-136 132q-8 8 -8 16z" />
<glyph unicode="&#x628;" horiz-adv-x="603" arabic-form="initial" d="M-17 1v454h291q59 0 59 33q0 16 -17 39q-63 81 -160 167q-8 6 -8 16q0 7 8 20l186 270q15 22 22 22q8 0 25 -20q156 -192 156 -476q0 -279 -79 -392q-91 -133 -340 -133h-143zM106 -318q0 10 10 20l125 126q8 8 17 8q8 0 18 -8l138 -132q7 -9 7 -13q0 -7 -8 -15 l-134 -134q-7 -7 -14 -7q-8 0 -15 7l-136 132q-8 8 -8 16z" />
<glyph unicode="&#x628;" horiz-adv-x="577" arabic-form="medial" d="M-70 1v454h105q107 0 149 64q10 14 40 117q19 64 69 64q47 0 62 -64q11 -50 19.5 -79t13.5 -38q37 -64 142 -64h47v-454h-47q-144 0 -223 133q-78 -133 -237 -133h-140zM108 -278q0 10 10 20l125 126q8 8 17 8q8 0 18 -8l138 -132q7 -9 7 -13q0 -7 -8 -15l-134 -134 q-7 -7 -14 -7q-8 0 -15 7l-136 132q-8 8 -8 16z" />
<glyph unicode="&#x629;" horiz-adv-x="945" arabic-form="final" d="M87 1244q0 9 10 19l109 111q8 8 16 8q6 0 16 -8l111 -107l106 107q7 7 15 7t16 -7l121 -117q7 -7 7 -12q0 -7 -8 -13l-119 -117q-7 -7 -13 -7q-7 0 -13 7l-112 110l-110 -110q-7 -7 -13 -7q-7 0 -13 7l-119 116q-7 6 -7 13zM122 354q0 114 82 229q4 5 65 59t181 159 l-19 86l233 235q14 14 23 14q11 0 16 -26l95 -515q26 -140 110 -140h37v-454h-73q-220 0 -282 236q-44 -101 -93 -101q-94 0 -214 49q-161 65 -161 169zM353 503q0 -48 195 -58l-56 204q-139 -103 -139 -146z" />
<glyph unicode="&#x62a;" horiz-adv-x="1658" arabic-form="final" d="M123 420q0 101 29 209q34 130 92 130q62 0 68 -98q6 -128 59 -183q95 -98 376 -98q300 0 488 79q122 51 213 148q73 79 93 79q53 0 53 -66q0 -9 -5 -28.5t-12.5 -41.5t-15.5 -41.5t-13 -27.5q21 -26 76 -26h34v-454h-37q-164 0 -248 173q-241 -232 -719 -232 q-138 0 -238.5 28.5t-165.5 87.5t-96 149t-31 213zM573 943q0 9 10 19l109 111q8 8 16 8q6 0 16 -8l111 -107l106 107q7 7 15 7t16 -7l121 -117q7 -7 7 -12q0 -7 -8 -13l-119 -117q-7 -7 -13 -7q-7 0 -13 7l-112 110l-110 -110q-7 -7 -13 -7q-7 0 -13 7l-119 116q-7 6 -7 13 z" />
<glyph unicode="&#x62a;" horiz-adv-x="603" arabic-form="initial" d="M-46 1261q0 9 10 19l109 111q8 8 16 8q6 0 16 -8l111 -107l106 107q7 7 15 7t16 -7l121 -117q7 -7 7 -12q0 -7 -8 -13l-119 -117q-7 -7 -13 -7q-7 0 -13 7l-112 110l-110 -110q-7 -7 -13 -7q-7 0 -13 7l-119 116q-7 6 -7 13zM-17 1v454h291q59 0 59 33q0 16 -17 39 q-63 81 -160 167q-8 6 -8 16q0 7 8 20l186 270q15 22 22 22q8 0 25 -20q156 -192 156 -476q0 -279 -79 -392q-91 -133 -340 -133h-143z" />
<glyph unicode="&#x62a;" horiz-adv-x="577" arabic-form="medial" d="M-70 1v454h105q107 0 149 64q10 14 40 117q19 64 69 64q47 0 62 -64q11 -50 19.5 -79t13.5 -38q37 -64 142 -64h47v-454h-47q-144 0 -223 133q-78 -133 -237 -133h-140zM12 988q0 9 10 19l109 111q8 8 16 8q6 0 16 -8l111 -107l106 107q7 7 15 7t16 -7l121 -117 q7 -7 7 -12q0 -7 -8 -13l-119 -117q-7 -7 -13 -7q-7 0 -13 7l-112 110l-110 -110q-7 -7 -13 -7q-7 0 -13 7l-119 116q-7 6 -7 13z" />
<glyph unicode="&#x62b;" horiz-adv-x="1658" arabic-form="final" d="M123 420q0 101 29 209q34 130 92 130q62 0 68 -98q6 -128 59 -183q95 -98 376 -98q300 0 488 79q122 51 213 148q73 79 93 79q53 0 53 -66q0 -9 -5 -28.5t-12.5 -41.5t-15.5 -41.5t-13 -27.5q21 -26 76 -26h34v-454h-37q-164 0 -248 173q-241 -232 -719 -232 q-138 0 -238.5 28.5t-165.5 87.5t-96 149t-31 213zM563 996q0 6 6 12l118 118q7 5 13 5q5 0 12 -5l115 -115l116 115q5 5 11 5q5 0 13 -5l119 -117q6 -6 6 -13t-8 -15l-110 -112q-8 -8 -14 -10q-7 2 -15 10l-118 112l-109 -112q-7 -7 -14 -7q-8 0 -15 7l-121 116q-5 7 -5 11 zM691 1224q0 6 6 12l117 118q7 6 13 6t12 -6l119 -117q5 -7 5 -11q0 -8 -9 -17l-108 -111q-8 -8 -14 -8q-8 0 -16 8l-120 115q-5 4 -5 11z" />
<glyph unicode="&#x62b;" horiz-adv-x="603" arabic-form="initial" d="M-17 1v454h291q59 0 59 33q0 16 -17 39q-63 81 -160 167q-8 6 -8 16q0 7 8 20l186 270q15 22 22 22q8 0 25 -20q156 -192 156 -476q0 -279 -79 -392q-91 -133 -340 -133h-143zM16 1233q0 6 6 12l118 118q7 5 13 5q5 0 12 -5l115 -115l116 115q5 5 11 5q5 0 13 -5 l119 -117q6 -6 6 -13t-8 -15l-110 -112q-8 -8 -14 -10q-7 2 -15 10l-118 112l-109 -112q-7 -7 -14 -7q-8 0 -15 7l-121 116q-5 7 -5 11zM144 1461q0 6 6 12l117 118q7 6 13 6t12 -6l119 -117q5 -7 5 -11q0 -8 -9 -17l-108 -111q-8 -8 -14 -8q-8 0 -16 8l-120 115q-5 4 -5 11 z" />
<glyph unicode="&#x62b;" horiz-adv-x="577" arabic-form="medial" d="M-70 1v454h105q107 0 149 64q10 14 40 117q19 64 69 64q47 0 62 -64q11 -50 19.5 -79t13.5 -38q37 -64 142 -64h47v-454h-47q-144 0 -223 133q-78 -133 -237 -133h-140zM-11 1004q0 6 6 12l118 118q7 5 13 5q5 0 12 -5l115 -115l116 115q5 5 11 5q5 0 13 -5l119 -117 q6 -6 6 -13t-8 -15l-110 -112q-8 -8 -14 -10q-7 2 -15 10l-118 112l-109 -112q-7 -7 -14 -7q-8 0 -15 7l-121 116q-5 7 -5 11zM117 1232q0 6 6 12l117 118q7 6 13 6t12 -6l119 -117q5 -7 5 -11q0 -8 -9 -17l-108 -111q-8 -8 -14 -8q-8 0 -16 8l-120 115q-5 4 -5 11z" />
<glyph unicode="&#x62c;" horiz-adv-x="1353" arabic-form="final" d="M122 31q0 215 200 364q130 96 401 190q-118 11 -188 16.5t-93 5.5q-83 0 -148 -61t-79 -61q-54 0 -54 91q0 88 77 225q101 179 248 179q95 0 295 -42q202 -41 304 -41h188q44 0 44 -22q0 -13 -11 -46l-99 -284h-102q27 -90 186 -90h62v-454h-58q-69 0 -126 29.5t-97.5 81 t-63 122.5t-22.5 155q0 80 19 159q-210 -52 -317 -138q-146 -119 -146 -326q0 -247 228 -329q117 -42 373 -42q133 0 133 -61q0 -33 -37.5 -58.5t-97 -43.5t-133.5 -27t-147 -9q-173 0 -310 34.5t-232 100.5t-146 162.5t-51 219.5zM696 40q0 10 10 20l125 126q8 8 17 8 q8 0 18 -8l138 -132q7 -9 7 -13q0 -7 -8 -15l-134 -134q-7 -7 -14 -7q-8 0 -15 7l-136 132q-8 8 -8 16z" />
<glyph unicode="&#x62c;" horiz-adv-x="1240" arabic-form="initial" d="M-70 1v454h269q307 0 457 56l-199 83q-104 43 -151 43q-46 0 -106 -42q-59 -42 -76 -42q-57 0 -57 66q0 72 96 206q120 166 264 166q100 0 252 -95q98 -62 166.5 -99.5t108.5 -51.5q34 -12 90 -27t136 -32q31 -7 31 -25q0 -11 -11 -38l-114 -269h-20q-149 0 -237 -42 q-61 -29 -177 -122q-57 -46 -102.5 -77t-80.5 -47q-144 -65 -316 -65h-223zM497 -241q0 10 10 20l125 126q8 8 17 8q8 0 18 -8l138 -132q7 -9 7 -13q0 -7 -8 -15l-134 -134q-7 -7 -14 -7q-8 0 -15 7l-136 132q-8 8 -8 16z" />
<glyph unicode="&#x62c;" horiz-adv-x="1244" arabic-form="medial" d="M-70 1v454h213q289 0 508 104q-260 78 -328 78q-63 0 -116 -53t-87 -53q-57 0 -57 82q0 89 77 226q99 175 241 175q76 0 302 -77q228 -77 357 -77h115q36 0 36 -15q0 -7 -8 -34l-97 -306h-186q47 -50 189 -50h155v-454h-166q-269 0 -352 308q-108 -144 -292 -229 q-174 -79 -364 -79h-140zM482 -259q0 10 10 20l125 126q8 8 17 8q8 0 18 -8l138 -132q7 -9 7 -13q0 -7 -8 -15l-134 -134q-7 -7 -14 -7q-8 0 -15 7l-136 132q-8 8 -8 16z" />
<glyph unicode="&#x62d;" horiz-adv-x="1353" arabic-form="final" d="M122 31q0 215 200 364q130 96 401 190q-118 11 -188 16.5t-93 5.5q-83 0 -148 -61t-79 -61q-54 0 -54 91q0 88 77 225q101 179 248 179q95 0 295 -42q202 -41 304 -41h188q44 0 44 -22q0 -13 -11 -46l-99 -284h-102q27 -90 186 -90h62v-454h-58q-69 0 -126 29.5t-97.5 81 t-63 122.5t-22.5 155q0 80 19 159q-210 -52 -317 -138q-146 -119 -146 -326q0 -247 228 -329q117 -42 373 -42q133 0 133 -61q0 -33 -37.5 -58.5t-97 -43.5t-133.5 -27t-147 -9q-173 0 -310 34.5t-232 100.5t-146 162.5t-51 219.5z" />
<glyph unicode="&#x62d;" horiz-adv-x="1240" arabic-form="initial" d="M-70 1v454h269q307 0 457 56l-199 83q-104 43 -151 43q-46 0 -106 -42q-59 -42 -76 -42q-57 0 -57 66q0 72 96 206q120 166 264 166q100 0 252 -95q98 -62 166.5 -99.5t108.5 -51.5q34 -12 90 -27t136 -32q31 -7 31 -25q0 -11 -11 -38l-114 -269h-20q-149 0 -237 -42 q-61 -29 -177 -122q-57 -46 -102.5 -77t-80.5 -47q-144 -65 -316 -65h-223z" />
<glyph unicode="&#x62d;" horiz-adv-x="1244" arabic-form="medial" d="M-70 1v454h213q289 0 508 104q-260 78 -328 78q-63 0 -116 -53t-87 -53q-57 0 -57 82q0 89 77 226q99 175 241 175q76 0 302 -77q228 -77 357 -77h115q36 0 36 -15q0 -7 -8 -34l-97 -306h-186q47 -50 189 -50h155v-454h-166q-269 0 -352 308q-108 -144 -292 -229 q-174 -79 -364 -79h-140z" />
<glyph unicode="&#x62e;" horiz-adv-x="1353" arabic-form="final" d="M122 31q0 215 200 364q130 96 401 190q-118 11 -188 16.5t-93 5.5q-83 0 -148 -61t-79 -61q-54 0 -54 91q0 88 77 225q101 179 248 179q95 0 295 -42q202 -41 304 -41h188q44 0 44 -22q0 -13 -11 -46l-99 -284h-102q27 -90 186 -90h62v-454h-58q-69 0 -126 29.5t-97.5 81 t-63 122.5t-22.5 155q0 80 19 159q-210 -52 -317 -138q-146 -119 -146 -326q0 -247 228 -329q117 -42 373 -42q133 0 133 -61q0 -33 -37.5 -58.5t-97 -43.5t-133.5 -27t-147 -9q-173 0 -310 34.5t-232 100.5t-146 162.5t-51 219.5zM609 1265q0 10 10 20l125 126q8 8 17 8 q8 0 18 -8l138 -132q7 -9 7 -13q0 -7 -8 -15l-134 -134q-7 -7 -14 -7q-8 0 -15 7l-136 132q-8 8 -8 16z" />
<glyph unicode="&#x62e;" horiz-adv-x="1240" arabic-form="initial" d="M-70 1v454h269q307 0 457 56l-199 83q-104 43 -151 43q-46 0 -106 -42q-59 -42 -76 -42q-57 0 -57 66q0 72 96 206q120 166 264 166q100 0 252 -95q98 -62 166.5 -99.5t108.5 -51.5q34 -12 90 -27t136 -32q31 -7 31 -25q0 -11 -11 -38l-114 -269h-20q-149 0 -237 -42 q-61 -29 -177 -122q-57 -46 -102.5 -77t-80.5 -47q-144 -65 -316 -65h-223zM462 1279q0 10 10 20l125 126q8 8 17 8q8 0 18 -8l138 -132q7 -9 7 -13q0 -7 -8 -15l-134 -134q-7 -7 -14 -7q-8 0 -15 7l-136 132q-8 8 -8 16z" />
<glyph unicode="&#x62e;" horiz-adv-x="1244" arabic-form="medial" d="M-70 1v454h213q289 0 508 104q-260 78 -328 78q-63 0 -116 -53t-87 -53q-57 0 -57 82q0 89 77 226q99 175 241 175q76 0 302 -77q228 -77 357 -77h115q36 0 36 -15q0 -7 -8 -34l-97 -306h-186q47 -50 189 -50h155v-454h-166q-269 0 -352 308q-108 -144 -292 -229 q-174 -79 -364 -79h-140zM440 1313q0 10 10 20l125 126q8 8 17 8q8 0 18 -8l138 -132q7 -9 7 -13q0 -7 -8 -15l-134 -134q-7 -7 -14 -7q-8 0 -15 7l-136 132q-8 8 -8 16z" />
<glyph unicode="&#x62f;" horiz-adv-x="1182" arabic-form="final" d="M123 326q0 77 22 164q30 121 83 121q56 0 72 -55q28 -92 36 -102q40 -55 146 -55q39 0 79.5 7t73 18t53.5 26t21 32q0 5 -3 13l-166 397l222 224q16 16 24 16q7 0 16 -24l188 -517q49 -136 146 -136h46v-454h-58q-191 0 -313 248q-43 -76 -82 -129t-76 -82 q-89 -71 -224 -71q-306 0 -306 359z" />
<glyph unicode="&#x630;" horiz-adv-x="1182" arabic-form="final" d="M123 326q0 77 22 164q30 121 83 121q56 0 72 -55q28 -92 36 -102q40 -55 146 -55q39 0 79.5 7t73 18t53.5 26t21 32q0 5 -3 13l-166 397l222 224q16 16 24 16q7 0 16 -24l188 -517q49 -136 146 -136h46v-454h-58q-191 0 -313 248q-43 -76 -82 -129t-76 -82 q-89 -71 -224 -71q-306 0 -306 359zM456 1401q0 10 10 20l125 126q8 8 17 8q8 0 18 -8l138 -132q7 -9 7 -13q0 -7 -8 -15l-134 -134q-7 -7 -14 -7q-8 0 -15 7l-136 132q-8 8 -8 16z" />
<glyph unicode="&#x631;" horiz-adv-x="974" arabic-form="final" d="M85 -453q0 37 35 54q64 31 145 79.5t181 116.5q252 172 252 245q0 60 -225 270l160 330q8 17 19 17q6 0 18 -10q48 -51 81 -82.5t51 -45.5q84 -66 166 -66h6v-455h-25q-41 0 -74 24v-88q0 -111 -61 -246q-53 -119 -116 -187q-23 -24 -61 -24h-469q-83 0 -83 68z" />
<glyph unicode="&#x632;" horiz-adv-x="974" arabic-form="final" d="M85 -453q0 37 35 54q64 31 145 79.5t181 116.5q252 172 252 245q0 60 -225 270l160 330q8 17 19 17q6 0 18 -10q48 -51 81 -82.5t51 -45.5q84 -66 166 -66h6v-455h-25q-41 0 -74 24v-88q0 -111 -61 -246q-53 -119 -116 -187q-23 -24 -61 -24h-469q-83 0 -83 68zM449 945 q0 10 10 20l125 126q8 8 17 8q8 0 18 -8l138 -132q7 -9 7 -13q0 -7 -8 -15l-134 -134q-7 -7 -14 -7q-8 0 -15 7l-136 132q-8 8 -8 16z" />
<glyph unicode="&#x633;" horiz-adv-x="2097" arabic-form="final" d="M123 -60q0 112 49 271q55 184 123 184q17 0 28.5 -4.5t18.5 -16.5t10 -33t3 -55q0 -9 -4 -31t-8.5 -47t-8 -48t-3.5 -35q0 -197 397 -197q119 0 223 27q157 40 157 126q0 72 -201 234l156 304q9 17 16 17q6 0 23 -17q98 -98 143 -129q66 -45 135 -45q65 0 89 55l10 42.5 t16 60.5q15 55 67 55q45 0 56 -56q1 -12 18 -103q20 -56 83 -56q59 0 82 56q6 30 12.5 58.5t15.5 51t22.5 36.5t33.5 14t32 -13.5t20.5 -35t14 -49t11.5 -55.5q23 -53 87 -53h47v-451h-48q-102 0 -188 110q-24 -29 -38 -46t-19 -21q-41 -35 -92 -35q-115 0 -170 96 q-52 -94 -122 -94q-79 0 -128 33q0 -550 -606 -550q-275 0 -419 113t-144 332z" />
<glyph unicode="&#x633;" horiz-adv-x="1071" arabic-form="initial" d="M-70 -1v451h116q69 0 98 56q8 25 15 49t14 49q25 63 65 63q47 0 62 -56l29 -105q29 -56 106 -56q58 0 78 57q4 17 9 43.5t14 61.5q13 57 66 57q46 0 60 -60l26 -111q28 -60 105 -60q93 0 93 67q0 19 -2.5 33.5t-8 31t-15 37.5t-22.5 52l129 142q9 10 17 10t14 -13 q53 -133 53 -269q0 -174 -53 -324q-73 -205 -216 -205q-120 0 -199 132q-58 -130 -162 -130q-146 0 -195 133q-61 -136 -178 -136h-118z" />
<glyph unicode="&#x633;" horiz-adv-x="1168" arabic-form="medial" d="M-70 -1v451h116q75 0 105 61q9 33 17.5 64t19 55.5t25 39.5t36.5 15q50 0 66 -61q2 -7 8.5 -34.5t19.5 -78.5q24 -61 92 -61q27 0 42.5 9t26 29t18.5 53t21 80q16 60 66 60q23 0 35.5 -9.5t20.5 -29.5t14.5 -52.5t16.5 -77.5q21 -59 79 -59q59 0 80 58q4 18 9.5 45 t14.5 64q13 58 68 58q46 0 62 -58q1 -4 8 -31t20 -78q25 -58 89 -58h42v-451h-43q-99 0 -189 130q-96 -130 -175 -130q-24 0 -49.5 10.5t-49 29t-43 43t-31.5 51.5q-92 -134 -167 -134q-113 0 -178 134q-90 -137 -195 -137h-118z" />
<glyph unicode="&#x634;" horiz-adv-x="2097" arabic-form="final" d="M123 -60q0 112 49 271q55 184 123 184q17 0 28.5 -4.5t18.5 -16.5t10 -33t3 -55q0 -9 -4 -31t-8.5 -47t-8 -48t-3.5 -35q0 -197 397 -197q119 0 223 27q157 40 157 126q0 72 -201 234l156 304q9 17 16 17q6 0 23 -17q98 -98 143 -129q66 -45 135 -45q65 0 89 55l10 42.5 t16 60.5q15 55 67 55q45 0 56 -56q1 -12 18 -103q20 -56 83 -56q59 0 82 56q6 30 12.5 58.5t15.5 51t22.5 36.5t33.5 14t32 -13.5t20.5 -35t14 -49t11.5 -55.5q23 -53 87 -53h47v-451h-48q-102 0 -188 110q-24 -29 -38 -46t-19 -21q-41 -35 -92 -35q-115 0 -170 96 q-52 -94 -122 -94q-79 0 -128 33q0 -550 -606 -550q-275 0 -419 113t-144 332zM1283 950q0 6 6 12l118 118q7 5 13 5q5 0 12 -5l115 -115l116 115q5 5 11 5q5 0 13 -5l119 -117q6 -6 6 -13t-8 -15l-110 -112q-8 -8 -14 -10q-7 2 -15 10l-118 112l-109 -112q-7 -7 -14 -7 q-8 0 -15 7l-121 116q-5 7 -5 11zM1411 1178q0 6 6 12l117 118q7 6 13 6t12 -6l119 -117q5 -7 5 -11q0 -8 -9 -17l-108 -111q-8 -8 -14 -8q-8 0 -16 8l-120 115q-5 4 -5 11z" />
<glyph unicode="&#x634;" horiz-adv-x="1071" arabic-form="initial" d="M-70 -1v451h116q69 0 98 56q8 25 15 49t14 49q25 63 65 63q47 0 62 -56l29 -105q29 -56 106 -56q58 0 78 57q4 17 9 43.5t14 61.5q13 57 66 57q46 0 60 -60l26 -111q28 -60 105 -60q93 0 93 67q0 19 -2.5 33.5t-8 31t-15 37.5t-22.5 52l129 142q9 10 17 10t14 -13 q53 -133 53 -269q0 -174 -53 -324q-73 -205 -216 -205q-120 0 -199 132q-58 -130 -162 -130q-146 0 -195 133q-61 -136 -178 -136h-118zM330 969q0 5 6 11l111 114q6 5 12 5q5 0 11 -5l108 -111l109 111q5 5 11 5q4 0 12 -5l112 -113q5 -6 5 -12q0 -7 -7 -15l-104 -109 q-7 -7 -13 -9q-6 2 -14 9l-111 109l-102 -109q-7 -6 -13 -6q-8 0 -14 6l-114 113q-5 7 -5 11zM450 1189q0 6 6 12l110 114q7 6 12 6q6 0 12 -6l111 -113q5 -7 5 -11q0 -7 -8 -16l-102 -108q-7 -7 -13 -7q-8 0 -15 7l-113 112q-5 4 -5 10z" />
<glyph unicode="&#x634;" horiz-adv-x="1168" arabic-form="medial" d="M-70 -1v451h116q75 0 105 61q9 33 17.5 64t19 55.5t25 39.5t36.5 15q50 0 66 -61q2 -7 8.5 -34.5t19.5 -78.5q24 -61 92 -61q27 0 42.5 9t26 29t18.5 53t21 80q16 60 66 60q23 0 35.5 -9.5t20.5 -29.5t14.5 -52.5t16.5 -77.5q21 -59 79 -59q59 0 80 58q4 18 9.5 45 t14.5 64q13 58 68 58q46 0 62 -58q1 -4 8 -31t20 -78q25 -58 89 -58h42v-451h-43q-99 0 -189 130q-96 -130 -175 -130q-24 0 -49.5 10.5t-49 29t-43 43t-31.5 51.5q-92 -134 -167 -134q-113 0 -178 134q-90 -137 -195 -137h-118zM345 985q0 6 6 12l118 118q7 5 13 5 q5 0 12 -5l115 -115l116 115q5 5 11 5q5 0 13 -5l119 -117q6 -6 6 -13t-8 -15l-110 -112q-8 -8 -14 -10q-7 2 -15 10l-118 112l-109 -112q-7 -7 -14 -7q-8 0 -15 7l-121 116q-5 7 -5 11zM473 1213q0 6 6 12l117 118q7 6 13 6t12 -6l119 -117q5 -7 5 -11q0 -8 -9 -17 l-108 -111q-8 -8 -14 -8q-8 0 -16 8l-120 115q-5 4 -5 11z" />
<glyph unicode="&#x635;" horiz-adv-x="2219" arabic-form="final" d="M123 -60q0 115 47 271q55 184 125 184q17 0 28.5 -4.5t18.5 -17t10 -33.5t3 -54q0 -9 -4 -31t-8.5 -46.5t-8 -47.5t-3.5 -35q0 -198 397 -198q119 0 223 27q157 40 157 126q0 72 -201 234l156 304q9 17 17 17t22 -17q138 -162 166 -162q7 0 107 121q116 140 222 223 q154 121 290 121q55 0 101.5 -21t80.5 -57t53.5 -84.5t19.5 -102.5q0 -117 -28 -179q8 -23 52 -23h53v-454h-49q-151 0 -238 173q-143 -173 -426 -173q-112 0 -214 44q0 -550 -606 -550q-275 0 -419 113t-144 332zM1404 409q22 -1 43 -1.5t42 -0.5q82 0 154.5 8t126.5 21.5 t85 30.5t31 36q0 115 -137 115q-133 0 -345 -209z" />
<glyph unicode="&#x635;" horiz-adv-x="1279" arabic-form="initial" d="M-70 1v454h114q64 0 96 60q6 10 39 113q19 60 52 60q44 0 71 -112q25 -112 80 -112q8 0 107 120q60 72 113.5 127t104.5 95q151 120 284 120q58 0 107 -22t83.5 -59t54 -86t19.5 -103q0 -217 -151 -410q-188 -240 -500 -240q-50 0 -104 9.5t-103.5 26t-90 39t-62.5 48.5 q-81 -128 -188 -128h-126zM514 415q23 -1 45.5 -1.5t44.5 -0.5q81 0 152.5 8t124.5 21.5t84 30.5t31 35q0 115 -137 115q-134 0 -345 -208z" />
<glyph unicode="&#x635;" horiz-adv-x="1323" arabic-form="medial" d="M-70 1v454h114q64 0 96 60q6 10 39 113q19 60 52 60q44 0 71 -111q26 -110 80 -110q8 0 107 119q120 144 218 221q152 119 287 119q56 0 103.5 -21t82.5 -58t55 -87.5t20 -108.5q0 -97 -39 -173q12 -23 53 -23h54v-454h-60q-147 0 -229 175q-128 -170 -430 -170 q-50 0 -104 9.5t-103.5 26t-90 39t-62.5 48.5q-81 -128 -188 -128h-126zM514 415q23 -1 45.5 -1.5t44.5 -0.5q81 0 152.5 8t124.5 21.5t84 30.5t31 35q0 115 -137 115q-134 0 -345 -208z" />
<glyph unicode="&#x636;" horiz-adv-x="2219" arabic-form="final" d="M123 -60q0 115 47 271q55 184 125 184q17 0 28.5 -4.5t18.5 -17t10 -33.5t3 -54q0 -9 -4 -31t-8.5 -46.5t-8 -47.5t-3.5 -35q0 -198 397 -198q119 0 223 27q157 40 157 126q0 72 -201 234l156 304q9 17 17 17t22 -17q138 -162 166 -162q7 0 107 121q116 140 222 223 q154 121 290 121q55 0 101.5 -21t80.5 -57t53.5 -84.5t19.5 -102.5q0 -117 -28 -179q8 -23 52 -23h53v-454h-49q-151 0 -238 173q-143 -173 -426 -173q-112 0 -214 44q0 -550 -606 -550q-275 0 -419 113t-144 332zM1204 1122q0 10 10 20l125 126q8 8 17 8q8 0 18 -8 l138 -132q7 -9 7 -13q0 -7 -8 -15l-134 -134q-7 -7 -14 -7q-8 0 -15 7l-136 132q-8 8 -8 16zM1404 409q22 -1 43 -1.5t42 -0.5q82 0 154.5 8t126.5 21.5t85 30.5t31 36q0 115 -137 115q-133 0 -345 -209z" />
<glyph unicode="&#x636;" horiz-adv-x="1279" arabic-form="initial" d="M-70 1v454h114q64 0 96 60q6 10 39 113q19 60 52 60q44 0 71 -112q25 -112 80 -112q8 0 107 120q60 72 113.5 127t104.5 95q151 120 284 120q58 0 107 -22t83.5 -59t54 -86t19.5 -103q0 -217 -151 -410q-188 -240 -500 -240q-50 0 -104 9.5t-103.5 26t-90 39t-62.5 48.5 q-81 -128 -188 -128h-126zM315 1155q0 10 10 20l125 126q8 8 17 8q8 0 18 -8l138 -132q7 -9 7 -13q0 -7 -8 -15l-134 -134q-7 -7 -14 -7q-8 0 -15 7l-136 132q-8 8 -8 16zM514 415q23 -1 45.5 -1.5t44.5 -0.5q81 0 152.5 8t124.5 21.5t84 30.5t31 35q0 115 -137 115 q-134 0 -345 -208z" />
<glyph unicode="&#x636;" horiz-adv-x="1323" arabic-form="medial" d="M-70 1v454h114q64 0 96 60q6 10 39 113q19 60 52 60q44 0 71 -111q26 -110 80 -110q8 0 107 119q120 144 218 221q152 119 287 119q56 0 103.5 -21t82.5 -58t55 -87.5t20 -108.5q0 -97 -39 -173q12 -23 53 -23h54v-454h-60q-147 0 -229 175q-128 -170 -430 -170 q-50 0 -104 9.5t-103.5 26t-90 39t-62.5 48.5q-81 -128 -188 -128h-126zM336 1167q0 10 10 20l125 126q8 8 17 8q8 0 18 -8l138 -132q7 -9 7 -13q0 -7 -8 -15l-134 -134q-7 -7 -14 -7q-8 0 -15 7l-136 132q-8 8 -8 16zM514 415q23 -1 45.5 -1.5t44.5 -0.5q81 0 152.5 8 t124.5 21.5t84 30.5t31 35q0 115 -137 115q-134 0 -345 -208z" />
<glyph unicode="&#x637;" horiz-adv-x="1632" arabic-form="final" d="M122 390q0 16 4.5 26.5t17.5 16.5t36.5 8.5t60.5 2.5q9 0 19 -0.5t36.5 -1.5t77.5 -2t142 -2q0 270 -58 524q-22 94 -46 170t-52 136l258 225q34 30 46 30t33 -46l152 -338q17 -39 17 -51t-21 -12q-23 0 -72 15q6 -53 6 -108q0 -219 -86 -432q361 403 616 403 q54 0 98.5 -19.5t76.5 -54t49.5 -82.5t17.5 -105q0 -135 -47 -212q15 -26 85 -26h43v-454h-30q-200 0 -296 214q-232 -211 -578 -211q-147 0 -302 89q-118 67 -219 176q-85 91 -85 121zM770 445q23 -1 45.5 -1.5t44.5 -0.5q81 0 152.5 8t124.5 21.5t84 30.5t31 35 q0 53 -38.5 84t-98.5 31q-137 0 -345 -208z" />
<glyph unicode="&#x637;" horiz-adv-x="1254" arabic-form="initial" d="M-70 1v454h250q0 481 -156 813l259 225q34 30 45 30q12 0 33 -46l152 -338q17 -39 17 -51t-21 -12q-23 0 -72 15q6 -53 6 -108q0 -219 -86 -432q361 403 616 403q54 0 98.5 -19.5t76.5 -54t49.5 -82.5t17.5 -105q0 -227 -176 -421q-244 -271 -727 -271h-382zM434 445 q23 -1 45.5 -1.5t44.5 -0.5q81 0 152.5 8t124.5 21.5t84 30.5t31 35q0 115 -137 115q-134 0 -345 -208z" />
<glyph unicode="&#x637;" horiz-adv-x="1298" arabic-form="medial" d="M-70 1v454h250q0 481 -156 813l259 225q34 30 45 30q12 0 33 -46l152 -338q17 -39 17 -51t-21 -12q-23 0 -72 15q6 -53 6 -108q0 -219 -86 -432q361 403 616 403q54 0 98.5 -19.5t76.5 -54t49.5 -82.5t17.5 -105q0 -136 -46 -212q14 -26 85 -26h44v-454h-32 q-196 0 -296 214q-236 -214 -688 -214h-352zM434 445q23 -1 45.5 -1.5t44.5 -0.5q81 0 152.5 8t124.5 21.5t84 30.5t31 35q0 53 -38.5 84t-98.5 31q-134 0 -345 -208z" />
<glyph unicode="&#x638;" horiz-adv-x="1632" arabic-form="final" d="M122 390q0 16 4.5 26.5t17.5 16.5t36.5 8.5t60.5 2.5q9 0 19 -0.5t36.5 -1.5t77.5 -2t142 -2q0 270 -58 524q-22 94 -46 170t-52 136l258 225q34 30 46 30t33 -46l152 -338q17 -39 17 -51t-21 -12q-23 0 -72 15q6 -53 6 -108q0 -219 -86 -432q361 403 616 403 q54 0 98.5 -19.5t76.5 -54t49.5 -82.5t17.5 -105q0 -135 -47 -212q15 -26 85 -26h43v-454h-30q-200 0 -296 214q-232 -211 -578 -211q-147 0 -302 89q-118 67 -219 176q-85 91 -85 121zM770 445q23 -1 45.5 -1.5t44.5 -0.5q81 0 152.5 8t124.5 21.5t84 30.5t31 35 q0 53 -38.5 84t-98.5 31q-137 0 -345 -208zM1002 1308q0 10 10 20l125 126q8 8 17 8q8 0 18 -8l138 -132q7 -9 7 -13q0 -7 -8 -15l-134 -134q-7 -7 -14 -7q-8 0 -15 7l-136 132q-8 8 -8 16z" />
<glyph unicode="&#x638;" horiz-adv-x="1254" arabic-form="initial" d="M-70 1v454h250q0 481 -156 813l259 225q34 30 45 30q12 0 33 -46l152 -338q17 -39 17 -51t-21 -12q-23 0 -72 15q6 -53 6 -108q0 -219 -86 -432q361 403 616 403q54 0 98.5 -19.5t76.5 -54t49.5 -82.5t17.5 -105q0 -227 -176 -421q-244 -271 -727 -271h-382zM434 445 q23 -1 45.5 -1.5t44.5 -0.5q81 0 152.5 8t124.5 21.5t84 30.5t31 35q0 115 -137 115q-134 0 -345 -208zM674 1305q0 10 10 20l125 126q8 8 17 8q8 0 18 -8l138 -132q7 -9 7 -13q0 -7 -8 -15l-134 -134q-7 -7 -14 -7q-8 0 -15 7l-136 132q-8 8 -8 16z" />
<glyph unicode="&#x638;" horiz-adv-x="1298" arabic-form="medial" d="M-70 1v454h250q0 481 -156 813l259 225q34 30 45 30q12 0 33 -46l152 -338q17 -39 17 -51t-21 -12q-23 0 -72 15q6 -53 6 -108q0 -219 -86 -432q361 403 616 403q54 0 98.5 -19.5t76.5 -54t49.5 -82.5t17.5 -105q0 -136 -46 -212q14 -26 85 -26h44v-454h-32 q-196 0 -296 214q-236 -214 -688 -214h-352zM434 445q23 -1 45.5 -1.5t44.5 -0.5q81 0 152.5 8t124.5 21.5t84 30.5t31 35q0 53 -38.5 84t-98.5 31q-134 0 -345 -208zM611 1300q0 10 10 20l125 126q8 8 17 8q8 0 18 -8l138 -132q7 -9 7 -13q0 -7 -8 -15l-134 -134 q-7 -7 -14 -7q-8 0 -15 7l-136 132q-8 8 -8 16z" />
<glyph unicode="&#x639;" horiz-adv-x="1261" arabic-form="final" d="M122 -51q0 187 114 313q92 103 243 160q37 14 93.5 32t132.5 45q-73 96 -132 127q-7 4 -70 22q-20 6 -20 43q0 94 94 175q108 93 270 93q62 0 118.5 -17t99 -48t68 -73.5t25.5 -94.5q0 -69 -67 -140q-5 -5 -31.5 -31t-74.5 -74q50 -26 140 -26h136v-454h-88 q-71 0 -132.5 27t-109.5 75.5t-80.5 116t-44.5 147.5q-54 -25 -99.5 -65t-78.5 -89t-51.5 -104.5t-18.5 -111.5q0 -78 31.5 -139.5t90 -104t142.5 -65t189 -22.5q7 0 20.5 0.5t29 1t29.5 1t21 0.5q139 0 139 -65q0 -128 -468 -128q-660 0 -660 473z" />
<glyph unicode="&#x639;" horiz-adv-x="901" arabic-form="initial" d="M-70 1v454h112q56 0 78 22q-70 67 -70 116q0 175 132 321q135 150 309 150q56 0 109.5 -21t98.5 -58.5t79.5 -88t53.5 -108.5q7 -21 7 -44q0 -60 -34 -60q-12 0 -45.5 6.5t-73.5 14.5t-79.5 14.5t-63.5 6.5q-48 0 -99 -8.5t-92 -23.5t-67.5 -35.5t-26.5 -45.5 q0 -22 19.5 -39.5t55 -30t85 -19.5t109.5 -7q66 0 143.5 7.5t168.5 23.5q5 1 10 1.5t10 0.5q21 0 21 -13q0 -6 -8 -40l-48 -189q-24 -96 -41 -143.5t-23 -48.5q-28 -5 -76 -6.5t-115 -1.5q-48 0 -81.5 2t-55.5 6q-55 -47 -190 -83q-123 -32 -200 -32h-112z" />
<glyph unicode="&#x639;" horiz-adv-x="821" arabic-form="medial" d="M-70 1v454h173q144 0 169 23q-27 35 -48 59t-42 42t-44.5 32.5t-54.5 31.5q-16 9 -16 48q0 92 95 175q108 93 269 93q62 0 118.5 -17t99 -48t68 -73.5t25.5 -94.5q0 -66 -64 -145q-17 -20 -102 -108q33 -18 153 -18h92v-454h-64q-275 0 -339 159q-25 -43 -53.5 -73.5 t-64 -49.5t-80.5 -27.5t-103 -8.5h-187z" />
<glyph unicode="&#x63a;" horiz-adv-x="1261" arabic-form="final" d="M122 -51q0 187 114 313q92 103 243 160q37 14 93.5 32t132.5 45q-73 96 -132 127q-7 4 -70 22q-20 6 -20 43q0 94 94 175q108 93 270 93q62 0 118.5 -17t99 -48t68 -73.5t25.5 -94.5q0 -69 -67 -140q-5 -5 -31.5 -31t-74.5 -74q50 -26 140 -26h136v-454h-88 q-71 0 -132.5 27t-109.5 75.5t-80.5 116t-44.5 147.5q-54 -25 -99.5 -65t-78.5 -89t-51.5 -104.5t-18.5 -111.5q0 -78 31.5 -139.5t90 -104t142.5 -65t189 -22.5q7 0 20.5 0.5t29 1t29.5 1t21 0.5q139 0 139 -65q0 -128 -468 -128q-660 0 -660 473zM663 1235q0 10 10 20 l125 126q8 8 17 8q8 0 18 -8l138 -132q7 -9 7 -13q0 -7 -8 -15l-134 -134q-7 -7 -14 -7q-8 0 -15 7l-136 132q-8 8 -8 16z" />
<glyph unicode="&#x63a;" horiz-adv-x="901" arabic-form="initial" d="M-70 1v454h112q56 0 78 22q-70 67 -70 116q0 175 132 321q135 150 309 150q56 0 109.5 -21t98.5 -58.5t79.5 -88t53.5 -108.5q7 -21 7 -44q0 -60 -34 -60q-12 0 -45.5 6.5t-73.5 14.5t-79.5 14.5t-63.5 6.5q-48 0 -99 -8.5t-92 -23.5t-67.5 -35.5t-26.5 -45.5 q0 -22 19.5 -39.5t55 -30t85 -19.5t109.5 -7q66 0 143.5 7.5t168.5 23.5q5 1 10 1.5t10 0.5q21 0 21 -13q0 -6 -8 -40l-48 -189q-24 -96 -41 -143.5t-23 -48.5q-28 -5 -76 -6.5t-115 -1.5q-48 0 -81.5 2t-55.5 6q-55 -47 -190 -83q-123 -32 -200 -32h-112zM306 1347 q0 10 10 20l125 126q8 8 17 8q8 0 18 -8l138 -132q7 -9 7 -13q0 -7 -8 -15l-134 -134q-7 -7 -14 -7q-8 0 -15 7l-136 132q-8 8 -8 16z" />
<glyph unicode="&#x63a;" horiz-adv-x="821" arabic-form="medial" d="M-70 1v454h173q144 0 169 23q-27 35 -48 59t-42 42t-44.5 32.5t-54.5 31.5q-16 9 -16 48q0 92 95 175q108 93 269 93q62 0 118.5 -17t99 -48t68 -73.5t25.5 -94.5q0 -66 -64 -145q-17 -20 -102 -108q33 -18 153 -18h92v-454h-64q-275 0 -339 159q-25 -43 -53.5 -73.5 t-64 -49.5t-80.5 -27.5t-103 -8.5h-187zM246 1247q0 10 10 20l125 126q8 8 17 8q8 0 18 -8l138 -132q7 -9 7 -13q0 -7 -8 -15l-134 -134q-7 -7 -14 -7q-8 0 -15 7l-136 132q-8 8 -8 16z" />
<glyph unicode="&#x641;" horiz-adv-x="1671" arabic-form="final" d="M122 418q0 116 37 227q40 126 98 126q31 0 44 -26t13 -80q0 -117 58 -172q51 -48 150 -70.5t248 -22.5q228 0 347 27q-50 50 -50 163q0 126 92 260q106 154 249 154q116 0 179 -110q50 -88 50 -191q0 -155 -66 -248h100v-454h-50q-32 0 -69 11.5t-72.5 31t-68 45 t-55.5 54.5q-205 -181 -601 -181q-295 0 -440 80q-193 106 -193 376zM1162 1324q0 10 10 20l125 126q8 8 17 8q8 0 18 -8l138 -132q7 -9 7 -13q0 -7 -8 -15l-134 -134q-7 -7 -14 -7q-8 0 -15 7l-136 132q-8 8 -8 16zM1224 605q0 -14 14 -30.5t34 -30.5t41 -23.5t35 -9.5 q19 0 41.5 8t42 21.5t32 30t12.5 33.5q0 16 -12 30.5t-30 26t-39.5 18.5t-40.5 7q-21 0 -44 -6.5t-42 -17.5t-31.5 -26t-12.5 -31z" />
<glyph unicode="&#x641;" horiz-adv-x="734" arabic-form="initial" d="M-70 1v454h165q118 0 195.5 4t123.5 13t64 22.5t18 33.5q0 27 -28 27q-10 0 -18 -4q-35 -15 -157 -15q-257 0 -257 207q0 138 69 275q82 162 207 162q184 0 283 -224q75 -170 75 -368q0 -587 -573 -587h-167zM137 1431q0 10 10 20l125 126q8 8 17 8q8 0 18 -8l138 -132 q7 -9 7 -13q0 -7 -8 -15l-134 -134q-7 -7 -14 -7q-8 0 -15 7l-136 132q-8 8 -8 16zM221 828q0 -37 111 -37q103 0 105 20q0 15 -13 30.5t-32 27.5t-40.5 20t-38.5 8q-19 0 -35.5 -5.5t-29 -14.5t-20 -21.5t-7.5 -27.5z" />
<glyph unicode="&#x641;" horiz-adv-x="686" arabic-form="medial" d="M-70 1v454h182q-32 35 -32 135q0 126 93 260q106 154 249 154q51 0 93 -24t72 -65t46.5 -96t16.5 -116q0 -164 -66 -248h102v-454h-52q-33 0 -71.5 12t-76 31.5t-70.5 44.5t-55 51q-164 -139 -322 -139h-109zM202 1293q0 10 10 20l125 126q8 8 17 8q8 0 18 -8l138 -132 q7 -9 7 -13q0 -7 -8 -15l-134 -134q-7 -7 -14 -7q-8 0 -15 7l-136 132q-8 8 -8 16zM237 605q0 -14 14 -30.5t34 -30.5t41 -23.5t35 -9.5q19 0 41.5 8t41.5 21t32 29.5t13 34.5q0 16 -12 30.5t-30 26t-39.5 18.5t-40.5 7q-23 0 -46.5 -7t-42 -18t-30 -25.5t-11.5 -30.5z" />
<glyph unicode="&#x642;" horiz-adv-x="1352" arabic-form="final" d="M123 -60q0 115 47 271q55 184 125 184q17 0 28.5 -4.5t18.5 -17t10 -33.5t3 -54q0 -9 -4 -31t-8.5 -46.5t-8 -47.5t-3.5 -35q0 -198 397 -198q308 0 374 54q29 24 29 34q0 16 -104 16q-161 0 -231 35q-99 49 -99 194q0 195 79 357q88 181 215 181q230 0 266 -344h95v-454 h-83q0 -251 -148 -378.5t-424 -127.5q-137 0 -243.5 29t-180 85t-112 139.5t-38.5 191.5zM713 1046q0 9 10 19l109 111q8 8 16 8q6 0 16 -8l111 -107l106 107q7 7 15 7t16 -7l121 -117q7 -7 7 -12q0 -7 -8 -13l-119 -117q-7 -7 -13 -7q-7 0 -13 7l-112 110l-110 -110 q-7 -7 -13 -7q-7 0 -13 7l-119 116q-7 6 -7 13zM866 435q0 -38 113 -38q104 0 104 20q0 15 -13 30.5t-32 28t-40.5 20.5t-38.5 8q-93 0 -93 -69z" />
<glyph unicode="&#x642;" horiz-adv-x="734" arabic-form="initial" d="M-70 1v454h165q118 0 195.5 4t123.5 13t64 22.5t18 33.5q0 27 -28 27q-10 0 -18 -4q-35 -15 -157 -15q-257 0 -257 207q0 138 69 275q82 162 207 162q184 0 283 -224q75 -170 75 -368q0 -587 -573 -587h-167zM43 1410q0 9 10 19l109 111q8 8 16 8q6 0 16 -8l111 -107 l106 107q7 7 15 7t16 -7l121 -117q7 -7 7 -12q0 -7 -8 -13l-119 -117q-7 -7 -13 -7q-7 0 -13 7l-112 110l-110 -110q-7 -7 -13 -7q-7 0 -13 7l-119 116q-7 6 -7 13zM221 828q0 -37 111 -37q103 0 105 20q0 15 -13 30.5t-32 27.5t-40.5 20t-38.5 8q-19 0 -35.5 -5.5 t-29 -14.5t-20 -21.5t-7.5 -27.5z" />
<glyph unicode="&#x642;" horiz-adv-x="686" arabic-form="medial" d="M-70 1v454h182q-32 35 -32 135q0 126 93 260q106 154 249 154q51 0 93 -24t72 -65t46.5 -96t16.5 -116q0 -164 -66 -248h102v-454h-52q-33 0 -71.5 12t-76 31.5t-70.5 44.5t-55 51q-164 -139 -322 -139h-109zM96 1253q0 9 10 19l109 111q8 8 16 8q6 0 16 -8l111 -107 l106 107q7 7 15 7t16 -7l121 -117q7 -7 7 -12q0 -7 -8 -13l-119 -117q-7 -7 -13 -7q-7 0 -13 7l-112 110l-110 -110q-7 -7 -13 -7q-7 0 -13 7l-119 116q-7 6 -7 13zM237 605q0 -14 14 -30.5t34 -30.5t41 -23.5t35 -9.5q19 0 41.5 8t41.5 21t32 29.5t13 34.5q0 16 -12 30.5 t-30 26t-39.5 18.5t-40.5 7q-23 0 -46.5 -7t-42 -18t-30 -25.5t-11.5 -30.5z" />
<glyph unicode="&#x643;" horiz-adv-x="1713" arabic-form="final" d="M121 428q0 61 11 124t30 114t43.5 83.5t51.5 32.5q30 0 43 -27t13 -81q0 -114 58 -166q98 -88 399 -88q347 0 458 34q79 23 78 140v17l-32 670v4q0 14 10 22l305 196q10 7 15 7q4 0 5 -4.5t1 -19.5v-904q0 -25 7 -48t19.5 -40.5t30.5 -28t40 -10.5h6v-454h-17 q-33 0 -66.5 11.5t-64.5 32t-57.5 47.5t-44.5 58q-88 -127 -300 -154q-57 -13 -126.5 -19t-154.5 -6q-61 0 -128 1q-295 0 -440 80q-193 106 -193 376zM604 706l6 111q62 50 106 76q-16 1 -31 9t-26 21.5t-18 31t-7 35.5q0 79 49 155q55 87 135 87q24 0 52.5 -10t53.5 -27 t41.5 -39.5t16.5 -47.5q0 -19 -22 -19q-6 0 -16.5 2t-22.5 4.5t-22.5 4.5t-16.5 2q-26 0 -50 -5t-42 -15t-29 -23.5t-11 -29.5q0 -49 95 -49q8 0 25 4.5t38 11t43 14t40 14t39 14.5l-21 -144q-111 -32 -211.5 -78.5t-193.5 -109.5z" />
<glyph unicode="&#x643;" horiz-adv-x="924" arabic-form="initial" d="M-70 1v454h134q209 0 278 19q31 7 31 34q0 15 -15 38t-38.5 50t-52.5 55t-57 54q-59 52 -177 159l56 322q3 21 21 28l775 256q7 3 13 3q3 0 3 -13v-10l-35 -329q-1 -12 -2 -18.5t-4 -9.5t-7 -4.5t-11 -3.5l-412 -128q102 -121 143 -207q58 -120 58 -272 q0 -113 -31 -201.5t-92 -149.5t-150 -93.5t-206 -32.5h-222z" />
<glyph unicode="&#x643;" horiz-adv-x="1004" arabic-form="medial" d="M-70 1v454h170q113 0 178 8.5t65 30.5q0 7 -14 25.5t-50.5 59t-100 106.5t-161.5 168l55 322q3 23 22 29l774 256q9 3 13 3t4 -10v-12l-34 -330q-1 -11 -2.5 -17t-4 -9.5t-7 -5t-11.5 -4.5l-454 -155q136 -157 211 -242t91 -100q130 -123 256 -123h74v-454h-47 q-94 0 -209 74q-96 62 -168 151q-66 -135 -198 -186q-101 -39 -287 -39h-165z" />
<glyph unicode="&#x644;" horiz-adv-x="1358" arabic-form="final" d="M123 -21q0 116 45 272q52 184 121 184q62 0 62 -109q0 -9 -2.5 -28.5t-5 -41.5t-5 -42t-2.5 -30q0 -216 372 -216q281 0 281 200v15t-1 14l-78 1084v3q0 15 11 23l305 196q10 7 15 7q3 0 4 -5t1 -19v-924q0 -107 98 -107h14v-454h-46q-69 0 -135 71q0 -179 -81 -320 q-131 -227 -430 -227q-128 0 -229 30t-170.5 88t-106.5 142.5t-37 193.5z" />
<glyph unicode="&#x644;" horiz-adv-x="590" arabic-form="initial" d="M-70 1v454h98q46 0 76 4t47.5 13.5t24.5 24.5t7 37q0 80 -42 307q-23 121 -47.5 228t-50.5 202l251 222q34 30 45 30q12 0 33 -46l152 -338q12 -27 12 -43q0 -22 -29 -22q-24 0 -81 17l24 -616q0 -11 0.5 -22.5t0.5 -22.5q0 -101 -21.5 -180.5t-61.5 -135t-97 -84.5 t-127 -29h-214z" />
<glyph unicode="&#x644;" horiz-adv-x="562" arabic-form="medial" d="M-70 1v454h98q108 0 108 137v19l-32 670v4q0 14 10 22l305 196q10 7 15 7q4 0 5 -4.5t1 -19.5v-904q0 -25 7 -48t19.5 -40.5t30.5 -28t40 -10.5h25v-454h-36q-33 0 -66.5 11.5t-64.5 32t-57.5 47.5t-44.5 58q-105 -149 -250 -149h-113z" />
<glyph unicode="&#x645;" horiz-adv-x="1059" arabic-form="final" d="M120 289.5v13.5q0 69 26 125t72.5 95.5t111.5 61.5t144 22q17 0 33.5 -1t33.5 -3q4 85 33 85q24 0 78 -51q30 -29 73.5 -58t101.5 -58q126 -66 195 -66h37v-454h-27q-39 0 -52 24q0 -64 -13 -115.5t-37.5 -87.5t-61 -55.5t-82.5 -19.5q-63 0 -115.5 32t-92.5 91.5 t-66.5 144t-37.5 189.5q-13 5 -24 5q-16 0 -30.5 -8t-25 -21t-16.5 -28.5t-6 -31.5v-355q0 -33 -26 -123t-45 -115q-39 -53 -88 -53q-15 0 -27 11t-21 29.5t-14 42.5t-5 49q0 149 -6 315.5t-19 354.5q-1 7 -1 13.5zM597 329q42 -300 164 -300q53 0 53 53q0 63 -61 112 q-131 106 -156 135z" />
<glyph unicode="&#x645;" horiz-adv-x="798" arabic-form="initial" d="M-70 1v454h71q127 0 131 79q4 68 26.5 124t61 96t91.5 62t118 22q190 0 285 -200q69 -146 69 -323q0 -66 -23.5 -124.5t-64 -102t-95 -69t-117.5 -25.5q-163 0 -267 158q-69 -151 -184 -151h-102zM422 545q0 -44 11 -87t31 -77t46.5 -55t58.5 -21q56 0 56 91 q0 63 -35 138q-42 89 -98 89q-30 0 -50 -24t-20 -54z" />
<glyph unicode="&#x645;" horiz-adv-x="917" arabic-form="medial" d="M-70 1v454h71q127 0 131 79q4 68 26.5 124t61 96t91.5 62t118 22q133 0 214 -99q18 -23 106 -185q52 -99 119 -99h49v-454h-29q-24 0 -51 13.5t-51.5 35.5t-43.5 50t-28 56q-74 -162 -231 -162q-163 0 -267 158q-69 -151 -184 -151h-102zM422 545q0 -44 11 -87t31 -77 t46.5 -55t58.5 -21q56 0 56 91q0 63 -35 138q-42 89 -98 89q-30 0 -50 -24t-20 -54z" />
<glyph unicode="&#x646;" horiz-adv-x="1400" arabic-form="final" d="M123 -60q0 115 47 271q55 184 125 184q17 0 28.5 -4.5t18.5 -17t10 -33.5t3 -54q0 -9 -4 -31t-8.5 -47.5t-8 -49t-3.5 -34.5q0 -196 397 -196q119 0 223 27q157 40 157 126q0 72 -201 234l156 304q9 17 16 17q6 0 23 -17q158 -164 244 -164h54v-454h-26q-53 0 -82 44 q0 -550 -606 -550q-275 0 -419 113t-144 332zM539 762q0 10 10 20l125 126q8 8 17 8q8 0 18 -8l138 -132q7 -9 7 -13q0 -7 -8 -15l-134 -134q-7 -7 -14 -7q-8 0 -15 7l-136 132q-8 8 -8 16z" />
<glyph unicode="&#x646;" horiz-adv-x="603" arabic-form="initial" d="M-17 1v454h291q59 0 59 33q0 16 -17 39q-63 81 -160 167q-8 6 -8 16q0 7 8 20l186 270q15 22 22 22q8 0 25 -20q156 -192 156 -476q0 -279 -79 -392q-91 -133 -340 -133h-143zM51 1215q0 10 10 20l125 126q8 8 17 8q8 0 18 -8l138 -132q7 -9 7 -13q0 -7 -8 -15l-134 -134 q-7 -7 -14 -7q-8 0 -15 7l-136 132q-8 8 -8 16z" />
<glyph unicode="&#x646;" horiz-adv-x="577" arabic-form="medial" d="M-70 1v454h105q107 0 149 64q10 14 40 117q19 64 69 64q47 0 62 -64q11 -50 19.5 -79t13.5 -38q37 -64 142 -64h47v-454h-47q-144 0 -223 133q-78 -133 -237 -133h-140zM105 1025q0 10 10 20l125 126q8 8 17 8q8 0 18 -8l138 -132q7 -9 7 -13q0 -7 -8 -15l-134 -134 q-7 -7 -14 -7q-8 0 -15 7l-136 132q-8 8 -8 16z" />
<glyph unicode="&#x647;" horiz-adv-x="917" arabic-form="isolated" d="M121 332q0 118 74 349q87 270 178 270q159 0 314 -110q193 -136 193 -357q0 -108 -28 -196.5t-80.5 -152t-127.5 -98t-169 -34.5q-354 0 -354 329zM345 481q0 -86 181 -86q153 0 153 62q0 39 -113 89q-104 45 -155 45q-14 0 -26 -10t-21 -26t-14 -35.5t-5 -38.5z" />
<glyph unicode="&#x647;" horiz-adv-x="945" arabic-form="final" d="M122 354q0 114 82 229q4 5 65 59t181 159l-19 86l233 235q14 14 23 14q11 0 16 -26l95 -515q26 -140 110 -140h37v-454h-73q-220 0 -282 236q-44 -101 -93 -101q-94 0 -214 49q-161 65 -161 169zM353 503q0 -48 195 -58l-56 204q-139 -103 -139 -146z" />
<glyph unicode="&#x647;" horiz-adv-x="983" arabic-form="initial" d="M-70 1v454h157q-22 37 -22 89q0 132 97 177l-59 38l134 303q23 50 48 50q13 0 60 -26q137 -76 237.5 -147.5t169.5 -138.5q202 -199 202 -426q0 -101 -65 -223q-81 -151 -198 -151q-84 0 -278 131q-142 -130 -263 -130h-220zM239 543q0 -13 14.5 -28.5t35 -28.5t42.5 -22 t37 -9t32 7t32 18t25 25.5t10 29.5q0 17 -10 33t-25.5 29t-34 20.5t-34.5 7.5q-20 0 -42 -7t-40 -18.5t-30 -26t-12 -30.5zM551 347q15 -12 38.5 -26t48 -26.5t45.5 -21t32 -8.5q46 0 46 70q0 68 -145 168q1 -5 1.5 -10t0.5 -10q0 -99 -67 -136z" />
<glyph unicode="&#x647;" horiz-adv-x="768" arabic-form="medial" d="M-70 1v454h187q17 122 130 252q131 149 272 149q37 0 70 -14.5t58 -39.5t39.5 -57.5t14.5 -69.5q0 -108 -74 -220h141v-454h-134q52 -108 52 -167q0 -93 -51 -147t-144 -54q-157 0 -274 139q-92 110 -112 229h-175zM253 12q81 -144 166 -144q84 0 84 57q0 16 -7 32 t-18.5 28t-27 19.5t-31.5 7.5h-166zM260 443h167q17 0 32 7t26.5 19t18.5 27.5t7 32.5q0 59 -84 59q-86 0 -167 -145z" />
<glyph unicode="&#x648;" horiz-adv-x="949" arabic-form="final" d="M80 -453q0 37 36 54q65 31 142.5 74.5t168.5 100.5q246 154 250 215q-203 0 -264 24q-134 53 -134 244q0 175 58 327q79 211 236 211q218 0 286 -342h90v-454h-79q-25 -333 -178 -498q-23 -24 -60 -24h-469q-83 0 -83 68zM448 389q0 -38 113 -38q103 0 103 19 q0 15 -13 31t-32 28.5t-40.5 20.5t-38.5 8q-92 0 -92 -69z" />
<glyph unicode="&#x649;" horiz-adv-x="1608" arabic-form="final" d="M121 -17q0 135 56 286q58 159 122 159q79 0 79 -89q0 -12 -3 -37t-6.5 -53t-6.5 -53.5t-3 -38.5q0 -284 492 -284q83 0 164.5 3.5t146 11t104.5 18.5t40 25q0 10 -25 15.5t-61.5 8t-78 3t-74.5 0.5q-149 0 -206 19q-97 31 -97 130q0 205 294 292q189 56 455 56h95v-454 h-32q-32 0 -72 48q-53 62 -108 89q-96 48 -263 48q-36 0 -71 -4t-62.5 -10.5t-44.5 -15.5t-17 -18q0 -24 113 -24q182 0 251 -20q137 -41 137 -178q0 -429 -696 -429q-158 0 -275 28.5t-194 88.5t-115 154t-38 225z" />
<glyph unicode="&#x64a;" horiz-adv-x="1608" arabic-form="final" d="M121 -17q0 135 56 286q58 159 122 159q79 0 79 -89q0 -12 -3 -37t-6.5 -53t-6.5 -53.5t-3 -38.5q0 -284 492 -284q83 0 164.5 3.5t146 11t104.5 18.5t40 25q0 10 -25 15.5t-61.5 8t-78 3t-74.5 0.5q-149 0 -206 19q-97 31 -97 130q0 205 294 292q189 56 455 56h95v-454 h-32q-32 0 -72 48q-53 62 -108 89q-96 48 -263 48q-36 0 -71 -4t-62.5 -10.5t-44.5 -15.5t-17 -18q0 -24 113 -24q182 0 251 -20q137 -41 137 -178q0 -429 -696 -429q-158 0 -275 28.5t-194 88.5t-115 154t-38 225zM449 -780q0 9 10 19l109 111q8 8 16 8q6 0 16 -8l111 -107 l106 107q7 7 15 7t16 -7l121 -117q7 -7 7 -12q0 -7 -8 -13l-119 -117q-7 -7 -13 -7q-7 0 -13 7l-112 110l-110 -110q-7 -7 -13 -7q-7 0 -13 7l-119 116q-7 6 -7 13z" />
<glyph unicode="&#x64a;" horiz-adv-x="603" arabic-form="initial" d="M-17 1v454h291q59 0 59 33q0 16 -17 39q-63 81 -160 167q-8 6 -8 16q0 7 8 20l186 270q15 22 22 22q8 0 25 -20q156 -192 156 -476q0 -279 -79 -392q-91 -133 -340 -133h-143zM-9 -305q0 9 10 19l109 111q8 8 16 8q6 0 16 -8l111 -107l106 107q7 7 15 7t16 -7l121 -117 q7 -7 7 -12q0 -7 -8 -13l-119 -117q-7 -7 -13 -7q-7 0 -13 7l-112 110l-110 -110q-7 -7 -13 -7q-7 0 -13 7l-119 116q-7 6 -7 13z" />
<glyph unicode=" "  horiz-adv-x="400" />
<glyph unicode="&#x09;" horiz-adv-x="400" />
<glyph unicode="&#xa0;" horiz-adv-x="400" />
<glyph unicode="!" horiz-adv-x="639" d="M178 1296q0 48 18 91.5t49 75.5t73 51t90 19q45 0 86 -20t72.5 -52.5t50.5 -75t19 -87.5q0 -94 -59 -335q-25 -99 -48 -180t-45 -138t-41.5 -88t-36.5 -31q-69 0 -176 449q-52 218 -52 321zM183 222q0 46 17 86t47 70t70 47t85 17q46 0 86 -17.5t69.5 -47.5t46.5 -70 t17 -85t-17.5 -85t-47 -70t-69.5 -47t-85 -17t-85 17t-70 47t-47 70t-17 85z" />
<glyph unicode="&#x22;" horiz-adv-x="778" d="M137 1395q4 26 28 43t53 19.5t54.5 -12t33.5 -50.5l-35 -398h-102zM477 1395q4 26 28 43t53 19.5t54.5 -12t33.5 -50.5l-35 -398h-102z" />
<glyph unicode="#" horiz-adv-x="1082" d="M47 262v221h156l41 202h-197v221h241l56 287h230l-60 -287h176l57 287h228l-56 -287h108v-221h-153l-42 -202h195v-221h-239l-56 -282h-227l55 282h-175l-57 -282h-226l59 282h-114zM430 483h175l42 202h-175z" />
<glyph unicode="$" horiz-adv-x="1093" d="M42 338l325 37q12 -79 38 -116q24 -34 80 -61v282q-81 23 -138 42t-92 35q-65 31 -116 105q-49 73 -49 177q0 71 25 132t74.5 106.5t123.5 73t172 32.5v80h118v-80q89 -6 157 -27.5t116.5 -58t78.5 -87t44 -114.5l-296 -46q-11 29 -21.5 47.5t-19.5 29.5q-18 23 -59 47 v-232q244 -66 324 -137q108 -96 108 -246q0 -88 -39 -160.5t-100 -121.5q-29 -24 -60 -41t-66.5 -28.5t-76.5 -18t-90 -9.5v-150h-118v150q-58 6 -105 15.5t-85 23.5t-69.5 33t-58.5 43q-53 49 -81.5 106t-43.5 137zM395 877q0 -35 20 -61t70 -44v205q-51 -17 -70.5 -41.5 t-19.5 -58.5zM603 190q68 15 99.5 49t31.5 79q0 19 -6 36t-21 33t-40 30.5t-64 28.5v-256z" />
<glyph unicode="%" horiz-adv-x="1638" d="M78 885q-1 63 20 120t62.5 99.5t101 67t135.5 21.5q73 0 132 -22t100 -62.5t63 -97.5t22 -126q0 -71 -22 -128t-63 -97t-100 -61.5t-132 -21.5q-76 -3 -135.5 21.5t-101 67t-62.5 99.5t-20 120zM305 883q0 -49 7 -85t24 -59q20 -29 61 -29t60 29q31 46 31 144t-31 144 q-20 30 -60 30t-61 -30q-17 -22 -24 -57.5t-7 -86.5zM400 -61l674 1254h169l-676 -1254h-167zM924 250q-2 62 19 119t62 100t100.5 67.5t136.5 21.5q73 0 132 -22t100.5 -62.5t63.5 -97t22 -126.5q0 -71 -22 -128t-63.5 -97t-100.5 -62t-132 -22q-77 -3 -136.5 21.5 t-100.5 68t-62 100.5t-19 119zM1150 249q0 -102 32 -144q18 -30 60 -30q39 0 60 30q32 42 32 144q0 98 -32 145q-21 28 -60 28q-42 0 -60 -28q-32 -47 -32 -145z" />
<glyph unicode="&#x26;" horiz-adv-x="1457" d="M123 314q0 50 16 98t51 91.5t89 82t131 69.5q-32 39 -53.5 71.5t-34.5 62.5t-18.5 58.5t-5.5 58.5q0 62 23.5 114.5t71.5 91t120 60t169 21.5q197 0 289 -77q48 -38 71 -84.5t23 -99.5q0 -30 -7.5 -59t-21 -55.5t-31.5 -49.5t-39 -41q-39 -34 -142 -103 q44 -43 88.5 -82.5t89.5 -75.5q26 50 44 104l253 -57q-10 -35 -19.5 -62.5t-17.5 -48.5q-9 -21 -22.5 -46.5t-30.5 -53.5l123 -86q11 -6 25.5 -14.5t32.5 -19.5l-176 -202q-48 26 -99 60t-93 58q-43 -28 -84.5 -48.5t-83.5 -33.5q-119 -36 -269 -36q-232 0 -349 97 q-113 98 -113 237zM444 339q0 -29 13.5 -56t37.5 -47.5t57.5 -33t73.5 -12.5q86 0 195 68q-52 40 -118.5 97.5t-147.5 135.5q-33 -24 -54.5 -43.5t-34 -37t-17.5 -35t-5 -36.5zM583 921q0 -50 89 -144q63 34 97 74.5t34 75.5q0 38 -29 64.5t-80 26.5q-24 0 -44.5 -8 t-35.5 -21.5t-23 -31t-8 -36.5z" />
<glyph unicode="'" horiz-adv-x="431" d="M133 1395q4 26 28 43t53 19.5t54.5 -12t33.5 -50.5l-35 -398h-102z" />
<glyph unicode="(" horiz-adv-x="816" d="M187 545q0 236 123 487q96 196 245 358q129 140 182 140q73 0 73 -57q0 -10 -1 -15q-42 -83 -120 -252q-113 -268 -113 -669q0 -399 113 -666l120 -250q1 -5 1 -15q0 -56 -73 -56q-57 0 -182 119q-149 143 -245 340q-123 253 -123 536z" />
<glyph unicode=")" horiz-adv-x="811" d="M185 -394q0 10 1 15q79 166 120 249q113 267 113 667q0 401 -113 669q-78 169 -120 252q-1 4 -1 7.5v6.5q0 58 72 58q51 0 182 -140q75 -81 136 -170t110 -188q123 -251 123 -487q0 -283 -123 -536q-95 -198 -246 -340q-125 -119 -182 -119q-72 0 -72 56z" />
<glyph unicode="*" horiz-adv-x="774" d="M57 831v50q0 10 12.5 19t26.5 9h135l-98 101q-14 12 -15 26.5t9 28.5l37 31q10 10 22.5 9t24.5 -15l108 -105v156q0 12 10.5 23.5t18.5 11.5h51q15 0 23 -11.5t8 -23.5v-150l107 105q12 14 24 15t31 -7l26 -39q11 -8 11 -20.5t-13 -28.5l-104 -107h156q10 0 22 -9t12 -19 v-50q0 -16 -12 -25t-22 -9h-164l112 -103q19 -26 0 -57l-30 -31q-23 -18 -49 6l-107 101v-144q0 -14 -8 -24t-23 -10h-51q-8 0 -18.5 10t-10.5 24v144l-98 -101q-28 -18 -57 0l-31 33q-18 23 6 49l101 103h-144q-14 0 -26.5 9t-12.5 25z" />
<glyph unicode="+" horiz-adv-x="1218" d="M147 570v193h348v349h193v-349h350v-193h-350v-349h-193v349h-348z" />
<glyph unicode="," horiz-adv-x="546" d="M99 0v323h348v-268q0 -148 -61.5 -233.5t-210.5 -151.5l-76 143q93 43 128 86t39 101h-167z" />
<glyph unicode="-" horiz-adv-x="1209" d="M147 570v193h891v-193h-891z" />
<glyph unicode="." horiz-adv-x="746" d="M296 165q0 36 13.5 67t37 54.5t54.5 37t67 13.5t67 -13.5t54.5 -37t36.5 -54.5t13 -67t-13 -67t-36.5 -54.5t-54.5 -36.5t-67 -13t-67 13t-54.5 36.5t-37 54.5t-13.5 67z" />
<glyph unicode="/" horiz-adv-x="906" d="M126 -171l441 1359h164l-441 -1359h-164z" />
<glyph unicode="0" horiz-adv-x="1093" d="M67 591q0 336 119 467q120 135 368 135q119 0 194.5 -29.5t123.5 -77.5q49 -45 76.5 -97t44.5 -121q16 -65 24.5 -133.5t8.5 -140.5q0 -319 -108 -466q-109 -148 -372 -148q-74 0 -133 11.5t-106.5 35t-84 58t-64.5 81.5q-22 32 -39 77t-28.5 100t-17.5 117.5t-6 130.5z M390 590q0 -225 40 -305q20 -41 48.5 -61.5t67.5 -20.5q49 0 85 34.5t52 109.5q8 38 13.5 96t5.5 139q0 118 -10 195.5t-30 118.5q-39 81 -118 81q-82 0 -118 -83q-36 -80 -36 -304z" />
<glyph unicode="1" horiz-adv-x="1093" d="M134 611v267q83 27 146.5 59t111.5 70.5t83 84.5t61 101h270v-1193h-329v782q-42 -31 -80 -55.5t-76 -43.5q-77 -38 -187 -72z" />
<glyph unicode="2" horiz-adv-x="1093" d="M42 0q9 73 35 140t69 132q43 64 122.5 139t197.5 163q142 105 181 160q41 56 41 107q0 26 -10.5 49.5t-29 41t-44 28t-55.5 10.5q-31 0 -56.5 -9.5t-45 -30.5t-33 -55t-20.5 -84l-327 28q18 100 47.5 170t83 114t136.5 65.5t207 24.5q86 0 151.5 -9.5t115.5 -29.5 t86 -50.5t63 -71.5q56 -82 56 -180q0 -54 -16 -105.5t-47 -100.5q-30 -48 -87.5 -101.5t-141.5 -111.5q-50 -35 -82.5 -59t-48.5 -38t-35.5 -31t-41.5 -39h508v-266h-979z" />
<glyph unicode="3" horiz-adv-x="1093" d="M58 310l325 42q10 -49 25 -82.5t35 -53.5t45.5 -29t57.5 -9q33 0 60.5 12.5t48 35.5t32 55.5t11.5 72.5q0 83 -41.5 127.5t-114.5 44.5q-36 0 -104 -20l16 233q14 -1 24 -2t19 -1q32 0 59 11t47 30t31.5 44t11.5 53q0 53 -32 84.5t-88 31.5q-58 0 -93.5 -34.5 t-49.5 -121.5l-308 54q38 148 148 226.5t310 78.5q115 0 197 -21t133 -65q103 -85 103 -216q0 -75 -41 -136.5t-126 -107.5q34 -8 59.5 -18t43.5 -21q60 -36 92 -94.5t32 -141.5q0 -51 -13.5 -101t-39.5 -95t-65 -82.5t-90 -62.5q-102 -51 -264 -51q-119 1 -201 22t-138 62 t-92.5 102.5t-64.5 143.5z" />
<glyph unicode="4" horiz-adv-x="1093" d="M34 219v267l593 707h284v-721h147v-253h-147v-219h-284v219h-593zM313 472h314v369z" />
<glyph unicode="5" horiz-adv-x="1093" d="M54 305l329 36q11 -81 56 -122t105 -41q69 0 113.5 51.5t44.5 153.5q0 52 -12 90.5t-33.5 63.5t-51.5 37t-67 12q-46 0 -92 -22q-31 -17 -72 -61l-277 39l103 631h774v-260h-525l-28 -175q54 24 107 37t106 13q174 0 285 -106q110 -106 110 -269q0 -57 -14.5 -112.5 t-42 -105.5t-68 -91.5t-91.5 -69.5q-104 -54 -266 -54q-118 0 -199.5 22t-141.5 65q-57 44 -93 99.5t-59 138.5z" />
<glyph unicode="6" horiz-adv-x="1093" d="M69 580q0 159 34.5 274.5t99.5 191t158.5 111.5t212.5 36q102 -1 174 -19.5t122.5 -54t83.5 -88t57 -121.5l-325 -42q-13 69 -42 97t-74 28q-80 0 -124 -80q-17 -29 -27.5 -90t-18.5 -156q29 30 58 51.5t60.5 36t67 21.5t76.5 7q158 0 265 -113q108 -111 108 -284 q-1 -89 -31 -164.5t-87.5 -130t-140.5 -84.5t-191 -27q-88 0 -158 14.5t-124.5 45.5t-96 78t-73.5 113q-64 131 -64 349zM410 386q0 -47 13 -84.5t35.5 -64t53 -40.5t65.5 -14q32 0 59 12t47 36t31.5 60.5t11.5 85.5q0 50 -11.5 88t-32.5 63.5t-49.5 38.5t-62.5 13 t-63 -12.5t-50.5 -37.5t-34 -61t-12.5 -83z" />
<glyph unicode="7" horiz-adv-x="1093" d="M72 898v275h952v-219q-63 -57 -114 -117t-92 -126q-102 -159 -161 -354q-23 -75 -38.5 -164t-24.5 -193h-324q19 145 49 264.5t71 217.5q85 196 262 416h-580z" />
</font>
</defs>
</svg>
