<?xml version="1.0" standalone="no"?>
<!DOCTYPE svg PUBLIC "-//W3C//DTD SVG 1.1//EN" "http://www.w3.org/Graphics/SVG/1.1/DTD/svg11.dtd" >
<svg xmlns="http://www.w3.org/2000/svg" xmlns:xlink="http://www.w3.org/1999/xlink" version="1.1">
<metadata></metadata>
<defs>
<font id="irterafikbold" horiz-adv-x="0" >
<font-face units-per-em="2048" ascent="1638" descent="-410" />
<missing-glyph horiz-adv-x="434" />
<glyph unicode="&#xfedf;&#xfee0;&#x651;&#x670;&#xfeea;" horiz-adv-x="1854" arabic-form="isolated" d="M166 451q0 30 26.5 64t76.5 71.5t120.5 78t159.5 82.5l-21 122l184 58l87 -493q29 -167 163 -167q115 0 115 191v550h237v-407q0 -323 128 -323q79 0 105 45q19 34 19 135v550h230v-605q0 -99 -17.5 -174.5t-55.5 -126.5t-98 -76.5t-145 -25.5q-43 0 -83.5 12t-74.5 33.5 t-60 51.5t-39 66q-13 -41 -38 -73t-59.5 -54.5t-76 -34.5t-87.5 -12q-216 0 -288 213q-86 -18 -150 -18q-71 0 -132.5 16.5t-108.5 47t-76.5 74.5t-36.5 99q-4 12 -4 30zM344 456q0 -32 43.5 -51.5t142.5 -19.5q47 0 85 11l-39 191q-51 -20 -105.5 -44t-112.5 -53 q-14 -20 -14 -34zM969 1215q0 87 52 137l59 -40q-11 -22 -20.5 -40.5t-9.5 -48.5q0 -31 33 -31q26 0 33 3q53 19 53 126h66q0 -104 54 -126q6 -3 35 -3t29 30q0 40 -37 85l68 45q34 -50 39 -59q15 -30 15 -78q0 -120 -114 -120q-29 0 -64 18t-56 56q-9 -19 -23 -33t-31 -23 t-35 -13.5t-35 -4.5q-25 0 -46 9t-35 25t-22 38t-8 48zM1154 1668h96l-31 -282h-41z" />
<glyph unicode="&#xfedf;&#xfe82;" horiz-adv-x="1159" arabic-form="isolated" d="M-110 1405l53 124q39 71 83 71q21 0 61 -19q139 -64 283 -64q203 -1 399 81v-165q-193 -112 -406 -99q-74 3 -169 31t-108 25q-17 0 -57 -61q-36 19 -139 76zM196 111v156h458l-427 849l195 121l420 -837q29 29 55 105q25 71 25 117v611h236v-601q0 -286 -166 -459 t-452 -173q-160 0 -344 111z" />
<glyph unicode="&#xfee0;&#xfe82;" horiz-adv-x="1388" arabic-form="final" d="M-101 1405l53 124q39 71 83 71q21 0 61 -19q139 -64 283 -64q203 -1 399 81v-165q-193 -112 -406 -99q-74 3 -169 31t-108 25q-17 0 -57 -61q-36 19 -139 76zM200 112v156h458l-427 849l195 121l427 -855q36 35 59 120q20 72 20 134v597h237v-601q0 -231 65 -311 q44 -54 146 -54h8v-267h-29q-250 0 -312 261q-162 -261 -503 -261q-160 0 -344 111z" />
<glyph unicode="&#xfedf;&#xfe84;" horiz-adv-x="1130" arabic-form="isolated" d="M-21 1392l180 46q-58 68 -58 135q0 76 68 122q59 41 139 41q57 0 101 -24v-97q-44 11 -88 11q-116 0 -116 -67q0 -35 30 -58q27 -22 63 -22q30 0 195 46l31 -118l-514 -126zM167 111v156h458l-427 849l195 121l420 -837q29 29 55 105q25 71 25 117v611h236v-601 q0 -286 -166 -459t-452 -173q-160 0 -344 111z" />
<glyph unicode="&#xfee0;&#xfe84;" horiz-adv-x="1355" arabic-form="final" d="M18 1415l180 46q-58 68 -58 135q0 76 68 122q59 41 139 41q57 0 101 -24v-97q-44 11 -88 11q-116 0 -116 -67q0 -35 30 -58q27 -22 63 -22q30 0 195 46l31 -118l-514 -126zM167 112v156h458l-427 849l195 121l427 -855q36 35 59 120q20 72 20 134v597h237v-601 q0 -231 65 -311q44 -54 146 -54h8v-267h-29q-250 0 -312 261q-162 -261 -503 -261q-160 0 -344 111z" />
<glyph unicode="&#xfedf;&#xfe88;" horiz-adv-x="1130" arabic-form="isolated" d="M111 -498l180 46q-58 68 -58 135q0 76 68 122q59 41 139 41q57 0 101 -24v-97q-44 11 -88 11q-116 0 -116 -67q0 -35 30 -58q27 -22 63 -22q30 0 195 46l31 -118l-514 -126zM167 111v156h458l-427 849l195 121l420 -837q29 29 55 105q25 71 25 117v611h236v-601 q0 -286 -166 -459t-452 -173q-160 0 -344 111z" />
<glyph unicode="&#xfee0;&#xfe88;" horiz-adv-x="1355" arabic-form="final" d="M107 -484l180 46q-58 68 -58 135q0 76 68 122q59 41 139 41q57 0 101 -24v-97q-44 11 -88 11q-116 0 -116 -67q0 -35 30 -58q27 -22 63 -22q30 0 195 46l31 -118l-514 -126zM167 112v156h458l-427 849l195 121l427 -855q36 35 59 120q20 72 20 134v597h237v-601 q0 -231 65 -311q44 -54 146 -54h8v-267h-29q-250 0 -312 261q-162 -261 -503 -261q-160 0 -344 111z" />
<glyph unicode="&#xfedf;&#xfe8e;" horiz-adv-x="1130" arabic-form="isolated" d="M167 111v156h458l-427 849l195 121l420 -837q29 29 55 105q25 71 25 117v611h236v-601q0 -286 -166 -459t-452 -173q-160 0 -344 111z" />
<glyph unicode="&#xfee0;&#xfe8e;" horiz-adv-x="1355" arabic-form="final" d="M167 112v156h458l-427 849l195 121l427 -855q36 35 59 120q20 72 20 134v597h237v-601q0 -231 65 -311q44 -54 146 -54h8v-267h-29q-250 0 -312 261q-162 -261 -503 -261q-160 0 -344 111z" />
<glyph unicode="&#x672;" horiz-adv-x="647" d="M88 1326.5q2 16.5 6 26.5q17 39 73 45.5t80 17.5q-25 1 -58.5 18.5t-27.5 66.5q1 38 21.5 68.5t49.5 47t65.5 12.5t70.5 -36q10 -16 -1.5 -33.5t-36.5 -37.5q4 2 -14 20t-38 25q-15 4 -42 -10.5t-35 -42.5q7 -31 30 -44.5t54.5 -16.5t65 2.5t60.5 12.5q12 3 6 -12.5 t-19 -40.5q-52 -38 -166.5 -46t-134.5 -55q-11 -4 -9 12.5zM167 425v810h236v-726q0 -118 26 -169q38 -72 144 -72h74v-267h-178q-158 0 -238 140q-64 113 -64 284z" />
<glyph unicode="&#x673;" horiz-adv-x="647" d="M92 -409.5q2 16.5 6 26.5q17 39 73 45.5t80 17.5q-25 1 -58.5 18.5t-27.5 66.5q1 38 21.5 68.5t49.5 47t65.5 12.5t70.5 -36q10 -16 -1.5 -33.5t-36.5 -37.5q4 2 -14 20t-38 25q-15 4 -42 -10.5t-35 -42.5q7 -31 30 -44.5t54.5 -16.5t65 2.5t60.5 12.5q12 3 6 -12.5 t-19 -40.5q-52 -38 -166.5 -46t-134.5 -55q-11 -4 -9 12.5zM167 425v810h236v-726q0 -118 26 -169q38 -72 144 -72h74v-267h-178q-158 0 -238 140q-64 113 -64 284z" />
<glyph unicode="&#x675;" horiz-adv-x="647" d="M16 1472l180 46q-58 68 -58 135q0 76 68 122q59 41 139 41q57 0 101 -24v-97q-44 11 -88 11q-116 0 -116 -67q0 -35 30 -58q27 -22 63 -22q30 0 195 46l31 -118l-514 -126zM167 425v810h236v-726q0 -118 26 -169q38 -72 144 -72h74v-267h-178q-158 0 -238 140 q-64 113 -64 284z" />
<glyph unicode="&#x676;" horiz-adv-x="1084" d="M48 -440q63 28 188.5 85.5t213.5 133.5q116 100 175 239q-30 -3 -61 -3q-161 0 -269 84q-125 98 -125 277q0 125 84 219t208 94q125 0 239 -87q148 -113 192 -334h191v-267h-191q-42 -177 -224 -350q-202 -192 -513 -310zM194 966l180 46q-58 68 -58 135q0 76 68 122 q59 41 139 41q57 0 101 -24v-97q-44 11 -88 11q-116 0 -116 -67q0 -35 30 -58q27 -22 63 -22q30 0 195 46l31 -118l-514 -126zM386 370q0 -86 90 -98q87 -12 160 7q-3 81 -66 132q-51 42 -97 42q-28 0 -57.5 -27.5t-29.5 -55.5z" />
<glyph unicode="&#x677;" horiz-adv-x="1163" d="M49 983q82 24 215 64q-28 44 -28 92q0 67 60 116q51 43 103 43q66 0 119 -43q57 -46 57 -110q0 -135 -164 -174l-339 -79zM127 -440q63 28 188.5 85.5t213.5 133.5q116 100 175 239q-30 -3 -61 -3q-161 0 -269 84q-125 98 -125 277q0 125 84 219t208 94q125 0 239 -87 q148 -113 192 -334h191v-267h-191q-42 -177 -224 -350q-202 -192 -513 -310zM330 1136q0 -28 24.5 -47.5t52.5 -17.5q74 6 74 74q0 52 -77 52q-26 0 -50 -17.5t-24 -43.5zM465 370q0 -86 90 -98q87 -12 160 7q-3 81 -66 132q-51 42 -97 42q-28 0 -57.5 -27.5t-29.5 -55.5z M564 952l180 46q-58 68 -58 135q0 76 68 122q59 41 139 41q57 0 101 -24v-97q-44 11 -88 11q-116 0 -116 -67q0 -35 30 -58q27 -22 63 -22q30 0 195 46l31 -118l-514 -126z" />
<glyph unicode="&#x678;" horiz-adv-x="1553" d="M167 32q0 131 63 306l208 -66q-35 -117 -35 -223q0 -333 340 -333q370 0 508 162q12 14 12 30q0 21 -26 30q-83 30 -427 111l62 219h681v-267h-38q0 -100 -33 -170q-87 -184 -334 -287q-209 -88 -440 -88q-541 0 -541 576zM427 748l180 46q-58 68 -58 135q0 76 68 122 q59 41 139 41q57 0 101 -24v-97q-44 11 -88 11q-116 0 -116 -67q0 -35 30 -58q27 -22 63 -22q30 0 195 46l31 -118l-514 -126z" />
<glyph unicode="&#x67c;" horiz-adv-x="489" d="M-99 901v212h211v-212h-211zM-70 1v267h220q85 0 85 64q0 25 -16 54l-115 206l213 141q169 -281 169 -406q0 -326 -284 -326h-272zM-2 -86q0 75 58 133t133 58q74 0 132.5 -58t58.5 -133q0 -79 -55.5 -135t-135.5 -56q-78 0 -134.5 57t-56.5 134zM107 -86q0 -36 22.5 -59 t59.5 -23q81 0 81 84q0 34 -25 56.5t-60 22.5q-29 0 -53.5 -25.5t-24.5 -55.5zM186 901v212h211v-212h-211z" />
<glyph unicode="&#x67c;" horiz-adv-x="622" d="M-70 1v267h87q143 0 143 161v263h236v-135q0 -289 208 -289h18v-267h-27q-76 0 -145.5 44t-102.5 112q-40 -86 -97.5 -121t-152.5 -35h-167zM5 -86q0 75 58 133t133 58q74 0 132.5 -58t58.5 -133q0 -79 -55.5 -135t-135.5 -56q-78 0 -134.5 57t-56.5 134zM6 873v212h211 v-212h-211zM114 -86q0 -36 22.5 -59t59.5 -23q81 0 81 84q0 34 -25 56.5t-60 22.5q-29 0 -53.5 -25.5t-24.5 -55.5zM291 873v212h211v-212h-211z" />
<glyph unicode="&#x67c;" horiz-adv-x="2293" d="M167 362v150h236v-111q0 -77 41 -107q35 -26 116 -26h1104q82 0 82 55q0 27 -19 63l-108 206l201 135q13 -21 91 -170q152 -289 365 -289h17v-267h-21q-197 0 -330 187q-34 -187 -243 -187h-1185q-347 0 -347 361zM748 822v212h211v-212h-211zM854 -85q0 75 58 133 t133 58q74 0 132.5 -58t58.5 -133q0 -79 -55.5 -135t-135.5 -56q-78 0 -134.5 57t-56.5 134zM963 -85q0 -36 22.5 -59t59.5 -23q81 0 81 84q0 34 -25 56.5t-60 22.5q-29 0 -53.5 -25.5t-24.5 -55.5zM1033 822v212h211v-212h-211z" />
<glyph unicode="&#x67d;" horiz-adv-x="489" d="M-70 1v267h220q85 0 85 64q0 25 -16 54l-115 206l213 141q169 -281 169 -406q0 -326 -284 -326h-272zM-22 1058v215h209v-215h-209zM100 807v212h215v-212h-215zM239 1058v215h211v-215h-211z" />
<glyph unicode="&#x67d;" horiz-adv-x="622" d="M-70 1v267h87q143 0 143 161v263h236v-135q0 -289 208 -289h18v-267h-27q-76 0 -145.5 44t-102.5 112q-40 -86 -97.5 -121t-152.5 -35h-167zM41 1082v215h209v-215h-209zM163 831v212h215v-212h-215zM302 1082v215h211v-215h-211z" />
<glyph unicode="&#x67d;" horiz-adv-x="2293" d="M167 362v150h236v-111q0 -77 41 -107q35 -26 116 -26h1104q82 0 82 55q0 27 -19 63l-108 206l201 135q13 -21 91 -170q152 -289 365 -289h17v-267h-21q-197 0 -330 187q-34 -187 -243 -187h-1185q-347 0 -347 361zM784 970v215h209v-215h-209zM906 719v212h215v-212h-215 zM1045 970v215h211v-215h-211z" />
<glyph unicode="&#x681;" horiz-adv-x="986" d="M-70 1v267h647l-247 244q-53 52 -122 52h-160v243h206q111 0 184 -73l548 -549l-135 -184h-921zM148 1094l180 46q-58 68 -58 135q0 76 68 122q59 41 139 41q57 0 101 -24v-97q-44 11 -88 11q-116 0 -116 -67q0 -35 30 -58q27 -22 63 -22q30 0 195 46l31 -118l-514 -126z " />
<glyph unicode="&#x681;" horiz-adv-x="1286" d="M-70 1v267h96q158 0 271 43q47 17 94.5 44.5t96.5 65.5q20 16 69 53.5t128 100.5q-210 6 -308 6q-37 0 -63 -1.5t-52 -7.5t-57 -18.5t-78 -34.5l-114 195q114 131 274 131l957 -34l-28 -255h-87q-81 0 -154 -40q-19 -11 -49 -32t-75 -53q34 -38 65 -65t59 -44 q91 -54 217 -54h94v-267h-198q-143 0 -233 87q-43 40 -153 215q-85 -73 -145.5 -123t-102.5 -76q-158 -103 -294 -103h-230zM391 1152l180 46q-58 68 -58 135q0 76 68 122q59 41 139 41q57 0 101 -24v-97q-44 11 -88 11q-116 0 -116 -67q0 -35 30 -58q27 -22 63 -22 q30 0 195 46l31 -118l-514 -126z" />
<glyph unicode="&#x681;" horiz-adv-x="1466" d="M167 -145q0 269 270 505q78 67 167 124.5t195 107.5q-43 2 -84.5 3t-83.5 1q-69 0 -136 -3q-80 -3 -180 -61l-120 195q21 27 52 51t67 42t73.5 28.5t71.5 10.5l969 -35l-25 -254h-89q-35 0 -77 -8t-83.5 -21.5t-79 -31t-63.5 -35.5q64 -94 106 -128q93 -78 225 -78h124 v-267h-167q-175 0 -276 89q-77 68 -193 280q-142 -87 -256 -209q-150 -161 -150 -292q0 -79 30 -142.5t83.5 -108.5t128 -69t164.5 -24q154 0 267 39q29 11 72 28t103 37l114 -219q-281 -152 -548 -152q-160 0 -284.5 39.5t-210.5 115.5t-131 187.5t-45 254.5zM504 1153 l180 46q-58 68 -58 135q0 76 68 122q59 41 139 41q57 0 101 -24v-97q-44 11 -88 11q-116 0 -116 -67q0 -35 30 -58q27 -22 63 -22q30 0 195 46l31 -118l-514 -126z" />
<glyph unicode="&#x682;" horiz-adv-x="986" d="M-70 1v267h647l-247 244q-53 52 -122 52h-160v243h206q111 0 184 -73l548 -549l-135 -184h-921zM283 934v212h211v-212h-211zM283 1192v212h211v-212h-211z" />
<glyph unicode="&#x682;" horiz-adv-x="1286" d="M-70 1v267h96q158 0 271 43q47 17 94.5 44.5t96.5 65.5q20 16 69 53.5t128 100.5q-210 6 -308 6q-37 0 -63 -1.5t-52 -7.5t-57 -18.5t-78 -34.5l-114 195q114 131 274 131l957 -34l-28 -255h-87q-81 0 -154 -40q-19 -11 -49 -32t-75 -53q34 -38 65 -65t59 -44 q91 -54 217 -54h94v-267h-198q-143 0 -233 87q-43 40 -153 215q-85 -73 -145.5 -123t-102.5 -76q-158 -103 -294 -103h-230zM521 1005v212h211v-212h-211zM521 1263v212h211v-212h-211z" />
<glyph unicode="&#x682;" horiz-adv-x="1466" d="M167 -145q0 269 270 505q78 67 167 124.5t195 107.5q-43 2 -84.5 3t-83.5 1q-69 0 -136 -3q-80 -3 -180 -61l-120 195q21 27 52 51t67 42t73.5 28.5t71.5 10.5l969 -35l-25 -254h-89q-35 0 -77 -8t-83.5 -21.5t-79 -31t-63.5 -35.5q64 -94 106 -128q93 -78 225 -78h124 v-267h-167q-175 0 -276 89q-77 68 -193 280q-142 -87 -256 -209q-150 -161 -150 -292q0 -79 30 -142.5t83.5 -108.5t128 -69t164.5 -24q154 0 267 39q29 11 72 28t103 37l114 -219q-281 -152 -548 -152q-160 0 -284.5 39.5t-210.5 115.5t-131 187.5t-45 254.5zM726 1036v212 h211v-212h-211zM726 1294v212h211v-212h-211z" />
<glyph unicode="&#x685;" horiz-adv-x="986" d="M-70 1v267h647l-247 244q-53 52 -122 52h-160v243h206q111 0 184 -73l548 -549l-135 -184h-921zM168 959v215h209v-215h-209zM290 1212v213h215v-213h-215zM429 959v215h211v-215h-211z" />
<glyph unicode="&#x685;" horiz-adv-x="1286" d="M-70 1v267h96q158 0 271 43q47 17 94.5 44.5t96.5 65.5q20 16 69 53.5t128 100.5q-210 6 -308 6q-37 0 -63 -1.5t-52 -7.5t-57 -18.5t-78 -34.5l-114 195q114 131 274 131l957 -34l-28 -255h-87q-81 0 -154 -40q-19 -11 -49 -32t-75 -53q34 -38 65 -65t59 -44 q91 -54 217 -54h94v-267h-198q-143 0 -233 87q-43 40 -153 215q-85 -73 -145.5 -123t-102.5 -76q-158 -103 -294 -103h-230zM374 1001v215h209v-215h-209zM496 1254v213h215v-213h-215zM635 1001v215h211v-215h-211z" />
<glyph unicode="&#x685;" horiz-adv-x="1466" d="M167 -145q0 269 270 505q78 67 167 124.5t195 107.5q-43 2 -84.5 3t-83.5 1q-69 0 -136 -3q-80 -3 -180 -61l-120 195q21 27 52 51t67 42t73.5 28.5t71.5 10.5l969 -35l-25 -254h-89q-35 0 -77 -8t-83.5 -21.5t-79 -31t-63.5 -35.5q64 -94 106 -128q93 -78 225 -78h124 v-267h-167q-175 0 -276 89q-77 68 -193 280q-142 -87 -256 -209q-150 -161 -150 -292q0 -79 30 -142.5t83.5 -108.5t128 -69t164.5 -24q154 0 267 39q29 11 72 28t103 37l114 -219q-281 -152 -548 -152q-160 0 -284.5 39.5t-210.5 115.5t-131 187.5t-45 254.5zM602 1027v215 h209v-215h-209zM724 1280v213h215v-213h-215zM863 1027v215h211v-215h-211z" />
<glyph unicode="&#x689;" horiz-adv-x="1524" d="M163 220l163 163q104 -115 185 -115h316q141 0 141 58q0 24 -19 61l-268 521l209 135l281 -556q58 -115 129 -165q79 -54 202 -54h22v-267h-30q-182 0 -319 156q-71 -90 -108 -113q-70 -43 -212 -43h-316q-188 0 -376 219zM469 -131q0 75 58 133t133 58q74 0 132.5 -58 t58.5 -133q0 -79 -55.5 -135t-135.5 -56q-78 0 -134.5 57t-56.5 134zM578 -131q0 -36 22.5 -59t59.5 -23q81 0 81 84q0 34 -25 56.5t-60 22.5q-29 0 -53.5 -25.5t-24.5 -55.5z" />
<glyph unicode="&#x68a;" horiz-adv-x="1524" d="M163 220l163 163q104 -115 185 -115h316q141 0 141 58q0 24 -19 61l-268 521l209 135l281 -556q58 -115 129 -165q79 -54 202 -54h22v-267h-30q-182 0 -319 156q-71 -90 -108 -113q-70 -43 -212 -43h-316q-188 0 -376 219zM424 -212h237v-237h-237v237z" />
<glyph unicode="&#x68b;" horiz-adv-x="1524" d="M163 220l163 163q104 -115 185 -115h316q141 0 141 58q0 24 -19 61l-268 521l209 135l281 -556q58 -115 129 -165q79 -54 202 -54h22v-267h-30q-182 0 -319 156q-71 -90 -108 -113q-70 -43 -212 -43h-316q-188 0 -376 219zM473 -183h237v-237h-237v237zM487 1234v47h91 q25 0 25 41v281h79v-246q35 45 74 74q50 37 96 37q49 0 84 -42q33 -39 33 -89q0 -76 -54 -116q-39 -30 -79 -30h-233q-55 0 -116 43zM708 1281h125q28 0 45.5 15t17.5 42q0 21 -17 34q-15 12 -36 12q-51 0 -135 -103z" />
<glyph unicode="&#x68f;" horiz-adv-x="1524" d="M163 220l163 163q104 -115 185 -115h316q141 0 141 58q0 24 -19 61l-268 521l209 135l281 -556q58 -115 129 -165q79 -54 202 -54h22v-267h-30q-182 0 -319 156q-71 -90 -108 -113q-70 -43 -212 -43h-316q-188 0 -376 219zM498 1375v215h209v-215h-209zM620 1124v212h215 v-212h-215zM759 1375v215h211v-215h-211z" />
<glyph unicode="&#x690;" horiz-adv-x="1524" d="M163 220l163 163q104 -115 185 -115h316q141 0 141 58q0 24 -19 61l-268 521l209 135l281 -556q58 -115 129 -165q79 -54 202 -54h22v-267h-30q-182 0 -319 156q-71 -90 -108 -113q-70 -43 -212 -43h-316q-188 0 -376 219zM450 1333v215h209v-215h-209zM560 1615v212h215 v-212h-215zM572 1082v212h215v-212h-215zM711 1333v215h211v-215h-211z" />
<glyph unicode="&#x692;" horiz-adv-x="1219" d="M48 -305q142 77 264 155q281 180 355 303q26 43 26 103q0 49 -19 89q-28 76 -125 257l215 129l135 -265q47 -93 81 -126q73 -72 209 -72h30v-267h-29q-166 0 -265 128q-8 -33 -63 -128q-111 -190 -695 -521zM298 1220l155 2q13 -19 27 -52t27.5 -71.5t24.5 -76.5t17 -68 q6 30 17.5 68t25 76.5t28 71.5t27.5 52l155 -2q-18 -14 -47.5 -58.5t-60.5 -102.5t-57.5 -122t-39.5 -117h-94q-9 36 -25 77t-35 82.5t-40 80.5t-40.5 71.5t-36.5 55.5t-28 33z" />
<glyph unicode="&#x693;" horiz-adv-x="1219" d="M48 -305q142 77 264 155q281 180 355 303q26 43 26 103q0 49 -19 89q-28 76 -125 257l215 129l135 -265q47 -93 81 -126q73 -72 209 -72h30v-267h-29q-166 0 -265 128q-8 -33 -63 -128q-111 -190 -695 -521zM308 -471q0 75 58 133t133 58q74 0 132.5 -58t58.5 -133 q0 -79 -55.5 -135t-135.5 -56q-78 0 -134.5 57t-56.5 134zM417 -471q0 -36 22.5 -59t59.5 -23q81 0 81 84q0 34 -25 56.5t-60 22.5q-29 0 -53.5 -25.5t-24.5 -55.5z" />
<glyph unicode="&#x694;" horiz-adv-x="1219" d="M48 -305q142 77 264 155q281 180 355 303q26 43 26 103q0 49 -19 89q-28 76 -125 257l215 129l135 -265q47 -93 81 -126q73 -72 209 -72h30v-267h-29q-166 0 -265 128q-8 -33 -63 -128q-111 -190 -695 -521zM353 -578h237v-237h-237v237z" />
<glyph unicode="&#x695;" horiz-adv-x="1219" d="M48 -305q142 77 264 155q281 180 355 303q26 43 26 103q0 49 -19 89q-28 76 -125 257l215 129l135 -265q47 -93 81 -126q73 -72 209 -72h30v-267h-29q-166 0 -265 128q-8 -33 -63 -128q-111 -190 -695 -521zM86 -649l155 2q13 -19 27 -52t27.5 -71.5t24.5 -76.5t17 -68 q6 30 17.5 68t25 76.5t28 71.5t27.5 52l155 -2q-18 -14 -47.5 -58.5t-60.5 -102.5t-57.5 -122t-39.5 -117h-94q-9 36 -25 77t-35 82.5t-40 80.5t-40.5 71.5t-36.5 55.5t-28 33z" />
<glyph unicode="&#x696;" horiz-adv-x="1219" d="M48 -305q142 77 264 155q281 180 355 303q26 43 26 103q0 49 -19 89q-28 76 -125 257l215 129l135 -265q47 -93 81 -126q73 -72 209 -72h30v-267h-29q-166 0 -265 128q-8 -33 -63 -128q-111 -190 -695 -521zM118 1v237h237v-237h-237zM258 -593h237v-237h-237v237z" />
<glyph unicode="&#x697;" horiz-adv-x="1219" d="M48 -305q142 77 264 155q281 180 355 303q26 43 26 103q0 49 -19 89q-28 76 -125 257l215 129l135 -265q47 -93 81 -126q73 -72 209 -72h30v-267h-29q-166 0 -265 128q-8 -33 -63 -128q-111 -190 -695 -521zM369 854v212h211v-212h-211zM654 854v212h211v-212h-211z" />
<glyph unicode="&#x699;" horiz-adv-x="1219" d="M48 -305q142 77 264 155q281 180 355 303q26 43 26 103q0 49 -19 89q-28 76 -125 257l215 129l135 -265q47 -93 81 -126q73 -72 209 -72h30v-267h-29q-166 0 -265 128q-8 -33 -63 -128q-111 -190 -695 -521zM322 1075v215h209v-215h-209zM432 1357v212h215v-212h-215z M444 824v212h215v-212h-215zM583 1075v215h211v-215h-211z" />
<glyph unicode="&#x69a;" horiz-adv-x="1431" d="M-70 1v267h79q69 0 98 22q43 33 43 132v267h236q0 -209 30 -298q38 -112 140 -112q56 0 88 55q27 46 27 105v246h219q0 -406 187 -406q111 0 111 95q0 92 -104 274l195 117q152 -247 152 -395q0 -159 -77 -254q-84 -104 -238 -104q-192 0 -293 152q-85 -163 -260 -163 q-75 0 -146 44.5t-108 111.5q-41 -73 -117.5 -114.5t-162.5 -41.5h-99zM663 881v237h237v-237h-237zM682 -203h237v-237h-237v237z" />
<glyph unicode="&#x69a;" horiz-adv-x="1639" d="M-70 1v267h81q69 0 97 22q42 33 42 132v267h236q0 -417 177 -417q108 0 108 167v250h243q0 -177 15 -253q34 -171 144 -171q102 0 102 153v271h236q0 -264 54 -353q41 -68 148 -68h26v-267h-28q-164 0 -267 152q-86 -152 -236 -152q-168 0 -281 139q-32 -66 -112 -105 q-71 -34 -152 -34q-79 0 -150 42q-74 44 -104 114q-85 -156 -280 -156h-99zM684 884v237h237v-237h-237zM696 -192h237v-237h-237v237z" />
<glyph unicode="&#x69a;" horiz-adv-x="2644" d="M167 4q0 39 20 132q23 109 52 173l206 -73q-52 -127 -52 -236q0 -195 140 -287q108 -71 270 -71q196 0 308 98q119 103 119 295q0 199 -194 517l201 129q39 -74 122 -220q108 -179 208 -179q118 0 118 156v246h239q0 -420 167 -420q102 0 102 153v271h235q0 -265 49 -352 q38 -68 142 -68h25v-267h-28q-99 0 -156 33q-53 32 -108 118q-97 -159 -261 -159q-133 0 -246 146q-73 -139 -216 -139q-97 0 -159 48q0 -190 -56 -319q-72 -167 -195 -251q-156 -107 -427 -107q-330 0 -495 215q-130 169 -130 418zM1695 909v237h237v-237h-237zM1745 -228 h237v-237h-237v237z" />
<glyph unicode="&#x69b;" horiz-adv-x="1431" d="M-70 1v267h79q69 0 98 22q43 33 43 132v267h236q0 -209 30 -298q38 -112 140 -112q56 0 88 55q27 46 27 105v246h219q0 -406 187 -406q111 0 111 95q0 92 -104 274l195 117q152 -247 152 -395q0 -159 -77 -254q-84 -104 -238 -104q-192 0 -293 152q-85 -163 -260 -163 q-75 0 -146 44.5t-108 111.5q-41 -73 -117.5 -114.5t-162.5 -41.5h-99zM440 -204h209v-215h-209v215zM562 -458h215v-212h-215v212zM701 -204h211v-215h-211v215z" />
<glyph unicode="&#x69b;" horiz-adv-x="1639" d="M-70 1v267h81q69 0 97 22q42 33 42 132v267h236q0 -417 177 -417q108 0 108 167v250h243q0 -177 15 -253q34 -171 144 -171q102 0 102 153v271h236q0 -264 54 -353q41 -68 148 -68h26v-267h-28q-164 0 -267 152q-86 -152 -236 -152q-168 0 -281 139q-32 -66 -112 -105 q-71 -34 -152 -34q-79 0 -150 42q-74 44 -104 114q-85 -156 -280 -156h-99zM520 -223h209v-215h-209v215zM642 -477h215v-212h-215v212zM781 -223h211v-215h-211v215z" />
<glyph unicode="&#x69b;" horiz-adv-x="2644" d="M167 4q0 39 20 132q23 109 52 173l206 -73q-52 -127 -52 -236q0 -195 140 -287q108 -71 270 -71q196 0 308 98q119 103 119 295q0 199 -194 517l201 129q39 -74 122 -220q108 -179 208 -179q118 0 118 156v246h239q0 -420 167 -420q102 0 102 153v271h235q0 -265 49 -352 q38 -68 142 -68h25v-267h-28q-99 0 -156 33q-53 32 -108 118q-97 -159 -261 -159q-133 0 -246 146q-73 -139 -216 -139q-97 0 -159 48q0 -190 -56 -319q-72 -167 -195 -251q-156 -107 -427 -107q-330 0 -495 215q-130 169 -130 418zM1727 -214h209v-215h-209v215zM1849 -468 h215v-212h-215v212zM1988 -214h211v-215h-211v215z" />
<glyph unicode="&#x69c;" horiz-adv-x="1431" d="M-70 1v267h79q69 0 98 22q43 33 43 132v267h236q0 -209 30 -298q38 -112 140 -112q56 0 88 55q27 46 27 105v246h219q0 -406 187 -406q111 0 111 95q0 92 -104 274l195 117q152 -247 152 -395q0 -159 -77 -254q-84 -104 -238 -104q-192 0 -293 152q-85 -163 -260 -163 q-75 0 -146 44.5t-108 111.5q-41 -73 -117.5 -114.5t-162.5 -41.5h-99zM525 -208h209v-215h-209v215zM535 898v215h209v-215h-209zM647 -462h215v-212h-215v212zM657 1151v213h215v-213h-215zM786 -208h211v-215h-211v215zM796 898v215h211v-215h-211z" />
<glyph unicode="&#x69c;" horiz-adv-x="1639" d="M-70 1v267h81q69 0 97 22q42 33 42 132v267h236q0 -417 177 -417q108 0 108 167v250h243q0 -177 15 -253q34 -171 144 -171q102 0 102 153v271h236q0 -264 54 -353q41 -68 148 -68h26v-267h-28q-164 0 -267 152q-86 -152 -236 -152q-168 0 -281 139q-32 -66 -112 -105 q-71 -34 -152 -34q-79 0 -150 42q-74 44 -104 114q-85 -156 -280 -156h-99zM561 -198h209v-215h-209v215zM570 894v215h209v-215h-209zM683 -452h215v-212h-215v212zM692 1147v213h215v-213h-215zM822 -198h211v-215h-211v215zM831 894v215h211v-215h-211z" />
<glyph unicode="&#x69c;" horiz-adv-x="2644" d="M167 4q0 39 20 132q23 109 52 173l206 -73q-52 -127 -52 -236q0 -195 140 -287q108 -71 270 -71q196 0 308 98q119 103 119 295q0 199 -194 517l201 129q39 -74 122 -220q108 -179 208 -179q118 0 118 156v246h239q0 -420 167 -420q102 0 102 153v271h235q0 -265 49 -352 q38 -68 142 -68h25v-267h-28q-99 0 -156 33q-53 32 -108 118q-97 -159 -261 -159q-133 0 -246 146q-73 -139 -216 -139q-97 0 -159 48q0 -190 -56 -319q-72 -167 -195 -251q-156 -107 -427 -107q-330 0 -495 215q-130 169 -130 418zM1567 912v215h209v-215h-209zM1618 -199 h209v-215h-209v215zM1689 1165v213h215v-213h-215zM1740 -453h215v-212h-215v212zM1828 912v215h211v-215h-211zM1879 -199h211v-215h-211v215z" />
<glyph unicode="&#x69d;" horiz-adv-x="1491" d="M-70 1v267h84q133 0 133 117v280h241v-203q0 -41 29.5 -88t67.5 -65q351 524 658 524q141 0 245 -119q101 -115 101 -258q0 -230 -134 -352q-113 -103 -279 -103h-440q-225 0 -304 157q-39 -78 -87 -110q-71 -47 -215 -47h-100zM324 -212h211v-212h-211v212zM609 -212 h211v-212h-211v212zM709 270h343q209 0 209 175q0 62 -48 102q-45 37 -109 37q-90 0 -193 -90q-75 -65 -202 -224z" />
<glyph unicode="&#x69d;" horiz-adv-x="1640" d="M-70 1v267h89q127 0 127 115v278h240v-202q0 -106 90 -149q347 518 660 518q145 0 247 -116q98 -112 98 -259q0 -56 -22 -150q53 -35 154 -35h27v-267h-29q-164 0 -256 115q-104 -115 -285 -115h-438q-223 0 -302 156q-54 -83 -74 -99q-72 -57 -225 -57h-101zM285 -154 h211v-212h-211v212zM570 -154h211v-212h-211v212zM706 268h340q209 0 209 174q0 62 -48 102q-45 37 -109 37q-90 0 -192 -90q-74 -65 -200 -223z" />
<glyph unicode="&#x69d;" horiz-adv-x="2641" d="M167 29q0 39 20 133q23 110 52 173l206 -73q-52 -127 -52 -237q0 -194 141 -285q107 -69 272 -69q199 0 310 96q117 102 117 297q0 107 -62 266q-52 133 -125 248l215 131q156 -347 229 -374q317 493 626 493q135 0 248 -116q107 -109 107 -225q0 -135 -22 -184 q47 -35 167 -35h25v-267h-30q-71 0 -145 33q-81 36 -114 92q-84 -125 -302 -125h-434q-107 0 -135 45q0 -366 -284 -551q-179 -116 -405 -116q-333 0 -497 223q-128 174 -128 427zM1617 -214h211v-212h-211v212zM1685 268h341q208 0 208 174q0 62 -45 100.5t-108 38.5 q-91 0 -195 -90q-73 -64 -201 -223zM1902 -214h211v-212h-211v212z" />
<glyph unicode="&#x69e;" horiz-adv-x="1491" d="M-70 1v267h84q133 0 133 117v280h241v-203q0 -41 29.5 -88t67.5 -65q351 524 658 524q141 0 245 -119q101 -115 101 -258q0 -230 -134 -352q-113 -103 -279 -103h-440q-225 0 -304 157q-39 -78 -87 -110q-71 -47 -215 -47h-100zM302 918v215h209v-215h-209zM424 1171v213 h215v-213h-215zM563 918v215h211v-215h-211zM709 270h343q209 0 209 175q0 62 -48 102q-45 37 -109 37q-90 0 -193 -90q-75 -65 -202 -224z" />
<glyph unicode="&#x69e;" horiz-adv-x="1640" d="M-70 1v267h89q127 0 127 115v278h240v-202q0 -106 90 -149q347 518 660 518q145 0 247 -116q98 -112 98 -259q0 -56 -22 -150q53 -35 154 -35h27v-267h-29q-164 0 -256 115q-104 -115 -285 -115h-438q-223 0 -302 156q-54 -83 -74 -99q-72 -57 -225 -57h-101zM358 900 v215h209v-215h-209zM480 1153v213h215v-213h-215zM619 900v215h211v-215h-211zM706 268h340q209 0 209 174q0 62 -48 102q-45 37 -109 37q-90 0 -192 -90q-74 -65 -200 -223z" />
<glyph unicode="&#x69e;" horiz-adv-x="2641" d="M167 29q0 39 20 133q23 110 52 173l206 -73q-52 -127 -52 -237q0 -194 141 -285q107 -69 272 -69q199 0 310 96q117 102 117 297q0 107 -62 266q-52 133 -125 248l215 131q156 -347 229 -374q317 493 626 493q135 0 248 -116q107 -109 107 -225q0 -135 -22 -184 q47 -35 167 -35h25v-267h-30q-71 0 -145 33q-81 36 -114 92q-84 -125 -302 -125h-434q-107 0 -135 45q0 -366 -284 -551q-179 -116 -405 -116q-333 0 -497 223q-128 174 -128 427zM1276 891v215h209v-215h-209zM1398 1144v213h215v-213h-215zM1537 891v215h211v-215h-211z M1685 268h341q208 0 208 174q0 62 -45 100.5t-108 38.5q-91 0 -195 -90q-73 -64 -201 -223z" />
<glyph unicode="&#x69f;" horiz-adv-x="1789" d="M167 123v152h243q46 0 78.5 36t32.5 83v840h237v-736q102 134 221 222q152 112 289 111q147 -1 254 -116t107 -263q0 -68 -17 -149q41 -35 152 -35h25v-267h-29q-96 0 -171 43q-56 32 -81 72q-109 -115 -288 -115h-695q-68 0 -186 43q-100 37 -172 79zM838 268h371 q83 0 135.5 46t52.5 128q0 60 -45.5 98t-107.5 38q-159 0 -406 -310zM910 995v215h209v-215h-209zM1032 1248v213h215v-213h-215zM1171 995v215h211v-215h-211z" />
<glyph unicode="&#x6a0;" horiz-adv-x="932" d="M-70 1v267h188q-52 84 -52 219q0 133 102 229q114 108 305 108q213 0 424 -135q-34 -54 -98 -180q-54 35 -152 59q-82 20 -133 20q-71 0 -126 -40q-60 -44 -62 -113q-2 -66 56 -113q66 -54 185 -54h364v-267h-1001zM196 986v215h209v-215h-209zM318 1239v213h215v-213 h-215zM457 986v215h211v-215h-211z" />
<glyph unicode="&#x6a0;" horiz-adv-x="838" d="M-70 1v267h116q150 0 225 32q-46 38 -134.5 118.5t-88.5 151.5q0 90 162 146q125 43 235 43q109 0 189 -42q99 -53 99 -153q0 -57 -19 -96q-21 -44 -106 -154q51 -46 153 -46h77v-267h-53q-96 0 -212 69q-74 44 -111 81q-140 -150 -319 -150h-213zM170 931v215h209v-215 h-209zM292 1184v213h215v-213h-215zM431 931v215h211v-215h-211z" />
<glyph unicode="&#x6a0;" horiz-adv-x="1210" d="M167 -256q0 159 114 299q87 107 223 191l156 90q-41 39 -122 119q-90 90 -90 155q0 67 90 125q108 70 285 70q105 0 203 -56q107 -61 107 -142q0 -122 -139 -271q40 -32 64 -41q39 -15 120 -15h32v-267h-31q-173 0 -349 170q-17 0 -117 -60q-310 -185 -310 -353 q0 -140 139 -203q102 -47 261 -47q153 0 347 59l77 -222q-244 -98 -466 -98q-240 0 -408 126q-186 139 -186 371zM553 977v215h209v-215h-209zM675 1230v213h215v-213h-215zM814 977v215h211v-215h-211z" />
<glyph unicode="&#x6a1;" horiz-adv-x="822" d="M-70 0v267h504q39 0 75 15q76 31 78 111q-52 -24 -149 -24q-127 0 -202.5 75.5t-79.5 202.5q-3 117 61 216q72 110 186 110q205 0 321 -198q96 -166 96 -386q0 -171 -81 -275q-90 -114 -256 -114h-553zM341 664q0 -97 135 -97q81 0 104 24q-10 58 -46 101q-41 48 -96 48 q-97 0 -97 -76z" />
<glyph unicode="&#x6a1;" horiz-adv-x="872" d="M-70 1v267h303q-115 106 -115 237q0 144 89 223q85 76 231 76q326 0 326 -299q0 -78 -46 -155q-39 -66 -75 -82h229v-267h-132q-70 0 -175 46q-92 40 -124 72q-48 -39 -128 -73q-104 -45 -188 -45h-195zM326 498q0 -48 44 -93q35 -36 71 -50q35 11 71 48q44 45 44 95 q0 42 -38 68q-33 22 -77 22q-115 0 -115 -90z" />
<glyph unicode="&#x6a1;" horiz-adv-x="2150" d="M167 383v129h236v-101q0 -143 166 -143h942q-114 96 -114 237q0 144 89 223q85 76 230 76q327 0 327 -299q0 -77 -47 -155q-40 -65 -74 -82h228v-267h-131q-71 0 -176 46q-91 40 -123 72q-151 -118 -317 -118h-899q-163 0 -253 112q-84 103 -84 270zM1605 498 q0 -48 43 -93q35 -36 72 -50q34 11 70 48q45 46 45 95q0 42 -38 68q-33 22 -77 22q-115 0 -115 -90z" />
<glyph unicode="&#x6a2;" horiz-adv-x="822" d="M-70 0v267h504q39 0 75 15q76 31 78 111q-52 -24 -149 -24q-127 0 -202.5 75.5t-79.5 202.5q-3 117 61 216q72 110 186 110q205 0 321 -198q96 -166 96 -386q0 -171 -81 -275q-90 -114 -256 -114h-553zM268 -208h237v-237h-237v237zM341 664q0 -97 135 -97q81 0 104 24 q-10 58 -46 101q-41 48 -96 48q-97 0 -97 -76z" />
<glyph unicode="&#x6a2;" horiz-adv-x="872" d="M-70 1v267h303q-115 106 -115 237q0 144 89 223q85 76 231 76q326 0 326 -299q0 -78 -46 -155q-39 -66 -75 -82h229v-267h-132q-70 0 -175 46q-92 40 -124 72q-48 -39 -128 -73q-104 -45 -188 -45h-195zM268 -210h237v-237h-237v237zM326 498q0 -48 44 -93q35 -36 71 -50 q35 11 71 48q44 45 44 95q0 42 -38 68q-33 22 -77 22q-115 0 -115 -90z" />
<glyph unicode="&#x6a2;" horiz-adv-x="2150" d="M167 383v129h236v-101q0 -143 166 -143h942q-114 96 -114 237q0 144 89 223q85 76 230 76q327 0 327 -299q0 -77 -47 -155q-40 -65 -74 -82h228v-267h-131q-71 0 -176 46q-91 40 -123 72q-151 -118 -317 -118h-899q-163 0 -253 112q-84 103 -84 270zM1605 498 q0 -48 43 -93q35 -36 72 -50q34 11 70 48q45 46 45 95q0 42 -38 68q-33 22 -77 22q-115 0 -115 -90zM1613 -207h237v-237h-237v237z" />
<glyph unicode="&#x6a3;" horiz-adv-x="822" d="M-70 0v267h504q39 0 75 15q76 31 78 111q-52 -24 -149 -24q-127 0 -202.5 75.5t-79.5 202.5q-3 117 61 216q72 110 186 110q205 0 321 -198q96 -166 96 -386q0 -171 -81 -275q-90 -114 -256 -114h-553zM259 -219h237v-237h-237v237zM285 1149v237h237v-237h-237zM341 664 q0 -97 135 -97q81 0 104 24q-10 58 -46 101q-41 48 -96 48q-97 0 -97 -76z" />
<glyph unicode="&#x6a3;" horiz-adv-x="872" d="M-70 1v267h303q-115 106 -115 237q0 144 89 223q85 76 231 76q326 0 326 -299q0 -78 -46 -155q-39 -66 -75 -82h229v-267h-132q-70 0 -175 46q-92 40 -124 72q-48 -39 -128 -73q-104 -45 -188 -45h-195zM307 965v237h237v-237h-237zM311 -205h237v-237h-237v237zM326 498 q0 -48 44 -93q35 -36 71 -50q35 11 71 48q44 45 44 95q0 42 -38 68q-33 22 -77 22q-115 0 -115 -90z" />
<glyph unicode="&#x6a3;" horiz-adv-x="2150" d="M167 383v129h236v-101q0 -143 166 -143h942q-114 96 -114 237q0 144 89 223q85 76 230 76q327 0 327 -299q0 -77 -47 -155q-40 -65 -74 -82h228v-267h-131q-71 0 -176 46q-91 40 -123 72q-151 -118 -317 -118h-899q-163 0 -253 112q-84 103 -84 270zM1571 -209h237v-237 h-237v237zM1580 973v237h237v-237h-237zM1605 498q0 -48 43 -93q35 -36 72 -50q34 11 70 48q45 46 45 95q0 42 -38 68q-33 22 -77 22q-115 0 -115 -90z" />
<glyph unicode="&#x6a5;" horiz-adv-x="822" d="M-70 0v267h504q39 0 75 15q76 31 78 111q-52 -24 -149 -24q-127 0 -202.5 75.5t-79.5 202.5q-3 117 61 216q72 110 186 110q205 0 321 -198q96 -166 96 -386q0 -171 -81 -275q-90 -114 -256 -114h-553zM114 -207h209v-215h-209v215zM236 -461h215v-212h-215v212zM341 664 q0 -97 135 -97q81 0 104 24q-10 58 -46 101q-41 48 -96 48q-97 0 -97 -76zM375 -207h211v-215h-211v215z" />
<glyph unicode="&#x6a5;" horiz-adv-x="872" d="M-70 1v267h303q-115 106 -115 237q0 144 89 223q85 76 231 76q326 0 326 -299q0 -78 -46 -155q-39 -66 -75 -82h229v-267h-132q-70 0 -175 46q-92 40 -124 72q-48 -39 -128 -73q-104 -45 -188 -45h-195zM167 -207h209v-215h-209v215zM289 -461h215v-212h-215v212z M326 498q0 -48 44 -93q35 -36 71 -50q35 11 71 48q44 45 44 95q0 42 -38 68q-33 22 -77 22q-115 0 -115 -90zM428 -207h211v-215h-211v215z" />
<glyph unicode="&#x6a5;" horiz-adv-x="2150" d="M167 383v129h236v-101q0 -143 166 -143h942q-114 96 -114 237q0 144 89 223q85 76 230 76q327 0 327 -299q0 -77 -47 -155q-40 -65 -74 -82h228v-267h-131q-71 0 -176 46q-91 40 -123 72q-151 -118 -317 -118h-899q-163 0 -253 112q-84 103 -84 270zM1437 -209h209v-215 h-209v215zM1559 -463h215v-212h-215v212zM1605 498q0 -48 43 -93q35 -36 72 -50q34 11 70 48q45 46 45 95q0 42 -38 68q-33 22 -77 22q-115 0 -115 -90zM1698 -209h211v-215h-211v215z" />
<glyph unicode="&#x6a7;" horiz-adv-x="1634" d="M167 53q0 92 41 230l220 -56q-25 -95 -25 -178q0 -347 383 -347q406 0 461 299h-118q-161 0 -250.5 88t-89.5 249q0 127 77 219q82 97 207 97q189 0 312 -176q62 -89 98 -210h151v-267h-133q-38 -273 -238 -425q-189 -144 -471 -144q-187 0 -329 66q-165 77 -234 230 q-62 139 -62 325zM932 832v237h237v-237h-237zM994 342q0 -98 135 -98h126q-15 84 -72 135q-48 43 -95 43q-38 0 -66 -21.5t-28 -58.5z" />
<glyph unicode="&#x6a8;" horiz-adv-x="1634" d="M167 53q0 92 41 230l220 -56q-25 -95 -25 -178q0 -347 383 -347q406 0 461 299h-118q-161 0 -250.5 88t-89.5 249q0 127 77 219q82 97 207 97q189 0 312 -176q62 -89 98 -210h151v-267h-133q-38 -273 -238 -425q-189 -144 -471 -144q-187 0 -329 66q-165 77 -234 230 q-62 139 -62 325zM814 781v215h209v-215h-209zM936 1034v213h215v-213h-215zM994 342q0 -98 135 -98h126q-15 84 -72 135q-48 43 -95 43q-38 0 -66 -21.5t-28 -58.5zM1075 781v215h211v-215h-211z" />
<glyph unicode="&#x6aa;" horiz-adv-x="1974" d="M-46 0v268q610 4 907 27q624 27 817 46l-1 55q-6 42 -20.5 61.5t-41.5 26t-68.5 4.5t-102.5 -5q-42 0 -119.5 -4t-175.5 -10t-208.5 -11.5t-220 -9.5t-211 -5t-179.5 4q-62 5 -103.5 26.5t-67.5 49t-38 56t-14 48.5q-5 56 21.5 108.5t74.5 101t113 92t136.5 81.5 t145 70.5t139.5 58.5t119.5 45t84.5 30l13 -242q-58 -17 -127.5 -38.5t-140.5 -44.5t-137 -47.5t-118 -48t-83.5 -45t-32.5 -39.5q2 -22 48 -33.5t123 -15t177 -1t209.5 8t222 13t214 14t185 10.5t135.5 2q89 -7 150 -43t92.5 -89t34.5 -118.5t-24 -131.5q-2 -5 -5 -10 q-1 -13 -98 -212q-717 -75 -1825 -103z" />
<glyph unicode="&#x6aa;" horiz-adv-x="2164" d="M-55 0v268q610 4 907 27q624 27 817 46l-1 55q-6 42 -20.5 61.5t-41.5 26t-68.5 4.5t-102.5 -5q-42 0 -119.5 -4t-175.5 -10t-208.5 -11.5t-220 -9.5t-211 -5t-179.5 4q-62 5 -103.5 26.5t-67.5 49t-38 56t-14 48.5q-5 56 21.5 108.5t74.5 101t113 92t136.5 81.5 t145 70.5t139.5 58.5t119.5 45t84.5 30l13 -242q-58 -17 -127.5 -38.5t-140.5 -44.5t-137 -47.5t-118 -48t-83.5 -45t-32.5 -39.5q2 -22 48 -33.5t123 -15t177 -1t209.5 8t222 13t214 14t185 10.5t135.5 2q89 -7 148 -42t87 -88t26 -118.5t-34 -133.5q-2 -5 -5 -10 q-1 -13 37 -30q43 -19 172 -17h127q11 -26 16.5 -61.5t5.5 -72.5t-5.5 -72.5t-16.5 -61.5h-112q-124 -2 -184 7.5t-90 34.5l-22 61q-717 -75 -1825 -103z" />
<glyph unicode="&#x6aa;" horiz-adv-x="2935" d="M80 383v129h236v-111q0 -133 153 -133h209q650 4 947 27q624 27 817 46l-1 55q-6 42 -20.5 61.5t-41.5 26t-68.5 4.5t-102.5 -5q-42 0 -119.5 -4t-175.5 -10t-208.5 -11.5t-220 -9.5t-211 -5t-179.5 4q-62 5 -103.5 26.5t-67.5 49t-38 56t-14 48.5q-5 56 21.5 108.5 t74.5 101t113 92t136.5 81.5t145 70.5t139.5 58.5t119.5 45t84.5 30l13 -242q-58 -17 -127.5 -38.5t-140.5 -44.5t-137 -47.5t-118 -48t-83.5 -45t-32.5 -39.5q2 -22 48 -33.5t123 -15t177 -1t209.5 8t222 13t214 14t185 10.5t135.5 2q89 -7 148 -42t87 -88t26 -118.5 t-34 -133.5q-2 -5 -5 -10q-1 -13 37 -30q43 -19 172 -17h127q11 -26 16.5 -61.5t5.5 -72.5t-5.5 -72.5t-16.5 -61.5h-112q-124 -2 -184 7q-60 10 -90 35l-22 61q-702 -74 -1817 -102h-10l-38 -1v1h-265q-333 0 -333 382z" />
<glyph unicode="&#x6ab;" horiz-adv-x="898" d="M-70 0v267h265q124 0 124 66q0 31 -28 88l-176 357q-38 77 -38 139q0 123 138 164l654 194l93 -202l-576 -148q-53 -14 -53 -46q0 -18 14 -45l178 -341q44 -84 44 -174q0 -152 -114 -239q-104 -80 -260 -80h-265zM532 870q0 75 58 133t133 58q74 0 132.5 -58t58.5 -133 q0 -79 -55.5 -135t-135.5 -56q-78 0 -134.5 57t-56.5 134zM641 870q0 -36 22.5 -59t59.5 -23q81 0 81 84q0 34 -25 56.5t-60 22.5q-29 0 -53.5 -25.5t-24.5 -55.5z" />
<glyph unicode="&#x6ab;" horiz-adv-x="903" d="M-70 1v267h257q119 0 119 78q0 34 -21 76l-177 357q-39 79 -39 138q0 121 139 165l612 194l94 -202l-536 -152q-51 -14 -51 -47q0 -17 14 -44l173 -337q46 -90 133 -151q107 -75 242 -75h14v-267h-31q-234 0 -344 174q-87 -174 -341 -174h-257zM469 865q0 75 58 133 t133 58q74 0 132.5 -58t58.5 -133q0 -79 -55.5 -135t-135.5 -56q-78 0 -134.5 57t-56.5 134zM578 865q0 -36 22.5 -59t59.5 -23q81 0 81 84q0 34 -25 56.5t-60 22.5q-29 0 -53.5 -25.5t-24.5 -55.5z" />
<glyph unicode="&#x6ab;" horiz-adv-x="2228" d="M167 383v129h236v-111q0 -133 153 -133h955q40 0 75 14q47 19 47 53q0 46 -21 87l-182 357q-33 65 -33 126q0 134 136 177l611 194l93 -205l-535 -153q-52 -15 -52 -46q0 -18 14 -44l177 -334q120 -226 379 -226h8v-267h-30q-99 0 -193 46q-98 48 -150 128 q-91 -174 -344 -174h-1011q-333 0 -333 382zM1808 866q0 75 58 133t133 58q74 0 132.5 -58t58.5 -133q0 -79 -55.5 -135t-135.5 -56q-78 0 -134.5 57t-56.5 134zM1917 866q0 -36 22.5 -59t59.5 -23q81 0 81 84q0 34 -25 56.5t-60 22.5q-29 0 -53.5 -25.5t-24.5 -55.5z" />
<glyph unicode="&#x6ae;" horiz-adv-x="898" d="M-70 0v267h265q124 0 124 66q0 31 -28 88l-176 357q-38 77 -38 139q0 123 138 164l654 194l93 -202l-576 -148q-53 -14 -53 -46q0 -18 14 -45l178 -341q44 -84 44 -174q0 -152 -114 -239q-104 -80 -260 -80h-265zM-28 -213h209v-215h-209v215zM94 -467h215v-212h-215v212 zM233 -213h211v-215h-211v215z" />
<glyph unicode="&#x6ae;" horiz-adv-x="903" d="M-70 1v267h257q119 0 119 78q0 34 -21 76l-177 357q-39 79 -39 138q0 121 139 165l612 194l94 -202l-536 -152q-51 -14 -51 -47q0 -17 14 -44l173 -337q46 -90 133 -151q107 -75 242 -75h14v-267h-31q-234 0 -344 174q-87 -174 -341 -174h-257zM49 -212h209v-215h-209 v215zM171 -466h215v-212h-215v212zM310 -212h211v-215h-211v215z" />
<glyph unicode="&#x6ae;" horiz-adv-x="1824" d="M167 383v129h236v-111q0 -133 153 -133h629h16q21 1 38 3q19 4 37 11q6 2 14 3q7 3 12 7q39 28 39 108v833h236v-719q0 -127 54 -185q56 -61 181 -61h12v-267h-54l1 1q-176 8 -241 147q-96 -148 -329 -148h-701q-333 0 -333 382zM550 -203h209v-215h-209v215zM592 720 l180 45q-59 68 -59 135q0 75 68 122q60 41 139 41q58 0 102 -24v-97q-44 11 -88 11q-116 0 -116 -67q0 -35 30 -58q27 -22 63 -22q30 0 195 46l31 -118l-514 -125zM672 -457h215v-212h-215v212zM811 -203h211v-215h-211v215z" />
<glyph unicode="&#x6b0;" horiz-adv-x="907" d="M-70 1v267h269q126 0 126 70q0 32 -26 84l-180 357q-39 77 -39 137q0 116 140 156l652 185l95 -183l-577 -148q-53 -14 -53 -46q0 -19 14 -45l182 -341q41 -77 41 -174q0 -152 -114 -240q-104 -79 -261 -79h-269zM114 1251l671 187l55 -125l-663 -188zM474 862 q0 75 58 133t133 58q74 0 132.5 -58t58.5 -133q0 -79 -55.5 -135t-135.5 -56q-78 0 -134.5 57t-56.5 134zM583 862q0 -36 22.5 -59t59.5 -23q81 0 81 84q0 34 -25 56.5t-60 22.5q-29 0 -53.5 -25.5t-24.5 -55.5z" />
<glyph unicode="&#x6b0;" horiz-adv-x="915" d="M-70 1v267h259q40 0 75 14q47 19 47 53q0 46 -21 87l-182 357q-37 73 -37 133q0 120 139 160l614 175l91 -181l-535 -141q-53 -14 -53 -51q0 -18 15 -46l177 -334q120 -226 369 -226h27v-267h-28q-105 0 -202 42q-113 48 -152 132q-91 -174 -344 -174h-259zM75 1241 l671 187l55 -125l-663 -187zM481 860q0 75 58 133t133 58q74 0 132.5 -58t58.5 -133q0 -79 -55.5 -135t-135.5 -56q-78 0 -134.5 57t-56.5 134zM590 860q0 -36 22.5 -59t59.5 -23q81 0 81 84q0 34 -25 56.5t-60 22.5q-29 0 -53.5 -25.5t-24.5 -55.5z" />
<glyph unicode="&#x6b0;" horiz-adv-x="2228" d="M167 383v129h236v-111q0 -133 153 -133h955q40 0 75 14q47 19 47 53q0 46 -21 87l-182 357q-37 73 -37 133q0 120 140 160l613 175l91 -181l-535 -141q-53 -14 -53 -51q0 -18 15 -46l177 -334q120 -226 379 -226h8v-267h-7q-124 0 -237 59q-101 53 -129 115 q-91 -174 -344 -174h-1011q-333 0 -333 382zM1398 1241l670 187l55 -125l-663 -187zM1800 861q0 75 58 133t133 58q74 0 132.5 -58t58.5 -133q0 -79 -55.5 -135t-135.5 -56q-78 0 -134.5 57t-56.5 134zM1909 861q0 -36 22.5 -59t59.5 -23q81 0 81 84q0 34 -25 56.5t-60 22.5 q-29 0 -53.5 -25.5t-24.5 -55.5z" />
<glyph unicode="&#x6b2;" horiz-adv-x="907" d="M-70 1v267h269q126 0 126 70q0 32 -26 84l-180 357q-39 77 -39 137q0 116 140 156l652 185l95 -183l-577 -148q-53 -14 -53 -46q0 -19 14 -45l182 -341q41 -77 41 -174q0 -152 -114 -240q-104 -79 -261 -79h-269zM-39 -202h211v-212h-211v212zM114 1251l671 187l55 -125 l-663 -188zM246 -202h211v-212h-211v212z" />
<glyph unicode="&#x6b2;" horiz-adv-x="915" d="M-70 1v267h259q40 0 75 14q47 19 47 53q0 46 -21 87l-182 357q-37 73 -37 133q0 120 139 160l614 175l91 -181l-535 -141q-53 -14 -53 -51q0 -18 15 -46l177 -334q120 -226 369 -226h27v-267h-28q-105 0 -202 42q-113 48 -152 132q-91 -174 -344 -174h-259zM21 -204h211 v-212h-211v212zM75 1241l671 187l55 -125l-663 -187zM306 -204h211v-212h-211v212z" />
<glyph unicode="&#x6b2;" horiz-adv-x="2228" d="M167 383v129h236v-111q0 -133 153 -133h955q40 0 75 14q47 19 47 53q0 46 -21 87l-182 357q-37 73 -37 133q0 120 140 160l613 175l91 -181l-535 -141q-53 -14 -53 -51q0 -18 15 -46l177 -334q120 -226 379 -226h8v-267h-7q-124 0 -237 59q-101 53 -129 115 q-91 -174 -344 -174h-1011q-333 0 -333 382zM714 -208h211v-212h-211v212zM999 -208h211v-212h-211v212zM1398 1241l670 187l55 -125l-663 -187z" />
<glyph unicode="&#x6b4;" horiz-adv-x="907" d="M-70 1v267h269q126 0 126 70q0 32 -26 84l-180 357q-39 77 -39 137q0 116 140 156l652 185l95 -183l-577 -148q-53 -14 -53 -46q0 -19 14 -45l182 -341q41 -77 41 -174q0 -152 -114 -240q-104 -79 -261 -79h-269zM114 1251l671 187l55 -125l-663 -188zM158 1472v215h209 v-215h-209zM280 1725v213h215v-213h-215zM419 1472v215h211v-215h-211z" />
<glyph unicode="&#x6b4;" horiz-adv-x="915" d="M-70 1v267h259q40 0 75 14q47 19 47 53q0 46 -21 87l-182 357q-37 73 -37 133q0 120 139 160l614 175l91 -181l-535 -141q-53 -14 -53 -51q0 -18 15 -46l177 -334q120 -226 369 -226h27v-267h-28q-105 0 -202 42q-113 48 -152 132q-91 -174 -344 -174h-259zM75 1241 l671 187l55 -125l-663 -187zM159 1494v215h209v-215h-209zM281 1747v213h215v-213h-215zM420 1494v215h211v-215h-211z" />
<glyph unicode="&#x6b4;" horiz-adv-x="2228" d="M167 383v129h236v-111q0 -133 153 -133h955q40 0 75 14q47 19 47 53q0 46 -21 87l-182 357q-37 73 -37 133q0 120 140 160l613 175l91 -181l-535 -141q-53 -14 -53 -51q0 -18 15 -46l177 -334q120 -226 379 -226h8v-267h-7q-124 0 -237 59q-101 53 -129 115 q-91 -174 -344 -174h-1011q-333 0 -333 382zM1398 1241l670 187l55 -125l-663 -187zM1424 1440v215h209v-215h-209zM1546 1693v213h215v-213h-215zM1685 1440v215h211v-215h-211z" />
<glyph unicode="&#x6b5;" horiz-adv-x="409" d="M-70 1v267h103q85 0 114 40q23 32 23 116v809h236v-868q0 -364 -337 -364h-139zM15 1712l155 2q13 -19 27 -52t27.5 -71.5t24.5 -76.5t17 -68q6 30 17.5 68t25 76.5t28 71.5t27.5 52l155 -2q-18 -14 -47.5 -58.5t-60.5 -102.5t-57.5 -122t-39.5 -117h-94q-9 36 -25 77 t-35 82.5t-40 80.5t-40.5 71.5t-36.5 55.5t-28 33z" />
<glyph unicode="&#x6b5;" horiz-adv-x="653" d="M-70 1v267h84q84 0 117 24q39 28 39 108v833h236v-719q0 -127 54 -185q56 -61 181 -61h12v-267h-28q-198 0 -267 151q-64 -151 -328 -151h-100zM14 1712l155 2q13 -19 27 -52t27.5 -71.5t24.5 -76.5t17 -68q6 30 17.5 68t25 76.5t28 71.5t27.5 52l155 -2 q-18 -14 -47.5 -58.5t-60.5 -102.5t-57.5 -122t-39.5 -117h-94q-9 36 -25 77t-35 82.5t-40 80.5t-40.5 71.5t-36.5 55.5t-28 33z" />
<glyph unicode="&#x6b5;" horiz-adv-x="1501" d="M167 22q0 55 20 150q22 106 52 166q72 -26 185 -70q-46 -194 -46 -232q0 -313 341 -313q123 0 213 51q128 72 128 223v1237h219v-688q0 -138 37 -199q48 -79 177 -79h29v-267h-29q-65 0 -125 26q-69 30 -93 82v-104q0 -215 -129 -366q-157 -183 -455 -183 q-247 0 -389 162q-135 154 -135 404zM893 1761l155 2q13 -19 27 -52t27.5 -71.5t24.5 -76.5t17 -68q6 30 17.5 68t25 76.5t28 71.5t27.5 52l155 -2q-18 -14 -47.5 -58.5t-60.5 -102.5t-57.5 -122t-39.5 -117h-94q-10 36 -25.5 77t-34.5 82.5t-40 80.5t-40.5 71.5t-36.5 55.5 t-28 33z" />
<glyph unicode="&#x6b6;" horiz-adv-x="409" d="M-70 1v267h103q85 0 114 40q23 32 23 116v809h236v-868q0 -364 -337 -364h-139zM155 1409v237h237v-237h-237z" />
<glyph unicode="&#x6b6;" horiz-adv-x="653" d="M-70 1v267h84q84 0 117 24q39 28 39 108v833h236v-719q0 -127 54 -185q56 -61 181 -61h12v-267h-28q-198 0 -267 151q-64 -151 -328 -151h-100zM147 1420v237h237v-237h-237z" />
<glyph unicode="&#x6b6;" horiz-adv-x="1507" d="M167 22q0 55 20 150q22 106 52 166q72 -26 185 -70q-46 -194 -46 -232q0 -313 341 -313q123 0 213 51q128 72 128 223v1237h219v-688q0 -138 37 -199q48 -79 177 -79h29v-267h-29q-65 0 -125 26q-69 30 -93 82v-104q0 -215 -129 -366q-157 -183 -455 -183 q-247 0 -389 162q-135 154 -135 404zM1020 1403v237h237v-237h-237z" />
<glyph unicode="&#x6b7;" horiz-adv-x="409" d="M-70 1v267h103q85 0 114 40q23 32 23 116v809h236v-868q0 -364 -337 -364h-139zM14 1414v215h209v-215h-209zM136 1667v213h215v-213h-215zM275 1414v215h211v-215h-211z" />
<glyph unicode="&#x6b7;" horiz-adv-x="653" d="M-70 1v267h84q84 0 117 24q39 28 39 108v833h236v-719q0 -127 54 -185q56 -61 181 -61h12v-267h-28q-198 0 -267 151q-64 -151 -328 -151h-100zM25 1422v215h209v-215h-209zM147 1675v213h215v-213h-215zM286 1422v215h211v-215h-211z" />
<glyph unicode="&#x6b7;" horiz-adv-x="1501" d="M167 22q0 55 20 150q22 106 52 166q72 -26 185 -70q-46 -194 -46 -232q0 -313 341 -313q123 0 213 51q128 72 128 223v1237h219v-688q0 -138 37 -199q48 -79 177 -79h29v-267h-29q-65 0 -125 26q-69 30 -93 82v-104q0 -215 -129 -366q-157 -183 -455 -183 q-247 0 -389 162q-135 154 -135 404zM882 1376v215h209v-215h-209zM1004 1629v213h215v-213h-215zM1143 1376v215h211v-215h-211z" />
<glyph unicode="&#x6b8;" horiz-adv-x="409" d="M-70 1v267h103q85 0 114 40q23 32 23 116v809h236v-868q0 -364 -337 -364h-139zM-25 -205h209v-215h-209v215zM97 -459h215v-212h-215v212zM236 -205h211v-215h-211v215z" />
<glyph unicode="&#x6b8;" horiz-adv-x="653" d="M-70 1v267h84q84 0 117 24q39 28 39 108v833h236v-719q0 -127 54 -185q56 -61 181 -61h12v-267h-28q-198 0 -267 151q-64 -151 -328 -151h-100zM55 -214h209v-215h-209v215zM177 -468h215v-212h-215v212zM316 -214h211v-215h-211v215z" />
<glyph unicode="&#x6b8;" horiz-adv-x="1514" d="M167 22q0 55 20 150q22 106 52 166q72 -26 185 -70q-46 -194 -46 -232q0 -313 341 -313q123 0 213 51q128 72 128 223v1237h219v-688q0 -138 37 -199q48 -79 177 -79h29v-267h-29q-65 0 -125 26q-69 30 -93 82v-104q0 -215 -129 -366q-157 -183 -455 -183 q-247 0 -389 162q-135 154 -135 404zM471 -692h209v-215h-209v215zM593 -946h215v-212h-215v212zM732 -692h211v-215h-211v215z" />
<glyph unicode="&#x6b9;" horiz-adv-x="489" d="M-70 1v267h220q85 0 85 64q0 25 -16 54l-115 206l213 141q169 -281 169 -406q0 -326 -284 -326h-272zM6 869v237h237v-237h-237zM56 -206h237v-237h-237v237z" />
<glyph unicode="&#x6b9;" horiz-adv-x="622" d="M-70 1v267h87q143 0 143 161v263h236v-135q0 -289 208 -289h18v-267h-27q-76 0 -145.5 44t-102.5 112q-40 -86 -97.5 -121t-152.5 -35h-167zM148 -184h237v-237h-237v237zM149 855v237h237v-237h-237z" />
<glyph unicode="&#x6b9;" horiz-adv-x="1650" d="M167 5q0 39 20 132q23 109 52 173l206 -73q-52 -127 -52 -236q0 -194 141 -285q107 -69 272 -69q424 0 424 389q0 178 -194 514l219 132l93 -198q66 -141 137 -186q47 -30 136 -30h29v-267h-28q-100 0 -152 48q0 -190 -56 -319q-156 -361 -615 -361q-330 0 -498 216 q-134 172 -134 420zM600 602v237h237v-237h-237zM719 -765h237v-237h-237v237z" />
<glyph unicode="&#x6bc;" horiz-adv-x="489" d="M-70 1v267h220q85 0 85 64q0 25 -16 54l-115 206l213 141q169 -281 169 -406q0 -326 -284 -326h-272zM26 824v237h237v-237h-237zM59 -148q0 75 58 133t133 58q74 0 132.5 -58t58.5 -133q0 -79 -55.5 -135t-135.5 -56q-78 0 -134.5 57t-56.5 134zM168 -148 q0 -36 22.5 -59t59.5 -23q81 0 81 84q0 34 -25 56.5t-60 22.5q-29 0 -53.5 -25.5t-24.5 -55.5z" />
<glyph unicode="&#x6bc;" horiz-adv-x="622" d="M-70 1v267h87q143 0 143 161v263h236v-135q0 -289 208 -289h18v-267h-27q-76 0 -145.5 44t-102.5 112q-40 -86 -97.5 -121t-152.5 -35h-167zM-11 -124q0 75 58 133t133 58q74 0 132.5 -58t58.5 -133q0 -79 -55.5 -135t-135.5 -56q-78 0 -134.5 57t-56.5 134zM98 -124 q0 -36 22.5 -59t59.5 -23q81 0 81 84q0 34 -25 56.5t-60 22.5q-29 0 -53.5 -25.5t-24.5 -55.5zM153 822v237h237v-237h-237z" />
<glyph unicode="&#x6bc;" horiz-adv-x="1650" d="M167 5q0 39 20 132q23 109 52 173l206 -73q-52 -127 -52 -236q0 -194 141 -285q107 -69 272 -69q424 0 424 389q0 178 -194 514l219 132l93 -198q66 -141 137 -186q47 -30 136 -30h29v-267h-28q-100 0 -152 48q0 -190 -56 -319q-156 -361 -615 -361q-330 0 -498 216 q-134 172 -134 420zM607 -729q0 75 58 133t133 58q74 0 132.5 -58t58.5 -133q0 -79 -55.5 -135t-135.5 -56q-78 0 -134.5 57t-56.5 134zM616 646v237h237v-237h-237zM716 -729q0 -36 22.5 -59t59.5 -23q81 0 81 84q0 34 -25 56.5t-60 22.5q-29 0 -53.5 -25.5t-24.5 -55.5z " />
<glyph unicode="&#x6bd;" horiz-adv-x="1650" d="M167 5q0 39 20 132q23 109 52 173l206 -73q-52 -127 -52 -236q0 -194 141 -285q107 -69 272 -69q424 0 424 389q0 178 -194 514l219 132l93 -198q66 -141 137 -186q47 -30 136 -30h29v-267h-28q-100 0 -152 48q0 -190 -56 -319q-156 -361 -615 -361q-330 0 -498 216 q-134 172 -134 420zM501 692v215h209v-215h-209zM623 945v213h215v-213h-215zM762 692v215h211v-215h-211z" />
<glyph unicode="&#x6bf;" horiz-adv-x="986" d="M-70 1v267h647l-247 244q-53 52 -122 52h-160v243h206q111 0 184 -73l548 -549l-135 -184h-921zM97 -206h209v-215h-209v215zM150 984v237h237v-237h-237zM219 -460h215v-212h-215v212zM358 -206h211v-215h-211v215z" />
<glyph unicode="&#x6bf;" horiz-adv-x="1286" d="M-70 1v267h96q158 0 271 43q47 17 94.5 44.5t96.5 65.5q20 16 69 53.5t128 100.5q-210 6 -308 6q-37 0 -63 -1.5t-52 -7.5t-57 -18.5t-78 -34.5l-114 195q114 131 274 131l957 -34l-28 -255h-87q-81 0 -154 -40q-19 -11 -49 -32t-75 -53q34 -38 65 -65t59 -44 q91 -54 217 -54h94v-267h-198q-143 0 -233 87q-43 40 -153 215q-85 -73 -145.5 -123t-102.5 -76q-158 -103 -294 -103h-230zM308 -148h209v-215h-209v215zM430 -402h215v-212h-215v212zM454 1013v237h237v-237h-237zM569 -148h211v-215h-211v215z" />
<glyph unicode="&#x6bf;" horiz-adv-x="1466" d="M167 -145q0 269 270 505q78 67 167 124.5t195 107.5q-43 2 -84.5 3t-83.5 1q-69 0 -136 -3q-80 -3 -180 -61l-120 195q21 27 52 51t67 42t73.5 28.5t71.5 10.5l969 -35l-25 -254h-89q-35 0 -77 -8t-83.5 -21.5t-79 -31t-63.5 -35.5q64 -94 106 -128q93 -78 225 -78h124 v-267h-167q-175 0 -276 89q-77 68 -193 280q-142 -87 -256 -209q-150 -161 -150 -292q0 -79 30 -142.5t83.5 -108.5t128 -69t164.5 -24q154 0 267 39q29 11 72 28t103 37l114 -219q-281 -152 -548 -152q-160 0 -284.5 39.5t-210.5 115.5t-131 187.5t-45 254.5zM551 46h195 v-202h-195v202zM665 -192h201v-199h-201v199zM681 1016v237h237v-237h-237zM795 46h198v-202h-198v202z" />
<glyph unicode="&#x6c4;" horiz-adv-x="1084" d="M48 -440q63 28 188.5 85.5t213.5 133.5q116 100 175 239q-30 -3 -61 -3q-161 0 -269 84q-125 98 -125 277q0 125 84 219t208 94q125 0 239 -87q148 -113 192 -334h191v-267h-191q-42 -177 -224 -350q-202 -192 -513 -310zM245 -664q0 75 58 133t133 58q74 0 132.5 -58 t58.5 -133q0 -79 -55.5 -135t-135.5 -56q-78 0 -134.5 57t-56.5 134zM354 -664q0 -36 22.5 -59t59.5 -23q81 0 81 84q0 34 -25 56.5t-60 22.5q-29 0 -53.5 -25.5t-24.5 -55.5zM386 370q0 -86 90 -98q87 -12 160 7q-3 81 -66 132q-51 42 -97 42q-28 0 -57.5 -27.5 t-29.5 -55.5z" />
<glyph unicode="&#x6ca;" horiz-adv-x="1084" d="M48 -440q63 28 188.5 85.5t213.5 133.5q116 100 175 239q-30 -3 -61 -3q-161 0 -269 84q-125 98 -125 277q0 125 84 219t208 94q125 0 239 -87q148 -113 192 -334h191v-267h-191q-42 -177 -224 -350q-202 -192 -513 -310zM169 888v212h211v-212h-211zM386 370 q0 -86 90 -98q87 -12 160 7q-3 81 -66 132q-51 42 -97 42q-28 0 -57.5 -27.5t-29.5 -55.5zM454 888v212h211v-212h-211z" />
<glyph unicode="&#x6cd;" horiz-adv-x="1567" d="M-50 152l25 105l274 80l1 1l208 -66q-35 -117 -35 -223q0 -333 340 -333q370 0 508 162q12 14 12 30q0 21 -26 30q-83 30 -427 111l62 219h681v-267h-38q0 -100 -33 -170q-87 -184 -334 -287q-209 -88 -440 -88q-541 0 -541 576q0 88 35 212z" />
<glyph unicode="&#x6ce;" horiz-adv-x="489" d="M-70 1v267h220q85 0 85 64q0 25 -16 54l-115 206l213 141q169 -281 169 -406q0 -326 -284 -326h-272zM-63 1250l155 2q13 -19 27 -52t27.5 -71.5t24.5 -76.5t17 -68q6 30 17.5 68t25 76.5t28 71.5t27.5 52l155 -2q-18 -14 -47.5 -58.5t-60.5 -102.5t-57.5 -122 t-39.5 -117h-94q-9 36 -25 77t-35 82.5t-40 80.5t-40.5 71.5t-36.5 55.5t-28 33zM-27 -208h211v-212h-211v212zM258 -208h211v-212h-211v212z" />
<glyph unicode="&#x6ce;" horiz-adv-x="622" d="M-70 1v267h87q143 0 143 161v263h236v-135q0 -289 208 -289h18v-267h-27q-76 0 -145.5 44t-102.5 112q-40 -86 -97.5 -121t-152.5 -35h-167zM26 1241l155 2q13 -19 27 -52t27.5 -71.5t24.5 -76.5t17 -68q6 30 17.5 68t25 76.5t28 71.5t27.5 52l155 -2 q-18 -14 -47.5 -58.5t-60.5 -102.5t-57.5 -122t-39.5 -117h-94q-9 36 -25 77t-35 82.5t-40 80.5t-40.5 71.5t-36.5 55.5t-28 33zM37 -208h211v-212h-211v212zM322 -208h211v-212h-211v212z" />
<glyph unicode="&#x6ce;" horiz-adv-x="1553" d="M167 32q0 131 63 306l208 -66q-35 -117 -35 -223q0 -333 340 -333q370 0 508 162q12 14 12 30q0 21 -26 30q-83 30 -427 111l62 219h681v-267h-38q0 -100 -33 -170q-87 -184 -334 -287q-209 -88 -440 -88q-541 0 -541 576zM390 793l155 2q13 -19 27 -52t27.5 -71.5 t24.5 -76.5t17 -68q6 30 17.5 68t25 76.5t28 71.5t27.5 52l155 -2q-18 -14 -47.5 -58.5t-60.5 -102.5t-57.5 -122t-39.5 -117h-94q-9 36 -25 77t-35 82.5t-40 80.5t-40.5 71.5t-36.5 55.5t-28 33z" />
<glyph unicode="&#x6cf;" horiz-adv-x="1084" d="M48 -440q63 28 188.5 85.5t213.5 133.5q116 100 175 239q-30 -3 -61 -3q-161 0 -269 84q-125 98 -125 277q0 125 84 219t208 94q125 0 239 -87q148 -113 192 -334h191v-267h-191q-42 -177 -224 -350q-202 -192 -513 -310zM325 871v237h237v-237h-237zM386 370 q0 -86 90 -98q87 -12 160 7q-3 81 -66 132q-51 42 -97 42q-28 0 -57.5 -27.5t-29.5 -55.5z" />
<glyph unicode="&#x6d1;" horiz-adv-x="1553" d="M167 32q0 131 63 306l208 -66q-35 -117 -35 -223q0 -333 340 -333q370 0 508 162q12 14 12 30q0 21 -26 30q-83 30 -427 111l62 219h681v-267h-38q0 -100 -33 -170q-87 -184 -334 -287q-209 -88 -440 -88q-541 0 -541 576zM521 -662h209v-215h-209v215zM643 -916h215 v-212h-215v212zM782 -662h211v-215h-211v215z" />
<glyph unicode="&#x6fa;" horiz-adv-x="1431" d="M-70 1v267h79q69 0 98 22q43 33 43 132v267h236q0 -209 30 -298q38 -112 140 -112q56 0 88 55q27 46 27 105v246h219q0 -406 187 -406q111 0 111 95q0 92 -104 274l195 117q152 -247 152 -395q0 -159 -77 -254q-84 -104 -238 -104q-192 0 -293 152q-85 -163 -260 -163 q-75 0 -146 44.5t-108 111.5q-41 -73 -117.5 -114.5t-162.5 -41.5h-99zM492 898v215h209v-215h-209zM609 -212h237v-237h-237v237zM614 1151v213h215v-213h-215zM753 898v215h211v-215h-211z" />
<glyph unicode="&#x6fa;" horiz-adv-x="1639" d="M-70 1v267h81q69 0 97 22q42 33 42 132v267h236q0 -417 177 -417q108 0 108 167v250h243q0 -177 15 -253q34 -171 144 -171q102 0 102 153v271h236q0 -264 54 -353q41 -68 148 -68h26v-267h-28q-164 0 -267 152q-86 -152 -236 -152q-168 0 -281 139q-32 -66 -112 -105 q-71 -34 -152 -34q-79 0 -150 42q-74 44 -104 114q-85 -156 -280 -156h-99zM539 957v215h209v-215h-209zM661 1210v213h215v-213h-215zM678 -215h237v-237h-237v237zM800 957v215h211v-215h-211z" />
<glyph unicode="&#x6fa;" horiz-adv-x="2644" d="M167 4q0 39 20 132q23 109 52 173l206 -73q-52 -127 -52 -236q0 -195 140 -287q108 -71 270 -71q196 0 308 98q119 103 119 295q0 199 -194 517l201 129q39 -74 122 -220q108 -179 208 -179q118 0 118 156v246h239q0 -420 167 -420q102 0 102 153v271h235q0 -265 49 -352 q38 -68 142 -68h25v-267h-28q-99 0 -156 33q-53 32 -108 118q-97 -159 -261 -159q-133 0 -246 146q-73 -139 -216 -139q-97 0 -159 48q0 -190 -56 -319q-72 -167 -195 -251q-156 -107 -427 -107q-330 0 -495 215q-130 169 -130 418zM1561 939v215h209v-215h-209zM1683 1192 v213h215v-213h-215zM1686 -247h237v-237h-237v237zM1822 939v215h211v-215h-211z" />
<glyph unicode="&#x6fb;" horiz-adv-x="1491" d="M-70 1v267h84q133 0 133 117v280h241v-203q0 -41 29.5 -88t67.5 -65q351 524 658 524q141 0 245 -119q101 -115 101 -258q0 -230 -134 -352q-113 -103 -279 -103h-440q-225 0 -304 157q-39 -78 -87 -110q-71 -47 -215 -47h-100zM400 -211h237v-237h-237v237zM426 948v237 h237v-237h-237zM709 270h343q209 0 209 175q0 62 -48 102q-45 37 -109 37q-90 0 -193 -90q-75 -65 -202 -224z" />
<glyph unicode="&#x6fb;" horiz-adv-x="1640" d="M-70 1v267h89q127 0 127 115v278h240v-202q0 -106 90 -149q347 518 660 518q145 0 247 -116q98 -112 98 -259q0 -56 -22 -150q53 -35 154 -35h27v-267h-29q-164 0 -256 115q-104 -115 -285 -115h-438q-223 0 -302 156q-54 -83 -74 -99q-72 -57 -225 -57h-101zM472 -209 h237v-237h-237v237zM472 876v237h237v-237h-237zM706 268h340q209 0 209 174q0 62 -48 102q-45 37 -109 37q-90 0 -192 -90q-74 -65 -200 -223z" />
<glyph unicode="&#x6fb;" horiz-adv-x="2641" d="M167 29q0 39 20 133q23 110 52 173l206 -73q-52 -127 -52 -237q0 -194 141 -285q107 -69 272 -69q199 0 310 96q117 102 117 297q0 107 -62 266q-52 133 -125 248l215 131q156 -347 229 -374q317 493 626 493q135 0 248 -116q107 -109 107 -225q0 -135 -22 -184 q47 -35 167 -35h25v-267h-30q-71 0 -145 33q-81 36 -114 92q-84 -125 -302 -125h-434q-107 0 -135 45q0 -366 -284 -551q-179 -116 -405 -116q-333 0 -497 223q-128 174 -128 427zM1510 968v237h237v-237h-237zM1587 -203h237v-237h-237v237zM1685 268h341q208 0 208 174 q0 62 -45 100.5t-108 38.5q-91 0 -195 -90q-73 -64 -201 -223z" />
<glyph unicode="&#x6fc;" horiz-adv-x="932" d="M-70 1v267h188q-52 84 -52 219q0 133 102 229q114 108 305 108q213 0 424 -135q-34 -54 -98 -180q-54 35 -152 59q-82 20 -133 20q-71 0 -126 -40q-60 -44 -62 -113q-2 -66 56 -113q66 -54 185 -54h364v-267h-1001zM313 -209h237v-237h-237v237zM313 1028v237h237v-237 h-237z" />
<glyph unicode="&#x6fc;" horiz-adv-x="838" d="M-70 1v267h116q150 0 225 32q-46 38 -134.5 118.5t-88.5 151.5q0 90 162 146q125 43 235 43q109 0 189 -42q99 -53 99 -153q0 -57 -19 -96q-21 -44 -106 -154q51 -46 153 -46h77v-267h-53q-96 0 -212 69q-74 44 -111 81q-140 -150 -319 -150h-213zM253 923v237h237v-237 h-237zM296 -208h237v-237h-237v237z" />
<glyph unicode="&#x6fc;" horiz-adv-x="1210" d="M167 -256q0 159 114 299q87 107 223 191l156 90q-41 39 -122 119q-90 90 -90 155q0 67 90 125q108 70 285 70q105 0 203 -56q107 -61 107 -142q0 -122 -139 -271q40 -32 64 -41q39 -15 120 -15h32v-267h-31q-173 0 -349 170q-17 0 -117 -60q-310 -185 -310 -353 q0 -140 139 -203q102 -47 261 -47q153 0 347 59l77 -222q-244 -98 -466 -98q-240 0 -408 126q-186 139 -186 371zM625 986v237h237v-237h-237zM670 -108h237v-237h-237v237z" />
<glyph unicode="&#x671;" horiz-adv-x="647" arabic-form="final" d="M-1 1426v66h132q44 84 106 143q78 73 157 73q171 0 171 -164q0 -121 -97 -154q-47 -16 -202 -16q-158 0 -267 52zM167 425v810h236v-726q0 -118 26 -169q38 -72 144 -72h74v-267h-178q-158 0 -238 140q-64 113 -64 284zM231 1489h161q86 0 86 48q0 56 -97 56 q-72 0 -150 -104z" />
<glyph unicode="&#x67b;" horiz-adv-x="2293" arabic-form="final" d="M167 362v150h236v-111q0 -77 41 -107q35 -26 116 -26h1104q82 0 82 55q0 27 -19 63l-108 206l201 135q13 -21 91 -170q152 -289 365 -289h17v-267h-21q-197 0 -330 187q-34 -187 -243 -187h-1185q-347 0 -347 361zM921 -206h211v-212h-211v212zM921 -464h211v-212h-211 v212z" />
<glyph unicode="&#x67b;" horiz-adv-x="489" arabic-form="initial" d="M-70 1v267h220q85 0 85 64q0 25 -16 54l-115 206l213 141q169 -281 169 -406q0 -326 -284 -326h-272zM119 -186h211v-212h-211v212zM119 -444h211v-212h-211v212z" />
<glyph unicode="&#x67b;" horiz-adv-x="622" arabic-form="medial" d="M-70 1v267h87q143 0 143 161v263h236v-135q0 -289 208 -289h18v-267h-27q-76 0 -145.5 44t-102.5 112q-40 -86 -97.5 -121t-152.5 -35h-167zM146 -198h211v-212h-211v212zM146 -456h211v-212h-211v212z" />
<glyph unicode="&#x67e;" horiz-adv-x="2293" arabic-form="final" d="M167 362v150h236v-111q0 -77 41 -107q35 -26 116 -26h1104q82 0 82 55q0 27 -19 63l-108 206l201 135q13 -21 91 -170q152 -289 365 -289h17v-267h-21q-197 0 -330 187q-34 -187 -243 -187h-1185q-347 0 -347 361zM821 -211h209v-215h-209v215zM943 -465h215v-212h-215 v212zM1082 -211h211v-215h-211v215z" />
<glyph unicode="&#x67e;" horiz-adv-x="489" arabic-form="initial" d="M-70 1v267h220q85 0 85 64q0 25 -16 54l-115 206l213 141q169 -281 169 -406q0 -326 -284 -326h-272zM-49 -200h209v-215h-209v215zM73 -454h215v-212h-215v212zM212 -200h211v-215h-211v215z" />
<glyph unicode="&#x67e;" horiz-adv-x="622" arabic-form="medial" d="M-70 1v267h87q143 0 143 161v263h236v-135q0 -289 208 -289h18v-267h-27q-76 0 -145.5 44t-102.5 112q-40 -86 -97.5 -121t-152.5 -35h-167zM23 -210h209v-215h-209v215zM145 -464h215v-212h-215v212zM284 -210h211v-215h-211v215z" />
<glyph unicode="&#x680;" horiz-adv-x="2293" arabic-form="final" d="M167 362v150h236v-111q0 -77 41 -107q35 -26 116 -26h1104q82 0 82 55q0 27 -19 63l-108 206l201 135q13 -21 91 -170q152 -289 365 -289h17v-267h-21q-197 0 -330 187q-34 -187 -243 -187h-1185q-347 0 -347 361zM797 -489h209v-215h-209v215zM907 -210h215v-212h-215 v212zM919 -743h215v-212h-215v212zM1058 -489h211v-215h-211v215z" />
<glyph unicode="&#x680;" horiz-adv-x="489" arabic-form="initial" d="M-70 1v267h220q85 0 85 64q0 25 -16 54l-115 206l213 141q169 -281 169 -406q0 -326 -284 -326h-272zM33 -437h196v-201h-196v201zM136 -175h201v-199h-201v199zM147 -675h202v-198h-202v198zM277 -437h198v-201h-198v201z" />
<glyph unicode="&#x680;" horiz-adv-x="622" arabic-form="medial" d="M-70 1v267h87q143 0 143 161v263h236v-135q0 -289 208 -289h18v-267h-27q-76 0 -145.5 44t-102.5 112q-40 -86 -97.5 -121t-152.5 -35h-167zM62 -455h198v-204h-198v204zM166 -191h204v-201h-204v201zM177 -695h204v-201h-204v201zM309 -455h200v-204h-200v204z" />
<glyph unicode="&#x67a;" horiz-adv-x="2293" arabic-form="final" d="M167 362v150h236v-111q0 -77 41 -107q35 -26 116 -26h1104q82 0 82 55q0 27 -19 63l-108 206l201 135q13 -21 91 -170q152 -289 365 -289h17v-267h-21q-197 0 -330 187q-34 -187 -243 -187h-1185q-347 0 -347 361zM927 666v212h211v-212h-211zM927 924v212h211v-212h-211 z" />
<glyph unicode="&#x67a;" horiz-adv-x="489" arabic-form="initial" d="M-70 1v267h220q85 0 85 64q0 25 -16 54l-115 206l213 141q169 -281 169 -406q0 -326 -284 -326h-272zM44 855v212h211v-212h-211zM44 1113v212h211v-212h-211z" />
<glyph unicode="&#x67a;" horiz-adv-x="622" arabic-form="medial" d="M-70 1v267h87q143 0 143 161v263h236v-135q0 -289 208 -289h18v-267h-27q-76 0 -145.5 44t-102.5 112q-40 -86 -97.5 -121t-152.5 -35h-167zM157 897v212h211v-212h-211zM157 1155v212h211v-212h-211z" />
<glyph unicode="&#x67f;" horiz-adv-x="2293" arabic-form="final" d="M167 362v150h236v-111q0 -77 41 -107q35 -26 116 -26h1104q82 0 82 55q0 27 -19 63l-108 206l201 135q13 -21 91 -170q152 -289 365 -289h17v-267h-21q-197 0 -330 187q-34 -187 -243 -187h-1185q-347 0 -347 361zM788 911v215h209v-215h-209zM898 1193v212h215v-212 h-215zM910 660v212h215v-212h-215zM1049 911v215h211v-215h-211z" />
<glyph unicode="&#x67f;" horiz-adv-x="489" arabic-form="initial" d="M-70 1v267h220q85 0 85 64q0 25 -16 54l-115 206l213 141q169 -281 169 -406q0 -326 -284 -326h-272zM-34 1106v215h209v-215h-209zM76 1388v212h215v-212h-215zM88 855v212h215v-212h-215zM227 1106v215h211v-215h-211z" />
<glyph unicode="&#x67f;" horiz-adv-x="622" arabic-form="medial" d="M-70 1v267h87q143 0 143 161v263h236v-135q0 -289 208 -289h18v-267h-27q-76 0 -145.5 44t-102.5 112q-40 -86 -97.5 -121t-152.5 -35h-167zM31 1123v215h209v-215h-209zM141 1405v212h215v-212h-215zM153 872v212h215v-212h-215zM292 1123v215h211v-215h-211z" />
<glyph unicode="&#x679;" horiz-adv-x="2293" arabic-form="final" d="M167 362v150h236v-111q0 -77 41 -107q35 -26 116 -26h1104q82 0 82 55q0 27 -19 63l-108 206l201 135q13 -21 91 -170q152 -289 365 -289h17v-267h-21q-197 0 -330 187q-34 -187 -243 -187h-1185q-347 0 -347 361zM750 746v47h91q25 0 25 41v281h79v-246q35 45 74 74 q50 37 96 37q49 0 84 -42q33 -39 33 -89q0 -76 -54 -116q-39 -30 -79 -30h-233q-55 0 -116 43zM971 793h125q28 0 45.5 15t17.5 42q0 21 -17 34q-15 12 -36 12q-51 0 -135 -103z" />
<glyph unicode="&#x679;" horiz-adv-x="489" arabic-form="initial" d="M-70 1v267h220q85 0 85 64q0 25 -16 54l-115 206l213 141q169 -281 169 -406q0 -326 -284 -326h-272zM-62 902v47h91q25 0 25 41v281h79v-246q35 45 74 74q50 37 96 37q49 0 84 -42q33 -39 33 -89q0 -76 -54 -116q-39 -30 -79 -30h-233q-55 0 -116 43zM159 949h125 q28 0 45.5 15t17.5 42q0 21 -17 34q-15 12 -36 12q-51 0 -135 -103z" />
<glyph unicode="&#x679;" horiz-adv-x="622" arabic-form="medial" d="M-70 1v267h87q143 0 143 161v263h236v-135q0 -289 208 -289h18v-267h-27q-76 0 -145.5 44t-102.5 112q-40 -86 -97.5 -121t-152.5 -35h-167zM2 902v47h91q25 0 25 41v281h79v-246q35 45 74 74q50 37 96 37q49 0 84 -42q33 -39 33 -89q0 -76 -54 -116q-39 -30 -79 -30 h-233q-55 0 -116 43zM223 949h125q28 0 45.5 15t17.5 42q0 21 -17 34q-15 12 -36 12q-51 0 -135 -103z" />
<glyph unicode="&#x6a4;" horiz-adv-x="2150" arabic-form="final" d="M167 383v129h236v-101q0 -143 166 -143h942q-114 96 -114 237q0 144 89 223q85 76 230 76q327 0 327 -299q0 -77 -47 -155q-40 -65 -74 -82h228v-267h-131q-71 0 -176 46q-91 40 -123 72q-151 -118 -317 -118h-899q-163 0 -253 112q-84 103 -84 270zM1459 977v215h209 v-215h-209zM1581 1230v213h215v-213h-215zM1605 498q0 -48 43 -93q35 -36 72 -50q34 11 70 48q45 46 45 95q0 42 -38 68q-33 22 -77 22q-115 0 -115 -90zM1720 977v215h211v-215h-211z" />
<glyph unicode="&#x6a4;" horiz-adv-x="822" arabic-form="initial" d="M-70 0v267h504q39 0 75 15q76 31 78 111q-52 -24 -149 -24q-127 0 -202.5 75.5t-79.5 202.5q-3 117 61 216q72 110 186 110q205 0 321 -198q96 -166 96 -386q0 -171 -81 -275q-90 -114 -256 -114h-553zM166 1123v215h209v-215h-209zM288 1376v213h215v-213h-215zM341 664 q0 -97 135 -97q81 0 104 24q-10 58 -46 101q-41 48 -96 48q-97 0 -97 -76zM427 1123v215h211v-215h-211z" />
<glyph unicode="&#x6a4;" horiz-adv-x="872" arabic-form="medial" d="M-70 1v267h303q-115 106 -115 237q0 144 89 223q85 76 231 76q326 0 326 -299q0 -78 -46 -155q-39 -66 -75 -82h229v-267h-132q-70 0 -175 46q-92 40 -124 72q-48 -39 -128 -73q-104 -45 -188 -45h-195zM201 992v215h209v-215h-209zM323 1245v213h215v-213h-215zM326 498 q0 -48 44 -93q35 -36 71 -50q35 11 71 48q44 45 44 95q0 42 -38 68q-33 22 -77 22q-115 0 -115 -90zM462 992v215h211v-215h-211z" />
<glyph unicode="&#x6a6;" horiz-adv-x="2150" arabic-form="final" d="M167 383v129h236v-101q0 -143 166 -143h942q-114 96 -114 237q0 144 89 223q85 76 230 76q327 0 327 -299q0 -77 -47 -155q-40 -65 -74 -82h228v-267h-131q-71 0 -176 46q-91 40 -123 72q-151 -118 -317 -118h-899q-163 0 -253 112q-84 103 -84 270zM1467 1231v215h209 v-215h-209zM1577 1513v212h215v-212h-215zM1589 980v212h215v-212h-215zM1605 498q0 -48 43 -93q35 -36 72 -50q34 11 70 48q45 46 45 95q0 42 -38 68q-33 22 -77 22q-115 0 -115 -90zM1728 1231v215h211v-215h-211z" />
<glyph unicode="&#x6a6;" horiz-adv-x="822" arabic-form="initial" d="M-70 0v267h504q39 0 75 15q76 31 78 111q-52 -24 -149 -24q-127 0 -202.5 75.5t-79.5 202.5q-3 117 61 216q72 110 186 110q205 0 321 -198q96 -166 96 -386q0 -171 -81 -275q-90 -114 -256 -114h-553zM163 1393v215h209v-215h-209zM273 1675v212h215v-212h-215z M285 1142v212h215v-212h-215zM341 664q0 -97 135 -97q81 0 104 24q-10 58 -46 101q-41 48 -96 48q-97 0 -97 -76zM424 1393v215h211v-215h-211z" />
<glyph unicode="&#x6a6;" horiz-adv-x="872" arabic-form="medial" d="M-70 1v267h303q-115 106 -115 237q0 144 89 223q85 76 231 76q326 0 326 -299q0 -78 -46 -155q-39 -66 -75 -82h229v-267h-132q-70 0 -175 46q-92 40 -124 72q-48 -39 -128 -73q-104 -45 -188 -45h-195zM171 1221v215h209v-215h-209zM281 1503v212h215v-212h-215z M293 970v212h215v-212h-215zM326 498q0 -48 44 -93q35 -36 71 -50q35 11 71 48q44 45 44 95q0 42 -38 68q-33 22 -77 22q-115 0 -115 -90zM432 1221v215h211v-215h-211z" />
<glyph unicode="&#x684;" horiz-adv-x="1466" arabic-form="final" d="M167 -145q0 269 270 505q78 67 167 124.5t195 107.5q-43 2 -84.5 3t-83.5 1q-69 0 -136 -3q-80 -3 -180 -61l-120 195q21 27 52 51t67 42t73.5 28.5t71.5 10.5l969 -35l-25 -254h-89q-35 0 -77 -8t-83.5 -21.5t-79 -31t-63.5 -35.5q64 -94 106 -128q93 -78 225 -78h124 v-267h-167q-175 0 -276 89q-77 68 -193 280q-142 -87 -256 -209q-150 -161 -150 -292q0 -79 30 -142.5t83.5 -108.5t128 -69t164.5 -24q154 0 267 39q29 11 72 28t103 37l114 -219q-281 -152 -548 -152q-160 0 -284.5 39.5t-210.5 115.5t-131 187.5t-45 254.5zM673 99h211 v-212h-211v212zM673 -159h211v-212h-211v212z" />
<glyph unicode="&#x684;" horiz-adv-x="986" arabic-form="initial" d="M-70 1v267h647l-247 244q-53 52 -122 52h-160v243h206q111 0 184 -73l548 -549l-135 -184h-921zM163 -211h211v-212h-211v212zM163 -469h211v-212h-211v212z" />
<glyph unicode="&#x684;" horiz-adv-x="1286" arabic-form="medial" d="M-70 1v267h96q158 0 271 43q47 17 94.5 44.5t96.5 65.5q20 16 69 53.5t128 100.5q-210 6 -308 6q-37 0 -63 -1.5t-52 -7.5t-57 -18.5t-78 -34.5l-114 195q114 131 274 131l957 -34l-28 -255h-87q-81 0 -154 -40q-19 -11 -49 -32t-75 -53q34 -38 65 -65t59 -44 q91 -54 217 -54h94v-267h-198q-143 0 -233 87q-43 40 -153 215q-85 -73 -145.5 -123t-102.5 -76q-158 -103 -294 -103h-230zM441 -187h211v-212h-211v212zM441 -445h211v-212h-211v212z" />
<glyph unicode="&#x683;" horiz-adv-x="1466" arabic-form="final" d="M167 -145q0 269 270 505q78 67 167 124.5t195 107.5q-43 2 -84.5 3t-83.5 1q-69 0 -136 -3q-80 -3 -180 -61l-120 195q21 27 52 51t67 42t73.5 28.5t71.5 10.5l969 -35l-25 -254h-89q-35 0 -77 -8t-83.5 -21.5t-79 -31t-63.5 -35.5q64 -94 106 -128q93 -78 225 -78h124 v-267h-167q-175 0 -276 89q-77 68 -193 280q-142 -87 -256 -209q-150 -161 -150 -292q0 -79 30 -142.5t83.5 -108.5t128 -69t164.5 -24q154 0 267 39q29 11 72 28t103 37l114 -219q-281 -152 -548 -152q-160 0 -284.5 39.5t-210.5 115.5t-131 187.5t-45 254.5zM569 -57h211 v-212h-211v212zM854 -57h211v-212h-211v212z" />
<glyph unicode="&#x683;" horiz-adv-x="986" arabic-form="initial" d="M-70 1v267h647l-247 244q-53 52 -122 52h-160v243h206q111 0 184 -73l548 -549l-135 -184h-921zM70 -208h211v-212h-211v212zM355 -208h211v-212h-211v212z" />
<glyph unicode="&#x683;" horiz-adv-x="1286" arabic-form="medial" d="M-70 1v267h96q158 0 271 43q47 17 94.5 44.5t96.5 65.5q20 16 69 53.5t128 100.5q-210 6 -308 6q-37 0 -63 -1.5t-52 -7.5t-57 -18.5t-78 -34.5l-114 195q114 131 274 131l957 -34l-28 -255h-87q-81 0 -154 -40q-19 -11 -49 -32t-75 -53q34 -38 65 -65t59 -44 q91 -54 217 -54h94v-267h-198q-143 0 -233 87q-43 40 -153 215q-85 -73 -145.5 -123t-102.5 -76q-158 -103 -294 -103h-230zM335 -210h211v-212h-211v212zM620 -210h211v-212h-211v212z" />
<glyph unicode="&#x686;" horiz-adv-x="1466" arabic-form="final" d="M167 -145q0 269 270 505q78 67 167 124.5t195 107.5q-43 2 -84.5 3t-83.5 1q-69 0 -136 -3q-80 -3 -180 -61l-120 195q21 27 52 51t67 42t73.5 28.5t71.5 10.5l969 -35l-25 -254h-89q-35 0 -77 -8t-83.5 -21.5t-79 -31t-63.5 -35.5q64 -94 106 -128q93 -78 225 -78h124 v-267h-167q-175 0 -276 89q-77 68 -193 280q-142 -87 -256 -209q-150 -161 -150 -292q0 -79 30 -142.5t83.5 -108.5t128 -69t164.5 -24q154 0 267 39q29 11 72 28t103 37l114 -219q-281 -152 -548 -152q-160 0 -284.5 39.5t-210.5 115.5t-131 187.5t-45 254.5zM558 43h192 v-197h-192v197zM670 -190h197v-194h-197v194zM798 43h193v-197h-193v197z" />
<glyph unicode="&#x686;" horiz-adv-x="986" arabic-form="initial" d="M-70 1v267h647l-247 244q-53 52 -122 52h-160v243h206q111 0 184 -73l548 -549l-135 -184h-921zM49 -210h209v-215h-209v215zM171 -464h215v-212h-215v212zM310 -210h211v-215h-211v215z" />
<glyph unicode="&#x686;" horiz-adv-x="1286" arabic-form="medial" d="M-70 1v267h96q158 0 271 43q47 17 94.5 44.5t96.5 65.5q20 16 69 53.5t128 100.5q-210 6 -308 6q-37 0 -63 -1.5t-52 -7.5t-57 -18.5t-78 -34.5l-114 195q114 131 274 131l957 -34l-28 -255h-87q-81 0 -154 -40q-19 -11 -49 -32t-75 -53q34 -38 65 -65t59 -44 q91 -54 217 -54h94v-267h-198q-143 0 -233 87q-43 40 -153 215q-85 -73 -145.5 -123t-102.5 -76q-158 -103 -294 -103h-230zM328 -204h209v-215h-209v215zM450 -458h215v-212h-215v212zM589 -204h211v-215h-211v215z" />
<glyph unicode="&#x687;" horiz-adv-x="1466" arabic-form="final" d="M167 -145q0 269 270 505q78 67 167 124.5t195 107.5q-43 2 -84.5 3t-83.5 1q-69 0 -136 -3q-80 -3 -180 -61l-120 195q21 27 52 51t67 42t73.5 28.5t71.5 10.5l969 -35l-25 -254h-89q-35 0 -77 -8t-83.5 -21.5t-79 -31t-63.5 -35.5q64 -94 106 -128q93 -78 225 -78h124 v-267h-167q-175 0 -276 89q-77 68 -193 280q-142 -87 -256 -209q-150 -161 -150 -292q0 -79 30 -142.5t83.5 -108.5t128 -69t164.5 -24q154 0 267 39q29 11 72 28t103 37l114 -219q-281 -152 -548 -152q-160 0 -284.5 39.5t-210.5 115.5t-131 187.5t-45 254.5zM609 -41h155 v-159h-155v159zM691 8v156h158v-156h-158zM699 -229h159v-156h-159v156zM802 -41h155v-159h-155v159z" />
<glyph unicode="&#x687;" horiz-adv-x="986" arabic-form="initial" d="M-70 1v267h647l-247 244q-53 52 -122 52h-160v243h206q111 0 184 -73l548 -549l-135 -184h-921zM225 -470h209v-215h-209v215zM335 -191h215v-212h-215v212zM347 -724h215v-212h-215v212zM486 -470h211v-215h-211v215z" />
<glyph unicode="&#x687;" horiz-adv-x="1286" arabic-form="medial" d="M-70 1v267h96q158 0 271 43q47 17 94.5 44.5t96.5 65.5q20 16 69 53.5t128 100.5q-210 6 -308 6q-37 0 -63 -1.5t-52 -7.5t-57 -18.5t-78 -34.5l-114 195q114 131 274 131l957 -34l-28 -255h-87q-81 0 -154 -40q-19 -11 -49 -32t-75 -53q34 -38 65 -65t59 -44 q91 -54 217 -54h94v-267h-198q-143 0 -233 87q-43 40 -153 215q-85 -73 -145.5 -123t-102.5 -76q-158 -103 -294 -103h-230zM404 -436h209v-215h-209v215zM514 -157h215v-212h-215v212zM526 -690h215v-212h-215v212zM665 -436h211v-215h-211v215z" />
<glyph unicode="&#x68d;" horiz-adv-x="1524" arabic-form="final" d="M163 220l163 163q104 -115 185 -115h316q141 0 141 58q0 24 -19 61l-268 521l209 135l281 -556q58 -115 129 -165q79 -54 202 -54h22v-267h-30q-182 0 -319 156q-71 -90 -108 -113q-70 -43 -212 -43h-316q-188 0 -376 219zM284 -205h211v-212h-211v212zM569 -205h211 v-212h-211v212z" />
<glyph unicode="&#x68c;" horiz-adv-x="1524" arabic-form="final" d="M163 220l163 163q104 -115 185 -115h316q141 0 141 58q0 24 -19 61l-268 521l209 135l281 -556q58 -115 129 -165q79 -54 202 -54h22v-267h-30q-182 0 -319 156q-71 -90 -108 -113q-70 -43 -212 -43h-316q-188 0 -376 219zM537 1207v212h211v-212h-211zM822 1207v212h211 v-212h-211z" />
<glyph unicode="&#x68e;" horiz-adv-x="1524" arabic-form="final" d="M163 220l163 163q104 -115 185 -115h316q141 0 141 58q0 24 -19 61l-268 521l209 135l281 -556q58 -115 129 -165q79 -54 202 -54h22v-267h-30q-182 0 -319 156q-71 -90 -108 -113q-70 -43 -212 -43h-316q-188 0 -376 219zM496 1209v215h209v-215h-209zM618 1462v213h215 v-213h-215zM757 1209v215h211v-215h-211z" />
<glyph unicode="&#x688;" horiz-adv-x="1524" arabic-form="final" d="M163 220l163 163q104 -115 185 -115h316q141 0 141 58q0 24 -19 61l-268 521l209 135l281 -556q58 -115 129 -165q79 -54 202 -54h22v-267h-30q-182 0 -319 156q-71 -90 -108 -113q-70 -43 -212 -43h-316q-188 0 -376 219zM502 1249v47h91q25 0 25 41v281h79v-246 q35 45 74 74q50 37 96 37q49 0 84 -42q33 -39 33 -89q0 -76 -54 -116q-39 -30 -79 -30h-233q-55 0 -116 43zM723 1296h125q28 0 45.5 15t17.5 42q0 21 -17 34q-15 12 -36 12q-51 0 -135 -103z" />
<glyph unicode="&#x698;" horiz-adv-x="1219" arabic-form="final" d="M48 -305q142 77 264 155q281 180 355 303q26 43 26 103q0 49 -19 89q-28 76 -125 257l215 129l135 -265q47 -93 81 -126q73 -72 209 -72h30v-267h-29q-166 0 -265 128q-8 -33 -63 -128q-111 -190 -695 -521zM392 865v215h209v-215h-209zM514 1118v213h215v-213h-215z M653 865v215h211v-215h-211z" />
<glyph unicode="&#x691;" horiz-adv-x="1219" arabic-form="final" d="M48 -305q142 77 264 155q281 180 355 303q26 43 26 103q0 49 -19 89q-28 76 -125 257l215 129l135 -265q47 -93 81 -126q73 -72 209 -72h30v-267h-29q-166 0 -265 128q-8 -33 -63 -128q-111 -190 -695 -521zM371 920v47h91q25 0 25 41v281h79v-246q35 45 74 74 q50 37 96 37q49 0 84 -42q33 -39 33 -89q0 -76 -54 -116q-39 -30 -79 -30h-233q-55 0 -116 43zM592 967h125q28 0 45.5 15t17.5 42q0 21 -17 34q-15 12 -36 12q-51 0 -135 -103z" />
<glyph unicode="&#x6a9;" horiz-adv-x="2228" arabic-form="final" d="M167 383v129h236v-111q0 -133 153 -133h955q40 0 75 14q47 19 47 53q0 46 -21 87l-182 357q-33 65 -33 126q0 134 136 177l611 194l93 -205l-535 -153q-52 -15 -52 -46q0 -18 14 -44l177 -334q120 -226 379 -226h8v-267h-30q-99 0 -193 46q-98 48 -150 128 q-91 -174 -344 -174h-1011q-333 0 -333 382z" />
<glyph unicode="&#x6a9;" horiz-adv-x="898" arabic-form="initial" d="M-70 0v267h265q124 0 124 66q0 31 -28 88l-176 357q-38 77 -38 139q0 123 138 164l654 194l93 -202l-576 -148q-53 -14 -53 -46q0 -18 14 -45l178 -341q44 -84 44 -174q0 -152 -114 -239q-104 -80 -260 -80h-265z" />
<glyph unicode="&#x6a9;" horiz-adv-x="903" arabic-form="medial" d="M-70 1v267h257q119 0 119 78q0 34 -21 76l-177 357q-39 79 -39 138q0 121 139 165l612 194l94 -202l-536 -152q-51 -14 -51 -47q0 -17 14 -44l173 -337q46 -90 133 -151q107 -75 242 -75h14v-267h-31q-234 0 -344 174q-87 -174 -341 -174h-257z" />
<glyph unicode="&#x6af;" horiz-adv-x="2228" arabic-form="final" d="M167 383v129h236v-111q0 -133 153 -133h955q40 0 75 14q47 19 47 53q0 46 -21 87l-182 357q-37 73 -37 133q0 120 140 160l613 175l91 -181l-535 -141q-53 -14 -53 -51q0 -18 15 -46l177 -334q120 -226 379 -226h8v-267h-7q-124 0 -237 59q-101 53 -129 115 q-91 -174 -344 -174h-1011q-333 0 -333 382zM1398 1241l670 187l55 -125l-663 -187z" />
<glyph unicode="&#x6af;" horiz-adv-x="907" arabic-form="initial" d="M-70 1v267h269q126 0 126 70q0 32 -26 84l-180 357q-39 77 -39 137q0 116 140 156l652 185l95 -183l-577 -148q-53 -14 -53 -46q0 -19 14 -45l182 -341q41 -77 41 -174q0 -152 -114 -240q-104 -79 -261 -79h-269zM114 1251l671 187l55 -125l-663 -188z" />
<glyph unicode="&#x6af;" horiz-adv-x="915" arabic-form="medial" d="M-70 1v267h259q40 0 75 14q47 19 47 53q0 46 -21 87l-182 357q-37 73 -37 133q0 120 139 160l614 175l91 -181l-535 -141q-53 -14 -53 -51q0 -18 15 -46l177 -334q120 -226 369 -226h27v-267h-28q-105 0 -202 42q-113 48 -152 132q-91 -174 -344 -174h-259zM75 1241 l671 187l55 -125l-663 -187z" />
<glyph unicode="&#x6b3;" horiz-adv-x="2228" arabic-form="final" d="M167 383v129h236v-111q0 -133 153 -133h955q40 0 75 14q47 19 47 53q0 46 -21 87l-182 357q-37 73 -37 133q0 120 140 160l613 175l91 -181l-535 -141q-53 -14 -53 -51q0 -18 15 -46l177 -334q120 -226 379 -226h8v-267h-7q-124 0 -237 59q-101 53 -129 115 q-91 -174 -344 -174h-1011q-333 0 -333 382zM855 -205h211v-212h-211v212zM855 -463h211v-212h-211v212zM1398 1241l670 187l55 -125l-663 -187z" />
<glyph unicode="&#x6b3;" horiz-adv-x="907" arabic-form="initial" d="M-70 1v267h269q126 0 126 70q0 32 -26 84l-180 357q-39 77 -39 137q0 116 140 156l652 185l95 -183l-577 -148q-53 -14 -53 -46q0 -19 14 -45l182 -341q41 -77 41 -174q0 -152 -114 -240q-104 -79 -261 -79h-269zM100 -213h211v-212h-211v212zM100 -471h211v-212h-211 v212zM114 1251l671 187l55 -125l-663 -188z" />
<glyph unicode="&#x6b3;" horiz-adv-x="915" arabic-form="medial" d="M-70 1v267h259q40 0 75 14q47 19 47 53q0 46 -21 87l-182 357q-37 73 -37 133q0 120 139 160l614 175l91 -181l-535 -141q-53 -14 -53 -51q0 -18 15 -46l177 -334q120 -226 369 -226h27v-267h-28q-105 0 -202 42q-113 48 -152 132q-91 -174 -344 -174h-259zM75 1241 l671 187l55 -125l-663 -187zM197 -214h211v-212h-211v212zM197 -472h211v-212h-211v212z" />
<glyph unicode="&#x6b1;" horiz-adv-x="2228" arabic-form="final" d="M167 383v129h236v-111q0 -133 153 -133h955q40 0 75 14q47 19 47 53q0 46 -21 87l-182 357q-37 73 -37 133q0 120 140 160l613 175l91 -181l-535 -141q-53 -14 -53 -51q0 -18 15 -46l177 -334q120 -226 379 -226h8v-267h-7q-124 0 -237 59q-101 53 -129 115 q-91 -174 -344 -174h-1011q-333 0 -333 382zM1398 1241l670 187l55 -125l-663 -187zM1400 1443v212h211v-212h-211zM1685 1443v212h211v-212h-211z" />
<glyph unicode="&#x6b1;" horiz-adv-x="907" arabic-form="initial" d="M-70 1v267h269q126 0 126 70q0 32 -26 84l-180 357q-39 77 -39 137q0 116 140 156l652 185l95 -183l-577 -148q-53 -14 -53 -46q0 -19 14 -45l182 -341q41 -77 41 -174q0 -152 -114 -240q-104 -79 -261 -79h-269zM114 1251l671 187l55 -125l-663 -188zM146 1465v212h211 v-212h-211zM431 1465v212h211v-212h-211z" />
<glyph unicode="&#x6b1;" horiz-adv-x="915" arabic-form="medial" d="M-70 1v267h259q40 0 75 14q47 19 47 53q0 46 -21 87l-182 357q-37 73 -37 133q0 120 139 160l614 175l91 -181l-535 -141q-53 -14 -53 -51q0 -18 15 -46l177 -334q120 -226 369 -226h27v-267h-28q-105 0 -202 42q-113 48 -152 132q-91 -174 -344 -174h-259zM75 1241 l671 187l55 -125l-663 -187zM117 1474v212h211v-212h-211zM402 1474v212h211v-212h-211z" />
<glyph unicode="&#x6ba;" horiz-adv-x="1650" arabic-form="final" d="M167 5q0 39 20 132q23 109 52 173l206 -73q-52 -127 -52 -236q0 -194 141 -285q107 -69 272 -69q424 0 424 389q0 178 -194 514l219 132l93 -198q66 -141 137 -186q47 -30 136 -30h29v-267h-28q-100 0 -152 48q0 -190 -56 -319q-156 -361 -615 -361q-330 0 -498 216 q-134 172 -134 420z" />
<glyph unicode="&#x6bb;" horiz-adv-x="1650" arabic-form="final" d="M167 5q0 39 20 132q23 109 52 173l206 -73q-52 -127 -52 -236q0 -194 141 -285q107 -69 272 -69q424 0 424 389q0 178 -194 514l219 132l93 -198q66 -141 137 -186q47 -30 136 -30h29v-267h-28q-100 0 -152 48q0 -190 -56 -319q-156 -361 -615 -361q-330 0 -498 216 q-134 172 -134 420zM478 673v47h91q25 0 25 41v281h79v-246q35 45 74 74q50 37 96 37q49 0 84 -42q33 -39 33 -89q0 -76 -54 -116q-39 -30 -79 -30h-233q-55 0 -116 43zM699 720h125q28 0 45.5 15t17.5 42q0 21 -17 34q-15 12 -36 12q-51 0 -135 -103z" />
<glyph unicode="&#x6c0;" horiz-adv-x="1027" arabic-form="isolated" d="M160 1045l180 46q-58 68 -58 135q0 76 68 122q59 41 139 41q57 0 101 -24v-97q-44 11 -88 11q-116 0 -116 -67q0 -35 30 -58q27 -22 63 -22q30 0 195 46l31 -118l-514 -126zM167 424q0 140 83 250q90 121 226 121q157 0 346 -150q203 -161 203 -332q0 -167 -143 -249 q-112 -64 -281 -64q-205 0 -319.5 110.5t-114.5 313.5zM400 417q0 -77 62 -122q55 -41 135 -41q164 0 164 80q0 74 -108 147q-95 64 -156 64q-41 0 -71 -45q-26 -39 -26 -83z" />
<glyph unicode="&#x6c0;" horiz-adv-x="1258" arabic-form="final" d="M150 1271l180 46q-58 68 -58 135q0 76 68 122q59 41 139 41q57 0 101 -24v-97q-44 11 -88 11q-116 0 -116 -67q0 -35 30 -58q27 -22 63 -22q30 0 195 46l31 -118l-514 -126zM167 469q0 91 90 179q69 67 177 124q41 21 122 62l-52 128l202 122l219 -576q47 -123 102 -173 q74 -67 208 -67h23v-267h-30q-216 0 -370 173q-107 -35 -278 -35q-241 0 -346 132q-67 85 -67 198zM393 438q17 -63 198 -63q56 0 142 7q-56 143 -104 247q-181 -90 -233 -146q-3 -8 -3 -45z" />
<glyph unicode="&#x6c1;" horiz-adv-x="1027" arabic-form="isolated" d="M167 424q0 140 83 250q90 121 226 121q157 0 346 -150q203 -161 203 -332q0 -167 -143 -249q-112 -64 -281 -64q-205 0 -319.5 110.5t-114.5 313.5zM400 417q0 -77 62 -122q55 -41 135 -41q164 0 164 80q0 74 -108 147q-95 64 -156 64q-41 0 -71 -45q-26 -39 -26 -83z " />
<glyph unicode="&#x6c1;" horiz-adv-x="489" arabic-form="initial" d="M-70 1v267h220q85 0 85 64q0 25 -16 54l-115 206l213 141q169 -281 169 -406q0 -326 -284 -326h-272zM166 -415q0 317 223 336v-39q-130 -23 -130 -207h123v-208h-216v118z" />
<glyph unicode="&#x6c1;" horiz-adv-x="825" arabic-form="medial" d="M-63 0v268h100q114 0 198 36.5t138 149.5t66 185l98 -10q-8 -128 -37.5 -233.5t-57 -145.5t-53.5 -185t58 -290l3 3q-39 201 33.5 345.5t211.5 144.5h143v-268h-104q-51 0 -85 -9t-54.5 -25t-28.5 -36.5t-8 -42.5q0 -38 31.5 -96.5t76.5 -103.5l-197 -203 q-100 59 -166 216.5t-19 358.5q-63 -43 -137 -51t-210 -8z" />
<glyph unicode="&#x6be;" horiz-adv-x="1065" arabic-form="final" d="M45 238q351 3 356 156v315h237v-454q0 -127 32 -203q47 99 142.5 157.5t205.5 58.5h68v-267h-29q-80 0 -149 -23q-96 -33 -96 -98q0 -46 58 -81q51 -30 178 -76l-77 -236q-207 56 -357 195q-131 122 -195 360q-42 -36 -143 -36q-39 6 -73 17.5t-63 36t-53 67t-42 111.5z " />
<glyph unicode="&#x6be;" horiz-adv-x="1147" arabic-form="initial" d="M-70 0v268h93q150 0 199 17q-51 42 -84.5 113.5t-33.5 136.5q0 155 215 285q-28 25 -83 62l146 174q63 -45 133 -100q161 -128 315 -275q132 -126 183 -200q88 -127 88 -259q0 -138 -78 -224q-80 -89 -217 -89q-103 0 -222 64q-23 12 -128 83q-97 -56 -226 -56h-300z M330 535q0 -53 33 -113q35 -64 82 -81q56 6 97 66q38 56 38 114q0 48 -38 83t-86 35q-46 0 -84 -28q-42 -31 -42 -76zM622 222q29 -15 85 -43.5t96 -28.5q35 0 64.5 26t29.5 60q0 52 -74 125q-40 33 -80 67q-9 -142 -121 -206z" />
<glyph unicode="&#x6be;" horiz-adv-x="819" arabic-form="medial" d="M-70 1v267h82q144 0 144 126v315h237v-454q0 -127 32 -203q47 99 142.5 157.5t205.5 58.5h68v-267h-29q-80 0 -149 -23q-96 -33 -96 -98q0 -46 58 -81q51 -30 178 -76l-77 -236q-207 56 -357 195q-131 122 -195 360q-42 -41 -143 -41h-101z" />
<glyph unicode="&#x6d2;" horiz-adv-x="1053" arabic-form="final" d="M0.5 -137.5q41.5 253.5 135.5 341.5q87 63 179 64h747l1 -268h-801q-18 0 -37 -7.5t-36 -27t-30.5 -54.5t-21.5 -90q22 -19 64 -23q102 -11 322.5 -16t329 -4t144.5 4q37 2 45 2l-14 -237q-13 -7 -135.5 -15t-305.5 -8.5t-256 2.5t-150 10t-169 40q-53 33 -11.5 286.5z " />
<glyph unicode="&#x6d3;" horiz-adv-x="1053" arabic-form="final" d="M0.5 -137.5q41.5 253.5 135.5 341.5q87 63 179 64h747l1 -268h-801q-18 0 -37 -7.5t-36 -27t-30.5 -54.5t-21.5 -90q22 -19 64 -23q102 -11 322.5 -16t329 -4t144.5 4q37 2 45 2l-14 -237q-13 -7 -135.5 -15t-305.5 -8.5t-256 2.5t-150 10t-169 40q-53 33 -11.5 286.5z M185 560l180 46q-58 68 -58 135q0 76 68 122q59 41 139 41q57 0 101 -24v-97q-44 11 -88 11q-116 0 -116 -67q0 -35 30 -58q27 -22 63 -22q30 0 195 46l31 -118l-514 -126z" />
<glyph unicode="&#x6ad;" horiz-adv-x="1824" arabic-form="final" d="M167 383v129h236v-111q0 -133 153 -133h629h16q21 1 38 3q19 4 37 11q6 2 14 3q7 3 12 7q39 28 39 108v833h236v-719q0 -127 54 -185q56 -61 181 -61h12v-267h-54l1 1q-176 8 -241 147q-96 -148 -329 -148h-701q-333 0 -333 382zM592 720l180 45q-59 68 -59 135 q0 75 68 122q60 41 139 41q58 0 102 -24v-97q-44 11 -88 11q-116 0 -116 -67q0 -35 30 -58q27 -22 63 -22q30 0 195 46l31 -118l-514 -125zM643 1189v215h209v-215h-209zM765 1442v213h215v-213h-215zM904 1189v215h211v-215h-211z" />
<glyph unicode="&#x6ad;" horiz-adv-x="898" arabic-form="initial" d="M-70 0v267h265q124 0 124 66q0 31 -28 88l-176 357q-38 77 -38 139q0 123 138 164l654 194l93 -202l-576 -148q-53 -14 -53 -46q0 -18 14 -45l178 -341q44 -84 44 -174q0 -152 -114 -239q-104 -80 -260 -80h-265zM140 1265v215h209v-215h-209zM262 1518v213h215v-213 h-215zM401 1265v215h211v-215h-211z" />
<glyph unicode="&#x6ad;" horiz-adv-x="903" arabic-form="medial" d="M-70 1v267h257q119 0 119 78q0 34 -21 76l-177 357q-39 79 -39 138q0 121 139 165l612 194l94 -202l-536 -152q-51 -14 -51 -47q0 -17 14 -44l173 -337q46 -90 133 -151q107 -75 242 -75h14v-267h-31q-234 0 -344 174q-87 -174 -341 -174h-257zM116 1267v215h209v-215 h-209zM238 1520v213h215v-213h-215zM377 1267v215h211v-215h-211z" />
<glyph unicode="&#x6c7;" horiz-adv-x="1084" arabic-form="final" d="M48 -440q63 28 188.5 85.5t213.5 133.5q116 100 175 239q-30 -3 -61 -3q-161 0 -269 84q-125 98 -125 277q0 125 84 219t208 94q125 0 239 -87q148 -113 192 -334h191v-267h-191q-42 -177 -224 -350q-202 -192 -513 -310zM143 961q97 28 254 76q-32 52 -32 108 q0 79 70 137q61 51 122 51q78 0 141 -51q67 -54 67 -130q0 -159 -194 -205l-400 -94zM386 370q0 -86 90 -98q87 -12 160 7q-3 81 -66 132q-51 42 -97 42q-28 0 -57.5 -27.5t-29.5 -55.5zM476 1142q0 -33 28.5 -56.5t62.5 -20.5q87 7 87 87q0 62 -91 62q-31 0 -59 -21 t-28 -51z" />
<glyph unicode="&#x6c6;" horiz-adv-x="1084" arabic-form="final" d="M48 -440q63 28 188.5 85.5t213.5 133.5q116 100 175 239q-30 -3 -61 -3q-161 0 -269 84q-125 98 -125 277q0 125 84 219t208 94q125 0 239 -87q148 -113 192 -334h191v-267h-191q-42 -177 -224 -350q-202 -192 -513 -310zM214 1237l155 2q13 -19 27 -52t27.5 -71.5 t24.5 -76.5t17 -68q6 30 17.5 68t25 76.5t28 71.5t27.5 52l155 -2q-18 -14 -47.5 -58.5t-60.5 -102.5t-57.5 -122t-39.5 -117h-94q-9 36 -25 77t-35 82.5t-40 80.5t-40.5 71.5t-36.5 55.5t-28 33zM386 370q0 -86 90 -98q87 -12 160 7q-3 81 -66 132q-51 42 -97 42 q-28 0 -57.5 -27.5t-29.5 -55.5z" />
<glyph unicode="&#x6c8;" horiz-adv-x="1084" arabic-form="final" d="M48 -440q63 28 188.5 85.5t213.5 133.5q116 100 175 239q-30 -3 -61 -3q-161 0 -269 84q-125 98 -125 277q0 125 84 219t208 94q125 0 239 -87q148 -113 192 -334h191v-267h-191q-42 -177 -224 -350q-202 -192 -513 -310zM386 370q0 -86 90 -98q87 -12 160 7 q-3 81 -66 132q-51 42 -97 42q-28 0 -57.5 -27.5t-29.5 -55.5zM388 1328h148l-26 -457h-94z" />
<glyph unicode="&#x6cb;" horiz-adv-x="1084" arabic-form="final" d="M48 -440q63 28 188.5 85.5t213.5 133.5q116 100 175 239q-30 -3 -61 -3q-161 0 -269 84q-125 98 -125 277q0 125 84 219t208 94q125 0 239 -87q148 -113 192 -334h191v-267h-191q-42 -177 -224 -350q-202 -192 -513 -310zM215 823v215h209v-215h-209zM337 1076v213h215 v-213h-215zM386 370q0 -86 90 -98q87 -12 160 7q-3 81 -66 132q-51 42 -97 42q-28 0 -57.5 -27.5t-29.5 -55.5zM476 823v215h211v-215h-211z" />
<glyph unicode="&#x6c5;" horiz-adv-x="1050" arabic-form="final" d="M48 -440q63 28 188 86q78 35 141 78l-250 -3l7 100l363 3q81 85 128 194q-30 -3 -61 -3q-161 0 -269 84q-125 98 -125 277q0 125 84 219t208 94q125 0 239 -87q148 -113 192 -334h191v-267h-191q-42 -177 -224 -350q-202 -192 -513 -310zM386 370q0 -86 90 -98 q87 -12 160 7q-3 81 -66 132q-51 42 -97 42q-28 0 -57.5 -27.5t-29.5 -55.5z" />
<glyph unicode="&#x6c9;" horiz-adv-x="1084" arabic-form="final" d="M48 -440q63 28 188.5 85.5t213.5 133.5q116 100 175 239q-30 -3 -61 -3q-161 0 -269 84q-125 98 -125 277q0 125 84 219t208 94q125 0 239 -87q148 -113 192 -334h191v-267h-191q-42 -177 -224 -350q-202 -192 -513 -310zM209 830q11 9 28 32.5t36.5 56t40.5 71.5 t40 80.5t35 82.5t25 77h94q13 -53 39.5 -117t57.5 -122t60.5 -102.5t47.5 -58.5l-155 -2q-13 19 -27.5 52t-28 71.5t-25 76.5t-17.5 68q-6 -30 -17 -68t-24.5 -76.5t-27.5 -71.5t-27 -52zM386 370q0 -86 90 -98q87 -12 160 7q-3 81 -66 132q-51 42 -97 42q-28 0 -57.5 -27.5 t-29.5 -55.5z" />
<glyph unicode="&#x6d0;" horiz-adv-x="1553" arabic-form="final" d="M167 32q0 131 63 306l208 -66q-35 -117 -35 -223q0 -333 340 -333q370 0 508 162q12 14 12 30q0 21 -26 30q-83 30 -427 111l62 219h681v-267h-38q0 -100 -33 -170q-87 -184 -334 -287q-209 -88 -440 -88q-541 0 -541 576zM627 -678h211v-212h-211v212zM627 -936h211 v-212h-211v212z" />
<glyph unicode="&#x6cc;" horiz-adv-x="1553" arabic-form="final" d="M167 32q0 131 63 306l208 -66q-35 -117 -35 -223q0 -333 340 -333q370 0 508 162q12 14 12 30q0 21 -26 30q-83 30 -427 111l62 219h681v-267h-38q0 -100 -33 -170q-87 -184 -334 -287q-209 -88 -440 -88q-541 0 -541 576z" />
<glyph unicode="&#x6cc;" horiz-adv-x="489" arabic-form="initial" d="M-70 1v267h220q85 0 85 64q0 25 -16 54l-115 206l213 141q169 -281 169 -406q0 -326 -284 -326h-272zM-61 -208h211v-212h-211v212zM224 -208h211v-212h-211v212z" />
<glyph unicode="&#x6cc;" horiz-adv-x="622" arabic-form="medial" d="M-70 1v267h87q143 0 143 161v263h236v-135q0 -289 208 -289h18v-267h-27q-76 0 -145.5 44t-102.5 112q-40 -86 -97.5 -121t-152.5 -35h-167zM33 -211h211v-212h-211v212zM318 -211h211v-212h-211v212z" />
<glyph unicode="&#xfc5d;" horiz-adv-x="1515" arabic-form="isolated" d="M167 174q0 129 59 306l212 -63q-8 -34 -23 -103q-12 -55 -12 -119q0 -201 112 -275q73 -48 221 -48q144 0 294 47q212 66 249 189q-338 11 -426 46q-113 45 -113 207q0 178 178 330q162 139 309 139q143 0 281 -100l-105 -188q-133 59 -159 59q-155 0 -267 -160 q-6 -9 -7 -23q-1 -15 7 -18q47 -20 135 -26l177 -13q101 -7 162 -63q64 -60 64 -159q0 -186 -206 -347q-236 -185 -597 -185q-293 0 -433 183q-112 147 -112 384zM507 1041h103l-19 -361h-65z" />
<glyph unicode="&#xfc5e;" arabic-form="isolated" d="M-344 726q54 76 118 74q105 -2 105 -106q0 -58 -31 -107l110 42q-31 51 -31 115q0 79 69 135q60 49 122 49q78 0 141 -51q67 -54 67 -130q0 -159 -194 -205l-410 -97l-39 105l39 17q62 27 62 86q0 34 -25 34q-22 0 -58 -26zM-329 170q0 72 63 206l89 -46 q-37 -96 -37 -114q0 -70 48 -70q71 0 92 73q12 41 9 132q35 19 114 60q0 -199 91 -199q49 0 45 60q-2 34 -19 62l-33 51l90 67q37 -49 64 -122q23 -62 23 -93q0 -67 -37 -114q-39 -50 -105 -50q-107 0 -163 80q-62 -146 -191 -146q-143 0 -143 163zM41 741q0 -34 26.5 -58.5 t60.5 -21.5q87 7 87 86q0 63 -90 63q-30 0 -57 -20t-27 -49z" />
<glyph unicode="&#xfc5f;" arabic-form="isolated" d="M-306 626q0 71 63 205l89 -45q-37 -97 -37 -115q0 -69 48 -69q70 0 92 73q12 41 9 131q35 20 114 60q0 -199 91 -199q49 0 45 60q-2 32 -19 63q-17 25 -33 51l90 67q37 -49 64 -122q23 -63 23 -94q0 -67 -37 -114q-39 -50 -105 -50q-107 0 -163 81q-62 -146 -191 -146 q-143 0 -143 163zM-284 332l563 142l28 -118l-560 -139zM-277 121l562 143l28 -119l-559 -139z" />
<glyph unicode="&#xfc60;" arabic-form="isolated" d="M-310 165q0 72 63 206l89 -46q-37 -96 -37 -114q0 -70 48 -70q71 0 92 73q12 41 9 132q35 19 114 60q0 -199 91 -199q49 0 45 60q-2 34 -19 62l-33 51l90 67q37 -49 64 -122q23 -62 23 -93q0 -67 -37 -114q-39 -50 -105 -50q-107 0 -163 80q-62 -146 -191 -146 q-143 0 -143 163zM-306 559l562 143l28 -119l-559 -139z" />
<glyph unicode="&#xfc61;" arabic-form="isolated" d="M-313 167q0 72 63 206l89 -46q-37 -96 -37 -114q0 -70 48 -70q71 0 92 73q12 41 9 132q35 19 114 60q0 -199 91 -199q49 0 45 60q-2 34 -19 62l-33 51l90 67q37 -49 64 -122q23 -62 23 -93q0 -67 -37 -114q-39 -50 -105 -50q-107 0 -163 80q-62 -146 -191 -146 q-143 0 -143 163zM-302 548q97 28 254 77q-32 51 -32 107q0 79 70 137q61 51 122 51q78 0 141 -50q67 -54 67 -130q0 -160 -194 -206l-400 -94zM31 729q0 -34 28.5 -56.5t62.5 -19.5q87 7 87 87q0 61 -91 61q-31 0 -59 -21t-28 -51z" />
<glyph unicode="&#xfc62;" arabic-form="isolated" d="M-308 407q0 71 63 205l89 -45q-37 -97 -37 -115q0 -70 48 -70q70 0 92 74q12 41 9 131q35 19 114 60q0 -199 91 -199q49 0 45 60q-2 34 -19 62q-11 17 -33 52l90 66q37 -47 64 -122q23 -63 23 -93q0 -67 -37 -114q-39 -50 -105 -50q-107 0 -163 80q-62 -145 -191 -145 q-143 0 -143 163zM-281 118l563 143l28 -119l-560 -139z" />
<glyph unicode="&#xfc63;" arabic-form="isolated" d="M-303 170q0 72 63 206l89 -46q-37 -96 -37 -114q0 -70 48 -70q71 0 92 73q12 41 9 132q35 19 114 60q0 -199 91 -199q49 0 45 60q-2 34 -19 62l-33 51l90 67q37 -49 64 -122q23 -62 23 -93q0 -67 -37 -114q-39 -50 -105 -50q-107 0 -163 80q-62 -146 -191 -146 q-143 0 -143 163zM-60 938h103l-19 -361h-65z" />
<glyph unicode="&#xfcf2;" horiz-adv-x="909" arabic-form="medial" d="M-29 0v268h964v-268h-964zM116 592q0 72 63 206l89 -46q-37 -96 -37 -114q0 -70 48 -70q71 0 92 73q12 41 9 132q35 19 114 60q0 -199 91 -199q49 0 45 60q-2 34 -19 62l-33 51l90 67q37 -49 64 -122q23 -62 23 -93q0 -67 -37 -114q-39 -50 -105 -50q-107 0 -163 80 q-62 -146 -191 -146q-143 0 -143 163zM120 986l562 143l28 -119l-559 -139z" />
<glyph unicode="&#xfcf3;" horiz-adv-x="909" arabic-form="medial" d="M-29 0v268h964v-268h-964zM125 515q0 72 63 206l89 -46q-37 -96 -37 -114q0 -70 48 -70q71 0 92 73q12 41 9 132q35 19 114 60q0 -199 91 -199q49 0 45 60q-2 34 -19 62l-33 51l90 67q37 -49 64 -122q23 -62 23 -93q0 -67 -37 -114q-39 -50 -105 -50q-107 0 -163 80 q-62 -146 -191 -146q-143 0 -143 163zM136 896q97 28 254 77q-32 51 -32 107q0 79 70 137q61 51 122 51q78 0 141 -50q67 -54 67 -130q0 -160 -194 -206l-400 -94zM469 1077q0 -34 28.5 -56.5t62.5 -19.5q87 7 87 87q0 61 -91 61q-31 0 -59 -21t-28 -51z" />
<glyph unicode="&#xfcf4;" horiz-adv-x="909" arabic-form="medial" d="M-29 0v268h964v-268h-964zM89 851q0 71 63 205l89 -45q-37 -97 -37 -115q0 -70 48 -70q70 0 92 74q12 41 9 131q35 19 114 60q0 -199 91 -199q49 0 45 60q-2 34 -19 62q-11 17 -33 52l90 66q37 -47 64 -122q23 -63 23 -93q0 -67 -37 -114q-39 -50 -105 -50 q-107 0 -163 80q-62 -145 -191 -145q-143 0 -143 163zM138 518l563 143l28 -119l-560 -139z" />
<glyph unicode="&#xfe71;" horiz-adv-x="909" arabic-form="medial" d="M-29 0v268h964v-268h-964zM139 786l563 142l28 -118l-560 -139zM146 575l562 143l28 -119l-559 -139z" />
<glyph unicode="&#xfe77;" horiz-adv-x="909" arabic-form="medial" d="M-29 0v268h964v-268h-964zM138 531l563 143l28 -119l-560 -139z" />
<glyph unicode="&#xfe79;" horiz-adv-x="909" arabic-form="medial" d="M-29 0v268h964v-268h-964zM126 541q97 28 254 76q-32 52 -32 108q0 79 70 137q61 51 122 51q78 0 141 -51q67 -54 67 -130q0 -159 -194 -205l-400 -94zM459 722q0 -33 28.5 -56.5t62.5 -20.5q87 7 87 87q0 62 -91 62q-31 0 -59 -21t-28 -51z" />
<glyph unicode="&#xfe7b;" horiz-adv-x="909" arabic-form="medial" d="M-29 0v268h964v-268h-964zM119 -354l563 143l28 -119l-560 -139z" />
<glyph unicode="&#xfe7d;" horiz-adv-x="909" arabic-form="medial" d="M-29 0v268h964v-268h-964zM133 593q0 72 63 206l89 -46q-37 -96 -37 -114q0 -70 48 -70q71 0 92 73q12 41 9 132q35 19 114 60q0 -199 91 -199q49 0 45 60q-2 34 -19 62l-33 51l90 67q37 -49 64 -122q23 -62 23 -93q0 -67 -37 -114q-39 -50 -105 -50q-107 0 -163 80 q-62 -146 -191 -146q-143 0 -143 163z" />
<glyph unicode="&#xfe7f;" horiz-adv-x="909" arabic-form="medial" d="M-29 0v268h964v-268h-964zM192 650q0 92 72 164t164 72t164.5 -72t72.5 -164q0 -99 -69 -168t-168 -69q-96 0 -166 70.5t-70 166.5zM327 650q0 -45 28 -73.5t73 -28.5q101 0 101 104q0 42 -31 70t-74 28q-37 0 -67 -31.5t-30 -68.5z" />
<glyph unicode="&#x621;" horiz-adv-x="1042" arabic-form="isolated" d="M163 -15l289 69q-83 83 -83 212q0 116 78 184q75 66 192 66q38 0 205 -34q-7 -44 -17 -150l-146 21q-47 0 -90 -28q-49 -31 -49 -76q0 -54 47 -91q43 -34 99 -34q42 0 320 73l30 -163l-830 -212z" />
<glyph unicode="&#x622;" horiz-adv-x="690" arabic-form="final" d="M-105 1433l53 124q39 71 83 71q21 0 61 -19q139 -64 283 -64q203 -1 399 81v-165q-193 -112 -406 -99q-74 3 -169 31t-108 25q-17 0 -57 -61q-36 19 -139 76zM210 425v810h236v-726q0 -118 26 -169q38 -72 144 -72h74v-267h-178q-158 0 -238 140q-64 113 -64 284z" />
<glyph unicode="&#x623;" horiz-adv-x="675" arabic-form="final" d="M45 1457l180 46q-58 68 -58 135q0 76 68 122q59 41 139 41q57 0 101 -24v-97q-44 11 -88 11q-116 0 -116 -67q0 -35 30 -58q27 -22 63 -22q30 0 195 46l31 -118l-514 -126zM195 425v810h236v-726q0 -118 26 -169q38 -72 144 -72h74v-267h-178q-158 0 -238 140 q-64 113 -64 284z" />
<glyph unicode="&#x624;" horiz-adv-x="1084" arabic-form="final" d="M48 -440q63 28 188.5 85.5t213.5 133.5q116 100 175 239q-30 -3 -61 -3q-161 0 -269 84q-125 98 -125 277q0 125 84 219t208 94q125 0 239 -87q148 -113 192 -334h191v-267h-191q-42 -177 -224 -350q-202 -192 -513 -310zM170 965l180 46q-58 68 -58 135q0 76 68 122 q59 41 139 41q57 0 101 -24v-97q-44 11 -88 11q-116 0 -116 -67q0 -35 30 -58q27 -22 63 -22q30 0 195 46l31 -118l-514 -126zM386 370q0 -86 90 -98q87 -12 160 7q-3 81 -66 132q-51 42 -97 42q-28 0 -57.5 -27.5t-29.5 -55.5z" />
<glyph unicode="&#x625;" horiz-adv-x="666" arabic-form="final" d="M70 -513l180 46q-58 68 -58 135q0 76 68 122q59 41 139 41q57 0 101 -24v-97q-44 11 -88 11q-116 0 -116 -67q0 -35 30 -58q27 -22 63 -22q30 0 195 46l31 -118l-514 -126zM186 425v810h236v-726q0 -118 26 -169q38 -72 144 -72h74v-267h-178q-158 0 -238 140 q-64 113 -64 284z" />
<glyph unicode="&#x626;" horiz-adv-x="1553" arabic-form="final" d="M167 32q0 131 63 306l208 -66q-35 -117 -35 -223q0 -333 340 -333q370 0 508 162q12 14 12 30q0 21 -26 30q-83 30 -427 111l62 219h681v-267h-38q0 -100 -33 -170q-87 -184 -334 -287q-209 -88 -440 -88q-541 0 -541 576zM388 625l180 46q-58 68 -58 135q0 76 68 122 q59 41 139 41q57 0 101 -24v-97q-44 11 -88 11q-116 0 -116 -67q0 -35 30 -58q27 -22 63 -22q30 0 195 46l31 -118l-514 -126z" />
<glyph unicode="&#x626;" horiz-adv-x="489" arabic-form="initial" d="M-100 947l180 46q-58 68 -58 135q0 76 68 122q59 41 139 41q57 0 101 -24v-97q-44 11 -88 11q-116 0 -116 -67q0 -35 30 -58q27 -22 63 -22q30 0 195 46l31 -118l-514 -126zM-70 1v267h220q85 0 85 64q0 25 -16 54l-115 206l213 141q169 -281 169 -406q0 -326 -284 -326 h-272z" />
<glyph unicode="&#x626;" horiz-adv-x="622" arabic-form="medial" d="M-70 1v267h87q143 0 143 161v263h236v-135q0 -289 208 -289h18v-267h-27q-76 0 -145.5 44t-102.5 112q-40 -86 -97.5 -121t-152.5 -35h-167zM-8 976l180 46q-58 68 -58 135q0 76 68 122q59 41 139 41q57 0 101 -24v-97q-44 11 -88 11q-116 0 -116 -67q0 -35 30 -58 q27 -22 63 -22q30 0 195 46l31 -118l-514 -126z" />
<glyph unicode="&#x627;" horiz-adv-x="404" arabic-form="isolated" d="M167 1v1233h236v-1233h-236z" />
<glyph unicode="&#x627;" horiz-adv-x="682" arabic-form="final" d="M202 425v810h236v-726q0 -118 26 -169q38 -72 144 -72h74v-267h-178q-158 0 -238 140q-64 113 -64 284z" />
<glyph unicode="&#x628;" horiz-adv-x="2293" arabic-form="final" d="M167 362v150h236v-111q0 -77 41 -107q35 -26 116 -26h1104q82 0 82 55q0 27 -19 63l-108 206l201 135q13 -21 91 -170q152 -289 365 -289h17v-267h-21q-197 0 -330 187q-34 -187 -243 -187h-1185q-347 0 -347 361zM922 -215h237v-237h-237v237z" />
<glyph unicode="&#x628;" horiz-adv-x="489" arabic-form="initial" d="M-70 1v267h220q85 0 85 64q0 25 -16 54l-115 206l213 141q169 -281 169 -406q0 -326 -284 -326h-272zM85 -209h237v-237h-237v237z" />
<glyph unicode="&#x628;" horiz-adv-x="622" arabic-form="medial" d="M-70 1v267h87q143 0 143 161v263h236v-135q0 -289 208 -289h18v-267h-27q-76 0 -145.5 44t-102.5 112q-40 -86 -97.5 -121t-152.5 -35h-167zM155 -203h237v-237h-237v237z" />
<glyph unicode="&#x629;" horiz-adv-x="1258" arabic-form="final" d="M167 469q0 91 90 179q69 67 177 124q41 21 122 62l-52 128l202 122l219 -576q47 -123 102 -173q74 -67 208 -67h23v-267h-30q-216 0 -370 173q-107 -35 -278 -35q-241 0 -346 132q-67 85 -67 198zM256 1193v212h211v-212h-211zM393 438q17 -63 198 -63q56 0 142 7 q-56 143 -104 247q-181 -90 -233 -146q-3 -8 -3 -45zM541 1193v212h211v-212h-211z" />
<glyph unicode="&#x62a;" horiz-adv-x="2293" arabic-form="final" d="M167 362v150h236v-111q0 -77 41 -107q35 -26 116 -26h1104q82 0 82 55q0 27 -19 63l-108 206l201 135q13 -21 91 -170q152 -289 365 -289h17v-267h-21q-197 0 -330 187q-34 -187 -243 -187h-1185q-347 0 -347 361zM766 737v212h211v-212h-211zM1051 737v212h211v-212 h-211z" />
<glyph unicode="&#x62a;" horiz-adv-x="489" arabic-form="initial" d="M-85 886v212h211v-212h-211zM-70 1v267h220q85 0 85 64q0 25 -16 54l-115 206l213 141q169 -281 169 -406q0 -326 -284 -326h-272zM200 886v212h211v-212h-211z" />
<glyph unicode="&#x62a;" horiz-adv-x="622" arabic-form="medial" d="M-70 1v267h87q143 0 143 161v263h236v-135q0 -289 208 -289h18v-267h-27q-76 0 -145.5 44t-102.5 112q-40 -86 -97.5 -121t-152.5 -35h-167zM1 891v212h211v-212h-211zM286 891v212h211v-212h-211z" />
<glyph unicode="&#x62b;" horiz-adv-x="2293" arabic-form="final" d="M167 362v150h236v-111q0 -77 41 -107q35 -26 116 -26h1104q82 0 82 55q0 27 -19 63l-108 206l201 135q13 -21 91 -170q152 -289 365 -289h17v-267h-21q-197 0 -330 187q-34 -187 -243 -187h-1185q-347 0 -347 361zM758 663v215h209v-215h-209zM880 916v213h215v-213h-215 zM1019 663v215h211v-215h-211z" />
<glyph unicode="&#x62b;" horiz-adv-x="489" arabic-form="initial" d="M-75 863v215h209v-215h-209zM-70 1v267h220q85 0 85 64q0 25 -16 54l-115 206l213 141q169 -281 169 -406q0 -326 -284 -326h-272zM47 1116v213h215v-213h-215zM186 863v215h211v-215h-211z" />
<glyph unicode="&#x62b;" horiz-adv-x="622" arabic-form="medial" d="M-70 1v267h87q143 0 143 161v263h236v-135q0 -289 208 -289h18v-267h-27q-76 0 -145.5 44t-102.5 112q-40 -86 -97.5 -121t-152.5 -35h-167zM16 879v215h209v-215h-209zM138 1132v213h215v-213h-215zM277 879v215h211v-215h-211z" />
<glyph unicode="&#x62c;" horiz-adv-x="1466" arabic-form="final" d="M167 -145q0 269 270 505q78 67 167 124.5t195 107.5q-43 2 -84.5 3t-83.5 1q-69 0 -136 -3q-80 -3 -180 -61l-120 195q21 27 52 51t67 42t73.5 28.5t71.5 10.5l969 -35l-25 -254h-89q-35 0 -77 -8t-83.5 -21.5t-79 -31t-63.5 -35.5q64 -94 106 -128q93 -78 225 -78h124 v-267h-167q-175 0 -276 89q-77 68 -193 280q-142 -87 -256 -209q-150 -161 -150 -292q0 -79 30 -142.5t83.5 -108.5t128 -69t164.5 -24q154 0 267 39q29 11 72 28t103 37l114 -219q-281 -152 -548 -152q-160 0 -284.5 39.5t-210.5 115.5t-131 187.5t-45 254.5zM707 -15h237 v-237h-237v237z" />
<glyph unicode="&#x62c;" horiz-adv-x="986" arabic-form="initial" d="M-70 1v267h647l-247 244q-53 52 -122 52h-160v243h206q111 0 184 -73l548 -549l-135 -184h-921zM206 -207h237v-237h-237v237z" />
<glyph unicode="&#x62c;" horiz-adv-x="1286" arabic-form="medial" d="M-70 1v267h96q158 0 271 43q47 17 94.5 44.5t96.5 65.5q20 16 69 53.5t128 100.5q-210 6 -308 6q-37 0 -63 -1.5t-52 -7.5t-57 -18.5t-78 -34.5l-114 195q114 131 274 131l957 -34l-28 -255h-87q-81 0 -154 -40q-19 -11 -49 -32t-75 -53q34 -38 65 -65t59 -44 q91 -54 217 -54h94v-267h-198q-143 0 -233 87q-43 40 -153 215q-85 -73 -145.5 -123t-102.5 -76q-158 -103 -294 -103h-230zM422 -205h237v-237h-237v237z" />
<glyph unicode="&#x62d;" horiz-adv-x="1466" arabic-form="final" d="M167 -145q0 269 270 505q78 67 167 124.5t195 107.5q-43 2 -84.5 3t-83.5 1q-69 0 -136 -3q-80 -3 -180 -61l-120 195q21 27 52 51t67 42t73.5 28.5t71.5 10.5l969 -35l-25 -254h-89q-35 0 -77 -8t-83.5 -21.5t-79 -31t-63.5 -35.5q64 -94 106 -128q93 -78 225 -78h124 v-267h-167q-175 0 -276 89q-77 68 -193 280q-142 -87 -256 -209q-150 -161 -150 -292q0 -79 30 -142.5t83.5 -108.5t128 -69t164.5 -24q154 0 267 39q29 11 72 28t103 37l114 -219q-281 -152 -548 -152q-160 0 -284.5 39.5t-210.5 115.5t-131 187.5t-45 254.5z" />
<glyph unicode="&#x62d;" horiz-adv-x="986" arabic-form="initial" d="M-70 1v267h647l-247 244q-53 52 -122 52h-160v243h206q111 0 184 -73l548 -549l-135 -184h-921z" />
<glyph unicode="&#x62d;" horiz-adv-x="1286" arabic-form="medial" d="M-70 1v267h96q158 0 271 43q47 17 94.5 44.5t96.5 65.5q20 16 69 53.5t128 100.5q-210 6 -308 6q-37 0 -63 -1.5t-52 -7.5t-57 -18.5t-78 -34.5l-114 195q114 131 274 131l957 -34l-28 -255h-87q-81 0 -154 -40q-19 -11 -49 -32t-75 -53q34 -38 65 -65t59 -44 q91 -54 217 -54h94v-267h-198q-143 0 -233 87q-43 40 -153 215q-85 -73 -145.5 -123t-102.5 -76q-158 -103 -294 -103h-230z" />
<glyph unicode="&#x62e;" horiz-adv-x="1466" arabic-form="final" d="M167 -145q0 269 270 505q78 67 167 124.5t195 107.5q-43 2 -84.5 3t-83.5 1q-69 0 -136 -3q-80 -3 -180 -61l-120 195q21 27 52 51t67 42t73.5 28.5t71.5 10.5l969 -35l-25 -254h-89q-35 0 -77 -8t-83.5 -21.5t-79 -31t-63.5 -35.5q64 -94 106 -128q93 -78 225 -78h124 v-267h-167q-175 0 -276 89q-77 68 -193 280q-142 -87 -256 -209q-150 -161 -150 -292q0 -79 30 -142.5t83.5 -108.5t128 -69t164.5 -24q154 0 267 39q29 11 72 28t103 37l114 -219q-281 -152 -548 -152q-160 0 -284.5 39.5t-210.5 115.5t-131 187.5t-45 254.5zM660 1087v237 h237v-237h-237z" />
<glyph unicode="&#x62e;" horiz-adv-x="986" arabic-form="initial" d="M-70 1v267h647l-247 244q-53 52 -122 52h-160v243h206q111 0 184 -73l548 -549l-135 -184h-921zM153 972v237h237v-237h-237z" />
<glyph unicode="&#x62e;" horiz-adv-x="1286" arabic-form="medial" d="M-70 1v267h96q158 0 271 43q47 17 94.5 44.5t96.5 65.5q20 16 69 53.5t128 100.5q-210 6 -308 6q-37 0 -63 -1.5t-52 -7.5t-57 -18.5t-78 -34.5l-114 195q114 131 274 131l957 -34l-28 -255h-87q-81 0 -154 -40q-19 -11 -49 -32t-75 -53q34 -38 65 -65t59 -44 q91 -54 217 -54h94v-267h-198q-143 0 -233 87q-43 40 -153 215q-85 -73 -145.5 -123t-102.5 -76q-158 -103 -294 -103h-230zM474 1063v237h237v-237h-237z" />
<glyph unicode="&#x62f;" horiz-adv-x="1524" arabic-form="final" d="M163 220l163 163q104 -115 185 -115h316q141 0 141 58q0 24 -19 61l-268 521l209 135l281 -556q58 -115 129 -165q79 -54 202 -54h22v-267h-30q-182 0 -319 156q-71 -90 -108 -113q-70 -43 -212 -43h-316q-188 0 -376 219z" />
<glyph unicode="&#x630;" horiz-adv-x="1524" arabic-form="final" d="M163 220l163 163q104 -115 185 -115h316q141 0 141 58q0 24 -19 61l-268 521l209 135l281 -556q58 -115 129 -165q79 -54 202 -54h22v-267h-30q-182 0 -319 156q-71 -90 -108 -113q-70 -43 -212 -43h-316q-188 0 -376 219zM629 1203v237h237v-237h-237z" />
<glyph unicode="&#x631;" horiz-adv-x="1219" arabic-form="final" d="M48 -305q142 77 264 155q281 180 355 303q26 43 26 103q0 49 -19 89q-28 76 -125 257l215 129l135 -265q47 -93 81 -126q73 -72 209 -72h30v-267h-29q-166 0 -265 128q-8 -33 -63 -128q-111 -190 -695 -521z" />
<glyph unicode="&#x632;" horiz-adv-x="1219" arabic-form="final" d="M48 -305q142 77 264 155q281 180 355 303q26 43 26 103q0 49 -19 89q-28 76 -125 257l215 129l135 -265q47 -93 81 -126q73 -72 209 -72h30v-267h-29q-166 0 -265 128q-8 -33 -63 -128q-111 -190 -695 -521zM507 902v237h237v-237h-237z" />
<glyph unicode="&#x633;" horiz-adv-x="2644" arabic-form="final" d="M167 4q0 39 20 132q23 109 52 173l206 -73q-52 -127 -52 -236q0 -195 140 -287q108 -71 270 -71q196 0 308 98q119 103 119 295q0 199 -194 517l201 129q39 -74 122 -220q108 -179 208 -179q118 0 118 156v246h239q0 -420 167 -420q102 0 102 153v271h235q0 -265 49 -352 q38 -68 142 -68h25v-267h-28q-99 0 -156 33q-53 32 -108 118q-97 -159 -261 -159q-133 0 -246 146q-73 -139 -216 -139q-97 0 -159 48q0 -190 -56 -319q-72 -167 -195 -251q-156 -107 -427 -107q-330 0 -495 215q-130 169 -130 418z" />
<glyph unicode="&#x633;" horiz-adv-x="1431" arabic-form="initial" d="M-70 1v267h79q69 0 98 22q43 33 43 132v267h236q0 -209 30 -298q38 -112 140 -112q56 0 88 55q27 46 27 105v246h219q0 -406 187 -406q111 0 111 95q0 92 -104 274l195 117q152 -247 152 -395q0 -159 -77 -254q-84 -104 -238 -104q-192 0 -293 152q-85 -163 -260 -163 q-75 0 -146 44.5t-108 111.5q-41 -73 -117.5 -114.5t-162.5 -41.5h-99z" />
<glyph unicode="&#x633;" horiz-adv-x="1639" arabic-form="medial" d="M-70 1v267h81q69 0 97 22q42 33 42 132v267h236q0 -417 177 -417q108 0 108 167v250h243q0 -177 15 -253q34 -171 144 -171q102 0 102 153v271h236q0 -264 54 -353q41 -68 148 -68h26v-267h-28q-164 0 -267 152q-86 -152 -236 -152q-168 0 -281 139q-32 -66 -112 -105 q-71 -34 -152 -34q-79 0 -150 42q-74 44 -104 114q-85 -156 -280 -156h-99z" />
<glyph unicode="&#x634;" horiz-adv-x="2644" arabic-form="final" d="M167 4q0 39 20 132q23 109 52 173l206 -73q-52 -127 -52 -236q0 -195 140 -287q108 -71 270 -71q196 0 308 98q119 103 119 295q0 199 -194 517l201 129q39 -74 122 -220q108 -179 208 -179q118 0 118 156v246h239q0 -420 167 -420q102 0 102 153v271h235q0 -265 49 -352 q38 -68 142 -68h25v-267h-28q-99 0 -156 33q-53 32 -108 118q-97 -159 -261 -159q-133 0 -246 146q-73 -139 -216 -139q-97 0 -159 48q0 -190 -56 -319q-72 -167 -195 -251q-156 -107 -427 -107q-330 0 -495 215q-130 169 -130 418zM1530 938v215h209v-215h-209zM1652 1191 v213h215v-213h-215zM1791 938v215h211v-215h-211z" />
<glyph unicode="&#x634;" horiz-adv-x="1431" arabic-form="initial" d="M-70 1v267h79q69 0 98 22q43 33 43 132v267h236q0 -209 30 -298q38 -112 140 -112q56 0 88 55q27 46 27 105v246h219q0 -406 187 -406q111 0 111 95q0 92 -104 274l195 117q152 -247 152 -395q0 -159 -77 -254q-84 -104 -238 -104q-192 0 -293 152q-85 -163 -260 -163 q-75 0 -146 44.5t-108 111.5q-41 -73 -117.5 -114.5t-162.5 -41.5h-99zM542 897v208h197v-208h-197zM657 1142v207h202v-207h-202zM787 897v208h199v-208h-199z" />
<glyph unicode="&#x634;" horiz-adv-x="1639" arabic-form="medial" d="M-70 1v267h81q69 0 97 22q42 33 42 132v267h236q0 -417 177 -417q108 0 108 167v250h243q0 -177 15 -253q34 -171 144 -171q102 0 102 153v271h236q0 -264 54 -353q41 -68 148 -68h26v-267h-28q-164 0 -267 152q-86 -152 -236 -152q-168 0 -281 139q-32 -66 -112 -105 q-71 -34 -152 -34q-79 0 -150 42q-74 44 -104 114q-85 -156 -280 -156h-99zM547 953v215h209v-215h-209zM669 1206v213h215v-213h-215zM808 953v215h211v-215h-211z" />
<glyph unicode="&#x635;" horiz-adv-x="2641" arabic-form="final" d="M167 29q0 39 20 133q23 110 52 173l206 -73q-52 -127 -52 -237q0 -194 141 -285q107 -69 272 -69q199 0 310 96q117 102 117 297q0 107 -62 266q-52 133 -125 248l215 131q156 -347 229 -374q317 493 626 493q135 0 248 -116q107 -109 107 -225q0 -135 -22 -184 q47 -35 167 -35h25v-267h-30q-71 0 -145 33q-81 36 -114 92q-84 -125 -302 -125h-434q-107 0 -135 45q0 -366 -284 -551q-179 -116 -405 -116q-333 0 -497 223q-128 174 -128 427zM1685 268h341q208 0 208 174q0 62 -45 100.5t-108 38.5q-91 0 -195 -90q-73 -64 -201 -223z " />
<glyph unicode="&#x635;" horiz-adv-x="1491" arabic-form="initial" d="M-70 1v267h84q133 0 133 117v280h241v-203q0 -41 29.5 -88t67.5 -65q351 524 658 524q141 0 245 -119q101 -115 101 -258q0 -230 -134 -352q-113 -103 -279 -103h-440q-225 0 -304 157q-39 -78 -87 -110q-71 -47 -215 -47h-100zM709 270h343q209 0 209 175q0 62 -48 102 q-45 37 -109 37q-90 0 -193 -90q-75 -65 -202 -224z" />
<glyph unicode="&#x635;" horiz-adv-x="1640" arabic-form="medial" d="M-70 1v267h89q127 0 127 115v278h240v-202q0 -106 90 -149q347 518 660 518q145 0 247 -116q98 -112 98 -259q0 -56 -22 -150q53 -35 154 -35h27v-267h-29q-164 0 -256 115q-104 -115 -285 -115h-438q-223 0 -302 156q-54 -83 -74 -99q-72 -57 -225 -57h-101zM706 268 h340q209 0 209 174q0 62 -48 102q-45 37 -109 37q-90 0 -192 -90q-74 -65 -200 -223z" />
<glyph unicode="&#x636;" horiz-adv-x="2641" arabic-form="final" d="M167 29q0 39 20 133q23 110 52 173l206 -73q-52 -127 -52 -237q0 -194 141 -285q107 -69 272 -69q199 0 310 96q117 102 117 297q0 107 -62 266q-52 133 -125 248l215 131q156 -347 229 -374q317 493 626 493q135 0 248 -116q107 -109 107 -225q0 -135 -22 -184 q47 -35 167 -35h25v-267h-30q-71 0 -145 33q-81 36 -114 92q-84 -125 -302 -125h-434q-107 0 -135 45q0 -366 -284 -551q-179 -116 -405 -116q-333 0 -497 223q-128 174 -128 427zM1413 971v237h237v-237h-237zM1685 268h341q208 0 208 174q0 62 -45 100.5t-108 38.5 q-91 0 -195 -90q-73 -64 -201 -223z" />
<glyph unicode="&#x636;" horiz-adv-x="1491" arabic-form="initial" d="M-70 1v267h84q133 0 133 117v280h241v-203q0 -41 29.5 -88t67.5 -65q351 524 658 524q141 0 245 -119q101 -115 101 -258q0 -230 -134 -352q-113 -103 -279 -103h-440q-225 0 -304 157q-39 -78 -87 -110q-71 -47 -215 -47h-100zM430 975v237h237v-237h-237zM709 270h343 q209 0 209 175q0 62 -48 102q-45 37 -109 37q-90 0 -193 -90q-75 -65 -202 -224z" />
<glyph unicode="&#x636;" horiz-adv-x="1640" arabic-form="medial" d="M-70 1v267h89q127 0 127 115v278h240v-202q0 -106 90 -149q347 518 660 518q145 0 247 -116q98 -112 98 -259q0 -56 -22 -150q53 -35 154 -35h27v-267h-29q-164 0 -256 115q-104 -115 -285 -115h-438q-223 0 -302 156q-54 -83 -74 -99q-72 -57 -225 -57h-101zM449 992 v237h237v-237h-237zM706 268h340q209 0 209 174q0 62 -48 102q-45 37 -109 37q-90 0 -192 -90q-74 -65 -200 -223z" />
<glyph unicode="&#x637;" horiz-adv-x="1789" arabic-form="final" d="M167 123v152h243q46 0 78.5 36t32.5 83v840h237v-736q102 134 221 222q152 112 289 111q147 -1 254 -116t107 -263q0 -68 -17 -149q41 -35 152 -35h25v-267h-29q-96 0 -171 43q-56 32 -81 72q-109 -115 -288 -115h-695q-68 0 -186 43q-100 37 -172 79zM838 268h371 q83 0 135.5 46t52.5 128q0 60 -45.5 98t-107.5 38q-159 0 -406 -310z" />
<glyph unicode="&#x637;" horiz-adv-x="1270" arabic-form="initial" d="M-70 1v267h82q162 0 162 126v840h236v-736q103 135 221 222q152 112 290 111q145 -1 249 -126q98 -118 98 -266q0 -227 -160 -349q-116 -89 -236 -89h-942zM490 268h372q84 0 135.5 46t51.5 128q0 60 -47 99q-43 37 -105 37q-159 0 -407 -310z" />
<glyph unicode="&#x637;" horiz-adv-x="1442" arabic-form="medial" d="M-70 1v267h82q81 0 117 23q45 28 45 103v840h236v-736q103 135 221 222q152 112 290 111q145 -1 253 -116.5t108 -261.5q0 -69 -18 -150q41 -35 163 -35h15v-267h-29q-181 0 -253 115q-108 -115 -288 -115h-942zM490 268h372q84 0 135.5 46t51.5 128q0 60 -47 99 q-43 37 -105 37q-159 0 -407 -310z" />
<glyph unicode="&#x638;" horiz-adv-x="1789" arabic-form="final" d="M167 123v152h243q46 0 78.5 36t32.5 83v840h237v-736q102 134 221 222q152 112 289 111q147 -1 254 -116t107 -263q0 -68 -17 -149q41 -35 152 -35h25v-267h-29q-96 0 -171 43q-56 32 -81 72q-109 -115 -288 -115h-695q-68 0 -186 43q-100 37 -172 79zM838 268h371 q83 0 135.5 46t52.5 128q0 60 -45.5 98t-107.5 38q-159 0 -406 -310zM977 1025v237h237v-237h-237z" />
<glyph unicode="&#x638;" horiz-adv-x="1270" arabic-form="initial" d="M-70 1v267h82q162 0 162 126v840h236v-736q103 135 221 222q152 112 290 111q145 -1 249 -126q98 -118 98 -266q0 -227 -160 -349q-116 -89 -236 -89h-942zM490 268h372q84 0 135.5 46t51.5 128q0 60 -47 99q-43 37 -105 37q-159 0 -407 -310zM626 1036v237h237v-237 h-237z" />
<glyph unicode="&#x638;" horiz-adv-x="1442" arabic-form="medial" d="M-70 1v267h82q81 0 117 23q45 28 45 103v840h236v-736q103 135 221 222q152 112 290 111q145 -1 253 -116.5t108 -261.5q0 -69 -18 -150q41 -35 163 -35h15v-267h-29q-181 0 -253 115q-108 -115 -288 -115h-942zM490 268h372q84 0 135.5 46t51.5 128q0 60 -47 99 q-43 37 -105 37q-159 0 -407 -310zM660 1039v237h237v-237h-237z" />
<glyph unicode="&#x639;" horiz-adv-x="1210" arabic-form="final" d="M167 -256q0 159 114 299q87 107 223 191l156 90q-41 39 -122 119q-90 90 -90 155q0 67 90 125q108 70 285 70q105 0 203 -56q107 -61 107 -142q0 -122 -139 -271q40 -32 64 -41q39 -15 120 -15h32v-267h-31q-173 0 -349 170q-17 0 -117 -60q-310 -185 -310 -353 q0 -140 139 -203q102 -47 261 -47q153 0 347 59l77 -222q-244 -98 -466 -98q-240 0 -408 126q-186 139 -186 371z" />
<glyph unicode="&#x639;" horiz-adv-x="932" arabic-form="initial" d="M-70 1v267h188q-52 84 -52 219q0 133 102 229q114 108 305 108q213 0 424 -135q-34 -54 -98 -180q-54 35 -152 59q-82 20 -133 20q-71 0 -126 -40q-60 -44 -62 -113q-2 -66 56 -113q66 -54 185 -54h364v-267h-1001z" />
<glyph unicode="&#x639;" horiz-adv-x="838" arabic-form="medial" d="M-70 1v267h116q150 0 225 32q-46 38 -134.5 118.5t-88.5 151.5q0 90 162 146q125 43 235 43q109 0 189 -42q99 -53 99 -153q0 -57 -19 -96q-21 -44 -106 -154q51 -46 153 -46h77v-267h-53q-96 0 -212 69q-74 44 -111 81q-140 -150 -319 -150h-213z" />
<glyph unicode="&#x63a;" horiz-adv-x="1210" arabic-form="final" d="M167 -256q0 159 114 299q87 107 223 191l156 90q-41 39 -122 119q-90 90 -90 155q0 67 90 125q108 70 285 70q105 0 203 -56q107 -61 107 -142q0 -122 -139 -271q40 -32 64 -41q39 -15 120 -15h32v-267h-31q-173 0 -349 170q-17 0 -117 -60q-310 -185 -310 -353 q0 -140 139 -203q102 -47 261 -47q153 0 347 59l77 -222q-244 -98 -466 -98q-240 0 -408 126q-186 139 -186 371zM654 977v237h237v-237h-237z" />
<glyph unicode="&#x63a;" horiz-adv-x="932" arabic-form="initial" d="M-70 1v267h188q-52 84 -52 219q0 133 102 229q114 108 305 108q213 0 424 -135q-34 -54 -98 -180q-54 35 -152 59q-82 20 -133 20q-71 0 -126 -40q-60 -44 -62 -113q-2 -66 56 -113q66 -54 185 -54h364v-267h-1001zM321 1000v237h237v-237h-237z" />
<glyph unicode="&#x63a;" horiz-adv-x="838" arabic-form="medial" d="M-70 1v267h116q150 0 225 32q-46 38 -134.5 118.5t-88.5 151.5q0 90 162 146q125 43 235 43q109 0 189 -42q99 -53 99 -153q0 -57 -19 -96q-21 -44 -106 -154q51 -46 153 -46h77v-267h-53q-96 0 -212 69q-74 44 -111 81q-140 -150 -319 -150h-213zM255 940v237h237v-237 h-237z" />
<glyph unicode="&#x641;" horiz-adv-x="2150" arabic-form="final" d="M167 383v129h236v-101q0 -143 166 -143h942q-114 96 -114 237q0 144 89 223q85 76 230 76q327 0 327 -299q0 -77 -47 -155q-40 -65 -74 -82h228v-267h-131q-71 0 -176 46q-91 40 -123 72q-151 -118 -317 -118h-899q-163 0 -253 112q-84 103 -84 270zM1563 1005v237h237 v-237h-237zM1605 498q0 -48 43 -93q35 -36 72 -50q34 11 70 48q45 46 45 95q0 42 -38 68q-33 22 -77 22q-115 0 -115 -90z" />
<glyph unicode="&#x641;" horiz-adv-x="822" arabic-form="initial" d="M-70 0v267h504q39 0 75 15q76 31 78 111q-52 -24 -149 -24q-127 0 -202.5 75.5t-79.5 202.5q-3 117 61 216q72 110 186 110q205 0 321 -198q96 -166 96 -386q0 -171 -81 -275q-90 -114 -256 -114h-553zM267 1115v237h237v-237h-237zM341 664q0 -97 135 -97q81 0 104 24 q-10 58 -46 101q-41 48 -96 48q-97 0 -97 -76z" />
<glyph unicode="&#x641;" horiz-adv-x="872" arabic-form="medial" d="M-70 1v267h303q-115 106 -115 237q0 144 89 223q85 76 231 76q326 0 326 -299q0 -78 -46 -155q-39 -66 -75 -82h229v-267h-132q-70 0 -175 46q-92 40 -124 72q-48 -39 -128 -73q-104 -45 -188 -45h-195zM310 960v237h237v-237h-237zM326 498q0 -48 44 -93q35 -36 71 -50 q35 11 71 48q44 45 44 95q0 42 -38 68q-33 22 -77 22q-115 0 -115 -90z" />
<glyph unicode="&#x642;" horiz-adv-x="1634" arabic-form="final" d="M167 53q0 92 41 230l220 -56q-25 -95 -25 -178q0 -347 383 -347q406 0 461 299h-118q-161 0 -250.5 88t-89.5 249q0 127 77 219q82 97 207 97q189 0 312 -176q62 -89 98 -210h151v-267h-133q-38 -273 -238 -425q-189 -144 -471 -144q-187 0 -329 66q-165 77 -234 230 q-62 139 -62 325zM781 859v212h211v-212h-211zM994 342q0 -98 135 -98h126q-15 84 -72 135q-48 43 -95 43q-38 0 -66 -21.5t-28 -58.5zM1066 859v212h211v-212h-211z" />
<glyph unicode="&#x642;" horiz-adv-x="822" arabic-form="initial" d="M-70 0v267h504q39 0 75 15q76 31 78 111q-52 -24 -149 -24q-127 0 -202.5 75.5t-79.5 202.5q-3 117 61 216q72 110 186 110q205 0 321 -198q96 -166 96 -386q0 -171 -81 -275q-90 -114 -256 -114h-553zM138 1107v212h211v-212h-211zM341 664q0 -97 135 -97q81 0 104 24 q-10 58 -46 101q-41 48 -96 48q-97 0 -97 -76zM423 1107v212h211v-212h-211z" />
<glyph unicode="&#x642;" horiz-adv-x="872" arabic-form="medial" d="M-70 1v267h303q-115 106 -115 237q0 144 89 223q85 76 231 76q326 0 326 -299q0 -78 -46 -155q-39 -66 -75 -82h229v-267h-132q-70 0 -175 46q-92 40 -124 72q-48 -39 -128 -73q-104 -45 -188 -45h-195zM169 967v212h211v-212h-211zM326 498q0 -48 44 -93q35 -36 71 -50 q35 11 71 48q44 45 44 95q0 42 -38 68q-33 22 -77 22q-115 0 -115 -90zM454 967v212h211v-212h-211z" />
<glyph unicode="&#x643;" horiz-adv-x="1824" arabic-form="final" d="M167 383v129h236v-111q0 -133 153 -133h629h16q21 1 38 3q19 4 37 11q6 2 14 3q7 3 12 7q39 28 39 108v833h236v-719q0 -127 54 -185q56 -61 181 -61h12v-267h-54l1 1q-176 8 -241 147q-96 -148 -329 -148h-701q-333 0 -333 382zM592 720l180 45q-59 68 -59 135 q0 75 68 122q60 41 139 41q58 0 102 -24v-97q-44 11 -88 11q-116 0 -116 -67q0 -35 30 -58q27 -22 63 -22q30 0 195 46l31 -118l-514 -125z" />
<glyph unicode="&#x643;" horiz-adv-x="898" arabic-form="initial" d="M-70 0v267h265q124 0 124 66q0 31 -28 88l-176 357q-38 77 -38 139q0 123 138 164l654 194l93 -202l-576 -148q-53 -14 -53 -46q0 -18 14 -45l178 -341q44 -84 44 -174q0 -152 -114 -239q-104 -80 -260 -80h-265z" />
<glyph unicode="&#x643;" horiz-adv-x="903" arabic-form="medial" d="M-70 1v267h257q119 0 119 78q0 34 -21 76l-177 357q-39 79 -39 138q0 121 139 165l612 194l94 -202l-536 -152q-51 -14 -51 -47q0 -17 14 -44l173 -337q46 -90 133 -151q107 -75 242 -75h14v-267h-31q-234 0 -344 174q-87 -174 -341 -174h-257z" />
<glyph unicode="&#x644;" horiz-adv-x="1522" arabic-form="final" d="M167 22q0 55 20 150q22 106 52 166q72 -26 185 -70q-46 -194 -46 -232q0 -313 341 -313q123 0 213 51q128 72 128 223v1237h219v-688q0 -138 37 -199q48 -79 177 -79h29v-267h-29q-65 0 -125 26q-69 30 -93 82v-104q0 -215 -129 -366q-157 -183 -455 -183 q-247 0 -389 162q-135 154 -135 404z" />
<glyph unicode="&#x644;" horiz-adv-x="409" arabic-form="initial" d="M-70 1v267h103q85 0 114 40q23 32 23 116v809h236v-868q0 -364 -337 -364h-139z" />
<glyph unicode="&#x644;" horiz-adv-x="653" arabic-form="medial" d="M-70 1v267h84q84 0 117 24q39 28 39 108v833h236v-719q0 -127 54 -185q56 -61 181 -61h12v-267h-28q-198 0 -267 151q-64 -151 -328 -151h-100z" />
<glyph unicode="&#x645;" horiz-adv-x="1366" arabic-form="final" d="M167 -56q0 345 298 345q23 110 85 201q102 149 266 149q240 0 332 -153q47 -78 47 -177q59 -41 163 -41h8v-267h-29q-54 0 -131 36t-108 78q-49 -101 -268 -101q-61 0 -180 18.5t-178 18.5q-90 0 -90 -72v-790h-215v755zM636 282q121 -28 194 -28q150 0 150 80 q0 57 -54 88q-45 26 -106 26q-48 0 -97 -36q-64 -46 -87 -130z" />
<glyph unicode="&#x645;" horiz-adv-x="897" arabic-form="initial" d="M-70 1v267h80q75 0 148 107q28 41 132 197q87 106 190 106q130 0 268 -118q149 -128 149 -277q0 -131 -90 -222t-220 -91q-104 0 -200 49q-41 21 -137 90q-104 -108 -221 -108h-99zM361 318q141 -109 226 -109q84 0 84 70q0 53 -67 113.5t-121 60.5q-27 0 -69 -55 q-26 -40 -53 -80z" />
<glyph unicode="&#x645;" horiz-adv-x="1081" arabic-form="medial" d="M-70 1v267h89q72 0 118 67q25 48 75 142q111 201 261 201q158 0 295 -134q124 -122 135 -244q57 -32 165 -32h13v-267h-28q-132 0 -219 87q-82 -122 -233 -122q-113 0 -213 55l-138 80q-94 -100 -220 -100h-100zM358 310q140 -107 229 -107q80 0 80 69q0 44 -17 70 q-12 19 -53 52q-67 55 -114 55q-29 0 -71 -56q-27 -42 -54 -83z" />
<glyph unicode="&#x646;" horiz-adv-x="1650" arabic-form="final" d="M167 5q0 39 20 132q23 109 52 173l206 -73q-52 -127 -52 -236q0 -194 141 -285q107 -69 272 -69q424 0 424 389q0 178 -194 514l219 132l93 -198q66 -141 137 -186q47 -30 136 -30h29v-267h-28q-100 0 -152 48q0 -190 -56 -319q-156 -361 -615 -361q-330 0 -498 216 q-134 172 -134 420zM631 691v237h237v-237h-237z" />
<glyph unicode="&#x646;" horiz-adv-x="489" arabic-form="initial" d="M-70 1v267h220q85 0 85 64q0 25 -16 54l-115 206l213 141q169 -281 169 -406q0 -326 -284 -326h-272zM44 830v237h237v-237h-237z" />
<glyph unicode="&#x646;" horiz-adv-x="622" arabic-form="medial" d="M-70 1v267h87q143 0 143 161v263h236v-135q0 -289 208 -289h18v-267h-27q-76 0 -145.5 44t-102.5 112q-40 -86 -97.5 -121t-152.5 -35h-167zM148 843v237h237v-237h-237z" />
<glyph unicode="&#x647;" horiz-adv-x="1027" arabic-form="isolated" d="M167 413q0 140 83 250q90 121 226 121q157 0 346 -150q203 -161 203 -332q0 -167 -143 -249q-112 -64 -281 -64q-205 0 -319.5 110.5t-114.5 313.5zM400 406q0 -77 62 -122q55 -41 135 -41q164 0 164 80q0 74 -108 147q-95 64 -156 64q-41 0 -71 -45q-26 -39 -26 -83z " />
<glyph unicode="&#x647;" horiz-adv-x="1258" arabic-form="final" d="M167 469q0 91 90 179q69 67 177 124q41 21 122 62l-52 128l202 122l219 -576q47 -123 102 -173q74 -67 208 -67h23v-267h-30q-216 0 -370 173q-107 -35 -278 -35q-241 0 -346 132q-67 85 -67 198zM393 438q17 -63 198 -63q56 0 142 7q-56 143 -104 247 q-181 -90 -233 -146q-3 -8 -3 -45z" />
<glyph unicode="&#x647;" horiz-adv-x="1103" arabic-form="initial" d="M-70 0v268h93q150 0 199 17q-51 42 -84.5 113.5t-33.5 136.5q0 155 215 285q-28 25 -83 62l146 174q63 -45 133 -100q161 -128 315 -275q132 -126 183 -200q88 -127 88 -259q0 -138 -78 -224q-80 -89 -217 -89q-103 0 -222 64q-23 12 -128 83q-97 -56 -226 -56h-300z M330 535q0 -53 33 -113q35 -64 82 -81q56 6 97 66q38 56 38 114q0 48 -38 83t-86 35q-46 0 -84 -28q-42 -31 -42 -76zM622 222q29 -15 85 -43.5t96 -28.5q35 0 64.5 26t29.5 60q0 52 -74 125q-40 33 -80 67q-9 -142 -121 -206z" />
<glyph unicode="&#x647;" horiz-adv-x="841" arabic-form="medial" d="M-70 1v267h82q144 0 144 126v315h237v-454q0 -127 32 -203q47 99 142.5 157.5t205.5 58.5h68v-267h-29q-80 0 -149 -23q-96 -33 -96 -98q0 -46 58 -81q51 -30 178 -76l-77 -236q-207 56 -357 195q-131 122 -195 360q-42 -41 -143 -41h-101z" />
<glyph unicode="&#x648;" horiz-adv-x="1084" arabic-form="final" d="M48 -440q63 28 188.5 85.5t213.5 133.5q116 100 175 239q-30 -3 -61 -3q-161 0 -269 84q-125 98 -125 277q0 125 84 219t208 94q125 0 239 -87q148 -113 192 -334h191v-267h-191q-42 -177 -224 -350q-202 -192 -513 -310zM386 370q0 -86 90 -98q87 -12 160 7 q-3 81 -66 132q-51 42 -97 42q-28 0 -57.5 -27.5t-29.5 -55.5z" />
<glyph unicode="&#x649;" horiz-adv-x="1553" arabic-form="final" d="M167 32q0 131 63 306l208 -66q-35 -117 -35 -223q0 -333 340 -333q370 0 508 162q12 14 12 30q0 21 -26 30q-83 30 -427 111l62 219h681v-267h-38q0 -100 -33 -170q-87 -184 -334 -287q-209 -88 -440 -88q-541 0 -541 576z" />
<glyph unicode="&#x64a;" horiz-adv-x="1553" arabic-form="final" d="M167 32q0 131 63 306l208 -66q-35 -117 -35 -223q0 -333 340 -333q370 0 508 162q12 14 12 30q0 21 -26 30q-83 30 -427 111l62 219h681v-267h-38q0 -100 -33 -170q-87 -184 -334 -287q-209 -88 -440 -88q-541 0 -541 576zM489 -687h211v-212h-211v212zM774 -687h211 v-212h-211v212z" />
<glyph unicode="&#x64a;" horiz-adv-x="489" arabic-form="initial" d="M-70 1v267h220q85 0 85 64q0 25 -16 54l-115 206l213 141q169 -281 169 -406q0 -326 -284 -326h-272zM-26 -211h211v-212h-211v212zM259 -211h211v-212h-211v212z" />
<glyph unicode=" "  horiz-adv-x="434" />
<glyph unicode="&#x09;" horiz-adv-x="434" />
<glyph unicode="&#xa0;" horiz-adv-x="434" />
<glyph unicode="!" horiz-adv-x="426" d="M167 1202h255l-67 -901h-128zM183 -29v225h225v-225h-225z" />
<glyph unicode="&#x22;" horiz-adv-x="691" d="M168 847v395h151v-395h-151zM409 847v395h150v-395h-150z" />
<glyph unicode="#" horiz-adv-x="911" d="M14 292v176h144l48 236h-192v177h228l64 312h179l-63 -312h176l62 312h186l-64 -312h110v-177h-146l-48 -236h194v-176h-230l-64 -312h-178l62 312h-178l-63 -312h-181l63 312h-109zM339 468h178l46 236h-177z" />
<glyph unicode="$" horiz-adv-x="911" d="M56 329l209 22q13 -64 48 -110.5t78 -66.5v335q-157 45 -230 135.5t-73 220.5q0 131 83 220t220 103v79h116v-79q127 -15 202.5 -86.5t96.5 -191.5l-203 -27q-18 95 -96 128v-313q192 -52 261.5 -134.5t69.5 -212.5q0 -145 -87.5 -244t-243.5 -121v-150h-116v146 q-138 16 -224.5 102.5t-110.5 244.5zM288 874q0 -42 25.5 -78.5t77.5 -58.5v277q-47 -16 -75 -54.5t-28 -85.5zM507 162q60 12 97.5 56t37.5 104q0 54 -31.5 93t-103.5 59v-312z" />
<glyph unicode="%" horiz-adv-x="1457" d="M71 883q0 158 69.5 234t187.5 76q122 0 191.5 -75.5t69.5 -234.5q0 -157 -69.5 -233t-187.5 -76q-122 0 -191.5 75.5t-69.5 233.5zM246 885q0 -115 27 -154q20 -29 55 -29q36 0 56 29q26 39 26 154q0 114 -26 153q-20 29 -56 29q-35 0 -55 -29q-27 -39 -27 -153zM333 -45 l625 1238h161l-620 -1238h-166zM862 263q0 158 69.5 234t189.5 76q121 0 190 -76t69 -234t-69 -234t-188 -76q-122 0 -191.5 76t-69.5 234zM1038 264q0 -114 26 -153q20 -29 55 -29q36 0 55 28q27 40 27 154t-26 154q-20 28 -56 28t-55 -28q-26 -40 -26 -154z" />
<glyph unicode="&#x26;" horiz-adv-x="1183" d="M72 322q0 112 67 202t201 157q-60 71 -90.5 135.5t-30.5 121.5q0 107 85.5 181t242.5 74q152 0 237.5 -77.5t85.5 -189.5q0 -72 -42 -136t-171 -144l163 -216q29 52 50 134l203 -46q-31 -108 -53 -158t-48 -84q38 -35 97.5 -77t87.5 -56l-136 -173q-100 48 -192 134 q-71 -64 -151 -94.5t-191 -30.5q-219 0 -329 123q-86 96 -86 220zM302 330q0 -73 48 -119t128 -46q52 0 101 20.5t107 68.5l-229 283q-78 -39 -116.5 -94.5t-38.5 -112.5zM438 946q0 -42 52 -101l55 -64l61 46q67 52 67 103q0 44 -32.5 74t-87.5 30q-54 0 -84.5 -26.5 t-30.5 -61.5z" />
<glyph unicode="'" horiz-adv-x="351" d="M117 847v395h150v-395h-150z" />
<glyph unicode="(" horiz-adv-x="888" d="M167 601q0 525 485 871l119 -78q-327 -399 -327 -782q0 -465 327 -796l-119 -61q-485 339 -485 846z" />
<glyph unicode=")" horiz-adv-x="903" d="M167 -184q327 331 327 796q0 383 -327 782l119 78q485 -346 485 -871q0 -507 -485 -846z" />
<glyph unicode="*" horiz-adv-x="774" d="M57 831v50q0 10 12.5 19t26.5 9h135l-98 101q-14 12 -15 26.5t9 28.5l37 31q10 10 22.5 9t24.5 -15l108 -105v156q0 12 10.5 23.5t18.5 11.5h51q15 0 23 -11.5t8 -23.5v-150l107 105q12 14 24 15t31 -7l26 -39q11 -8 11 -20.5t-13 -28.5l-104 -107h156q10 0 22 -9t12 -19 v-50q0 -16 -12 -25t-22 -9h-164l112 -103q19 -26 0 -57l-30 -31q-23 -18 -49 6l-107 101v-144q0 -14 -8 -24t-23 -10h-51q-8 0 -18.5 10t-10.5 24v144l-98 -101q-28 -18 -57 0l-31 33q-18 23 6 49l101 103h-144q-14 0 -26.5 9t-12.5 25z" />
<glyph unicode="+" horiz-adv-x="1082" d="M152 414v167h306v306h167v-306h307v-167h-307v-307h-167v307h-306z" />
<glyph unicode="," horiz-adv-x="455" d="M94 -169q68 23 96.5 62t30.5 107h-109v225h225v-161q0 -98 -17 -154t-63.5 -101t-118.5 -71z" />
<glyph unicode="-" horiz-adv-x="1088" d="M106 414v167h880v-167h-880z" />
<glyph unicode="." horiz-adv-x="432" d="M167 0v261h263v-261h-263z" />
<glyph unicode="/" horiz-adv-x="930" d="M57 -222l630 1431h191l-630 -1431h-191z" />
<glyph unicode="0" horiz-adv-x="911" d="M69 581q0 331 115 477q95 120 266 120q170 0 266 -122q114 -144 114 -478q0 -332 -115 -478q-95 -120 -265 -120q-172 0 -276.5 131.5t-104.5 469.5zM304 578q0 -206 21 -283t52.5 -103t72.5 -26q40 0 72 26t50 94q23 86 23 292q0 207 -20.5 284t-52.5 103t-72 26 q-41 0 -73 -26t-50 -93q-23 -87 -23 -294z" />
<glyph unicode="1" horiz-adv-x="911" d="M130 677v204q88 29 191 109t141 188h183v-1178h-225v847q-123 -115 -290 -170z" />
<glyph unicode="2" horiz-adv-x="911" d="M41 0q13 118 77 224t252 282q152 141 187 192q46 69 46 137q0 75 -40.5 115.5t-111.5 40.5q-70 0 -111.5 -42.5t-48.5 -140.5l-224 22q20 186 125.5 267t264.5 81q173 0 272.5 -94t99.5 -233q0 -79 -28.5 -150.5t-90.5 -150.5q-40 -52 -146.5 -149.5t-135 -129.5 t-46.5 -62h447v-209h-788z" />
<glyph unicode="3" horiz-adv-x="911" d="M62 311l217 27q11 -84 56.5 -128t110.5 -44q69 0 116.5 53t47.5 143q0 84 -45.5 134t-110.5 50q-44 0 -104 -17l25 183q91 -2 139 40t48 111q0 59 -35 94.5t-93 35.5t-99 -40t-49 -117l-208 35q22 107 65.5 170.5t121.5 100t175 36.5q166 0 266 -106q82 -86 82 -195 q0 -155 -169 -247q101 -21 161.5 -96.5t60.5 -181.5q0 -154 -113 -263t-281 -109q-159 0 -264 91.5t-121 239.5z" />
<glyph unicode="4" horiz-adv-x="911" d="M30 236v197l509 745h189v-744h146v-198h-146v-236h-218v236h-480zM241 434h269v400z" />
<glyph unicode="5" horiz-adv-x="911" d="M73 302l224 23q9 -76 56.5 -120.5t108.5 -44.5q71 0 119.5 57t48.5 173q0 108 -48 162t-126 54q-97 0 -174 -86l-182 26l115 611h595v-211h-424l-36 -199q76 38 154 38q150 0 254 -109t104 -282q0 -145 -84 -259q-115 -155 -318 -155q-162 0 -264.5 87t-122.5 235z" />
<glyph unicode="6" horiz-adv-x="911" d="M70 570q0 323 119 465.5t309 142.5q134 0 221.5 -75t111.5 -217l-217 -24q-8 67 -42 99t-87 32q-71 0 -120.5 -64t-62.5 -267q84 100 209 100q141 0 241.5 -107.5t100.5 -276.5q0 -180 -105.5 -289t-271.5 -109q-178 0 -292 138t-114 452zM322 395q0 -109 50 -169 t115 -60q63 0 104.5 49t41.5 160q0 115 -45 168t-112 53q-65 0 -109.5 -51t-44.5 -150z" />
<glyph unicode="7" horiz-adv-x="911" d="M70 948v209h768v-163q-95 -94 -193.5 -269t-150 -372.5t-50.5 -352.5h-217q6 243 100.5 496t253.5 452h-511z" />
<glyph unicode="8" horiz-adv-x="911" d="M66 335q0 95 47.5 175t148.5 123q-87 37 -126.5 101t-39.5 141q0 131 91.5 217t260.5 86q167 0 259.5 -86t92.5 -217q0 -81 -42.5 -145t-119.5 -97q98 -39 149 -114.5t51 -173.5q0 -163 -104 -264.5t-276 -101.5q-160 0 -266 84q-126 99 -126 272zM288 357 q0 -93 47.5 -145t118.5 -52q70 0 115.5 50t45.5 144q0 83 -46.5 133t-117.5 50q-82 0 -122.5 -57t-40.5 -123zM309 859q0 -67 38 -104.5t101 -37.5q64 0 102.5 38t38.5 105q0 63 -38 101t-101 38q-64 0 -102.5 -38.5t-38.5 -101.5z" />
<glyph unicode="9" horiz-adv-x="911" d="M52 781q0 178 106 287.5t270 109.5q178 0 292.5 -138t114.5 -454q0 -322 -119 -464.5t-310 -142.5q-138 0 -223 73.5t-109 218.5l218 24q8 -66 41.5 -98t88.5 -32q70 0 119 64t62 265q-85 -98 -212 -98q-138 0 -238.5 107t-100.5 278zM273 781q0 -114 44.5 -167 t112.5 -53q64 0 108.5 51t44.5 150q0 109 -50 169t-115 60q-63 0 -104 -49t-41 -161z" />
<glyph unicode=":" horiz-adv-x="546" d="M140 113q0 55 39 94t94 39q56 0 94.5 -39t38.5 -94t-39 -94t-94 -39t-94 39t-39 94zM141 637q0 55 38.5 94t94.5 39q55 0 93.5 -39t38.5 -94t-38.5 -94t-93.5 -39q-56 0 -94.5 39t-38.5 94z" />
<glyph unicode=";" horiz-adv-x="437" d="M109 -135q54 18 77.5 50t23.5 85h-87v180h180v-129q0 -78 -13 -123t-50.5 -81t-95.5 -57zM123 500v180h180v-180h-180z" />
<glyph unicode="&#x3c;" horiz-adv-x="1117" d="M150 444v90l805 384v-134l-624 -295l624 -297v-134z" />
<glyph unicode="=" horiz-adv-x="1117" d="M106 224v167h880v-167h-880zM106 574v167h880v-167h-880z" />
<glyph unicode="&#x3e;" horiz-adv-x="1117" d="M160 58v134l626 297l-626 295v134l806 -384v-90z" />
<glyph unicode="?" horiz-adv-x="1001" d="M85 842q9 143 122 243t297 100q194 0 308 -101.5t114 -235.5q0 -74 -42 -140.5t-179 -181.5q-71 -59 -88.5 -95t-15.5 -129h-204q-1 44 -1 54q0 99 33 163t131 144t118 105q29 39 29 86q0 66 -52.5 113t-140.5 47q-86 0 -143.5 -49t-79.5 -149zM397 0v225h225v-225h-225z " />
<glyph unicode="@" horiz-adv-x="1598" d="M49 386q0 225 106.5 419t291 291.5t422.5 97.5q201 0 358 -78.5t240 -223t83 -315.5q0 -204 -126 -369q-158 -208 -404 -208q-66 0 -100 23t-45 68q-94 -91 -217 -91q-133 0 -220.5 91.5t-87.5 243.5q0 188 105 343q128 189 328 189q143 0 211 -109l20 89h211l-121 -573 q-11 -55 -11 -71q0 -20 9 -30t22 -10q38 0 99 47q82 60 132.5 162.5t50.5 212.5q0 197 -142.5 329t-397.5 132q-217 0 -368 -88t-227.5 -248.5t-76.5 -334.5q0 -169 85.5 -307t239.5 -202t352 -64q191 0 329 53.5t222 159.5h170q-80 -162 -246 -254q-189 -106 -462 -106 q-264 0 -456 89.5t-285.5 263.5t-93.5 378zM557 344q0 -102 41 -150t102 -48q46 0 86 23q30 16 60 50q42 49 73 142.5t31 174.5q0 90 -42 138.5t-106 48.5q-69 0 -127.5 -53t-88 -151.5t-29.5 -174.5z" />
<glyph unicode="A" horiz-adv-x="1183" d="M0 0l457 1173h250l470 -1173h-258l-102 266h-469l-97 -266h-251zM421 464h320l-162 435z" />
<glyph unicode="B" horiz-adv-x="1183" d="M120 0v1173h469q139 0 207.5 -11.5t122.5 -48.5t90 -98t36 -137q0 -83 -44.5 -151.5t-120.5 -103.5q107 -31 164.5 -106t57.5 -177q0 -80 -37 -155.5t-101.5 -121t-158.5 -55.5q-59 -6 -286 -8h-399zM357 198h219q128 0 162 7q53 9 86.5 46.5t33.5 99.5q0 53 -26 90 t-74 53.5t-210 16.5h-191v-313zM357 706h155q138 0 172 4q61 8 95.5 42.5t34.5 91.5q0 54 -30 88t-89 42q-35 4 -202 4h-136v-272z" />
<glyph unicode="C" horiz-adv-x="1183" d="M78 576q0 293 151 455t397 162q216 0 350 -127q80 -76 120 -216l-234 -56q-21 91 -87 143.5t-161 52.5q-130 0 -211 -93.5t-81 -302.5q0 -223 80 -317.5t208 -94.5q94 0 162 60t98 189l229 -73q-53 -192 -175.5 -285t-311.5 -93q-234 0 -384 159.5t-150 436.5z" />
<glyph unicode="D" horiz-adv-x="1183" d="M118 0v1173h433q147 0 223 -23q104 -30 177.5 -107.5t112 -190t38.5 -277.5q0 -145 -36 -249q-44 -128 -126 -208q-62 -60 -166 -93q-79 -25 -210 -25h-446zM355 198h177q99 0 143 11q58 14 96 48.5t62 113.5t24 215t-24 208.5t-67.5 113.5t-109.5 55q-50 11 -194 11 h-107v-776z" />
<glyph unicode="E" horiz-adv-x="1093" d="M119 0v1173h870v-199h-633v-260h589v-197h-589v-319h655v-198h-892z" />
<glyph unicode="F" horiz-adv-x="1001" d="M121 0v1173h804v-199h-567v-277h489v-199h-489v-498h-237z" />
<glyph unicode="G" horiz-adv-x="1274" d="M78 590q0 184 77 326t225 218q113 59 281 59q218 0 341 -91.5t158 -253.5l-235 -44q-25 86 -93.5 136t-170.5 50q-155 0 -247 -98t-92 -292q0 -209 93 -313.5t243 -104.5q75 0 149.5 29.5t128.5 70.5v149h-271v198h510v-467q-74 -72 -215.5 -127t-285.5 -55 q-184 0 -321 77t-206 221t-69 312z" />
<glyph unicode="H" horiz-adv-x="1183" d="M120 0v1173h237v-462h464v462h237v-1173h-237v513h-464v-513h-237z" />
<glyph unicode="I" horiz-adv-x="455" d="M112 0v1173h237v-1173h-237z" />
<glyph unicode="J" horiz-adv-x="911" d="M28 362l223 26q4 -101 30 -142q38 -64 117 -64t111.5 45.5t32.5 187.5v758h236v-743q0 -145 -25 -224q-35 -102 -125 -164t-238 -62q-174 0 -267.5 97t-94.5 285z" />
<glyph unicode="K" horiz-adv-x="1183" d="M122 0v1173h237v-521l479 521h318l-442 -457l466 -716h-306l-323 550l-192 -196v-354h-237z" />
<glyph unicode="L" horiz-adv-x="1001" d="M126 0v1163h236v-965h589v-198h-825z" />
<glyph unicode="M" horiz-adv-x="1365" d="M116 0v1173h354l213 -800l211 800h355v-1173h-220v923l-233 -923h-228l-232 923v-923h-220z" />
<glyph unicode="N" horiz-adv-x="1183" d="M122 0v1173h230l480 -783v783h220v-1173h-238l-472 765v-765h-220z" />
<glyph unicode="O" horiz-adv-x="1274" d="M71 579q0 179 54 301q40 90 109 161t152 105q109 47 252 47q260 0 415.5 -161t155.5 -447q0 -284 -154.5 -444.5t-412.5 -160.5q-262 0 -416.5 159.5t-154.5 439.5zM315 587q0 -199 92 -302t234 -103q141 0 232 102t91 306q0 202 -88.5 301t-234.5 99q-147 0 -236.5 -100 t-89.5 -303z" />
<glyph unicode="P" horiz-adv-x="1093" d="M119 0v1173h380q216 0 282 -18q101 -26 169 -114.5t68 -228.5q0 -108 -39.5 -181.5t-100 -115.5t-122.5 -56q-85 -17 -246 -17h-154v-442h-237zM356 642h130q140 0 187 18t74 57.5t27 91.5q0 64 -38 105.5t-95 51.5q-43 8 -171 8h-114v-332z" />
<glyph unicode="Q" horiz-adv-x="1274" d="M71 586q0 288 153.5 447.5t417.5 159.5q260 0 413 -159.5t153 -447.5q0 -152 -42 -267q-32 -88 -103 -170q87 -63 190 -99l-87 -168q-54 16 -105 44q-11 6 -158 104q-115 -50 -255 -50q-270 0 -423.5 159t-153.5 447zM315 586q0 -205 90 -307t228 -102q51 0 97 17 q-72 47 -147 73l67 135q116 -40 223 -120q45 54 68 130t23 174q0 204 -89.5 304t-234.5 100t-235 -100.5t-90 -303.5z" />
<glyph unicode="R" horiz-adv-x="1183" d="M120 0v1173h498q188 0 273.5 -31.5t136.5 -112.5t51 -185q0 -132 -77.5 -218t-231.5 -108q76 -45 126 -98.5t135 -190.5l143 -229h-283l-171 255q-91 137 -124.5 172.5t-71.5 49t-119 13.5h-48v-490h-237zM357 677h175q170 0 212.5 14.5t66.5 49.5t24 88q0 59 -31.5 95.5 t-89.5 45.5q-28 4 -172 4h-185v-297z" />
<glyph unicode="S" horiz-adv-x="1093" d="M59 382l231 22q20 -116 84 -170.5t172 -54.5q114 0 172 48.5t58 113.5q0 41 -24.5 70.5t-85.5 50.5q-41 15 -189 52q-191 47 -267 116q-108 96 -108 236q0 89 50.5 167t146 119t231.5 41q220 0 332 -97t117 -258l-237 -11q-15 91 -65 130.5t-150 39.5q-103 0 -161 -43 q-38 -27 -38 -72q0 -42 35 -72q45 -37 218 -78t255.5 -84.5t129.5 -119t47 -186.5q0 -101 -56 -189t-158.5 -131t-255.5 -43q-222 0 -341.5 103t-142.5 300z" />
<glyph unicode="T" horiz-adv-x="1001" d="M35 974v199h932v-199h-347v-974h-237v974h-348z" />
<glyph unicode="U" horiz-adv-x="1183" d="M118 547v626h236v-635q0 -152 9 -196q15 -72 72.5 -116t156.5 -44q101 0 152 41.5t61.5 101.5t10.5 199v649h237v-616q0 -211 -19.5 -298.5t-71 -147.5t-138 -95.5t-225.5 -35.5q-168 0 -254.5 39t-137 101t-66.5 130q-23 100 -23 297z" />
<glyph unicode="V" horiz-adv-x="1093" d="M-1 1173h257l297 -868l287 868h251l-420 -1173h-253z" />
<glyph unicode="W" horiz-adv-x="1546" d="M6 1173h242l177 -806l214 806h282l205 -819l180 819h239l-285 -1173h-251l-234 877l-233 -877h-256z" />
<glyph unicode="X" horiz-adv-x="1093" d="M0 0l401 612l-363 561h276l236 -377l230 377h274l-364 -570l400 -603h-285l-260 406l-261 -406h-284z" />
<glyph unicode="Y" horiz-adv-x="1093" d="M-2 1173h277l276 -464l271 464h272l-431 -681v-492h-236v494z" />
<glyph unicode="Z" horiz-adv-x="1001" d="M18 0v214l616 760h-547v199h859v-184l-643 -791h667v-198h-952z" />
<glyph unicode="[" horiz-adv-x="546" d="M117 -330v1503h398v-177h-185v-1150h185v-176h-398z" />
<glyph unicode="\" horiz-adv-x="455" d="M-2 1193h165l294 -1213h-169z" />
<glyph unicode="]" horiz-adv-x="546" d="M30 -154h185v1152h-185v175h399v-1503h-399v176z" />
<glyph unicode="^" horiz-adv-x="957" d="M92 554l301 639h178l293 -639h-227l-159 391l-157 -391h-229z" />
<glyph unicode="_" horiz-adv-x="911" d="M-15 -178h934v-146h-934v146z" />
<glyph unicode="`" horiz-adv-x="212" d="M46 1049q-3 37 74 -47q35 -80 56 -151q7 -52 -4 -46q-22 32 -69.5 122t-56.5 122z" />
<glyph unicode="a" horiz-adv-x="911" d="M58 232q0 72 34.5 128.5t96.5 86.5t179 52q158 30 218 55v23q0 65 -32 92.5t-120 27.5q-60 0 -94 -23.5t-54 -83.5l-204 37q34 123 118 182.5t250 59.5q150 0 223.5 -35.5t103.5 -90.5t30 -201l-2 -263q0 -112 10.5 -165t40.5 -114h-222q-9 22 -22 66q-6 20 -8 27 q-58 -56 -123.5 -84t-139.5 -28q-131 0 -207 71t-76 180zM283 255q0 -47 35.5 -81.5t89.5 -34.5q61 0 116 40q41 31 54 75q8 28 8 109v45q-43 -14 -136.5 -34t-122.5 -40q-44 -31 -44 -79z" />
<glyph unicode="b" horiz-adv-x="1001" d="M108 0v1173h225v-423q104 119 246 119q155 0 257 -112.5t102 -322.5q0 -218 -104 -335.5t-252 -117.5q-72 0 -143 36.5t-122 107.5v-125h-209zM331 443q0 -132 42 -195q58 -90 155 -90q74 0 126.5 64t52.5 200q0 146 -52.5 210.5t-135.5 64.5q-81 0 -134.5 -63 t-53.5 -191z" />
<glyph unicode="c" horiz-adv-x="911" d="M68 424q0 210 111 327.5t301 117.5q155 0 246.5 -67t131.5 -204l-221 -40q-11 67 -51 100.5t-103 33.5q-84 0 -134 -58t-50 -194q0 -151 51 -213.5t136 -62.5q64 0 105 36.5t58 125.5l221 -38q-35 -152 -132.5 -229.5t-261.5 -77.5q-186 0 -297 117.5t-111 325.5z" />
<glyph unicode="d" horiz-adv-x="1001" d="M67 428q0 216 101.5 328.5t257.5 112.5q142 0 246 -119v423h225v-1173h-209v125q-52 -73 -123 -108.5t-143 -35.5q-146 0 -250.5 118t-104.5 329zM297 443q0 -136 37 -197q55 -88 152 -88q78 0 132.5 66t54.5 198q0 146 -53 210.5t-135 64.5q-80 0 -134 -63.5t-54 -190.5 z" />
<glyph unicode="e" horiz-adv-x="911" d="M52 418q0 212 110.5 331.5t279.5 119.5q188 1 298 -125q106 -121 106 -366v-18h-564q3 -100 55 -155.5t129 -55.5q53 0 89 28.5t55 92.5l224 -37q-44 -123 -137 -187.5t-233 -64.5q-222 0 -328 145q-84 116 -84 292zM286 498h336q-2 97 -50 148t-117 51q-73 0 -121 -54 q-48 -53 -48 -145z" />
<glyph unicode="f" horiz-adv-x="546" d="M19 673v177h125v64q0 107 23 159.5t84 86t155 33.5q96 0 188 -29l-31 -157q-53 13 -103 13q-49 0 -70 -23t-21 -87v-60h168v-177h-168v-673h-225v673h-125z" />
<glyph unicode="g" horiz-adv-x="1001" d="M67 430q0 213 103 326t256 113q157 0 260 -139v120h210v-763q0 -150 -25 -224.5t-69.5 -117t-119.5 -66.5t-189 -24q-216 0 -306.5 74t-90.5 188q0 11 1 27l257 -31q6 -45 29 -62q32 -24 101 -24q88 0 132 27q30 17 45 56q10 28 10 104v124q-101 -138 -254 -138 q-171 0 -271 145q-79 114 -79 285zM298 442q0 -135 52 -197.5t129 -62.5q83 0 139.5 64t56.5 191q0 132 -54.5 196t-137.5 64q-81 0 -133 -63t-52 -192z" />
<glyph unicode="h" horiz-adv-x="1001" d="M117 0v1173h225v-431q108 127 260 127q77 0 139.5 -29t94 -73.5t43 -99t11.5 -169.5v-498h-224v449q0 133 -13 169t-45.5 57.5t-81.5 21.5q-56 0 -100 -27.5t-64 -82t-20 -161.5v-426h-225z" />
<glyph unicode="i" horiz-adv-x="455" d="M118 0v850h224v-850h-224zM118 965v208h224v-208h-224z" />
<glyph unicode="j" horiz-adv-x="455" d="M-75 -321l39 192q16 -3 30 -5t26 -2q34 0 56 15t29.5 35.5t7.5 124.5v811h225v-824q0 -162 -21.5 -229t-82 -104.5t-153.5 -37.5q-34 0 -72.5 6t-83.5 18zM113 965v208h225v-208h-225z" />
<glyph unicode="k" horiz-adv-x="911" d="M110 0v1173h224v-623l264 300h276l-290 -311l311 -539h-242l-214 382l-105 -110v-272h-224z" />
<glyph unicode="l" horiz-adv-x="455" d="M118 0v1173h224v-1173h-224z" />
<glyph unicode="m" horiz-adv-x="1457" d="M101 0v850h207v-116q111 135 265 135q81 0 141 -33.5t99 -101.5q56 68 120.5 101.5t138.5 33.5q94 0 158.5 -38t96.5 -112q23 -54 23 -176v-543h-224v486q0 126 -24 163q-31 48 -96 48q-47 0 -88.5 -29t-60 -84.5t-18.5 -175.5v-408h-225v466q0 124 -12 160t-37 53.5 t-68 17.5q-52 0 -93.5 -28t-59.5 -81t-18 -175v-413h-225z" />
<glyph unicode="n" horiz-adv-x="1001" d="M116 0v850h209v-125q111 144 280 144q74 0 135.5 -27t93.5 -68.5t44 -94.5t12 -151v-528h-224v434q0 137 -14.5 177.5t-47 63t-78.5 22.5q-58 0 -104.5 -32t-63.5 -85t-17 -195v-385h-225z" />
<glyph unicode="o" horiz-adv-x="1001" d="M66 437q0 112 55 216.5t156 160t226 55.5q193 0 316 -125.5t123 -316.5q0 -193 -124 -319.5t-313 -126.5q-117 0 -223 52.5t-161 154.5t-55 249zM296 425q0 -127 60 -194t148 -67t147.5 67t59.5 195q0 125 -59.5 192.5t-147.5 67.5t-148 -67.5t-60 -193.5z" />
<glyph unicode="p" horiz-adv-x="1001" d="M111 -323v1173h210v-125q41 64 110.5 104t154.5 40q148 0 251 -116t103 -323q0 -213 -104 -331t-252 -118q-70 0 -127.5 28t-120.5 96v-428h-225zM334 439q0 -143 56.5 -211.5t138.5 -68.5q78 0 130 63t52 206q0 134 -53.5 198.5t-132.5 64.5q-83 0 -137 -63.5 t-54 -188.5z" />
<glyph unicode="q" horiz-adv-x="1001" d="M73 434q0 205 103.5 320t257.5 115q84 0 146 -36t110 -109v126h208v-1173h-225v427q-44 -57 -109.5 -90t-141.5 -33q-145 0 -239 109q-110 127 -110 344zM302 422q0 -140 53 -202t131 -62q77 0 135.5 70t58.5 207q0 131 -53 194.5t-133 63.5q-82 0 -137 -65t-55 -206z " />
<glyph unicode="r" horiz-adv-x="638" d="M108 0v850h209v-121q53 85 96 112.5t97 27.5q77 0 148 -43l-69 -196q-57 37 -106 37q-47 0 -80 -26t-51.5 -94t-18.5 -285v-262h-225z" />
<glyph unicode="s" horiz-adv-x="911" d="M38 242l226 35q14 -66 58 -100t124 -34q87 0 131 32q29 23 29 60q0 26 -16 43q-16 16 -75 29q-272 60 -345 110q-100 69 -100 191q0 110 87 185.5t270 75.5q175 0 259.5 -57t116.5 -168l-212 -39q-13 49 -51 75.5t-109 26.5q-89 0 -127 -25q-26 -17 -26 -45q0 -24 23 -41 q30 -22 209.5 -63t251.5 -100q70 -60 70 -167q0 -117 -97.5 -201t-288.5 -84q-174 0 -275 70.5t-133 190.5z" />
<glyph unicode="t" horiz-adv-x="546" d="M25 670v180h103v168l226 132v-300h153v-180h-153v-342q0 -104 4 -121t20 -28.5t38 -11.5q31 0 90 22l20 -175q-79 -33 -178 -33q-61 0 -109.5 20.5t-71.5 52.5t-32 88q-7 39 -7 158v370h-103z" />
<glyph unicode="u" horiz-adv-x="1001" d="M113 312v538h225v-391q0 -179 12 -219.5t45 -64t83 -23.5q58 0 103.5 31.5t62.5 78.5t17 229v359h225v-850h-209v127q-47 -68 -122.5 -107t-159.5 -39q-85 0 -153 37.5t-98.5 105.5t-30.5 188z" />
<glyph unicode="v" horiz-adv-x="911" d="M9 850h236l160 -434l46 -145q19 55 23 73l24 72l162 434h231l-337 -850h-203z" />
<glyph unicode="w" horiz-adv-x="1274" d="M7 850h219l159 -557l146 557h217l142 -557l162 557h222l-273 -850h-216l-147 546l-144 -546h-218z" />
<glyph unicode="x" horiz-adv-x="911" d="M10 0l306 438l-294 412h275l150 -234l159 234h264l-288 -403l314 -447h-276l-173 263l-174 -263h-263z" />
<glyph unicode="y" horiz-adv-x="911" d="M11 850h239l204 -604l198 604h233l-300 -818l-54 -148q-29 -74 -56 -113.5t-62 -64t-85.5 -38t-114.5 -13.5q-65 0 -127 14l-20 176q52 -11 95 -11q78 0 115.5 46t57.5 118z" />
<glyph unicode="z" horiz-adv-x="819" d="M27 0v175l319 366q78 89 116 127q-40 -2 -104 -3l-300 -2v187h703v-160l-325 -374l-114 -124q93 6 116 6h348v-198h-759z" />
<glyph unicode="{" horiz-adv-x="638" d="M48 328v192q58 3 88 17.5t51.5 48.5t29.5 85q6 39 6 134q0 155 14.5 216t52 98.5t109.5 58.5q49 15 154 15h42v-191q-89 0 -114 -10t-37 -30.5t-12 -70.5t-7 -191q-4 -79 -21 -128.5t-43 -81.5t-79 -66q47 -27 77 -63.5t46 -88.5t21 -139q5 -133 5 -170q0 -53 13 -73.5 t39 -31.5t112 -11v-192h-42q-108 0 -165.5 17.5t-97.5 57.5t-53.5 98.5t-13.5 185.5q0 147 -13 191q-17 64 -52.5 91.5t-109.5 31.5z" />
<glyph unicode="|" horiz-adv-x="458" d="M141 -345v1538h178v-1538h-178z" />
<glyph unicode="}" horiz-adv-x="638" d="M36 -153q86 0 112 11t38.5 31.5t13 69t6.5 186.5q4 83 22 133t47 85t75 61q-60 38 -87 75q-37 53 -51 135q-9 56 -13 246q-1 60 -11 80t-36 31t-116 11v191h42q108 0 166 -17t97 -57.5t53 -99t14 -185.5q0 -146 12 -191q18 -64 54 -91.5t109 -31.5v-192 q-58 -3 -87.5 -17.5t-51 -48.5t-30.5 -85q-6 -39 -6 -133q0 -155 -14 -216.5t-51.5 -99t-110.5 -58.5q-49 -15 -154 -15h-42v192z" />
<glyph unicode="~" horiz-adv-x="957" d="M54 415v207q101 111 236 111q51 0 93.5 -10t152.5 -54.5t149 -44.5q45 0 103.5 27.5t114.5 87.5v-216q-37 -38 -103 -71.5t-136 -33.5q-40 0 -78 9.5t-120 45.5q-124 53 -194 53q-112 0 -218 -111z" />
<glyph unicode="&#xa2;" horiz-adv-x="693" d="M142 355q0 104 100 179.5t250 87.5l35 177h45l-35 -177q100 -5 178 -21l-26 -130h-45q0 6 1 17q3 21 3 29q0 55 -120 61l-69 -349q108 0 202 51l-11 -51q-106 -53 -202 -53l-39 -194h-44l39 194q-262 19 -262 179zM272 383q0 -128 143 -151l69 346q-212 -31 -212 -195z " />
<glyph unicode="&#xa3;" horiz-adv-x="874" d="M17 0l92 88h13q107 0 150.5 48.5t74.5 206.5l9 48h-160l9 45h160l13 63q29 143 118.5 222t221.5 79q79 0 174 -35l-34 -179h-50l2 12q2 10 2 22q0 126 -133 126q-65 0 -94.5 -36t-49.5 -141l-27 -133h240l-9 -45h-240l-7 -32q-19 -94 -64.5 -151t-152.5 -120h205 q137 0 199 14.5t140 64.5l-11 -54q-73 -78 -142.5 -105.5t-195.5 -27.5l-28 1z" />
<glyph unicode="&#xa4;" horiz-adv-x="932" d="M120 184l166 138q-43 75 -43 148q0 143 126 273l-110 139l38 31l110 -138q114 77 227 77q110 0 194 -77l166 138l25 -31l-167 -139q43 -75 43 -147q0 -141 -126 -274l110 -138l-38 -31l-109 139q-116 -78 -228 -78q-110 0 -194 78l-165 -139zM320 485q0 -85 56.5 -140.5 t142.5 -55.5q116 0 207.5 88.5t91.5 201.5q0 87 -56 142.5t-142 55.5q-118 0 -209 -89t-91 -203z" />
<glyph unicode="&#xa5;" horiz-adv-x="965" d="M106 534q66 116 162.5 190.5t183.5 74.5q160 0 160 -281l-1 -46q125 327 360 327q74 0 129 -34l-84 -112q-49 31 -101 31q-173 0 -264 -231h184l-9 -44h-183l-9 -40q-7 -34 -25 -68h196l-9 -44h-211q-66 -119 -196 -166l235 -14l-90 -95l-378 18l91 99q22 -2 32 -2 q136 0 198 160h-205l8 44h209q6 45 10 108h-198l9 44h189v17q0 97 -35.5 161t-88.5 64t-125 -57t-111 -129z" />
<glyph unicode="&#xa6;" horiz-adv-x="355" d="M86 -213l117 586h98l-117 -586h-98zM238 551l117 586h98l-116 -586h-99z" />
<glyph unicode="&#xa7;" horiz-adv-x="932" d="M107 -153l125 73q116 -98 249 -98q83 0 140.5 50.5t57.5 122.5q0 53 -33.5 85.5t-132.5 79.5l-73 33q-193 90 -193 216q0 119 162 243q-81 65 -81 163q0 123 112 200.5t287 77.5q87 0 206 -33l-36 -181h-44q4 25 4 37q0 123 -205 123q-92 0 -151.5 -52t-59.5 -134 q0 -55 25 -78.5t147 -88.5l61 -34q180 -99 180 -208q0 -125 -151 -244q98 -64 98 -160q0 -115 -116.5 -193t-287.5 -78q-153 0 -290 78zM355 456q0 -74 119 -130l97 -47q36 -16 96 -50q80 90 80 165q0 76 -119 133l-70 35q-63 31 -113 63q-90 -80 -90 -169z" />
<glyph unicode="&#xa8;" horiz-adv-x="862" d="M408 1033l112 86l87 -116l-112 -80zM752 1035l114 84l85 -115l-110 -81z" />
<glyph unicode="&#xa9;" horiz-adv-x="1244" d="M166 533q0 232 164.5 396t394.5 164q233 0 397 -164t164 -396t-164 -396t-397 -164q-230 0 -394.5 164t-164.5 396zM211 533q0 -213 151 -364t363 -151q214 0 365 151t151 364t-151 364t-365 151q-212 0 -363 -151t-151 -364zM436 462q0 163 105 272.5t264 109.5 q91 0 198 -30l-36 -139l-52 9l8 82q-69 32 -131 32q-104 0 -176 -98t-72 -238q0 -191 178 -191q101 0 180 36l-12 -61q-105 -33 -186 -33q-124 0 -196 66.5t-72 182.5z" />
<glyph unicode="&#xab;" horiz-adv-x="840" d="M206 411q-3 79 15.5 153.5t84.5 155t184 117.5q12 -6 -12 -52q-37 -79 -60 -175q-24 -94 -24 -204v-3q0 -110 24 -205q23 -95 60 -174q24 -46 12 -52q-118 36 -184 116.5t-83 166t-17 156.5zM506 411q-3 79 15.5 153.5t84.5 155t184 117.5q12 -6 -12 -52 q-37 -79 -60 -175q-24 -94 -24 -204v-3q0 -110 24 -205q23 -95 60 -174q24 -46 12 -52q-118 36 -184 116.5t-83 166t-17 156.5z" />
<glyph unicode="&#xac;" horiz-adv-x="932" d="M177 510l16 80h782l-69 -342h-92l52 262h-689z" />
<glyph unicode="&#xad;" horiz-adv-x="1088" d="M106 414v167h880v-167h-880z" />
<glyph unicode="&#xae;" horiz-adv-x="897" d="M261 764q0 132 93.5 226t225.5 94q134 0 227 -94t93 -226t-93.5 -225.5t-226.5 -93.5q-132 0 -225.5 93.5t-93.5 225.5zM301 764q0 -114 82.5 -197t196.5 -83q115 0 197.5 83t82.5 197t-82.5 197t-197.5 83q-114 0 -196.5 -83t-82.5 -197zM394 596l9 43h53l55 276h-53 l8 44h132q153 0 153 -84q0 -75 -101 -125l35 -111h62l-9 -43h-97l-50 141h-62l-28 -141h-107zM538 782h36q123 0 123 84q0 49 -90 49h-43z" />
<glyph unicode="&#xaf;" horiz-adv-x="1118" d="M-16 1659v130h1150v-130h-1150z" />
<glyph unicode="&#xb0;" horiz-adv-x="409" d="M271 968q0 53 36.5 89t87.5 36q52 0 88 -36t36 -89q0 -52 -36 -88t-88 -36q-51 0 -87.5 36t-36.5 88zM315 968q0 -32 24 -56t56 -24t55.5 24t23.5 56t-23.5 56t-55.5 24t-56 -24t-24 -56z" />
<glyph unicode="&#xb1;" horiz-adv-x="932" d="M76 0l16 80h781l-15 -80h-782zM174 493l15 80h352l55 279h80l-55 -279h350l-15 -80h-351l-56 -280h-80l56 280h-351z" />
<glyph unicode="&#xb2;" horiz-adv-x="596" d="M187 516l20 101q155 95 247.5 186.5t92.5 148.5q0 94 -84 94q-111 0 -132 -118h-53l26 131q96 34 180 34q190 0 190 -134q0 -72 -49.5 -117t-327.5 -225h310l-20 -101h-400z" />
<glyph unicode="&#xb3;" horiz-adv-x="596" d="M185 545l72 75q80 -64 161 -64q42 0 72.5 31t30.5 74q0 115 -176 115q-22 0 -44 -3l30 86q19 1 34 1q47 0 101 -11q81 37 81 112q0 85 -93 85q-89 0 -112 -105h-53l22 116q87 36 173 36q178 0 178 -109q0 -91 -142 -155q105 -39 105 -136q0 -77 -70.5 -130t-176.5 -53 q-89 0 -193 35z" />
<glyph unicode="&#xb4;" horiz-adv-x="256" d="M62 848q21 71 56 151q77 84 74 47q-9 -32 -56.5 -122t-69.5 -122q-11 -6 -4 46z" />
<glyph unicode="&#xb5;" horiz-adv-x="992" d="M100 -302l55 226l115 576q12 60 12 111q0 82 -76 171l162 8q59 -50 59 -167q0 -47 -18 -142l-54 -268q-8 -37 -8 -52q0 -55 44 -55q55 0 162.5 123t199.5 290l52 263l153 8l-53 -221l-71 -356q-16 -81 -16 -107q0 -53 43 -53q70 0 214 165l-13 -67q-157 -169 -283 -169 q-104 0 -104 109q0 37 17 122l35 178h-10q-200 -391 -405 -391l-57 -284z" />
<glyph unicode="&#xb6;" horiz-adv-x="932" d="M241 747q0 129 105.5 221t281.5 117l32 159h44l-31 -159l30 1q41 0 93 -6l32 164h45l-34 -173q52 -14 109 -35l-10 -48q-40 17 -108 36l-88 -438q52 17 127 57l-10 -57q-65 -37 -127 -56l-154 -769h-44l150 753q-87 -18 -128 -18l-147 -735h-44l146 735q-270 46 -270 251 zM567 553q58 0 128 15l92 463q-49 9 -83 9q-13 0 -40 -1z" />
<glyph unicode="&#xb7;" horiz-adv-x="724" d="M243 832v285h239v-285h-239z" />
<glyph unicode="&#xb8;" horiz-adv-x="862" d="M237 -277l55 76q34 -22 60 -22q64 0 64 52q0 59 -98 59l76 112h62l-42 -64q71 -22 71 -83q0 -51 -56.5 -94t-125.5 -43q-31 0 -66 7z" />
<glyph unicode="&#xb9;" horiz-adv-x="596" d="M210 516l8 44l61 3q49 4 58.5 15t24.5 79l56 281q5 22 5 40q0 26 -68 35l-45 8l9 45l254 27l-86 -436q-11 -50 -11 -68q0 -19 56 -26l59 -3l-9 -44h-372z" />
<glyph unicode="&#xbb;" horiz-adv-x="952" d="M215 -28q-12 6 12 52q37 79 60 174q24 95 24 205v3q0 110 -24 204q-23 96 -60 175q-24 46 -12 52q118 -37 184 -117.5t84.5 -155t15.5 -153.5q0 -71 -17 -156.5t-83 -166t-184 -116.5zM515 -28q-12 6 12 52q37 79 60 174q24 95 24 205v3q0 110 -24 204q-23 96 -60 175 q-24 46 -12 52q118 -37 184 -117.5t84.5 -155t15.5 -153.5q0 -71 -17 -156.5t-83 -166t-184 -116.5z" />
<glyph unicode="&#xbc;" horiz-adv-x="1262" d="M178 -27l1020 1120h100l-1023 -1120h-97zM183 516l9 44l61 3q48 4 58 15t25 79l55 281q5 22 5 40q0 26 -68 35l-45 8l9 45l254 27l-86 -436q-10 -51 -10 -68q0 -19 56 -26l59 -3l-9 -44h-373zM732 182l15 79l355 317h68l-68 -342l110 -7l-44 -80l-82 8q-10 -55 -10 -83 q0 -22 53 -25l60 -4l-9 -45h-360l9 45l57 4q51 3 66 15t21 53q3 17 8 47zM823 255l174 -11l41 202z" />
<glyph unicode="&#xbd;" horiz-adv-x="1262" d="M160 -27l1020 1120h100l-1023 -1120h-97zM165 516l9 44l61 3q48 4 58 15t25 79l55 281q5 22 5 40q0 26 -68 35l-45 8l9 45l254 27l-86 -436q-10 -51 -10 -68q0 -19 56 -26l59 -3l-9 -44h-373zM778 0l19 103q155 94 248 185t93 148q0 94 -85 94q-111 0 -131 -117h-54 l27 131q94 34 180 34q189 0 189 -133q0 -72 -49.5 -117t-327.5 -225h310l-20 -103h-399z" />
<glyph unicode="&#xbe;" horiz-adv-x="1262" d="M174 545l73 75q79 -64 160 -64q41 0 71.5 31t30.5 74q0 115 -176 115q-22 0 -44 -3l30 86q19 1 36 1q46 0 100 -11q80 37 80 112q0 85 -93 85q-88 0 -112 -105h-53l24 116q86 36 171 36q179 0 179 -109q0 -91 -143 -155q106 -39 106 -136q0 -77 -71 -130t-177 -53 q-89 0 -192 35zM178 -27l1020 1120h100l-1023 -1120h-97zM732 182l15 79l355 317h68l-68 -342l110 -7l-44 -80l-82 8q-10 -55 -10 -83q0 -22 53 -25l60 -4l-9 -45h-360l9 45l57 4q52 3 66.5 15t20.5 53q3 17 8 47zM823 255l174 -11l41 202z" />
<glyph unicode="&#xd7;" horiz-adv-x="1016" d="M177 327l226 226l-225 223l122 123l225 -225l224 225l122 -123l-225 -223l226 -226l-123 -122l-224 226l-225 -226z" />
<glyph unicode="&#xe0;" horiz-adv-x="1075" d="M145 232q0 72 34.5 128.5t96.5 86.5t179 52q158 30 218 55v23q0 65 -32 92.5t-120 27.5q-60 0 -94 -23.5t-54 -83.5l-204 37q34 123 118 182.5t250 59.5q150 0 223.5 -35.5t103.5 -90.5t30 -201l-2 -263q0 -112 10.5 -165t40.5 -114h-222q-9 22 -22 66q-6 20 -8 27 q-58 -56 -123.5 -84t-139.5 -28q-131 0 -207 71t-76 180zM335 705q-3 37 74 -47q35 -80 56 -151q7 -52 -4 -46q-22 32 -69.5 122t-56.5 122zM370 255q0 -47 35.5 -81.5t89.5 -34.5q61 0 116 40q41 31 54 75q8 28 8 109v45q-43 -14 -136.5 -34t-122.5 -40q-44 -31 -44 -79z " />
<glyph unicode="&#xe2;" horiz-adv-x="698" d="M145 232q0 72 34.5 128.5t96.5 86.5t179 52q158 30 218 55v23q0 65 -32 92.5t-120 27.5q-60 0 -94 -23.5t-54 -83.5l-204 37q34 123 118 182.5t250 59.5q150 0 223.5 -35.5t103.5 -90.5t30 -201l-2 -263q0 -112 10.5 -165t40.5 -114h-222q-9 22 -22 66q-6 20 -8 27 q-58 -56 -123.5 -84t-139.5 -28q-131 0 -207 71t-76 180zM370 255q0 -47 35.5 -81.5t89.5 -34.5q61 0 116 40q41 31 54 75q8 28 8 109v45q-43 -14 -136.5 -34t-122.5 -40q-44 -31 -44 -79zM459 612q155 114 222 197l98 62q33 -113 98 -206l-87 -53q-54 61 -90 159 q-41 -50 -119 -129q-3 -4 -21 -22z" />
<glyph unicode="&#xe7;" horiz-adv-x="805" d="M145 228q0 217 157 394t350 177q84 0 167 -37l-49 -184h-45l3 11q7 33 7 49q0 99 -136 99q-124 0 -216.5 -142t-92.5 -332q0 -201 156 -201q117 0 329 136l-11 -56q-148 -105 -319 -151l-37 -56q73 -21 73 -81q0 -51 -56.5 -94.5t-123.5 -43.5q-29 0 -69 7l55 76 q35 -22 61 -22q64 0 64 51q0 55 -101 61l65 92q-231 24 -231 247z" />
<glyph unicode="&#xe8;" horiz-adv-x="1078" d="M52 418q0 212 110.5 331.5t279.5 119.5q189 0 298.5 -125.5t105.5 -383.5h-564q3 -100 55 -155.5t129 -55.5q53 0 89 28.5t55 92.5l224 -37q-44 -123 -137 -187.5t-233 -64.5q-222 0 -328 145q-84 116 -84 292zM286 498h336q-2 97 -50 148t-117 51q-73 0 -121 -54 q-48 -53 -48 -145zM470 1049q-3 37 74 -47q35 -80 56 -151q7 -52 -4 -46q-22 32 -69.5 122t-56.5 122z" />
<glyph unicode="&#xe9;" horiz-adv-x="1078" d="M52 418q0 212 110.5 331.5t279.5 119.5q189 0 298.5 -125.5t105.5 -383.5h-564q3 -100 55 -155.5t129 -55.5q53 0 89 28.5t55 92.5l224 -37q-44 -123 -137 -187.5t-233 -64.5q-222 0 -328 145q-84 116 -84 292zM286 498h336q-2 97 -50 148t-117 51q-73 0 -121 -54 q-48 -53 -48 -145zM423 848q21 71 56 151q77 84 74 47q-9 -32 -56.5 -122t-69.5 -122q-11 -6 -4 46z" />
<glyph unicode="&#xea;" horiz-adv-x="1078" d="M52 418q0 212 110.5 331.5t279.5 119.5q189 0 298.5 -125.5t105.5 -383.5h-564q3 -100 55 -155.5t129 -55.5q53 0 89 28.5t55 92.5l224 -37q-44 -123 -137 -187.5t-233 -64.5q-222 0 -328 145q-84 116 -84 292zM286 498h336q-2 97 -50 148t-117 51q-73 0 -121 -54 q-48 -53 -48 -145zM545 923q155 114 222 197l98 62q33 -113 98 -206l-87 -53q-54 61 -90 159q-41 -50 -119 -129q-3 -4 -21 -22z" />
<glyph unicode="&#xeb;" horiz-adv-x="1078" d="M52 418q0 212 110.5 331.5t279.5 119.5q189 0 298.5 -125.5t105.5 -383.5h-564q3 -100 55 -155.5t129 -55.5q53 0 89 28.5t55 92.5l224 -37q-44 -123 -137 -187.5t-233 -64.5q-222 0 -328 145q-84 116 -84 292zM277 1082l112 86l87 -116l-112 -80zM286 498h336 q-2 97 -50 148t-117 51q-73 0 -121 -54q-48 -53 -48 -145zM621 1084l114 84l85 -115l-110 -81z" />
<glyph unicode="&#xee;" horiz-adv-x="468" d="M-54 1297l174 379h227l174 -379h-151l-139 263l-138 -263h-147zM140 0v1117h188v-1117h-188z" />
<glyph unicode="&#xef;" horiz-adv-x="468" d="M-38 1304v195h189v-195h-189zM140 0v1117h188v-1117h-188zM317 1304v195h189v-195h-189z" />
<glyph unicode="&#xf4;" horiz-adv-x="1024" d="M66 437q0 112 55 216.5t156 160t226 55.5q193 0 316 -125.5t123 -316.5q0 -193 -124 -319.5t-313 -126.5q-117 0 -223 52.5t-161 154.5t-55 249zM255 1024q155 114 222 197l98 62q33 -113 98 -206l-87 -53q-54 61 -90 159q-41 -50 -119 -129q-3 -4 -21 -22zM296 425 q0 -127 60 -194t148 -67t147.5 67t59.5 195q0 125 -59.5 192.5t-147.5 67.5t-148 -67.5t-60 -193.5z" />
<glyph unicode="&#xf7;" horiz-adv-x="1093" d="M157 383v136h776v-136h-776zM466 22v181h188v-181h-188zM466 674v181h188v-181h-188z" />
<glyph unicode="&#xf9;" horiz-adv-x="1142" d="M113 312v538h225v-391q0 -179 12 -219.5t45 -64t83 -23.5q58 0 103.5 31.5t62.5 78.5t17 229v359h225v-850h-209v127q-47 -68 -122.5 -107t-159.5 -39q-85 0 -153 37.5t-98.5 105.5t-30.5 188zM472 1049q-3 37 74 -47q35 -80 56 -151q7 -52 -4 -46q-22 32 -69.5 122 t-56.5 122z" />
<glyph unicode="&#xfb;" horiz-adv-x="1142" d="M113 312v538h225v-391q0 -179 12 -219.5t45 -64t83 -23.5q58 0 103.5 31.5t62.5 78.5t17 229v359h225v-850h-209v127q-47 -68 -122.5 -107t-159.5 -39q-85 0 -153 37.5t-98.5 105.5t-30.5 188zM274 1033q155 114 222 197l98 62q33 -113 98 -206l-87 -53q-54 61 -90 159 q-41 -50 -119 -129q-3 -4 -21 -22z" />
<glyph unicode="&#xfc;" horiz-adv-x="1142" d="M113 312v538h225v-391q0 -179 12 -219.5t45 -64t83 -23.5q58 0 103.5 31.5t62.5 78.5t17 229v359h225v-850h-209v127q-47 -68 -122.5 -107t-159.5 -39q-85 0 -153 37.5t-98.5 105.5t-30.5 188zM212 1119l112 86l87 -116l-112 -80zM556 1121l114 84l85 -115l-110 -81z" />
<glyph unicode="&#x131;" horiz-adv-x="468" />
<glyph unicode="&#x152;" horiz-adv-x="1477" d="M167 378q0 283 191 499t441 216q132 0 218 -86l12 59h564l-64 -204h-45q6 29 6 51q0 56 -65.5 77.5t-237.5 21.5h-22l-83 -426h320l-73 -74q-164 21 -222 21h-36l-59 -315q-10 -51 -10 -62q0 -76 226 -76q120 0 225 80l-11 -57q-124 -126 -239 -126q-20 0 -42 2l-345 21 l15 70q-120 -97 -282 -97q-178 0 -280 108t-102 297zM329 395q0 -177 67.5 -277.5t188.5 -100.5q233 0 303 344l73 362q13 63 13 118q0 92 -57.5 149.5t-147.5 57.5q-165 0 -302.5 -204t-137.5 -449z" />
<glyph unicode="&#x153;" horiz-adv-x="1350" d="M145 237q0 211 157.5 386.5t347.5 175.5q144 0 209 -169q166 169 324 169q63 0 103.5 -41t40.5 -107q0 -143 -134.5 -237t-351.5 -103l-1 -33q0 -212 158 -212q115 0 329 134l-11 -54q-233 -164 -399 -164q-159 0 -211 163q-171 -163 -336 -163q-97 0 -161 73t-64 182z M292 272q0 -237 139 -237q113 0 205 143.5t92 320.5q0 108 -39 173t-105 65q-112 0 -202 -143t-90 -322zM844 355q160 13 253.5 83.5t93.5 181.5q0 113 -81 113q-86 0 -168.5 -117t-97.5 -261z" />
<glyph unicode="&#x18f;" horiz-adv-x="1449" />
<glyph unicode="&#x192;" horiz-adv-x="679" d="M108 364l9 45h177l4 18q32 159 165 265.5t298 106.5q57 0 99 -15l-96 -106q-52 51 -121 51q-143 0 -186 -217l-21 -103h187l-9 -45h-187l-114 -577l-155 -18l52 213l76 382h-178z" />
<glyph unicode="&#x259;" horiz-adv-x="1078" />
<glyph unicode="&#x2c6;" horiz-adv-x="862" d="M452 923q155 114 222 197l98 62q33 -113 98 -206l-87 -53q-54 61 -90 159q-41 -50 -119 -129q-3 -4 -21 -22z" />
<glyph unicode="&#x300;" />
<glyph unicode="&#x301;" />
<glyph unicode="&#x309;" horiz-adv-x="942" />
<glyph unicode="&#x323;" d="M452 -187h214v-195h-214v195z" />
<glyph unicode="&#x400;" horiz-adv-x="1149" />
<glyph unicode="&#x40d;" horiz-adv-x="1372" />
<glyph unicode="&#x450;" horiz-adv-x="1078" />
<glyph unicode="&#x45d;" horiz-adv-x="1154" />
<glyph unicode="&#x5f0;" horiz-adv-x="1122" />
<glyph unicode="&#x5f2;" horiz-adv-x="1122" />
<glyph unicode="&#x60c;" horiz-adv-x="444" d="M167 0v219q0 311 274 333v-44q-107 -21 -141 -107q-18 -46 -18 -147h148v-254h-263z" />
<glyph unicode="&#x61b;" horiz-adv-x="441" d="M167 0v261h263v-261h-263zM167 408v219q0 311 274 333v-44q-108 -21 -141 -106q-18 -46 -18 -148h148v-254h-263z" />
<glyph unicode="&#x61f;" horiz-adv-x="955" d="M167 882q0 131 86 228q104 117 289 117q204 0 320 -142q93 -114 93 -251h-236q0 74 -54 117q-50 39 -126 39q-129 0 -129 -108q0 -38 39 -74q29 -25 86 -75q76 -67 103 -106q53 -75 53 -169v-111h-235q0 92 -39 155q-25 40 -87 93q-93 80 -110 102q-53 71 -53 185z M452 -24v229h236v-229h-236z" />
<glyph unicode="&#x621;" horiz-adv-x="1042" d="M163 -15l289 69q-83 83 -83 212q0 116 78 184q75 66 192 66q38 0 205 -34q-7 -44 -17 -150l-146 21q-47 0 -90 -28q-49 -31 -49 -76q0 -54 47 -91q43 -34 99 -34q42 0 320 73l30 -163l-830 -212z" />
<glyph unicode="&#x622;" horiz-adv-x="455" d="M-106 1462l53 124q39 71 83 71q21 0 61 -19q139 -64 283 -64q203 -1 399 81v-165q-193 -112 -406 -99q-74 3 -169 31t-108 25q-17 0 -57 -61q-36 19 -139 76zM218 1v1233h236v-1233h-236z" />
<glyph unicode="&#x623;" horiz-adv-x="404" d="M20 1469l180 46q-58 68 -58 135q0 76 68 122q59 41 139 41q57 0 101 -24v-97q-44 11 -88 11q-116 0 -116 -67q0 -35 30 -58q27 -22 63 -22q30 0 195 46l31 -118l-514 -126zM167 1v1233h236v-1233h-236z" />
<glyph unicode="&#x624;" horiz-adv-x="933" d="M82 -351q242 117 302 155q258 163 289 331q-70 -23 -138 -23q-154 0 -246 102q-89 99 -89 255q0 124 83 217q87 96 209 96q136 0 267 -124q170 -160 170 -436q0 -270 -262 -502q-196 -173 -477 -283zM199 1007l180 46q-58 68 -58 135q0 76 68 122q59 41 139 41 q57 0 101 -24v-97q-44 11 -88 11q-116 0 -116 -67q0 -35 30 -58q27 -22 63 -22q30 0 195 46l31 -118l-514 -126zM416 462q0 -85 90 -97q87 -12 160 7q-3 81 -66 132q-50 41 -97 41q-29 0 -58 -27.5t-29 -55.5z" />
<glyph unicode="&#x625;" horiz-adv-x="459" d="M-14 -501l180 46q-58 68 -58 135q0 76 68 122q59 41 139 41q57 0 101 -24v-97q-44 11 -88 11q-116 0 -116 -67q0 -35 30 -58q27 -22 63 -22q30 0 195 46l31 -118l-514 -126zM167 1v1233h236v-1233h-236z" />
<glyph unicode="&#x626;" horiz-adv-x="1515" d="M167 174q0 129 59 306l212 -63q-8 -34 -23 -103q-12 -55 -12 -119q0 -201 112 -275q73 -48 221 -48q144 0 294 47q212 66 249 189q-338 11 -426 46q-113 45 -113 207q0 178 178 330q162 139 309 139q143 0 281 -100l-105 -188q-133 59 -159 59q-155 0 -267 -160 q-6 -9 -7 -23q-1 -15 7 -18q47 -20 135 -26l177 -13q101 -7 162 -63q64 -60 64 -159q0 -186 -206 -347q-236 -185 -597 -185q-293 0 -433 183q-112 147 -112 384zM260 847l180 46q-58 68 -58 135q0 76 68 122q59 41 139 41q57 0 101 -24v-97q-44 11 -88 11q-116 0 -116 -67 q0 -35 30 -58q27 -22 63 -22q30 0 195 46l31 -118l-514 -126z" />
<glyph unicode="&#x627;" horiz-adv-x="404" d="M167 1v1233h236v-1233h-236z" />
<glyph unicode="&#x628;" horiz-adv-x="2000" d="M167 362v150h236v-111q0 -77 41 -107q35 -26 116 -26h1104q82 0 82 55q0 27 -19 63l-108 206l205 141q174 -285 174 -406q0 -146 -70 -232q-76 -94 -219 -94h-1195q-347 0 -347 361zM905 -201h237v-237h-237v237z" />
<glyph unicode="&#x629;" horiz-adv-x="1027" d="M167 424q0 140 83 250q90 121 226 121q157 0 346 -150q203 -161 203 -332q0 -167 -143 -249q-112 -64 -281 -64q-205 0 -319.5 110.5t-114.5 313.5zM184 959v212h211v-212h-211zM400 417q0 -77 62 -122q55 -41 135 -41q164 0 164 80q0 74 -108 147q-95 64 -156 64 q-41 0 -71 -45q-26 -39 -26 -83zM469 959v212h211v-212h-211z" />
<glyph unicode="&#x62a;" horiz-adv-x="2000" d="M167 362v150h236v-111q0 -77 41 -107q35 -26 116 -26h1104q82 0 82 55q0 27 -19 63l-108 206l205 141q174 -285 174 -406q0 -146 -70 -232q-76 -94 -219 -94h-1195q-347 0 -347 361zM746 719v212h211v-212h-211zM1031 719v212h211v-212h-211z" />
<glyph unicode="&#x62b;" horiz-adv-x="2000" d="M167 362v150h236v-111q0 -77 41 -107q35 -26 116 -26h1104q82 0 82 55q0 27 -19 63l-108 206l205 141q174 -285 174 -406q0 -146 -70 -232q-76 -94 -219 -94h-1195q-347 0 -347 361zM779 671v215h209v-215h-209zM901 924v213h215v-213h-215zM1040 671v215h211v-215h-211z " />
<glyph unicode="&#x62c;" horiz-adv-x="1428" d="M167 -146q0 267 262 499q172 152 369 236q-1 0 -61 3.5t-167 3.5q-86 0 -148.5 -19t-107.5 -47l-120 196q124 132 266 132h9l959 -35l-25 -254h-89q-220 0 -521 -221q-373 -274 -373 -476q0 -73 30.5 -136.5t84.5 -110.5t129.5 -74t165.5 -27q154 0 267 39l72.5 27.5 t102.5 37.5l114 -219q-280 -152 -548 -152q-160 0 -284.5 39.5t-210.5 115.5t-131 187.5t-45 254.5zM791 108h237v-237h-237v237z" />
<glyph unicode="&#x62d;" horiz-adv-x="1428" d="M167 -145q0 267 262 499q172 152 369 236q-1 0 -61 3.5t-167 3.5q-86 0 -148.5 -19t-107.5 -47l-120 196q124 132 266 132h9l959 -35l-25 -254h-89q-220 0 -521 -221q-373 -274 -373 -476q0 -73 30.5 -136.5t84.5 -110.5t129.5 -74t165.5 -27q154 0 267 39l72.5 27.5 t102.5 37.5l114 -219q-280 -152 -548 -152q-160 0 -284.5 39.5t-210.5 115.5t-131 187.5t-45 254.5z" />
<glyph unicode="&#x62e;" horiz-adv-x="1247" d="M167 -148q0 267 262 499q172 152 369 236q-1 0 -61 3.5t-167 3.5q-86 0 -148.5 -19t-107.5 -47l-120 196q124 132 266 132h9l959 -35l-25 -254h-89q-220 0 -521 -221q-373 -274 -373 -476q0 -73 30.5 -136.5t84.5 -110.5t129.5 -74t165.5 -27q154 0 267 39l72.5 27.5 t102.5 37.5l114 -219q-280 -152 -548 -152q-160 0 -284.5 39.5t-210.5 115.5t-131 187.5t-45 254.5zM646 1111v237h237v-237h-237z" />
<glyph unicode="&#x62f;" horiz-adv-x="1181" d="M162 220l163 163q0 -11 60 -59q70 -56 125 -56h295q125 0 125 70q0 39 -28 73l-382 459l181 173l386 -465q93 -112 93 -236q0 -341 -386 -341h-256q-204 0 -376 219z" />
<glyph unicode="&#x630;" horiz-adv-x="1181" d="M162 220l163 163q0 -11 60 -59q70 -56 125 -56h295q125 0 125 70q0 39 -28 73l-382 459l181 173l386 -465q93 -112 93 -236q0 -341 -386 -341h-256q-204 0 -376 219zM453 1188v237h237v-237h-237z" />
<glyph unicode="&#x631;" horiz-adv-x="952" d="M56 -388q149 79 264 153q278 179 354 305q26 43 26 105q0 48 -19 86q-28 77 -125 258l219 128l132 -264q46 -92 46 -187q0 -130 -88 -279q-111 -189 -691 -525z" />
<glyph unicode="&#x632;" horiz-adv-x="952" d="M56 -388q149 79 264 153q278 179 354 305q26 43 26 105q0 48 -19 86q-28 77 -125 258l219 128l132 -264q46 -92 46 -187q0 -130 -88 -279q-111 -189 -691 -525zM464 841v237h237v-237h-237z" />
<glyph unicode="&#x633;" horiz-adv-x="2463" d="M167 5q0 39 20 132q23 109 52 173l206 -73q-52 -127 -52 -236q0 -194 141 -285q107 -69 272 -69q424 0 424 389q0 199 -194 517l201 129q39 -74 122 -220q108 -179 208 -179q118 0 118 156v250h219q0 -190 20 -261q41 -145 174 -145q115 0 115 111q0 45 -111 243l202 124 q29 -51 97 -187q59 -128 59 -208q0 -152 -82 -254q-88 -111 -237 -111q-168 0 -289 167q-56 -82 -84 -107q-63 -56 -156 -56q-85 0 -142 44q0 -190 -56 -319q-156 -361 -615 -361q-330 0 -498 216q-134 172 -134 420z" />
<glyph unicode="&#x634;" horiz-adv-x="2463" d="M167 24q0 39 20 132q23 109 52 173l206 -73q-52 -127 -52 -236q0 -194 141 -285q107 -69 272 -69q424 0 424 389q0 199 -194 517l201 129q39 -74 122 -220q108 -179 208 -179q118 0 118 156v250h219q0 -190 20 -261q41 -145 174 -145q115 0 115 111q0 45 -111 243 l202 124q29 -51 97 -187q59 -128 59 -208q0 -152 -82 -254q-88 -111 -237 -111q-168 0 -289 167q-56 -82 -84 -107q-63 -56 -156 -56q-85 0 -142 44q0 -190 -56 -319q-156 -361 -615 -361q-330 0 -498 216q-134 172 -134 420zM1518 958v215h209v-215h-209zM1640 1211v213 h215v-213h-215zM1779 958v215h211v-215h-211z" />
<glyph unicode="&#x635;" horiz-adv-x="2464" d="M167 29q0 39 20 133q23 110 52 173l206 -73q-52 -127 -52 -237q0 -194 141 -285q107 -69 272 -69q199 0 310 96q117 102 117 297q0 107 -62 266q-52 133 -125 248l215 131q156 -347 229 -374q317 493 626 493q139 0 243 -119q101 -115 101 -256q0 -228 -133 -350 q-112 -102 -277 -102h-434q-107 0 -135 45q0 -366 -284 -551q-179 -116 -405 -116q-333 0 -497 223q-128 174 -128 427zM1685 268h341q208 0 208 174q0 62 -45 100.5t-108 38.5q-91 0 -195 -90q-73 -64 -201 -223z" />
<glyph unicode="&#x636;" horiz-adv-x="2464" d="M167 29q0 39 20 133q23 110 52 173l206 -73q-52 -127 -52 -237q0 -194 141 -285q107 -69 272 -69q199 0 310 96q117 102 117 297q0 107 -62 266q-52 133 -125 248l215 131q156 -347 229 -374q317 493 626 493q139 0 243 -119q101 -115 101 -256q0 -228 -133 -350 q-112 -102 -277 -102h-434q-107 0 -135 45q0 -366 -284 -551q-179 -116 -405 -116q-333 0 -497 223q-128 174 -128 427zM1451 952v237h237v-237h-237zM1685 268h341q208 0 208 174q0 62 -45 100.5t-108 38.5q-91 0 -195 -90q-73 -64 -201 -223z" />
<glyph unicode="&#x637;" horiz-adv-x="1609" d="M167 129v139h271q76 0 76 126v840h237v-736q103 135 221 222q152 112 289 111q146 -1 249 -126q99 -118 99 -266q0 -227 -160 -349q-117 -89 -237 -89h-698q-164 0 -347 128zM830 268h373q83 0 135 46.5t52 127.5q0 62 -49 100q-45 36 -108 36q-154 0 -403 -310z" />
<glyph unicode="&#x638;" horiz-adv-x="1609" d="M167 129v139h271q76 0 76 126v840h237v-736q103 135 221 222q152 112 289 111q146 -1 249 -126q99 -118 99 -266q0 -227 -160 -349q-117 -89 -237 -89h-698q-164 0 -347 128zM830 268h373q83 0 135 46.5t52 127.5q0 62 -49 100q-45 36 -108 36q-154 0 -403 -310z M946 1011v237h237v-237h-237z" />
<glyph unicode="&#x639;" horiz-adv-x="1175" d="M167 -243q0 271 289 493q-165 163 -165 330q0 69 27.5 129.5t75.5 108t114.5 79.5t144.5 44q27 4 57 6t62 2q55 0 118 -6v-221q-48 6 -90 6q-77 0 -129 -20q-154 -57 -154 -166q0 -30 14 -55t37.5 -43t55 -28t67.5 -10q61 0 386 143l94 -195l-264 -110 q-107 -45 -190.5 -92.5t-146.5 -96.5q-167 -132 -167 -274q0 -64 27 -114t78 -84t124.5 -51.5t166.5 -17.5q101 0 200 28q7 2 54 18t135 47l104 -208q-77 -53 -202 -93q-168 -53 -336 -53q-241 0 -406 129q-181 141 -181 375z" />
<glyph unicode="&#x63a;" horiz-adv-x="1175" d="M167 -243q0 271 289 493q-165 163 -165 330q0 69 27.5 129.5t75.5 108t114.5 79.5t144.5 44q27 4 57 6t62 2q55 0 118 -6v-221q-48 6 -90 6q-77 0 -129 -20q-154 -57 -154 -166q0 -30 14 -55t37.5 -43t55 -28t67.5 -10q61 0 386 143l94 -195l-264 -110 q-107 -45 -190.5 -92.5t-146.5 -96.5q-167 -132 -167 -274q0 -64 27 -114t78 -84t124.5 -51.5t166.5 -17.5q101 0 200 28q7 2 54 18t135 47l104 -208q-77 -53 -202 -93q-168 -53 -336 -53q-241 0 -406 129q-181 141 -181 375zM526 1128v237h237v-237h-237z" />
<glyph unicode="&#x640;" horiz-adv-x="909" d="M-29 0v268h964v-268h-964z" />
<glyph unicode="&#x641;" horiz-adv-x="2013" d="M167 383v129h236v-101q0 -143 166 -143h1050q39 0 75 15q76 31 78 111q-53 -24 -150 -24q-126 0 -201.5 76t-78.5 202q-3 120 60 216q72 110 186 110q205 0 322 -198q98 -167 98 -386q0 -201 -95 -295t-297 -94h-1112q-337 0 -337 382zM1467 1150v237h237v-237h-237z M1525 665q0 -98 136 -98q80 0 104 25q-10 59 -46 101q-41 48 -97 48q-97 0 -97 -76z" />
<glyph unicode="&#x642;" horiz-adv-x="1513" d="M167 309q0 81 41 230l220 -59q-25 -90 -25 -167q0 -355 392 -355q179 0 300 73q139 85 163 251q-102 -28 -150 -28q-160 0 -245 93q-81 90 -81 254q0 120 86 213t205 93q198 0 326 -194q112 -171 112 -379q0 -298 -202 -478q-195 -173 -496 -173q-303 0 -473 162 q-173 165 -173 464zM802 1088v212h211v-212h-211zM994 587q0 -111 149 -111q79 0 112 28q-12 58 -58 109q-51 58 -106 58q-97 0 -97 -84zM1087 1088v212h211v-212h-211z" />
<glyph unicode="&#x643;" horiz-adv-x="1574" d="M167 383v129h236v-111q0 -133 153 -133h676q127 0 127 68v22v875h215v-862v-51q0 -152 -115 -240q-105 -79 -261 -79h-698q-333 0 -333 382zM592 720l180 45q-59 68 -59 135q0 75 68 122q60 41 139 41q58 0 102 -24v-97q-44 11 -88 11q-116 0 -116 -67q0 -35 30 -58 q27 -22 63 -22q30 0 195 46l31 -118l-514 -125z" />
<glyph unicode="&#x644;" horiz-adv-x="1277" d="M167 184q0 52 20 147q22 106 52 166q72 -25 185 -67q-46 -200 -46 -232q0 -316 341 -316q123 0 213 51q128 72 128 223v1077h215v-1046q0 -238 -129 -389q-153 -180 -455 -180q-247 0 -389 162q-135 154 -135 404z" />
<glyph unicode="&#x645;" horiz-adv-x="1183" d="M167 -56q0 345 298 345q23 110 85 201q102 149 266 149q141 0 248 -80q117 -88 117 -225q0 -145 -104 -235q-99 -85 -247 -85q-61 0 -180 18.5t-178 18.5q-90 0 -90 -72v-790h-215v755zM636 282q121 -28 194 -28q150 0 150 80q0 57 -54 88q-45 26 -106 26q-48 0 -97 -36 q-64 -46 -87 -130z" />
<glyph unicode="&#x646;" horiz-adv-x="1386" d="M167 198q0 70 41 243l209 -52q-17 -81 -17 -177q0 -145 104 -236q100 -87 247 -87q178 0 288.5 106t110.5 283q0 110 -97 319l205 133q128 -181 128 -463q0 -207 -121 -386q-175 -259 -529 -259q-250 0 -409.5 162.5t-159.5 413.5zM626 743v237h237v-237h-237z" />
<glyph unicode="&#x647;" horiz-adv-x="1118" d="M167 412q0 140 83 250q90 121 226 121q157 0 346 -150q203 -161 203 -332q0 -167 -143 -249q-112 -64 -281 -64q-205 0 -319.5 110.5t-114.5 313.5zM400 405q0 -77 62 -122q55 -41 135 -41q164 0 164 80q0 74 -108 147q-95 64 -156 64q-41 0 -71 -45q-26 -39 -26 -83z " />
<glyph unicode="&#x648;" horiz-adv-x="933" d="M82 -351q242 117 302 155q258 163 289 331q-70 -23 -138 -23q-154 0 -246 102q-89 99 -89 255q0 124 83 217q87 96 209 96q136 0 267 -124q170 -160 170 -436q0 -270 -262 -502q-196 -173 -477 -283zM416 462q0 -85 90 -97q87 -12 160 7q-3 81 -66 132q-50 41 -97 41 q-29 0 -58 -27.5t-29 -55.5z" />
<glyph unicode="&#x649;" horiz-adv-x="1515" d="M167 173q0 129 59 306l212 -63q-8 -34 -23 -103q-12 -55 -12 -119q0 -201 112 -275q73 -48 221 -48q144 0 294 47q212 66 249 189q-338 11 -426 46q-113 45 -113 207q0 178 178 330q162 139 309 139q143 0 281 -100l-105 -188q-133 59 -159 59q-155 0 -267 -160 q-6 -9 -7 -23q-1 -15 7 -18q47 -20 135 -26l177 -13q101 -7 162 -63q64 -60 64 -159q0 -186 -206 -347q-236 -185 -597 -185q-293 0 -433 183q-112 147 -112 384z" />
<glyph unicode="&#x64a;" horiz-adv-x="1515" d="M167 174q0 129 59 306l212 -63q-8 -34 -23 -103q-12 -55 -12 -119q0 -201 112 -275q73 -48 221 -48q144 0 294 47q212 66 249 189q-338 11 -426 46q-113 45 -113 207q0 178 178 330q162 139 309 139q143 0 281 -100l-105 -188q-133 59 -159 59q-155 0 -267 -160 q-6 -9 -7 -23q-1 -15 7 -18q47 -20 135 -26l177 -13q101 -7 162 -63q64 -60 64 -159q0 -186 -206 -347q-236 -185 -597 -185q-293 0 -433 183q-112 147 -112 384zM508 -535h211v-212h-211v212zM793 -535h211v-212h-211v212z" />
<glyph unicode="&#x64b;" d="M-269 336l563 142l28 -118l-560 -139zM-262 125l562 143l28 -119l-559 -139z" />
<glyph unicode="&#x64c;" d="M-377 289q54 75 118 73q105 -2 105 -105q0 -58 -32 -107l111 41q-31 52 -31 115q0 79 69 135q61 50 122 50q78 0 141 -51q67 -54 67 -130q0 -159 -194 -205l-410 -97l-39 104l39 18q62 29 62 86q0 34 -25 34q-22 0 -58 -27zM8 303q0 -33 27 -57.5t60 -22.5q87 6 87 87 q0 63 -90 63q-30 0 -56 -19q-28 -22 -28 -51z" />
<glyph unicode="&#x64d;" d="M-269 124l563 142l28 -118l-560 -139zM-262 -87l562 143l28 -119l-559 -139z" />
<glyph unicode="&#x64e;" d="M-302 116l563 143l28 -119l-560 -139z" />
<glyph unicode="&#x64f;" d="M-371 106q97 28 254 76q-32 52 -32 108q0 79 70 137q61 51 122 51q78 0 141 -51q67 -54 67 -130q0 -159 -194 -205l-400 -94zM-38 287q0 -33 28.5 -56.5t62.5 -20.5q87 7 87 87q0 62 -91 62q-31 0 -59 -21t-28 -51z" />
<glyph unicode="&#x650;" d="M-305 121l563 143l28 -119l-560 -139z" />
<glyph unicode="&#x651;" d="M-339 168q0 72 63 206l89 -46q-37 -96 -37 -114q0 -70 48 -70q71 0 92 73q12 41 9 132q35 19 114 60q0 -199 91 -199q49 0 45 60q-2 34 -19 62l-33 51l90 67q37 -49 64 -122q23 -62 23 -93q0 -67 -37 -114q-39 -50 -105 -50q-107 0 -163 80q-62 -146 -191 -146 q-143 0 -143 163z" />
<glyph unicode="&#x652;" d="M-236 245q0 92 72 164t164 72t164.5 -72t72.5 -164q0 -99 -69 -168t-168 -69q-96 0 -166 70.5t-70 166.5zM-101 245q0 -45 28 -73.5t73 -28.5q101 0 101 104q0 42 -31 70t-74 28q-37 0 -67 -31.5t-30 -68.5z" />
<glyph unicode="&#x653;" horiz-adv-x="988" d="M17 1300l53 124q39 71 83 71q21 0 61 -19q139 -64 283 -64q203 -1 399 81v-165q-193 -112 -406 -99q-74 3 -169 31t-108 25q-17 0 -57 -61q-36 19 -139 76z" />
<glyph unicode="&#x654;" horiz-adv-x="530" d="M-31 495l180 46q-58 68 -58 135q0 76 68 122q59 41 139 41q57 0 101 -24v-97q-44 11 -88 11q-116 0 -116 -67q0 -35 30 -58q27 -22 63 -22q30 0 195 46l31 -118l-514 -126z" />
<glyph unicode="&#x655;" d="M-241 463l180 46q-58 68 -58 135q0 76 68 122q59 41 139 41q57 0 101 -24v-97q-44 11 -88 11q-116 0 -116 -67q0 -35 30 -58q27 -22 63 -22q30 0 195 46l31 -118l-514 -126z" />
<glyph unicode="&#x656;" d="M-70 457h148l-26 -457h-94z" />
<glyph unicode="&#x660;" horiz-adv-x="1320" d="M470 275v378h379v-378h-379z" />
<glyph unicode="&#x661;" horiz-adv-x="1320" d="M392 1094q0 17 178 260q87 -81 157 -239q84 -188 134.5 -426t66.5 -527q2 -45 4 -113t3 -161h-257q0 81 -4.5 167t-12.5 180q-34 378 -147 647q-31 75 -61.5 127t-59.5 84z" />
<glyph unicode="&#x662;" horiz-adv-x="1320" d="M192 1108l180 253q30 -46 77.5 -149.5t76.5 -145.5q16 -33 55 -66q64 -53 198 -59q111 -5 111 83q0 38 -45 180l215 154q68 -170 68 -338q0 -181 -102 -291q-42 -34 -62 -46q-38 -23 -77 -31q-98 -19 -222 11q28 -107 48 -261q17 -132 20 -414l1 -100h-257q-3 88 -14 309 q-26 381 -150 671q-23 54 -121 240z" />
<glyph unicode="&#x663;" horiz-adv-x="1320" d="M107 1108q26 38 184 250q48 -50 88 -130q50 -100 62 -117q44 -63 122 -63q56 0 76 45q14 32 14 111v126h170q0 -153 4 -181q17 -118 111 -118q103 0 111 101q4 53 -31 142l156 104q38 -115 38 -232q0 -351 -278 -351q-69 0 -146 77q-28 -52 -43 -68q-40 -43 -102 -51 q-23 -3 -77 -3q29 -90 49 -215q26 -162 34 -432q4 -130 4 -215h-257q0 110 -14 313q-25 368 -171 698q-32 73 -104 209z" />
<glyph unicode="&#x664;" horiz-adv-x="1320" d="M282 184q0 217 274 510q-160 99 -160 278q0 105 69 180q118 128 428 213l69 -167q-21 0 -101 -27q-212 -71 -212 -167q0 -73 111 -126q74 -36 147 -48v-132q-355 -248 -355 -438q0 -105 174 -105h309l3 -271h-305q-138 0 -216 15q-235 45 -235 285z" />
<glyph unicode="&#x665;" horiz-adv-x="1320" d="M139 294q0 323 267 741l-111 108l104 235q245 -169 453 -418q219 -262 290 -492q39 -126 39 -184q0 -437 -542 -437q-255 0 -371 95q-129 105 -129 352zM360 338q0 -28 5 -50q33 -146 260 -146q209 0 267 87q28 42 28 89q0 28 -21 91q-47 142 -215 352q-79 100 -115 124 q-88 -134 -118 -202q-91 -208 -91 -345z" />
<glyph unicode="&#x666;" horiz-adv-x="1320" d="M191 1029v291q82 -33 155 -53.5t138 -28.5q51 -8 101.5 -11.5t101.5 -2.5q25 0 46 0.5t38 0.5t30.5 -0.5t20.5 -0.5q109 -12 111 -170v-266q0 -500 195 -727l-154 -226q-236 257 -272 743v365h-8q-71 0 -127.5 2.5t-99.5 7.5q-83 11 -152.5 29.5t-123.5 46.5z" />
<glyph unicode="&#x667;" horiz-adv-x="1320" d="M81 1110q0 9 139 271q206 -188 324 -490q47 -119 76.5 -242t41.5 -254q16 248 120 499q121 295 321 487l139 -271q-441 -527 -441 -1226h-282q0 462 -165 825q-114 251 -273 401z" />
<glyph unicode="&#x668;" horiz-adv-x="1320" d="M81 108q160 152 273 401q165 363 165 825h282q0 -699 441 -1226l-139 -271q-200 192 -321 487q-103 251 -120 499q-24 -258 -118 -496q-119 -302 -324 -490q-139 262 -139 271z" />
<glyph unicode="&#x669;" horiz-adv-x="1320" d="M218 874q0 171 107 341q120 191 282 191q85 0 146 -32t100.5 -99t58 -169.5t18.5 -244.5q0 -535 171 -775l-157 -261q-77 76 -120 159q-102 190 -120 477q-3 46 -3 108h-167q-85 7 -145 27t-98 56.5t-55.5 91t-17.5 130.5zM413 924q0 -49 25.5 -74.5t79.5 -28.5l169 1 v174q0 164 -125 164q-32 0 -59.5 -19.5t-47.5 -52t-31 -75.5t-11 -89z" />
<glyph unicode="&#x66a;" horiz-adv-x="1024" d="M120 1137q0 41 29.5 70.5t70.5 29.5q43 0 72 -29.5t29 -72.5q0 -40 -29.5 -69.5t-70.5 -29.5q-42 0 -71.5 29.5t-29.5 71.5zM220 -132l561 1467l86 -34l-560 -1467zM738 53q0 41 29.5 70.5t70.5 29.5q43 0 72 -29.5t29 -71.5q0 -41 -29.5 -70.5t-70.5 -29.5 q-42 0 -71.5 29.5t-29.5 71.5z" />
<glyph unicode="&#x66b;" horiz-adv-x="985" d="M118 -521l653 1023h114l-653 -1023h-114z" />
<glyph unicode="&#x66c;" horiz-adv-x="353" d="M140 874q0 16 5.5 33t15 30.5t23 22t29.5 8.5q59 0 59 -94q0 -15 -4 -39t-12 -53.5t-19.5 -62t-26.5 -65.5q-10 -27 -25 -51q-5 -6 -11.5 -9.5t-11.5 -3.5t-7.5 3t0.5 10q32 57 47.5 110.5t15.5 86.5q-24 6 -39 16t-24 21.5t-12 21.5t-3 15z" />
<glyph unicode="&#x66d;" horiz-adv-x="1118" d="M63 610v123l357 -4l-250 246l88 90l244 -248l-4 359h125l-7 -363l244 252l88 -90l-254 -246l363 4v-123l-355 2l269 -260l-88 -88l-267 275l7 -371h-125l4 371l-266 -275l-89 88l275 262z" />
<glyph unicode="&#x670;" d="M-70 457h148l-26 -457h-94z" />
<glyph unicode="&#x671;" horiz-adv-x="404" d="M-34 1439v66h132q44 84 106 143q78 73 157 73q171 0 171 -164q0 -121 -97 -154q-47 -16 -202 -16q-158 0 -267 52zM167 1v1233h236v-1233h-236zM198 1502h161q86 0 86 48q0 56 -97 56q-72 0 -150 -104z" />
<glyph unicode="&#x672;" horiz-adv-x="404" d="M94 1360.5q2 16.5 6 26.5q17 39 73 45.5t80 17.5q-25 1 -58.5 18.5t-27.5 66.5q1 38 21.5 68.5t49.5 47t65.5 12.5t70.5 -36q10 -16 -1.5 -33.5t-36.5 -37.5q4 2 -14 20t-38 25q-15 4 -42 -10.5t-35 -42.5q7 -31 30 -44.5t54.5 -16.5t65 2.5t60.5 12.5q12 3 6 -12.5 t-19 -40.5q-52 -38 -166.5 -46t-134.5 -55q-11 -4 -9 12.5zM167 1v1233h236v-1233h-236z" />
<glyph unicode="&#x673;" horiz-adv-x="404" d="M73 -392.5q2 16.5 6 26.5q17 39 73 45.5t80 17.5q-25 1 -58.5 18.5t-27.5 66.5q1 38 21.5 68.5t49.5 47t65.5 12.5t70.5 -36q10 -16 -1.5 -33.5t-36.5 -37.5q4 2 -14 20t-38 25q-15 4 -42 -10.5t-35 -42.5q7 -31 30 -44.5t54.5 -16.5t65 2.5t60.5 12.5q12 3 6 -12.5 t-19 -40.5q-52 -38 -166.5 -46t-134.5 -55q-11 -4 -9 12.5zM167 1v1233h236v-1233h-236z" />
<glyph unicode="&#x675;" horiz-adv-x="404" d="M-33 1572l180 46q-58 68 -58 135q0 76 68 122q59 41 139 41q57 0 101 -24v-97q-44 11 -88 11q-116 0 -116 -67q0 -35 30 -58q27 -22 63 -22q30 0 195 46l31 -118l-514 -126zM167 1v1233h236v-1233h-236z" />
<glyph unicode="&#x676;" horiz-adv-x="903" d="M53 -351q242 117 302 155q258 163 289 331q-70 -23 -138 -23q-154 0 -246 102q-89 99 -89 255q0 124 83 217q87 96 209 96q136 0 267 -124q170 -160 170 -436q0 -270 -262 -502q-196 -173 -477 -283zM139 1083l180 46q-58 68 -58 135q0 76 68 122q59 41 139 41 q57 0 101 -24v-97q-44 11 -88 11q-116 0 -116 -67q0 -35 30 -58q27 -22 63 -22q30 0 195 46l31 -118l-514 -126zM387 462q0 -85 90 -97q87 -12 160 7q-3 81 -66 132q-50 41 -97 41q-29 0 -58 -27.5t-29 -55.5z" />
<glyph unicode="&#x677;" horiz-adv-x="1007" d="M54 1059q73 23 192 63q-24 42 -24 88q0 65 53 112q46 42 92 42q59 0 106 -42q51 -44 51 -106q0 -130 -147 -168l-302 -77zM156 -351q242 117 302 155q258 163 289 331q-70 -23 -138 -23q-154 0 -246 102q-89 99 -89 255q0 124 83 217q87 96 209 96q136 0 267 -124 q170 -160 170 -436q0 -270 -262 -502q-196 -173 -477 -283zM306 1208q0 -27 21.5 -46.5t46.5 -16.5q66 5 66 71q0 51 -69 51q-23 0 -44 -17.5t-21 -41.5zM490 462q0 -85 90 -97q87 -12 160 7q-3 81 -66 132q-50 41 -97 41q-29 0 -58 -27.5t-29 -55.5zM512 1064l156 41 q-50 60 -50 119q0 67 59 108q51 36 120 36q50 0 88 -21v-86q-38 10 -76 10q-101 0 -101 -59q0 -31 26 -51q24 -20 55 -20q26 0 169 41l26 -104l-445 -112z" />
<glyph unicode="&#x678;" horiz-adv-x="1515" d="M167 174q0 129 59 306l212 -63q-8 -34 -23 -103q-12 -55 -12 -119q0 -201 112 -275q73 -48 221 -48q144 0 294 47q212 66 249 189q-338 11 -426 46q-113 45 -113 207q0 178 178 330q162 139 309 139q143 0 281 -100l-105 -188q-133 59 -159 59q-155 0 -267 -160 q-6 -9 -7 -23q-1 -15 7 -18q47 -20 135 -26l177 -13q101 -7 162 -63q64 -60 64 -159q0 -186 -206 -347q-236 -185 -597 -185q-293 0 -433 183q-112 147 -112 384zM237 856l180 46q-58 68 -58 135q0 76 68 122q59 41 139 41q57 0 101 -24v-97q-44 11 -88 11q-116 0 -116 -67 q0 -35 30 -58q27 -22 63 -22q30 0 195 46l31 -118l-514 -126z" />
<glyph unicode="&#x679;" horiz-adv-x="2000" d="M167 362v150h236v-111q0 -77 41 -107q35 -26 116 -26h1104q82 0 82 55q0 27 -19 63l-108 206l205 141q174 -285 174 -406q0 -146 -70 -232q-76 -94 -219 -94h-1195q-347 0 -347 361zM751 734v47h91q25 0 25 41v281h79v-246q35 45 74 74q50 37 96 37q49 0 84 -42 q33 -39 33 -89q0 -76 -54 -116q-39 -30 -79 -30h-233q-55 0 -116 43zM972 781h125q28 0 45.5 15t17.5 42q0 21 -17 34q-15 12 -36 12q-51 0 -135 -103z" />
<glyph unicode="&#x67a;" horiz-adv-x="2000" d="M167 362v150h236v-111q0 -77 41 -107q35 -26 116 -26h1104q82 0 82 55q0 27 -19 63l-108 206l205 141q174 -285 174 -406q0 -146 -70 -232q-76 -94 -219 -94h-1195q-347 0 -347 361zM904 641v212h211v-212h-211zM904 899v212h211v-212h-211z" />
<glyph unicode="&#x67b;" horiz-adv-x="2000" d="M167 362v150h236v-111q0 -77 41 -107q35 -26 116 -26h1104q82 0 82 55q0 27 -19 63l-108 206l205 141q174 -285 174 -406q0 -146 -70 -232q-76 -94 -219 -94h-1195q-347 0 -347 361zM912 -199h211v-212h-211v212zM912 -457h211v-212h-211v212z" />
<glyph unicode="&#x67c;" horiz-adv-x="2000" d="M167 362v150h236v-111q0 -77 41 -107q35 -26 116 -26h1104q82 0 82 55q0 27 -19 63l-108 206l205 141q174 -285 174 -406q0 -146 -70 -232q-76 -94 -219 -94h-1195q-347 0 -347 361zM763 635v212h211v-212h-211zM792 -131q0 75 58 133t133 58q74 0 132.5 -58t58.5 -133 q0 -79 -55.5 -135t-135.5 -56q-78 0 -134.5 57t-56.5 134zM901 -131q0 -36 22.5 -59t59.5 -23q81 0 81 84q0 34 -25 56.5t-60 22.5q-29 0 -53.5 -25.5t-24.5 -55.5zM1048 635v212h211v-212h-211z" />
<glyph unicode="&#x67d;" horiz-adv-x="2000" d="M167 362v150h236v-111q0 -77 41 -107q35 -26 116 -26h1104q82 0 82 55q0 27 -19 63l-108 206l205 141q174 -285 174 -406q0 -146 -70 -232q-76 -94 -219 -94h-1195q-347 0 -347 361zM761 851v215h209v-215h-209zM883 600v212h215v-212h-215zM1022 851v215h211v-215h-211z " />
<glyph unicode="&#x67e;" horiz-adv-x="2000" d="M167 362v150h236v-111q0 -77 41 -107q35 -26 116 -26h1104q82 0 82 55q0 27 -19 63l-108 206l205 141q174 -285 174 -406q0 -146 -70 -232q-76 -94 -219 -94h-1195q-347 0 -347 361zM820 -212h209v-215h-209v215zM942 -466h215v-212h-215v212zM1081 -212h211v-215h-211 v215z" />
<glyph unicode="&#x67f;" horiz-adv-x="2000" d="M167 362v150h236v-111q0 -77 41 -107q35 -26 116 -26h1104q82 0 82 55q0 27 -19 63l-108 206l205 141q174 -285 174 -406q0 -146 -70 -232q-76 -94 -219 -94h-1195q-347 0 -347 361zM782 892v215h209v-215h-209zM892 1174v212h215v-212h-215zM904 641v212h215v-212h-215z M1043 892v215h211v-215h-211z" />
<glyph unicode="&#x680;" horiz-adv-x="2000" d="M167 362v150h236v-111q0 -77 41 -107q35 -26 116 -26h1104q82 0 82 55q0 27 -19 63l-108 206l205 141q174 -285 174 -406q0 -146 -70 -232q-76 -94 -219 -94h-1195q-347 0 -347 361zM831 -485h209v-215h-209v215zM941 -206h215v-212h-215v212zM953 -739h215v-212h-215 v212zM1092 -485h211v-215h-211v215z" />
<glyph unicode="&#x681;" horiz-adv-x="1428" d="M167 -145q0 267 262 499q172 152 369 236q-1 0 -61 3.5t-167 3.5q-86 0 -148.5 -19t-107.5 -47l-120 196q124 132 266 132h9l959 -35l-25 -254h-89q-220 0 -521 -221q-373 -274 -373 -476q0 -73 30.5 -136.5t84.5 -110.5t129.5 -74t165.5 -27q154 0 267 39l72.5 27.5 t102.5 37.5l114 -219q-280 -152 -548 -152q-160 0 -284.5 39.5t-210.5 115.5t-131 187.5t-45 254.5zM540 1187l180 46q-58 68 -58 135q0 76 68 122q59 41 139 41q57 0 101 -24v-97q-44 11 -88 11q-116 0 -116 -67q0 -35 30 -58q27 -22 63 -22q30 0 195 46l31 -118l-514 -126 z" />
<glyph unicode="&#x682;" horiz-adv-x="1428" d="M167 -145q0 267 262 499q172 152 369 236q-1 0 -61 3.5t-167 3.5q-86 0 -148.5 -19t-107.5 -47l-120 196q124 132 266 132h9l959 -35l-25 -254h-89q-220 0 -521 -221q-373 -274 -373 -476q0 -73 30.5 -136.5t84.5 -110.5t129.5 -74t165.5 -27q154 0 267 39l72.5 27.5 t102.5 37.5l114 -219q-280 -152 -548 -152q-160 0 -284.5 39.5t-210.5 115.5t-131 187.5t-45 254.5zM694 1022v212h211v-212h-211zM694 1280v212h211v-212h-211z" />
<glyph unicode="&#x683;" horiz-adv-x="1428" d="M167 -145q0 267 262 499q172 152 369 236q-1 0 -61 3.5t-167 3.5q-86 0 -148.5 -19t-107.5 -47l-120 196q124 132 266 132h9l959 -35l-25 -254h-89q-220 0 -521 -221q-373 -274 -373 -476q0 -73 30.5 -136.5t84.5 -110.5t129.5 -74t165.5 -27q154 0 267 39l72.5 27.5 t102.5 37.5l114 -219q-280 -152 -548 -152q-160 0 -284.5 39.5t-210.5 115.5t-131 187.5t-45 254.5zM680 77h211v-212h-211v212zM965 77h211v-212h-211v212z" />
<glyph unicode="&#x684;" horiz-adv-x="1428" d="M167 -145q0 267 262 499q172 152 369 236q-1 0 -61 3.5t-167 3.5q-86 0 -148.5 -19t-107.5 -47l-120 196q124 132 266 132h9l959 -35l-25 -254h-89q-220 0 -521 -221q-373 -274 -373 -476q0 -73 30.5 -136.5t84.5 -110.5t129.5 -74t165.5 -27q154 0 267 39l72.5 27.5 t102.5 37.5l114 -219q-280 -152 -548 -152q-160 0 -284.5 39.5t-210.5 115.5t-131 187.5t-45 254.5zM838 -6v212h211v-212h-211zM838 -52h211v-212h-211v212z" />
<glyph unicode="&#x685;" horiz-adv-x="1428" d="M167 -145q0 267 262 499q172 152 369 236q-1 0 -61 3.5t-167 3.5q-86 0 -148.5 -19t-107.5 -47l-120 196q124 132 266 132h9l959 -35l-25 -254h-89q-220 0 -521 -221q-373 -274 -373 -476q0 -73 30.5 -136.5t84.5 -110.5t129.5 -74t165.5 -27q154 0 267 39l72.5 27.5 t102.5 37.5l114 -219q-280 -152 -548 -152q-160 0 -284.5 39.5t-210.5 115.5t-131 187.5t-45 254.5zM524 1024v215h209v-215h-209zM646 1277v213h215v-213h-215zM785 1024v215h211v-215h-211z" />
<glyph unicode="&#x686;" horiz-adv-x="1428" d="M167 -145q0 267 262 499q172 152 369 236q-1 0 -61 3.5t-167 3.5q-86 0 -148.5 -19t-107.5 -47l-120 196q124 132 266 132h9l959 -35l-25 -254h-89q-220 0 -521 -221q-373 -274 -373 -476q0 -73 30.5 -136.5t84.5 -110.5t129.5 -74t165.5 -27q154 0 267 39l72.5 27.5 t102.5 37.5l114 -219q-280 -152 -548 -152q-160 0 -284.5 39.5t-210.5 115.5t-131 187.5t-45 254.5zM712 -33v215h209v-215h-209zM834 -72h215v-212h-215v212zM973 -33v215h211v-215h-211z" />
<glyph unicode="&#x687;" horiz-adv-x="1428" d="M167 -145q0 267 262 499q172 152 369 236q-1 0 -61 3.5t-167 3.5q-86 0 -148.5 -19t-107.5 -47l-120 196q124 132 266 132h9l959 -35l-25 -254h-89q-220 0 -521 -221q-373 -274 -373 -476q0 -73 30.5 -136.5t84.5 -110.5t129.5 -74t165.5 -27q154 0 267 39l72.5 27.5 t102.5 37.5l114 -219q-280 -152 -548 -152q-160 0 -284.5 39.5t-210.5 115.5t-131 187.5t-45 254.5zM767 54h175v-179h-175v179zM859 110v177h179v-177h-179zM869 -158h179v-176h-179v176zM985 54h175v-179h-175v179z" />
<glyph unicode="&#x688;" horiz-adv-x="1181" d="M162 220l163 163q0 -11 60 -59q70 -56 125 -56h295q125 0 125 70q0 39 -28 73l-382 459l181 173l386 -465q93 -112 93 -236q0 -341 -386 -341h-256q-204 0 -376 219zM421 1252v47h91q25 0 25 41v281h79v-246q35 45 74 74q50 37 96 37q49 0 84 -42q33 -39 33 -89 q0 -76 -54 -116q-39 -30 -79 -30h-233q-55 0 -116 43zM642 1299h125q28 0 45.5 15t17.5 42q0 21 -17 34q-15 12 -36 12q-51 0 -135 -103z" />
<glyph unicode="&#x689;" horiz-adv-x="1181" d="M162 220l163 163q0 -11 60 -59q70 -56 125 -56h295q125 0 125 70q0 39 -28 73l-382 459l181 173l386 -465q93 -112 93 -236q0 -341 -386 -341h-256q-204 0 -376 219zM405 -134q0 75 58 133t133 58q74 0 132.5 -58t58.5 -133q0 -79 -55.5 -135t-135.5 -56q-78 0 -134.5 57 t-56.5 134zM514 -134q0 -36 22.5 -59t59.5 -23q81 0 81 84q0 34 -25 56.5t-60 22.5q-29 0 -53.5 -25.5t-24.5 -55.5z" />
<glyph unicode="&#x68a;" horiz-adv-x="1181" d="M162 220l163 163q0 -11 60 -59q70 -56 125 -56h295q125 0 125 70q0 39 -28 73l-382 459l181 173l386 -465q93 -112 93 -236q0 -341 -386 -341h-256q-204 0 -376 219zM373 -198h237v-237h-237v237z" />
<glyph unicode="&#x68b;" horiz-adv-x="1181" d="M162 220l163 163q0 -11 60 -59q70 -56 125 -56h295q125 0 125 70q0 39 -28 73l-382 459l181 173l386 -465q93 -112 93 -236q0 -341 -386 -341h-256q-204 0 -376 219zM362 1242v47h91q25 0 25 41v281h79v-246q35 45 74 74q50 37 96 37q49 0 84 -42q33 -39 33 -89 q0 -76 -54 -116q-39 -30 -79 -30h-233q-55 0 -116 43zM430 -203h237v-237h-237v237zM583 1289h125q28 0 45.5 15t17.5 42q0 21 -17 34q-15 12 -36 12q-51 0 -135 -103z" />
<glyph unicode="&#x68c;" horiz-adv-x="1181" d="M162 220l163 163q0 -11 60 -59q70 -56 125 -56h295q125 0 125 70q0 39 -28 73l-382 459l181 173l386 -465q93 -112 93 -236q0 -341 -386 -341h-256q-204 0 -376 219zM433 1221v212h211v-212h-211zM718 1221v212h211v-212h-211z" />
<glyph unicode="&#x68d;" horiz-adv-x="1181" d="M162 220l163 163q0 -11 60 -59q70 -56 125 -56h295q125 0 125 70q0 39 -28 73l-382 459l181 173l386 -465q93 -112 93 -236q0 -341 -386 -341h-256q-204 0 -376 219zM333 -214h211v-212h-211v212zM618 -214h211v-212h-211v212z" />
<glyph unicode="&#x68e;" horiz-adv-x="1181" d="M162 220l163 163q0 -11 60 -59q70 -56 125 -56h295q125 0 125 70q0 39 -28 73l-382 459l181 173l386 -465q93 -112 93 -236q0 -341 -386 -341h-256q-204 0 -376 219zM435 1202v215h209v-215h-209zM557 1455v213h215v-213h-215zM696 1202v215h211v-215h-211z" />
<glyph unicode="&#x68f;" horiz-adv-x="1181" d="M162 220l163 163q0 -11 60 -59q70 -56 125 -56h295q125 0 125 70q0 39 -28 73l-382 459l181 173l386 -465q93 -112 93 -236q0 -341 -386 -341h-256q-204 0 -376 219zM341 1428v215h209v-215h-209zM463 1177v212h215v-212h-215zM602 1428v215h211v-215h-211z" />
<glyph unicode="&#x690;" horiz-adv-x="1181" d="M162 220l163 163q0 -11 60 -59q70 -56 125 -56h295q125 0 125 70q0 39 -28 73l-382 459l181 173l386 -465q93 -112 93 -236q0 -341 -386 -341h-256q-204 0 -376 219zM362 1437v204h198v-204h-198zM466 1704v201h204v-201h-204zM477 1200v201h204v-201h-204zM609 1437v204 h200v-204h-200z" />
<glyph unicode="&#x691;" horiz-adv-x="952" d="M56 -388q149 79 264 153q278 179 354 305q26 43 26 105q0 48 -19 86q-28 77 -125 258l219 128l132 -264q46 -92 46 -187q0 -130 -88 -279q-111 -189 -691 -525zM357 861v47h91q25 0 25 41v281h79v-246q35 45 74 74q50 37 96 37q49 0 84 -42q33 -39 33 -89q0 -76 -54 -116 q-39 -30 -79 -30h-233q-55 0 -116 43zM578 908h125q28 0 45.5 15t17.5 42q0 21 -17 34q-15 12 -36 12q-51 0 -135 -103z" />
<glyph unicode="&#x692;" horiz-adv-x="952" d="M56 -388q149 79 264 153q278 179 354 305q26 43 26 105q0 48 -19 86q-28 77 -125 258l219 128l132 -264q46 -92 46 -187q0 -130 -88 -279q-111 -189 -691 -525zM269 1210l170 2q14 -21 29.5 -58t30 -80t26.5 -85.5t19 -75.5q6 33 18.5 75.5t27.5 85.5t31 80t30 58l170 -2 q-20 -16 -52.5 -65.5t-66.5 -114.5t-63 -136.5t-43 -130.5h-103q-9 40 -27 86t-38.5 92.5t-43.5 90t-44.5 79.5t-40 62t-30.5 37z" />
<glyph unicode="&#x693;" horiz-adv-x="952" d="M56 -388q149 79 264 153q278 179 354 305q26 43 26 105q0 48 -19 86q-28 77 -125 258l219 128l132 -264q46 -92 46 -187q0 -130 -88 -279q-111 -189 -691 -525zM269 -548q0 75 58 133t133 58q74 0 132.5 -58t58.5 -133q0 -79 -55.5 -135t-135.5 -56q-78 0 -134.5 57 t-56.5 134zM378 -548q0 -36 22.5 -59t59.5 -23q81 0 81 84q0 34 -25 56.5t-60 22.5q-29 0 -53.5 -25.5t-24.5 -55.5z" />
<glyph unicode="&#x694;" horiz-adv-x="952" d="M56 -388q149 79 264 153q278 179 354 305q26 43 26 105q0 48 -19 86q-28 77 -125 258l219 128l132 -264q46 -92 46 -187q0 -130 -88 -279q-111 -189 -691 -525zM237 -684h237v-237h-237v237z" />
<glyph unicode="&#x695;" horiz-adv-x="952" d="M56 -388q149 79 264 153q278 179 354 305q26 43 26 105q0 48 -19 86q-28 77 -125 258l219 128l132 -264q46 -92 46 -187q0 -130 -88 -279q-111 -189 -691 -525zM68 -764l155 2q13 -19 27 -52t27.5 -71.5t24.5 -76.5t17 -68q6 30 17.5 68t25 76.5t28 71.5t27.5 52l155 -2 q-18 -14 -47.5 -58.5t-60.5 -102.5t-57.5 -122t-39.5 -117h-94q-9 36 -25 77t-35 82.5t-40 80.5t-40.5 71.5t-36.5 55.5t-28 33z" />
<glyph unicode="&#x696;" horiz-adv-x="952" d="M56 -388q149 79 264 153q278 179 354 305q26 43 26 105q0 48 -19 86q-28 77 -125 258l219 128l132 -264q46 -92 46 -187q0 -130 -88 -279q-111 -189 -691 -525zM64 90h237v-237h-237v237zM375 -634h237v-237h-237v237z" />
<glyph unicode="&#x697;" horiz-adv-x="952" d="M56 -388q149 79 264 153q278 179 354 305q26 43 26 105q0 48 -19 86q-28 77 -125 258l219 128l132 -264q46 -92 46 -187q0 -130 -88 -279q-111 -189 -691 -525zM337 830v212h211v-212h-211zM622 830v212h211v-212h-211z" />
<glyph unicode="&#x698;" horiz-adv-x="952" d="M56 -388q149 79 264 153q278 179 354 305q26 43 26 105q0 48 -19 86q-28 77 -125 258l219 128l132 -264q46 -92 46 -187q0 -130 -88 -279q-111 -189 -691 -525zM365 818v215h209v-215h-209zM487 1071v213h215v-213h-215zM626 818v215h211v-215h-211z" />
<glyph unicode="&#x699;" horiz-adv-x="952" d="M56 -388q149 79 264 153q278 179 354 305q26 43 26 105q0 48 -19 86q-28 77 -125 258l219 128l132 -264q46 -92 46 -187q0 -130 -88 -279q-111 -189 -691 -525zM363 996v215h209v-215h-209zM473 1278v212h215v-212h-215zM485 745v212h215v-212h-215zM624 996v215h211 v-215h-211z" />
<glyph unicode="&#x69a;" horiz-adv-x="2463" d="M167 5q0 39 20 132q23 109 52 173l206 -73q-52 -127 -52 -236q0 -194 141 -285q107 -69 272 -69q424 0 424 389q0 199 -194 517l201 129q39 -74 122 -220q108 -179 208 -179q118 0 118 156v250h219q0 -190 20 -261q41 -145 174 -145q115 0 115 111q0 45 -111 243l202 124 q29 -51 97 -187q59 -128 59 -208q0 -152 -82 -254q-88 -111 -237 -111q-168 0 -289 167q-56 -82 -84 -107q-63 -56 -156 -56q-85 0 -142 44q0 -190 -56 -319q-156 -361 -615 -361q-330 0 -498 216q-134 172 -134 420zM1654 980v237h237v-237h-237zM1680 -204h237v-237h-237 v237z" />
<glyph unicode="&#x69b;" horiz-adv-x="2463" d="M167 5q0 39 20 132q23 109 52 173l206 -73q-52 -127 -52 -236q0 -194 141 -285q107 -69 272 -69q424 0 424 389q0 199 -194 517l201 129q39 -74 122 -220q108 -179 208 -179q118 0 118 156v250h219q0 -190 20 -261q41 -145 174 -145q115 0 115 111q0 45 -111 243l202 124 q29 -51 97 -187q59 -128 59 -208q0 -152 -82 -254q-88 -111 -237 -111q-168 0 -289 167q-56 -82 -84 -107q-63 -56 -156 -56q-85 0 -142 44q0 -190 -56 -319q-156 -361 -615 -361q-330 0 -498 216q-134 172 -134 420zM1614 -201h209v-215h-209v215zM1736 -455h215v-212h-215 v212zM1875 -201h211v-215h-211v215z" />
<glyph unicode="&#x69c;" horiz-adv-x="2463" d="M167 5q0 39 20 132q23 109 52 173l206 -73q-52 -127 -52 -236q0 -194 141 -285q107 -69 272 -69q424 0 424 389q0 199 -194 517l201 129q39 -74 122 -220q108 -179 208 -179q118 0 118 156v250h219q0 -190 20 -261q41 -145 174 -145q115 0 115 111q0 45 -111 243l202 124 q29 -51 97 -187q59 -128 59 -208q0 -152 -82 -254q-88 -111 -237 -111q-168 0 -289 167q-56 -82 -84 -107q-63 -56 -156 -56q-85 0 -142 44q0 -190 -56 -319q-156 -361 -615 -361q-330 0 -498 216q-134 172 -134 420zM1576 968v215h209v-215h-209zM1594 -211h209v-215h-209 v215zM1698 1221v213h215v-213h-215zM1716 -465h215v-212h-215v212zM1837 968v215h211v-215h-211zM1855 -211h211v-215h-211v215z" />
<glyph unicode="&#x69d;" horiz-adv-x="2464" d="M167 29q0 39 20 133q23 110 52 173l206 -73q-52 -127 -52 -237q0 -194 141 -285q107 -69 272 -69q199 0 310 96q117 102 117 297q0 107 -62 266q-52 133 -125 248l215 131q156 -347 229 -374q317 493 626 493q139 0 243 -119q101 -115 101 -256q0 -228 -133 -350 q-112 -102 -277 -102h-434q-107 0 -135 45q0 -366 -284 -551q-179 -116 -405 -116q-333 0 -497 223q-128 174 -128 427zM1543 -214h211v-212h-211v212zM1685 268h341q208 0 208 174q0 62 -45 100.5t-108 38.5q-91 0 -195 -90q-73 -64 -201 -223zM1828 -214h211v-212h-211 v212z" />
<glyph unicode="&#x69e;" horiz-adv-x="2464" d="M167 29q0 39 20 133q23 110 52 173l206 -73q-52 -127 -52 -237q0 -194 141 -285q107 -69 272 -69q199 0 310 96q117 102 117 297q0 107 -62 266q-52 133 -125 248l215 131q156 -347 229 -374q317 493 626 493q139 0 243 -119q101 -115 101 -256q0 -228 -133 -350 q-112 -102 -277 -102h-434q-107 0 -135 45q0 -366 -284 -551q-179 -116 -405 -116q-333 0 -497 223q-128 174 -128 427zM1333 867v215h209v-215h-209zM1455 1120v213h215v-213h-215zM1594 867v215h211v-215h-211zM1685 268h341q208 0 208 174q0 62 -45 100.5t-108 38.5 q-91 0 -195 -90q-73 -64 -201 -223z" />
<glyph unicode="&#x69f;" horiz-adv-x="1609" d="M167 129v139h271q76 0 76 126v840h237v-736q103 135 221 222q152 112 289 111q146 -1 249 -126q99 -118 99 -266q0 -227 -160 -349q-117 -89 -237 -89h-698q-164 0 -347 128zM830 268h373q83 0 135 46.5t52 127.5q0 62 -49 100q-45 36 -108 36q-154 0 -403 -310z M921 1063v215h209v-215h-209zM1043 1316v213h215v-213h-215zM1182 1063v215h211v-215h-211z" />
<glyph unicode="&#x6a0;" horiz-adv-x="1175" d="M167 -243q0 271 289 493q-165 163 -165 330q0 69 27.5 129.5t75.5 108t114.5 79.5t144.5 44q27 4 57 6t62 2q55 0 118 -6v-221q-48 6 -90 6q-77 0 -129 -20q-154 -57 -154 -166q0 -30 14 -55t37.5 -43t55 -28t67.5 -10q61 0 386 143l94 -195l-264 -110 q-107 -45 -190.5 -92.5t-146.5 -96.5q-167 -132 -167 -274q0 -64 27 -114t78 -84t124.5 -51.5t166.5 -17.5q101 0 200 28q7 2 54 18t135 47l104 -208q-77 -53 -202 -93q-168 -53 -336 -53q-241 0 -406 129q-181 141 -181 375zM383 1201v215h209v-215h-209zM505 1454v213h215 v-213h-215zM644 1201v215h211v-215h-211z" />
<glyph unicode="&#x6a1;" horiz-adv-x="2013" d="M167 383v129h236v-101q0 -143 166 -143h1050q39 0 75 15q76 31 78 111q-53 -24 -150 -24q-126 0 -201.5 76t-78.5 202q-3 120 60 216q72 110 186 110q205 0 322 -198q98 -167 98 -386q0 -201 -95 -295t-297 -94h-1112q-337 0 -337 382zM1525 665q0 -98 136 -98 q80 0 104 25q-10 59 -46 101q-41 48 -97 48q-97 0 -97 -76z" />
<glyph unicode="&#x6a2;" horiz-adv-x="2013" d="M167 383v129h236v-101q0 -143 166 -143h1050q39 0 75 15q76 31 78 111q-53 -24 -150 -24q-126 0 -201.5 76t-78.5 202q-3 120 60 216q72 110 186 110q205 0 322 -198q98 -167 98 -386q0 -201 -95 -295t-297 -94h-1112q-337 0 -337 382zM1525 665q0 -98 136 -98 q80 0 104 25q-10 59 -46 101q-41 48 -97 48q-97 0 -97 -76zM1599 -209h237v-237h-237v237z" />
<glyph unicode="&#x6a3;" horiz-adv-x="2013" d="M167 383v129h236v-101q0 -143 166 -143h1050q39 0 75 15q76 31 78 111q-53 -24 -150 -24q-126 0 -201.5 76t-78.5 202q-3 120 60 216q72 110 186 110q205 0 322 -198q98 -167 98 -386q0 -201 -95 -295t-297 -94h-1112q-337 0 -337 382zM1471 1197v237h237v-237h-237z M1476 -205h237v-237h-237v237zM1525 665q0 -98 136 -98q80 0 104 25q-10 59 -46 101q-41 48 -97 48q-97 0 -97 -76z" />
<glyph unicode="&#x6a4;" horiz-adv-x="2013" d="M167 383v129h236v-101q0 -143 166 -143h1050q39 0 75 15q76 31 78 111q-53 -24 -150 -24q-126 0 -201.5 76t-78.5 202q-3 120 60 216q72 110 186 110q205 0 322 -198q98 -167 98 -386q0 -201 -95 -295t-297 -94h-1112q-337 0 -337 382zM1337 1110v215h209v-215h-209z M1459 1363v213h215v-213h-215zM1525 665q0 -98 136 -98q80 0 104 25q-10 59 -46 101q-41 48 -97 48q-97 0 -97 -76zM1598 1110v215h211v-215h-211z" />
<glyph unicode="&#x6a5;" horiz-adv-x="2013" d="M167 383v129h236v-101q0 -143 166 -143h1050q39 0 75 15q76 31 78 111q-53 -24 -150 -24q-126 0 -201.5 76t-78.5 202q-3 120 60 216q72 110 186 110q205 0 322 -198q98 -167 98 -386q0 -201 -95 -295t-297 -94h-1112q-337 0 -337 382zM1435 -169h209v-215h-209v215z M1525 665q0 -98 136 -98q80 0 104 25q-10 59 -46 101q-41 48 -97 48q-97 0 -97 -76zM1557 -423h215v-212h-215v212zM1696 -169h211v-215h-211v215z" />
<glyph unicode="&#x6a6;" horiz-adv-x="2013" d="M167 383v129h236v-101q0 -143 166 -143h1050q39 0 75 15q76 31 78 111q-53 -24 -150 -24q-126 0 -201.5 76t-78.5 202q-3 120 60 216q72 110 186 110q205 0 322 -198q98 -167 98 -386q0 -201 -95 -295t-297 -94h-1112q-337 0 -337 382zM1349 1388v204h198v-204h-198z M1453 1655v201h204v-201h-204zM1464 1151v201h204v-201h-204zM1525 665q0 -98 136 -98q80 0 104 25q-10 59 -46 101q-41 48 -97 48q-97 0 -97 -76zM1596 1388v204h200v-204h-200z" />
</font>
</defs>
</svg>
